<?xml version="1.0" encoding="UTF-8"?><!DOCTYPE svg PUBLIC "-//W3C//DTD SVG 1.1//EN" "http://www.w3.org/Graphics/SVG/1.1/DTD/svg11.dtd"><svg xmlns="http://www.w3.org/2000/svg" xmlns:xlink="http://www.w3.org/1999/xlink"><defs><style>.a{fill:#ee2e24;}</style><style>.a{fill:#ee2e24;}</style><style>.a{fill:#ee2e24;}</style><style>.a{fill:#ee2e24;}</style><style>.a{fill:#ee2e24;}</style><style>.a{fill:#ee2e24;}</style></defs><symbol id="rainbow" viewBox="0 0 64 64">
<g>
	<g>
		<path fill="#FF6666" d="M62,6.503V2C35.034,2,13.172,23.776,13.172,50.638h4.521C17.692,26.264,37.532,6.503,62,6.503z"/>
		<path fill="#FFFB80" d="M17.692,50.638h4.521c0-21.884,17.814-39.631,39.786-39.631V6.503
			C37.532,6.503,17.692,26.264,17.692,50.638z"/>
		<path fill="#A3E66F" d="M62,15.51v-4.503c-21.972,0-39.786,17.747-39.786,39.631h4.521C26.735,31.238,42.525,15.51,62,15.51z"/>
		<path fill="#66C2FF" d="M26.735,50.638h4.521c0-16.911,13.766-30.624,30.743-30.624V15.51
			C42.525,15.51,26.735,31.238,26.735,50.638z"/>
		<path fill="#9180FF" d="M62,24.518v-4.504c-16.978,0-30.743,13.713-30.743,30.624h4.521C35.777,36.212,47.52,24.518,62,24.518z"/>
	</g>
	<g>
		<path fill="#FFFFFF" d="M10.137,60.652c-0.724,0-1.44-0.116-2.129-0.344c-2.781-0.913-4.651-3.484-4.651-6.398
			c0-1.946,0.848-3.796,2.326-5.078c0.382-0.332,0.796-0.619,1.24-0.856L6.9,47.975l0.45-1.56c1.123-3.894,4.75-6.613,8.819-6.613
			c0.405,0,0.821,0.032,1.311,0.103c0.375,0.054,0.742,0.13,1.102,0.226l0.18-0.323c1.644-2.945,4.766-4.775,8.146-4.775
			c5.135,0,9.312,4.154,9.312,9.261c0,0.25-0.017,0.492-0.036,0.736l-0.015,0.182c0.396,0.15,0.782,0.332,1.155,0.547
			c2.482,1.422,4.025,4.072,4.025,6.912c0,3.74-2.56,6.938-6.225,7.774c-0.598,0.138-1.205,0.209-1.801,0.209H10.137z"/>
		<path fill="#75D6FF" d="M26.907,36.38c4.394,0,7.955,3.544,7.955,7.912c0,0.213-0.015,0.42-0.032,0.627
			c-1.839,0.141-3.509,0.869-4.821,2.002c0.977-0.558,2.105-0.882,3.313-0.882c0.447,0,0.884,0.045,1.306,0.128
			c0.723,0.143,1.4,0.403,2.017,0.757c1.999,1.146,3.347,3.286,3.347,5.745c0,3.149-2.209,5.784-5.17,6.461
			c-0.482,0.11-0.982,0.174-1.498,0.174c0,0,0,0-0.001,0H10.137l0,0c-0.595,0-1.165-0.099-1.7-0.274
			c-2.162-0.711-3.723-2.733-3.723-5.119c0-1.623,0.722-3.074,1.861-4.062c0.516-0.45,1.117-0.8,1.776-1.029
			c0.56-0.193,1.159-0.306,1.786-0.306c1.749,0,3.299,0.826,4.292,2.105l0.048-0.001c-1.151-2.108-3.304-3.595-5.823-3.833
			c0.937-3.25,3.944-5.635,7.514-5.635c0.382,0,0.752,0.036,1.118,0.089c0.725,0.104,1.417,0.302,2.063,0.588
			c2.405,1.068,4.163,3.305,4.555,5.984c0-0.014,0-0.031,0-0.046c0-3.052-1.573-5.738-3.957-7.305
			C21.306,38.03,23.912,36.38,26.907,36.38 M26.907,33.684c-3.658,0-7.053,1.869-9.004,4.92c-0.075-0.011-0.151-0.022-0.227-0.035
			c-0.559-0.078-1.036-0.114-1.507-0.114c-4.671,0-8.834,3.12-10.123,7.589l-0.307,1.063c-0.333,0.212-0.651,0.451-0.952,0.712
			C3.017,49.354,2,51.575,2,53.91c0,3.497,2.245,6.582,5.585,7.679C8.407,61.862,9.268,62,10.137,62h23.185
			c0.7,0,1.41-0.081,2.112-0.244c4.278-0.977,7.271-4.715,7.271-9.087c0-3.321-1.804-6.418-4.706-8.081
			c-0.14-0.08-0.281-0.156-0.425-0.229c0-0.022,0-0.044,0-0.066C37.575,38.442,32.79,33.684,26.907,33.684L26.907,33.684z"/>
	</g>
</g>
</symbol><symbol id="unicorn" viewBox="0 0 64 64">
<g>
	<g>
		<g>
			<path fill="#E5BE7A" d="M12.645,19.666C12,12.56,16.381,11.69,18.766,12.197c2.385,0.506,4.349,6.39,1.712,13.026
				c-3.631,9.127-10.542,10.65-10.542,10.65S13.489,28.984,12.645,19.666z"/>
			<path fill="#E5BE7A" d="M14.893,27.481c-0.645-7.105,3.736-7.976,6.121-7.469c2.385,0.506,4.35,6.391,1.712,13.027
				C19.095,42.167,9.553,44.716,9.553,44.716S15.737,36.799,14.893,27.481z"/>
			<path fill="#E5BE7A" d="M16.481,37.437c-0.644-7.105,3.736-7.975,6.123-7.468c2.385,0.507,4.347,6.39,1.709,13.027
				C20.685,52.124,8.658,55.69,8.658,55.69S17.325,46.755,16.481,37.437z"/>
		</g>
		<g>
			<path fill="#E5BE7A" d="M53.813,19.893c-1.36-7.006-6.227-8.203-8.611-7.696c-2.383,0.506-4.347,6.39-1.71,13.026
				c3.629,9.127,4.065,15.049,4.065,15.049S55.979,31.065,53.813,19.893z"/>
		</g>
	</g>
	<g>
		<g>
			<path fill="#C1875D" d="M57.98,2.01c0.16,5.134-0.616,9.349-2.302,11.872c-2.545,1.584-6.93,2.396-12.362,2.276
				c-0.159-5.134,0.614-9.352,2.302-11.874C48.164,2.701,52.548,1.888,57.98,2.01z"/>
		</g>
		<g>
			<path fill="#3E4347" d="M54.746,5.131c0.091,2.867-0.344,5.224-1.285,6.635c-1.423,0.887-3.876,1.339-6.912,1.272
				c-0.088-2.87,0.346-5.226,1.287-6.637C49.263,5.514,51.711,5.062,54.746,5.131z"/>
		</g>
	</g>
	<g>
		<g>
			<path fill="#C1875D" d="M20.817,16.152c-5.371,0.151-9.783-0.59-12.423-2.201c-1.66-2.435-2.507-6.623-2.379-11.815
				c5.369-0.151,9.777,0.586,12.417,2.198C20.094,6.773,20.94,10.958,20.817,16.152z"/>
		</g>
		<g>
			<path fill="#3E4347" d="M17.583,13.092c-3.023,0.084-5.509-0.331-6.997-1.24C9.649,10.48,9.173,8.121,9.243,5.193
				c3.028-0.087,5.511,0.33,6.998,1.239C17.176,7.807,17.659,10.167,17.583,13.092z"/>
		</g>
	</g>
	<g>
		<path fill="#C1875D" d="M48.585,28.956c0,3.673-4.128,16.411-4.128,21.752c0,0-5.146,0.514-12.477,0.514
			c-7.188,0-12.299-0.246-12.299-0.246c0-5.477-4.304-18.336-4.304-22.02c0-4.886-0.53-10.083,4.589-16.834
			c1.201-1.585,1.538-3.644,12.014-3.644c10.39,0,11.147,1.664,12.233,3.014C49.226,17.707,48.585,22.492,48.585,28.956z"/>
	</g>
	<g>
		<path fill="#FFE2B3" d="M44.771,54.88c0,4.885-2.998,7.119-12.787,7.119c-9.792,0-12.788-2.234-12.788-7.119
			c0-4.887,0.271-10.57,12.788-10.57C44.502,44.31,44.771,49.993,44.771,54.88z"/>
	</g>
	<g>
		<g>
			<path fill="#3E4347" d="M48.98,26.744c0,2.209-1.458,4-3.25,4c-1.797,0-3.25-1.791-3.25-4s1.453-4,3.25-4
				C47.522,22.744,48.98,24.534,48.98,26.744z"/>
		</g>
	</g>
	<g>
		<g>
			<ellipse fill="#3E4347" cx="18.231" cy="26.744" rx="3.25" ry="4"/>
		</g>
	</g>
	<path fill="#FFE2B3" d="M40.549,43.339c-2.143-1.385-5.175,1.119-6.774,5.592c-1.6,4.482-1.155,9.236,0.993,10.621
		c2.146,1.391,5.181-1.113,6.774-5.59C43.137,49.485,42.693,44.728,40.549,43.339z"/>
	<path fill="#FFE2B3" d="M23.42,43.339c-2.146,1.393-2.591,6.146-0.992,10.625c1.597,4.475,4.629,6.979,6.774,5.59
		c2.144-1.387,2.589-6.141,0.989-10.619C28.601,44.458,25.566,41.952,23.42,43.339z"/>
	<path fill="#FFFFFF" d="M27.57,19.22c0-8.426,1.976-10.126,4.415-10.126c2.439,0,4.414,1.7,4.414,10.126
		c0,8.428-4.414,20.39-4.414,20.39S27.57,27.648,27.57,19.22z"/>
	<g>
		<path fill="#3E4347" d="M39.776,45.974c-1.57-1.016-3.79,0.82-4.964,4.098c-1.173,3.281-0.844,6.766,0.729,7.781
			c1.573,1.02,3.796-0.816,4.965-4.096C41.674,50.476,41.349,46.991,39.776,45.974z"/>
		<path fill="#3E4347" d="M24.196,45.974c-1.573,1.02-1.9,4.502-0.729,7.783c1.169,3.279,3.391,5.115,4.963,4.096
			c1.57-1.016,1.896-4.5,0.726-7.779C27.987,46.794,25.766,44.958,24.196,45.974z"/>
	</g>
	<path fill="#E5BE7A" d="M45.73,9.555C38.439-0.789,9.623,2.571,9.623,26.513c0,0,6.883-8.836,18.46-11.407
		c0,0-4.606,5.271-10.041,9.45c0,0,11.297-2.86,18.275-9.357c0,0,0.815,4.672-8.524,7.768C27.792,22.966,54.687,22.269,45.73,9.555z
		"/>
</g>
</symbol><symbol id="sprites"><symbol id="unicorn" viewBox="0 0 64 64">
<g>
	<g>
		<g>
			<path fill="#E5BE7A" d="M12.645,19.666C12,12.56,16.381,11.69,18.766,12.197c2.385,0.506,4.349,6.39,1.712,13.026
				c-3.631,9.127-10.542,10.65-10.542,10.65S13.489,28.984,12.645,19.666z"/>
			<path fill="#E5BE7A" d="M14.893,27.481c-0.645-7.105,3.736-7.976,6.121-7.469c2.385,0.506,4.35,6.391,1.712,13.027
				C19.095,42.167,9.553,44.716,9.553,44.716S15.737,36.799,14.893,27.481z"/>
			<path fill="#E5BE7A" d="M16.481,37.437c-0.644-7.105,3.736-7.975,6.123-7.468c2.385,0.507,4.347,6.39,1.709,13.027
				C20.685,52.124,8.658,55.69,8.658,55.69S17.325,46.755,16.481,37.437z"/>
		</g>
		<g>
			<path fill="#E5BE7A" d="M53.813,19.893c-1.36-7.006-6.227-8.203-8.611-7.696c-2.383,0.506-4.347,6.39-1.71,13.026
				c3.629,9.127,4.065,15.049,4.065,15.049S55.979,31.065,53.813,19.893z"/>
		</g>
	</g>
	<g>
		<g>
			<path fill="#C1875D" d="M57.98,2.01c0.16,5.134-0.616,9.349-2.302,11.872c-2.545,1.584-6.93,2.396-12.362,2.276
				c-0.159-5.134,0.614-9.352,2.302-11.874C48.164,2.701,52.548,1.888,57.98,2.01z"/>
		</g>
		<g>
			<path fill="#3E4347" d="M54.746,5.131c0.091,2.867-0.344,5.224-1.285,6.635c-1.423,0.887-3.876,1.339-6.912,1.272
				c-0.088-2.87,0.346-5.226,1.287-6.637C49.263,5.514,51.711,5.062,54.746,5.131z"/>
		</g>
	</g>
	<g>
		<g>
			<path fill="#C1875D" d="M20.817,16.152c-5.371,0.151-9.783-0.59-12.423-2.201c-1.66-2.435-2.507-6.623-2.379-11.815
				c5.369-0.151,9.777,0.586,12.417,2.198C20.094,6.773,20.94,10.958,20.817,16.152z"/>
		</g>
		<g>
			<path fill="#3E4347" d="M17.583,13.092c-3.023,0.084-5.509-0.331-6.997-1.24C9.649,10.48,9.173,8.121,9.243,5.193
				c3.028-0.087,5.511,0.33,6.998,1.239C17.176,7.807,17.659,10.167,17.583,13.092z"/>
		</g>
	</g>
	<g>
		<path fill="#C1875D" d="M48.585,28.956c0,3.673-4.128,16.411-4.128,21.752c0,0-5.146,0.514-12.477,0.514
			c-7.188,0-12.299-0.246-12.299-0.246c0-5.477-4.304-18.336-4.304-22.02c0-4.886-0.53-10.083,4.589-16.834
			c1.201-1.585,1.538-3.644,12.014-3.644c10.39,0,11.147,1.664,12.233,3.014C49.226,17.707,48.585,22.492,48.585,28.956z"/>
	</g>
	<g>
		<path fill="#FFE2B3" d="M44.771,54.88c0,4.885-2.998,7.119-12.787,7.119c-9.792,0-12.788-2.234-12.788-7.119
			c0-4.887,0.271-10.57,12.788-10.57C44.502,44.31,44.771,49.993,44.771,54.88z"/>
	</g>
	<g>
		<g>
			<path fill="#3E4347" d="M48.98,26.744c0,2.209-1.458,4-3.25,4c-1.797,0-3.25-1.791-3.25-4s1.453-4,3.25-4
				C47.522,22.744,48.98,24.534,48.98,26.744z"/>
		</g>
	</g>
	<g>
		<g>
			<ellipse fill="#3E4347" cx="18.231" cy="26.744" rx="3.25" ry="4"/>
		</g>
	</g>
	<path fill="#FFE2B3" d="M40.549,43.339c-2.143-1.385-5.175,1.119-6.774,5.592c-1.6,4.482-1.155,9.236,0.993,10.621
		c2.146,1.391,5.181-1.113,6.774-5.59C43.137,49.485,42.693,44.728,40.549,43.339z"/>
	<path fill="#FFE2B3" d="M23.42,43.339c-2.146,1.393-2.591,6.146-0.992,10.625c1.597,4.475,4.629,6.979,6.774,5.59
		c2.144-1.387,2.589-6.141,0.989-10.619C28.601,44.458,25.566,41.952,23.42,43.339z"/>
	<path fill="#FFFFFF" d="M27.57,19.22c0-8.426,1.976-10.126,4.415-10.126c2.439,0,4.414,1.7,4.414,10.126
		c0,8.428-4.414,20.39-4.414,20.39S27.57,27.648,27.57,19.22z"/>
	<g>
		<path fill="#3E4347" d="M39.776,45.974c-1.57-1.016-3.79,0.82-4.964,4.098c-1.173,3.281-0.844,6.766,0.729,7.781
			c1.573,1.02,3.796-0.816,4.965-4.096C41.674,50.476,41.349,46.991,39.776,45.974z"/>
		<path fill="#3E4347" d="M24.196,45.974c-1.573,1.02-1.9,4.502-0.729,7.783c1.169,3.279,3.391,5.115,4.963,4.096
			c1.57-1.016,1.896-4.5,0.726-7.779C27.987,46.794,25.766,44.958,24.196,45.974z"/>
	</g>
	<path fill="#E5BE7A" d="M45.73,9.555C38.439-0.789,9.623,2.571,9.623,26.513c0,0,6.883-8.836,18.46-11.407
		c0,0-4.606,5.271-10.041,9.45c0,0,11.297-2.86,18.275-9.357c0,0,0.815,4.672-8.524,7.768C27.792,22.966,54.687,22.269,45.73,9.555z
		"/>
</g>
</symbol><symbol id="rainbow" viewBox="0 0 64 64">
<g>
	<g>
		<path fill="#FF6666" d="M62,6.503V2C35.034,2,13.172,23.776,13.172,50.638h4.521C17.692,26.264,37.532,6.503,62,6.503z"/>
		<path fill="#FFFB80" d="M17.692,50.638h4.521c0-21.884,17.814-39.631,39.786-39.631V6.503
			C37.532,6.503,17.692,26.264,17.692,50.638z"/>
		<path fill="#A3E66F" d="M62,15.51v-4.503c-21.972,0-39.786,17.747-39.786,39.631h4.521C26.735,31.238,42.525,15.51,62,15.51z"/>
		<path fill="#66C2FF" d="M26.735,50.638h4.521c0-16.911,13.766-30.624,30.743-30.624V15.51
			C42.525,15.51,26.735,31.238,26.735,50.638z"/>
		<path fill="#9180FF" d="M62,24.518v-4.504c-16.978,0-30.743,13.713-30.743,30.624h4.521C35.777,36.212,47.52,24.518,62,24.518z"/>
	</g>
	<g>
		<path fill="#FFFFFF" d="M10.137,60.652c-0.724,0-1.44-0.116-2.129-0.344c-2.781-0.913-4.651-3.484-4.651-6.398
			c0-1.946,0.848-3.796,2.326-5.078c0.382-0.332,0.796-0.619,1.24-0.856L6.9,47.975l0.45-1.56c1.123-3.894,4.75-6.613,8.819-6.613
			c0.405,0,0.821,0.032,1.311,0.103c0.375,0.054,0.742,0.13,1.102,0.226l0.18-0.323c1.644-2.945,4.766-4.775,8.146-4.775
			c5.135,0,9.312,4.154,9.312,9.261c0,0.25-0.017,0.492-0.036,0.736l-0.015,0.182c0.396,0.15,0.782,0.332,1.155,0.547
			c2.482,1.422,4.025,4.072,4.025,6.912c0,3.74-2.56,6.938-6.225,7.774c-0.598,0.138-1.205,0.209-1.801,0.209H10.137z"/>
		<path fill="#75D6FF" d="M26.907,36.38c4.394,0,7.955,3.544,7.955,7.912c0,0.213-0.015,0.42-0.032,0.627
			c-1.839,0.141-3.509,0.869-4.821,2.002c0.977-0.558,2.105-0.882,3.313-0.882c0.447,0,0.884,0.045,1.306,0.128
			c0.723,0.143,1.4,0.403,2.017,0.757c1.999,1.146,3.347,3.286,3.347,5.745c0,3.149-2.209,5.784-5.17,6.461
			c-0.482,0.11-0.982,0.174-1.498,0.174c0,0,0,0-0.001,0H10.137l0,0c-0.595,0-1.165-0.099-1.7-0.274
			c-2.162-0.711-3.723-2.733-3.723-5.119c0-1.623,0.722-3.074,1.861-4.062c0.516-0.45,1.117-0.8,1.776-1.029
			c0.56-0.193,1.159-0.306,1.786-0.306c1.749,0,3.299,0.826,4.292,2.105l0.048-0.001c-1.151-2.108-3.304-3.595-5.823-3.833
			c0.937-3.25,3.944-5.635,7.514-5.635c0.382,0,0.752,0.036,1.118,0.089c0.725,0.104,1.417,0.302,2.063,0.588
			c2.405,1.068,4.163,3.305,4.555,5.984c0-0.014,0-0.031,0-0.046c0-3.052-1.573-5.738-3.957-7.305
			C21.306,38.03,23.912,36.38,26.907,36.38 M26.907,33.684c-3.658,0-7.053,1.869-9.004,4.92c-0.075-0.011-0.151-0.022-0.227-0.035
			c-0.559-0.078-1.036-0.114-1.507-0.114c-4.671,0-8.834,3.12-10.123,7.589l-0.307,1.063c-0.333,0.212-0.651,0.451-0.952,0.712
			C3.017,49.354,2,51.575,2,53.91c0,3.497,2.245,6.582,5.585,7.679C8.407,61.862,9.268,62,10.137,62h23.185
			c0.7,0,1.41-0.081,2.112-0.244c4.278-0.977,7.271-4.715,7.271-9.087c0-3.321-1.804-6.418-4.706-8.081
			c-0.14-0.08-0.281-0.156-0.425-0.229c0-0.022,0-0.044,0-0.066C37.575,38.442,32.79,33.684,26.907,33.684L26.907,33.684z"/>
	</g>
</g>
</symbol></symbol><symbol id="footer-ico-1" viewBox="0 0 779.1 715.3"><path class="a" d="M129.9,298.7H298.7a13,13,0,0,0,0-26H129.9a13,13,0,0,0,0,26Z"/><path class="a" d="M467.5,350.6H129.9a13,13,0,0,0,0,26H467.6a13,13,0,1,0-.1-26Z"/><path class="a" d="M467.5,428.6H129.9a13,13,0,0,0,0,26H467.6a13,13,0,0,0,13-13A13.12,13.12,0,0,0,467.5,428.6Z"/><path class="a" d="M702.2.9,258.8,0a77,77,0,0,0-77,77v66.6L77,143.8a77,77,0,0,0-77,77V495.4a77,77,0,0,0,77,77h78.8V702.3a12.9,12.9,0,0,0,8.3,12.1,12.67,12.67,0,0,0,4.7.9,13.1,13.1,0,0,0,9.6-4.2l126-138.6,215.9-.9a77,77,0,0,0,77-77v-1.5l68.3,75.1a13,13,0,0,0,14.3,3.3,13,13,0,0,0,8.3-12.1V429.5h13.9a77,77,0,0,0,77-77V77.9A77,77,0,0,0,702.2.9ZM571.4,494.4a51.11,51.11,0,0,1-51.1,51l-221.7.9a13.49,13.49,0,0,0-9.6,4.2L181.8,668.6V559.3a13,13,0,0,0-13-13H77a51.09,51.09,0,0,1-51-51V220.8a51.11,51.11,0,0,1,51.1-51l117.8-.2h0l325.6-.7a51.09,51.09,0,0,1,51,51V494.4ZM753.3,352.5a51.09,51.09,0,0,1-51,51H675.4a13,13,0,0,0-13,13V525.8l-64.9-71.4V219.9a77,77,0,0,0-77-77l-312.6.6V77a51.09,51.09,0,0,1,51-51l443.4.9h0a51.09,51.09,0,0,1,51,51V352.5Z"/></symbol><symbol id="footer-ico-2" viewBox="0 0 505.2 792"><path class="a" d="M252.7,792l-10.2-17.9c-1.5-2.6-146.6-258.5-187-333.4C29.9,393,0,315.2,0,252.7,0,113.3,113.3,0,252.6,0S505.2,113.4,505.2,252.7c0,60.4-28,141.9-54.3,187.9C403.8,522.7,264.1,771.5,262.7,774Zm-.1-768.8c-126.5,0-229.4,103-229.4,229.5,0,54.4,26.5,128.1,52.8,176.9,34,63.1,142.7,255.3,176.6,315.1C285.7,685.8,391.1,498.3,430.8,429,456,385,482,306.9,482,252.6,482,126.2,379.1,23.2,252.6,23.2Zm0,343.4A114.74,114.74,0,0,1,138,251.9c0-63.2,51.4-114.7,114.6-114.7s114.6,51.5,114.6,114.7A114.74,114.74,0,0,1,252.6,366.6Zm0-206.1A91.5,91.5,0,1,0,344,252,91.52,91.52,0,0,0,252.6,160.5Z"/></symbol><symbol id="footer-ico-3" viewBox="0 0 744.6 769.1"><path class="a" d="M419.9,759.1H372.5a76.35,76.35,0,0,1,0-152.7h47.2A76.21,76.21,0,0,1,489,650.78c14.58-3.35,33.06-10.25,49.68-24.45,21.93-18.73,35.35-45.82,40-80.63H563.4a28.93,28.93,0,0,1-28.9-28.9V303.4a28.93,28.93,0,0,1,28.9-28.9h17.1V256c0-57.65-20-110.56-56.28-149-36.15-38.26-85.88-59.33-140-59.33H340.4c-111.91,0-196.3,89.55-196.3,208.3v18.5h17.1a28.93,28.93,0,0,1,28.9,28.9V516.9a28.93,28.93,0,0,1-28.9,28.9H103.1A113.23,113.23,0,0,1-10,432.7v-45c0-56.17,41.6-103.61,96.3-111.86V256c0-71.39,25.31-137.92,71.28-187.31C204.78,17.95,269.74-10,340.5-10h43.8c70.85,0,135.82,27.95,182.93,78.7,46,49.39,71.27,115.91,71.27,187.3v19.82a113.07,113.07,0,0,1,96.1,111.8v45a113.28,113.28,0,0,1-97.5,112C629.3,626,587.38,666.9,552.95,687a187.41,187.41,0,0,1-61.52,22.17A76.53,76.53,0,0,1,419.9,759.1ZM372.5,626.4a56.35,56.35,0,0,0,0,112.7h47.4a56.47,56.47,0,0,0,54.26-41.45l1.74-6.32,6.49-.93c15.19-2.17,38-7.51,60.47-20.63a141.71,141.71,0,0,0,47.47-45c16-24.37,25.22-54.63,27.5-89.94l.57-8.8,8.8-.54A93.23,93.23,0,0,0,714.6,432.6v-45a93,93,0,0,0-86.75-92.82l-9.35-.61V256c0-66.32-23.41-128-65.92-173.69C509.29,35.68,449.53,10,384.3,10H340.5c-65.14,0-124.9,25.68-168.28,72.31C129.71,128,106.3,189.68,106.3,256v38.15l-9.33.63A93.41,93.41,0,0,0,10,387.7v45a93.21,93.21,0,0,0,93.1,93.1h58.1a8.91,8.91,0,0,0,8.9-8.9V303.4a8.91,8.91,0,0,0-8.9-8.9H124.1V256c0-62.76,22-120.55,61.82-162.71S280.78,27.7,340.4,27.7h43.8c123.31,0,216.3,98.15,216.3,228.3v38.5H563.4a8.91,8.91,0,0,0-8.9,8.9V516.8a8.91,8.91,0,0,0,8.9,8.9h37.21l-.84,10.78C591.44,643,516.33,666.8,484.43,672.07l-8.47,1.4-2.67-8.16a56.29,56.29,0,0,0-53.6-38.91Z" transform="translate(10 10)"/></symbol><symbol id="sprite"><symbol id="footer-ico-1" viewBox="0 0 779.1 715.3"><path class="a" d="M129.9,298.7H298.7a13,13,0,0,0,0-26H129.9a13,13,0,0,0,0,26Z"/><path class="a" d="M467.5,350.6H129.9a13,13,0,0,0,0,26H467.6a13,13,0,1,0-.1-26Z"/><path class="a" d="M467.5,428.6H129.9a13,13,0,0,0,0,26H467.6a13,13,0,0,0,13-13A13.12,13.12,0,0,0,467.5,428.6Z"/><path class="a" d="M702.2.9,258.8,0a77,77,0,0,0-77,77v66.6L77,143.8a77,77,0,0,0-77,77V495.4a77,77,0,0,0,77,77h78.8V702.3a12.9,12.9,0,0,0,8.3,12.1,12.67,12.67,0,0,0,4.7.9,13.1,13.1,0,0,0,9.6-4.2l126-138.6,215.9-.9a77,77,0,0,0,77-77v-1.5l68.3,75.1a13,13,0,0,0,14.3,3.3,13,13,0,0,0,8.3-12.1V429.5h13.9a77,77,0,0,0,77-77V77.9A77,77,0,0,0,702.2.9ZM571.4,494.4a51.11,51.11,0,0,1-51.1,51l-221.7.9a13.49,13.49,0,0,0-9.6,4.2L181.8,668.6V559.3a13,13,0,0,0-13-13H77a51.09,51.09,0,0,1-51-51V220.8a51.11,51.11,0,0,1,51.1-51l117.8-.2h0l325.6-.7a51.09,51.09,0,0,1,51,51V494.4ZM753.3,352.5a51.09,51.09,0,0,1-51,51H675.4a13,13,0,0,0-13,13V525.8l-64.9-71.4V219.9a77,77,0,0,0-77-77l-312.6.6V77a51.09,51.09,0,0,1,51-51l443.4.9h0a51.09,51.09,0,0,1,51,51V352.5Z"/></symbol><symbol id="footer-ico-2" viewBox="0 0 505.2 792"><path class="a" d="M252.7,792l-10.2-17.9c-1.5-2.6-146.6-258.5-187-333.4C29.9,393,0,315.2,0,252.7,0,113.3,113.3,0,252.6,0S505.2,113.4,505.2,252.7c0,60.4-28,141.9-54.3,187.9C403.8,522.7,264.1,771.5,262.7,774Zm-.1-768.8c-126.5,0-229.4,103-229.4,229.5,0,54.4,26.5,128.1,52.8,176.9,34,63.1,142.7,255.3,176.6,315.1C285.7,685.8,391.1,498.3,430.8,429,456,385,482,306.9,482,252.6,482,126.2,379.1,23.2,252.6,23.2Zm0,343.4A114.74,114.74,0,0,1,138,251.9c0-63.2,51.4-114.7,114.6-114.7s114.6,51.5,114.6,114.7A114.74,114.74,0,0,1,252.6,366.6Zm0-206.1A91.5,91.5,0,1,0,344,252,91.52,91.52,0,0,0,252.6,160.5Z"/></symbol><symbol id="footer-ico-3" viewBox="0 0 744.6 769.1"><path class="a" d="M419.9,759.1H372.5a76.35,76.35,0,0,1,0-152.7h47.2A76.21,76.21,0,0,1,489,650.78c14.58-3.35,33.06-10.25,49.68-24.45,21.93-18.73,35.35-45.82,40-80.63H563.4a28.93,28.93,0,0,1-28.9-28.9V303.4a28.93,28.93,0,0,1,28.9-28.9h17.1V256c0-57.65-20-110.56-56.28-149-36.15-38.26-85.88-59.33-140-59.33H340.4c-111.91,0-196.3,89.55-196.3,208.3v18.5h17.1a28.93,28.93,0,0,1,28.9,28.9V516.9a28.93,28.93,0,0,1-28.9,28.9H103.1A113.23,113.23,0,0,1-10,432.7v-45c0-56.17,41.6-103.61,96.3-111.86V256c0-71.39,25.31-137.92,71.28-187.31C204.78,17.95,269.74-10,340.5-10h43.8c70.85,0,135.82,27.95,182.93,78.7,46,49.39,71.27,115.91,71.27,187.3v19.82a113.07,113.07,0,0,1,96.1,111.8v45a113.28,113.28,0,0,1-97.5,112C629.3,626,587.38,666.9,552.95,687a187.41,187.41,0,0,1-61.52,22.17A76.53,76.53,0,0,1,419.9,759.1ZM372.5,626.4a56.35,56.35,0,0,0,0,112.7h47.4a56.47,56.47,0,0,0,54.26-41.45l1.74-6.32,6.49-.93c15.19-2.17,38-7.51,60.47-20.63a141.71,141.71,0,0,0,47.47-45c16-24.37,25.22-54.63,27.5-89.94l.57-8.8,8.8-.54A93.23,93.23,0,0,0,714.6,432.6v-45a93,93,0,0,0-86.75-92.82l-9.35-.61V256c0-66.32-23.41-128-65.92-173.69C509.29,35.68,449.53,10,384.3,10H340.5c-65.14,0-124.9,25.68-168.28,72.31C129.71,128,106.3,189.68,106.3,256v38.15l-9.33.63A93.41,93.41,0,0,0,10,387.7v45a93.21,93.21,0,0,0,93.1,93.1h58.1a8.91,8.91,0,0,0,8.9-8.9V303.4a8.91,8.91,0,0,0-8.9-8.9H124.1V256c0-62.76,22-120.55,61.82-162.71S280.78,27.7,340.4,27.7h43.8c123.31,0,216.3,98.15,216.3,228.3v38.5H563.4a8.91,8.91,0,0,0-8.9,8.9V516.8a8.91,8.91,0,0,0,8.9,8.9h37.21l-.84,10.78C591.44,643,516.33,666.8,484.43,672.07l-8.47,1.4-2.67-8.16a56.29,56.29,0,0,0-53.6-38.91Z" transform="translate(10 10)"/></symbol></symbol></svg>