<?xml version="1.0" encoding="UTF-8"?><!DOCTYPE svg PUBLIC "-//W3C//DTD SVG 1.1//EN" "http://www.w3.org/Graphics/SVG/1.1/DTD/svg11.dtd"><svg xmlns="http://www.w3.org/2000/svg" xmlns:xlink="http://www.w3.org/1999/xlink"><defs><style>.a{fill:#ee2e24;}</style><style>.a{fill:#ee2e24;}</style><style>.a{fill:#ee2e24;}</style></defs><symbol id="ico-1" viewBox="0 0 779.1 715.3"><path class="a" d="M129.9,298.7H298.7a13,13,0,0,0,0-26H129.9a13,13,0,0,0,0,26Z"/><path class="a" d="M467.5,350.6H129.9a13,13,0,0,0,0,26H467.6a13,13,0,1,0-.1-26Z"/><path class="a" d="M467.5,428.6H129.9a13,13,0,0,0,0,26H467.6a13,13,0,0,0,13-13A13.12,13.12,0,0,0,467.5,428.6Z"/><path class="a" d="M702.2.9,258.8,0a77,77,0,0,0-77,77v66.6L77,143.8a77,77,0,0,0-77,77V495.4a77,77,0,0,0,77,77h78.8V702.3a12.9,12.9,0,0,0,8.3,12.1,12.67,12.67,0,0,0,4.7.9,13.1,13.1,0,0,0,9.6-4.2l126-138.6,215.9-.9a77,77,0,0,0,77-77v-1.5l68.3,75.1a13,13,0,0,0,14.3,3.3,13,13,0,0,0,8.3-12.1V429.5h13.9a77,77,0,0,0,77-77V77.9A77,77,0,0,0,702.2.9ZM571.4,494.4a51.11,51.11,0,0,1-51.1,51l-221.7.9a13.49,13.49,0,0,0-9.6,4.2L181.8,668.6V559.3a13,13,0,0,0-13-13H77a51.09,51.09,0,0,1-51-51V220.8a51.11,51.11,0,0,1,51.1-51l117.8-.2h0l325.6-.7a51.09,51.09,0,0,1,51,51V494.4ZM753.3,352.5a51.09,51.09,0,0,1-51,51H675.4a13,13,0,0,0-13,13V525.8l-64.9-71.4V219.9a77,77,0,0,0-77-77l-312.6.6V77a51.09,51.09,0,0,1,51-51l443.4.9h0a51.09,51.09,0,0,1,51,51V352.5Z"/></symbol><symbol id="ico-2" viewBox="0 0 505.2 792"><path class="a" d="M252.7,792l-10.2-17.9c-1.5-2.6-146.6-258.5-187-333.4C29.9,393,0,315.2,0,252.7,0,113.3,113.3,0,252.6,0S505.2,113.4,505.2,252.7c0,60.4-28,141.9-54.3,187.9C403.8,522.7,264.1,771.5,262.7,774Zm-.1-768.8c-126.5,0-229.4,103-229.4,229.5,0,54.4,26.5,128.1,52.8,176.9,34,63.1,142.7,255.3,176.6,315.1C285.7,685.8,391.1,498.3,430.8,429,456,385,482,306.9,482,252.6,482,126.2,379.1,23.2,252.6,23.2Zm0,343.4A114.74,114.74,0,0,1,138,251.9c0-63.2,51.4-114.7,114.6-114.7s114.6,51.5,114.6,114.7A114.74,114.74,0,0,1,252.6,366.6Zm0-206.1A91.5,91.5,0,1,0,344,252,91.52,91.52,0,0,0,252.6,160.5Z"/></symbol><symbol id="ico-3" viewBox="0 0 744.6 769.1"><path class="a" d="M419.9,759.1H372.5a76.35,76.35,0,0,1,0-152.7h47.2A76.21,76.21,0,0,1,489,650.78c14.58-3.35,33.06-10.25,49.68-24.45,21.93-18.73,35.35-45.82,40-80.63H563.4a28.93,28.93,0,0,1-28.9-28.9V303.4a28.93,28.93,0,0,1,28.9-28.9h17.1V256c0-57.65-20-110.56-56.28-149-36.15-38.26-85.88-59.33-140-59.33H340.4c-111.91,0-196.3,89.55-196.3,208.3v18.5h17.1a28.93,28.93,0,0,1,28.9,28.9V516.9a28.93,28.93,0,0,1-28.9,28.9H103.1A113.23,113.23,0,0,1-10,432.7v-45c0-56.17,41.6-103.61,96.3-111.86V256c0-71.39,25.31-137.92,71.28-187.31C204.78,17.95,269.74-10,340.5-10h43.8c70.85,0,135.82,27.95,182.93,78.7,46,49.39,71.27,115.91,71.27,187.3v19.82a113.07,113.07,0,0,1,96.1,111.8v45a113.28,113.28,0,0,1-97.5,112C629.3,626,587.38,666.9,552.95,687a187.41,187.41,0,0,1-61.52,22.17A76.53,76.53,0,0,1,419.9,759.1ZM372.5,626.4a56.35,56.35,0,0,0,0,112.7h47.4a56.47,56.47,0,0,0,54.26-41.45l1.74-6.32,6.49-.93c15.19-2.17,38-7.51,60.47-20.63a141.71,141.71,0,0,0,47.47-45c16-24.37,25.22-54.63,27.5-89.94l.57-8.8,8.8-.54A93.23,93.23,0,0,0,714.6,432.6v-45a93,93,0,0,0-86.75-92.82l-9.35-.61V256c0-66.32-23.41-128-65.92-173.69C509.29,35.68,449.53,10,384.3,10H340.5c-65.14,0-124.9,25.68-168.28,72.31C129.71,128,106.3,189.68,106.3,256v38.15l-9.33.63A93.41,93.41,0,0,0,10,387.7v45a93.21,93.21,0,0,0,93.1,93.1h58.1a8.91,8.91,0,0,0,8.9-8.9V303.4a8.91,8.91,0,0,0-8.9-8.9H124.1V256c0-62.76,22-120.55,61.82-162.71S280.78,27.7,340.4,27.7h43.8c123.31,0,216.3,98.15,216.3,228.3v38.5H563.4a8.91,8.91,0,0,0-8.9,8.9V516.8a8.91,8.91,0,0,0,8.9,8.9h37.21l-.84,10.78C591.44,643,516.33,666.8,484.43,672.07l-8.47,1.4-2.67-8.16a56.29,56.29,0,0,0-53.6-38.91Z" transform="translate(10 10)"/></symbol></svg>