<?xml version="1.0" encoding="utf-8"?>
<!-- Generator: Adobe Illustrator 15.0.0, SVG Export Plug-In  -->
<!DOCTYPE svg PUBLIC "-//W3C//DTD SVG 1.1//EN" "http://www.w3.org/Graphics/SVG/1.1/DTD/svg11.dtd" [
	<!ENTITY ns_flows "http://ns.adobe.com/Flows/1.0/">
]>
<svg version="1.1"
	 xmlns="http://www.w3.org/2000/svg" xmlns:xlink="http://www.w3.org/1999/xlink" xmlns:a="http://ns.adobe.com/AdobeSVGViewerExtensions/3.0/"
	 x="0px" y="0px" width="64px" height="92px" viewBox="-0.072 -0.044 64 92" enable-background="new -0.072 -0.044 64 92"
	 xml:space="preserve">
<defs>
</defs>
<path fill="#F9ED32" d="M32.001,87.874l-0.48-0.593c-0.073-0.092-7.566-9.356-15.139-19.875c-1.347-1.871-2.701-3.659-4.02-5.4
	C5.729,53.248,0,45.685,0,34.223c0-17.645,14.355-32,31.999-32c17.646,0,32,14.355,32,32c0,12.337-5.808,19.706-12.532,28.239
	c-1.556,1.974-3.165,4.017-4.747,6.184c-7.253,9.933-14.171,18.55-14.241,18.634L32.001,87.874z M31.999,3.454
	c-16.966,0-30.77,13.803-30.77,30.77c0,11.049,5.613,18.459,12.112,27.042c1.325,1.748,2.686,3.542,4.039,5.424
	c6.454,8.964,12.848,17.014,14.617,19.224c1.688-2.118,7.588-9.583,13.729-17.992c1.596-2.187,3.212-4.237,4.773-6.218
	c6.584-8.354,12.27-15.568,12.27-27.479C62.769,17.256,48.965,3.454,31.999,3.454z"/>
<path fill="#F9ED32" d="M31.998,50.651c-9.066,0-16.442-7.377-16.442-16.445c0-9.066,7.376-16.443,16.442-16.443
	c9.068,0,16.445,7.376,16.445,16.443C48.443,43.274,41.066,50.651,31.998,50.651z M31.998,18.993
	c-8.388,0-15.212,6.826-15.212,15.213c0,8.39,6.825,15.215,15.212,15.215c8.39,0,15.215-6.826,15.215-15.215
	C47.212,25.819,40.387,18.993,31.998,18.993z"/>
<rect x="29.438" fill="#F9ED32" width="5.124" height="5.124"/>
<rect x="29.438" y="86.833" fill="#F9ED32" width="5.124" height="5.123"/>
</svg>
