<?xml version="1.0" standalone="no"?>
<!DOCTYPE svg PUBLIC "-//W3C//DTD SVG 1.1//EN" "http://www.w3.org/Graphics/SVG/1.1/DTD/svg11.dtd" >
<svg xmlns="http://www.w3.org/2000/svg" xmlns:xlink="http://www.w3.org/1999/xlink" version="1.1">
<metadata>
Created by FontForge 20161013 at Sun Mar  1 19:23:46 2015
 By ,,,
Copyright (c) 2014 by (c) 2009 Designed by Svetoslav Simov (c) Fontfabric, Inc. All rights reserved.
</metadata>
<defs>
<font id="UniSansBookItalic" horiz-adv-x="523" >
  <font-face 
    font-family="UniSansBookItalic"
    font-weight="400"
    font-style="italic"
    font-stretch="normal"
    units-per-em="1000"
    panose-1="0 0 5 0 0 0 0 0 0 0"
    ascent="766"
    descent="-234"
    x-height="518"
    cap-height="708"
    bbox="-112 -244 1037 921"
    underline-thickness="50"
    underline-position="-150"
    unicode-range="U+0020-FB02"
  />
<missing-glyph horiz-adv-x="500" 
d="M500 0h-500l98 700h500zM305 395l206 255h-340zM135 605l-72 -510l206 255zM329 350l134 -255l72 510zM87 50h340l-135 255z" />
    <glyph glyph-name="fi" unicode="fi" horiz-adv-x="473" 
d="M430 690q20 0 32 -14q10 -11 10 -26q0 -4 -1 -8q-2 -20 -18 -34t-36 -14t-32 14q-10 12 -10 28v6q3 20 19 34t36 14zM436 518l-73 -518h-56l73 518h56zM-32 -149q25 16 36 42.5t15 52.5l84 599q6 42 24 73.5t44.5 52.5t60 31.5t70.5 10.5l-8 -56q-52 0 -89.5 -29
t-45.5 -83l-7 -53h112l-7 -50h-112l-70 -496q-7 -47 -28 -80.5t-53 -53.5z" />
    <glyph glyph-name="fl" unicode="fl" horiz-adv-x="501" 
d="M315 119q0 16 3 35l76 555h56l-76 -555q-2 -13 -2 -25q0 -34 15 -55q21 -28 74 -28l-8 -56q-76 0 -111 43q-27 33 -27 86zM-32 -149q25 16 36 42.5t15 52.5l84 599q6 42 24 73.5t44.5 52.5t60 31.5t70.5 10.5l-8 -56q-52 0 -89.5 -29t-45.5 -83l-7 -53h112l-7 -50h-112
l-70 -496q-7 -47 -28 -80.5t-53 -53.5z" />
    <glyph glyph-name=".notdef" horiz-adv-x="500" 
d="M500 0h-500l98 700h500zM305 395l206 255h-340zM135 605l-72 -510l206 255zM329 350l134 -255l72 510zM87 50h340l-135 255z" />
    <glyph glyph-name=".null" horiz-adv-x="0" 
 />
    <glyph glyph-name="nonmarkingreturn" horiz-adv-x="333" 
 />
    <glyph glyph-name="space" unicode=" " horiz-adv-x="219" 
 />
    <glyph glyph-name="exclam" unicode="!" horiz-adv-x="205" 
d="M189 708l-73 -518h-56l73 518h56zM72 86q20 0 32 -14q10 -11 10 -26q0 -4 -1 -8q-2 -20 -18 -34t-36 -14t-32 14q-10 12 -10 28v6q3 20 19 34t36 14z" />
    <glyph glyph-name="quotedbl" unicode="&#x22;" horiz-adv-x="316" 
d="M268 480h-48l32 228h60zM131 480h-48l32 228h60z" />
    <glyph glyph-name="numbersign" unicode="#" horiz-adv-x="741" 
d="M645 222h-184l-97 -223h-63l98 223h-161l-97 -223h-63l98 223h-157l20 56h162l69 159h-180l20 57h185l93 213h63l-93 -213h160l93 213h64l-94 -213h158l-23 -57h-161l-68 -159h180zM424 278l69 159h-160l-69 -159h160z" />
    <glyph glyph-name="dollar" unicode="$" horiz-adv-x="578" 
d="M528 227q0 -23 -6 -51q-8 -44 -32.5 -78t-59.5 -57.5t-77.5 -36.5t-86.5 -16l-15 -102h-49l15 102q-36 3 -70 12.5t-62 27t-48.5 41.5t-29.5 56l57 24q14 -45 59.5 -71t101.5 -31l42 298q-41 9 -79.5 20.5t-66.5 32.5t-41 54q-8 20 -8 47q0 18 4 40q7 42 30.5 75
t56.5 55.5t74 36t83 16.5l14 102h49l-14 -102q36 -2 70 -11.5t61.5 -26.5t48 -40.5t29.5 -54.5l-56 -24q-14 45 -59 70t-102 29l-38 -272q42 -9 83 -21t70.5 -35.5t43.5 -61.5q8 -20 8 -47zM131 508q0 -16 5 -28q9 -23 29 -38t48.5 -24t61.5 -16l37 262q-31 -3 -60 -12
t-53 -25t-41.5 -38.5t-23.5 -52.5q-3 -15 -3 -28zM468 214q0 17 -4 30q-10 27 -31.5 44t-52.5 27.5t-66 18.5l-40 -287q33 2 64 11.5t56.5 25.5t44 39.5t25.5 54.5q4 19 4 36z" />
    <glyph glyph-name="percent" unicode="%" horiz-adv-x="747" 
d="M43 -40l610 790l45 -30l-609 -790zM184 327q-71 0 -102 49q-23 35 -23 92q0 24 4 51q6 43 22 78t39.5 60t52.5 38t61 13q69 0 102 -50q23 -36 23 -92q0 -23 -4 -49q-6 -44 -22 -79.5t-39.5 -60t-52.5 -37.5t-61 -13zM304 560q0 38 -12 59q-20 32 -63 32q-45 0 -70.5 -31
t-36.5 -101q-4 -26 -4 -47q0 -36 12 -56q17 -31 63 -31q45 0 71.5 31.5t36.5 100.5q3 24 3 43zM524 -3q-72 0 -104 49q-21 33 -21 88q0 25 4 54q6 44 21.5 79t38.5 59.5t52 37.5t62 13q69 0 101 -49q24 -36 24 -93q0 -23 -4 -49q-6 -44 -22 -79t-39.5 -59.5t-52 -37.5
t-60.5 -13zM643 229q0 38 -13 59q-19 33 -62 33q-45 0 -71 -31.5t-36 -101.5q-4 -27 -4 -48q0 -35 11 -55q17 -31 64 -31q44 0 71 31.5t37 100.5q3 24 3 43z" />
    <glyph glyph-name="ampersand" unicode="&#x26;" horiz-adv-x="620" 
d="M204 -4q-44 0 -81 14t-62 40t-36 62q-7 24 -7 52q0 15 2 31q6 40 23.5 70t43 53t57 42t63.5 37q-12 18 -24.5 37t-22 39t-14.5 42q-2 13 -2 27q0 9 1 18q5 37 23.5 66t45.5 49t60 30.5t68 10.5q31 0 58 -10.5t46 -29.5t28 -46q6 -18 6 -39q0 -10 -1 -20
q-5 -37 -22.5 -64.5t-42.5 -48.5t-55.5 -38t-61.5 -32l146 -180l69 94l46 -24l-82 -108l94 -127h-76l-57 76q-50 -57 -105 -90t-128 -33zM331 665q-23 0 -44 -7.5t-38.5 -21.5t-29 -33t-14.5 -41q-1 -7 -1 -13q0 -13 4 -25q5 -19 14 -37t20.5 -35t21.5 -30q23 11 49 24.5
t48 30.5t38 39t20 51q1 8 1 16q0 32 -20 55q-24 27 -69 27zM78 174q0 -20 6 -38q9 -27 28.5 -46t47.5 -29.5t61 -10.5q28 0 53.5 9t48.5 24t43.5 35t38.5 41l-167 201q-26 -14 -52 -29.5t-48 -35t-38 -43.5t-20 -55q-2 -12 -2 -23z" />
    <glyph glyph-name="quotesingle" unicode="'" horiz-adv-x="182" 
d="M136 480h-48l32 228h60z" />
    <glyph glyph-name="parenleft" unicode="(" horiz-adv-x="259" 
d="M102 243q0 -62 12 -119q21 -100 68 -197l-51 -30q-28 48 -47 102.5t-29.5 111.5t-11.5 115v13q0 51 7 102q9 59 26.5 118.5t43.5 116.5t59.5 110t72.5 99l43 -32q-38 -41 -69 -91.5t-54.5 -104.5t-39.5 -109t-23 -107q-7 -51 -7 -98z" />
    <glyph glyph-name="parenright" unicode=")" horiz-adv-x="260" 
d="M163 419q0 60 -10 117q-19 109 -67 207l51 30q28 -48 46.5 -105.5t28.5 -118t10 -121.5q1 -4 1 -7q0 -57 -8 -111q-17 -119 -69.5 -235t-131.5 -209l-46 32q38 41 69.5 91t55 104t39.5 109.5t23 107.5q8 56 8 109z" />
    <glyph glyph-name="asterisk" unicode="*" horiz-adv-x="443" 
d="M440 556l-151 -45l74 -124l-41 -29l-77 125l-106 -125l-36 29l109 126l-140 46l21 46l141 -48l21 151h47l-21 -152l150 48z" />
    <glyph glyph-name="plus" unicode="+" horiz-adv-x="587" 
d="M310 595h57l-31 -225h222l-9 -58h-222l-32 -227h-57l32 227h-231l9 58h231z" />
    <glyph glyph-name="comma" unicode="," horiz-adv-x="208" 
d="M10 -138h-59l98 228h70z" />
    <glyph glyph-name="hyphen" unicode="-" horiz-adv-x="371" 
d="M304 271h-247l8 58h247z" />
    <glyph glyph-name="period" unicode="." horiz-adv-x="202" 
d="M72 90q20 0 32 -14q10 -11 10 -26q0 -4 -1 -8q-2 -20 -18 -34t-36 -14t-32 14q-10 12 -10 28v6q3 20 19 34t36 14z" />
    <glyph glyph-name="slash" unicode="/" horiz-adv-x="402" 
d="M27 -36l-50 18l411 762l50 -18z" />
    <glyph glyph-name="zero" unicode="0" horiz-adv-x="627" 
d="M270 -10q-45 0 -89 12t-77 37.5t-51 64.5q-12 26 -12 60q0 15 2 31l44 317q7 53 35.5 92t69 64.5t88 37.5t92.5 12t88.5 -12t76.5 -37.5t51 -64.5q12 -28 12 -63q0 -14 -2 -29l-44 -317q-8 -53 -36 -91.5t-68.5 -64t-87.5 -37.5t-92 -12zM100 172q0 -26 10 -46
q15 -28 41 -45t59.5 -24.5t67.5 -7.5q33 0 69 7.5t67 24.5t53 45t28 69l44 317q2 12 2 23q0 26 -11 46q-14 28 -39.5 45.5t-59.5 25t-67 7.5q-34 0 -70 -7.5t-67 -25t-53 -45.5t-28 -69l-44 -317q-2 -12 -2 -23z" />
    <glyph glyph-name="one" unicode="1" horiz-adv-x="302" 
d="M187 0h-58l88 628l-138 -124l-38 35l185 170h60z" />
    <glyph glyph-name="two" unicode="2" horiz-adv-x="567" 
d="M337 659q-68 0 -123.5 -26t-84.5 -76l-49 23q19 34 47.5 60t63 43.5t74 26.5t81.5 9q81 0 133.5 -35.5t67.5 -91.5q6 -20 6 -42q0 -38 -17 -80q-25 -67 -99 -129l-334 -281h383l-8 -59h-464l-13 45l399 335q58 49 79 99q14 32 14 61q0 15 -3 28q-11 40 -50.5 65
t-102.5 25z" />
    <glyph glyph-name="three" unicode="3" horiz-adv-x="581" 
d="M246 49q37 0 73.5 9t66.5 28t50.5 47.5t26.5 66.5q2 18 2 33q0 59 -33 89q-40 36 -119 36h-4h-59l8 55h59q31 0 58.5 6t48.5 20.5t34.5 37t18.5 55.5q2 11 2 22q0 20 -7 36q-10 24 -30.5 39.5t-48.5 22.5t-59 7q-26 0 -53 -4.5t-51.5 -14t-45 -24.5t-34.5 -35l-46 26
q17 28 43 48.5t56.5 34.5t64.5 21t68 7q42 0 81 -11t67 -34t42 -58q10 -24 10 -53q0 -14 -2 -30q-7 -48 -30 -84.5t-68 -60.5q60 -23 77 -73q11 -34 11 -72q0 -21 -3 -43q-8 -53 -36 -92.5t-67.5 -65.5t-87 -39t-95.5 -13q-38 0 -74.5 8t-67.5 24.5t-54 41t-34 57.5l57 26
q8 -24 26.5 -42t43 -30t54 -18.5t60.5 -6.5z" />
    <glyph glyph-name="four" unicode="4" horiz-adv-x="575" 
d="M526 185h-79l-26 -185h-59l26 185h-356l-25 56l443 468h70l-66 -471h79zM395 238l61 403l-388 -403h327z" />
    <glyph glyph-name="five" unicode="5" horiz-adv-x="585" 
d="M251 49q37 0 74 10t67.5 30t51.5 50t27 69l6 44q2 13 2 24q0 24 -9 42q-12 28 -36 46t-58 26t-72 8q-55 0 -100 -10.5t-98 -33.5l-31 -2l50 356h438l-8 -59h-379l-32 -224q42 17 84 26q37 8 76 8h9q46 0 89 -12t75 -37t49 -64q12 -28 12 -63q0 -14 -2 -30l-6 -46
q-8 -54 -36.5 -94.5t-68.5 -67.5t-88 -41t-96 -14q-38 0 -73 8.5t-64.5 25t-52 40.5t-33.5 56l57 26q17 -46 66.5 -71.5t109.5 -25.5z" />
    <glyph glyph-name="six" unicode="6" horiz-adv-x="622" 
d="M371 659q-39 0 -77 -9t-69 -28t-52.5 -47t-26.5 -65l-21 -152q42 50 100 69.5t116 19.5q49 0 94 -13t77.5 -39t48.5 -65q11 -26 11 -59q0 -14 -2 -30l-6 -43q-7 -51 -34.5 -90t-67 -64.5t-88 -38.5t-97.5 -13q-50 0 -95 12.5t-78 38.5t-50 65q-13 28 -13 64q0 12 2 26
l44 313q7 52 35 91t68.5 65t89.5 38.5t99 12.5q77 0 138.5 -31.5t84.5 -94.5l-57 -27q-16 48 -64.5 71t-109.5 23zM512 260q0 25 -8 45q-13 28 -38.5 46.5t-60 28t-72.5 9.5q-39 0 -77 -9t-69 -28t-52.5 -47t-26.5 -65l-6 -41q-1 -10 -1 -20q0 -25 9 -45q14 -28 40 -47
t61.5 -28t74.5 -9q38 0 75.5 9.5t67.5 28t50.5 46.5t25.5 65l6 41q1 11 1 20z" />
    <glyph glyph-name="seven" unicode="7" horiz-adv-x="524" 
d="M81 709h466l15 -44l-453 -665h-67l442 649h-411z" />
    <glyph glyph-name="eight" unicode="8" horiz-adv-x="619" 
d="M27 170q0 14 2 30q4 31 15.5 60t30 53.5t43 42.5t54.5 27l1 3q-41 17 -57 57q-10 28 -10 57q0 14 2 28q7 47 30.5 82.5t58 59.5t76 36t83.5 12h19q42 0 80.5 -12t66 -36t41.5 -60q10 -24 10 -55q0 -13 -2 -27q-7 -45 -33.5 -85t-71.5 -57l-1 -3q28 -9 47.5 -27
t31.5 -42.5t16 -53.5q1 -14 1 -28q0 -15 -2 -32q-9 -53 -36.5 -92.5t-67 -65.5t-87 -39t-95.5 -13h-19q-48 0 -91.5 13t-75.5 39t-49 66q-11 27 -11 62zM348 660q-32 0 -62.5 -8t-56 -24t-43 -41t-21.5 -59q-2 -14 -2 -26q0 -21 7 -36q11 -23 33 -35.5t51 -16.5t59 -4h19
q30 0 60.5 4t55.5 16.5t42.5 35.5t23.5 62q1 9 1 18q0 23 -7 41q-11 25 -31.5 41t-49.5 24t-60 8h-19zM281 48q34 0 70 8.5t67 27t53.5 47.5t28.5 70q3 17 3 32q0 27 -9 46q-12 30 -37 46.5t-59.5 22.5t-73.5 6h-19q-39 0 -75 -6t-65.5 -22.5t-50 -46.5t-27.5 -78
q-2 -12 -2 -24q0 -26 10 -46q14 -29 40 -47.5t59.5 -27t67.5 -8.5h19z" />
    <glyph glyph-name="nine" unicode="9" horiz-adv-x="622" 
d="M265 49q39 0 77 9t69 28t52.5 46.5t26.5 65.5l22 152q-21 -25 -46.5 -42t-54 -27.5t-58 -15t-58.5 -4.5q-49 0 -93.5 13t-77 39t-48.5 65q-12 27 -12 60q0 14 2 29l6 43q7 51 34.5 90t67 65.5t88 39.5t97.5 13t94.5 -13t78.5 -39t50 -65q13 -28 13 -62q0 -14 -2 -29
l-44 -313q-7 -52 -35 -90.5t-68.5 -64.5t-90 -38.5t-98.5 -12.5q-38 0 -73.5 8t-65 23.5t-51 39t-32.5 54.5l57 27q16 -48 64 -71t109 -23zM124 448q0 -25 8 -45q13 -28 38.5 -46.5t60 -28t72.5 -9.5q39 0 77 9t69 28t52.5 46.5t26.5 65.5l6 41q1 10 1 20q0 25 -9 45
q-13 29 -39 47.5t-61.5 28t-74.5 9.5q-38 0 -75.5 -9.5t-67.5 -28.5t-51 -47t-26 -65l-6 -41q-1 -11 -1 -20z" />
    <glyph glyph-name="colon" unicode=":" horiz-adv-x="221" 
d="M82 105q20 0 32 -14q10 -11 10 -26q0 -4 -1 -8q-2 -20 -18 -34t-36 -14t-32 14q-10 12 -10 28v6q3 20 19 34t36 14zM135 483q20 0 32 -14q10 -11 10 -26q0 -4 -1 -8q-2 -20 -18 -34t-36 -14t-32 14q-10 12 -10 28v6q3 20 19 34t36 14z" />
    <glyph glyph-name="semicolon" unicode=";" horiz-adv-x="250" 
d="M143 468q20 0 32 -14q10 -11 10 -26q0 -4 -1 -8q-2 -20 -18 -34t-36 -14t-32 14q-10 12 -10 28v6q3 20 19 34t36 14zM37 -138h-59l98 228h70z" />
    <glyph glyph-name="less" unicode="&#x3c;" horiz-adv-x="437" 
d="M359 138l-9 -66l-323 207l6 48l382 210l-9 -67l-311 -167z" />
    <glyph glyph-name="equal" unicode="=" horiz-adv-x="535" 
d="M476 345h-407l8 54h407zM457 207h-407l7 55h407z" />
    <glyph glyph-name="greater" unicode="&#x3e;" horiz-adv-x="436" 
d="M402 279l-381 -207l9 66l310 165l-263 167l9 67l322 -210z" />
    <glyph glyph-name="question" unicode="?" horiz-adv-x="479" 
d="M279 718q43 0 82 -13t67 -38.5t42 -63.5q8 -24 8 -53q0 -17 -3 -36q-8 -51 -30 -88t-54.5 -63t-71.5 -41.5t-79 -22.5l-31 -163h-49l23 210q40 0 80 11.5t73 33t55 53t27 71.5q1 10 1 20q0 24 -7 44q-11 27 -32.5 45t-50.5 26.5t-60 8.5q-44 0 -86.5 -15.5t-72.5 -47.5
h-1l-39 35q41 44 96.5 65.5t112.5 21.5zM179 85q20 0 32 -14q10 -11 10 -26q0 -4 -1 -8q-2 -20 -18 -34t-36 -14t-32 14q-10 12 -10 28v6q3 20 19 34t36 14z" />
    <glyph glyph-name="at" unicode="@" horiz-adv-x="774" 
d="M515 189q25 0 56.5 21.5t59.5 55.5t49 76.5t27 83.5q3 18 3 35q0 35 -12 65q-16 46 -50.5 78.5t-82.5 50.5t-103 18q-67 0 -128 -26t-108.5 -70t-79 -101t-40.5 -120q-3 -24 -3 -46q0 -41 10 -78q16 -58 52.5 -101.5t90.5 -68.5t119 -25q26 0 51 4t52 14l17 -42
q-62 -23 -127 -23q-80 0 -143 28.5t-105 78t-60 116.5q-11 42 -11 87q0 27 4 56q10 76 47.5 142.5t93.5 116t126.5 77.5t146.5 28q72 0 130 -22.5t97 -62t57 -93.5q12 -35 12 -75q0 -20 -3 -41q-9 -61 -36.5 -114t-65 -92t-81.5 -61.5t-86 -22.5q-26 0 -41 16q-12 13 -12 35
q0 7 1 15h-2q-12 -12 -27.5 -24t-33.5 -21.5t-37 -15t-38 -5.5q-33 0 -56 11.5t-37 31t-18 45.5q-3 15 -3 29q0 13 2 27q7 51 30 102t59 91.5t82 66t100 25.5q33 0 59.5 -18t33.5 -63h2l32 62h59l-135 -284q-8 -16 -12 -29t-5 -18q-2 -8 1.5 -17t19.5 -9zM243 266
q0 -30 16 -51q20 -26 58 -26q34 0 67.5 22.5t61 56.5t45.5 73t23 71q2 15 2 28q0 29 -10 47q-15 27 -57 27h-4q-40 0 -75 -22q-35 -23 -61.5 -57.5t-43 -75.5t-21.5 -77q-1 -8 -1 -16z" />
    <glyph glyph-name="A" unicode="A" horiz-adv-x="606" 
d="M559 0h-62l-52 236h-304l-116 -236h-62l353 708h86zM170 295h262l-79 369z" />
    <glyph glyph-name="B" unicode="B" horiz-adv-x="625" 
d="M571 239q0 -20 -3 -42q-9 -55 -32.5 -92.5t-58.5 -61t-79 -33.5t-94 -10h-268l99 708h269q41 0 76.5 -11t60 -33t35.5 -56q7 -22 7 -49q0 -14 -2 -30q-7 -48 -29.5 -88t-68.5 -64q59 -22 77 -69q11 -31 11 -69zM361 405q31 0 58.5 6.5t49 21.5t36 38.5t19.5 57.5
q1 11 1 21q0 21 -5 36q-8 23 -25.5 37t-43 20t-55.5 6h-210l-35 -244h210zM324 59q33 0 61 5q33 6 59 22t42.5 43t22.5 69q2 17 2 32q0 22 -5 38q-8 29 -28.5 46.5t-52 24.5t-72.5 7h-210l-40 -287h210h11z" />
    <glyph glyph-name="C" unicode="C" horiz-adv-x="590" 
d="M381 718q37 0 72.5 -8t65.5 -23.5t52 -39.5t33 -56l-57 -26q-8 23 -25.5 40.5t-41 29.5t-52 18t-58.5 6q-38 0 -76.5 -10t-70 -29.5t-53 -48.5t-26.5 -68l-41 -298q-1 -11 -1 -20q0 -27 10 -49q13 -29 38.5 -48.5t61 -29t73.5 -9.5q30 0 60 6t57 18t49.5 29.5t37.5 41.5
l50 -26q-20 -32 -49.5 -56t-64 -40t-73 -24t-76.5 -8q-49 0 -94.5 13.5t-78.5 40.5t-50 67q-12 27 -12 61q0 16 3 33l41 298q7 53 36 93.5t70 67.5t90.5 40.5t99.5 13.5z" />
    <glyph glyph-name="D" unicode="D" horiz-adv-x="640" 
d="M371 708q50 0 96 -12t79.5 -37t50.5 -64q12 -28 12 -63q0 -15 -2 -31l-42 -295q-8 -54 -36 -93t-68.5 -64t-89.5 -37t-99 -12h-236l99 708h236zM280 59q39 0 77 8t69.5 26t53 46t26.5 67l42 295q2 12 2 23q0 25 -10 45q-14 28 -40.5 46t-62 26t-74.5 8h-177l-83 -590h177
z" />
    <glyph glyph-name="E" unicode="E" horiz-adv-x="567" 
d="M148 384h355l-8 -60h-355l-37 -265h385l-8 -59h-444l99 708h444l-8 -59h-385z" />
    <glyph glyph-name="F" unicode="F" horiz-adv-x="555" 
d="M186 649l-40 -286h337l-9 -59h-337l-42 -304h-59l99 708h443l-8 -59h-384z" />
    <glyph glyph-name="G" unicode="G" horiz-adv-x="633" 
d="M382 718q38 0 73.5 -7.5t65.5 -23t52 -39.5t33 -56l-57 -26q-8 24 -25.5 41.5t-41 29t-52 17t-58.5 5.5q-38 0 -76.5 -10t-70 -29.5t-53 -48.5t-26.5 -68l-41 -296q-2 -12 -2 -23q0 -25 9 -46q14 -30 40.5 -49.5t62 -29.5t74.5 -10t77.5 10t70.5 29.5t54 49.5t27 69
l12 89h-217l8 59h276l-20 -147q-8 -54 -36 -95t-69.5 -68.5t-91 -41t-99.5 -13.5t-95.5 13.5t-79 41t-50.5 68.5q-13 28 -13 62q0 16 3 33l41 297q7 53 35.5 93t70 66.5t90.5 40t99 13.5z" />
    <glyph glyph-name="H" unicode="H" horiz-adv-x="688" 
d="M95 0h-59l99 708h59l-46 -325h413l46 325h59l-99 -708h-59l45 324h-413z" />
    <glyph glyph-name="I" unicode="I" horiz-adv-x="216" 
d="M95 0h-59l99 708h59z" />
    <glyph glyph-name="J" unicode="J" horiz-adv-x="590" 
d="M224 -10q-42 0 -82.5 10.5t-72.5 32.5t-52 54.5t-22 76.5l55 10q2 -35 17.5 -59t40.5 -39.5t56 -22.5t64 -7q36 0 72 10t66 29.5t50.5 49.5t26.5 69l63 445h-236l8 59h295l-71 -504q-8 -53 -34.5 -93t-64.5 -67t-84.5 -40.5t-94.5 -13.5z" />
    <glyph glyph-name="K" unicode="K" horiz-adv-x="614" 
d="M139 319l451 389h76l-389 -341l288 -367h-76l-260 325l-101 -89l-33 -236h-59l99 708h59z" />
    <glyph glyph-name="L" unicode="L" horiz-adv-x="503" 
d="M36 0l99 708h59l-91 -649h354l-8 -59h-413z" />
    <glyph glyph-name="M" unicode="M" horiz-adv-x="802" 
d="M182 626l-87 -626h-59l99 708h86l162 -535l311 535h86l-99 -708h-59l87 626l-309 -529h-56z" />
    <glyph glyph-name="N" unicode="N" horiz-adv-x="688" 
d="M517 65l90 643h59l-99 -708h-88l-298 617l-86 -617h-59l99 708h72z" />
    <glyph glyph-name="O" unicode="O" horiz-adv-x="675" 
d="M396 718q53 0 101.5 -13.5t84 -41t53.5 -68.5q13 -30 13 -66q0 -14 -2 -29l-41 -292q-8 -54 -37.5 -95t-73 -68.5t-96 -41t-104.5 -13.5q-53 0 -101 13.5t-84 41t-55 68.5q-12 29 -12 64q0 15 2 31l41 292q7 54 37 95t73.5 68.5t95.5 41t105 13.5zM101 186q0 -26 11 -48
q15 -29 43.5 -49t66.5 -30t80 -10q41 0 82.5 10t75.5 30t57 49.5t29 69.5l41 292q2 12 2 23q0 28 -11 49q-15 30 -44 49.5t-67.5 28.5t-80.5 9q-41 0 -82 -9.5t-74.5 -29t-56.5 -49.5t-29 -71l-41 -292q-2 -11 -2 -22z" />
    <glyph glyph-name="P" unicode="P" horiz-adv-x="611" 
d="M402 708q78 0 125.5 -33t66.5 -82q14 -34 14 -72q0 -17 -2 -35q-9 -57 -41.5 -106t-89 -82t-134.5 -33h-209l-37 -265h-59l99 708h267zM348 324q59 0 101.5 24t67 60t29.5 78q2 12 2 23q0 30 -10 56q-15 36 -50.5 60t-93.5 24h-208l-46 -325h208z" />
    <glyph glyph-name="Q" unicode="Q" horiz-adv-x="675" 
d="M396 718q53 0 101.5 -13.5t84 -41t53.5 -68.5q13 -30 13 -66q0 -14 -2 -29l-41 -292q-6 -42 -25 -75.5t-48 -59.5l40 -64l-51 -33l-38 61q-42 -23 -91 -35t-98 -12q-53 0 -101 13.5t-84 41t-55 68.5q-12 29 -12 64q0 15 2 31l41 292q7 54 37 95t73.5 68.5t95.5 41
t105 13.5zM589 523q0 28 -11 49q-15 30 -44 49.5t-67.5 28.5t-80.5 9q-41 0 -82 -9.5t-74.5 -29t-56.5 -49.5t-29 -71l-41 -292q-2 -11 -2 -22q0 -26 11 -48q15 -29 43.5 -49t66.5 -30t80 -10q45 0 83.5 8.5t68.5 24.5l-37 60l51 32l35 -55q36 37 43 89l41 292q2 12 2 23z
" />
    <glyph glyph-name="R" unicode="R" horiz-adv-x="614" 
d="M402 708q50 0 91 -11.5t69.5 -36.5t41.5 -64q8 -25 8 -57q0 -18 -2 -37q-8 -55 -32.5 -93.5t-60 -62.5t-79.5 -35t-92 -11h-2l195 -300h-71l-196 300h-135l-42 -300h-59l99 708h267zM353 354q41 0 74.5 7.5t59 24.5t42 45.5t22.5 70.5q2 17 2 31q0 22 -5 39q-9 28 -30 45
t-52.5 24.5t-70.5 7.5h-209l-42 -295h209z" />
    <glyph glyph-name="S" unicode="S" horiz-adv-x="587" 
d="M135 507q0 -19 7 -33q11 -23 35.5 -38t59 -24t72.5 -16q45 -9 88.5 -22.5t76 -38.5t48.5 -65q8 -22 8 -51q0 -22 -5 -49q-9 -47 -36.5 -81t-65.5 -56t-84 -32.5t-92 -10.5q-40 0 -78 8.5t-70 26t-55 43t-33 59.5l56 24h1q7 -26 25.5 -45t44 -31.5t56.5 -19t63 -6.5
q35 0 69.5 7.5t63.5 23.5t49.5 40.5t28.5 57.5q5 20 5 37q0 20 -7 35q-12 28 -38 45.5t-63 27.5t-77 19q-42 9 -84 20t-72.5 32t-45.5 55q-10 21 -10 49q0 18 4 40q8 45 34.5 78.5t63.5 56t82 34t91 11.5q39 0 76.5 -8.5t68.5 -25t53.5 -41.5t32.5 -58l-56 -24
q-8 25 -26 43.5t-42.5 30.5t-54.5 18t-61 6q-34 0 -67.5 -7.5t-61.5 -23t-48 -38.5t-27 -54q-3 -16 -3 -29z" />
    <glyph glyph-name="T" unicode="T" horiz-adv-x="557" 
d="M593 649h-236l-91 -649h-59l91 649h-236l8 59h531z" />
    <glyph glyph-name="U" unicode="U" horiz-adv-x="677" 
d="M117 187q0 -25 9 -47q14 -30 40 -50t61.5 -30.5t74.5 -10.5t77.5 10.5t70.5 30.5t54 50.5t28 70.5l69 497h59l-69 -497q-8 -55 -36.5 -96.5t-69.5 -69t-91 -41.5t-100 -14t-95.5 14t-79 41.5t-50.5 68.5q-12 29 -12 63q0 16 3 34l69 497h59l-69 -497q-2 -12 -2 -24z" />
    <glyph glyph-name="V" unicode="V" horiz-adv-x="606" 
d="M61 708h62l144 -664l328 664h62l-353 -708h-87z" />
    <glyph glyph-name="W" unicode="W" horiz-adv-x="939" 
d="M920 708h62l-304 -708h-86l-92 522l-239 -522h-86l-106 708h62l93 -664l260 571h57l100 -571z" />
    <glyph glyph-name="X" unicode="X" horiz-adv-x="569" 
d="M519 0h-71l-163 307l-250 -307h-71l292 353l-191 355h69l164 -303l249 303h70l-291 -355z" />
    <glyph glyph-name="Y" unicode="Y" horiz-adv-x="556" 
d="M265 0h-59l38 277l-185 431h69l155 -372l258 372h70l-308 -431z" />
    <glyph glyph-name="Z" unicode="Z" horiz-adv-x="572" 
d="M96 708h486l15 -45l-526 -604h431l-8 -59h-497l-12 45l526 604h-423z" />
    <glyph glyph-name="bracketleft" unicode="[" horiz-adv-x="249" 
d="M71 -82h90l-7 -51h-150l125 888h150l-8 -51h-90z" />
    <glyph glyph-name="backslash" unicode="\" horiz-adv-x="399" 
d="M80 726l55 18l197 -762l-57 -18z" />
    <glyph glyph-name="bracketright" unicode="]" horiz-adv-x="249" 
d="M179 708h-90l7 48h150l-125 -888h-150l7 48h90z" />
    <glyph glyph-name="asciicircum" unicode="^" horiz-adv-x="534" 
d="M512 425h-70l-128 226l-186 -226h-69l240 283h46z" />
    <glyph glyph-name="underscore" unicode="_" horiz-adv-x="625" 
d="M508 -87h-499l8 56h499z" />
    <glyph glyph-name="grave" unicode="`" horiz-adv-x="210" 
d="M112 869h80l55 -113h-58z" />
    <glyph glyph-name="a" unicode="a" horiz-adv-x="517" 
d="M195 -10q-35 0 -66.5 10t-55 31t-34.5 53q-7 21 -7 46q0 14 2 30l27 197q7 48 29 81t54.5 53t71.5 28.5t80 8.5q51 0 98 -13t81 -30l-67 -485h-50l-1 52q-28 -27 -72 -44.5t-90 -17.5zM293 472q-30 0 -59.5 -5.5t-54 -19t-41 -35.5t-20.5 -54l-27 -194q-1 -10 -1 -19
q0 -18 5 -33q8 -21 24 -35.5t38.5 -21t47.5 -6.5q22 0 44.5 4t43.5 11.5t39.5 18t31.5 23.5l48 339q-21 11 -52.5 19t-66.5 8z" />
    <glyph glyph-name="b" unicode="b" horiz-adv-x="514" 
d="M296 528q37 0 71 -10.5t58.5 -32t36.5 -53.5q9 -21 9 -46q0 -13 -2 -26l-29 -202q-6 -42 -27 -73t-51 -52t-66.5 -31.5t-72.5 -11.5q-51 0 -100 9t-95 26l96 685h56l-30 -213q73 31 146 31zM230 45q26 0 51.5 8t47 23t36.5 37t19 50l28 197q1 10 1 19q0 19 -5 33
q-9 21 -26.5 34.5t-42 19.5t-50.5 6q-36 0 -73.5 -7.5t-72.5 -21.5l-54 -379q33 -12 69 -15.5t72 -3.5z" />
    <glyph glyph-name="c" unicode="c" horiz-adv-x="461" 
d="M272 472q-26 0 -52 -6.5t-48 -20t-37 -34.5t-19 -49l-28 -203q-1 -9 -1 -17q0 -17 6 -32q9 -21 26.5 -34.5t42 -20t50.5 -6.5q22 0 45 4.5t42.5 13.5t35 23.5t24.5 35.5l48 -23q-14 -29 -36.5 -50t-49.5 -35t-57 -21t-60 -7q-36 0 -70 10.5t-58.5 31.5t-37.5 52
q-8 22 -8 48q0 12 2 26l28 202q6 42 27.5 73.5t52 52.5t67.5 31.5t73 10.5q54 0 99 -22t65 -67l-51 -30q-13 32 -46.5 47.5t-74.5 15.5z" />
    <glyph glyph-name="d" unicode="d" horiz-adv-x="514" 
d="M30 132q0 12 2 26l28 201q6 41 27 72.5t52 53t68 32t74 10.5q72 0 136 -31l30 214h56l-95 -685q-51 -17 -102.5 -26t-102.5 -9q-36 1 -69.5 11.5t-58 31.5t-37.5 52q-8 21 -8 47zM272 472q-26 0 -52 -6.5t-48 -20t-36.5 -34.5t-18.5 -49l-28 -206q-1 -9 -1 -17
q0 -18 6 -31q8 -21 25.5 -35t41 -21t49.5 -7q36 0 73.5 3.5t73.5 15.5l53 380q-32 14 -67 21t-71 7z" />
    <glyph glyph-name="e" unicode="e" horiz-adv-x="484" 
d="M87 142q0 -19 7 -34q9 -20 27 -33.5t42 -19.5t50 -6q42 0 81.5 16t60.5 51l46 -25q-15 -25 -37 -44t-48 -31.5t-54.5 -19t-56.5 -6.5q-37 0 -71 10.5t-58.5 31.5t-37.5 53q-8 22 -8 48q0 12 2 26l27 195q6 44 28 76.5t53 54.5t68 32.5t74 10.5t70.5 -10.5t58 -31.5
t36.5 -53q8 -21 8 -48q0 -13 -2 -27q-6 -44 -26.5 -75.5t-50 -52t-66 -30.5t-74.5 -11h-8q-33 0 -66 7q-36 7 -66 22l-8 -59q-1 -9 -1 -17zM239 242q18 0 35 2q31 4 56.5 17t43 36.5t23.5 60.5q1 9 1 18q0 19 -6 34q-9 21 -26.5 35t-41.5 20.5t-50 6.5q-27 0 -53.5 -7.5
t-48.5 -23t-37.5 -38.5t-19.5 -54l-12 -79q22 -9 50.5 -16.5t59.5 -9.5q13 -2 26 -2z" />
    <glyph glyph-name="f" unicode="f" horiz-adv-x="258" 
d="M-32 -149q25 16 36 42.5t15 52.5l84 599q6 42 24 73.5t44.5 52.5t60 31.5t70.5 10.5l-8 -56q-52 0 -89.5 -29t-45.5 -83l-7 -53h112l-7 -50h-112l-70 -496q-7 -47 -28 -80.5t-53 -53.5z" />
    <glyph glyph-name="g" unicode="g" horiz-adv-x="509" 
d="M175 -168q28 0 54.5 7t48.5 20.5t37 34.5t20 50l12 77q-35 -17 -71 -24t-72 -7q-37 0 -70.5 10.5t-58 31.5t-37.5 52q-8 22 -8 47q0 13 2 26l28 205q6 41 27 72t50.5 52t65.5 31.5t72 10.5q35 0 88 -10t104 -33l-77 -540q-6 -42 -26.5 -73t-50 -51t-66 -29.5t-74.5 -9.5
q-50 0 -93 17t-68 49l43 35q16 -25 49 -38t71 -13zM269 474q-26 0 -51.5 -7t-46.5 -21t-36 -34.5t-18 -48.5l-29 -205q-2 -11 -2 -21q0 -15 4 -27q8 -22 24.5 -37t40.5 -22.5t53 -7.5q35 1 72.5 9t73.5 25l53 371q-22 10 -59 18t-79 8z" />
    <glyph glyph-name="h" unicode="h" horiz-adv-x="525" 
d="M300 528q34 0 65 -10q34 -11 58.5 -32t36.5 -52q9 -22 9 -47q0 -13 -2 -26l-49 -361h-56l49 361v1q1 8 1 16q0 18 -6 32q-10 21 -27.5 34.5t-41.5 20.5t-50 7q-72 0 -145 -28l-60 -444h-56l99 708h56l-31 -211q71 31 144 31h6z" />
    <glyph glyph-name="i" unicode="i" horiz-adv-x="194" 
d="M149 690q20 0 32 -14q10 -11 10 -26q0 -4 -1 -8q-2 -20 -18 -34t-36 -14t-32 14q-10 12 -10 28v6q3 20 19 34t36 14zM155 518l-73 -518h-56l73 518h56z" />
    <glyph glyph-name="j" unicode="j" horiz-adv-x="194" 
d="M-105 -136q53 0 86.5 30t41.5 84l76 540h56l-76 -540q-11 -79 -63 -124.5t-128 -45.5zM151 690q20 0 32 -14q10 -11 10 -26q0 -4 -1 -8q-2 -20 -18 -34t-36 -14t-32 14q-10 12 -10 28v6q3 20 19 34t36 14z" />
    <glyph glyph-name="k" unicode="k" horiz-adv-x="483" 
d="M116 246l311 272h70l-265 -234l191 -284h-69l-166 244l-82 -72l-24 -172h-56l99 708h56z" />
    <glyph glyph-name="l" unicode="l" horiz-adv-x="228" 
d="M42 119q0 16 3 35l76 555h56l-76 -555q-2 -13 -2 -25q0 -34 15 -55q21 -28 74 -28l-8 -56q-76 0 -111 43q-27 33 -27 86z" />
    <glyph glyph-name="m" unicode="m" horiz-adv-x="813" 
d="M270 528q48 0 89 -16t65 -54q34 35 77 52.5t84 17.5q39 0 72.5 -10.5t57 -32.5t34.5 -55q7 -21 7 -46q0 -14 -2 -30l-49 -354h-57l49 354q1 11 1 20q0 19 -5 34q-8 23 -24.5 37t-40 20.5t-49.5 6.5q-21 0 -43.5 -6t-42 -18t-34 -30t-17.5 -42l-53 -376h-55l53 376
q1 6 1 11q0 18 -8 32q-10 18 -29 30t-44.5 17.5t-52.5 5.5q-32 0 -61.5 -7.5t-49.5 -21.5l-62 -443h-57l68 484q37 19 84 31.5t94 12.5z" />
    <glyph glyph-name="n" unicode="n" 
d="M467 387q0 -12 -2 -26l-50 -361h-56l50 361q1 9 1 17q0 17 -6 32q-9 21 -26.5 35t-41 20.5t-48.5 6.5q-42 0 -82 -10t-65 -20l-61 -442h-56l68 487q51 17 102 29t102 12q36 -1 69 -11.5t57 -31t36 -51.5q9 -21 9 -47z" />
    <glyph glyph-name="o" unicode="o" horiz-adv-x="497" 
d="M280 528q37 0 70.5 -10.5t58.5 -31.5t37 -53q9 -22 9 -48q0 -12 -2 -26l-29 -201q-6 -42 -27.5 -73.5t-52 -52.5t-67 -31.5t-73.5 -10.5t-71 10.5t-58.5 31.5t-36.5 52q-9 22 -9 48q0 12 2 26l29 201q6 42 27 74t52 53t67.5 31.5t73.5 10.5zM272 472q-26 0 -52 -6.5
t-47.5 -20t-37 -34.5t-19.5 -51l-29 -198q-1 -9 -1 -17q0 -19 6 -34q10 -21 28 -35t42 -20.5t50 -6.5q25 0 51 6.5t48 20.5t37.5 35t19.5 51l29 198q1 9 1 17q0 19 -6 34q-10 21 -28 34.5t-42.5 20t-49.5 6.5z" />
    <glyph glyph-name="p" unicode="p" horiz-adv-x="514" 
d="M299 528q36 0 69.5 -10.5t57.5 -31.5t36 -52q9 -22 9 -48q0 -12 -2 -26l-28 -201q-6 -41 -26.5 -72.5t-50.5 -53t-67.5 -32.5t-76.5 -11q-37 0 -71 8.5t-65 23.5l-30 -213h-56l96 684q51 17 102.5 26t102.5 9zM229 46q26 0 52 7t48 21t36.5 34.5t18.5 48.5l28 205
q1 9 1 17q0 18 -5 32q-9 21 -26 34.5t-41 20t-50 6.5q-36 0 -73 -2.5t-74 -14.5l-53 -380q32 -14 67 -21.5t71 -7.5z" />
    <glyph glyph-name="q" unicode="q" horiz-adv-x="514" 
d="M30 133q0 13 2 26l28 201q6 42 27 73.5t51 52.5t66.5 31.5t73.5 10.5q51 0 100 -9.5t95 -26.5l-96 -683h-56l30 213q-72 -30 -146 -32q-37 0 -71 10.5t-58.5 32t-37.5 53.5q-8 22 -8 47zM270 472q-26 0 -51.5 -7t-47 -20.5t-36 -34t-18.5 -48.5l-28 -205q-2 -10 -2 -19
q0 -16 6 -30q9 -20 26.5 -34t42 -21t50.5 -7q36 0 73.5 7.5t72.5 21.5l53 379q-32 12 -68.5 15t-72.5 3z" />
    <glyph glyph-name="r" unicode="r" horiz-adv-x="303" 
d="M282 528q9 0 18.5 -0.5t19.5 -1.5l-8 -56q-17 3 -33 3q-21 0 -45.5 -5.5t-46.5 -19t-38.5 -35t-20.5 -52.5l-49 -361h-56l49 361q6 45 28.5 76.5t53 51.5t64.5 29.5t64 9.5z" />
    <glyph glyph-name="s" unicode="s" horiz-adv-x="440" 
d="M197 49q21 0 42.5 4.5t39.5 15t31 27.5t16 42q1 8 1 15q0 16 -6 28q-9 17 -24.5 28t-36 16.5t-39.5 9.5q-31 6 -62 14.5t-54.5 24.5t-36.5 42q-9 17 -9 41q0 11 2 24q6 39 26.5 67t50 46t63 26t64.5 8q40 0 77 -13t61 -39l-42 -42q-19 23 -45.5 30.5t-57.5 7.5
q-20 0 -43 -4t-44 -14.5t-36 -28t-19 -44.5q-1 -5 -1 -10q0 -19 9 -33q12 -16 30.5 -26t41.5 -15t42 -9q30 -6 58 -16t48.5 -27t31.5 -43q8 -18 8 -41q0 -11 -2 -23q-5 -37 -23.5 -65t-45 -46.5t-58.5 -27.5t-65 -9q-62 0 -110.5 26.5t-74.5 80.5l46 27q24 -40 62.5 -57.5
t83.5 -17.5z" />
    <glyph glyph-name="t" unicode="t" horiz-adv-x="261" 
d="M178 -10q-33 0 -60 11.5t-45 32.5t-25 52q-5 18 -5 39q0 14 2 30l69 482h48l-10 -119h112l-7 -45h-112l-45 -318q-2 -12 -2 -22q0 -34 17 -59q22 -33 73 -34q6 0 12 0.5t13 1.5l-7 -50q-7 -1 -14 -1.5t-14 -0.5z" />
    <glyph glyph-name="u" unicode="u" 
d="M213 -10q-36 0 -69 11t-57 32t-36 52q-8 21 -8 46q0 13 2 27l50 360h56l-51 -362q-1 -8 -1 -16q0 -17 6 -32q9 -20 26 -34t40.5 -21t49.5 -7q42 0 82 10.5t65 20.5l62 441h56l-68 -487l-59 -17q-35 -10 -73 -17t-73 -7z" />
    <glyph glyph-name="v" unicode="v" horiz-adv-x="472" 
d="M488 518l-254 -518h-81l-110 518h59l99 -467l228 467h59z" />
    <glyph glyph-name="w" unicode="w" horiz-adv-x="722" 
d="M131 0l-84 518h59l73 -460l176 460h71l48 -460l201 460h59l-228 -518h-80l-45 443l-170 -443h-80z" />
    <glyph glyph-name="x" unicode="x" horiz-adv-x="462" 
d="M258 259l142 -259h-68l-113 218l-174 -218h-68l214 259l-142 259h68l114 -219l173 219h68z" />
    <glyph glyph-name="y" unicode="y" horiz-adv-x="536" 
d="M222 -9q-38 0 -72.5 11.5t-59.5 33t-38 54.5q-9 22 -9 48q0 13 2 26l49 354h58l-50 -356q-1 -9 -1 -17q0 -19 6 -33q9 -22 27 -36.5t42.5 -22t51.5 -7.5q37 0 74.5 8t76.5 26l61 438h57l-79 -565q-6 -44 -27.5 -76t-52 -53t-67.5 -31.5t-75 -10.5q-51 0 -97.5 17.5
t-73.5 52.5l43 35q20 -26 53 -38t72 -13q28 0 56.5 6.5t51.5 21t39.5 37t20.5 52.5l10 73q-36 -21 -73.5 -28t-75.5 -7z" />
    <glyph glyph-name="z" unicode="z" horiz-adv-x="463" 
d="M74 518h351l28 -41l-379 -418h318l-8 -59h-366l-30 40l386 424h-308z" />
    <glyph glyph-name="braceleft" unicode="{" horiz-adv-x="275" 
d="M262 708q-15 0 -24.5 -5.5t-14.5 -15.5t-7.5 -24.5t-5.5 -33.5l-23 -160q-5 -39 -15.5 -67.5t-22.5 -47.5t-23 -29t-16 -12v-2q4 -3 12 -13t15 -28.5t9 -47.5q1 -8 1 -17q0 -22 -4 -50l-23 -164q-3 -18 -2.5 -32.5t2.5 -23.5q5 -19 36 -19h32l-7 -48h-50q-42 0 -61 32
q-12 23 -12 57q0 15 2 32l20 146q4 29 5 57v8q0 23 -4 40q-5 22 -16.5 35t-32.5 13l7 48q21 0 36.5 13t26 34.5t17.5 49.5t11 57l21 145q8 57 35.5 89t69.5 32h50l-7 -48h-37z" />
    <glyph glyph-name="bar" unicode="|" horiz-adv-x="188" 
d="M-2 -178l131 932h56l-131 -932h-56z" />
    <glyph glyph-name="braceright" unicode="}" horiz-adv-x="276" 
d="M147 756q42 0 61 -32q12 -22 12 -57q0 -15 -2 -32l-21 -145q-4 -29 -5 -57v-9q0 -23 4 -40q5 -22 17 -35t33 -13l-7 -48q-21 0 -36.5 -13t-26.5 -34.5t-18 -49t-11 -56.5l-20 -146q-8 -56 -35.5 -88.5t-69.5 -32.5h-50l7 48h32q31 0 41 19t15 56l23 164q5 39 16 67.5
t22.5 47t22.5 28.5t16 13v2q-5 2 -12.5 12t-14 29t-9.5 48q-1 9 -1 20q0 21 4 47l23 160q3 19 4 33.5t-1 24.5t-10 15.5t-23 5.5h-37l7 48h50z" />
    <glyph glyph-name="asciitilde" unicode="~" horiz-adv-x="525" 
d="M337 242q-26 0 -45.5 11t-37 23.5t-35.5 23.5t-39 11q-30 0 -53 -20t-44 -46l-30 29q10 16 23.5 32t30.5 29t38 21t46 8q28 0 49 -10.5t39 -23.5t34 -23.5t35 -10.5q30 0 53.5 21t44.5 47l28 -30q-11 -17 -24 -33.5t-30 -29.5t-37.5 -21t-45.5 -8z" />
    <glyph glyph-name="uni00A0" unicode="&#xa0;" horiz-adv-x="220" 
 />
    <glyph glyph-name="exclamdown" unicode="&#xa1;" horiz-adv-x="201" 
d="M131 528q20 0 32 -14q10 -11 10 -26q0 -4 -1 -8q-2 -20 -18 -34t-36 -14t-32 14q-10 12 -10 28v6q3 20 19 34t36 14zM129 300l-73 -518h-56l73 518h56z" />
    <glyph glyph-name="cent" unicode="&#xa2;" horiz-adv-x="469" 
d="M30 138q0 13 2 27l26 190q6 38 24 67.5t44 50.5t58 33t66 15l13 93h46l-13 -92q48 -3 88 -24.5t57 -63.5l-51 -30q-11 29 -39 44t-63 18l-58 -412q41 3 76.5 22.5t52.5 56.5l47 -25q-13 -26 -33 -45.5t-44.5 -33.5t-51.5 -21.5t-55 -9.5l-13 -92h-46l13 92q-32 4 -61 16
t-49 33t-30 51q-6 18 -6 40zM85 145q0 -13 5 -25q6 -19 19.5 -32.5t33 -21.5t41.5 -11l58 410q-23 -3 -44.5 -11t-39 -21.5t-29 -32.5t-14.5 -43l-28 -194q-2 -9 -2 -18z" />
    <glyph glyph-name="sterling" unicode="&#xa3;" horiz-adv-x="514" 
d="M406 719q40 0 70 -13.5t58 -41.5l-45 -38q-18 21 -40 30t-54 9q-38 0 -66.5 -14.5t-48.5 -36t-31.5 -47.5t-14.5 -48l-18 -126h165l-7 -48h-165l-41 -296h245l-7 -49h-406l7 49h104l41 296h-104l7 48h104l17 119q5 34 19.5 70.5t42 67t69 50t99.5 19.5z" />
    <glyph glyph-name="currency" unicode="&#xa4;" horiz-adv-x="618" 
d="M65 319q0 17 2 35q14 93 82 157l-49 55l39 37l49 -56q37 26 79 39.5t84 13.5t80 -13.5t67 -39.5l65 56l29 -37l-65 -55q25 -32 35 -71q6 -24 6 -49q0 -18 -3 -37q-6 -46 -27 -85.5t-55 -71.5l49 -55l-39 -37l-49 56q-37 -26 -78.5 -39.5t-83.5 -13.5t-80.5 13.5
t-67.5 39.5l-65 -56l-29 37l65 55q-40 52 -40 122zM119 324q0 -25 7 -47q10 -35 33 -61.5t56 -41.5t72 -15q40 0 77.5 15t67.5 41.5t50 61.5t26 76q2 15 2 29q0 25 -6 48q-11 36 -33.5 62.5t-55.5 42t-73 15.5q-39 0 -76.5 -15.5t-67.5 -42t-50.5 -62.5t-26.5 -77
q-2 -15 -2 -29z" />
    <glyph glyph-name="yen" unicode="&#xa5;" horiz-adv-x="601" 
d="M496 309l-16 -44h-158l-8 -53h169l-16 -44h-159l-23 -168h-59l23 168h-168l15 44h159l8 53h-165l16 44h137l-172 400h69l154 -380l259 380h70l-285 -400h150z" />
    <glyph glyph-name="brokenbar" unicode="&#xa6;" horiz-adv-x="201" 
d="M79 356l49 350h58l-49 -350h-58zM8 -144l49 350h58l-49 -350h-58z" />
    <glyph glyph-name="section" unicode="&#xa7;" horiz-adv-x="473" 
d="M172 -87q22 0 46 6.5t44 19.5t34 31.5t17 42.5q1 7 1 13q0 26 -16 44q-19 22 -50.5 39.5t-68.5 34t-67.5 39t-49.5 53.5q-13 22 -13 52q0 12 2 25q4 25 15.5 45t28.5 36t37.5 27.5t43.5 20.5q-33 22 -52 52q-14 23 -14 54q0 10 1 21q6 39 26 68t49.5 49t64 30t69.5 10
q25 0 49 -5.5t43.5 -16.5t33.5 -29t20 -43l-57 -29q-9 34 -36.5 50.5t-63.5 16.5q-23 0 -45.5 -6.5t-42 -19.5t-33 -32t-17.5 -43q-1 -6 -1 -11q0 -25 16 -42q18 -22 48.5 -39.5t66.5 -34t65.5 -38.5t47.5 -52q13 -22 13 -52q0 -11 -2 -22q-7 -46 -36.5 -78.5t-71.5 -53.5
q30 -20 47 -52q12 -24 12 -53q0 -9 -1 -18q-6 -40 -26 -71t-49 -52.5t-64 -32.5t-71 -11q-31 0 -59.5 7t-51.5 22t-40 37.5t-24 53.5l57 25q10 -45 45 -66.5t80 -21.5zM368 285q0 12 -4 22q-6 15 -16.5 27.5t-23.5 21.5t-24 16l-70 43q-18 -6 -37 -14.5t-35.5 -20.5
t-28.5 -28t-15 -37q-1 -9 -1 -17q0 -10 1 -18q4 -14 12 -24.5t19.5 -19t25.5 -15.5l98 -51q14 7 30.5 18t30.5 24.5t24.5 28.5t12.5 32q1 6 1 12z" />
    <glyph glyph-name="dieresis" unicode="&#xa8;" horiz-adv-x="281" 
d="M175 853q17 0 27 -12t8 -29t-16 -29t-31 -12t-27 12q-8 10 -8 23v6q2 17 16 29t31 12zM355 853q20 0 32 -14q10 -11 10 -26q0 -4 -1 -8q-2 -20 -18 -34t-36 -14t-32 14q-10 12 -10 28v6q3 20 19 34t36 14z" />
    <glyph glyph-name="copyright" unicode="&#xa9;" horiz-adv-x="833" 
d="M476 726q77 0 140.5 -29.5t107 -80t62.5 -118.5q13 -43 13 -90q0 -26 -4 -54q-11 -77 -49.5 -144.5t-96.5 -118t-129.5 -80t-148.5 -29.5t-140.5 29.5t-107 80t-63.5 118.5q-13 43 -13 91q0 26 4 53q11 77 50 144.5t96.5 118t129.5 80t149 29.5zM107 309q0 -40 11 -77
q16 -57 52.5 -99.5t90 -67t118.5 -24.5t125.5 24.5t109 67t81 99.5t41.5 122q3 23 3 45q0 40 -11 77q-16 57 -52.5 99.5t-90 67t-118.5 24.5t-125.5 -24.5t-108.5 -67t-81 -99.5t-42 -122q-3 -23 -3 -45zM450 542q-26 0 -52 -6.5t-48 -20t-37 -34.5t-19 -49v-2l-21 -151
l-1 -2q-1 -8 -1 -16q0 -18 7 -33q9 -21 26.5 -34.5t42 -20t50.5 -6.5q45 0 87 19.5t60 60.5l48 -25q-14 -28 -36.5 -49t-49.5 -34.5t-57 -20.5t-60 -7q-36 0 -70 10.5t-58.5 31.5t-36.5 53q-9 21 -9 47q0 12 2 26l21 151q6 42 27.5 73.5t52 52.5t67.5 31.5t73 10.5
q54 0 99 -22t65 -67l-51 -30q-13 32 -46.5 47.5t-74.5 15.5z" />
    <glyph glyph-name="ordfeminine" unicode="&#xaa;" horiz-adv-x="375" 
d="M303 616q0 24 -21 36q-23 13 -54 13q-23 0 -48.5 -7.5t-43.5 -26.5l-29 33q29 28 64.5 41t68.5 13q25 0 48 -7t39.5 -20.5t24.5 -34.5q6 -15 6 -33q0 -8 -1 -17l-32 -230q-39 -12 -76 -17q-31 -4 -61 -4h-12q-53 1 -84 33q-26 26 -26 67q0 10 2 22q5 31 20 52t36 33.5
t46.5 17.5t52.5 5q40 0 74 -14l5 37q1 4 1 8zM215 539q-16 0 -31.5 -2.5t-28 -9.5t-21 -19t-11.5 -31q-1 -7 -1 -14q0 -24 14 -39q19 -19 49 -20q22 0 44.5 1.5t45.5 6.5l16 114q-15 5 -35 9t-41 4z" />
    <glyph glyph-name="guillemotleft" unicode="&#xab;" horiz-adv-x="414" 
d="M388 469l-143 -174l95 -174l-53 -29l-108 203l165 203zM243 469l-143 -174l95 -174l-53 -29l-108 203l165 203z" />
    <glyph glyph-name="logicalnot" unicode="&#xac;" horiz-adv-x="604" 
d="M73 399h477l-33 -229h-55l25 174h-422z" />
    <glyph glyph-name="uni00AD" unicode="&#xad;" horiz-adv-x="326" 
d="M273 213h-247l8 58h247z" />
    <glyph glyph-name="registered" unicode="&#xae;" horiz-adv-x="833" 
d="M476 726q77 0 140.5 -29.5t107 -80t62.5 -118.5q13 -43 13 -90q0 -26 -4 -54q-11 -77 -49.5 -144.5t-96.5 -118t-129.5 -80t-148.5 -29.5t-140.5 29.5t-107 80t-63.5 118.5q-13 43 -13 91q0 26 4 53q11 77 50 144.5t96.5 118t129.5 80t149 29.5zM105 309q0 -40 11 -77
q16 -58 53 -101t91 -67.5t119 -24.5t126 24.5t109.5 67.5t81.5 100.5t42 122.5q3 23 3 45q0 40 -11 77q-16 58 -52.5 100.5t-90.5 67.5t-119 25t-126 -25t-110 -67.5t-82 -100t-42 -122.5q-3 -23 -3 -45zM472 570q73 0 105 -34q26 -26 26 -69q0 -10 -2 -22q-4 -30 -16 -52.5
t-29 -38.5t-38 -25.5t-43 -13.5l103 -174h-61l-103 174h-78l-25 -174h-53l61 429h153zM413 363q22 0 44.5 3t41 11.5t31.5 24.5t17 43q1 7 1 13q0 13 -4 22q-7 15 -19.5 24t-29 13.5t-33.5 4.5h-97l-22 -159h70z" />
    <glyph glyph-name="macron" unicode="&#xaf;" horiz-adv-x="240" 
d="M103 848h230l-8 -49h-230z" />
    <glyph glyph-name="degree" unicode="&#xb0;" horiz-adv-x="354" 
d="M196 449q-28 0 -51 10.5t-38.5 29t-22.5 43.5q-4 15 -4 32q0 10 1 20q4 28 17.5 52t34.5 42t46.5 28.5t53.5 10.5t51 -10.5t38.5 -28.5t23.5 -42q4 -16 4 -33q0 -9 -1 -19q-4 -28 -18 -52.5t-35 -43t-47 -29t-53 -10.5zM203 499q35 0 62.5 24.5t32.5 59.5q1 7 1 13
q0 27 -17 46q-21 25 -56 25q-17 0 -33.5 -6.5t-29.5 -18t-21.5 -27t-11.5 -32.5q-1 -5 -1 -10q0 -12 3 -23q5 -15 15 -26.5t24.5 -18t31.5 -6.5z" />
    <glyph glyph-name="plusminus" unicode="&#xb1;" horiz-adv-x="559" 
d="M293 615h57l-25 -179h193l-8 -57h-193l-26 -180h-57l26 180h-188l8 57h188zM466 95h-430l8 55h430z" />
    <glyph glyph-name="twosuperior" unicode="&#xb2;" horiz-adv-x="410" 
d="M339 601q0 29 -22.5 47t-64.5 18q-32 0 -61.5 -12t-46.5 -41l-45 20q25 44 69 63.5t88 19.5q35 0 60.5 -9t42 -24t24.5 -34t8 -40q0 -35 -21 -69t-50 -58l-174 -147h208l-8 -51h-283l-9 37l235 197q20 16 35 38t15 45z" />
    <glyph glyph-name="threesuperior" unicode="&#xb3;" horiz-adv-x="391" 
d="M363 434q0 -9 -1 -19v-1q-5 -23 -15 -43t-28 -37q-27 -26 -65 -38q-32 -9 -63 -9h-10q-41 2 -77 22t-49 58l-3 8l48 22l3 -8q9 -25 35.5 -38t52.5 -15h9q19 0 43 7q29 9 49 30q16 17 19 42q2 15 0.5 29.5t-9.5 25.5q-13 14 -32 19q-17 4 -32 4h-6h-32l5 40h32q14 0 32 7
t30 18q10 8 14.5 19t6.5 22q1 5 1 9q0 18 -11 32q-12 16 -34 22q-16 4 -33 4h-12q-24 -2 -46 -13t-35 -30l-5 -8l-39 23q11 21 28 35.5t36 23t38 12.5t36 5h6q28 0 55 -9q13 -5 25 -12.5t20 -18.5q13 -16 17 -35q2 -11 2 -22q0 -9 -1 -18q-4 -26 -19 -48t-39 -34
q32 -13 44 -40q9 -19 9 -43z" />
    <glyph glyph-name="acute" unicode="&#xb4;" horiz-adv-x="213" 
d="M159 756h-58l84 113h80z" />
    <glyph glyph-name="mu" unicode="&#xb5;" horiz-adv-x="524" 
d="M368 72h-3q-24 -38 -68.5 -61t-101.5 -23q-41 0 -66.5 14.5t-42.5 42.5l-39 -273h-59l104 740h60l-45 -322q-3 -22 -3 -44v-10q1 -27 11 -48t30.5 -33.5t56.5 -12.5q33 0 64 11.5t56 35t42.5 59t24.5 83.5l39 281h60l-68 -512h-58q2 26 4 45.5t2 26.5z" />
    <glyph glyph-name="paragraph" unicode="&#xb6;" horiz-adv-x="564" 
d="M48 451q0 18 2 36q9 57 43 106.5t92.5 82t139.5 32.5h227l-117 -834h-58l110 786h-125l-110 -786h-60l55 392q-76 0 -122.5 32.5t-64.5 81.5q-12 34 -12 71z" />
    <glyph glyph-name="periodcentered" unicode="&#xb7;" horiz-adv-x="219" 
d="M118 366q20 0 32 -14q10 -11 10 -26q0 -4 -1 -8q-2 -20 -18 -34t-36 -14t-32 14q-10 12 -10 28v6q3 20 19 34t36 14z" />
    <glyph glyph-name="cedilla" unicode="&#xb8;" horiz-adv-x="240" 
d="M199 -140q0 -7 -1 -15q-4 -24 -16.5 -41t-30 -27.5t-37.5 -15.5t-39 -5q-46 0 -86 20l18 37q17 -9 33 -13t37 -4q25 0 47 13t27 40q3 18 -3.5 28.5t-17.5 15t-24 3.5t-24 -6l-12 13l51 110h37l-36 -82q17 0 32.5 -5.5t26 -16t15.5 -27.5q3 -10 3 -22z" />
    <glyph glyph-name="onesuperior" unicode="&#xb9;" horiz-adv-x="240" 
d="M64 597l118 116h48l-60 -424h-50l49 346l-71 -68z" />
    <glyph glyph-name="ordmasculine" unicode="&#xba;" horiz-adv-x="408" 
d="M210 355q-28 0 -54.5 7.5t-46.5 23.5t-30 39q-7 15 -7 35q0 9 2 20l17 113q5 31 21.5 54.5t40 39.5t52 23.5t56.5 7.5t54.5 -7.5t46.5 -23.5t30 -39q7 -16 7 -35q0 -10 -2 -20l-17 -113q-5 -32 -21.5 -55t-40 -39t-52 -23.5t-56.5 -7.5zM124 469q0 -14 6 -25
q7 -14 20.5 -22.5t31 -12.5t35.5 -4t36.5 4t34 12.5t27 23t14.5 35.5l17 113q1 6 1 11q0 14 -5 24q-8 15 -21.5 23.5t-31 12.5t-35.5 4t-36.5 -4t-34 -12.5t-27 -23t-14.5 -35.5l-17 -113q-1 -6 -1 -11z" />
    <glyph glyph-name="guillemotright" unicode="&#xbb;" horiz-adv-x="414" 
d="M167 121l143 174l-95 174l52 29l109 -203l-166 -203zM22 121l143 174l-95 174l52 29l109 -203l-166 -203z" />
    <glyph glyph-name="onequarter" unicode="&#xbc;" horiz-adv-x="734" 
d="M614 426h53l-38 -276h54l-7 -47h-54l-14 -102h-51l14 102h-193l-26 48zM611 362l-198 -212h165zM91 -34l-41 28l560 748l42 -28zM66 597l118 116h48l-60 -424h-50l49 346l-71 -68z" />
    <glyph glyph-name="onehalf" unicode="&#xbd;" horiz-adv-x="765" 
d="M676 314q0 24 -20.5 44.5t-67.5 20.5q-32 0 -60.5 -12t-47.5 -41l-44 20q25 44 69 63.5t88 19.5q63 0 99 -31.5t36 -75.5q0 -35 -21 -69.5t-50 -57.5l-175 -144h208l-7 -51h-283l-10 37l236 194q19 16 34.5 38t15.5 45zM71 -34l-41 28l560 748l42 -28zM66 597l118 116h48
l-60 -424h-50l49 346l-71 -68z" />
    <glyph glyph-name="threequarters" unicode="&#xbe;" horiz-adv-x="778" 
d="M350 434q0 -27 -11.5 -53t-33.5 -47t-54.5 -34t-75.5 -13q-10 0 -28.5 3t-39 11.5t-38.5 24t-27 41.5l-3 8l48 22l3 -8q6 -15 17.5 -25.5t25.5 -16.5t28 -8.5t25 -2.5q53 0 83 28.5t30 67.5q0 35 -21 49q-19 12 -50 12h-9h-32l5 40h32q13 0 27 4.5t26 13.5t20 21t10 27
q1 5 1 9q0 25 -19 40q-22 19 -58 19q-26 0 -52.5 -11t-41.5 -33l-5 -8l-39 23q13 25 33 40t41 23t40.5 10.5t31.5 2.5q20 0 41 -5t38 -16.5t27.5 -30t10.5 -45.5q0 -26 -13 -54.5t-46 -45.5q28 -11 40.5 -32.5t12.5 -50.5zM719 426l-38 -276h44l-7 -47h-44l-14 -102h-51
l14 102h-193l-26 48l262 275h53zM465 150h165l33 212zM176 -34l-41 28l560 748l42 -28z" />
    <glyph glyph-name="questiondown" unicode="&#xbf;" horiz-adv-x="474" 
d="M185 -200q-43 0 -82 12.5t-67 38t-41 63.5q-9 25 -9 54q0 17 3 36q7 51 29.5 88t55 63t71 41.5t79.5 22.5l31 163h49l-23 -210q-41 0 -80.5 -11.5t-72.5 -33t-55 -53t-27 -71.5q-2 -12 -2 -22q0 -23 8 -42q11 -27 32.5 -45t50 -26.5t60.5 -8.5q44 0 86.5 15.5t72.5 47.5
h1l39 -35q-41 -44 -96.5 -65.5t-112.5 -21.5zM298 528q20 0 32 -14q10 -11 10 -26q0 -4 -1 -8q-2 -20 -18 -34t-36 -14t-32 14q-10 12 -10 28v6q3 20 19 34t36 14z" />
    <glyph glyph-name="Agrave" unicode="&#xc0;" horiz-adv-x="606" 
d="M265 869h80l55 -113h-58zM559 0h-62l-52 236h-304l-116 -236h-62l353 708h86zM170 295h262l-79 369z" />
    <glyph glyph-name="Aacute" unicode="&#xc1;" horiz-adv-x="606" 
d="M390 756h-58l84 113h80zM559 0h-62l-52 236h-304l-116 -236h-62l353 708h86zM170 295h262l-79 369z" />
    <glyph glyph-name="Acircumflex" unicode="&#xc2;" horiz-adv-x="606" 
d="M508 756h-63l-63 78l-82 -78h-64l119 113h66zM559 0h-62l-52 236h-304l-116 -236h-62l353 708h86zM170 295h262l-79 369z" />
    <glyph glyph-name="Atilde" unicode="&#xc3;" horiz-adv-x="606" 
d="M340 869q16 0 28.5 -7.5t24 -16.5t22.5 -16.5t23 -7.5q29 0 45 37l36 -15q-16 -34 -39.5 -53.5t-51.5 -19.5q-17 0 -30 7.5t-24 16.5t-22.5 16.5t-25.5 7.5t-24.5 -10t-20.5 -28l-37 14q13 35 38 55t58 20zM559 0h-62l-52 236h-304l-116 -236h-62l353 708h86zM170 295
h262l-79 369z" />
    <glyph glyph-name="Adieresis" unicode="&#xc4;" horiz-adv-x="606" 
d="M303 853q17 0 27 -12t8 -29t-16 -29t-31 -12t-27 12t-8 29t16 29t31 12zM463 853q17 0 27 -12t8 -29t-16 -29t-31 -12t-27 12t-8 29t16 29t31 12zM559 0h-62l-52 236h-304l-116 -236h-62l353 708h86zM170 295h262l-79 369z" />
    <glyph glyph-name="Aring" unicode="&#xc5;" horiz-adv-x="606" 
d="M278 773q0 8 1 15q3 19 12.5 36.5t24 30.5t32.5 20.5t38 7.5q19 0 35 -8t26.5 -21.5t15.5 -30.5q3 -11 3 -22q0 -7 -1 -14q-4 -26 -21 -48.5t-41 -34.5l156 -704h-62l-52 236h-304l-116 -236h-62l352 706q-20 12 -30 34q-7 16 -7 33zM322 779q0 -16 10 -27q13 -15 33 -15
q21 0 37 15t19 36q1 4 1 8q0 16 -10 28q-12 15 -33 15t-37 -15.5t-19 -36.5q-1 -4 -1 -8zM353 664l-183 -369h262z" />
    <glyph glyph-name="AE" unicode="&#xc6;" horiz-adv-x="801" 
d="M806 649h-302l-38 -266h271l-8 -59h-271l-37 -265h302l-8 -59h-361l33 236h-215l-150 -236h-69l460 708h401zM446 661l-236 -366h185z" />
    <glyph glyph-name="Ccedilla" unicode="&#xc7;" horiz-adv-x="590" 
d="M381 718q37 0 72.5 -8t65.5 -23.5t52 -39.5t33 -56l-57 -26q-8 23 -25.5 40.5t-41 29.5t-52 18t-58.5 6q-38 0 -76.5 -10t-70 -29.5t-53 -48.5t-26.5 -68l-41 -298q-1 -11 -1 -20q0 -27 10 -49q13 -29 38.5 -48.5t61 -29t73.5 -9.5q30 0 60 6t57 18t49.5 29.5t37.5 41.5
l50 -26q-19 -30 -46 -53t-59 -38.5t-67.5 -24.5t-71.5 -11l-26 -60q17 0 32.5 -5.5t26 -16t15.5 -27.5q3 -10 3 -22q0 -7 -1 -15q-4 -24 -16.5 -41t-30 -27.5t-37.5 -15.5t-39 -5q-46 0 -86 20l18 37q17 -9 33 -13t37 -4q25 0 47 13t27 40q3 18 -3.5 28.5t-17.5 15t-24 3.5
t-24 -6l-12 13l41 87q-47 3 -88.5 17.5t-72 41.5t-45.5 66q-10 27 -10 59q0 15 2 31l41 298q7 53 36 93.5t70 67.5t90.5 40.5t99.5 13.5z" />
    <glyph glyph-name="Egrave" unicode="&#xc8;" horiz-adv-x="567" 
d="M260 869h80l55 -113h-58zM148 384h355l-8 -60h-355l-37 -265h385l-8 -59h-444l99 708h444l-8 -59h-385z" />
    <glyph glyph-name="Eacute" unicode="&#xc9;" horiz-adv-x="567" 
d="M385 756h-58l84 113h80zM148 384h355l-8 -60h-355l-37 -265h385l-8 -59h-444l99 708h444l-8 -59h-385z" />
    <glyph glyph-name="Ecircumflex" unicode="&#xca;" horiz-adv-x="567" 
d="M503 756h-63l-63 78l-82 -78h-64l119 113h66zM148 384h355l-8 -60h-355l-37 -265h385l-8 -59h-444l99 708h444l-8 -59h-385z" />
    <glyph glyph-name="Edieresis" unicode="&#xcb;" horiz-adv-x="567" 
d="M288 853q17 0 27 -12t8 -29t-16 -29t-31 -12t-27 12t-8 29t16 29t31 12zM468 853q17 0 27 -12t8 -29t-16 -29t-31 -12t-27 12t-8 29t16 29t31 12zM148 384h355l-8 -60h-355l-37 -265h385l-8 -59h-444l99 708h444l-8 -59h-385z" />
    <glyph glyph-name="Igrave" unicode="&#xcc;" horiz-adv-x="216" 
d="M68 869h80l55 -113h-58zM95 0h-59l99 708h59z" />
    <glyph glyph-name="Iacute" unicode="&#xcd;" horiz-adv-x="216" 
d="M193 756h-58l84 113h80zM95 0h-59l99 708h59z" />
    <glyph glyph-name="Icircumflex" unicode="&#xce;" horiz-adv-x="216" 
d="M276 756h-58l-33 78l-62 -78h-64l99 113h64zM95 0h-59l99 708h59z" />
    <glyph glyph-name="Idieresis" unicode="&#xcf;" horiz-adv-x="216" 
d="M126 853q17 0 27 -12t8 -29t-16 -29t-31 -12t-27 12t-8 29t16 29t31 12zM246 853q17 0 27 -12q8 -10 8 -23v-6q-2 -17 -16 -29t-31 -12t-27 12t-8 29t16 29t31 12zM95 0h-59l99 708h59z" />
    <glyph glyph-name="Eth" unicode="&#xd0;" horiz-adv-x="643" 
d="M374 708q50 0 96 -12t79.5 -37t50.5 -64q12 -28 12 -63q0 -15 -2 -31l-42 -295q-8 -54 -36 -93t-68.5 -64t-89.5 -37t-99 -12h-236l45 329h-63l7 47h63l47 332h236zM283 59q39 0 77 8t69.5 26t53 46t26.5 67l42 295q2 12 2 23q0 25 -10 45q-14 28 -40.5 46t-62 26
t-74.5 8h-177l-39 -273h155l-7 -47h-155l-37 -270h177z" />
    <glyph glyph-name="Ntilde" unicode="&#xd1;" horiz-adv-x="688" 
d="M379 869q16 0 28.5 -7.5t24 -16.5t22.5 -16.5t23 -7.5q29 0 45 37l36 -15q-16 -34 -39.5 -53.5t-51.5 -19.5q-17 0 -30 7.5t-24 16.5t-22.5 16.5t-25.5 7.5t-24.5 -10t-20.5 -28l-37 14q13 35 38 55t58 20zM517 65l90 643h59l-99 -708h-88l-298 617l-86 -617h-59l99 708
h72z" />
    <glyph glyph-name="Ograve" unicode="&#xd2;" horiz-adv-x="675" 
d="M299 869h80l55 -113h-58zM396 718q53 0 101.5 -13.5t84 -41t53.5 -68.5q13 -30 13 -66q0 -14 -2 -29l-41 -292q-8 -54 -37.5 -95t-73 -68.5t-96 -41t-104.5 -13.5q-53 0 -101 13.5t-84 41t-55 68.5q-12 29 -12 64q0 15 2 31l41 292q7 54 37 95t73.5 68.5t95.5 41
t105 13.5zM101 186q0 -26 11 -48q15 -29 43.5 -49t66.5 -30t80 -10q41 0 82.5 10t75.5 30t57 49.5t29 69.5l41 292q2 12 2 23q0 28 -11 49q-15 30 -44 49.5t-67.5 28.5t-80.5 9q-41 0 -82 -9.5t-74.5 -29t-56.5 -49.5t-29 -71l-41 -292q-2 -11 -2 -22z" />
    <glyph glyph-name="Oacute" unicode="&#xd3;" horiz-adv-x="675" 
d="M424 756h-58l84 113h80zM396 718q53 0 101.5 -13.5t84 -41t53.5 -68.5q13 -30 13 -66q0 -14 -2 -29l-41 -292q-8 -54 -37.5 -95t-73 -68.5t-96 -41t-104.5 -13.5q-53 0 -101 13.5t-84 41t-55 68.5q-12 29 -12 64q0 15 2 31l41 292q7 54 37 95t73.5 68.5t95.5 41t105 13.5
zM101 186q0 -26 11 -48q15 -29 43.5 -49t66.5 -30t80 -10q41 0 82.5 10t75.5 30t57 49.5t29 69.5l41 292q2 12 2 23q0 28 -11 49q-15 30 -44 49.5t-67.5 28.5t-80.5 9q-41 0 -82 -9.5t-74.5 -29t-56.5 -49.5t-29 -71l-41 -292q-2 -11 -2 -22z" />
    <glyph glyph-name="Ocircumflex" unicode="&#xd4;" horiz-adv-x="675" 
d="M542 756h-63l-63 78l-82 -78h-64l119 113h66zM396 718q53 0 101.5 -13.5t84 -41t53.5 -68.5q13 -30 13 -66q0 -14 -2 -29l-41 -292q-8 -54 -37.5 -95t-73 -68.5t-96 -41t-104.5 -13.5q-53 0 -101 13.5t-84 41t-55 68.5q-12 29 -12 64q0 15 2 31l41 292q7 54 37 95
t73.5 68.5t95.5 41t105 13.5zM101 186q0 -26 11 -48q15 -29 43.5 -49t66.5 -30t80 -10q41 0 82.5 10t75.5 30t57 49.5t29 69.5l41 292q2 12 2 23q0 28 -11 49q-15 30 -44 49.5t-67.5 28.5t-80.5 9q-41 0 -82 -9.5t-74.5 -29t-56.5 -49.5t-29 -71l-41 -292q-2 -11 -2 -22z
" />
    <glyph glyph-name="Otilde" unicode="&#xd5;" horiz-adv-x="675" 
d="M374 869q16 0 28.5 -7.5t24 -16.5t22.5 -16.5t23 -7.5q29 0 45 37l36 -15q-16 -34 -39.5 -53.5t-51.5 -19.5q-17 0 -30 7.5t-24 16.5t-22.5 16.5t-25.5 7.5t-24.5 -10t-20.5 -28l-37 14q13 35 38 55t58 20zM396 718q53 0 101.5 -13.5t84 -41t53.5 -68.5q13 -30 13 -66
q0 -14 -2 -29l-41 -292q-8 -54 -37.5 -95t-73 -68.5t-96 -41t-104.5 -13.5q-53 0 -101 13.5t-84 41t-55 68.5q-12 29 -12 64q0 15 2 31l41 292q7 54 37 95t73.5 68.5t95.5 41t105 13.5zM101 186q0 -26 11 -48q15 -29 43.5 -49t66.5 -30t80 -10q41 0 82.5 10t75.5 30t57 49.5
t29 69.5l41 292q2 12 2 23q0 28 -11 49q-15 30 -44 49.5t-67.5 28.5t-80.5 9q-41 0 -82 -9.5t-74.5 -29t-56.5 -49.5t-29 -71l-41 -292q-2 -11 -2 -22z" />
    <glyph glyph-name="Odieresis" unicode="&#xd6;" horiz-adv-x="675" 
d="M327 853q17 0 27 -12t8 -29t-16 -29t-31 -12t-27 12t-8 29t16 29t31 12zM507 853q17 0 27 -12t8 -29t-16 -29t-31 -12t-27 12t-8 29t16 29t31 12zM396 718q53 0 101.5 -13.5t84 -41t53.5 -68.5q13 -30 13 -66q0 -14 -2 -29l-41 -292q-8 -54 -37.5 -95t-73 -68.5t-96 -41
t-104.5 -13.5q-53 0 -101 13.5t-84 41t-55 68.5q-12 29 -12 64q0 15 2 31l41 292q7 54 37 95t73.5 68.5t95.5 41t105 13.5zM101 186q0 -26 11 -48q15 -29 43.5 -49t66.5 -30t80 -10q41 0 82.5 10t75.5 30t57 49.5t29 69.5l41 292q2 12 2 23q0 28 -11 49q-15 30 -44 49.5
t-67.5 28.5t-80.5 9q-41 0 -82 -9.5t-74.5 -29t-56.5 -49.5t-29 -71l-41 -292q-2 -11 -2 -22z" />
    <glyph glyph-name="multiply" unicode="&#xd7;" horiz-adv-x="501" 
d="M440 502l33 -40l-181 -159l135 -157l-46 -41l-136 158l-184 -162l-34 41l183 160l-140 164l46 40l140 -165z" />
    <glyph glyph-name="Oslash" unicode="&#xd8;" horiz-adv-x="675" 
d="M648 531q0 -15 -2 -31l-41 -292q-8 -54 -37.5 -95t-73 -68.5t-96 -41t-104.5 -13.5q-74 0 -135 26l-50 -81l-42 22l50 81q-40 28 -61 70q-14 30 -14 69q0 15 2 31l41 292q7 54 37 95t73.5 68.5t95.5 41t105 13.5q71 0 130 -24l48 77l41 -23l-47 -75q42 -27 64 -70
q16 -32 16 -72zM102 188q0 -26 10 -47q13 -29 39 -49l343 550q-49 17 -108 17q-41 0 -82 -9.5t-74.5 -29t-56.5 -49.5t-29 -71l-41 -292q-1 -10 -1 -20zM589 524q0 27 -11 48q-14 29 -43 48l-343 -551q49 -20 110 -20q41 0 82.5 10t75.5 30t57 49.5t29 69.5l41 292
q2 12 2 24z" />
    <glyph glyph-name="Ugrave" unicode="&#xd9;" horiz-adv-x="677" 
d="M298 869h80l55 -113h-58zM117 187q0 -25 9 -47q14 -30 40 -50t61.5 -30.5t74.5 -10.5t77.5 10.5t70.5 30.5t54 50.5t28 70.5l69 497h59l-69 -497q-8 -55 -36.5 -96.5t-69.5 -69t-91 -41.5t-100 -14t-95.5 14t-79 41.5t-50.5 68.5q-12 29 -12 63q0 16 3 34l69 497h59
l-69 -497q-2 -12 -2 -24z" />
    <glyph glyph-name="Uacute" unicode="&#xda;" horiz-adv-x="677" 
d="M423 756h-58l84 113h80zM117 187q0 -25 9 -47q14 -30 40 -50t61.5 -30.5t74.5 -10.5t77.5 10.5t70.5 30.5t54 50.5t28 70.5l69 497h59l-69 -497q-8 -55 -36.5 -96.5t-69.5 -69t-91 -41.5t-100 -14t-95.5 14t-79 41.5t-50.5 68.5q-12 29 -12 63q0 16 3 34l69 497h59
l-69 -497q-2 -12 -2 -24z" />
    <glyph glyph-name="Ucircumflex" unicode="&#xdb;" horiz-adv-x="677" 
d="M541 756h-63l-63 78l-82 -78h-64l119 113h66zM117 187q0 -25 9 -47q14 -30 40 -50t61.5 -30.5t74.5 -10.5t77.5 10.5t70.5 30.5t54 50.5t28 70.5l69 497h59l-69 -497q-8 -55 -36.5 -96.5t-69.5 -69t-91 -41.5t-100 -14t-95.5 14t-79 41.5t-50.5 68.5q-12 29 -12 63
q0 16 3 34l69 497h59l-69 -497q-2 -12 -2 -24z" />
    <glyph glyph-name="Udieresis" unicode="&#xdc;" horiz-adv-x="677" 
d="M326 853q17 0 27 -12t8 -29t-16 -29t-31 -12t-27 12t-8 29t16 29t31 12zM506 853q17 0 27 -12t8 -29t-16 -29t-31 -12t-27 12t-8 29t16 29t31 12zM117 187q0 -25 9 -47q14 -30 40 -50t61.5 -30.5t74.5 -10.5t77.5 10.5t70.5 30.5t54 50.5t28 70.5l69 497h59l-69 -497
q-8 -55 -36.5 -96.5t-69.5 -69t-91 -41.5t-100 -14t-95.5 14t-79 41.5t-50.5 68.5q-12 29 -12 63q0 16 3 34l69 497h59l-69 -497q-2 -12 -2 -24z" />
    <glyph glyph-name="Yacute" unicode="&#xdd;" horiz-adv-x="556" 
d="M363 756h-58l84 113h80zM265 0h-59l38 277l-185 431h69l155 -372l258 372h70l-308 -431z" />
    <glyph glyph-name="Thorn" unicode="&#xde;" horiz-adv-x="611" 
d="M384 577q78 0 125.5 -33t66.5 -82q14 -34 14 -72q0 -17 -2 -34q-9 -58 -41.5 -107t-89 -82t-134.5 -33h-209l-19 -134h-59l99 708h59l-18 -131h208zM330 193q59 0 101.5 24t67 60t29.5 79q2 11 2 22q0 30 -10 56q-15 36 -50.5 60t-93.5 24h-208l-46 -325h208z" />
    <glyph glyph-name="germandbls" unicode="&#xdf;" horiz-adv-x="591" 
d="M259 59q34 0 68 8q38 9 69 28t52.5 48t27.5 68q2 15 2 28q0 23 -6 41q-10 29 -31 47.5t-52.5 26.5t-69.5 8h-92l8 56h92q30 0 57.5 8.5t50 25.5t37.5 42.5t20 58.5q2 11 2 21q0 22 -8 38q-11 25 -32.5 40t-50 22t-58.5 7t-60.5 -7.5t-56 -24t-44 -42t-23.5 -60.5
l-77 -548h-58l77 548q7 46 31 81.5t59 59.5t76.5 36.5t83.5 12.5t80.5 -11.5t67 -34t43.5 -57.5q9 -24 9 -52q0 -14 -2 -29q-7 -48 -32 -91.5t-72 -68.5q60 -22 79 -70q13 -33 13 -73q0 -19 -3 -40q-9 -54 -37.5 -94t-69 -66.5t-89.5 -39.5q-44 -11 -90 -11h-7q-27 1 -54 6
t-50 18l10 63q20 -11 48 -18.5t54 -8.5h8z" />
    <glyph glyph-name="agrave" unicode="&#xe0;" horiz-adv-x="517" 
d="M199 689h80l55 -113h-58zM195 -10q-35 0 -66.5 10t-55 31t-34.5 53q-7 21 -7 46q0 14 2 30l27 197q7 48 29 81t54.5 53t71.5 28.5t80 8.5q51 0 98 -13t81 -30l-67 -485h-50l-1 52q-28 -27 -72 -44.5t-90 -17.5zM293 472q-30 0 -59.5 -5.5t-54 -19t-41 -35.5t-20.5 -54
l-27 -194q-1 -10 -1 -19q0 -18 5 -33q8 -21 24 -35.5t38.5 -21t47.5 -6.5q22 0 44.5 4t43.5 11.5t39.5 18t31.5 23.5l48 339q-21 11 -52.5 19t-66.5 8z" />
    <glyph glyph-name="aacute" unicode="&#xe1;" horiz-adv-x="517" 
d="M324 576h-58l84 113h80zM195 -10q-35 0 -66.5 10t-55 31t-34.5 53q-7 21 -7 46q0 14 2 30l27 197q7 48 29 81t54.5 53t71.5 28.5t80 8.5q51 0 98 -13t81 -30l-67 -485h-50l-1 52q-28 -27 -72 -44.5t-90 -17.5zM293 472q-30 0 -59.5 -5.5t-54 -19t-41 -35.5t-20.5 -54
l-27 -194q-1 -10 -1 -19q0 -18 5 -33q8 -21 24 -35.5t38.5 -21t47.5 -6.5q22 0 44.5 4t43.5 11.5t39.5 18t31.5 23.5l48 339q-21 11 -52.5 19t-66.5 8z" />
    <glyph glyph-name="acircumflex" unicode="&#xe2;" horiz-adv-x="517" 
d="M442 576h-63l-63 78l-82 -78h-64l119 113h66zM195 -10q-35 0 -66.5 10t-55 31t-34.5 53q-7 21 -7 46q0 14 2 30l27 197q7 48 29 81t54.5 53t71.5 28.5t80 8.5q51 0 98 -13t81 -30l-67 -485h-50l-1 52q-28 -27 -72 -44.5t-90 -17.5zM293 472q-30 0 -59.5 -5.5t-54 -19
t-41 -35.5t-20.5 -54l-27 -194q-1 -10 -1 -19q0 -18 5 -33q8 -21 24 -35.5t38.5 -21t47.5 -6.5q22 0 44.5 4t43.5 11.5t39.5 18t31.5 23.5l48 339q-21 11 -52.5 19t-66.5 8z" />
    <glyph glyph-name="atilde" unicode="&#xe3;" horiz-adv-x="517" 
d="M274 689q16 0 28.5 -7.5t24 -16.5t22.5 -16.5t23 -7.5q29 0 45 37l36 -15q-16 -34 -39.5 -53.5t-51.5 -19.5q-17 0 -30 7.5t-24 16.5t-22.5 16.5t-25.5 7.5t-24.5 -10t-20.5 -28l-37 14q13 35 38 55t58 20zM195 -10q-35 0 -66.5 10t-55 31t-34.5 53q-7 21 -7 46
q0 14 2 30l27 197q7 48 29 81t54.5 53t71.5 28.5t80 8.5q51 0 98 -13t81 -30l-67 -485h-50l-1 52q-28 -27 -72 -44.5t-90 -17.5zM293 472q-30 0 -59.5 -5.5t-54 -19t-41 -35.5t-20.5 -54l-27 -194q-1 -10 -1 -19q0 -18 5 -33q8 -21 24 -35.5t38.5 -21t47.5 -6.5q22 0 44.5 4
t43.5 11.5t39.5 18t31.5 23.5l48 339q-21 11 -52.5 19t-66.5 8z" />
    <glyph glyph-name="adieresis" unicode="&#xe4;" horiz-adv-x="517" 
d="M227 673q17 0 27 -12t8 -29t-16 -29t-31 -12t-27 12t-8 29t16 29t31 12zM407 673q17 0 27 -12t8 -29t-16 -29t-31 -12t-27 12t-8 29t16 29t31 12zM195 -10q-35 0 -66.5 10t-55 31t-34.5 53q-7 21 -7 46q0 14 2 30l27 197q7 48 29 81t54.5 53t71.5 28.5t80 8.5
q51 0 98 -13t81 -30l-67 -485h-50l-1 52q-28 -27 -72 -44.5t-90 -17.5zM293 472q-30 0 -59.5 -5.5t-54 -19t-41 -35.5t-20.5 -54l-27 -194q-1 -10 -1 -19q0 -18 5 -33q8 -21 24 -35.5t38.5 -21t47.5 -6.5q22 0 44.5 4t43.5 11.5t39.5 18t31.5 23.5l48 339q-21 11 -52.5 19
t-66.5 8z" />
    <glyph glyph-name="aring" unicode="&#xe5;" horiz-adv-x="517" 
d="M321 756q19 0 35 -8t26.5 -21.5t15.5 -30.5q3 -11 3 -22q0 -7 -1 -14q-3 -18 -12.5 -35t-24 -30t-32.5 -21t-37 -8q-20 0 -35.5 7.5t-26.5 20.5t-16 31q-3 10 -3 22q0 7 1 14q3 19 12.5 36.5t24 30.5t32.5 20.5t38 7.5zM357 669q0 16 -10 28q-12 15 -33 15t-37 -15.5
t-19 -36.5q-1 -4 -1 -8q0 -16 11 -27q12 -15 32 -15q21 0 37 15t19 36q1 4 1 8zM195 -10q-35 0 -66.5 10t-55 31t-34.5 53q-7 21 -7 46q0 14 2 30l27 197q7 48 29 81t54.5 53t71.5 28.5t80 8.5q51 0 98 -13t81 -30l-67 -485h-50l-1 52q-28 -27 -72 -44.5t-90 -17.5zM293 472
q-30 0 -59.5 -5.5t-54 -19t-41 -35.5t-20.5 -54l-27 -194q-1 -10 -1 -19q0 -18 5 -33q8 -21 24 -35.5t38.5 -21t47.5 -6.5q22 0 44.5 4t43.5 11.5t39.5 18t31.5 23.5l48 339q-21 11 -52.5 19t-66.5 8z" />
    <glyph glyph-name="ae" unicode="&#xe6;" horiz-adv-x="823" 
d="M194 -10q-35 0 -66.5 10t-54.5 31t-35 53q-7 21 -7 47q0 14 2 29l27 198q6 47 28 79.5t54 52.5t70.5 29t78.5 9q51 0 99 -14.5t81 -34.5q32 25 71 37t79 12q37 0 70.5 -10.5t58 -32t36.5 -53.5q8 -21 8 -47q0 -13 -2 -27q-6 -44 -26.5 -75.5t-50 -52t-66 -30.5t-73.5 -11
h-9q-33 0 -65 7q-37 7 -67 22l-9 -65q-1 -6 -1 -12q0 -21 8 -36q10 -20 28 -32.5t42 -18t49 -5.5q42 0 81.5 16t60.5 51l46 -25q-15 -25 -37 -44t-48 -31.5t-54.5 -19t-56.5 -6.5q-39 0 -74.5 12t-59.5 35l-4 -37h-49l-1 52q-28 -27 -72 -44.5t-90 -17.5zM290 472
q-30 0 -59.5 -6.5t-53.5 -20t-40 -35t-20 -51.5l-27 -199q-1 -10 -1 -19q0 -18 5 -32q8 -21 24 -34.5t38.5 -19.5t47.5 -6q22 0 44.5 4t43.5 11.5t39.5 18t31.5 23.5l35 248q6 41 28 76q-24 18 -60.5 30t-75.5 12zM578 242q18 0 36 2q30 4 55.5 17t43 36.5t23.5 60.5
q1 9 1 18q0 19 -6 34q-9 21 -26.5 35t-41.5 20.5t-50 6.5q-27 0 -53.5 -7t-48.5 -21t-37.5 -36t-19.5 -53l-12 -85q22 -9 50.5 -16.5t59.5 -9.5q13 -2 26 -2z" />
    <glyph glyph-name="ccedilla" unicode="&#xe7;" horiz-adv-x="461" 
d="M211 49q22 0 45 4.5t42.5 13.5t35 23.5t24.5 35.5l48 -23q-13 -27 -33 -47t-44.5 -34t-51.5 -21.5t-55 -9.5l-26 -60q17 0 32.5 -5.5t26 -16t15.5 -27.5q3 -10 3 -22q0 -7 -1 -15q-4 -24 -16.5 -41t-30 -27.5t-37.5 -15.5t-39 -5q-46 0 -86 20l18 37q17 -9 33 -13t37 -4
q25 0 47 13t27 40q3 18 -3.5 28.5t-17.5 15t-24 3.5t-24 -6l-12 13l41 88q-34 2 -64.5 13.5t-52 32.5t-32.5 51q-7 19 -7 43q0 13 2 27l28 202q6 42 27.5 73.5t52 52.5t67.5 31.5t73 10.5q54 0 99 -22t65 -67l-51 -30q-13 32 -46.5 47.5t-74.5 15.5q-26 0 -52 -6.5t-48 -20
t-37 -34.5t-19 -49l-28 -203q-1 -9 -1 -17q0 -17 6 -32q9 -21 26.5 -34.5t42 -20t50.5 -6.5z" />
    <glyph glyph-name="egrave" unicode="&#xe8;" horiz-adv-x="484" 
d="M185 689h80l55 -113h-58zM87 142q0 -19 7 -34q9 -20 27 -33.5t42 -19.5t50 -6q42 0 81.5 16t60.5 51l46 -25q-15 -25 -37 -44t-48 -31.5t-54.5 -19t-56.5 -6.5q-37 0 -71 10.5t-58.5 31.5t-37.5 53q-8 22 -8 48q0 12 2 26l27 195q6 44 28 76.5t53 54.5t68 32.5t74 10.5
t70.5 -10.5t58 -31.5t36.5 -53q8 -21 8 -48q0 -13 -2 -27q-6 -44 -26.5 -75.5t-50 -52t-66 -30.5t-74.5 -11h-8q-33 0 -66 7q-36 7 -66 22l-8 -59q-1 -9 -1 -17zM239 242q18 0 35 2q31 4 56.5 17t43 36.5t23.5 60.5q1 9 1 18q0 19 -6 34q-9 21 -26.5 35t-41.5 20.5t-50 6.5
q-27 0 -53.5 -7.5t-48.5 -23t-37.5 -38.5t-19.5 -54l-12 -79q22 -9 50.5 -16.5t59.5 -9.5q13 -2 26 -2z" />
    <glyph glyph-name="eacute" unicode="&#xe9;" horiz-adv-x="484" 
d="M310 576h-58l84 113h80zM87 142q0 -19 7 -34q9 -20 27 -33.5t42 -19.5t50 -6q42 0 81.5 16t60.5 51l46 -25q-15 -25 -37 -44t-48 -31.5t-54.5 -19t-56.5 -6.5q-37 0 -71 10.5t-58.5 31.5t-37.5 53q-8 22 -8 48q0 12 2 26l27 195q6 44 28 76.5t53 54.5t68 32.5t74 10.5
t70.5 -10.5t58 -31.5t36.5 -53q8 -21 8 -48q0 -13 -2 -27q-6 -44 -26.5 -75.5t-50 -52t-66 -30.5t-74.5 -11h-8q-33 0 -66 7q-36 7 -66 22l-8 -59q-1 -9 -1 -17zM239 242q18 0 35 2q31 4 56.5 17t43 36.5t23.5 60.5q1 9 1 18q0 19 -6 34q-9 21 -26.5 35t-41.5 20.5t-50 6.5
q-27 0 -53.5 -7.5t-48.5 -23t-37.5 -38.5t-19.5 -54l-12 -79q22 -9 50.5 -16.5t59.5 -9.5q13 -2 26 -2z" />
    <glyph glyph-name="ecircumflex" unicode="&#xea;" horiz-adv-x="484" 
d="M428 576h-63l-63 78l-82 -78h-64l119 113h66zM87 142q0 -19 7 -34q9 -20 27 -33.5t42 -19.5t50 -6q42 0 81.5 16t60.5 51l46 -25q-15 -25 -37 -44t-48 -31.5t-54.5 -19t-56.5 -6.5q-37 0 -71 10.5t-58.5 31.5t-37.5 53q-8 22 -8 48q0 12 2 26l27 195q6 44 28 76.5
t53 54.5t68 32.5t74 10.5t70.5 -10.5t58 -31.5t36.5 -53q8 -21 8 -48q0 -13 -2 -27q-6 -44 -26.5 -75.5t-50 -52t-66 -30.5t-74.5 -11h-8q-33 0 -66 7q-36 7 -66 22l-8 -59q-1 -9 -1 -17zM239 242q18 0 35 2q31 4 56.5 17t43 36.5t23.5 60.5q1 9 1 18q0 19 -6 34
q-9 21 -26.5 35t-41.5 20.5t-50 6.5q-27 0 -53.5 -7.5t-48.5 -23t-37.5 -38.5t-19.5 -54l-12 -79q22 -9 50.5 -16.5t59.5 -9.5q13 -2 26 -2z" />
    <glyph glyph-name="edieresis" unicode="&#xeb;" horiz-adv-x="484" 
d="M223 663q17 0 27 -12t8 -29t-16 -29t-31 -12t-27 12t-8 29t16 29t31 12zM383 663q17 0 27 -12t8 -29t-16 -29t-31 -12t-27 12t-8 29t16 29t31 12zM87 142q0 -19 7 -34q9 -20 27 -33.5t42 -19.5t50 -6q42 0 81.5 16t60.5 51l46 -25q-15 -25 -37 -44t-48 -31.5t-54.5 -19
t-56.5 -6.5q-37 0 -71 10.5t-58.5 31.5t-37.5 53q-8 22 -8 48q0 12 2 26l27 195q6 44 28 76.5t53 54.5t68 32.5t74 10.5t70.5 -10.5t58 -31.5t36.5 -53q8 -21 8 -48q0 -13 -2 -27q-6 -44 -26.5 -75.5t-50 -52t-66 -30.5t-74.5 -11h-8q-33 0 -66 7q-36 7 -66 22l-8 -59
q-1 -9 -1 -17zM239 242q18 0 35 2q31 4 56.5 17t43 36.5t23.5 60.5q1 9 1 18q0 19 -6 34q-9 21 -26.5 35t-41.5 20.5t-50 6.5q-27 0 -53.5 -7.5t-48.5 -23t-37.5 -38.5t-19.5 -54l-12 -79q22 -9 50.5 -16.5t59.5 -9.5q13 -2 26 -2z" />
    <glyph glyph-name="igrave" unicode="&#xec;" horiz-adv-x="194" 
d="M30 679h80l55 -113h-58zM155 518l-73 -518h-56l73 518h56z" />
    <glyph glyph-name="iacute" unicode="&#xed;" horiz-adv-x="194" 
d="M155 566h-58l84 113h80zM155 518l-73 -518h-56l73 518h56z" />
    <glyph glyph-name="icircumflex" unicode="&#xee;" horiz-adv-x="194" 
d="M229 566h-54l-26 78l-59 -78h-59l89 113h64zM155 518l-73 -518h-56l73 518h56z" />
    <glyph glyph-name="idieresis" unicode="&#xef;" horiz-adv-x="194" 
d="M88 663q17 0 27 -12t8 -29t-16 -29t-31 -12t-27 12t-8 29t16 29t31 12zM208 663q17 0 27 -12q8 -10 8 -23v-6q-2 -17 -16 -29t-31 -12t-27 12t-8 29t16 29t31 12zM155 518l-73 -518h-56l73 518h56z" />
    <glyph glyph-name="eth" unicode="&#xf0;" horiz-adv-x="507" 
d="M306 716q13 0 25 -1l31 67l42 -15l-27 -61q48 -15 77 -53q23 -29 23 -73q0 -13 -2 -28l-73 -518l-57 -17q-36 -10 -73 -16.5t-73 -6.5t-68.5 10.5t-56.5 31.5t-36 52q-8 21 -8 46q0 12 2 26l21 152q6 40 27 71.5t51 52.5t66.5 31.5t73.5 10.5q36 0 69.5 -7t64.5 -24
l15 105q1 9 1 18q0 29 -15 48q-21 25 -54 36l-36 -80l-43 16l35 73q-8 1 -16 1q-34 0 -68 -11q-41 -13 -66 -40l-33 35q39 38 95 55q44 13 86 13zM261 423q-26 0 -51.5 -7t-46.5 -20.5t-36 -34t-19 -48.5v-1l-21 -152v-1q-1 -9 -1 -17q0 -18 6 -32q8 -20 25 -33.5
t40.5 -20.5t49.5 -7q42 0 82 10t65 20q6 44 11 82.5t10.5 75t11 75t11.5 82.5q-63 29 -137 29z" />
    <glyph glyph-name="ntilde" unicode="&#xf1;" 
d="M274 689q16 0 28.5 -7.5t24 -16.5t22.5 -16.5t23 -7.5q29 0 45 37l36 -15q-16 -34 -39.5 -53.5t-51.5 -19.5q-17 0 -30 7.5t-24 16.5t-22.5 16.5t-25.5 7.5t-24.5 -10t-20.5 -28l-37 14q13 35 38 55t58 20zM467 387q0 -12 -2 -26l-50 -361h-56l50 361q1 9 1 17
q0 17 -6 32q-9 21 -26.5 35t-41 20.5t-48.5 6.5q-42 0 -82 -10t-65 -20l-61 -442h-56l68 487q51 17 102 29t102 12q36 -1 69 -11.5t57 -31t36 -51.5q9 -21 9 -47z" />
    <glyph glyph-name="ograve" unicode="&#xf2;" horiz-adv-x="497" 
d="M183 689h80l55 -113h-58zM280 528q37 0 70.5 -10.5t58.5 -31.5t37 -53q9 -22 9 -48q0 -12 -2 -26l-29 -201q-6 -42 -27.5 -73.5t-52 -52.5t-67 -31.5t-73.5 -10.5t-71 10.5t-58.5 31.5t-36.5 52q-9 22 -9 48q0 12 2 26l29 201q6 42 27 74t52 53t67.5 31.5t73.5 10.5z
M272 472q-26 0 -52 -6.5t-47.5 -20t-37 -34.5t-19.5 -51l-29 -198q-1 -9 -1 -17q0 -19 6 -34q10 -21 28 -35t42 -20.5t50 -6.5q25 0 51 6.5t48 20.5t37.5 35t19.5 51l29 198q1 9 1 17q0 19 -6 34q-10 21 -28 34.5t-42.5 20t-49.5 6.5z" />
    <glyph glyph-name="oacute" unicode="&#xf3;" horiz-adv-x="497" 
d="M308 576h-58l84 113h80zM280 528q37 0 70.5 -10.5t58.5 -31.5t37 -53q9 -22 9 -48q0 -12 -2 -26l-29 -201q-6 -42 -27.5 -73.5t-52 -52.5t-67 -31.5t-73.5 -10.5t-71 10.5t-58.5 31.5t-36.5 52q-9 22 -9 48q0 12 2 26l29 201q6 42 27 74t52 53t67.5 31.5t73.5 10.5z
M272 472q-26 0 -52 -6.5t-47.5 -20t-37 -34.5t-19.5 -51l-29 -198q-1 -9 -1 -17q0 -19 6 -34q10 -21 28 -35t42 -20.5t50 -6.5q25 0 51 6.5t48 20.5t37.5 35t19.5 51l29 198q1 9 1 17q0 19 -6 34q-10 21 -28 34.5t-42.5 20t-49.5 6.5z" />
    <glyph glyph-name="ocircumflex" unicode="&#xf4;" horiz-adv-x="497" 
d="M426 576h-63l-63 78l-82 -78h-64l119 113h66zM280 528q37 0 70.5 -10.5t58.5 -31.5t37 -53q9 -22 9 -48q0 -12 -2 -26l-29 -201q-6 -42 -27.5 -73.5t-52 -52.5t-67 -31.5t-73.5 -10.5t-71 10.5t-58.5 31.5t-36.5 52q-9 22 -9 48q0 12 2 26l29 201q6 42 27 74t52 53
t67.5 31.5t73.5 10.5zM272 472q-26 0 -52 -6.5t-47.5 -20t-37 -34.5t-19.5 -51l-29 -198q-1 -9 -1 -17q0 -19 6 -34q10 -21 28 -35t42 -20.5t50 -6.5q25 0 51 6.5t48 20.5t37.5 35t19.5 51l29 198q1 9 1 17q0 19 -6 34q-10 21 -28 34.5t-42.5 20t-49.5 6.5z" />
    <glyph glyph-name="otilde" unicode="&#xf5;" horiz-adv-x="497" 
d="M258 679q16 0 28.5 -7.5t24 -16.5t22.5 -16.5t23 -7.5q29 0 45 37l36 -15q-16 -34 -39.5 -53.5t-51.5 -19.5q-17 0 -30 7.5t-24 16.5t-22.5 16.5t-25.5 7.5t-24.5 -10t-20.5 -28l-37 14q13 35 38 55t58 20zM280 528q37 0 70.5 -10.5t58.5 -31.5t37 -53q9 -22 9 -48
q0 -12 -2 -26l-29 -201q-6 -42 -27.5 -73.5t-52 -52.5t-67 -31.5t-73.5 -10.5t-71 10.5t-58.5 31.5t-36.5 52q-9 22 -9 48q0 12 2 26l29 201q6 42 27 74t52 53t67.5 31.5t73.5 10.5zM272 472q-26 0 -52 -6.5t-47.5 -20t-37 -34.5t-19.5 -51l-29 -198q-1 -9 -1 -17
q0 -19 6 -34q10 -21 28 -35t42 -20.5t50 -6.5q25 0 51 6.5t48 20.5t37.5 35t19.5 51l29 198q1 9 1 17q0 19 -6 34q-10 21 -28 34.5t-42.5 20t-49.5 6.5z" />
    <glyph glyph-name="odieresis" unicode="&#xf6;" horiz-adv-x="497" 
d="M221 663q17 0 27 -12t8 -29t-16 -29t-31 -12t-27 12t-8 29t16 29t31 12zM381 663q17 0 27 -12t8 -29t-16 -29t-31 -12t-27 12t-8 29t16 29t31 12zM280 528q37 0 70.5 -10.5t58.5 -31.5t37 -53q9 -22 9 -48q0 -12 -2 -26l-29 -201q-6 -42 -27.5 -73.5t-52 -52.5t-67 -31.5
t-73.5 -10.5t-71 10.5t-58.5 31.5t-36.5 52q-9 22 -9 48q0 12 2 26l29 201q6 42 27 74t52 53t67.5 31.5t73.5 10.5zM272 472q-26 0 -52 -6.5t-47.5 -20t-37 -34.5t-19.5 -51l-29 -198q-1 -9 -1 -17q0 -19 6 -34q10 -21 28 -35t42 -20.5t50 -6.5q25 0 51 6.5t48 20.5t37.5 35
t19.5 51l29 198q1 9 1 17q0 19 -6 34q-10 21 -28 34.5t-42.5 20t-49.5 6.5z" />
    <glyph glyph-name="divide" unicode="&#xf7;" horiz-adv-x="542" 
d="M488 301h-434l8 60h434zM265 222q20 0 32 -14q10 -11 10 -26q0 -4 -1 -8q-2 -20 -18 -34t-36 -14t-32 14q-10 12 -10 28v6q3 20 19 34t36 14zM308 530q20 0 32 -14q10 -11 10 -26q0 -4 -1 -8q-2 -20 -18 -34t-36 -14t-32 14q-10 12 -10 28v6q3 20 19 34t36 14z" />
    <glyph glyph-name="oslash" unicode="&#xf8;" horiz-adv-x="497" 
d="M455 386q0 -13 -2 -27l-29 -201q-6 -42 -27.5 -73.5t-52 -52.5t-67 -31.5t-73.5 -10.5q-40 0 -76 12l-35 -65l-39 17l36 67q-32 20 -49 55q-12 24 -12 55q0 13 2 27l29 201q6 42 27 74t52 53t67.5 31.5t73.5 10.5t73 -11l34 64l40 -20l-34 -63q32 -21 49 -56
q13 -24 13 -56zM86 146q0 -19 6 -34q10 -21 27 -35l207 388q-24 7 -54 7q-26 0 -52 -6.5t-47.5 -20t-37 -34.5t-19.5 -51l-29 -198q-1 -9 -1 -16zM398 376q0 19 -6 34q-10 21 -27 35l-208 -388q27 -8 55 -8q25 0 51 6.5t48 20.5t37.5 35t19.5 51l29 198q1 9 1 16z" />
    <glyph glyph-name="ugrave" unicode="&#xf9;" 
d="M194 679h80l55 -113h-58zM213 -10q-36 0 -69 11t-57 32t-36 52q-8 21 -8 46q0 13 2 27l50 360h56l-51 -362q-1 -8 -1 -16q0 -17 6 -32q9 -20 26 -34t40.5 -21t49.5 -7q42 0 82 10.5t65 20.5l62 441h56l-68 -487l-59 -17q-35 -10 -73 -17t-73 -7z" />
    <glyph glyph-name="uacute" unicode="&#xfa;" 
d="M319 566h-58l84 113h80zM213 -10q-36 0 -69 11t-57 32t-36 52q-8 21 -8 46q0 13 2 27l50 360h56l-51 -362q-1 -8 -1 -16q0 -17 6 -32q9 -20 26 -34t40.5 -21t49.5 -7q42 0 82 10.5t65 20.5l62 441h56l-68 -487l-59 -17q-35 -10 -73 -17t-73 -7z" />
    <glyph glyph-name="ucircumflex" unicode="&#xfb;" 
d="M437 566h-63l-63 78l-82 -78h-64l119 113h66zM213 -10q-36 0 -69 11t-57 32t-36 52q-8 21 -8 46q0 13 2 27l50 360h56l-51 -362q-1 -8 -1 -16q0 -17 6 -32q9 -20 26 -34t40.5 -21t49.5 -7q42 0 82 10.5t65 20.5l62 441h56l-68 -487l-59 -17q-35 -10 -73 -17t-73 -7z" />
    <glyph glyph-name="udieresis" unicode="&#xfc;" 
d="M222 663q17 0 27 -12t8 -29t-16 -29t-31 -12t-27 12t-8 29t16 29t31 12zM402 663q17 0 27 -12t8 -29t-16 -29t-31 -12t-27 12t-8 29t16 29t31 12zM213 -10q-36 0 -69 11t-57 32t-36 52q-8 21 -8 46q0 13 2 27l50 360h56l-51 -362q-1 -8 -1 -16q0 -17 6 -32q9 -20 26 -34
t40.5 -21t49.5 -7q42 0 82 10.5t65 20.5l62 441h56l-68 -487l-59 -17q-35 -10 -73 -17t-73 -7z" />
    <glyph glyph-name="yacute" unicode="&#xfd;" horiz-adv-x="536" 
d="M324 566h-58l84 113h80zM222 -9q-38 0 -72.5 11.5t-59.5 33t-38 54.5q-9 22 -9 48q0 13 2 26l49 354h58l-50 -356q-1 -9 -1 -17q0 -19 6 -33q9 -22 27 -36.5t42.5 -22t51.5 -7.5q37 0 74.5 8t76.5 26l61 438h57l-79 -565q-6 -44 -27.5 -76t-52 -53t-67.5 -31.5t-75 -10.5
q-51 0 -97.5 17.5t-73.5 52.5l43 35q20 -26 53 -38t72 -13q28 0 56.5 6.5t51.5 21t39.5 37t20.5 52.5l10 73q-36 -21 -73.5 -28t-75.5 -7z" />
    <glyph glyph-name="thorn" unicode="&#xfe;" horiz-adv-x="517" 
d="M301 528q36 0 69.5 -10.5t58 -31.5t37.5 -52q8 -21 8 -47q0 -12 -2 -26l-29 -203q-6 -41 -27.5 -72.5t-52 -52.5t-67.5 -32t-74 -11t-71 8.5t-66 23.5l-30 -218h-56l127 903h56l-27 -197q72 18 146 18zM232 49q26 0 52 6.5t47.5 20t36.5 34t18 48.5l29 205q1 9 1 17
q0 18 -6 32q-8 20 -25.5 33.5t-41.5 20t-50 6.5q-36 0 -72.5 -2.5t-73.5 -14.5l-54 -377q32 -14 67.5 -21.5t71.5 -7.5z" />
    <glyph glyph-name="ydieresis" unicode="&#xff;" horiz-adv-x="536" 
d="M227 663q17 0 27 -12t8 -29t-16 -29t-31 -12t-27 12t-8 29t16 29t31 12zM407 663q17 0 27 -12t8 -29t-16 -29t-31 -12t-27 12t-8 29t16 29t31 12zM222 -9q-38 0 -72.5 11.5t-59.5 33t-38 54.5q-9 22 -9 48q0 13 2 26l49 354h58l-50 -356q-1 -9 -1 -17q0 -19 6 -33
q9 -22 27 -36.5t42.5 -22t51.5 -7.5q37 0 74.5 8t76.5 26l61 438h57l-79 -565q-6 -44 -27.5 -76t-52 -53t-67.5 -31.5t-75 -10.5q-51 0 -97.5 17.5t-73.5 52.5l43 35q20 -26 53 -38t72 -13q28 0 56.5 6.5t51.5 21t39.5 37t20.5 52.5l10 73q-36 -21 -73.5 -28t-75.5 -7z" />
    <glyph glyph-name="Amacron" unicode="&#x100;" horiz-adv-x="606" 
d="M267 848h230l-8 -49h-230zM559 0h-62l-52 236h-304l-116 -236h-62l353 708h86zM170 295h262l-79 369z" />
    <glyph glyph-name="amacron" unicode="&#x101;" horiz-adv-x="517" 
d="M201 668h230l-8 -49h-230zM195 -10q-35 0 -66.5 10t-55 31t-34.5 53q-7 21 -7 46q0 14 2 30l27 197q7 48 29 81t54.5 53t71.5 28.5t80 8.5q51 0 98 -13t81 -30l-67 -485h-50l-1 52q-28 -27 -72 -44.5t-90 -17.5zM293 472q-30 0 -59.5 -5.5t-54 -19t-41 -35.5t-20.5 -54
l-27 -194q-1 -10 -1 -19q0 -18 5 -33q8 -21 24 -35.5t38.5 -21t47.5 -6.5q22 0 44.5 4t43.5 11.5t39.5 18t31.5 23.5l48 339q-21 11 -52.5 19t-66.5 8z" />
    <glyph glyph-name="Abreve" unicode="&#x102;" horiz-adv-x="606" 
d="M374 754q-55 0 -84 31q-21 22 -21 57q0 12 3 27h47q-2 -8 -2 -16q0 -20 12 -34q17 -19 50 -19t57.5 19t30.5 50h47q-11 -53 -45.5 -84t-94.5 -31zM559 0h-62l-52 236h-304l-116 -236h-62l353 708h86zM170 295h262l-79 369z" />
    <glyph glyph-name="abreve" unicode="&#x103;" horiz-adv-x="517" 
d="M308 574q-55 0 -84 31q-21 22 -21 57q0 12 3 27h47q-2 -8 -2 -16q0 -20 12 -34q17 -19 50 -19t57.5 19t30.5 50h47q-11 -53 -45.5 -84t-94.5 -31zM195 -10q-35 0 -66.5 10t-55 31t-34.5 53q-7 21 -7 46q0 14 2 30l27 197q7 48 29 81t54.5 53t71.5 28.5t80 8.5
q51 0 98 -13t81 -30l-67 -485h-50l-1 52q-28 -27 -72 -44.5t-90 -17.5zM293 472q-30 0 -59.5 -5.5t-54 -19t-41 -35.5t-20.5 -54l-27 -194q-1 -10 -1 -19q0 -18 5 -33q8 -21 24 -35.5t38.5 -21t47.5 -6.5q22 0 44.5 4t43.5 11.5t39.5 18t31.5 23.5l48 339q-21 11 -52.5 19
t-66.5 8z" />
    <glyph glyph-name="Aogonek" unicode="&#x104;" horiz-adv-x="604" 
d="M491 -244q-38 0 -57 24q-17 21 -17 50q0 7 1 13q2 16 10.5 36.5t21.5 41.5t30 41.5t35 37.5h-19l-52 236h-304l-116 -236h-62l353 708h86l157 -708q-45 -45 -66 -85.5t-21 -63.5q0 -17 8.5 -27.5t22.5 -13.5q4 -1 9 -1q10 0 21 4q18 6 36 21l12 -45q-17 -14 -39 -23.5
t-50 -9.5zM352 664l-183 -369h262z" />
    <glyph glyph-name="aogonek" unicode="&#x105;" horiz-adv-x="517" 
d="M321 -149q0 -17 8.5 -27.5t22.5 -13.5q4 -1 9 -1q10 0 21 4q18 6 36 21l12 -45q-17 -14 -39 -23.5t-50 -9.5q-38 0 -57 24q-17 21 -17 50q0 7 1 13q2 16 9 36.5t19 41.5t27.5 41.5t34.5 37.5l-1 52q-28 -27 -72 -44.5t-90 -17.5q-35 0 -66.5 10t-55 31t-34.5 53
q-7 21 -7 46q0 14 2 30l27 197q7 48 29 81t54.5 53t71.5 28.5t80 8.5q51 0 98 -13t81 -30l-67 -485q-45 -45 -66 -85.5t-21 -63.5zM205 49q22 0 44.5 4t43.5 11.5t39.5 18t31.5 23.5l48 339q-21 11 -52.5 19t-66.5 8q-30 0 -59.5 -5.5t-54 -19t-41 -35.5t-20.5 -54l-27 -194
q-1 -10 -1 -19q0 -18 5 -33q8 -21 24 -35.5t38.5 -21t47.5 -6.5z" />
    <glyph glyph-name="Cacute" unicode="&#x106;" horiz-adv-x="590" 
d="M409 756h-58l84 113h80zM381 718q37 0 72.5 -8t65.5 -23.5t52 -39.5t33 -56l-57 -26q-8 23 -25.5 40.5t-41 29.5t-52 18t-58.5 6q-38 0 -76.5 -10t-70 -29.5t-53 -48.5t-26.5 -68l-41 -298q-1 -11 -1 -20q0 -27 10 -49q13 -29 38.5 -48.5t61 -29t73.5 -9.5q30 0 60 6
t57 18t49.5 29.5t37.5 41.5l50 -26q-20 -32 -49.5 -56t-64 -40t-73 -24t-76.5 -8q-49 0 -94.5 13.5t-78.5 40.5t-50 67q-12 27 -12 61q0 16 3 33l41 298q7 53 36 93.5t70 67.5t90.5 40.5t99.5 13.5z" />
    <glyph glyph-name="cacute" unicode="&#x107;" horiz-adv-x="461" 
d="M308 576h-58l84 113h80zM272 472q-26 0 -52 -6.5t-48 -20t-37 -34.5t-19 -49l-28 -203q-1 -9 -1 -17q0 -17 6 -32q9 -21 26.5 -34.5t42 -20t50.5 -6.5q22 0 45 4.5t42.5 13.5t35 23.5t24.5 35.5l48 -23q-14 -29 -36.5 -50t-49.5 -35t-57 -21t-60 -7q-36 0 -70 10.5
t-58.5 31.5t-37.5 52q-8 22 -8 48q0 12 2 26l28 202q6 42 27.5 73.5t52 52.5t67.5 31.5t73 10.5q54 0 99 -22t65 -67l-51 -30q-13 32 -46.5 47.5t-74.5 15.5z" />
    <glyph glyph-name="Cdotaccent" unicode="&#x10a;" horiz-adv-x="590" 
d="M401 856q20 0 32 -14q10 -11 10 -26q0 -4 -1 -8q-2 -20 -18 -34t-36 -14t-32 14q-10 12 -10 28v6q3 20 19 34t36 14zM381 718q37 0 72.5 -8t65.5 -23.5t52 -39.5t33 -56l-57 -26q-8 23 -25.5 40.5t-41 29.5t-52 18t-58.5 6q-38 0 -76.5 -10t-70 -29.5t-53 -48.5
t-26.5 -68l-41 -298q-1 -11 -1 -20q0 -27 10 -49q13 -29 38.5 -48.5t61 -29t73.5 -9.5q30 0 60 6t57 18t49.5 29.5t37.5 41.5l50 -26q-20 -32 -49.5 -56t-64 -40t-73 -24t-76.5 -8q-49 0 -94.5 13.5t-78.5 40.5t-50 67q-12 27 -12 61q0 16 3 33l41 298q7 53 36 93.5t70 67.5
t90.5 40.5t99.5 13.5z" />
    <glyph glyph-name="cdotaccent" unicode="&#x10b;" horiz-adv-x="461" 
d="M300 676q20 0 32 -14q10 -11 10 -26q0 -4 -1 -8q-2 -20 -18 -34t-36 -14t-32 14q-10 12 -10 28v6q3 20 19 34t36 14zM272 472q-26 0 -52 -6.5t-48 -20t-37 -34.5t-19 -49l-28 -203q-1 -9 -1 -17q0 -17 6 -32q9 -21 26.5 -34.5t42 -20t50.5 -6.5q22 0 45 4.5t42.5 13.5
t35 23.5t24.5 35.5l48 -23q-14 -29 -36.5 -50t-49.5 -35t-57 -21t-60 -7q-36 0 -70 10.5t-58.5 31.5t-37.5 52q-8 22 -8 48q0 12 2 26l28 202q6 42 27.5 73.5t52 52.5t67.5 31.5t73 10.5q54 0 99 -22t65 -67l-51 -30q-13 32 -46.5 47.5t-74.5 15.5z" />
    <glyph glyph-name="Ccaron" unicode="&#x10c;" horiz-adv-x="590" 
d="M260 869h66l68 -76l85 76h67l-124 -113h-70zM381 718q37 0 72.5 -8t65.5 -23.5t52 -39.5t33 -56l-57 -26q-8 23 -25.5 40.5t-41 29.5t-52 18t-58.5 6q-38 0 -76.5 -10t-70 -29.5t-53 -48.5t-26.5 -68l-41 -298q-1 -11 -1 -20q0 -27 10 -49q13 -29 38.5 -48.5t61 -29
t73.5 -9.5q30 0 60 6t57 18t49.5 29.5t37.5 41.5l50 -26q-20 -32 -49.5 -56t-64 -40t-73 -24t-76.5 -8q-49 0 -94.5 13.5t-78.5 40.5t-50 67q-12 27 -12 61q0 16 3 33l41 298q7 53 36 93.5t70 67.5t90.5 40.5t99.5 13.5z" />
    <glyph glyph-name="ccaron" unicode="&#x10d;" horiz-adv-x="461" 
d="M159 689h66l68 -76l85 76h67l-124 -113h-70zM272 472q-26 0 -52 -6.5t-48 -20t-37 -34.5t-19 -49l-28 -203q-1 -9 -1 -17q0 -17 6 -32q9 -21 26.5 -34.5t42 -20t50.5 -6.5q22 0 45 4.5t42.5 13.5t35 23.5t24.5 35.5l48 -23q-14 -29 -36.5 -50t-49.5 -35t-57 -21t-60 -7
q-36 0 -70 10.5t-58.5 31.5t-37.5 52q-8 22 -8 48q0 12 2 26l28 202q6 42 27.5 73.5t52 52.5t67.5 31.5t73 10.5q54 0 99 -22t65 -67l-51 -30q-13 32 -46.5 47.5t-74.5 15.5z" />
    <glyph glyph-name="Dcaron" unicode="&#x10e;" horiz-adv-x="640" 
d="M250 869h66l68 -76l85 76h67l-124 -113h-70zM371 708q50 0 96 -12t79.5 -37t50.5 -64q12 -28 12 -63q0 -15 -2 -31l-42 -295q-8 -54 -36 -93t-68.5 -64t-89.5 -37t-99 -12h-236l99 708h236zM280 59q39 0 77 8t69.5 26t53 46t26.5 67l42 295q2 12 2 23q0 25 -10 45
q-14 28 -40.5 46t-62 26t-74.5 8h-177l-83 -590h177z" />
    <glyph glyph-name="dcaron" unicode="&#x10f;" horiz-adv-x="526" 
d="M570 555h-49l39 153h60zM30 132q0 12 2 26l28 201q6 41 27 72.5t52 53t68 32t74 10.5q72 0 136 -31l30 214h56l-95 -685q-51 -17 -102.5 -26t-102.5 -9q-36 1 -69.5 11.5t-58 31.5t-37.5 52q-8 21 -8 47zM272 472q-26 0 -52 -6.5t-48 -20t-36.5 -34.5t-18.5 -49l-28 -206
q-1 -9 -1 -17q0 -18 6 -31q8 -21 25.5 -35t41 -21t49.5 -7q36 0 73.5 3.5t73.5 15.5l53 380q-32 14 -67 21t-71 7z" />
    <glyph glyph-name="Dcroat" unicode="&#x110;" horiz-adv-x="643" 
d="M374 708q50 0 96 -12t79.5 -37t50.5 -64q12 -28 12 -63q0 -15 -2 -31l-42 -295q-8 -54 -36 -93t-68.5 -64t-89.5 -37t-99 -12h-236l45 329h-63l7 47h63l47 332h236zM283 59q39 0 77 8t69.5 26t53 46t26.5 67l42 295q2 12 2 23q0 25 -10 45q-14 28 -40.5 46t-62 26
t-74.5 8h-177l-39 -273h155l-7 -47h-155l-37 -270h177z" />
    <glyph glyph-name="dcroat" unicode="&#x111;" horiz-adv-x="514" 
d="M30 132q0 12 2 26l28 201q6 41 27 72.5t52 53t68 32t74 10.5q72 0 136 -31l14 97h-147l6 43h147l10 74h56l-10 -74h61l-6 -43h-61l-79 -568q-51 -17 -102.5 -26t-102.5 -9q-36 1 -69.5 11.5t-58 31.5t-37.5 52q-8 21 -8 47zM272 472q-26 0 -52 -6.5t-48 -20t-36.5 -34.5
t-18.5 -49l-28 -206q-1 -9 -1 -17q0 -18 6 -31q8 -21 25.5 -35t41 -21t49.5 -7q36 0 73.5 3.5t73.5 15.5l53 380q-32 14 -67 21t-71 7z" />
    <glyph glyph-name="Emacron" unicode="&#x112;" horiz-adv-x="567" 
d="M262 848h230l-8 -49h-230zM148 384h355l-8 -60h-355l-37 -265h385l-8 -59h-444l99 708h444l-8 -59h-385z" />
    <glyph glyph-name="emacron" unicode="&#x113;" horiz-adv-x="484" 
d="M187 668h230l-8 -49h-230zM87 142q0 -19 7 -34q9 -20 27 -33.5t42 -19.5t50 -6q42 0 81.5 16t60.5 51l46 -25q-15 -25 -37 -44t-48 -31.5t-54.5 -19t-56.5 -6.5q-37 0 -71 10.5t-58.5 31.5t-37.5 53q-8 22 -8 48q0 12 2 26l27 195q6 44 28 76.5t53 54.5t68 32.5t74 10.5
t70.5 -10.5t58 -31.5t36.5 -53q8 -21 8 -48q0 -13 -2 -27q-6 -44 -26.5 -75.5t-50 -52t-66 -30.5t-74.5 -11h-8q-33 0 -66 7q-36 7 -66 22l-8 -59q-1 -9 -1 -17zM239 242q18 0 35 2q31 4 56.5 17t43 36.5t23.5 60.5q1 9 1 18q0 19 -6 34q-9 21 -26.5 35t-41.5 20.5t-50 6.5
q-27 0 -53.5 -7.5t-48.5 -23t-37.5 -38.5t-19.5 -54l-12 -79q22 -9 50.5 -16.5t59.5 -9.5q13 -2 26 -2z" />
    <glyph glyph-name="Edotaccent" unicode="&#x116;" horiz-adv-x="567" 
d="M377 856q20 0 32 -14q10 -11 10 -26q0 -4 -1 -8q-2 -20 -18 -34t-36 -14t-32 14q-10 12 -10 28v6q3 20 19 34t36 14zM148 384h355l-8 -60h-355l-37 -265h385l-8 -59h-444l99 708h444l-8 -59h-385z" />
    <glyph glyph-name="edotaccent" unicode="&#x117;" horiz-adv-x="484" 
d="M302 676q20 0 32 -14q10 -11 10 -26q0 -4 -1 -8q-2 -20 -18 -34t-36 -14t-32 14q-10 12 -10 28v6q3 20 19 34t36 14zM87 142q0 -19 7 -34q9 -20 27 -33.5t42 -19.5t50 -6q42 0 81.5 16t60.5 51l46 -25q-15 -25 -37 -44t-48 -31.5t-54.5 -19t-56.5 -6.5q-37 0 -71 10.5
t-58.5 31.5t-37.5 53q-8 22 -8 48q0 12 2 26l27 195q6 44 28 76.5t53 54.5t68 32.5t74 10.5t70.5 -10.5t58 -31.5t36.5 -53q8 -21 8 -48q0 -13 -2 -27q-6 -44 -26.5 -75.5t-50 -52t-66 -30.5t-74.5 -11h-8q-33 0 -66 7q-36 7 -66 22l-8 -59q-1 -9 -1 -17zM239 242q18 0 35 2
q31 4 56.5 17t43 36.5t23.5 60.5q1 9 1 18q0 19 -6 34q-9 21 -26.5 35t-41.5 20.5t-50 6.5q-27 0 -53.5 -7.5t-48.5 -23t-37.5 -38.5t-19.5 -54l-12 -79q22 -9 50.5 -16.5t59.5 -9.5q13 -2 26 -2z" />
    <glyph glyph-name="Eogonek" unicode="&#x118;" horiz-adv-x="566" 
d="M392 -149q0 -17 8.5 -27.5t21.5 -13.5q5 -1 10 -1q10 0 22 4q17 6 35 21l12 -45q-17 -14 -39 -23.5t-50 -9.5q-38 0 -58 24q-16 21 -16 50q0 7 1 13q2 16 10.5 36.5t21.5 41.5t30 41.5t35 37.5h-401l99 708h444l-8 -59h-385l-38 -265h355l-8 -60h-355l-37 -265h385
l-8 -59q-45 -45 -66 -85.5t-21 -63.5z" />
    <glyph glyph-name="eogonek" unicode="&#x119;" horiz-adv-x="484" 
d="M205 -10q-37 0 -71 10.5t-58.5 31.5t-37.5 53q-8 22 -8 48q0 12 2 26l27 195q6 44 28 76.5t53 54.5t68 32.5t74 10.5t70.5 -10.5t58 -31.5t36.5 -53q8 -21 8 -48q0 -13 -2 -27q-6 -44 -26.5 -75.5t-50 -52t-66 -30.5t-74.5 -11h-8q-33 0 -66 7q-36 7 -66 22l-8 -59
q-1 -9 -1 -17q0 -19 7 -34q9 -20 27 -33.5t42 -19.5t50 -6q42 0 81.5 16t60.5 51l46 -25q-7 -12 -14.5 -22.5t-16.5 -20.5t-21 -21.5t-28 -26.5q-47 -43 -67 -84.5t-20 -64.5q0 -17 8.5 -27.5t21.5 -13.5q5 -1 10 -1q10 0 22 4q17 6 35 21l12 -45q-17 -14 -39 -23.5
t-50 -9.5q-38 0 -58 24q-16 21 -16 50q0 7 1 13q4 32 28.5 74.5t61.5 76.5l-3 4q-32 -8 -63 -8zM398 376q0 19 -6 34q-9 21 -26.5 35t-41.5 20.5t-50 6.5q-27 0 -53.5 -7.5t-48.5 -23t-37.5 -38.5t-19.5 -54l-12 -79q22 -9 50.5 -16.5t59.5 -9.5q13 -2 26 -2q18 0 35 2
q31 4 56.5 17t43 36.5t23.5 60.5q1 9 1 18z" />
    <glyph glyph-name="Ecaron" unicode="&#x11a;" horiz-adv-x="567" 
d="M236 869h66l68 -76l85 76h67l-124 -113h-70zM148 384h355l-8 -60h-355l-37 -265h385l-8 -59h-444l99 708h444l-8 -59h-385z" />
    <glyph glyph-name="ecaron" unicode="&#x11b;" horiz-adv-x="484" 
d="M161 689h66l68 -76l85 76h67l-124 -113h-70zM87 142q0 -19 7 -34q9 -20 27 -33.5t42 -19.5t50 -6q42 0 81.5 16t60.5 51l46 -25q-15 -25 -37 -44t-48 -31.5t-54.5 -19t-56.5 -6.5q-37 0 -71 10.5t-58.5 31.5t-37.5 53q-8 22 -8 48q0 12 2 26l27 195q6 44 28 76.5t53 54.5
t68 32.5t74 10.5t70.5 -10.5t58 -31.5t36.5 -53q8 -21 8 -48q0 -13 -2 -27q-6 -44 -26.5 -75.5t-50 -52t-66 -30.5t-74.5 -11h-8q-33 0 -66 7q-36 7 -66 22l-8 -59q-1 -9 -1 -17zM239 242q18 0 35 2q31 4 56.5 17t43 36.5t23.5 60.5q1 9 1 18q0 19 -6 34q-9 21 -26.5 35
t-41.5 20.5t-50 6.5q-27 0 -53.5 -7.5t-48.5 -23t-37.5 -38.5t-19.5 -54l-12 -79q22 -9 50.5 -16.5t59.5 -9.5q13 -2 26 -2z" />
    <glyph glyph-name="Gbreve" unicode="&#x11e;" horiz-adv-x="633" 
d="M391 754q-55 0 -84 31q-21 22 -21 57q0 12 3 27h47q-2 -8 -2 -16q0 -20 12 -34q17 -19 50 -19t57.5 19t30.5 50h47q-11 -53 -45.5 -84t-94.5 -31zM382 718q38 0 73.5 -7.5t65.5 -23t52 -39.5t33 -56l-57 -26q-8 24 -25.5 41.5t-41 29t-52 17t-58.5 5.5q-38 0 -76.5 -10
t-70 -29.5t-53 -48.5t-26.5 -68l-41 -296q-2 -12 -2 -23q0 -25 9 -46q14 -30 40.5 -49.5t62 -29.5t74.5 -10t77.5 10t70.5 29.5t54 49.5t27 69l12 89h-217l8 59h276l-20 -147q-8 -54 -36 -95t-69.5 -68.5t-91 -41t-99.5 -13.5t-95.5 13.5t-79 41t-50.5 68.5q-13 28 -13 62
q0 16 3 33l41 297q7 53 35.5 93t70 66.5t90.5 40t99 13.5z" />
    <glyph glyph-name="gbreve" unicode="&#x11f;" horiz-adv-x="509" 
d="M307 575q-55 0 -84 31q-21 22 -21 57q0 12 3 27h47q-2 -8 -2 -16q0 -20 12 -34q17 -19 50 -19t57.5 19t30.5 50h47q-11 -53 -45.5 -84t-94.5 -31zM175 -168q28 0 54.5 7t48.5 20.5t37 34.5t20 50l12 77q-35 -17 -71 -24t-72 -7q-37 0 -70.5 10.5t-58 31.5t-37.5 52
q-8 22 -8 47q0 13 2 26l28 205q6 41 27 72t50.5 52t65.5 31.5t72 10.5q35 0 88 -10t104 -33l-77 -540q-6 -42 -26.5 -73t-50 -51t-66 -29.5t-74.5 -9.5q-50 0 -93 17t-68 49l43 35q16 -25 49 -38t71 -13zM269 474q-26 0 -51.5 -7t-46.5 -21t-36 -34.5t-18 -48.5l-29 -205
q-2 -11 -2 -21q0 -15 4 -27q8 -22 24.5 -37t40.5 -22.5t53 -7.5q35 1 72.5 9t73.5 25l53 371q-22 10 -59 18t-79 8z" />
    <glyph glyph-name="Gdotaccent" unicode="&#x120;" horiz-adv-x="633" 
d="M399 856q20 0 32 -14q10 -11 10 -26q0 -4 -1 -8q-2 -20 -18 -34t-36 -14t-32 14q-10 12 -10 28v6q3 20 19 34t36 14zM382 718q38 0 73.5 -7.5t65.5 -23t52 -39.5t33 -56l-57 -26q-8 24 -25.5 41.5t-41 29t-52 17t-58.5 5.5q-38 0 -76.5 -10t-70 -29.5t-53 -48.5
t-26.5 -68l-41 -296q-2 -12 -2 -23q0 -25 9 -46q14 -30 40.5 -49.5t62 -29.5t74.5 -10t77.5 10t70.5 29.5t54 49.5t27 69l12 89h-217l8 59h276l-20 -147q-8 -54 -36 -95t-69.5 -68.5t-91 -41t-99.5 -13.5t-95.5 13.5t-79 41t-50.5 68.5q-13 28 -13 62q0 16 3 33l41 297
q7 53 35.5 93t70 66.5t90.5 40t99 13.5z" />
    <glyph glyph-name="gdotaccent" unicode="&#x121;" horiz-adv-x="509" 
d="M315 677q20 0 32 -14q10 -11 10 -26q0 -4 -1 -8q-2 -20 -18 -34t-36 -14t-32 14q-10 12 -10 28v6q3 20 19 34t36 14zM175 -168q28 0 54.5 7t48.5 20.5t37 34.5t20 50l12 77q-35 -17 -71 -24t-72 -7q-37 0 -70.5 10.5t-58 31.5t-37.5 52q-8 22 -8 47q0 13 2 26l28 205
q6 41 27 72t50.5 52t65.5 31.5t72 10.5q35 0 88 -10t104 -33l-77 -540q-6 -42 -26.5 -73t-50 -51t-66 -29.5t-74.5 -9.5q-50 0 -93 17t-68 49l43 35q16 -25 49 -38t71 -13zM269 474q-26 0 -51.5 -7t-46.5 -21t-36 -34.5t-18 -48.5l-29 -205q-2 -11 -2 -21q0 -15 4 -27
q8 -22 24.5 -37t40.5 -22.5t53 -7.5q35 1 72.5 9t73.5 25l53 371q-22 10 -59 18t-79 8z" />
    <glyph glyph-name="Gcommaaccent" unicode="&#x122;" horiz-adv-x="633" 
d="M230 -244h-49l60 166h60zM382 718q38 0 73.5 -7.5t65.5 -23t52 -39.5t33 -56l-57 -26q-8 24 -25.5 41.5t-41 29t-52 17t-58.5 5.5q-38 0 -76.5 -10t-70 -29.5t-53 -48.5t-26.5 -68l-41 -296q-2 -12 -2 -23q0 -25 9 -46q14 -30 40.5 -49.5t62 -29.5t74.5 -10t77.5 10
t70.5 29.5t54 49.5t27 69l12 89h-217l8 59h276l-20 -147q-8 -54 -36 -95t-69.5 -68.5t-91 -41t-99.5 -13.5t-95.5 13.5t-79 41t-50.5 68.5q-13 28 -13 62q0 16 3 33l41 297q7 53 35.5 93t70 66.5t90.5 40t99 13.5z" />
    <glyph glyph-name="gcommaaccent" unicode="&#x123;" horiz-adv-x="509" 
d="M321 679h49l-42 -115h-60zM175 -168q28 0 54.5 7t48.5 20.5t37 34.5t20 50l12 77q-35 -17 -71 -24t-72 -7q-37 0 -70.5 10.5t-58 31.5t-37.5 52q-8 22 -8 47q0 13 2 26l28 205q6 41 27 72t50.5 52t65.5 31.5t72 10.5q35 0 88 -10t104 -33l-77 -540q-6 -42 -26.5 -73
t-50 -51t-66 -29.5t-74.5 -9.5q-50 0 -93 17t-68 49l43 35q16 -25 49 -38t71 -13zM269 474q-26 0 -51.5 -7t-46.5 -21t-36 -34.5t-18 -48.5l-29 -205q-2 -11 -2 -21q0 -15 4 -27q8 -22 24.5 -37t40.5 -22.5t53 -7.5q35 1 72.5 9t73.5 25l53 371q-22 10 -59 18t-79 8z" />
    <glyph glyph-name="Hbar" unicode="&#x126;" horiz-adv-x="698" 
d="M644 524l-73 -524h-59l45 324h-413l-45 -324h-59l73 524h-65l7 47h65l19 137h59l-19 -137h413l19 137h59l-19 -137h70l-7 -47h-70zM172 524l-20 -141h413l20 141h-413z" />
    <glyph glyph-name="hbar" unicode="&#x127;" horiz-adv-x="525" 
d="M300 528q34 0 65 -10q34 -11 58.5 -32t36.5 -52q9 -22 9 -47q0 -13 -2 -26l-49 -361h-56l49 361v1q1 8 1 16q0 18 -6 32q-10 21 -27.5 34.5t-41.5 20.5t-50 7q-72 0 -145 -28l-60 -444h-56l83 594h-59l6 40h59l10 74h56l-11 -74h140l-6 -40h-140l-14 -97q71 31 144 31h6z
" />
    <glyph glyph-name="Imacron" unicode="&#x12a;" horiz-adv-x="216" 
d="M83 849h204l-8 -51h-204zM95 0h-59l99 708h59z" />
    <glyph glyph-name="imacron" unicode="&#x12b;" horiz-adv-x="194" 
d="M45 659h204l-8 -53h-204zM155 518l-73 -518h-56l73 518h56z" />
    <glyph glyph-name="Iogonek" unicode="&#x12e;" horiz-adv-x="216" 
d="M9 -149q0 -17 8.5 -27.5t21.5 -13.5q5 -1 10 -1q10 0 22 4q17 6 35 21l12 -45q-17 -14 -39 -23.5t-50 -9.5q-38 0 -58 24q-16 21 -16 50q0 7 1 13q2 16 10.5 36.5t21.5 41.5t30 41.5t35 37.5h-16l99 708h59l-99 -708q-45 -45 -66 -85.5t-21 -63.5z" />
    <glyph glyph-name="iogonek" unicode="&#x12f;" horiz-adv-x="194" 
d="M-4 -149q0 -17 8.5 -27.5t22.5 -13.5q4 -1 9 -1q10 0 21 4q18 6 36 21l12 -45q-17 -14 -39 -23.5t-50 -9.5q-38 0 -57 24q-17 21 -17 50q0 7 1 13q2 16 10.5 36.5t21.5 41.5t30 41.5t35 37.5h-13l73 518h56l-73 -518q-45 -45 -66 -85.5t-21 -63.5zM150 690q20 0 32 -14
q10 -11 10 -26q0 -4 -1 -8q-2 -20 -18 -34t-36 -14t-32 14q-10 12 -10 28v6q3 20 19 34t36 14z" />
    <glyph glyph-name="Idotaccent" unicode="&#x130;" horiz-adv-x="216" 
d="M185 856q20 0 32 -14q10 -11 10 -26q0 -4 -1 -8q-2 -20 -18 -34t-36 -14t-32 14q-10 12 -10 28v6q3 20 19 34t36 14zM95 0h-59l99 708h59z" />
    <glyph glyph-name="dotlessi" unicode="&#x131;" horiz-adv-x="194" 
d="M155 518l-73 -518h-56l73 518h56z" />
    <glyph glyph-name="IJ" unicode="&#x132;" horiz-adv-x="806" 
d="M440 -10q-42 0 -82.5 10.5t-72.5 32.5t-52 54.5t-22 76.5l55 10q2 -35 17.5 -59t40.5 -39.5t56 -22.5t64 -7q36 0 72 10t66 29.5t50.5 49.5t26.5 69l63 445h-236l8 59h295l-71 -504q-8 -53 -34.5 -93t-64.5 -67t-84.5 -40.5t-94.5 -13.5zM95 0h-59l99 708h59z" />
    <glyph glyph-name="ij" unicode="&#x133;" horiz-adv-x="388" 
d="M89 -136q53 0 86.5 30t41.5 84l76 540h56l-76 -540q-11 -79 -63 -124.5t-128 -45.5zM345 690q20 0 32 -14q10 -11 10 -26q0 -4 -1 -8q-2 -20 -18 -34t-36 -14t-32 14q-10 12 -10 28v6q3 20 19 34t36 14zM149 690q20 0 32 -14q10 -11 10 -26q0 -4 -1 -8q-2 -20 -18 -34
t-36 -14t-32 14q-10 12 -10 28v6q3 20 19 34t36 14zM155 518l-73 -518h-56l73 518h56z" />
    <glyph glyph-name="Kcommaaccent" unicode="&#x136;" horiz-adv-x="614" 
d="M238 -244h-49l60 166h60zM139 319l451 389h76l-389 -341l288 -367h-76l-260 325l-101 -89l-33 -236h-59l99 708h59z" />
    <glyph glyph-name="kcommaaccent" unicode="&#x137;" horiz-adv-x="483" 
d="M158 -244h-49l60 166h60zM116 246l311 272h70l-265 -234l191 -284h-69l-166 244l-82 -72l-24 -172h-56l99 708h56z" />
    <glyph glyph-name="Lacute" unicode="&#x139;" horiz-adv-x="503" 
d="M193 756h-58l84 113h80zM36 0l99 708h59l-91 -649h354l-8 -59h-413z" />
    <glyph glyph-name="lacute" unicode="&#x13a;" horiz-adv-x="228" 
d="M177 756h-58l84 113h80zM42 119q0 16 3 35l76 555h56l-76 -555q-2 -13 -2 -25q0 -34 15 -55q21 -28 74 -28l-8 -56q-76 0 -111 43q-27 33 -27 86z" />
    <glyph glyph-name="Lcommaaccent" unicode="&#x13b;" horiz-adv-x="503" 
d="M205 -244h-49l60 166h60zM36 0l99 708h59l-91 -649h354l-8 -59h-413z" />
    <glyph glyph-name="lcommaaccent" unicode="&#x13c;" horiz-adv-x="228" 
d="M70 -244h-49l60 166h60zM42 119q0 16 3 35l76 555h56l-76 -555q-2 -13 -2 -25q0 -34 15 -55q21 -28 74 -28l-8 -56q-76 0 -111 43q-27 33 -27 86z" />
    <glyph glyph-name="Lcaron" unicode="&#x13d;" horiz-adv-x="503" 
d="M407 548h-49l60 166h60zM36 0l99 708h59l-91 -649h354l-8 -59h-413z" />
    <glyph glyph-name="lcaron" unicode="&#x13e;" horiz-adv-x="239" 
d="M249 552h-46l40 156h57zM42 119q0 16 3 35l76 555h56l-76 -555q-2 -13 -2 -25q0 -34 15 -55q21 -28 74 -28l-8 -56q-76 0 -111 43q-27 33 -27 86z" />
    <glyph glyph-name="Ldot" unicode="&#x13f;" horiz-adv-x="506" 
d="M326 403q20 0 32 -14q10 -11 10 -26q0 -4 -1 -8q-2 -20 -18 -34t-36 -14t-32 14q-10 12 -10 28v6q3 20 19 34t36 14zM36 0l99 708h59l-91 -649h354l-8 -59h-413z" />
    <glyph glyph-name="ldot" unicode="&#x140;" horiz-adv-x="247" 
d="M228 370q20 0 32 -14q10 -11 10 -26q0 -4 -1 -8q-2 -20 -18 -34t-36 -14t-32 14q-10 12 -10 28v6q3 20 19 34t36 14zM42 119q0 16 3 35l76 555h56l-76 -555q-2 -13 -2 -25q0 -34 15 -55q21 -28 74 -28l-8 -56q-76 0 -111 43q-27 33 -27 86z" />
    <glyph glyph-name="Lslash" unicode="&#x141;" horiz-adv-x="515" 
d="M461 0h-413l38 275l-75 -26l-14 39l96 33l54 387h59l-51 -365l133 46l14 -39l-154 -53l-33 -238h354z" />
    <glyph glyph-name="lslash" unicode="&#x142;" horiz-adv-x="244" 
d="M106 129q0 -34 16 -55q20 -28 73 -28l-8 -56q-76 0 -111 43q-27 33 -27 86q0 16 3 35l17 127l-54 -24l-14 38l75 33l52 381h56l-49 -355l90 39l13 -39l-109 -47l-21 -153q-2 -13 -2 -25z" />
    <glyph glyph-name="Nacute" unicode="&#x143;" horiz-adv-x="688" 
d="M429 756h-58l84 113h80zM517 65l90 643h59l-99 -708h-88l-298 617l-86 -617h-59l99 708h72z" />
    <glyph glyph-name="nacute" unicode="&#x144;" 
d="M324 576h-58l84 113h80zM467 387q0 -12 -2 -26l-50 -361h-56l50 361q1 9 1 17q0 17 -6 32q-9 21 -26.5 35t-41 20.5t-48.5 6.5q-42 0 -82 -10t-65 -20l-61 -442h-56l68 487q51 17 102 29t102 12q36 -1 69 -11.5t57 -31t36 -51.5q9 -21 9 -47z" />
    <glyph glyph-name="Ncommaaccent" unicode="&#x145;" horiz-adv-x="688" 
d="M239 -244h-49l60 166h60zM517 65l90 643h59l-99 -708h-88l-298 617l-86 -617h-59l99 708h72z" />
    <glyph glyph-name="ncommaaccent" unicode="&#x146;" 
d="M182 -244h-49l60 166h60zM467 387q0 -12 -2 -26l-50 -361h-56l50 361q1 9 1 17q0 17 -6 32q-9 21 -26.5 35t-41 20.5t-48.5 6.5q-42 0 -82 -10t-65 -20l-61 -442h-56l68 487q51 17 102 29t102 12q36 -1 69 -11.5t57 -31t36 -51.5q9 -21 9 -47z" />
    <glyph glyph-name="Ncaron" unicode="&#x147;" horiz-adv-x="688" 
d="M290 869h66l68 -76l85 76h67l-124 -113h-70zM517 65l90 643h59l-99 -708h-88l-298 617l-86 -617h-59l99 708h72z" />
    <glyph glyph-name="ncaron" unicode="&#x148;" 
d="M175 689h66l68 -76l85 76h67l-124 -113h-70zM467 387q0 -12 -2 -26l-50 -361h-56l50 361q1 9 1 17q0 17 -6 32q-9 21 -26.5 35t-41 20.5t-48.5 6.5q-42 0 -82 -10t-65 -20l-61 -442h-56l68 487q51 17 102 29t102 12q36 -1 69 -11.5t57 -31t36 -51.5q9 -21 9 -47z" />
    <glyph glyph-name="Eng" unicode="&#x14a;" horiz-adv-x="677" 
d="M378 -193q-8 0 -16 1l7 56q8 -1 15 -1q47 0 74 29q31 32 39 86l3 22h-12l-305 621l-89 -621h-59l99 708h72l303 -618l87 618h59l-102 -730q-5 -39 -20.5 -71.5t-40 -55.5t-57.5 -35q-26 -9 -57 -9z" />
    <glyph glyph-name="eng" unicode="&#x14b;" horiz-adv-x="521" 
d="M465 387q0 -12 -2 -26l-54 -383q-11 -78 -63 -124t-128 -46l7 56q53 0 86.5 30t41.5 84l54 383q1 9 1 17q0 17 -6 32q-9 21 -26.5 35t-41 20.5t-48.5 6.5q-42 0 -82 -10t-65 -20l-61 -442h-56l68 487q51 17 102 29t102 12q36 -1 69 -11.5t57 -31t36 -51.5q9 -21 9 -47z
" />
    <glyph glyph-name="Omacron" unicode="&#x14c;" horiz-adv-x="675" 
d="M301 848h230l-8 -49h-230zM396 718q53 0 101.5 -13.5t84 -41t53.5 -68.5q13 -30 13 -66q0 -14 -2 -29l-41 -292q-8 -54 -37.5 -95t-73 -68.5t-96 -41t-104.5 -13.5q-53 0 -101 13.5t-84 41t-55 68.5q-12 29 -12 64q0 15 2 31l41 292q7 54 37 95t73.5 68.5t95.5 41
t105 13.5zM101 186q0 -26 11 -48q15 -29 43.5 -49t66.5 -30t80 -10q41 0 82.5 10t75.5 30t57 49.5t29 69.5l41 292q2 12 2 23q0 28 -11 49q-15 30 -44 49.5t-67.5 28.5t-80.5 9q-41 0 -82 -9.5t-74.5 -29t-56.5 -49.5t-29 -71l-41 -292q-2 -11 -2 -22z" />
    <glyph glyph-name="omacron" unicode="&#x14d;" horiz-adv-x="497" 
d="M185 668h230l-8 -49h-230zM280 528q37 0 70.5 -10.5t58.5 -31.5t37 -53q9 -22 9 -48q0 -12 -2 -26l-29 -201q-6 -42 -27.5 -73.5t-52 -52.5t-67 -31.5t-73.5 -10.5t-71 10.5t-58.5 31.5t-36.5 52q-9 22 -9 48q0 12 2 26l29 201q6 42 27 74t52 53t67.5 31.5t73.5 10.5z
M272 472q-26 0 -52 -6.5t-47.5 -20t-37 -34.5t-19.5 -51l-29 -198q-1 -9 -1 -17q0 -19 6 -34q10 -21 28 -35t42 -20.5t50 -6.5q25 0 51 6.5t48 20.5t37.5 35t19.5 51l29 198q1 9 1 17q0 19 -6 34q-10 21 -28 34.5t-42.5 20t-49.5 6.5z" />
    <glyph glyph-name="Ohungarumlaut" unicode="&#x150;" horiz-adv-x="675" 
d="M351 756h-50l56 113h80zM497 756h-50l56 113h80zM396 718q53 0 101.5 -13.5t84 -41t53.5 -68.5q13 -30 13 -66q0 -14 -2 -29l-41 -292q-8 -54 -37.5 -95t-73 -68.5t-96 -41t-104.5 -13.5q-53 0 -101 13.5t-84 41t-55 68.5q-12 29 -12 64q0 15 2 31l41 292q7 54 37 95
t73.5 68.5t95.5 41t105 13.5zM101 186q0 -26 11 -48q15 -29 43.5 -49t66.5 -30t80 -10q41 0 82.5 10t75.5 30t57 49.5t29 69.5l41 292q2 12 2 23q0 28 -11 49q-15 30 -44 49.5t-67.5 28.5t-80.5 9q-41 0 -82 -9.5t-74.5 -29t-56.5 -49.5t-29 -71l-41 -292q-2 -11 -2 -22z
" />
    <glyph glyph-name="ohungarumlaut" unicode="&#x151;" horiz-adv-x="497" 
d="M235 576h-50l56 113h80zM381 576h-50l56 113h80zM280 528q37 0 70.5 -10.5t58.5 -31.5t37 -53q9 -22 9 -48q0 -12 -2 -26l-29 -201q-6 -42 -27.5 -73.5t-52 -52.5t-67 -31.5t-73.5 -10.5t-71 10.5t-58.5 31.5t-36.5 52q-9 22 -9 48q0 12 2 26l29 201q6 42 27 74t52 53
t67.5 31.5t73.5 10.5zM272 472q-26 0 -52 -6.5t-47.5 -20t-37 -34.5t-19.5 -51l-29 -198q-1 -9 -1 -17q0 -19 6 -34q10 -21 28 -35t42 -20.5t50 -6.5q25 0 51 6.5t48 20.5t37.5 35t19.5 51l29 198q1 9 1 17q0 19 -6 34q-10 21 -28 34.5t-42.5 20t-49.5 6.5z" />
    <glyph glyph-name="OE" unicode="&#x152;" horiz-adv-x="922" 
d="M298 -10h-12q-52 1 -99 15t-81.5 41t-52.5 68q-12 28 -12 62q0 15 2 31l42 294q8 54 37.5 94.5t72 68t94.5 41t104 13.5q36 0 72 -6.5t63 -26.5l3 23h403l-8 -59h-344l-38 -267h313l-8 -59h-313l-37 -264h344l-9 -60h-403l3 17q-35 -17 -73 -22q-32 -4 -63 -4zM395 659
h-9q-41 0 -82 -9t-74.5 -28.5t-56.5 -49.5t-29 -71l-42 -294q-2 -11 -2 -22q0 -26 11 -47q15 -30 43 -49.5t66.5 -29.5t79.5 -10q37 0 73.5 6.5t68.5 22.5l78 553q-27 15 -62 22q-31 6 -63 6z" />
    <glyph glyph-name="oe" unicode="&#x153;" horiz-adv-x="821" 
d="M281 532q25 0 50 -6t46.5 -17t37.5 -27t24 -36q26 33 64 52.5t79 25.5q18 3 36 3q23 0 45 -5q40 -7 70.5 -28t46.5 -55q12 -25 12 -56q0 -12 -2 -25q-6 -44 -26.5 -75.5t-50 -52t-66 -30.5t-73.5 -11h-9q-33 0 -65 7q-37 7 -67 22l-8 -60l-1 -5q-1 -6 -1 -12q0 -21 8 -36
q10 -20 28 -33t42 -19t49 -6q42 0 81.5 17t60.5 52l46 -25q-15 -25 -37 -44t-48 -31.5t-54.5 -18.5t-56.5 -6q-25 0 -49 5t-45 15.5t-37.5 27t-25.5 39.5q-15 -26 -35.5 -42.5t-44.5 -27t-49.5 -15t-50.5 -4.5q-37 0 -71 10.5t-58.5 31.5t-37.5 53q-8 22 -8 48q0 12 2 26
l29 205q6 42 27 73.5t52 52.5t67.5 32t73.5 11zM576 242q18 0 36 2q30 4 55.5 17t43 36.5t23.5 60.5q2 10 2 20q0 27 -13 47q-17 27 -47 41q-28 13 -63 13q-1 0 -3 -1q-36 0 -69.5 -13.5t-58 -41t-30.5 -68.5l-12 -85q22 -9 50.5 -16.5t59.5 -9.5q13 -2 26 -2zM273 475
q-26 0 -52 -6.5t-47.5 -20t-37 -34.5t-19.5 -51l-29 -205q-1 -9 -1 -17q0 -19 7 -34q9 -21 27 -35t42 -20.5t50 -6.5q25 0 51 6.5t48 20.5t37.5 35t19.5 51l29 205q1 9 1 17q0 19 -7 34q-9 21 -27 34.5t-42.5 20t-49.5 6.5z" />
    <glyph glyph-name="Racute" unicode="&#x154;" horiz-adv-x="614" 
d="M382 756h-58l84 113h80zM402 708q50 0 91 -11.5t69.5 -36.5t41.5 -64q8 -25 8 -57q0 -18 -2 -37q-8 -55 -32.5 -93.5t-60 -62.5t-79.5 -35t-92 -11h-2l195 -300h-71l-196 300h-135l-42 -300h-59l99 708h267zM353 354q41 0 74.5 7.5t59 24.5t42 45.5t22.5 70.5q2 17 2 31
q0 22 -5 39q-9 28 -30 45t-52.5 24.5t-70.5 7.5h-209l-42 -295h209z" />
    <glyph glyph-name="racute" unicode="&#x155;" horiz-adv-x="303" 
d="M253 576h-58l84 113h80zM282 528q9 0 18.5 -0.5t19.5 -1.5l-8 -56q-17 3 -33 3q-21 0 -45.5 -5.5t-46.5 -19t-38.5 -35t-20.5 -52.5l-49 -361h-56l49 361q6 45 28.5 76.5t53 51.5t64.5 29.5t64 9.5z" />
    <glyph glyph-name="Rcommaaccent" unicode="&#x156;" horiz-adv-x="614" 
d="M225 -244h-49l60 166h60zM402 708q50 0 91 -11.5t69.5 -36.5t41.5 -64q8 -25 8 -57q0 -18 -2 -37q-8 -55 -32.5 -93.5t-60 -62.5t-79.5 -35t-92 -11h-2l195 -300h-71l-196 300h-135l-42 -300h-59l99 708h267zM353 354q41 0 74.5 7.5t59 24.5t42 45.5t22.5 70.5q2 17 2 31
q0 22 -5 39q-9 28 -30 45t-52.5 24.5t-70.5 7.5h-209l-42 -295h209z" />
    <glyph glyph-name="rcommaaccent" unicode="&#x157;" horiz-adv-x="303" 
d="M13 -244h-49l60 166h60zM282 528q9 0 18.5 -0.5t19.5 -1.5l-8 -56q-17 3 -33 3q-21 0 -45.5 -5.5t-46.5 -19t-38.5 -35t-20.5 -52.5l-49 -361h-56l49 361q6 45 28.5 76.5t53 51.5t64.5 29.5t64 9.5z" />
    <glyph glyph-name="Rcaron" unicode="&#x158;" horiz-adv-x="614" 
d="M233 869h66l68 -76l85 76h67l-124 -113h-70zM402 708q50 0 91 -11.5t69.5 -36.5t41.5 -64q8 -25 8 -57q0 -18 -2 -37q-8 -55 -32.5 -93.5t-60 -62.5t-79.5 -35t-92 -11h-2l195 -300h-71l-196 300h-135l-42 -300h-59l99 708h267zM353 354q41 0 74.5 7.5t59 24.5t42 45.5
t22.5 70.5q2 17 2 31q0 22 -5 39q-9 28 -30 45t-52.5 24.5t-70.5 7.5h-209l-42 -295h209z" />
    <glyph glyph-name="rcaron" unicode="&#x159;" horiz-adv-x="303" 
d="M104 689h66l68 -76l85 76h67l-124 -113h-70zM282 528q9 0 18.5 -0.5t19.5 -1.5l-8 -56q-17 3 -33 3q-21 0 -45.5 -5.5t-46.5 -19t-38.5 -35t-20.5 -52.5l-49 -361h-56l49 361q6 45 28.5 76.5t53 51.5t64.5 29.5t64 9.5z" />
    <glyph glyph-name="Sacute" unicode="&#x15a;" horiz-adv-x="587" 
d="M379 756h-58l84 113h80zM135 507q0 -19 7 -33q11 -23 35.5 -38t59 -24t72.5 -16q45 -9 88.5 -22.5t76 -38.5t48.5 -65q8 -22 8 -51q0 -22 -5 -49q-9 -47 -36.5 -81t-65.5 -56t-84 -32.5t-92 -10.5q-40 0 -78 8.5t-70 26t-55 43t-33 59.5l56 24h1q7 -26 25.5 -45t44 -31.5
t56.5 -19t63 -6.5q35 0 69.5 7.5t63.5 23.5t49.5 40.5t28.5 57.5q5 20 5 37q0 20 -7 35q-12 28 -38 45.5t-63 27.5t-77 19q-42 9 -84 20t-72.5 32t-45.5 55q-10 21 -10 49q0 18 4 40q8 45 34.5 78.5t63.5 56t82 34t91 11.5q39 0 76.5 -8.5t68.5 -25t53.5 -41.5t32.5 -58
l-56 -24q-8 25 -26 43.5t-42.5 30.5t-54.5 18t-61 6q-34 0 -67.5 -7.5t-61.5 -23t-48 -38.5t-27 -54q-3 -16 -3 -29z" />
    <glyph glyph-name="sacute" unicode="&#x15b;" horiz-adv-x="440" 
d="M283 576h-58l84 113h80zM197 49q21 0 42.5 4.5t39.5 15t31 27.5t16 42q1 8 1 15q0 16 -6 28q-9 17 -24.5 28t-36 16.5t-39.5 9.5q-31 6 -62 14.5t-54.5 24.5t-36.5 42q-9 17 -9 41q0 11 2 24q6 39 26.5 67t50 46t63 26t64.5 8q40 0 77 -13t61 -39l-42 -42
q-19 23 -45.5 30.5t-57.5 7.5q-20 0 -43 -4t-44 -14.5t-36 -28t-19 -44.5q-1 -5 -1 -10q0 -19 9 -33q12 -16 30.5 -26t41.5 -15t42 -9q30 -6 58 -16t48.5 -27t31.5 -43q8 -18 8 -41q0 -11 -2 -23q-5 -37 -23.5 -65t-45 -46.5t-58.5 -27.5t-65 -9q-62 0 -110.5 26.5
t-74.5 80.5l46 27q24 -40 62.5 -57.5t83.5 -17.5z" />
    <glyph glyph-name="Scedilla" unicode="&#x15e;" horiz-adv-x="587" 
d="M530 219q0 -22 -5 -49q-9 -45 -34 -78t-60.5 -55t-78 -33.5t-86.5 -13.5l-26 -59q17 0 32.5 -5.5t26 -16t15.5 -27.5q3 -10 3 -22q0 -7 -1 -15q-4 -24 -16.5 -41t-30 -27.5t-37.5 -15.5t-39 -5q-46 0 -86 20l18 37q17 -9 33 -13t37 -4q25 0 47 13t27 40q3 18 -3.5 28.5
t-17.5 15t-24 3.5t-24 -6l-12 13l41 87q-38 2 -73 11.5t-64.5 26.5t-50.5 42t-30 57l56 24h1q7 -26 25.5 -45t44 -31.5t56.5 -19t63 -6.5q35 0 69.5 7.5t63.5 23.5t49.5 40.5t28.5 57.5q5 20 5 37q0 20 -7 35q-12 28 -38 45.5t-63 27.5t-77 19q-42 9 -84 20t-72.5 32
t-45.5 55q-10 21 -10 49q0 18 4 40q8 45 34.5 78.5t63.5 56t82 34t91 11.5q39 0 76.5 -8.5t68.5 -25t53.5 -41.5t32.5 -58l-56 -24q-8 25 -26 43.5t-42.5 30.5t-54.5 18t-61 6q-34 0 -67.5 -7.5t-61.5 -23t-48 -38.5t-27 -54q-3 -16 -3 -29q0 -19 7 -33q11 -23 35.5 -38
t59 -24t72.5 -16q45 -9 88.5 -22.5t76 -38.5t48.5 -65q8 -22 8 -51z" />
    <glyph glyph-name="scedilla" unicode="&#x15f;" horiz-adv-x="440" 
d="M384 161q0 -11 -2 -23q-5 -35 -21 -61t-40 -44.5t-53 -29t-59 -12.5l-26 -60q17 0 32.5 -5.5t26 -16t15.5 -27.5q3 -10 3 -22q0 -7 -1 -15q-4 -24 -16.5 -41t-30 -27.5t-37.5 -15.5t-39 -5q-46 0 -86 20l18 37q17 -9 33 -13t37 -4q25 0 47 13t27 40q3 18 -3.5 28.5
t-17.5 15t-24 3.5t-24 -6l-12 13l41 88q-56 4 -99.5 29.5t-67.5 76.5l46 27q24 -40 62.5 -57.5t83.5 -17.5q21 0 42.5 4.5t39.5 15t31 27.5t16 42q1 8 1 15q0 16 -6 28q-9 17 -24.5 28t-36 16.5t-39.5 9.5q-31 6 -62 14.5t-54.5 24.5t-36.5 42q-9 17 -9 41q0 11 2 24
q6 39 26.5 67t50 46t63 26t64.5 8q40 0 77 -13t61 -39l-42 -42q-19 23 -45.5 30.5t-57.5 7.5q-20 0 -43 -4t-44 -14.5t-36 -28t-19 -44.5q-1 -5 -1 -10q0 -19 9 -33q12 -16 30.5 -26t41.5 -15t42 -9q30 -6 58 -16t48.5 -27t31.5 -43q8 -18 8 -41z" />
    <glyph glyph-name="Scaron" unicode="&#x160;" horiz-adv-x="587" 
d="M230 869h66l68 -76l85 76h67l-124 -113h-70zM135 507q0 -19 7 -33q11 -23 35.5 -38t59 -24t72.5 -16q45 -9 88.5 -22.5t76 -38.5t48.5 -65q8 -22 8 -51q0 -22 -5 -49q-9 -47 -36.5 -81t-65.5 -56t-84 -32.5t-92 -10.5q-40 0 -78 8.5t-70 26t-55 43t-33 59.5l56 24h1
q7 -26 25.5 -45t44 -31.5t56.5 -19t63 -6.5q35 0 69.5 7.5t63.5 23.5t49.5 40.5t28.5 57.5q5 20 5 37q0 20 -7 35q-12 28 -38 45.5t-63 27.5t-77 19q-42 9 -84 20t-72.5 32t-45.5 55q-10 21 -10 49q0 18 4 40q8 45 34.5 78.5t63.5 56t82 34t91 11.5q39 0 76.5 -8.5t68.5 -25
t53.5 -41.5t32.5 -58l-56 -24q-8 25 -26 43.5t-42.5 30.5t-54.5 18t-61 6q-34 0 -67.5 -7.5t-61.5 -23t-48 -38.5t-27 -54q-3 -16 -3 -29z" />
    <glyph glyph-name="scaron" unicode="&#x161;" horiz-adv-x="440" 
d="M132 684h66l68 -76l85 76h67l-124 -113h-70zM197 49q21 0 42.5 4.5t39.5 15t31 27.5t16 42q1 8 1 15q0 16 -6 28q-9 17 -24.5 28t-36 16.5t-39.5 9.5q-31 6 -62 14.5t-54.5 24.5t-36.5 42q-9 17 -9 41q0 11 2 24q6 39 26.5 67t50 46t63 26t64.5 8q40 0 77 -13t61 -39
l-42 -42q-19 23 -45.5 30.5t-57.5 7.5q-20 0 -43 -4t-44 -14.5t-36 -28t-19 -44.5q-1 -5 -1 -10q0 -19 9 -33q12 -16 30.5 -26t41.5 -15t42 -9q30 -6 58 -16t48.5 -27t31.5 -43q8 -18 8 -41q0 -11 -2 -23q-5 -37 -23.5 -65t-45 -46.5t-58.5 -27.5t-65 -9q-62 0 -110.5 26.5
t-74.5 80.5l46 27q24 -40 62.5 -57.5t83.5 -17.5z" />
    <glyph glyph-name="Tcommaaccent" unicode="&#x162;" horiz-adv-x="557" 
d="M190 -244h-49l60 166h60zM62 0zM593 649h-236l-91 -649h-59l91 649h-236l8 59h531z" />
    <glyph glyph-name="tcommaaccent" unicode="&#x163;" horiz-adv-x="261" 
d="M177 -10q-33 0 -60 11.5t-45 32.5t-25.5 51.5t-2.5 69.5l69 482h48l-10 -119h112l-7 -45h-112l-45 -318q-7 -48 15 -81t73 -34q6 0 12 0.5t13 1.5l-7 -50q-7 -1 -14 -1.5t-14 -0.5zM13 0zM62 -244h-49l60 166h60z" />
    <glyph glyph-name="Tcaron" unicode="&#x164;" horiz-adv-x="557" 
d="M215 869h66l68 -76l85 76h67l-124 -113h-70zM593 649h-236l-91 -649h-59l91 649h-236l8 59h531z" />
    <glyph glyph-name="tcaron" unicode="&#x165;" horiz-adv-x="261" 
d="M266 575h-49l46 133h60zM178 -10q-33 0 -60 11.5t-45 32.5t-25 52q-5 18 -5 39q0 14 2 30l69 482h48l-10 -119h112l-7 -45h-112l-45 -318q-2 -12 -2 -22q0 -34 17 -59q22 -33 73 -34q6 0 12 0.5t13 1.5l-7 -50q-7 -1 -14 -1.5t-14 -0.5z" />
    <glyph glyph-name="Tbar" unicode="&#x166;" horiz-adv-x="559" 
d="M325 418h105l-8 -46h-104l-52 -372h-59l52 372h-103l8 46h102l32 231h-236l8 59h531l-8 -59h-236z" />
    <glyph glyph-name="tbar" unicode="&#x167;" horiz-adv-x="267" 
d="M183 -10q-33 0 -60 11.5t-45 32.5t-26 52q-4 18 -4 39q0 14 2 30l19 132h-61l7 45h60l44 305h48l-10 -119h112l-7 -45h-112l-20 -141h99l-6 -45h-100l-18 -132q-2 -12 -2 -22q0 -34 17 -59q22 -33 73 -34q6 0 12 0.5t13 1.5l-7 -50q-7 -1 -14 -1.5t-14 -0.5z" />
    <glyph glyph-name="Umacron" unicode="&#x16a;" horiz-adv-x="677" 
d="M300 848h230l-8 -49h-230zM117 187q0 -25 9 -47q14 -30 40 -50t61.5 -30.5t74.5 -10.5t77.5 10.5t70.5 30.5t54 50.5t28 70.5l69 497h59l-69 -497q-8 -55 -36.5 -96.5t-69.5 -69t-91 -41.5t-100 -14t-95.5 14t-79 41.5t-50.5 68.5q-12 29 -12 63q0 16 3 34l69 497h59
l-69 -497q-2 -12 -2 -24z" />
    <glyph glyph-name="umacron" unicode="&#x16b;" 
d="M196 658h230l-8 -49h-230zM213 -10q-36 0 -69 11t-57 32t-36 52q-8 21 -8 46q0 13 2 27l50 360h56l-51 -362q-1 -8 -1 -16q0 -17 6 -32q9 -20 26 -34t40.5 -21t49.5 -7q42 0 82 10.5t65 20.5l62 441h56l-68 -487l-59 -17q-35 -10 -73 -17t-73 -7z" />
    <glyph glyph-name="Uring" unicode="&#x16e;" horiz-adv-x="677" 
d="M420 883q19 0 35 -8t26.5 -21.5t15.5 -30.5q3 -11 3 -22q0 -7 -1 -14q-3 -18 -12.5 -35t-24 -30t-32.5 -21t-37 -8q-20 0 -35.5 7.5t-26.5 20.5t-16 31q-3 10 -3 22q0 7 1 14q3 19 12.5 36.5t24 30.5t32.5 20.5t38 7.5zM456 796q0 16 -10 28q-12 15 -33 15t-37 -15.5
t-19 -36.5q-1 -4 -1 -8q0 -16 11 -27q12 -15 32 -15q21 0 37 15t19 36q1 4 1 8zM117 187q0 -25 9 -47q14 -30 40 -50t61.5 -30.5t74.5 -10.5t77.5 10.5t70.5 30.5t54 50.5t28 70.5l69 497h59l-69 -497q-8 -55 -36.5 -96.5t-69.5 -69t-91 -41.5t-100 -14t-95.5 14t-79 41.5
t-50.5 68.5q-12 29 -12 63q0 16 3 34l69 497h59l-69 -497q-2 -12 -2 -24z" />
    <glyph glyph-name="uring" unicode="&#x16f;" horiz-adv-x="520" 
d="M315 708q19 0 35 -8t26.5 -21.5t15.5 -30.5q3 -11 3 -22q0 -7 -1 -14q-3 -18 -12.5 -35t-24 -30t-32.5 -21t-37 -8q-20 0 -35.5 7.5t-26.5 20.5t-16 31q-3 10 -3 22q0 7 1 14q3 19 12.5 36.5t24 30.5t32.5 20.5t38 7.5zM351 621q0 16 -10 28q-12 15 -33 15t-37 -15.5
t-19 -36.5q-1 -4 -1 -8q0 -16 11 -27q12 -15 32 -15q21 0 37 15t19 36q1 4 1 8zM212 -10q-36 0 -69 11t-57 32t-36 52q-8 21 -8 46q0 13 2 27l50 360h56l-51 -362q-1 -8 -1 -16q0 -17 6 -32q9 -20 26 -34t40.5 -21t49.5 -7q42 0 82 10.5t65 20.5l62 441h56l-68 -487l-59 -17
q-35 -10 -73 -17t-73 -7z" />
    <glyph glyph-name="Uhungarumlaut" unicode="&#x170;" horiz-adv-x="677" 
d="M350 756h-50l56 113h80zM496 756h-50l56 113h80zM117 187q0 -25 9 -47q14 -30 40 -50t61.5 -30.5t74.5 -10.5t77.5 10.5t70.5 30.5t54 50.5t28 70.5l69 497h59l-69 -497q-8 -55 -36.5 -96.5t-69.5 -69t-91 -41.5t-100 -14t-95.5 14t-79 41.5t-50.5 68.5q-12 29 -12 63
q0 16 3 34l69 497h59l-69 -497q-2 -12 -2 -24z" />
    <glyph glyph-name="uhungarumlaut" unicode="&#x171;" 
d="M246 566h-50l56 113h80zM392 566h-50l56 113h80zM213 -10q-36 0 -69 11t-57 32t-36 52q-8 21 -8 46q0 13 2 27l50 360h56l-51 -362q-1 -8 -1 -16q0 -17 6 -32q9 -20 26 -34t40.5 -21t49.5 -7q42 0 82 10.5t65 20.5l62 441h56l-68 -487l-59 -17q-35 -10 -73 -17t-73 -7z
" />
    <glyph glyph-name="Uogonek" unicode="&#x172;" horiz-adv-x="677" 
d="M294 -10q-50 0 -95.5 14t-79 41.5t-50.5 68.5q-12 29 -12 63q0 16 3 34l69 497h59l-69 -497q-2 -12 -2 -24q0 -25 9 -47q14 -30 40 -50t61.5 -30.5t74.5 -10.5t77.5 10.5t70.5 30.5t54 50.5t28 70.5l69 497h59l-69 -497q-4 -28 -9.5 -48t-20 -42t-41 -50t-71.5 -73
t-67 -84.5t-22 -62.5q0 -17 8.5 -27.5t21.5 -13.5q5 -1 10 -1q10 0 22 4q17 6 35 21l12 -45q-17 -14 -39 -23.5t-50 -9.5q-38 0 -58 24q-16 21 -16 50q0 7 1 13q2 17 10.5 37.5t22 41.5t31 42t36.5 38l-4 5q-54 -17 -109 -17z" />
    <glyph glyph-name="uogonek" unicode="&#x173;" horiz-adv-x="524" 
d="M213 -10q-36 0 -69 11t-57 32t-36 52q-8 21 -8 46q0 13 2 27l50 360h56l-51 -362q-1 -8 -1 -16q0 -17 6 -32q9 -20 26 -34t40.5 -21t49.5 -7q42 0 82 10.5t65 20.5l62 441h56l-68 -487l-31 -31q-45 -45 -66 -85.5t-21 -63.5q0 -17 8.5 -27.5t21.5 -13.5q5 -1 10 -1
q10 0 22 4q17 6 35 21l12 -45q-17 -14 -39 -23.5t-50 -9.5q-38 0 -58 24q-16 21 -16 50q0 7 1 13q2 17 11 38t23 43t31.5 43t37.5 38l1 1l-4 5q-33 -9 -67.5 -15t-66.5 -6z" />
    <glyph glyph-name="Wcircumflex" unicode="&#x174;" horiz-adv-x="939" 
d="M672 756h-63l-63 78l-82 -78h-64l119 113h66zM920 708h62l-304 -708h-86l-92 522l-239 -522h-86l-106 708h62l93 -664l260 571h57l100 -571z" />
    <glyph glyph-name="wcircumflex" unicode="&#x175;" horiz-adv-x="722" 
d="M537 566h-63l-63 78l-82 -78h-64l119 113h66zM131 0l-84 518h59l73 -460l176 460h71l48 -460l201 460h59l-228 -518h-80l-45 443l-170 -443h-80z" />
    <glyph glyph-name="Ycircumflex" unicode="&#x176;" horiz-adv-x="556" 
d="M481 756h-63l-63 78l-82 -78h-64l119 113h66zM265 0h-59l38 277l-185 431h69l155 -372l258 372h70l-308 -431z" />
    <glyph glyph-name="ycircumflex" unicode="&#x177;" horiz-adv-x="536" 
d="M442 566h-63l-63 78l-82 -78h-64l119 113h66zM222 -9q-38 0 -72.5 11.5t-59.5 33t-38 54.5q-9 22 -9 48q0 13 2 26l49 354h58l-50 -356q-1 -9 -1 -17q0 -19 6 -33q9 -22 27 -36.5t42.5 -22t51.5 -7.5q37 0 74.5 8t76.5 26l61 438h57l-79 -565q-6 -44 -27.5 -76t-52 -53
t-67.5 -31.5t-75 -10.5q-51 0 -97.5 17.5t-73.5 52.5l43 35q20 -26 53 -38t72 -13q28 0 56.5 6.5t51.5 21t39.5 37t20.5 52.5l10 73q-36 -21 -73.5 -28t-75.5 -7z" />
    <glyph glyph-name="Ydieresis" unicode="&#x178;" horiz-adv-x="556" 
d="M266 853q17 0 27 -12t8 -29t-16 -29t-31 -12t-27 12t-8 29t16 29t31 12zM446 853q17 0 27 -12t8 -29t-16 -29t-31 -12t-27 12t-8 29t16 29t31 12zM265 0h-59l38 277l-185 431h69l155 -372l258 372h70l-308 -431z" />
    <glyph glyph-name="Zacute" unicode="&#x179;" horiz-adv-x="572" 
d="M371 756h-58l84 113h80zM96 708h486l15 -45l-526 -604h431l-8 -59h-497l-12 45l526 604h-423z" />
    <glyph glyph-name="zacute" unicode="&#x17a;" horiz-adv-x="463" 
d="M286 566h-58l84 113h80zM74 518h351l28 -41l-379 -418h318l-8 -59h-366l-30 40l386 424h-308z" />
    <glyph glyph-name="Zdotaccent" unicode="&#x17b;" horiz-adv-x="572" 
d="M363 856q20 0 32 -14q10 -11 10 -26q0 -4 -1 -8q-2 -20 -18 -34t-36 -14t-32 14q-10 12 -10 28v6q3 20 19 34t36 14zM96 708h486l15 -45l-526 -604h431l-8 -59h-497l-12 45l526 604h-423z" />
    <glyph glyph-name="zdotaccent" unicode="&#x17c;" horiz-adv-x="463" 
d="M278 666q20 0 32 -14q10 -11 10 -26q0 -4 -1 -8q-2 -20 -18 -34t-36 -14t-32 14q-10 12 -10 28v6q3 20 19 34t36 14zM74 518h351l28 -41l-379 -418h318l-8 -59h-366l-30 40l386 424h-308z" />
    <glyph glyph-name="Zcaron" unicode="&#x17d;" horiz-adv-x="572" 
d="M222 869h66l68 -76l85 76h67l-124 -113h-70zM96 708h486l15 -45l-526 -604h431l-8 -59h-497l-12 45l526 604h-423z" />
    <glyph glyph-name="zcaron" unicode="&#x17e;" horiz-adv-x="463" 
d="M137 679h66l68 -76l85 76h67l-124 -113h-70zM74 518h351l28 -41l-379 -418h318l-8 -59h-366l-30 40l386 424h-308z" />
    <glyph glyph-name="florin" unicode="&#x192;" horiz-adv-x="475" 
d="M-27 -144q-21 0 -40.5 5t-33.5 19l35 47q11 -9 24 -13t27 -4q40 0 62.5 28.5t39.5 82.5l113 345h-108l7 53h117l51 154q9 26 22.5 52.5t33 47.5t46.5 34t62 13q49 0 85 -30l-38 -45q-11 9 -25 15t-30 6q-38 0 -61 -26.5t-35 -63.5l-51 -157h108l-7 -53h-117l-126 -386
q-20 -58 -58 -91t-103 -33z" />
    <glyph glyph-name="Scommaaccent" unicode="&#x218;" horiz-adv-x="587" 
d="M209 -244h-49l60 166h60zM135 507q0 -19 7 -33q11 -23 35.5 -38t59 -24t72.5 -16q45 -9 88.5 -22.5t76 -38.5t48.5 -65q8 -22 8 -51q0 -22 -5 -49q-9 -47 -36.5 -81t-65.5 -56t-84 -32.5t-92 -10.5q-40 0 -78 8.5t-70 26t-55 43t-33 59.5l56 24h1q7 -26 25.5 -45
t44 -31.5t56.5 -19t63 -6.5q35 0 69.5 7.5t63.5 23.5t49.5 40.5t28.5 57.5q5 20 5 37q0 20 -7 35q-12 28 -38 45.5t-63 27.5t-77 19q-42 9 -84 20t-72.5 32t-45.5 55q-10 21 -10 49q0 18 4 40q8 45 34.5 78.5t63.5 56t82 34t91 11.5q39 0 76.5 -8.5t68.5 -25t53.5 -41.5
t32.5 -58l-56 -24q-8 25 -26 43.5t-42.5 30.5t-54.5 18t-61 6q-34 0 -67.5 -7.5t-61.5 -23t-48 -38.5t-27 -54q-3 -16 -3 -29z" />
    <glyph glyph-name="scommaaccent" unicode="&#x219;" horiz-adv-x="440" 
d="M152 -244h-49l60 166h60zM197 49q21 0 42.5 4.5t39.5 15t31 27.5t16 42q1 8 1 15q0 16 -6 28q-9 17 -24.5 28t-36 16.5t-39.5 9.5q-31 6 -62 14.5t-54.5 24.5t-36.5 42q-9 17 -9 41q0 11 2 24q6 39 26.5 67t50 46t63 26t64.5 8q40 0 77 -13t61 -39l-42 -42
q-19 23 -45.5 30.5t-57.5 7.5q-20 0 -43 -4t-44 -14.5t-36 -28t-19 -44.5q-1 -5 -1 -10q0 -19 9 -33q12 -16 30.5 -26t41.5 -15t42 -9q30 -6 58 -16t48.5 -27t31.5 -43q8 -18 8 -41q0 -11 -2 -23q-5 -37 -23.5 -65t-45 -46.5t-58.5 -27.5t-65 -9q-62 0 -110.5 26.5
t-74.5 80.5l46 27q24 -40 62.5 -57.5t83.5 -17.5z" />
    <glyph glyph-name="uni021A" unicode="&#x21a;" horiz-adv-x="557" 
d="M190 -244h-49l60 166h60zM593 649h-236l-91 -649h-59l91 649h-236l8 59h531z" />
    <glyph glyph-name="uni021B" unicode="&#x21b;" horiz-adv-x="261" 
d="M62 -244h-49l60 166h60zM177 -10q-33 0 -60 11.5t-45 32.5t-25 52q-5 18 -5 39q0 14 2 30l69 482h48l-10 -119h112l-7 -45h-112l-45 -318q-2 -12 -2 -22q0 -34 17 -59q22 -33 73 -34q6 0 12 0.5t13 1.5l-7 -50q-7 -1 -14 -1.5t-14 -0.5z" />
    <glyph glyph-name="circumflex" unicode="&#x2c6;" horiz-adv-x="262" 
d="M272 756h-63l-63 78l-82 -78h-64l119 113h66z" />
    <glyph glyph-name="caron" unicode="&#x2c7;" horiz-adv-x="257" 
d="M81 869h66l68 -76l85 76h67l-124 -113h-70z" />
    <glyph glyph-name="uni02C9" unicode="&#x2c9;" horiz-adv-x="240" 
d="M83 683h264l-7 -53h-264z" />
    <glyph glyph-name="breve" unicode="&#x2d8;" horiz-adv-x="240" 
d="M189 754q-55 0 -84 31q-21 22 -21 57q0 12 3 27h47q-2 -8 -2 -16q0 -20 12 -34q17 -19 50 -19t57.5 19t30.5 50h47q-11 -53 -45.5 -84t-94.5 -31z" />
    <glyph glyph-name="dotaccent" unicode="&#x2d9;" horiz-adv-x="240" 
d="M220 856q20 0 32 -14q10 -11 10 -26q0 -4 -1 -8q-2 -20 -18 -34t-36 -14t-32 14q-10 12 -10 28v6q3 20 19 34t36 14z" />
    <glyph glyph-name="ring" unicode="&#x2da;" horiz-adv-x="240" 
d="M153 883q19 0 35 -8t26.5 -21.5t15.5 -30.5q3 -11 3 -22q0 -7 -1 -14q-3 -18 -12.5 -35t-24 -30t-32.5 -21t-37 -8q-20 0 -35.5 7.5t-26.5 20.5t-16 31q-3 10 -3 22q0 7 1 14q3 19 12.5 36.5t24 30.5t32.5 20.5t38 7.5zM189 796q0 16 -10 28q-12 15 -33 15t-37 -15.5
t-19 -36.5q-1 -4 -1 -8q0 -16 11 -27q12 -15 32 -15q21 0 37 15t19 36q1 4 1 8z" />
    <glyph glyph-name="ogonek" unicode="&#x2db;" horiz-adv-x="240" 
d="M104 -244q-38 0 -58 24q-16 21 -16 50q0 7 1 13q2 17 11 38t23 43t31.5 43t37.5 38l37 -5q-45 -45 -66 -85.5t-21 -63.5q0 -17 8.5 -27.5t21.5 -13.5q5 -1 10 -1q10 0 22 4q17 6 35 21l12 -45q-17 -14 -39 -23.5t-50 -9.5z" />
    <glyph glyph-name="tilde" unicode="&#x2dc;" horiz-adv-x="271" 
d="M80 869q16 0 28.5 -7.5t24 -16.5t22.5 -16.5t23 -7.5q29 0 45 37l36 -15q-16 -34 -39.5 -53.5t-51.5 -19.5q-17 0 -30 7.5t-24 16.5t-22.5 16.5t-25.5 7.5t-24.5 -10t-20.5 -28l-37 14q13 35 38 55t58 20z" />
    <glyph glyph-name="hungarumlaut" unicode="&#x2dd;" horiz-adv-x="273" 
d="M174 756h-50l56 113h80zM320 756h-50l56 113h80z" />
    <glyph glyph-name="uni0326" unicode="&#x326;" horiz-adv-x="0" 
d="M121 -244h-49l60 166h60z" />
    <glyph glyph-name="uni03A9" unicode="&#x3a9;" horiz-adv-x="774" 
d="M61 316q0 30 5 62q11 77 46 139.5t87 106.5t117 68t135 24q73 0 129.5 -26.5t93.5 -71.5t52 -106q9 -37 9 -76q0 -26 -4 -54q-8 -57 -27.5 -106t-46.5 -90.5t-58.5 -74t-64.5 -54.5l-1 -3h165l-7 -54h-268l5 37q45 24 85.5 58.5t73 78.5t55 96.5t30.5 111.5q3 19 3 39
q0 31 -7 61q-11 51 -40 91t-75.5 65t-110.5 25q-60 0 -113.5 -21.5t-96 -60t-70.5 -91t-37 -114.5q-4 -26 -4 -51q0 -28 5 -55q9 -49 30 -91.5t52.5 -78.5t69.5 -63l-5 -37h-272l7 54h166l1 3q-28 25 -51.5 58t-39 73.5t-20.5 87.5q-3 20 -3 40z" />
    <glyph glyph-name="uni03BC" unicode="&#x3bc;" horiz-adv-x="536" 
d="M374 72h-3q-24 -38 -68.5 -61t-101.5 -23q-41 0 -66.5 14.5t-42.5 42.5l-39 -273h-59l104 740h60l-45 -322q-3 -22 -3 -44v-10q1 -27 11 -48t30.5 -33.5t56.5 -12.5q33 0 64 11.5t56 35t42.5 59t24.5 83.5l39 281h60l-68 -512h-58q2 26 4 45.5t2 26.5z" />
    <glyph glyph-name="pi" unicode="&#x3c0;" horiz-adv-x="553" 
d="M361 97q0 19 3 42l47 333h-208l-66 -472h-55l66 472q-46 0 -69.5 -4t-38.5 -9l-5 40q19 11 49.5 18t83.5 7h391l-13 -52h-77l-46 -327q-3 -23 -3 -41q0 -19 4 -32q7 -20 35 -20h5l-7 -53q-33 1 -53 12t-30.5 29t-11.5 43q-1 7 -1 14z" />
    <glyph glyph-name="uni0401" unicode="&#x401;" horiz-adv-x="567" 
d="M288 853q17 0 27 -12t8 -29t-16 -29t-31 -12t-27 12t-8 29t16 29t31 12zM468 853q17 0 27 -12t8 -29t-16 -29t-31 -12t-27 12t-8 29t16 29t31 12zM148 384h355l-8 -60h-355l-37 -265h385l-8 -59h-444l99 708h444l-8 -59h-385z" />
    <glyph glyph-name="uni0410" unicode="&#x410;" horiz-adv-x="606" 
d="M559 0h-62l-52 236h-304l-116 -236h-62l353 708h86zM170 295h262l-79 369z" />
    <glyph glyph-name="uni0411" unicode="&#x411;" horiz-adv-x="611" 
d="M360 409q112 0 166 -49q41 -37 41 -112q0 -22 -4 -48q-8 -56 -31.5 -94.5t-58 -62t-79 -33.5t-93.5 -10h-266l100 708h446l-8 -58h-387l-34 -241h208zM312 58q38 0 70.5 6.5t58 23t42 44t22.5 69.5q2 18 2 33q0 54 -29 83q-38 37 -128 37h-206l-42 -296h210z" />
    <glyph glyph-name="uni0412" unicode="&#x412;" horiz-adv-x="625" 
d="M571 239q0 -20 -3 -42q-9 -55 -32.5 -92.5t-58.5 -61t-79 -33.5t-94 -10h-268l99 708h269q41 0 76.5 -11t60 -33t35.5 -56q7 -22 7 -49q0 -14 -2 -30q-7 -48 -29.5 -88t-68.5 -64q59 -22 77 -69q11 -31 11 -69zM361 405q31 0 58.5 6.5t49 21.5t36 38.5t19.5 57.5
q1 11 1 21q0 21 -5 36q-8 23 -25.5 37t-43 20t-55.5 6h-210l-35 -244h210zM324 59q33 0 61 5q33 6 59 22t42.5 43t22.5 69q2 17 2 32q0 22 -5 38q-8 29 -28.5 46.5t-52 24.5t-72.5 7h-210l-40 -287h210h11z" />
    <glyph glyph-name="uni0413" unicode="&#x413;" horiz-adv-x="512" 
d="M35 0l100 708h420l-9 -58h-361l-92 -650h-58z" />
    <glyph glyph-name="uni0414" unicode="&#x414;" horiz-adv-x="679" 
d="M526 -139l19 139h-521l-19 -139h-59l28 197h22q39 5 67.5 29.5t51 72.5t42 122t40.5 178l51 248h388l-92 -650h68l-27 -197h-59zM250 410q-29 -143 -63.5 -228.5t-80.5 -123.5h379l83 592h-269z" />
    <glyph glyph-name="uni0415" unicode="&#x415;" horiz-adv-x="567" 
d="M148 384h355l-8 -60h-355l-37 -265h385l-8 -59h-444l99 708h444l-8 -59h-385z" />
    <glyph glyph-name="uni0416" unicode="&#x416;" horiz-adv-x="893" 
d="M552 333l-83 -78l-36 -255h-58l36 255l-61 78l-308 -333h-77l346 372l-250 336h78l283 -380l53 380h58l-53 -380l388 380h79l-344 -336l239 -372h-76z" />
    <glyph glyph-name="uni0417" unicode="&#x417;" horiz-adv-x="532" 
d="M316 718q93 0 138 -51q37 -40 37 -104q0 -17 -3 -35q-8 -51 -32 -88t-76 -62q31 -12 51 -30.5t31 -42.5t14 -51v-22q0 -17 -2 -35q-9 -56 -32.5 -95t-58.5 -64t-79 -36.5t-93 -11.5q-77 0 -134 28t-87 91l57 28q50 -89 175 -89q37 0 70 8t58.5 26t42.5 46.5t23 69.5
q3 18 3 33q0 20 -5 37q-8 28 -28 46t-51 26.5t-71 8.5h-92l7 53h93q61 0 105 29.5t53 95.5q2 14 2 27q0 47 -28 73q-37 33 -99 33q-54 0 -95.5 -16.5t-76.5 -53.5l-46 26q46 55 103 78.5t126 23.5z" />
    <glyph glyph-name="uni0418" unicode="&#x418;" horiz-adv-x="681" 
d="M588 613h-2l-49 -65l-426 -548h-76l100 708h58l-76 -543l-15 -85h3l484 628h70l-100 -708h-58l75 534z" />
    <glyph glyph-name="uni0419" unicode="&#x419;" horiz-adv-x="681" 
d="M410 779q-31 0 -56.5 9.5t-44.5 28t-29 45t-10 59.5h58q3 -40 24 -63.5t66 -23.5t72 23.5t42 63.5h58q-19 -67 -68.5 -104.5t-111.5 -37.5zM589 613h-3l-67 -89l-408 -524h-76l100 708h58l-76 -546l-14 -82h2l484 628h70l-100 -708h-58l72 514z" />
    <glyph glyph-name="uni041A" unicode="&#x41a;" horiz-adv-x="614" 
d="M139 319l451 389h76l-389 -341l288 -367h-76l-260 325l-101 -89l-33 -236h-59l99 708h59z" />
    <glyph glyph-name="uni041B" unicode="&#x41b;" horiz-adv-x="664" 
d="M301 650l-51 -250q-18 -84 -38.5 -157t-52 -127t-78.5 -85t-118 -31l8 58q51 0 85.5 26.5t59 75.5t42.5 117.5t35 152.5l58 278h391l-100 -708h-58l91 650h-274z" />
    <glyph glyph-name="uni041C" unicode="&#x41c;" horiz-adv-x="802" 
d="M182 626l-87 -626h-59l99 708h86l162 -535l311 535h86l-99 -708h-59l87 626l-309 -529h-56z" />
    <glyph glyph-name="uni041D" unicode="&#x41d;" horiz-adv-x="677" 
d="M93 0h-59l99 708h59l-46 -325h413l46 325h59l-99 -708h-59l45 324h-413z" />
    <glyph glyph-name="uni041E" unicode="&#x41e;" horiz-adv-x="664" 
d="M390 718q53 0 101.5 -13.5t84 -41t53.5 -68.5q13 -30 13 -66q0 -14 -2 -29l-41 -292q-8 -54 -37.5 -95t-73 -68.5t-96 -41t-104.5 -13.5q-53 0 -101 13.5t-84 41t-55 68.5q-12 29 -12 64q0 15 2 31l41 292q7 54 37 95t73.5 68.5t95.5 41t105 13.5zM95 186q0 -26 11 -48
q15 -29 43.5 -49t66.5 -30t80 -10q41 0 82.5 10t75.5 30t57 49.5t29 69.5l41 292q2 12 2 23q0 28 -11 49q-15 30 -44 49.5t-67.5 28.5t-80.5 9q-41 0 -82 -9.5t-74.5 -29t-56.5 -49.5t-29 -71l-41 -292q-2 -11 -2 -22z" />
    <glyph glyph-name="uni041F" unicode="&#x41f;" horiz-adv-x="669" 
d="M135 708h512l-100 -708h-58l91 650h-395l-92 -650h-58z" />
    <glyph glyph-name="uni0420" unicode="&#x420;" horiz-adv-x="611" 
d="M402 708q78 0 125.5 -33t66.5 -82q14 -34 14 -72q0 -17 -2 -35q-9 -57 -41.5 -106t-89 -82t-134.5 -33h-209l-37 -265h-59l99 708h267zM348 324q59 0 101.5 24t67 60t29.5 78q2 12 2 23q0 30 -10 56q-15 36 -50.5 60t-93.5 24h-208l-46 -325h208z" />
    <glyph glyph-name="uni0421" unicode="&#x421;" horiz-adv-x="594" 
d="M381 718q37 0 72.5 -8t65.5 -23.5t52 -39.5t33 -56l-57 -26q-8 23 -25.5 40.5t-41 29.5t-52 18t-58.5 6q-38 0 -76.5 -10t-70 -29.5t-53 -48.5t-26.5 -68l-41 -298q-1 -11 -1 -20q0 -27 10 -49q13 -29 38.5 -48.5t61 -29t73.5 -9.5q30 0 60 6t57 18t49.5 29.5t37.5 41.5
l50 -26q-20 -32 -49.5 -56t-64 -40t-73 -24t-76.5 -8q-49 0 -94.5 13.5t-78.5 40.5t-50 67q-12 27 -12 61q0 16 3 33l41 298q7 53 36 93.5t70 67.5t90.5 40.5t99.5 13.5z" />
    <glyph glyph-name="uni0422" unicode="&#x422;" horiz-adv-x="557" 
d="M593 649h-236l-91 -649h-59l91 649h-236l8 59h531z" />
    <glyph glyph-name="uni0423" unicode="&#x423;" horiz-adv-x="506" 
d="M42 708h69l95 -284l43 -136h2l249 420h62l-419 -708h-63l132 221z" />
    <glyph glyph-name="uni0424" unicode="&#x424;" horiz-adv-x="717" 
d="M695 480q0 -14 -2 -30l-27 -192q-8 -54 -37 -89.5t-72 -56.5t-95.5 -29t-106.5 -8l-11 -75h-59l12 75q-54 0 -104.5 8t-87.5 29t-57 56q-14 26 -14 61q0 14 2 29l27 192q7 54 36.5 89.5t73 56.5t96 29.5t106.5 8.5l10 74h59l-10 -74q54 0 104 -8.5t87 -29.5t57 -56
q13 -26 13 -60zM92 238q0 -28 13 -46q17 -25 47.5 -39t70.5 -19t81 -5l64 451q-41 0 -83 -5t-76.5 -19t-58 -39.5t-29.5 -66.5l-27 -192q-2 -11 -2 -20zM637 471q0 27 -13 45q-16 26 -46.5 40t-71 19t-81.5 5l-63 -451q41 0 82.5 5t76 19t58.5 39t30 66l26 192q2 11 2 21z
" />
    <glyph glyph-name="uni0425" unicode="&#x425;" horiz-adv-x="569" 
d="M519 0h-71l-163 307l-250 -307h-71l292 353l-191 355h69l164 -303l249 303h70l-291 -355z" />
    <glyph glyph-name="uni0426" unicode="&#x426;" horiz-adv-x="679" 
d="M526 -139l19 139h-511l100 708h58l-91 -650h384l92 650h59l-92 -650h68l-27 -197h-59z" />
    <glyph glyph-name="uni0427" unicode="&#x427;" horiz-adv-x="598" 
d="M264 232q-48 0 -88 13t-68 39.5t-40 67.5q-8 24 -8 54q0 19 3 40l37 262h58l-36 -262q-2 -16 -2 -30q0 -22 6 -40q9 -29 30 -48.5t51 -28.5t65 -9q69 0 115.5 24t82.5 57l47 337h59l-100 -708h-59l45 313q-42 -35 -90 -58t-108 -23z" />
    <glyph glyph-name="uni0428" unicode="&#x428;" horiz-adv-x="876" 
d="M193 708l-91 -650h272l91 650h59l-92 -650h272l92 650h58l-100 -708h-719l100 708h58z" />
    <glyph glyph-name="uni0429" unicode="&#x429;" horiz-adv-x="897" 
d="M744 -139l19 139h-729l100 708h58l-91 -650h272l91 650h59l-92 -650h272l92 650h59l-92 -650h68l-28 -197h-58z" />
    <glyph glyph-name="uni042A" unicode="&#x42a;" horiz-adv-x="662" 
d="M416 425q111 0 164 -52q41 -39 41 -117q0 -25 -4 -53q-8 -56 -31.5 -94.5t-58.5 -62.5t-79 -35t-94 -11h-260l92 653h-127l7 55h186l-39 -283h203zM366 58q37 0 70 7t58 24.5t42 45.5t23 70q3 20 3 38q0 57 -29 87q-38 41 -127 41h-201l-44 -313h205z" />
    <glyph glyph-name="uni042B" unicode="&#x42b;" horiz-adv-x="817" 
d="M695 0h-59l99 708h59zM356 425q112 0 165 -52q41 -40 41 -119q0 -24 -4 -51q-8 -56 -31.5 -94.5t-58.5 -62.5t-79.5 -35t-93.5 -11h-260l100 708h58l-40 -283h203zM306 58q38 0 70.5 7t58 24.5t42.5 45.5t23 70q3 20 3 38q0 57 -29 87q-38 41 -128 41h-201l-43 -313h204z
" />
    <glyph glyph-name="uni042C" unicode="&#x42c;" horiz-adv-x="603" 
d="M356 425q112 0 165 -52q41 -40 41 -119q0 -24 -4 -51q-8 -56 -31.5 -94.5t-58.5 -62.5t-79.5 -35t-93.5 -11h-260l100 708h58l-40 -283h203zM306 58q38 0 70.5 7t58 24.5t42.5 45.5t23 70q3 20 3 38q0 57 -29 87q-38 41 -128 41h-201l-43 -313h204z" />
    <glyph glyph-name="uni042D" unicode="&#x42d;" horiz-adv-x="587" 
d="M325 718q50 0 95.5 -13.5t78 -40.5t49.5 -67q11 -28 11 -62q0 -15 -2 -30l-43 -302q-8 -53 -35.5 -92.5t-68 -65.5t-88.5 -39.5t-96 -13.5q-36 0 -71 8t-64.5 23.5t-52 39t-34.5 55.5l55 25q10 -23 27.5 -40.5t41 -29t50.5 -17.5t56 -6q37 0 74.5 9.5t68 28.5t52 47.5
t27.5 67.5l16 122h-324l8 58h325l17 122q2 12 2 23q0 25 -10 45q-13 29 -38.5 48.5t-60 29t-71.5 9.5q-29 0 -58 -6t-55.5 -18t-49.5 -30t-39 -41l-48 28q21 31 50 54.5t62.5 39.5t70 23.5t72.5 7.5z" />
    <glyph glyph-name="uni042E" unicode="&#x42e;" horiz-adv-x="912" 
d="M637 718q51 0 99 -13t83 -39.5t53 -65.5q12 -28 12 -62q0 -15 -2 -32l-42 -302q-8 -54 -37 -94t-71.5 -66.5t-94 -40t-102.5 -13.5t-98.5 13.5t-82.5 40t-53 66.5q-12 28 -12 62q0 15 2 32l18 126h-171l-47 -330h-58l100 708h58l-45 -322h171l16 120q7 53 36.5 93
t71.5 66.5t93.5 39.5t102.5 13zM629 661q-41 0 -81 -9.5t-73 -28.5t-55.5 -48.5t-28.5 -69.5l-43 -301q-1 -10 -1 -19q0 -28 11 -49q14 -30 41.5 -49.5t65.5 -29t79 -9.5q40 0 80.5 9.5t73.5 29t55.5 49t28.5 68.5l42 301q2 12 2 23q0 27 -10 48q-15 29 -43 48t-66 28t-78 9
z" />
    <glyph glyph-name="uni042F" unicode="&#x42f;" horiz-adv-x="615" 
d="M66 465q0 15 2 32q16 101 86 156t182 55h257l-100 -708h-59l44 298h-132l-296 -298h-77l294 297q-45 0 -84.5 13t-67 38.5t-41.5 62.5q-8 24 -8 54zM320 651q-83 0 -132 -41q-50 -41 -61 -113q-2 -13 -2 -25q0 -24 7 -42q12 -28 34.5 -45t54 -25t67.5 -8h197l41 299h-202
h-4z" />
    <glyph glyph-name="uni0430" unicode="&#x430;" horiz-adv-x="517" 
d="M195 -10q-35 0 -66.5 10t-55 31t-34.5 53q-7 21 -7 46q0 14 2 30l27 197q7 48 29 81t54.5 53t71.5 28.5t80 8.5q51 0 98 -13t81 -30l-67 -485h-50l-1 52q-28 -27 -72 -44.5t-90 -17.5zM293 472q-30 0 -59.5 -5.5t-54 -19t-41 -35.5t-20.5 -54l-27 -194q-1 -10 -1 -19
q0 -18 5 -33q8 -21 24 -35.5t38.5 -21t47.5 -6.5q22 0 44.5 4t43.5 11.5t39.5 18t31.5 23.5l48 339q-21 11 -52.5 19t-66.5 8z" />
    <glyph glyph-name="uni0431" unicode="&#x431;" horiz-adv-x="502" 
d="M290 484q37 0 69 -10t54 -30t32 -50q6 -20 6 -43q0 -14 -2 -29l-23 -169q-6 -41 -26.5 -71.5t-50.5 -51t-65.5 -30.5t-70.5 -10q-36 0 -69 10t-57.5 30.5t-36.5 51.5q-9 20 -9 46q0 12 2 25l54 379q6 41 26 69t49.5 45.5t64.5 27t70 12.5q48 5 83.5 14t65.5 25l13 -47
q-35 -21 -77 -31t-89 -15q-27 -3 -52 -8.5t-45.5 -16t-34.5 -29t-18 -46.5l-15 -102q29 22 67 38t85 16zM278 431q-41 0 -75.5 -13.5t-72.5 -39.5l-32 -225q-1 -9 -1 -16q0 -19 7 -33q9 -21 26.5 -34t41 -19.5t48.5 -6.5q24 0 49 6.5t46.5 19.5t36.5 33.5t19 49.5l24 169
q1 10 1 18q0 19 -6 32q-8 21 -24.5 34t-39.5 19t-48 6z" />
    <glyph glyph-name="uni0432" unicode="&#x432;" horiz-adv-x="497" 
d="M302 528q73 0 114 -33q33 -27 33 -76q0 -11 -2 -23q-6 -42 -29.5 -72.5t-52.5 -47.5q68 -26 68 -101q0 -14 -2 -30q-7 -44 -25.5 -74t-46.5 -48t-64.5 -25.5t-79.5 -7.5q-55 0 -99.5 10.5t-89.5 30.5l64 456q51 20 102.5 30.5t109.5 10.5zM292 478q-47 0 -80.5 -5.5
t-71.5 -18.5l-24 -163h151q44 0 80.5 25t43.5 74q1 10 1 18q0 35 -23 50q-29 20 -77 20zM219 40h14q26 0 50 4.5t43 16.5t32.5 32.5t18.5 53.5q2 12 2 22q0 40 -25 57q-30 22 -91 22h-152l-26 -185q34 -13 67 -19q28 -4 67 -4z" />
    <glyph glyph-name="uni0433" unicode="&#x433;" horiz-adv-x="436" 
d="M252 528q34 0 63 -8t48.5 -24t28.5 -41q6 -17 6 -39q0 -10 -1 -20q-5 -36 -22 -60t-42.5 -40.5t-57.5 -27.5t-67 -21q-61 -18 -97 -40.5t-43 -68.5q-1 -11 -1 -21q0 -38 21 -55q28 -23 85 -23q54 0 96 17.5t74 46.5l30 -32q-39 -39 -92 -60t-115 -21q-80 0 -122 36
q-33 30 -33 82q0 13 2 27q5 33 19.5 57.5t37.5 43t55 31.5t72 24q27 8 52 16.5t44.5 20t33 28t16.5 39.5q1 7 1 14q0 66 -97 66q-41 0 -77 -13.5t-65 -38.5l-31 36q42 35 87.5 52t90.5 17z" />
    <glyph glyph-name="uni0434" unicode="&#x434;" horiz-adv-x="498" 
d="M303 718q38 0 71 -10t55.5 -30t33.5 -50q7 -20 7 -44q0 -14 -2 -28l-56 -400q-6 -41 -26.5 -72t-49.5 -52t-64 -31.5t-71 -10.5t-69 10t-57 30t-36 50q-8 21 -8 46q0 12 2 26l26 182q6 40 26.5 71t50 51.5t65 30.5t71.5 10q37 0 71.5 -12t55.5 -35l14 104q1 10 1 19
q0 17 -5 31q-8 22 -25.5 36t-41.5 20.5t-52 6.5q-39 0 -69 -8.5t-59 -26.5l-30 39q22 15 42 24t40.5 14t42 7t46.5 2zM263 445q-25 0 -50 -7t-46 -20.5t-35.5 -34t-18.5 -48.5l-25 -183q-1 -9 -1 -17q0 -18 6 -32q9 -20 27 -33.5t41.5 -19.5t47.5 -6t48.5 6.5t45 20t35.5 34
t19 49.5l34 245q-23 20 -56.5 33t-71.5 13z" />
    <glyph glyph-name="uni0435" unicode="&#x435;" horiz-adv-x="484" 
d="M87 142q0 -19 7 -34q9 -20 27 -33.5t42 -19.5t50 -6q42 0 81.5 16t60.5 51l46 -25q-15 -25 -37 -44t-48 -31.5t-54.5 -19t-56.5 -6.5q-37 0 -71 10.5t-58.5 31.5t-37.5 53q-8 22 -8 48q0 12 2 26l27 195q6 44 28 76.5t53 54.5t68 32.5t74 10.5t70.5 -10.5t58 -31.5
t36.5 -53q8 -21 8 -48q0 -13 -2 -27q-6 -44 -26.5 -75.5t-50 -52t-66 -30.5t-74.5 -11h-8q-33 0 -66 7q-36 7 -66 22l-8 -59q-1 -9 -1 -17zM239 242q18 0 35 2q31 4 56.5 17t43 36.5t23.5 60.5q1 9 1 18q0 19 -6 34q-9 21 -26.5 35t-41.5 20.5t-50 6.5q-27 0 -53.5 -7.5
t-48.5 -23t-37.5 -38.5t-19.5 -54l-12 -79q22 -9 50.5 -16.5t59.5 -9.5q13 -2 26 -2z" />
    <glyph glyph-name="uni0436" unicode="&#x436;" horiz-adv-x="721" 
d="M430 251l-56 -49l-29 -202h-55l29 202l-42 49l-233 -251h-68l265 286l-194 232h71l211 -253l34 253h55l-35 -253l281 253h70l-258 -232l183 -286h-68z" />
    <glyph glyph-name="uni0437" unicode="&#x437;" horiz-adv-x="438" 
d="M241 528q42 0 71.5 -10.5t47.5 -29.5t24 -44q4 -16 4 -33q0 -12 -2 -24q-6 -42 -31.5 -70t-55.5 -41q42 -12 62 -46q14 -25 14 -58q0 -13 -2 -28q-6 -39 -25.5 -68t-47 -48t-61.5 -28.5t-69 -9.5q-62 0 -103.5 21.5t-67.5 69.5l50 24q20 -32 50 -48.5t72 -16.5
q27 0 52 5.5t44.5 17.5t33 32t17.5 50q2 12 2 23q0 41 -24 58q-30 23 -92 23h-81l6 43h78q45 0 80.5 23t42.5 72q2 11 2 21q0 32 -21 48q-27 22 -79 22q-44 0 -75.5 -14t-58.5 -44l-38 22q35 44 82.5 65t98.5 21z" />
    <glyph glyph-name="uni0438" unicode="&#x438;" 
d="M213 -10q-36 0 -69 11t-57 32t-36 52q-8 21 -8 46q0 13 2 27l50 360h56l-51 -362q-1 -8 -1 -16q0 -17 6 -32q9 -20 26 -34t40.5 -21t49.5 -7q42 0 82 10.5t65 20.5l62 441h56l-68 -487l-59 -17q-35 -10 -73 -17t-73 -7z" />
    <glyph glyph-name="uni0439" unicode="&#x439;" horiz-adv-x="512" 
d="M294 582q-40 0 -70.5 27t-30.5 79h51q3 -26 20 -40t37 -14q21 0 41 14t31 40h52q-8 -26 -22 -45.5t-31.5 -33t-38 -20.5t-39.5 -7zM208 -10q-35 0 -67.5 10.5t-55.5 30.5t-35 51q-8 20 -8 45q0 12 2 26l51 365h55l-51 -366q-1 -8 -1 -16q0 -17 6 -31q9 -20 25.5 -34
t39 -21.5t46.5 -7.5q38 0 75.5 5.5t66.5 16.5l63 454h55l-69 -493q-63 -21 -111 -28t-87 -7z" />
    <glyph glyph-name="uni043A" unicode="&#x43a;" horiz-adv-x="475" 
d="M185 244l-79 -70l-25 -174h-55l73 518h55l-38 -271l303 271h70l-260 -235l186 -283h-69z" />
    <glyph glyph-name="uni043B" unicode="&#x43b;" horiz-adv-x="519" 
d="M222 464l-42 -197q-13 -59 -25.5 -108t-33.5 -84t-56 -55t-93 -20l8 55q39 0 62 13t38.5 42t26.5 75t25 112l47 221h301l-73 -518h-55l66 464h-196z" />
    <glyph glyph-name="uni043C" unicode="&#x43c;" horiz-adv-x="629" 
d="M523 429l-219 -350h-41l-84 241l-39 109l-16 -119l-43 -310h-55l73 518h70l124 -365l227 365h70l-73 -518h-55l47 332z" />
    <glyph glyph-name="uni043D" unicode="&#x43d;" horiz-adv-x="519" 
d="M116 244l-35 -244h-55l73 518h55l-31 -220h271l31 220h55l-73 -518h-55l35 244h-271z" />
    <glyph glyph-name="uni043E" unicode="&#x43e;" horiz-adv-x="497" 
d="M280 528q37 0 70.5 -10.5t58.5 -31.5t37 -53q9 -22 9 -48q0 -12 -2 -26l-29 -201q-6 -42 -27.5 -73.5t-52 -52.5t-67 -31.5t-73.5 -10.5t-71 10.5t-58.5 31.5t-36.5 52q-9 22 -9 48q0 12 2 26l29 201q6 42 27 74t52 53t67.5 31.5t73.5 10.5zM272 472q-26 0 -52 -6.5
t-47.5 -20t-37 -34.5t-19.5 -51l-29 -198q-1 -9 -1 -17q0 -19 6 -34q10 -21 28 -35t42 -20.5t50 -6.5q25 0 51 6.5t48 20.5t37.5 35t19.5 51l29 198q1 9 1 17q0 19 -6 34q-10 21 -28 34.5t-42.5 20t-49.5 6.5z" />
    <glyph glyph-name="uni043F" unicode="&#x43f;" 
d="M467 387q0 -12 -2 -26l-50 -361h-56l50 361q1 9 1 17q0 17 -6 32q-9 21 -26.5 35t-41 20.5t-48.5 6.5q-42 0 -82 -10t-65 -20l-61 -442h-56l68 487q51 17 102 29t102 12q36 -1 69 -11.5t57 -31t36 -51.5q9 -21 9 -47z" />
    <glyph glyph-name="uni0440" unicode="&#x440;" horiz-adv-x="514" 
d="M299 528q36 0 69.5 -10.5t57.5 -31.5t36 -52q9 -22 9 -48q0 -12 -2 -26l-28 -201q-6 -41 -26.5 -72.5t-50.5 -53t-67.5 -32.5t-76.5 -11q-37 0 -71 8.5t-65 23.5l-30 -213h-56l96 684q51 17 102.5 26t102.5 9zM229 46q26 0 52 7t48 21t36.5 34.5t18.5 48.5l28 205
q1 9 1 17q0 18 -5 32q-9 21 -26 34.5t-41 20t-50 6.5q-36 0 -73 -2.5t-74 -14.5l-53 -380q32 -14 67 -21.5t71 -7.5z" />
    <glyph glyph-name="uni0441" unicode="&#x441;" horiz-adv-x="465" 
d="M272 472q-26 0 -52 -6.5t-48 -20t-37 -34.5t-19 -49l-28 -203q-1 -9 -1 -17q0 -17 6 -32q9 -21 26.5 -34.5t42 -20t50.5 -6.5q22 0 45 4.5t42.5 13.5t35 23.5t24.5 35.5l48 -23q-14 -29 -36.5 -50t-49.5 -35t-57 -21t-60 -7q-36 0 -70 10.5t-58.5 31.5t-37.5 52
q-8 22 -8 48q0 12 2 26l28 202q6 42 27.5 73.5t52 52.5t67.5 31.5t73 10.5q54 0 99 -22t65 -67l-51 -30q-13 32 -46.5 47.5t-74.5 15.5z" />
    <glyph glyph-name="uni0442" unicode="&#x442;" horiz-adv-x="813" 
d="M270 528q48 0 89 -16t65 -54q34 35 77 52.5t84 17.5q39 0 72.5 -10.5t57 -32.5t34.5 -55q7 -21 7 -46q0 -14 -2 -30l-49 -354h-57l49 354q1 11 1 20q0 19 -5 34q-8 23 -24.5 37t-40 20.5t-49.5 6.5q-21 0 -43.5 -6t-42 -18t-34 -30t-17.5 -42l-53 -376h-55l53 376
q1 6 1 11q0 18 -8 32q-10 18 -29 30t-44.5 17.5t-52.5 5.5q-32 0 -61.5 -7.5t-49.5 -21.5l-62 -443h-57l68 484q37 19 84 31.5t94 12.5z" />
    <glyph glyph-name="uni0443" unicode="&#x443;" horiz-adv-x="536" 
d="M222 -9q-38 0 -72.5 11.5t-59.5 33t-38 54t-7 74.5l49 354h58l-50 -356q-4 -29 5 -50.5t27 -36t42.5 -22t51.5 -7.5q37 0 74.5 8t76.5 26l61 438h57l-79 -565q-6 -44 -27.5 -76t-52 -53t-67.5 -31.5t-75 -10.5q-51 0 -97.5 17.5t-73.5 52.5l43 35q20 -26 53 -38t72 -13
q28 0 56.5 6.5t51.5 21t39.5 37t20.5 52.5l10 73q-36 -21 -73.5 -28t-75.5 -7zM25 0z" />
    <glyph glyph-name="uni0444" unicode="&#x444;" horiz-adv-x="688" 
d="M484 528q31 0 62 -10.5t54 -30.5t35 -51q8 -21 8 -45q0 -13 -2 -26l-29 -212q-6 -41 -26.5 -71.5t-49.5 -50.5t-63 -30.5t-65 -10.5q-9 0 -20.5 1t-22.5 3t-20.5 4.5t-15.5 5.5l-27 -190h-55l26 190q-12 -6 -38 -10t-45 -4q-31 0 -61.5 10.5t-54 30.5t-35.5 51
q-8 21 -8 48q0 11 1 23l30 212q6 40 27 71t50 51t62.5 30.5t64.5 10.5q9 0 20.5 -1t23 -3t21 -4.5t15.5 -5.5l27 194h55l-27 -194q6 3 16.5 5.5t22 4.5t23.5 3t21 1zM269 475q-24 0 -49 -7t-46.5 -21t-37 -34.5t-19.5 -47.5l-29 -212q-1 -8 -1 -15q0 -18 7 -32
q9 -21 26.5 -35t41 -21t47.5 -7q16 0 37 3.5t35 8.5l57 408q-12 5 -32 8.5t-37 3.5zM466 475q-17 0 -38 -3.5t-35 -8.5l-57 -408q12 -5 32 -8.5t37 -3.5q24 0 49.5 7t47 21t36.5 34.5t18 47.5l30 212q1 8 1 16q0 17 -6 31q-9 21 -26.5 35t-41 21t-47.5 7z" />
    <glyph glyph-name="uni0445" unicode="&#x445;" horiz-adv-x="462" 
d="M258 259l142 -259h-68l-113 218l-174 -218h-68l214 259l-142 259h68l114 -219l173 219h68z" />
    <glyph glyph-name="uni0446" unicode="&#x446;" horiz-adv-x="534" 
d="M210 -10q-35 0 -67.5 10.5t-56.5 30.5t-36 51q-8 20 -8 45q0 12 2 26l51 365h55l-51 -366q-1 -8 -1 -16q0 -17 6 -31q9 -20 26 -34t39.5 -21.5t46.5 -7.5q35 0 71.5 4.5t65.5 16.5l64 455h55l-62 -442h67q-9 -57 -21 -106.5t-25 -92.5h-45l24 147l-23 -1
q-38 -16 -85 -24.5t-92 -8.5z" />
    <glyph glyph-name="uni0447" unicode="&#x447;" horiz-adv-x="477" 
d="M200 158q-35 0 -66 9.5t-53.5 30t-33.5 51.5q-7 20 -7 45q0 14 2 29l27 195h55l-27 -194q-1 -10 -1 -20q0 -17 4 -32q8 -21 24 -34.5t38 -19.5t46 -6q35 0 70.5 9.5t67.5 30.5l38 266h54l-73 -518h-54l28 202q-67 -44 -139 -44z" />
    <glyph glyph-name="uni0448" unicode="&#x448;" horiz-adv-x="783" 
d="M204 -10q-38 0 -70 10t-54 30.5t-32 51.5q-6 20 -6 44q0 14 2 30l50 362h56l-51 -360q-1 -11 -1 -20q0 -19 4 -33q8 -22 23.5 -35.5t37 -19.5t46.5 -6q21 0 43.5 6.5t41.5 18t32.5 28.5t16.5 40l53 381h54l-53 -381q-1 -6 -1 -12q0 -17 7 -30q9 -18 26 -29.5t40.5 -17.5
t49.5 -6q30 0 59 7t50 20l63 449h55l-67 -484q-38 -20 -83 -32t-87 -12q-45 0 -85.5 16t-63.5 54q-36 -39 -75 -54.5t-81 -15.5z" />
    <glyph glyph-name="uni0449" unicode="&#x449;" horiz-adv-x="809" 
d="M205 -10q-38 0 -70.5 10t-54.5 30.5t-32 51.5q-6 20 -6 44q0 14 2 30l51 362h55l-50 -360q-2 -12 -2 -23q0 -17 4 -30q8 -22 23.5 -35.5t37 -19.5t46.5 -6q21 0 43.5 7t41.5 19t32.5 29t16.5 38l53 381h54l-54 -381q-1 -6 -1 -12q0 -17 7 -30q9 -18 26.5 -29.5t41 -17.5
t49.5 -6q30 0 59 6t50 17l63 453h56l-62 -442h66q-8 -57 -20 -106.5t-26 -91.5h-44l24 146l-24 -1q-35 -16 -74.5 -24.5t-78.5 -8.5q-44 0 -84.5 16t-63.5 54q-36 -39 -74.5 -54.5t-80.5 -15.5z" />
    <glyph glyph-name="uni044A" unicode="&#x44a;" horiz-adv-x="515" 
d="M315 332q40 0 71 -13t51 -36.5t28 -56.5q5 -18 5 -39q0 -15 -3 -32q-6 -41 -26.5 -72t-50.5 -51.5t-65.5 -31t-70.5 -10.5q-36 0 -69 10.5t-57.5 30.5t-37.5 51q-8 20 -8 46q0 12 2 25l45 315h-95l7 50h149l-32 -226q32 14 73.5 27t83.5 13zM297 281q-18 0 -37.5 -3.5
t-39 -9t-37 -12.5t-31.5 -13l-13 -90q-1 -9 -1 -17q0 -18 6 -32q9 -21 27 -34.5t41.5 -20t48.5 -6.5q24 0 49 7t46.5 20.5t36.5 34.5t19 50q1 11 1 22q0 18 -4 33q-7 24 -22.5 39.5t-39 23.5t-50.5 8z" />
    <glyph glyph-name="uni044B" unicode="&#x44b;" horiz-adv-x="674" 
d="M636 518l-73 -518h-56l73 518h56zM275 332q40 0 71 -13t50.5 -36.5t27.5 -56.5q5 -20 5 -42q0 -14 -2 -29q-6 -41 -26.5 -72t-50.5 -51.5t-65.5 -31t-71.5 -10.5t-69 10.5t-57 30.5t-37 51q-8 20 -8 46q0 12 2 25l51 365h54l-31 -226q31 14 73 27t84 13zM257 281
q-18 0 -37.5 -3.5t-39 -9t-37.5 -12.5t-32 -13l-12 -90q-1 -9 -1 -17q0 -18 6 -32q9 -21 27 -34.5t41.5 -20t48.5 -6.5q24 0 49 7t46.5 20.5t36.5 34.5t19 50q1 11 1 22q0 18 -4 33q-7 24 -22.5 39.5t-39 23.5t-50.5 8z" />
    <glyph glyph-name="uni044C" unicode="&#x44c;" horiz-adv-x="475" 
d="M275 332q40 0 71 -13t50.5 -36.5t27.5 -56.5q5 -20 5 -42q0 -14 -2 -29q-6 -41 -26.5 -72t-50.5 -51.5t-65.5 -31t-71.5 -10.5t-69 10.5t-57 30.5t-37 51q-8 20 -8 46q0 12 2 25l51 365h54l-31 -226q31 14 73 27t84 13zM257 281q-18 0 -37.5 -3.5t-39 -9t-37.5 -12.5
t-32 -13l-12 -90q-1 -9 -1 -17q0 -18 6 -32q9 -21 27 -34.5t41.5 -20t48.5 -6.5q24 0 49 7t46.5 20.5t36.5 34.5t19 50q1 11 1 22q0 18 -4 33q-7 24 -22.5 39.5t-39 23.5t-50.5 8z" />
    <glyph glyph-name="uni044D" unicode="&#x44d;" horiz-adv-x="457" 
d="M245 527q36 0 68.5 -10t56.5 -30.5t36 -50.5q8 -21 8 -46q0 -12 -2 -26l-29 -209q-6 -41 -27 -72t-50.5 -51.5t-65 -30.5t-71.5 -10q-28 0 -55 7t-49.5 20.5t-39 34t-23.5 47.5l55 25q9 -41 44 -60t76 -19q25 0 50.5 6.5t46.5 19.5t35.5 33.5t18.5 47.5l11 84h-216l7 48
h216l12 80q1 8 1 16q0 17 -6 31q-9 21 -26.5 34.5t-41 20t-48.5 6.5q-40 0 -75.5 -13.5t-60.5 -46.5l-41 27q35 45 84.5 66t100.5 21z" />
    <glyph glyph-name="uni044E" unicode="&#x44e;" horiz-adv-x="705" 
d="M493 528q36 0 68.5 -10.5t56.5 -31t36 -50.5q7 -21 7 -45q0 -12 -2 -26l-29 -212q-6 -41 -26.5 -71.5t-50 -50.5t-65 -30.5t-71.5 -10.5t-69 10.5t-57 30.5t-37 51q-8 20 -8 46q0 12 2 25l13 94h-148l-35 -247h-55l73 518h55l-30 -219h148l8 66q6 40 27 70.5t51 51t66 31
t72 10.5zM485 473q-25 0 -50.5 -6t-47 -19.5t-36.5 -34t-19 -48.5l-29 -212q-1 -9 -1 -17q0 -18 6 -32q9 -21 27 -34t41.5 -19.5t47.5 -6.5t49.5 6.5t46.5 19.5t36 33.5t19 49.5l30 212q1 9 1 17q0 17 -6 32q-9 20 -26.5 33.5t-41 19.5t-47.5 6z" />
    <glyph glyph-name="uni044F" unicode="&#x44f;" horiz-adv-x="488" 
d="M50 338q0 12 2 25q11 80 61 117.5t128 37.5h208l-73 -518h-55l31 217h-103l-204 -217h-67l203 217q-32 1 -57.5 11t-43 29t-25.5 45q-5 17 -5 36zM236 466q-54 0 -87.5 -23.5t-41.5 -80.5q-2 -10 -2 -19q0 -15 5 -27q6 -19 21 -31t37 -17.5t49 -5.5h141l29 204h-151z" />
    <glyph glyph-name="uni0451" unicode="&#x451;" horiz-adv-x="484" 
d="M213 673q17 0 27 -12t8 -29t-16 -29t-31 -12t-27 12t-8 29t16 29t31 12zM393 673q17 0 27 -12t8 -29t-16 -29t-31 -12t-27 12t-8 29t16 29t31 12zM87 142q0 -19 7 -34q9 -20 27 -33.5t42 -19.5t50 -6q42 0 81.5 16t60.5 51l46 -25q-15 -25 -37 -44t-48 -31.5t-54.5 -19
t-56.5 -6.5q-37 0 -71 10.5t-58.5 31.5t-37.5 53q-8 22 -8 48q0 12 2 26l27 195q6 44 28 76.5t53 54.5t68 32.5t74 10.5t70.5 -10.5t58 -31.5t36.5 -53q8 -21 8 -48q0 -13 -2 -27q-6 -44 -26.5 -75.5t-50 -52t-66 -30.5t-74.5 -11h-8q-33 0 -66 7q-36 7 -66 22l-8 -59
q-1 -9 -1 -17zM239 242q18 0 35 2q31 4 56.5 17t43 36.5t23.5 60.5q1 9 1 18q0 19 -6 34q-9 21 -26.5 35t-41.5 20.5t-50 6.5q-27 0 -53.5 -7.5t-48.5 -23t-37.5 -38.5t-19.5 -54l-12 -79q22 -9 50.5 -16.5t59.5 -9.5q13 -2 26 -2z" />
    <glyph glyph-name="Wgrave" unicode="&#x1e80;" horiz-adv-x="939" 
d="M429 869h80l55 -113h-58zM920 708h62l-304 -708h-86l-92 522l-239 -522h-86l-106 708h62l93 -664l260 571h57l100 -571z" />
    <glyph glyph-name="wgrave" unicode="&#x1e81;" horiz-adv-x="722" 
d="M294 679h80l55 -113h-58zM131 0l-84 518h59l73 -460l176 460h71l48 -460l201 460h59l-228 -518h-80l-45 443l-170 -443h-80z" />
    <glyph glyph-name="Wacute" unicode="&#x1e82;" horiz-adv-x="939" 
d="M554 756h-58l84 113h80zM920 708h62l-304 -708h-86l-92 522l-239 -522h-86l-106 708h62l93 -664l260 571h57l100 -571z" />
    <glyph glyph-name="wacute" unicode="&#x1e83;" horiz-adv-x="722" 
d="M419 566h-58l84 113h80zM131 0l-84 518h59l73 -460l176 460h71l48 -460l201 460h59l-228 -518h-80l-45 443l-170 -443h-80z" />
    <glyph glyph-name="Wdieresis" unicode="&#x1e84;" horiz-adv-x="939" 
d="M457 853q17 0 27 -12t8 -29t-16 -29t-31 -12t-27 12t-8 29t16 29t31 12zM637 853q17 0 27 -12t8 -29t-16 -29t-31 -12t-27 12t-8 29t16 29t31 12zM920 708h62l-304 -708h-86l-92 522l-239 -522h-86l-106 708h62l93 -664l260 571h57l100 -571z" />
    <glyph glyph-name="wdieresis" unicode="&#x1e85;" horiz-adv-x="722" 
d="M322 663q17 0 27 -12t8 -29t-16 -29t-31 -12t-27 12t-8 29t16 29t31 12zM502 663q17 0 27 -12t8 -29t-16 -29t-31 -12t-27 12t-8 29t16 29t31 12zM131 0l-84 518h59l73 -460l176 460h71l48 -460l201 460h59l-228 -518h-80l-45 443l-170 -443h-80z" />
    <glyph glyph-name="Ygrave" unicode="&#x1ef2;" horiz-adv-x="556" 
d="M238 869h80l55 -113h-58zM265 0h-59l38 277l-185 431h69l155 -372l258 372h70l-308 -431z" />
    <glyph glyph-name="ygrave" unicode="&#x1ef3;" horiz-adv-x="536" 
d="M199 679h80l55 -113h-58zM222 -9q-38 0 -72.5 11.5t-59.5 33t-38 54.5q-9 22 -9 48q0 13 2 26l49 354h58l-50 -356q-1 -9 -1 -17q0 -19 6 -33q9 -22 27 -36.5t42.5 -22t51.5 -7.5q37 0 74.5 8t76.5 26l61 438h57l-79 -565q-6 -44 -27.5 -76t-52 -53t-67.5 -31.5
t-75 -10.5q-51 0 -97.5 17.5t-73.5 52.5l43 35q20 -26 53 -38t72 -13q28 0 56.5 6.5t51.5 21t39.5 37t20.5 52.5l10 73q-36 -21 -73.5 -28t-75.5 -7z" />
    <glyph glyph-name="endash" unicode="&#x2013;" horiz-adv-x="588" 
d="M521 271h-464l8 57h464z" />
    <glyph glyph-name="emdash" unicode="&#x2014;" horiz-adv-x="1020" 
d="M953 271h-896l8 57h896z" />
    <glyph glyph-name="quoteleft" unicode="&#x2018;" horiz-adv-x="221" 
d="M179 708h60l-96 -228h-72z" />
    <glyph glyph-name="quoteright" unicode="&#x2019;" horiz-adv-x="219" 
d="M131 480h-59l98 228h70z" />
    <glyph glyph-name="quotesinglbase" unicode="&#x201a;" horiz-adv-x="210" 
d="M12 -138h-59l93 213h73z" />
    <glyph glyph-name="quotedblleft" unicode="&#x201c;" horiz-adv-x="373" 
d="M333 708h60l-96 -228h-72zM180 708h60l-96 -228h-72z" />
    <glyph glyph-name="quotedblright" unicode="&#x201d;" horiz-adv-x="368" 
d="M281 480h-59l98 228h70zM131 480h-59l98 228h70z" />
    <glyph glyph-name="quotedblbase" unicode="&#x201e;" horiz-adv-x="374" 
d="M176 -138h-59l93 213h73zM12 -138h-59l93 213h73z" />
    <glyph glyph-name="dagger" unicode="&#x2020;" horiz-adv-x="498" 
d="M56 514h192l27 194h60l-27 -194h192l-8 -53h-192l-82 -587h-60l82 587h-192z" />
    <glyph glyph-name="daggerdbl" unicode="&#x2021;" horiz-adv-x="557" 
d="M32 121h192l47 340h-192l8 52h192l27 195h60l-27 -195h192l-8 -52h-192l-47 -340h192l-8 -51h-192l-27 -196h-60l27 196h-192z" />
    <glyph glyph-name="bullet" unicode="&#x2022;" horiz-adv-x="419" 
d="M237 499q30 0 54.5 -11.5t41.5 -31t25 -46.5q4 -17 4 -36q0 -10 -1 -20q-4 -30 -19 -56.5t-37.5 -46t-50.5 -31t-58 -11.5t-55 11.5t-42 31t-25 46.5q-4 17 -4 36q0 10 1 20q4 30 19.5 56.5t38 46t50.5 31t58 11.5z" />
    <glyph glyph-name="ellipsis" unicode="&#x2026;" horiz-adv-x="619" 
d="M489 90q20 0 32 -14q10 -11 10 -26q0 -4 -1 -8q-2 -20 -18 -34t-36 -14t-32 14q-10 12 -10 28v6q3 20 19 34t36 14zM281 90q20 0 32 -14q10 -11 10 -26q0 -4 -1 -8q-2 -20 -18 -34t-36 -14t-32 14q-10 12 -10 28v6q3 20 19 34t36 14zM72 90q20 0 32 -14q10 -11 10 -26
q0 -4 -1 -8q-2 -20 -18 -34t-36 -14t-32 14q-10 12 -10 28v6q3 20 19 34t36 14z" />
    <glyph glyph-name="perthousand" unicode="&#x2030;" horiz-adv-x="1077" 
d="M859 -3q-72 0 -103 49q-22 33 -22 88q0 25 4 54q6 44 21.5 79t38.5 59.5t52 37.5t62 13q69 0 102 -49q23 -36 23 -93q0 -23 -4 -49q-6 -44 -22 -79t-39.5 -59.5t-52 -37.5t-60.5 -13zM978 229q0 38 -12 59q-20 33 -63 33q-45 0 -71 -31.5t-36 -101.5q-4 -27 -4 -48
q0 -35 11 -55q17 -31 64 -31q44 0 71 31.5t37 100.5q3 24 3 43zM43 -40l610 790l45 -30l-609 -790zM184 327q-71 0 -102 49q-23 35 -23 92q0 24 4 51q6 43 22 78t39.5 60t52.5 38t61 13q69 0 102 -50q23 -36 23 -92q0 -23 -4 -49q-6 -44 -22 -79.5t-39.5 -60t-52.5 -37.5
t-61 -13zM304 560q0 38 -12 59q-20 32 -63 32q-45 0 -70.5 -31t-36.5 -101q-4 -26 -4 -47q0 -36 12 -56q17 -31 63 -31q45 0 71.5 31.5t36.5 100.5q3 24 3 43zM524 -3q-72 0 -104 49q-21 33 -21 88q0 25 4 54q6 44 21.5 79t38.5 59.5t52 37.5t62 13q69 0 101 -49
q24 -36 24 -93q0 -23 -4 -49q-6 -44 -22 -79t-39.5 -59.5t-52 -37.5t-60.5 -13zM643 229q0 38 -13 59q-19 33 -62 33q-45 0 -71 -31.5t-36 -101.5q-4 -27 -4 -48q0 -35 11 -55q17 -31 64 -31q44 0 71 31.5t37 100.5q3 24 3 43z" />
    <glyph glyph-name="guilsinglleft" unicode="&#x2039;" horiz-adv-x="269" 
d="M243 469l-143 -174l95 -174l-53 -29l-108 203l165 203z" />
    <glyph glyph-name="guilsinglright" unicode="&#x203a;" horiz-adv-x="269" 
d="M22 121l143 174l-95 174l52 29l109 -203l-166 -203z" />
    <glyph glyph-name="fraction" unicode="&#x2044;" horiz-adv-x="516" 
d="M5 -34l-41 28l560 748l42 -28z" />
    <glyph glyph-name="Euro" unicode="&#x20ac;" horiz-adv-x="609" 
d="M398 718q34 0 67 -8t60.5 -24t48.5 -40t32 -56l-56 -27q-17 49 -62 72.5t-98 23.5q-35 0 -70 -10t-64 -30t-49 -49.5t-25 -68.5l-11 -76h271l-16 -45h-261l-8 -54h272l-15 -44h-263l-11 -75q-2 -13 -2 -26q0 -23 8 -43q11 -30 34 -49.5t54.5 -29.5t66.5 -10
q54 0 106.5 24t83.5 72l49 -26q-20 -32 -48 -56.5t-61 -40.5t-68.5 -24t-70.5 -8q-45 0 -86.5 13.5t-71.5 40.5t-45 68q-10 27 -10 59q0 17 3 36l11 75h-66l16 44h56l8 54h-63l16 45h53l11 76q7 54 34 94.5t65 68t83.5 41t91.5 13.5z" />
    <glyph glyph-name="uni2113" unicode="&#x2113;" horiz-adv-x="439" 
d="M206 -7q-41 0 -67.5 15.5t-41 42t-18.5 61.5q-2 16 -2 33q0 21 3 43l1 10q-14 -11 -30 -21.5t-31 -22.5l-15 36q23 18 44.5 37t41.5 37l39 278q9 69 28 114.5t42.5 72.5t50 38t51.5 11q28 0 47.5 -12t31 -33t13.5 -50q1 -11 1 -23q0 -19 -2 -39q-14 -97 -81 -192
t-169 -186l-4 -29q-4 -29 -4 -52q0 -15 2 -28q4 -32 15.5 -51.5t29.5 -27.5t40 -8q42 0 77.5 28t57.5 67l35 -31q-36 -57 -83 -87.5t-103 -30.5zM342 658q0 19 -5 33.5t-16 23.5t-30 9q-14 0 -29.5 -8.5t-30 -28.5t-27 -54.5t-19.5 -85.5l-33 -235q73 74 124.5 149t62.5 157
q3 21 3 40z" />
    <glyph glyph-name="trademark" unicode="&#x2122;" horiz-adv-x="833" 
d="M207 659h-130l7 49h312l-7 -49h-130l-48 -341h-52zM445 708h60l88 -279l166 279h61l-55 -390h-53l47 304l-153 -257h-44l-80 253l-40 -300h-52z" />
    <glyph glyph-name="Omega" unicode="&#x2126;" horiz-adv-x="781" 
d="M63 316q0 30 5 62q11 77 46 139.5t87 106.5t117 68t135 24q73 0 129.5 -26.5t93.5 -71.5t52 -106q9 -37 9 -76q0 -26 -4 -54q-8 -57 -27.5 -106t-46.5 -90.5t-58.5 -74t-64.5 -54.5l-1 -3h165l-7 -54h-268l5 37q45 24 85.5 58.5t73 78.5t55 96.5t30.5 111.5q3 19 3 39
q0 31 -7 61q-11 51 -40 91t-75.5 65t-110.5 25q-60 0 -113.5 -21.5t-96 -60t-70.5 -91t-37 -114.5q-4 -26 -4 -51q0 -28 5 -55q9 -49 30 -91.5t52.5 -78.5t69.5 -63l-5 -37h-272l7 54h166l1 3q-28 25 -51.5 58t-39 73.5t-20.5 87.5q-3 20 -3 40z" />
    <glyph glyph-name="estimated" unicode="&#x212e;" horiz-adv-x="887" 
d="M207 344q-5 0 -5 -5v-199q0 -12 8 -23q48 -50 112 -79t137 -29q79 0 146.5 33t115.5 88h59q-55 -64 -139 -102.5t-183 -38.5q-84 0 -158 28.5t-129 78t-87 116t-32 142.5t32 142.5t87 116t129 78.5t158 29t158.5 -29t129.5 -78.5t87 -116t32 -142.5v-10h-658zM716 570
q0 14 -10 24q-48 48 -111 76t-136 28q-72 0 -136 -29t-112 -78q-9 -11 -9 -25v-196q0 -2 1.5 -4.5t3.5 -2.5h505q2 0 3 2.5t1 4.5v200z" />
    <glyph glyph-name="partialdiff" unicode="&#x2202;" horiz-adv-x="510" 
d="M292 753q44 0 83 -21t65.5 -65.5t37.5 -112.5q4 -30 4 -66q0 -44 -7 -96q-12 -87 -38 -160t-63.5 -126.5t-86.5 -83t-109 -29.5q-45 0 -75.5 18t-48.5 48t-24 69q-2 19 -2 39q0 22 3 44q8 57 31 102.5t55.5 77.5t71.5 49t78 17q33 0 58 -10t43 -24t28.5 -29.5t15.5 -26.5
h1q13 57 13 108q0 11 -1 21q-3 61 -20.5 106.5t-49.5 72t-75 26.5q-44 0 -76.5 -13.5t-55.5 -30.5l-16 45q27 19 66 35t94 16zM187 47q34 0 68 20.5t62.5 55t49 80t28.5 95.5q-3 17 -14 36t-28 34.5t-40.5 26t-50.5 10.5q-30 0 -58.5 -15t-52 -41t-40 -61t-22.5 -75
q-3 -21 -3 -39q0 -49 19 -82q26 -45 81 -45h1z" />
    <glyph glyph-name="Delta" unicode="&#x2206;" horiz-adv-x="597" 
d="M392 725l143 -681l-6 -44h-544l6 43l335 682h66zM342 633l-282 -577h402l-116 577h-4z" />
    <glyph glyph-name="product" unicode="&#x220f;" horiz-adv-x="653" 
d="M412 -70l101 723h-279l-101 -723h-57l101 723h-103l8 56h600l-8 -56h-104l-101 -723h-57z" />
    <glyph glyph-name="summation" unicode="&#x2211;" horiz-adv-x="539" 
d="M170 654v-4l192 -339l-304 -343l-1 -4h400l-7 -52h-477l6 42l317 353l-205 357l6 43h449l-8 -53h-368z" />
    <glyph glyph-name="minus" unicode="&#x2212;" horiz-adv-x="638" 
d="M570 279h-499l8 56h499z" />
    <glyph glyph-name="uni2215" unicode="&#x2215;" horiz-adv-x="512" 
d="M3 -34l-41 28l560 748l42 -28z" />
    <glyph glyph-name="uni2219" unicode="&#x2219;" horiz-adv-x="219" 
d="M118 366q20 0 32 -14q10 -11 10 -26q0 -4 -1 -8q-2 -20 -18 -34t-36 -14t-32 14q-10 12 -10 28v6q3 20 19 34t36 14z" />
    <glyph glyph-name="radical" unicode="&#x221a;" horiz-adv-x="522" 
d="M96 311l-74 -26l-12 50l131 48l75 -439l308 893h58l-348 -991h-54z" />
    <glyph glyph-name="infinity" unicode="&#x221e;" horiz-adv-x="739" 
d="M519 140q-23 0 -42.5 6.5t-38 20t-37 34t-39.5 47.5q-21 -20 -43.5 -39.5t-46 -34.5t-49.5 -24.5t-55 -9.5q-30 0 -55 11.5t-41.5 31.5t-24.5 47q-5 17 -5 35q0 12 2 24q4 33 19.5 61t39 48.5t53 32t62.5 11.5q27 0 49.5 -9.5t41.5 -25t35.5 -35.5t32.5 -41l2 3
q21 20 43 39.5t45 34.5t48.5 24.5t54.5 9.5q63 -1 96 -42q26 -32 26 -80q0 -13 -2 -27v-1q-5 -35 -21.5 -63t-40 -47.5t-52 -30.5t-57.5 -11zM182 192q19 0 37.5 8t36.5 20t35 27t32 30l14 12q-13 18 -26.5 36.5t-29.5 32.5t-35.5 23t-43.5 9q-21 0 -39 -8.5t-31 -22.5
t-21.5 -32.5t-11.5 -38.5q-1 -8 -1 -15q0 -30 18 -53q21 -28 65 -28h1zM556 390q-18 0 -36.5 -7.5t-36 -19.5t-33.5 -26.5t-30 -27.5l-18 -17q39 -48 66 -74t62 -26q22 0 40 8.5t31.5 22t21.5 31t11 35.5q2 12 2 22q0 33 -18 53q-22 26 -61 26h-1z" />
    <glyph glyph-name="integral" unicode="&#x222b;" horiz-adv-x="325" 
d="M323 815q-21 0 -37 -13q-17 -13 -29 -37t-16 -57q-5 -39 -12 -96.5t-15 -124.5t-16.5 -138.5t-16.5 -139t-15.5 -125.5t-12.5 -98q-7 -48 -29 -79.5t-51.5 -47.5t-63 -16t-63.5 14l18 44q21 -9 41 -9h7q22 2 40 14t29.5 33t15.5 48q5 40 12.5 99t15.5 126.5t17 140
t17 139.5t15 125t13 97q7 51 29 85t52 51q27 15 58 15h4q32 -1 59 -20l-18 -47q-24 16 -46 16q-1 1 -2 1z" />
    <glyph glyph-name="approxequal" unicode="&#x2248;" horiz-adv-x="539" 
d="M369 303q-29 0 -52 10.5t-54 30.5q-20 12 -39.5 21.5t-41.5 9.5q-23 0 -43 -14t-38 -35l-33 31q27 33 59.5 51t67.5 18q29 0 51 -10.5t39 -21.5l14 -8h-1q3 -2 6.5 -4t7.5 -4q17 -11 32 -17.5t36 -6.5q38 0 76 46l31 -30q-23 -29 -52 -48t-66 -19zM349 158
q-29 0 -52 10.5t-56 30.5q-19 12 -38 22t-41 10q-23 0 -43.5 -13.5t-37.5 -34.5l-34 30q28 34 60 52t68 18q30 0 52 -11t39 -21h-1l13 -8l7 -4q18 -12 35 -20t40 -8q20 0 37 10.5t35 31.5l34 -29q-23 -29 -52 -47.5t-65 -18.5z" />
    <glyph glyph-name="notequal" unicode="&#x2260;" horiz-adv-x="554" 
d="M504 349h-169l-75 -126h226l-8 -53h-248q-15 -26 -34 -56.5t-33 -56.5l-41 22l54 91h-139l8 53h162q20 34 37 63t38 63h-219l7 53h242l67 111l40 -20l-55 -91h147z" />
    <glyph glyph-name="lessequal" unicode="&#x2264;" horiz-adv-x="487" 
d="M403 111l-7 -53h-379l7 53h379zM404 210l-9 -66l-323 207l6 48l382 210l-9 -67l-311 -167z" />
    <glyph glyph-name="greaterequal" unicode="&#x2265;" horiz-adv-x="484" 
d="M409 111l-7 -53h-379l7 53h379zM428 345l-381 -207l9 66l310 165l-263 167l9 67l322 -210z" />
    <glyph glyph-name="lozenge" unicode="&#x25ca;" horiz-adv-x="538" 
d="M30 355l272 388h59l160 -387l-272 -388h-60zM332 635q-4 9 -7 20.5t-5 21.5q-5 -8 -11.5 -19.5t-13.5 -22.5l-195 -278l119 -284q4 -11 6 -22.5t4 -21.5q4 10 11 23t13 21l198 282z" />
    <glyph glyph-name="i.loclTRK" horiz-adv-x="194" 
d="M147 666q20 0 32 -14q10 -11 10 -26q0 -4 -1 -8q-2 -20 -18 -34t-36 -14t-32 14q-10 12 -10 28v6q3 20 19 34t36 14zM155 518l-73 -518h-56l73 518h56z" />
    <glyph glyph-name="f_i" horiz-adv-x="473" 
d="M-32 -149q25 16 36 42.5t15 52.5l84 599q6 42 24 73.5t44.5 52.5t60 31.5t70.5 10.5l-8 -56q-52 0 -89.5 -29t-45.5 -83l-16 -116h112l-8 -56h-112l-60 -427q-7 -47 -28 -80.5t-53 -53.5zM430 690q20 0 32 -14q10 -11 10 -26q0 -4 -1 -8q-2 -20 -18 -34t-36 -14t-32 14
q-10 12 -10 28v6q3 20 19 34t36 14zM436 518l-73 -518h-56l73 518h56z" />
    <glyph glyph-name="f_l" horiz-adv-x="504" 
d="M-32 -149q25 16 36 42.5t15 52.5l84 599q6 42 24 73.5t44.5 52.5t60 31.5t70.5 10.5l-8 -56q-52 0 -89.5 -29t-45.5 -83l-16 -116h112l-8 -56h-112l-60 -427q-7 -47 -28 -80.5t-53 -53.5zM318 119q0 16 3 35l76 555h56l-76 -555q-2 -13 -2 -25q0 -34 15 -55
q21 -28 74 -28l-8 -56q-76 0 -111 43q-27 33 -27 86z" />
    <glyph glyph-name="uni0414.loclBGR" horiz-adv-x="663" 
d="M533 -139l19 139h-525l-19 -139h-59l27 196h66l309 651h75l128 -651h66l-28 -196h-59zM104 57h388l-113 590z" />
    <glyph glyph-name="uni041B.loclBGR" horiz-adv-x="587" 
d="M345 652h-4l-26 -55l-289 -597h-62l348 708h78l150 -708h-62l-123 598z" />
    <glyph glyph-name="uni0432.loclBGR" horiz-adv-x="496" 
d="M315 717q80 0 121 -38q34 -31 34 -89q0 -13 -2 -29q-4 -29 -17 -54.5t-30.5 -46.5t-37 -36t-36.5 -24q21 0 40.5 -9.5t33 -26t19.5 -39.5q5 -14 5 -30q0 -10 -2 -21l-17 -121q-6 -41 -26.5 -71.5t-50 -51t-65 -30.5t-71.5 -10t-69 10t-57 30t-37 51q-8 21 -8 46
q0 13 2 26l57 402q5 38 23.5 68t47 51t65.5 32t78 11zM308 665q-28 0 -54 -7t-46.5 -21t-34.5 -35.5t-18 -51.5l-26 -181q26 8 61 19l75 22q60 18 100 57.5t47 90.5q2 12 2 23q0 84 -106 84zM98 136q0 -18 6 -32q9 -21 27 -34.5t41.5 -19.5t48.5 -6q24 0 49 6.5t46 19.5
t36 33.5t19 49.5l17 121q1 8 1 16q0 16 -5 30q-9 19 -26.5 30.5t-43.5 13.5q-6 1 -13 1q-20 0 -43 -5q-38 -10 -71.5 -20.5t-63.5 -19.5l-24 -167q-1 -9 -1 -17z" />
    <glyph glyph-name="uni0433.loclBGR" horiz-adv-x="438" 
d="M253 528q34 0 63 -8t48.5 -24t28.5 -41q6 -17 6 -39q0 -10 -1 -20q-5 -36 -22 -60t-42.5 -40.5t-57.5 -27.5t-67 -21q-61 -18 -97 -40.5t-43 -68.5q-1 -11 -1 -21q0 -38 21 -55q28 -23 85 -23q54 0 96 17.5t74 46.5l30 -32q-39 -39 -92 -60t-115 -21q-80 0 -122 36
q-33 30 -33 82q0 13 2 27q5 33 19.5 57.5t37.5 43t55 31.5t72 24q27 8 52 16.5t44.5 20t33 28t16.5 39.5q1 7 1 14q0 66 -97 66q-41 0 -77 -13.5t-65 -38.5l-31 36q42 35 87.5 52t90.5 17z" />
    <glyph glyph-name="uni0434.loclBGR" horiz-adv-x="508" 
d="M174 -168q28 0 54.5 7t48.5 20.5t37 34.5t20 50l12 77q-35 -17 -71 -24t-72 -7q-37 0 -70.5 10.5t-58 31.5t-37 52.5t-6.5 72.5l28 205q6 41 27 72t50.5 52t65.5 31.5t72 10.5q35 0 88 -10t104 -33l-77 -540q-6 -42 -26.5 -73t-50 -51t-66 -29.5t-74.5 -9.5q-50 0 -93 17
t-68 49l43 35q16 -25 49 -38t71 -13zM268 474q-26 0 -51.5 -7t-46.5 -21t-36 -34.5t-18 -48.5l-29 -205q-5 -27 2.5 -48.5t24 -36.5t40.5 -22.5t53 -7.5q35 1 72.5 9t73.5 25l53 371q-22 10 -59 18t-79 8zM11 0z" />
    <glyph glyph-name="uni0436.loclBGR" horiz-adv-x="719" 
d="M476 286l182 -286h-68l-159 248l-59 -50l-29 -198h-54l29 198l-45 50l-230 -248h-68l265 286l-194 232h70l211 -253l62 443h54l-61 -443l280 253h71z" />
    <glyph glyph-name="uni0438.loclBGR" 
d="M213 -10q-36 0 -69 11t-57 32t-36 52q-8 21 -8 46q0 13 2 27l50 360h56l-51 -362q-1 -8 -1 -16q0 -17 6 -32q9 -20 26 -34t40.5 -21t49.5 -7q42 0 82 10.5t65 20.5l62 441h56l-68 -487l-59 -17q-35 -10 -73 -17t-73 -7z" />
    <glyph glyph-name="uni0439.loclBGR" horiz-adv-x="512" 
d="M299 582q-40 0 -70.5 27t-30.5 79h52q2 -26 19 -40t38 -14q20 0 40.5 14t31.5 40h51q-15 -52 -53 -79t-78 -27zM208 -10q-35 0 -67.5 10.5t-56 30.5t-35.5 51q-8 20 -8 45q0 12 2 26l52 365h55l-52 -366q-1 -7 -1 -13q0 -19 7 -34q9 -20 25.5 -34t39 -21.5t46.5 -7.5
q38 0 75 5.5t66 16.5l64 454h55l-69 -493q-63 -21 -111.5 -28t-86.5 -7z" />
    <glyph glyph-name="uni043A.loclBGR" horiz-adv-x="482" 
d="M116 246l311 272h70l-265 -234l191 -284h-69l-166 244l-82 -72l-24 -172h-56l99 708h56z" />
    <glyph glyph-name="uni043B.loclBGR" horiz-adv-x="440" 
d="M244 465h-3l-35 -88l-179 -377h-57l246 515h72l93 -515h-58l-67 378z" />
    <glyph glyph-name="uni043F.loclBGR" 
d="M467 387q0 -12 -2 -26l-50 -361h-56l50 361q1 9 1 17q0 17 -6 32q-9 21 -26.5 35t-41 20.5t-48.5 6.5q-42 0 -82 -10t-65 -20l-61 -442h-56l68 487q51 17 102 29t102 12q36 -1 69 -11.5t57 -31t36 -51.5q9 -21 9 -47z" />
    <glyph glyph-name="uni0442.loclBGR" horiz-adv-x="813" 
d="M270 528q48 0 89 -16t65 -54q34 35 77 52.5t84 17.5q39 0 72.5 -10.5t57 -32.5t34.5 -55q7 -21 7 -46q0 -14 -2 -30l-49 -354h-57l49 354q1 11 1 20q0 19 -5 34q-8 23 -24.5 37t-40 20.5t-49.5 6.5q-21 0 -43.5 -6t-42 -18t-34 -30t-17.5 -42l-53 -376h-55l53 376
q1 6 1 11q0 18 -8 32q-10 18 -29 30t-44.5 17.5t-52.5 5.5q-32 0 -61.5 -7.5t-49.5 -21.5l-62 -443h-57l68 484q37 19 84 31.5t94 12.5z" />
    <glyph glyph-name="uni0446.loclBGR" horiz-adv-x="534" 
d="M210 -9q-35 0 -67.5 10.5t-56.5 30.5t-36 51q-8 20 -8 45q0 12 2 26l51 365h55l-51 -366q-1 -8 -1 -16q0 -17 6 -31q9 -20 26 -34t39.5 -21.5t46.5 -7.5q35 0 71.5 4.5t65.5 16.5l64 455h55l-62 -442h67q-9 -57 -21 -106.5t-25 -92.5h-45l24 147l-23 -1
q-38 -16 -85 -24.5t-92 -8.5z" />
    <glyph glyph-name="uni0448.loclBGR" horiz-adv-x="784" 
d="M205 -10q-38 0 -70 10t-54 30.5t-32 51.5q-6 20 -6 44q0 14 2 30l50 362h56l-51 -360q-1 -11 -1 -20q0 -19 4 -33q8 -22 23.5 -35.5t37 -19.5t46.5 -6q21 0 43.5 6.5t41.5 18t32.5 28.5t16.5 40l53 381h54l-53 -381q-1 -6 -1 -12q0 -17 7 -30q9 -18 26 -29.5t40.5 -17.5
t49.5 -6q30 0 59 7t50 20l63 449h55l-67 -484q-38 -20 -83 -32t-87 -12q-45 0 -85.5 16t-63.5 54q-36 -39 -75 -54.5t-81 -15.5z" />
    <glyph glyph-name="uni0449.loclBGR" horiz-adv-x="809" 
d="M205 -10q-38 0 -70.5 10t-54.5 30.5t-32 51.5q-6 20 -6 44q0 14 2 30l51 362h55l-50 -360q-2 -12 -2 -23q0 -17 4 -30q8 -22 23.5 -35.5t37 -19.5t46.5 -6q21 0 43.5 7t41.5 19t32.5 29t16.5 38l53 381h54l-54 -381q-1 -6 -1 -12q0 -17 7 -30q9 -18 26.5 -29.5t41 -17.5
t49.5 -6q30 0 59 6t50 17l63 453h56l-62 -442h66q-8 -57 -20 -106.5t-26 -91.5h-44l24 146l-24 -1q-35 -16 -74.5 -24.5t-78.5 -8.5q-44 0 -84.5 16t-63.5 54q-36 -39 -74.5 -54.5t-80.5 -15.5z" />
    <glyph glyph-name="uni044E.loclBGR" horiz-adv-x="707" 
d="M495 528q36 0 68.5 -10.5t56.5 -31t36 -50.5q8 -21 8 -45q0 -13 -2 -26l-30 -212q-6 -41 -26.5 -71.5t-50 -50.5t-65 -30.5t-71.5 -10.5t-69 10.5t-57 30.5t-37 51q-8 20 -8 46q0 12 2 25l13 94h-148l-35 -247h-55l100 708h55l-57 -409h148l8 66q6 40 27 70.5t51 51
t66 31t72 10.5zM487 473q-25 0 -50 -6t-46.5 -19.5t-37 -34t-19.5 -48.5l-29 -212q-1 -9 -1 -17q0 -18 6 -32q9 -21 27 -34t41.5 -19.5t48.5 -6.5q24 0 49 6.5t46 19.5t36 33.5t19 49.5l30 212q1 9 1 17q0 17 -6 32q-9 20 -26.5 33.5t-41 19.5t-47.5 6z" />
    <glyph glyph-name=".ttfautohint" horiz-adv-x="240" 
d="M0 0z" />
    </font>
</defs>
</svg>
