<?xml version="1.0" standalone="no"?>
<!DOCTYPE svg PUBLIC "-//W3C//DTD SVG 1.1//EN" "http://www.w3.org/Graphics/SVG/1.1/DTD/svg11.dtd" >
<svg xmlns="http://www.w3.org/2000/svg" xmlns:xlink="http://www.w3.org/1999/xlink" version="1.1">
<metadata>
Created by FontForge 20161013 at Sun Mar  1 19:23:46 2015
 By ,,,
Copyright (c) 2014 by (c) 2009 Designed by Svetoslav Simov (c) Fontfabric, Inc. All rights reserved.
</metadata>
<defs>
<font id="UniSansSemiBoldItalic" horiz-adv-x="512" >
  <font-face 
    font-family="UniSansSemiBoldItalic"
    font-weight="400"
    font-style="italic"
    font-stretch="normal"
    units-per-em="1000"
    panose-1="0 0 5 0 0 0 0 0 0 0"
    ascent="779"
    descent="-221"
    x-height="518"
    cap-height="708"
    bbox="-79 -244 1045 941"
    underline-thickness="50"
    underline-position="-150"
    unicode-range="U+0020-FB02"
  />
<missing-glyph horiz-adv-x="588" 
d="M542 0h-518l98 700h518zM478 594h-223l89 -164zM286 351q-8 15 -15.5 28.5t-16.5 31t-21.5 41t-30.5 58.5l-44 -316zM506 510q-28 -35 -47 -58.5t-33 -41t-25 -31t-23 -28.5l84 -157zM410 107q-5 7 -10.5 16.5t-15 27t-24 46t-38.5 74.5l-135 -164h223z" />
    <glyph glyph-name="fi" unicode="fi" horiz-adv-x="519" 
d="M461 709q31 0 50 -21q14 -17 14 -39q0 -6 -1 -13q-5 -31 -28.5 -52t-54.5 -21t-49 21q-14 16 -14 39q0 6 1 13q5 31 28 52t54 21zM419 0h-110l73 519h110zM-31 -106q27 20 35 45.5t10 42.5l77 550q6 45 27.5 78.5t53.5 55.5t72.5 33.5t85.5 11.5l-15 -108
q-46 0 -78 -18.5t-37 -52.5l-7 -41h99l-15 -108h-99l-55 -401q-14 -100 -112 -156z" />
    <glyph glyph-name="fl" unicode="fl" horiz-adv-x="557" 
d="M332 136q0 16 2 32l75 540h110l-75 -540q-1 -7 -1 -13q0 -24 15 -41q18 -21 65 -21l-14 -103q-97 0 -141 48q-36 38 -36 98zM-31 -106q27 20 35 45.5t10 42.5l77 550q6 45 27.5 78.5t53.5 55.5t72.5 33.5t85.5 11.5l-15 -108q-46 0 -78 -18.5t-37 -52.5l-7 -41h99
l-15 -108h-99l-55 -401q-14 -100 -112 -156z" />
    <glyph glyph-name=".notdef" horiz-adv-x="588" 
d="M542 0h-518l98 700h518zM478 594h-223l89 -164zM286 351q-8 15 -15.5 28.5t-16.5 31t-21.5 41t-30.5 58.5l-44 -316zM506 510q-28 -35 -47 -58.5t-33 -41t-25 -31t-23 -28.5l84 -157zM410 107q-5 7 -10.5 16.5t-15 27t-24 46t-38.5 74.5l-135 -164h223z" />
    <glyph glyph-name=".null" horiz-adv-x="0" 
 />
    <glyph glyph-name="nonmarkingreturn" horiz-adv-x="333" 
 />
    <glyph glyph-name="space" unicode=" " horiz-adv-x="200" 
 />
    <glyph glyph-name="exclam" unicode="!" horiz-adv-x="235" 
d="M117 708h112l-75 -534h-112zM92 136q31 0 50 -21q14 -17 14 -39q0 -6 -1 -13q-5 -31 -28.5 -52t-54.5 -21t-49 21q-14 16 -14 39q0 6 1 13q5 31 28 52t54 21z" />
    <glyph glyph-name="quotedbl" unicode="&#x22;" horiz-adv-x="353" 
d="M310 456h-97l36 252h110zM168 456h-97l36 252h110z" />
    <glyph glyph-name="numbersign" unicode="#" horiz-adv-x="731" 
d="M629 197h-158q-19 -42 -33 -74t-24 -55.5t-17 -40t-12 -28.5h-116l85 198h-101l-85 -198h-117l86 198h-125l38 109h135q11 23 19 40t18 41h-147l38 110h156q20 45 41 94t41 94h118l-82 -188h100l82 188h117l-84 -188h131l-45 -110h-134l-33 -81h148zM403 306l35 81h-100
l-35 -81h100z" />
    <glyph glyph-name="dollar" unicode="$" horiz-adv-x="581" 
d="M534 246q0 -25 -6 -55q-8 -42 -30 -75t-53 -57t-69 -39t-77 -20l-14 -94h-104l14 94q-32 5 -62 18t-54.5 33.5t-43.5 48.5t-29 64l109 45q11 -39 38 -63t58 -32l28 202q-38 9 -72 22t-58 35t-35 56q-5 17 -5 38t6 48q7 42 26.5 74.5t48.5 56t65.5 38t77.5 19.5l13 92h104
l-13 -92q64 -10 116 -50t73 -111l-109 -46q-11 39 -37.5 63t-58.5 31l-25 -181q39 -9 75.5 -22t61.5 -37.5t36 -62.5q5 -18 5 -41zM183 492q0 -7 2 -14q4 -12 13.5 -21t24 -15.5t32.5 -11.5l22 158q-32 -9 -58.5 -29t-33.5 -50v-1q-2 -9 -2 -16zM418 212q0 11 -2 20
q-5 16 -15.5 27.5t-26 20t-34.5 14.5l-25 -180q35 8 63.5 29.5t38.5 53.5q1 8 1 15z" />
    <glyph glyph-name="percent" unicode="%" horiz-adv-x="754" 
d="M623 734l83 -59l-595 -748l-82 59zM180 340q-70 0 -102 47q-23 33 -23 89q0 23 4 49q6 42 22 75t39 56.5t51.5 36t60.5 12.5q70 0 102 -47q23 -34 23 -90q0 -21 -3 -45q-6 -43 -22 -77t-39 -57.5t-52 -36t-61 -12.5zM267 555q0 27 -8 42q-13 23 -42 23q-28 0 -45.5 -22.5
t-25.5 -72.5q-3 -21 -3 -38q0 -24 7 -37q12 -23 41 -23q30 0 48.5 23t25.5 73q2 18 2 32zM536 -4q-70 0 -102 47q-23 33 -23 89q0 23 4 49q6 42 21.5 75t38.5 56.5t51.5 36t60.5 12.5q70 0 103 -47q23 -34 23 -91q0 -20 -3 -44q-6 -43 -22 -77t-39 -57.5t-52 -36t-61 -12.5z
M623 212q0 27 -9 42q-13 23 -42 23q-28 0 -45.5 -22.5t-24.5 -72.5q-3 -22 -3 -38q0 -24 7 -38q11 -22 40 -22q30 0 49 23t26 73q2 17 2 32z" />
    <glyph glyph-name="ampersand" unicode="&#x26;" horiz-adv-x="642" 
d="M208 -4q-45 0 -83 14.5t-63.5 41t-37.5 64.5q-7 24 -7 51q0 17 3 35q5 35 19.5 63t35 50.5t45.5 40t51 32.5q-20 30 -33 63q-9 24 -9 52q0 11 1 22q6 40 25.5 71.5t48.5 53t64 32.5t71 11q33 0 62 -11.5t49.5 -32.5t30.5 -50q7 -19 7 -41q0 -11 -2 -23q-5 -34 -18 -59.5
t-32 -45.5t-43 -36t-49 -29l80 -102l55 74l91 -48l-79 -106l106 -145h-145l-39 50q-44 -43 -92.5 -67.5t-112.5 -24.5zM322 592q-29 0 -52.5 -18t-27.5 -47q-1 -6 -1 -12q0 -17 9 -35q12 -24 28 -44q16 8 33 17.5t30.5 21.5t23 26t11.5 31q1 6 1 11q0 19 -12 33
q-15 16 -43 16zM124 185q0 -36 24 -59q30 -28 80 -28q35 0 66.5 19t57.5 46l-124 150q-17 -10 -34.5 -21.5t-31.5 -25t-24 -29.5t-13 -35q-1 -9 -1 -17z" />
    <glyph glyph-name="quotesingle" unicode="'" horiz-adv-x="213" 
d="M172 455h-97l36 252h110z" />
    <glyph glyph-name="parenleft" unicode="(" horiz-adv-x="293" 
d="M146 256q0 -58 14 -114q21 -92 66 -186l-97 -58q-59 103 -81 216q-13 70 -13 136q0 42 5 82q16 109 70 222.5t137 210.5l81 -59q-39 -41 -69 -88.5t-51.5 -96.5t-35.5 -97.5t-20 -91.5q-6 -39 -6 -76z" />
    <glyph glyph-name="parenright" unicode=")" horiz-adv-x="296" 
d="M152 390q0 56 -10 112q-19 99 -67 194l98 59q29 -51 49 -108.5t31 -116t13 -116.5v-20q0 -47 -6 -90q-15 -109 -69 -222t-139 -211l-86 62q38 41 68.5 88t53.5 95.5t37.5 96t20.5 91.5q6 43 6 86z" />
    <glyph glyph-name="asterisk" unicode="*" horiz-adv-x="446" 
d="M450 529l-120 -35l59 -98l-87 -60l-61 100l-86 -100l-75 58l89 101l-111 36l42 97l113 -38l17 120h100l-17 -121l121 37z" />
    <glyph glyph-name="plus" unicode="+" horiz-adv-x="572" 
d="M275 586h111l-28 -198h196l-16 -112h-196l-28 -201h-111l28 201h-204l16 112h204z" />
    <glyph glyph-name="comma" unicode="," horiz-adv-x="246" 
d="M54 -122h-111l111 262h125z" />
    <glyph glyph-name="hyphen" unicode="-" horiz-adv-x="385" 
d="M322 239h-278l16 112h278z" />
    <glyph glyph-name="period" unicode="." horiz-adv-x="226" 
d="M90 140q31 0 50 -21q14 -17 14 -39q0 -6 -1 -13q-5 -31 -28.5 -52t-54.5 -21t-49 21q-14 16 -14 39q0 6 1 13q5 31 28 52t54 21z" />
    <glyph glyph-name="slash" unicode="/" horiz-adv-x="438" 
d="M75 -40l-98 37l400 746l97 -36z" />
    <glyph glyph-name="zero" unicode="0" horiz-adv-x="609" 
d="M32 168q0 16 3 33l42 305q7 55 36 95t69.5 66t88 38.5t92.5 12.5t89 -12.5t76.5 -38.5t49.5 -66q12 -28 12 -64q0 -15 -2 -31l-42 -305q-8 -54 -36 -94t-68.5 -66t-88 -38.5t-92.5 -12.5t-89 12.5t-77 38.5t-51 66q-12 27 -12 61zM145 191q0 -18 7 -32q11 -19 30.5 -31
t44.5 -17t49 -5t50 5t48.5 17t38.5 31t20 47l43 295q1 8 1 15q0 18 -7 32q-11 20 -30 31.5t-44 16.5t-49 5t-50.5 -5t-49 -16.5t-38.5 -31t-20 -47.5l-43 -295q-1 -8 -1 -15z" />
    <glyph glyph-name="one" unicode="1" horiz-adv-x="334" 
d="M119 0l76 534l-85 -79l-76 69l200 184h96l-100 -708h-111z" />
    <glyph glyph-name="two" unicode="2" horiz-adv-x="566" 
d="M327 601q-51 0 -95.5 -24.5t-71.5 -70.5l-95 41q47 83 123 127t159 44q61 0 103.5 -19.5t67.5 -51.5t32 -74q4 -17 4 -36q0 -25 -6 -51q-11 -45 -38.5 -89.5t-71.5 -82.5l-234 -198h294l-16 -116h-460l-23 79l370 314q38 34 57 71q16 31 16 58v10q-4 30 -31.5 49.5
t-83.5 19.5z" />
    <glyph glyph-name="three" unicode="3" horiz-adv-x="589" 
d="M263 106q28 0 55 6.5t49.5 20t37.5 34t19 47.5q2 12 2 23q0 41 -24 62q-30 25 -87 25h-4h-84l14 105h84q44 0 75 21.5t38 64.5q1 6 1 12q0 15 -7 27q-8 17 -24 27.5t-37 15t-43 4.5q-41 0 -81 -20t-70 -64l-93 52q23 37 53.5 64.5t65 46.5t70.5 28.5t71 9.5
q45 0 85.5 -12.5t70 -37.5t44.5 -64q9 -25 9 -57q0 -15 -2 -32q-5 -35 -26 -72t-69 -58q30 -13 48.5 -31.5t27.5 -41t10 -47.5v-10q0 -20 -3 -42q-9 -56 -37.5 -98t-69.5 -69.5t-90 -41t-99 -13.5q-39 0 -76.5 10.5t-70 31t-57.5 51.5t-39 72l111 49q9 -24 24.5 -42.5
t35.5 -31t44 -19t48 -6.5z" />
    <glyph glyph-name="four" unicode="4" horiz-adv-x="562" 
d="M506 170h-52l-24 -170h-112l24 170h-290l-53 87l424 451h106l-61 -432h52zM422 584h-15q-20 -27 -36 -49q-14 -19 -25.5 -35.5t-13.5 -18.5l-185 -205h212l29 187q10 34 17 60q6 23 11 42t6 19z" />
    <glyph glyph-name="five" unicode="5" horiz-adv-x="576" 
d="M258 106q27 0 54 6.5t49.5 20t38 33.5t18.5 47l5 39q1 7 1 13q0 19 -7 33q-9 19 -26.5 31t-42 17.5t-52.5 5.5q-45 0 -83.5 -9.5t-85.5 -29.5l-64 -2l56 396h447l-17 -115h-335l-20 -144q29 8 58 14q25 4 51 4h9q46 0 90 -12.5t76 -38.5t48 -66q12 -27 12 -61
q0 -17 -3 -35l-6 -41q-8 -55 -36 -96.5t-68 -69.5t-88.5 -42t-96.5 -14q-37 0 -72.5 10t-66 30.5t-54.5 50.5t-38 69l108 48q17 -45 56.5 -68.5t84.5 -23.5z" />
    <glyph glyph-name="six" unicode="6" horiz-adv-x="604" 
d="M354 601q-29 0 -56.5 -6t-50.5 -19t-38.5 -32t-19.5 -44l-15 -104q17 19 38 31.5t42 19.5t41.5 9.5t37.5 2.5q49 0 93.5 -13.5t77 -40.5t48.5 -67q11 -27 11 -61q0 -15 -2 -31l-6 -44q-7 -53 -34 -92.5t-67 -66t-88.5 -40t-97.5 -13.5q-50 0 -95.5 13t-78.5 39.5
t-50 66.5q-12 27 -12 60q0 16 3 33l43 304q7 53 35 93t68.5 66.5t89.5 39.5t99 13q38 0 72.5 -7.5t64 -25t52 -44.5t35.5 -66l-108 -41q-12 37 -49 52t-83 15zM450 257q0 18 -8 32q-9 19 -27.5 32t-44 19.5t-53.5 6.5q-29 0 -56.5 -6.5t-50.5 -19t-38.5 -32t-18.5 -44.5
l-5 -37q-1 -6 -1 -12q0 -18 8 -33q10 -19 29 -31.5t45 -19t55 -6.5q28 0 55.5 6.5t49.5 19.5t37 32t18 44l5 37q1 6 1 12z" />
    <glyph glyph-name="seven" unicode="7" horiz-adv-x="518" 
d="M534 708l25 -70l-443 -638h-127l410 592h-324l17 116h442z" />
    <glyph glyph-name="eight" unicode="8" horiz-adv-x="612" 
d="M253 -10q-55 0 -100.5 15.5t-76 45.5t-44.5 73q-9 29 -9 63q0 17 2 36q3 21 12 45t24 47t37.5 43t52.5 33q-19 9 -30.5 24t-17.5 33.5t-7 37.5v12q0 12 1 23q7 54 32 91.5t61 61t78.5 34t86.5 10.5h17q44 0 84 -11t69 -35t43 -62q9 -25 9 -56q0 -16 -2 -33
q-5 -35 -25.5 -72.5t-62.5 -54.5q28 -12 45 -30.5t25 -41t9 -48.5v-10q0 -20 -3 -41q-9 -56 -35 -99t-65 -73t-88.5 -45.5t-104.5 -15.5h-17zM341 619q-23 0 -45 -6.5t-40.5 -18.5t-31 -29.5t-15.5 -40.5q-1 -7 -1 -13q0 -17 6 -29q9 -18 24.5 -28.5t36.5 -15.5t43 -5t46 5
t44.5 15.5t35.5 28t18 42.5q1 7 1 13q0 15 -5 27q-8 18 -23 30t-35 18.5t-42 6.5h-17zM285 97q25 0 52.5 7.5t50.5 22.5t39.5 37t20.5 51q2 12 2 23q0 19 -6 34q-9 24 -27.5 38.5t-44 21t-54.5 6.5h-17q-29 0 -56 -6.5t-49.5 -21t-38 -38t-20.5 -57.5q-1 -8 -1 -15
q0 -20 8 -36q10 -22 29 -37t44 -22.5t50 -7.5h18z" />
    <glyph glyph-name="nine" unicode="9" horiz-adv-x="607" 
d="M268 106q29 0 57 6t50.5 18t38 30.5t18.5 44.5l14 100q-14 -17 -33 -28.5t-40.5 -18.5t-43.5 -10t-41 -3q-49 0 -93.5 13.5t-76.5 40t-48 65.5q-13 29 -13 66q0 13 2 27l6 49q6 53 33.5 92.5t67.5 66t89 40t98 13.5q50 0 95.5 -13t78.5 -39.5t49 -66.5q12 -28 12 -63
q0 -14 -2 -30l-42 -302q-8 -53 -36 -93t-68.5 -67t-89.5 -40.5t-98 -13.5q-38 0 -74 10t-66.5 29.5t-55 49t-37.5 67.5l99 46q23 -48 63.5 -67t86.5 -19zM171 445q0 -18 7 -32q10 -19 28.5 -31.5t44 -19t53.5 -6.5q29 0 57 6t51 19t38 31.5t18 44.5l5 43q1 6 1 12
q0 18 -8 33q-10 19 -28.5 31.5t-44.5 18.5t-55 6q-28 0 -55.5 -6t-50 -19t-37.5 -32t-18 -44l-5 -43q-1 -6 -1 -12z" />
    <glyph glyph-name="colon" unicode=":" horiz-adv-x="254" 
d="M105 153q31 0 50 -21q14 -17 14 -39q0 -6 -1 -13q-5 -31 -28.5 -52t-54.5 -21t-49 21q-14 16 -14 39q0 6 1 13q5 31 28 52t54 21zM152 487q31 0 50 -21q14 -17 14 -39q0 -6 -1 -13q-5 -31 -28.5 -52t-54.5 -21t-49 21q-14 16 -14 39q0 6 1 13q5 31 28 52t54 21z" />
    <glyph glyph-name="semicolon" unicode=";" horiz-adv-x="266" 
d="M153 474q31 0 50 -21q14 -17 14 -39q0 -6 -1 -13q-5 -31 -28.5 -52t-54.5 -21t-49 21q-14 16 -14 39q0 6 1 13q5 31 28 52t54 21zM71 -122h-111l111 262h125z" />
    <glyph glyph-name="less" unicode="&#x3c;" horiz-adv-x="444" 
d="M169 298q10 -7 23 -14.5t35 -21t57.5 -35.5t91.5 -57l-18 -128l-340 217l11 77l402 221l-18 -128z" />
    <glyph glyph-name="equal" unicode="=" horiz-adv-x="531" 
d="M478 324h-420l15 108h420zM454 153h-420l15 106h420z" />
    <glyph glyph-name="greater" unicode="&#x3e;" horiz-adv-x="447" 
d="M415 259l-403 -217l18 128l247 129l-210 129l18 129l341 -221z" />
    <glyph glyph-name="question" unicode="?" horiz-adv-x="489" 
d="M288 718q44 0 83.5 -14t67.5 -41t41 -67q9 -26 9 -56q0 -18 -3 -37q-7 -48 -26.5 -86t-48 -65t-64 -44t-74.5 -23l-26 -124h-99l23 219q20 -4 38 -4q25 0 47 8q39 13 66.5 38t41.5 57q10 24 10 46q0 7 -2 15q-4 28 -28.5 47.5t-73.5 19.5q-32 0 -68 -17.5t-69 -52.5
l-69 63q49 64 108 91t116 27zM193 124q31 0 49 -21q15 -17 15 -39q0 -6 -1 -13q-5 -31 -28.5 -52t-54.5 -21t-49 21q-14 16 -14 39q0 6 1 13q5 31 28 52t54 21z" />
    <glyph glyph-name="at" unicode="@" horiz-adv-x="753" 
d="M643 448q0 30 -7 54q-13 39 -41 65t-68 39t-87 13q-62 0 -113.5 -23t-90.5 -60.5t-63.5 -85.5t-33.5 -98q-4 -26 -4 -51q0 -39 11 -75q17 -58 61 -95t113 -46q16 -2 32 -2q57 0 127 24l30 -80q-50 -19 -88.5 -27t-71.5 -8q-92 0 -154.5 28t-99 77t-48.5 115q-6 34 -6 71
q0 34 5 70q10 75 47 141t92 114.5t123.5 76.5t143.5 28q71 0 128.5 -23t96 -63t55.5 -95q12 -35 12 -75q0 -21 -3 -42q-9 -62 -36 -114.5t-64.5 -91.5t-81.5 -61t-87 -22q-20 0 -38 9t-26 30q-45 -28 -87 -28q-1 0 -2 1q-43 0 -74.5 20.5t-48.5 57.5q-12 26 -12 57
q0 13 2 27q6 40 18.5 77.5t33 69.5t48 58t62.5 42q21 10 49 16q22 5 44 5h11q26 -2 46 -13.5t25 -35.5l11 23l72 -14l-105 -304q22 1 44.5 18.5t42 45t34 60.5t19.5 65q2 18 2 35zM288 289q0 -16 8 -29q10 -18 31 -18q24 0 48 17t43 42.5t32.5 54.5t16.5 54q1 10 1 18
q0 16 -4 28q-8 17 -29 17h-3q-29 0 -54 -16q-25 -17 -43.5 -42.5t-30 -56t-15.5 -57.5q-1 -6 -1 -12z" />
    <glyph glyph-name="A" unicode="A" horiz-adv-x="627" 
d="M587 0h-121l-44 184h-254l-89 -184h-124l354 708h121zM346 591l-40 -114l-82 -177h175l-33 179l-6 112h-14z" />
    <glyph glyph-name="B" unicode="B" horiz-adv-x="624" 
d="M580 253q0 -20 -3 -42q-9 -59 -34 -99t-61.5 -65t-83 -36t-98.5 -11h-275l99 709h276q44 0 81.5 -12t63.5 -36.5t38 -61.5q8 -23 8 -52q0 -16 -3 -34q-5 -36 -25.5 -73.5t-58.5 -60.5q27 -12 43 -30t24 -40t9 -47v-9zM360 426q44 0 75.5 21t38.5 70q1 7 1 14q0 31 -22 47
q-27 19 -69 19h-160l-24 -171h160zM325 111q23 0 44 5q25 5 44.5 17.5t32 32.5t16.5 49q2 12 2 22q0 41 -26 61q-31 24 -87 24h-5h-160l-30 -211h160h9z" />
    <glyph glyph-name="C" unicode="C" horiz-adv-x="599" 
d="M379 718q39 0 76 -10t68.5 -30t56 -50.5t37.5 -71.5l-110 -51q-19 48 -59.5 72.5t-87.5 24.5q-29 0 -58.5 -7t-53.5 -21t-40 -35t-20 -49l-37 -272q-1 -8 -1 -15q0 -19 8 -34q10 -21 30 -35t47 -21t56 -7q48 0 95 24t79 72l97 -48q-26 -41 -59 -72t-71 -51.5t-78 -30.5
t-79 -10q-51 0 -97.5 14t-80.5 42.5t-51 71.5q-13 30 -13 66q0 16 3 34l37 272q8 57 37.5 99.5t72 71t93.5 43t103 14.5z" />
    <glyph glyph-name="D" unicode="D" horiz-adv-x="634" 
d="M377 708q52 0 98 -13t79 -40.5t49 -69.5q11 -28 11 -63q0 -18 -3 -37l-38 -266q-8 -58 -35.5 -99.5t-68 -68t-90 -39t-101.5 -12.5h-254l99 708h254zM294 116q30 0 57.5 5.5t50 18t37 32t18.5 47.5l38 266q1 8 1 16q0 18 -6 33q-10 20 -28.5 33t-44.5 19t-56 6h-139
l-67 -476h139z" />
    <glyph glyph-name="E" unicode="E" horiz-adv-x="576" 
d="M198 412h323l-16 -116h-323l-25 -180h351l-16 -116h-467l99 709h467l-16 -116h-351z" />
    <glyph glyph-name="F" unicode="F" horiz-adv-x="564" 
d="M196 393h307l-17 -116h-307l-38 -277h-116l99 708h466l-16 -116h-350z" />
    <glyph glyph-name="G" unicode="G" horiz-adv-x="631" 
d="M378 718q39 0 75.5 -8.5t67.5 -27.5t55 -48t38 -70l-111 -52q-17 48 -57.5 68.5t-86.5 20.5q-29 0 -57.5 -7t-52 -21t-40 -35t-20.5 -49l-38 -269q-1 -8 -1 -15q0 -20 8 -35q10 -22 30 -36t47.5 -21t56.5 -7q30 0 59.5 7t54 21t41 35.5t20.5 50.5l7 56h-199l16 111h314
l-23 -166q-8 -58 -37.5 -101.5t-72.5 -72t-94 -42.5t-103 -14q-51 0 -98 14t-81 42.5t-51 72.5q-12 29 -12 65q0 17 3 36l38 271q8 57 37.5 99t71.5 70.5t93 42.5t102 14z" />
    <glyph glyph-name="H" unicode="H" horiz-adv-x="681" 
d="M140 0h-116l99 708h116l-42 -297h315l42 297h116l-99 -708h-116l41 296h-315z" />
    <glyph glyph-name="I" unicode="I" horiz-adv-x="250" 
d="M140 0h-115l99 708h115z" />
    <glyph glyph-name="J" unicode="J" horiz-adv-x="596" 
d="M225 -11q-44 0 -84.5 13.5t-72.5 40.5t-52 67.5t-23 94.5l119 19q1 -30 13 -52.5t30 -37t41 -21.5t48 -7q27 0 54 7t49.5 21.5t38 35.5t19.5 49l54 382h-176l15 107h292l-69 -493q-8 -56 -37 -98.5t-70 -71t-90.5 -42.5t-98.5 -14z" />
    <glyph glyph-name="K" unicode="K" horiz-adv-x="628" 
d="M545 708h143l-366 -342l269 -366h-147l-216 284l-57 -50l-32 -234h-115l99 708h115l-44 -313z" />
    <glyph glyph-name="L" unicode="L" horiz-adv-x="517" 
d="M124 708h115l-83 -592h323l-16 -116h-438z" />
    <glyph glyph-name="M" unicode="M" horiz-adv-x="785" 
d="M123 708h129l130 -460l262 460h130l-99 -708h-116l45 325l49 192h-10l-83 -167l-152 -252h-91l-81 252l-35 170h-10l-7 -196l-45 -324h-115z" />
    <glyph glyph-name="N" unicode="N" horiz-adv-x="681" 
d="M24 0l99 708h122l187 -418l53 -141l8 2l4 152l57 405h116l-99 -708h-135l-184 410l-47 135l-7 -2l-3 -148l-55 -395h-116z" />
    <glyph glyph-name="O" unicode="O" horiz-adv-x="668" 
d="M392 718q54 0 103.5 -14.5t86 -43t54.5 -71.5q13 -30 13 -67q0 -16 -2 -33l-39 -269q-8 -57 -39 -100.5t-75.5 -72t-98 -43t-107.5 -14.5t-103.5 14.5t-85.5 43t-54 72.5q-12 30 -12 66q0 16 2 34l39 269q8 57 38.5 100t74.5 71.5t97.5 43t107.5 14.5zM150 207
q0 -21 8 -37q12 -21 33.5 -35t51.5 -21.5t62 -7.5q33 0 65 7.5t58 21.5t44 35.5t22 50.5l38 265q1 8 1 15q0 21 -9 37q-11 22 -33.5 36t-52.5 20.5t-62 6.5t-64 -7t-58 -21t-43.5 -35.5t-21.5 -51.5l-38 -265q-1 -7 -1 -14z" />
    <glyph glyph-name="P" unicode="P" horiz-adv-x="610" 
d="M397 708q61 0 104 -20t69 -53t36 -75q5 -26 5 -52q0 -16 -2 -33q-6 -44 -27 -85.5t-56 -73.5t-83.5 -51.5t-109.5 -19.5h-161l-34 -245h-114l99 708h274zM347 351q33 0 58.5 11t44.5 28t30 39t14 44q1 8 1 16q0 14 -3 27q-5 22 -19 39t-37 27q-21 10 -50 10h-5h-160
l-34 -241h160z" />
    <glyph glyph-name="Q" unicode="Q" horiz-adv-x="668" 
d="M392 718q54 0 103.5 -14.5t86 -43t54.5 -71.5q13 -30 13 -67q0 -16 -2 -33l-39 -269q-6 -41 -23.5 -74.5t-43.5 -59.5l49 -71l-86 -57l-48 69q-39 -19 -82 -28t-86 -9q-54 0 -103.5 14.5t-85.5 43t-54 72.5q-12 30 -12 66q0 16 2 34l39 269q8 57 38.5 100t74.5 71.5
t97.5 43t107.5 14.5zM533 501q0 21 -9 37q-11 22 -33.5 36t-52.5 20.5t-62 6.5t-63.5 -7t-57.5 -21t-44 -35.5t-22 -51.5l-39 -265q-1 -7 -1 -14q0 -21 9 -37q11 -21 32.5 -35t51.5 -21.5t62 -7.5q51 0 90 11l-45 65l86 56l43 -62q12 19 15 45l39 265q1 8 1 15z" />
    <glyph glyph-name="R" unicode="R" horiz-adv-x="620" 
d="M397 708q52 0 95 -12.5t72.5 -38.5t43.5 -68q8 -28 8 -62q0 -18 -2 -38q-7 -50 -26 -87t-47.5 -62.5t-65 -40.5t-77.5 -21l180 -278h-141l-174 274h-85l-38 -274h-116l99 708h274zM351 375q60 0 99.5 26.5t47.5 86.5q2 11 2 21q0 17 -4 29q-7 20 -23 32.5t-39 17.5
q-19 4 -43 4h-9h-159l-31 -217h159z" />
    <glyph glyph-name="S" unicode="S" horiz-adv-x="586" 
d="M182 505q0 -13 7 -25q10 -16 30 -27.5t46.5 -19t53.5 -12.5q45 -9 89.5 -23t77.5 -40.5t48 -67.5q9 -23 9 -53q0 -23 -5 -50q-9 -51 -38 -88t-69 -61t-88.5 -36t-96.5 -12q-41 0 -78.5 10.5t-69.5 32t-56 53.5t-37 74l113 48q16 -51 56 -76t90 -25q27 0 53 5t48 16t37 28
t20 40q2 12 2 22q0 16 -6 28q-9 19 -29.5 32t-49.5 20t-61 12q-44 7 -84.5 21.5t-71 39.5t-46.5 63q-10 25 -10 59q0 15 2 31q10 48 37.5 84.5t66.5 61t85 36.5t93 12q40 0 76.5 -8t67.5 -25.5t54 -46.5t35 -71l-111 -46q-16 50 -52 70.5t-85 20.5q-26 0 -51 -6t-46 -17.5
t-35.5 -29t-18.5 -39.5q-2 -8 -2 -15z" />
    <glyph glyph-name="T" unicode="T" horiz-adv-x="572" 
d="M383 592l-82 -592h-116l82 592h-215l17 117h546l-17 -117h-215z" />
    <glyph glyph-name="U" unicode="U" horiz-adv-x="671" 
d="M165 206q0 -20 7 -36q11 -22 31 -36.5t47.5 -21.5t56.5 -7q30 0 59 7t53.5 21.5t41 36.5t20.5 52l69 486h116l-69 -486q-8 -58 -38 -101.5t-72.5 -72.5t-93.5 -43.5t-102 -14.5t-98.5 14.5t-82 43.5t-51.5 72q-12 30 -12 66q0 17 3 36l69 486h116l-69 -486q-1 -8 -1 -16z
" />
    <glyph glyph-name="V" unicode="V" horiz-adv-x="627" 
d="M269 258q-1 0 1.5 -21t5.5 -46l8 -66h10l49 135l221 448h122l-354 -708h-122l-157 708h123z" />
    <glyph glyph-name="W" unicode="W" horiz-adv-x="925" 
d="M247 133h9l41 137l159 334h97l63 -336q-1 0 1 -21t4 -46l6 -66h9l35 132l186 441h119l-304 -708h-123l-64 346l-1 89h-7q-9 -25 -15 -44q-5 -17 -10 -30.5t-4 -13.5l-157 -347h-123l-106 708h120l63 -443q-1 0 -0.5 -20.5t1.5 -45.5q1 -29 1 -66z" />
    <glyph glyph-name="X" unicode="X" horiz-adv-x="622" 
d="M440 0l-135 263l-207 -263h-142l291 353l-190 355h140l134 -266l208 266h140l-291 -355l193 -353h-141z" />
    <glyph glyph-name="Y" unicode="Y" horiz-adv-x="599" 
d="M199 0l38 275l-185 433h133l126 -322l215 322h135l-308 -433l-38 -275h-116z" />
    <glyph glyph-name="Z" unicode="Z" horiz-adv-x="590" 
d="M590 708l24 -75l-467 -527h380l-15 -106h-505l-21 76l465 516h-372l17 116h494z" />
    <glyph glyph-name="bracketleft" unicode="[" horiz-adv-x="284" 
d="M126 -12h80l-15 -105h-193l119 845h193l-15 -106h-80z" />
    <glyph glyph-name="backslash" unicode="\" horiz-adv-x="437" 
d="M75 690l110 36l187 -730l-109 -35z" />
    <glyph glyph-name="bracketright" unicode="]" horiz-adv-x="283" 
d="M156 626h-79l15 103h193l-119 -845h-192l15 102h78z" />
    <glyph glyph-name="asciicircum" unicode="^" horiz-adv-x="582" 
d="M569 424h-137l-104 153l-143 -153h-135l261 282h71z" />
    <glyph glyph-name="underscore" unicode="_" horiz-adv-x="610" 
d="M503 -77h-501l14 110h502z" />
    <glyph glyph-name="grave" unicode="`" horiz-adv-x="257" 
d="M65 907h149l70 -151h-120z" />
    <glyph glyph-name="a" unicode="a" 
d="M183 -10q-35 0 -66 12t-54 35t-34 56q-7 21 -7 46q0 14 2 28l26 180q7 51 30 85.5t56 56t73.5 30.5t82.5 9q48 0 97.5 -13t88.5 -33l-67 -482h-89l-8 45q-29 -29 -63 -42t-68 -13zM289 434q-22 0 -43.5 -4.5t-39.5 -15t-31 -27t-16 -39.5l-26 -181q-1 -7 -1 -13
q0 -12 4 -20q5 -14 16 -23t26.5 -13.5t33.5 -4.5h6q26 0 52 8q29 9 49 24l42 292q-14 8 -33 12.5t-39 4.5z" />
    <glyph glyph-name="b" unicode="b" horiz-adv-x="510" 
d="M295 528q38 0 72.5 -12t60 -34.5t38.5 -55.5q8 -23 8 -50q0 -13 -2 -27l-26 -185q-11 -49 -34 -82t-54.5 -53.5t-69 -29.5t-77.5 -9q-51 0 -100.5 11.5t-91.5 28.5l95 679h110l-29 -202q48 21 100 21zM205 82h8q20 0 40.5 4.5t37.5 14.5t29 25.5t16 37.5l27 190
q1 21 -7 36t-22 24.5t-32.5 14.5t-38.5 5q-21 0 -42.5 -5.5t-38.5 -15.5l-44 -317q14 -7 34 -11q16 -3 33 -3z" />
    <glyph glyph-name="c" unicode="c" horiz-adv-x="473" 
d="M280 528q30 0 60.5 -7.5t55.5 -23.5t43 -42t23 -63l-105 -38q-5 35 -32 50.5t-59 16.5q-18 0 -36 -4.5t-32.5 -13.5t-24.5 -22t-12 -30l-26 -180q-1 -4 -1 -8q0 -13 5 -23q6 -14 18 -23.5t28.5 -14.5t35.5 -5q32 1 63.5 19t45.5 52l95 -42q-16 -37 -41 -63t-55 -42
t-63 -23.5t-63 -7.5q-38 0 -72.5 11.5t-60 34.5t-38.5 57q-8 23 -8 51q0 13 2 28l25 178q6 45 28.5 78.5t54.5 55.5t70 33t76 11z" />
    <glyph glyph-name="d" unicode="d" 
d="M213 -10q-40 0 -75.5 9t-62 29t-40.5 54q-12 27 -12 65q0 8 1 17l26 185q6 43 28 76t53.5 56t69.5 35t76 12q52 0 94 -21l29 202h110l-95 -679q-46 -17 -98.5 -28.5t-103.5 -11.5zM285 434h-7q-19 -1 -38 -6t-35 -15t-27.5 -24.5t-16.5 -34.5l-27 -190v-9q0 -16 6 -29
q8 -15 22 -25t33 -14.5t39 -4.5h9q17 0 33 3q21 4 38 11l44 317q-16 11 -36 17q-18 4 -37 4z" />
    <glyph glyph-name="e" unicode="e" horiz-adv-x="479" 
d="M207 -10q-38 0 -73.5 11.5t-61.5 34.5t-40 57q-9 24 -9 52q0 13 2 27l24 172q6 46 28.5 80.5t54.5 57.5t70 34.5t77 11.5t73.5 -11.5t60 -34t37.5 -56.5q8 -23 8 -50q0 -14 -2 -29q-5 -37 -23.5 -64.5t-46 -45.5t-63.5 -26.5t-76 -8.5q-57 0 -108 20l-6 -50q-1 -7 -1 -13
q0 -12 4 -21q5 -15 17 -25.5t28.5 -16t34.5 -5.5h4q27 0 58 12q32 13 53 40l70 -52q-40 -50 -91.5 -75.5t-102.5 -25.5zM254 287q44 0 68 20q26 22 26 54q0 24 -19 43q-21 20 -64 20q-19 0 -37 -5.5t-33 -16.5t-25 -26.5t-13 -35.5l-6 -36q17 -5 44 -11t59 -6z" />
    <glyph glyph-name="f" unicode="f" horiz-adv-x="288" 
d="M-31 -106q27 20 35 45.5t10 42.5l77 550q6 45 27.5 78.5t53.5 55.5t72.5 33.5t85.5 11.5l-15 -108q-46 0 -78 -18.5t-37 -52.5l-7 -41h99l-15 -108h-99l-55 -401q-14 -100 -112 -156z" />
    <glyph glyph-name="g" unicode="g" horiz-adv-x="504" 
d="M186 -110q19 0 38 8t34.5 23.5t26.5 37.5t15 51q-25 -10 -50 -14.5t-49 -4.5q-39 0 -74 12t-60 35t-37 56q-8 22 -8 49q0 13 2 28l25 175q7 48 31 83t58.5 57t76.5 32t85 10q49 -1 94 -14.5t77 -38.5l-70 -489q-7 -49 -29 -85t-53.5 -59t-69.5 -34.5t-77 -11.5
q-29 0 -57 6.5t-52.5 18.5t-43.5 30t-31 41l75 63q18 -29 52.5 -47t70.5 -18zM279 427q-20 0 -40 -4.5t-36.5 -14t-28.5 -25t-15 -37.5l-27 -173v-8q0 -15 6 -27q7 -14 19.5 -23t30 -14t36.5 -5q23 0 46 6t40 17l42 287q-13 10 -32.5 15.5t-40.5 5.5z" />
    <glyph glyph-name="h" unicode="h" horiz-adv-x="520" 
d="M299 528q37 0 71 -10.5t58.5 -33t35.5 -56.5q8 -22 8 -50q0 -15 -2 -31l-47 -347h-109l47 342q1 7 1 13q0 13 -4 23q-7 15 -20 24.5t-31 14t-37 4.5q-23 0 -46.5 -5.5t-41.5 -16.5l-55 -399h-110l99 708h109l-28 -200q51 20 102 20z" />
    <glyph glyph-name="i" unicode="i" horiz-adv-x="228" 
d="M170 718q31 0 50 -21q14 -17 14 -39q0 -6 -1 -13q-5 -31 -28.5 -52t-54.5 -21t-49 21q-14 16 -14 39q0 6 1 13q5 31 28 52t54 21zM126 0h-110l73 519h110z" />
    <glyph glyph-name="j" unicode="j" horiz-adv-x="228" 
d="M-64 -74q23 0 37.5 5.5t23.5 15t13 23t6 29.5l73 520h110l-73 -520q-11 -83 -60 -129.5t-144 -46.5zM170 718q31 0 50 -21q14 -17 14 -39q0 -6 -1 -13q-5 -31 -28.5 -52t-54.5 -21t-49 21q-14 16 -14 39q0 6 1 13q5 31 28 52t54 21z" />
    <glyph glyph-name="k" unicode="k" horiz-adv-x="500" 
d="M385 518h138l-249 -239l176 -279h-129l-134 212l-35 -31l-25 -181h-110l99 708h110l-56 -399z" />
    <glyph glyph-name="l" unicode="l" horiz-adv-x="260" 
d="M34 136q0 16 2 32l75 540h110l-75 -540q-1 -7 -1 -13q0 -24 15 -41q18 -21 65 -21l-14 -103q-97 0 -141 48q-36 38 -36 98z" />
    <glyph glyph-name="m" unicode="m" horiz-adv-x="774" 
d="M564 528q35 0 66.5 -12.5t54.5 -35.5t34 -56q7 -22 7 -48q0 -14 -2 -29l-48 -347h-109l48 343q2 9 2 16q0 24 -17 41q-21 21 -53 21q-16 0 -33 -6t-31.5 -16t-25 -23.5t-12.5 -28.5l-48 -347h-108l49 352q2 17 -3.5 30t-16.5 21.5t-26.5 13t-32.5 4.5h-6q-17 0 -35 -5
q-22 -5 -40 -16l-55 -400h-108l65 473q38 24 88 39.5t98 15.5q46 -1 84.5 -18.5t55.5 -54.5q28 34 68.5 53.5t89.5 19.5z" />
    <glyph glyph-name="n" unicode="n" horiz-adv-x="518" 
d="M470 376q0 -15 -2 -32l-48 -344h-109l47 339v9q0 16 -6 28q-8 16 -22 26t-32.5 14.5t-38.5 4.5q-21 0 -41.5 -4.5t-36.5 -13.5l-56 -403h-110l68 486q43 20 93 31t98 11q43 -1 81 -11.5t65.5 -32.5t41.5 -56q8 -23 8 -52z" />
    <glyph glyph-name="o" unicode="o" horiz-adv-x="496" 
d="M280 528q37 0 72 -11.5t60.5 -34t38.5 -55.5q9 -23 9 -51q0 -13 -2 -27l-25 -180q-6 -45 -28.5 -78.5t-54.5 -56t-70 -33.5t-75 -11q-38 0 -73.5 11t-61 33.5t-38.5 55.5q-9 23 -9 52q0 13 2 27l25 180q6 45 28.5 78t54.5 55.5t70.5 34t76.5 11.5zM265 421
q-17 0 -34.5 -4.5t-32.5 -13.5t-25 -22.5t-13 -31.5l-24 -175q-1 -6 -1 -11q0 -12 5 -21q6 -15 18.5 -25t29 -15t33.5 -5q16 0 33 5t32 15t25 24.5t13 32.5l24 175q1 5 1 10q0 12 -5 21q-7 14 -19 23t-28 13.5t-32 4.5z" />
    <glyph glyph-name="p" unicode="p" horiz-adv-x="511" 
d="M286 528q42 0 78.5 -9.5t63 -30.5t38.5 -56q9 -22 9 -50q0 -16 -3 -34l-26 -184q-6 -44 -28.5 -77t-55 -54.5t-71 -32t-76.5 -10.5q-50 0 -90 18l-24 -177h-110l92 656q45 19 98.5 30t104.5 11zM208 87h9q41 0 75 17.5t44 59.5l27 186q1 7 1 14q0 14 -4 25q-7 16 -21 26
t-33.5 14t-40.5 4q-43 0 -82 -17l-45 -317q17 -6 38 -9q15 -3 32 -3z" />
    <glyph glyph-name="q" unicode="q" 
d="M204 -10q-38 0 -73 11t-60.5 33t-38.5 54q-9 23 -9 50q0 12 2 26l25 184q7 50 29 84.5t54.5 55.5t72 30.5t81.5 9.5q52 0 102 -11t90 -30l-92 -656h-110l25 177q-47 -18 -98 -18zM281 433h-8q-41 -1 -73.5 -20.5t-38.5 -62.5l-26 -186q-1 -21 6.5 -35.5t21 -23.5
t31.5 -13.5t38 -4.5h9l33 3q21 3 41 9l44 317q-18 9 -41 14q-18 3 -37 3z" />
    <glyph glyph-name="r" unicode="r" horiz-adv-x="326" 
d="M285 528q13 0 27 -1t31 -5l-14 -97q-17 5 -39 5h-7q-26 -1 -49.5 -10.5t-41 -27.5t-21.5 -44l-49 -348h-110l49 350q8 56 40.5 97t77.5 59q33 14 64 18t42 4z" />
    <glyph glyph-name="s" unicode="s" horiz-adv-x="445" 
d="M205 92q29 0 52 14.5t28 43.5q2 14 -4.5 23.5t-17.5 16t-24.5 10.5t-26.5 7q-27 5 -57.5 15.5t-56 29.5t-40.5 48q-10 21 -10 49q0 12 2 25q6 43 25 72.5t46.5 47.5t60 26t65.5 8q21 0 43.5 -4t45 -12.5t43 -21.5t37.5 -32l-76 -72q-16 17 -46 28.5t-63 12.5h-4
q-23 0 -41 -10q-19 -11 -26 -37q-4 -17 3 -29.5t20 -21t29.5 -13.5t32.5 -8q30 -5 59.5 -15t51 -28.5t32.5 -46.5q9 -20 9 -45q0 -12 -2 -24q-6 -41 -25.5 -70.5t-48 -49.5t-63 -29.5t-69.5 -9.5q-30 0 -59.5 7.5t-55 23t-44.5 38.5t-29 54l90 53q16 -37 49 -55.5t65 -18.5z
" />
    <glyph glyph-name="t" unicode="t" horiz-adv-x="299" 
d="M203 -10h-19q-37 0 -67.5 11t-50.5 33.5t-29 57.5q-5 19 -5 43q0 18 3 39l68 473h100l-10 -129h99l-13 -101h-99l-36 -242q-2 -12 -2 -23q0 -15 4 -26q8 -17 22.5 -25.5t35 -10.5t43.5 -2l-13 -95q-14 -3 -31 -3z" />
    <glyph glyph-name="u" unicode="u" horiz-adv-x="519" 
d="M218 -10q-42 0 -78 10t-61.5 32t-37.5 56q-8 21 -8 49q0 15 3 33l49 348h110l-49 -350v-9q0 -15 6 -28q7 -16 21 -26t33 -15t39 -5t41 4.5t38 13.5l58 415h109l-68 -485q-50 -20 -103 -31.5t-102 -11.5z" />
    <glyph glyph-name="v" unicode="v" horiz-adv-x="491" 
d="M398 518h117l-256 -518h-113l-111 518h116l62 -302l2 -103h7l33 103z" />
    <glyph glyph-name="w" unicode="w" horiz-adv-x="724" 
d="M456 506l25 -385h2l50 163l100 234h111l-227 -518h-111l-21 374h-2l-146 -374h-115l-84 518h111l34 -236l10 -163h2l157 387h104z" />
    <glyph glyph-name="x" unicode="x" horiz-adv-x="497" 
d="M443 0h-127l-85 173l-135 -173h-128l212 259l-140 259h128l87 -174l133 174h126l-205 -259z" />
    <glyph glyph-name="y" unicode="y" horiz-adv-x="527" 
d="M186 -204q-30 0 -58 6.5t-53 18.5t-44 30t-31 41l75 63q17 -29 52 -44.5t73 -15.5q44 0 79 27.5t43 87.5q-52 -20 -104 -20q-39 1 -75 13t-62 35.5t-39 56.5q-8 22 -8 49q0 13 2 27l48 347h110l-49 -345v-8q0 -15 6 -27q8 -16 22 -26.5t32.5 -16t38.5 -5.5q24 0 48 6
t41 17l56 405h109l-75 -532q-7 -50 -30 -86t-56 -59t-72 -34t-79 -11z" />
    <glyph glyph-name="z" unicode="z" horiz-adv-x="470" 
d="M423 518l33 -66l-305 -346h259l-15 -106h-369l-36 65l310 349h-245l14 104h354z" />
    <glyph glyph-name="braceleft" unicode="{" horiz-adv-x="310" 
d="M272 626q-15 0 -19.5 -10.5t-6.5 -29.5l-20 -142q-6 -50 -30.5 -87.5t-52.5 -50.5q26 -17 39 -52q8 -22 8 -50q0 -18 -3 -37l-20 -145q-2 -10 -2 -17q0 -19 12 -19h54l-15 -102h-61q-36 0 -58 9.5t-33 27t-13 42.5q-1 8 -1 17q0 19 3 40l18 129q3 20 3 39t-5 33.5
t-16 23.5t-29 9l15 103q18 0 31.5 9t22.5 24t14.5 34t8.5 39l18 129q9 63 42 100t107 37h52l-15 -103h-48z" />
    <glyph glyph-name="bar" unicode="|" horiz-adv-x="225" 
d="M-8 -157l125 884h110l-125 -884h-110z" />
    <glyph glyph-name="braceright" unicode="}" horiz-adv-x="311" 
d="M141 729q45 0 70.5 -9.5t37 -27.5t11.5 -43.5t-4 -56.5l-18 -129q-3 -20 -3 -39t5 -34t16 -24t30 -9l-15 -103q-19 0 -32.5 -9t-22.5 -23.5t-14.5 -33.5t-8.5 -39l-18 -129q-4 -32 -13 -57t-26.5 -42.5t-45.5 -27t-70 -9.5h-44l15 102h43q14 0 20.5 9t9.5 27l20 145
q6 50 28.5 88t53.5 52q-26 8 -38 47q-8 24 -8 52q0 18 3 38l20 142q2 19 0.5 29.5t-18.5 10.5h-46l15 103h47z" />
    <glyph glyph-name="asciitilde" unicode="~" horiz-adv-x="479" 
d="M296 214q-29 0 -52.5 15.5t-44.5 30.5q-14 11 -25 15t-21.5 1t-21.5 -13t-25 -26l-67 65q26 32 59.5 56t76.5 24q34 0 58 -13.5t41 -27.5q15 -14 26.5 -18t22 0t22 15.5t27.5 29.5l68 -64q-26 -37 -61 -63.5t-83 -26.5z" />
    <glyph glyph-name="uni00A0" unicode="&#xa0;" horiz-adv-x="200" 
 />
    <glyph glyph-name="exclamdown" unicode="&#xa1;" horiz-adv-x="227" 
d="M100 -190h-112l75 534h112zM145 528q31 0 49 -21q15 -17 15 -39q0 -6 -1 -13q-5 -31 -28.5 -52t-54.5 -21t-49 21q-14 16 -14 39q0 6 1 13q5 31 28 52t54 21z" />
    <glyph glyph-name="cent" unicode="&#xa2;" horiz-adv-x="481" 
d="M24 141q0 15 2 30l24 175q6 39 24 70t44 52.5t58 34.5t66 18l11 77h74l-11 -77q25 -4 49.5 -13.5t44 -25.5t33 -39.5t18.5 -54.5l-105 -38q-5 26 -20 41t-36 21l-43 -308q23 7 42.5 22t30.5 41l97 -38q-14 -32 -34.5 -55t-45 -39.5t-51.5 -26t-54 -12.5l-10 -72h-74
l10 72q-32 4 -60.5 17t-48.5 35t-29 52q-6 19 -6 41zM135 170q0 -23 13.5 -39t35.5 -24l42 303q-23 -8 -41 -24t-25 -39z" />
    <glyph glyph-name="sterling" unicode="&#xa3;" horiz-adv-x="520" 
d="M394 718q41 0 77 -17.5t59 -56.5l-75 -68q-22 28 -52 34q-10 2 -20 2q-20 0 -39 -8q-28 -11 -49.5 -36.5t-25.5 -60.5l-12 -90h145l-15 -102h-145l-27 -209h242l-14 -106h-445l14 106h92l27 209h-92l15 102h92l12 90q5 33 20 70.5t43 68.5t70.5 51.5t102.5 20.5z" />
    <glyph glyph-name="currency" unicode="&#xa4;" horiz-adv-x="609" 
d="M57 305q0 19 3 38q5 37 20.5 72t39.5 64l-11 15l-32 35l82 77l45 -54q64 39 141 39q75 0 129 -39l62 54l59 -77l-58 -49q16 -29 22 -64q3 -19 3 -39q0 -17 -2 -34q-12 -80 -62 -137l12 -14l33 -35l-81 -77l-47 54q-35 -21 -68.5 -30t-71.5 -9q-35 0 -68.5 10t-61.5 29
l-18 -18l-42 -35l-60 76l57 49q-25 44 -25 99zM167 322q0 -18 5 -35q7 -26 23.5 -45.5t40.5 -30.5t53 -11t56 11t49 30.5t37 45.5t19 55q1 10 1 20q0 19 -5 36q-7 26 -23.5 45.5t-40.5 31t-53 11.5t-56 -11.5t-49 -31t-37 -45.5t-19 -56q-1 -10 -1 -20z" />
    <glyph glyph-name="yen" unicode="&#xa5;" horiz-adv-x="634" 
d="M482 265h-117l-6 -38h139l-33 -87h-118l-19 -140h-112l19 140h-143l33 87h122l6 38h-141l35 91h82l-152 352h130l121 -306l207 306h132l-251 -352h100z" />
    <glyph glyph-name="brokenbar" unicode="&#xa6;" horiz-adv-x="231" 
d="M61 315l52 369h111l-52 -369h-111zM-1 -128l52 370h111l-52 -370h-111z" />
    <glyph glyph-name="section" unicode="&#xa7;" horiz-adv-x="470" 
d="M185.5 -25q30.5 0 55.5 17t30 50q1 5 1 10q0 20 -14 36q-18 18 -45.5 33.5t-60 30.5t-59.5 35.5t-43 48.5q-11 21 -11 49q0 10 2 22q5 41 28.5 70t54.5 49q-17 20 -26 47q-7 18 -7 38q0 11 2 22q6 45 31 80t59.5 57.5t75.5 31.5q25 5 48 5q16 0 31 -2q39 -6 71.5 -29
t50.5 -64l-96 -54q-12 32 -37 42q-15 5 -30 5q-10 0 -21 -3q-25 -6 -45.5 -25t-24.5 -44q-1 -5 -1 -9q0 -19 14 -34q17 -18 43.5 -33t58.5 -30.5t58 -36t41 -48.5q11 -20 11 -47q0 -9 -1 -19q-5 -38 -24 -68t-49 -51q17 -21 25 -48q6 -18 6 -39q0 -10 -1 -20q-8 -55 -37 -94
t-68.5 -60.5t-85.5 -26.5q-13 -2 -27 -2q-30 0 -59 9q-41 11 -73.5 39.5t-46.5 73.5l99 50q10 -32 38 -48t58.5 -16zM322 275q0 9 -3 17q-4 9 -11.5 17t-17 14.5t-17.5 11.5l-52 31q-23 -8 -44.5 -22.5t-24.5 -34.5q-1 -6 -1 -11q0 -16 9 -25q13 -12 31 -22l76 -39
q17 11 35 28q20 18 20 35z" />
    <glyph glyph-name="dieresis" unicode="&#xa8;" horiz-adv-x="340" 
d="M354 899q31 0 50 -21q14 -17 14 -39q0 -6 -1 -13q-5 -31 -28.5 -52t-54.5 -21t-49 21q-14 16 -14 39q0 6 1 13q5 31 28 52t54 21zM153 899q31 0 50 -21q14 -17 14 -39q0 -6 -1 -13q-5 -31 -28.5 -52t-54.5 -21t-49 21q-14 16 -14 39q0 6 1 13q5 31 28 52t54 21z" />
    <glyph glyph-name="copyright" unicode="&#xa9;" horiz-adv-x="791" 
d="M453 710q74 0 135 -28.5t103 -77t61 -114.5q12 -42 12 -89q0 -24 -3 -50q-11 -74 -48.5 -139.5t-93 -114.5t-124.5 -77t-143 -28t-135.5 28t-103.5 77t-61 115q-13 41 -13 87q0 25 4 52q10 74 48 139.5t93.5 114t125 77t143.5 28.5zM131 311q0 -34 9 -65q14 -48 45.5 -85
t77.5 -58t102 -21q55 0 106.5 21t93 58t69.5 85.5t36 104.5q3 20 3 39q0 34 -9 66q-15 49 -46 85t-77 57t-101 21q-56 0 -108 -21t-93 -57t-69 -85t-36 -105q-3 -20 -3 -40zM434 573q29 0 57.5 -7t52.5 -22.5t41 -40t22 -59.5l-100 -36q-5 34 -31 50q-25 14 -53 14h-5
q-32 -2 -60.5 -19.5t-36.5 -47.5l-15 -113q-1 -30 22.5 -47.5t54.5 -18.5q3 -1 6 -1q28 0 55 14q31 15 46 50l92 -36q-15 -35 -39 -59.5t-52.5 -40t-59.5 -22.5t-60 -7q-36 0 -69.5 10.5t-57.5 31.5t-36 52q-9 22 -9 48q0 13 2 27l15 111q6 43 27.5 74.5t51.5 52.5
t66.5 31.5t72.5 10.5z" />
    <glyph glyph-name="ordfeminine" unicode="&#xaa;" horiz-adv-x="388" 
d="M246 702q28 0 53 -8.5t43 -25.5t27 -42q6 -17 6 -36q0 -11 -2 -23l-33 -233q-35 -9 -71.5 -15t-71.5 -6q-32 0 -60 6.5t-47.5 22t-28.5 40.5q-6 17 -6 38q0 12 2 26q5 33 19.5 55.5t35 36t44.5 19.5t48 6q33 0 59 -9q1 7 1 13q0 20 -12 32q-17 15 -41 15q-20 0 -41 -9
t-38 -26l-43 47q31 38 73 57t84 19zM221 488q-21 0 -39.5 -9.5t-23.5 -30.5v-8q0 -22 14 -30q18 -11 40 -11q8 0 15.5 1t14.5 3l11 79q-14 6 -32 6z" />
    <glyph glyph-name="guillemotleft" unicode="&#xab;" horiz-adv-x="487" 
d="M472 454l-134 -164l3 -6q2 -4 10.5 -19t25.5 -47t49 -90l-104 -57l-116 220l178 220zM292 454l-135 -163l89 -164l-103 -56l-117 220l179 220z" />
    <glyph glyph-name="logicalnot" unicode="&#xac;" horiz-adv-x="587" 
d="M62 413h482l-37 -263h-109l21 154h-373z" />
    <glyph glyph-name="uni00AD" unicode="&#xad;" horiz-adv-x="399" 
d="M322 188h-278l16 112h278z" />
    <glyph glyph-name="registered" unicode="&#xae;" horiz-adv-x="791" 
d="M453 710q74 0 135 -28.5t103 -77t61 -114.5q12 -42 12 -89q0 -24 -3 -50q-11 -74 -48.5 -139.5t-93 -114.5t-124.5 -77t-143 -28t-135.5 28t-103.5 77t-61 115q-13 41 -13 87q0 25 4 52q10 74 48 139.5t93.5 114t125 77t143.5 28.5zM131 311q0 -34 9 -65q14 -48 45.5 -85
t77.5 -58t102 -21q55 0 106.5 21t93 58t69.5 85.5t36 104.5q3 20 3 39q0 34 -9 66q-15 49 -46 85t-77 57t-101 21q-56 0 -108 -21t-93 -57t-69 -85t-36 -105q-3 -20 -3 -40zM444 527q40 0 66.5 -14t40 -36.5t14.5 -49.5v-5q0 -24 -9 -48q-9 -26 -29.5 -48t-50.5 -33l68 -124
h-116l-61 117h-21l-17 -117h-98l51 358h162zM418 366q20 0 32 12q13 14 13 30q0 12 -7 22q-9 12 -28 12h-60l-11 -76h61z" />
    <glyph glyph-name="macron" unicode="&#xaf;" horiz-adv-x="305" 
d="M87 873h263l-17 -96h-263z" />
    <glyph glyph-name="degree" unicode="&#xb0;" horiz-adv-x="363" 
d="M197 413q-31 0 -56.5 11.5t-43 32t-25.5 47.5q-5 18 -5 38q0 10 1 20q4 31 19.5 58t38.5 47t52 31.5t60 11.5q30 0 55.5 -11.5t43 -31.5t25.5 -47q4 -18 4 -37q0 -10 -1 -21q-4 -30 -19.5 -57.5t-38.5 -47.5t-51.5 -32t-58.5 -12zM271 569q0 17 -11 30q-13 16 -35 16
t-40.5 -16t-21.5 -38q-1 -4 -1 -8q0 -17 12 -29q14 -16 36 -16t39.5 15.5t20.5 37.5q1 4 1 8z" />
    <glyph glyph-name="plusminus" unicode="&#xb1;" horiz-adv-x="542" 
d="M259 620h111l-22 -154h165l-15 -110h-165l-22 -154h-111l22 154h-161l15 110h161zM456 52h-440l15 109h440z" />
    <glyph glyph-name="twosuperior" unicode="&#xb2;" horiz-adv-x="410" 
d="M256 712q54 0 88.5 -26t45.5 -64q5 -16 5 -34q0 -24 -9 -50q-16 -45 -62 -83l-111 -89h157l-14 -101h-291l-20 71l214 186q14 10 22 26q8 14 8 28q0 16 -12 26q-10 9 -31 9h-4q-26 -1 -46.5 -16t-33.5 -32l-81 45q34 58 79 81t96 23z" />
    <glyph glyph-name="threesuperior" unicode="&#xb3;" horiz-adv-x="386" 
d="M367 429q0 -28 -13 -57q-13 -27 -35 -48q-30 -29 -71 -42q-38 -11 -72 -11h-5q-42 2 -74.5 25.5t-48.5 65.5l-3 13l88 42q8 -23 24.5 -32t33.5 -10q4 -1 8 -1q11 0 24 4q18 5 30 16q9 11 10 24v5q0 14 -9 27q-10 12 -30 12h-6h-42l12 79h43q20 3 29.5 14t8.5 23.5
t-11 22.5t-29 10q-17 0 -31.5 -7t-24.5 -16l-9 -11l-80 44q17 25 36.5 41.5t39.5 26.5t39 14.5t36 5.5h10q32 0 61 -11q33 -13 51 -41q10 -16 13 -37q2 -9 2 -18q0 -12 -2 -24q-5 -21 -18.5 -39.5t-37.5 -29.5q29 -12 42 -35q11 -20 11 -45z" />
    <glyph glyph-name="acute" unicode="&#xb4;" horiz-adv-x="224" 
d="M115 756h-114l114 151h141z" />
    <glyph glyph-name="mu" unicode="&#xb5;" horiz-adv-x="520" 
d="M214 -11q-28 0 -51 13q-24 12 -34 39l-34 -242h-112l101 717h113l-45 -318q-1 -8 -1 -15q0 -20 8 -35q11 -21 30 -31.5t42.5 -10.5t45.5 11t39 33t22 57l43 309h113l-71 -518h-104l-1 40q-17 -23 -45 -35.5t-57 -12.5q-1 -1 -2 -1z" />
    <glyph glyph-name="paragraph" unicode="&#xb6;" horiz-adv-x="627" 
d="M46 435q0 18 2 37q9 62 43 114t93 87t140 35h296l-115 -820h-112l101 717h-75l-101 -717h-113l49 349q-79 0 -127.5 35t-67.5 87q-13 36 -13 76z" />
    <glyph glyph-name="periodcentered" unicode="&#xb7;" horiz-adv-x="236" 
d="M129 384q31 0 50 -21q14 -17 14 -39q0 -6 -1 -13q-5 -31 -28.5 -52t-54.5 -21t-49 21q-14 16 -14 39q0 6 1 13q5 31 28 52t54 21z" />
    <glyph glyph-name="cedilla" unicode="&#xb8;" horiz-adv-x="251" 
d="M268 -127v-9q-2 -21 -13 -43q-18 -35 -54 -50t-77 -15q-22 0 -48.5 7t-55.5 26l34 67q26 -17 48 -20h12q13 0 23 4q14 5 20 15.5t2 22t-19 19.5t-43 9l58 105h85l-37 -64q23 -3 38 -15t22 -30q5 -13 5 -29z" />
    <glyph glyph-name="onesuperior" unicode="&#xb9;" horiz-adv-x="280" 
d="M52 562l135 128h87l-61 -435h-105l41 286l-49 -41z" />
    <glyph glyph-name="ordmasculine" unicode="&#xba;" horiz-adv-x="413" 
d="M206 309q-30 0 -58 9t-49 26.5t-32 43.5q-8 19 -8 41q0 10 2 21l14 102q5 36 23 62.5t44 44t57 26t61 8.5t58.5 -8.5t49.5 -26t32 -44.5q8 -18 8 -40q0 -11 -2 -22l-14 -102q-5 -35 -23 -61.5t-44.5 -44t-57.5 -26.5t-61 -9zM221.5 408q22.5 0 42 10.5t22.5 31.5l14 102
q2 23 -15 34.5t-39.5 11.5t-42.5 -11.5t-23 -34.5l-14 -102q-2 -21 15.5 -31.5t40 -10.5z" />
    <glyph glyph-name="guillemotright" unicode="&#xbb;" horiz-adv-x="486" 
d="M191 128l135 164l-87 163l103 57l116 -220l-178 -220zM10 127l135 164l-87 163l103 57l116 -220l-178 -220z" />
    <glyph glyph-name="onequarter" unicode="&#xbc;" horiz-adv-x="745" 
d="M697 457l-37 -264h36l-13 -93h-36l-14 -100h-110l14 100h-163l-40 77l268 280h95zM465 192h86l18 108zM61 583l135 128h87l-61 -435h-105l41 286l-49 -41zM134 -41l-83 56l534 712l83 -55z" />
    <glyph glyph-name="onehalf" unicode="&#xbd;" horiz-adv-x="815" 
d="M637 447q54 0 88.5 -26t45.5 -64q5 -16 5 -34q0 -24 -9 -50q-16 -45 -62 -83l-111 -89h157l-14 -101h-291l-20 71l214 186q14 10 22 26q8 14 8 28q0 16 -12 26q-10 9 -31 9h-4q-26 -1 -46.5 -16t-33.5 -32l-81 45q34 58 79 81t96 23zM61 583l135 128h87l-61 -435h-105
l41 286l-49 -41zM135 -41l-83 56l534 712l83 -55z" />
    <glyph glyph-name="threequarters" unicode="&#xbe;" horiz-adv-x="812" 
d="M192 374q23 0 41.5 12t20.5 32v5q0 14 -9 25q-11 14 -36 14h-42l12 79h43q20 0 29.5 11t8.5 24t-11 24t-29 11q-20 0 -33 -7t-32 -27l-80 44q17 25 36.5 42t39.5 27t39 14.5t36 4.5q40 0 72 -12t50 -40q10 -16 14 -37q1 -9 1 -18q0 -12 -3 -24q-4 -21 -17.5 -39.5
t-37.5 -29.5q29 -12 41 -35q12 -20 12 -45q0 -28 -14 -57q-12 -27 -34 -48q-29 -29 -67 -41t-74 -12q-15 0 -33 4t-36.5 14.5t-34.5 28t-26 44.5l-3 13l88 42q5 -15 13 -23.5t17.5 -13t19 -5.5t18.5 -1zM673 457h95l-37 -264h36l-13 -93h-36l-14 -100h-110l14 100h-163
l-40 77zM640 300l-104 -108h86zM200 -41l-83 56l534 712l83 -55z" />
    <glyph glyph-name="questiondown" unicode="&#xbf;" horiz-adv-x="483" 
d="M186 -200q-44 0 -83.5 14t-67.5 41t-42 67q-8 25 -8 55q0 18 3 38q7 48 26.5 86t48 65t64 44t74.5 23l26 124h99l-23 -219q-20 4 -38 4q-25 0 -47 -8q-39 -13 -66.5 -38t-40.5 -57q-11 -24 -11 -46q0 -7 1 -15q5 -28 29.5 -47.5t73.5 -19.5q32 0 68 17.5t69 52.5l69 -63
q-49 -64 -108 -91t-116 -27zM300 528q31 0 49 -21q15 -17 15 -39q0 -6 -1 -13q-5 -31 -28.5 -52t-54.5 -21t-49 21q-14 16 -14 39q0 6 1 13q5 31 28 52t54 21z" />
    <glyph glyph-name="Agrave" unicode="&#xc0;" horiz-adv-x="627" 
d="M247 907h149l70 -151h-120zM587 0h-121l-44 184h-254l-89 -184h-124l354 708h121zM346 591l-40 -114l-82 -177h175l-33 179l-6 112h-14z" />
    <glyph glyph-name="Aacute" unicode="&#xc1;" horiz-adv-x="627" 
d="M416 756h-114l114 151h141zM587 0h-121l-44 184h-254l-89 -184h-124l354 708h121zM346 591l-40 -114l-82 -177h175l-33 179l-6 112h-14z" />
    <glyph glyph-name="Acircumflex" unicode="&#xc2;" horiz-adv-x="627" 
d="M557 756h-127l-46 53l-56 -53h-129l160 151h81zM587 0h-121l-44 184h-254l-89 -184h-124l354 708h121zM346 591l-40 -114l-82 -177h175l-33 179l-6 112h-14z" />
    <glyph glyph-name="Atilde" unicode="&#xc3;" horiz-adv-x="627" 
d="M319 908q23 0 43 -10.5t37 -17.5q14 -6 26 -6h6q14 2 25 27l74 -30q-11 -54 -39 -78.5t-55 -24.5q-25 0 -47.5 11t-41.5 19q-14 5 -27 5q-5 0 -10 -1q-17 -3 -30 -32l-70 33q20 59 46.5 82t62.5 23zM587 0h-121l-44 184h-254l-89 -184h-124l354 708h121zM346 591
l-40 -114l-82 -177h175l-33 179l-6 112h-14z" />
    <glyph glyph-name="Adieresis" unicode="&#xc4;" horiz-adv-x="627" 
d="M495 899q31 0 50 -21q14 -17 14 -39q0 -6 -1 -13q-5 -31 -28.5 -52t-54.5 -21t-49 21q-14 16 -14 39q0 6 1 13q5 31 28 52t54 21zM294 899q31 0 50 -21q14 -17 14 -39q0 -6 -1 -13q-5 -31 -28.5 -52t-54.5 -21t-49 21q-14 16 -14 39q0 6 1 13q5 31 28 52t54 21zM587 0
h-121l-44 184h-254l-89 -184h-124l354 708h121zM346 591l-40 -114l-82 -177h175l-33 179l-6 112h-14z" />
    <glyph glyph-name="Aring" unicode="&#xc5;" horiz-adv-x="627" 
d="M265 786q0 8 1 15q3 27 15.5 47.5t30.5 34.5t40 21t46 7q23 0 43 -9t33.5 -24.5t19.5 -35.5q5 -14 5 -28q0 -7 -1 -14q-4 -29 -22.5 -53.5t-45.5 -38.5l157 -708h-121l-44 184h-254l-89 -184h-124l354 708q-23 14 -35 38q-9 19 -9 40zM327 793q0 -16 13 -27
q14 -14 36 -14q20 0 38 12.5t22 35.5v7q0 17 -12 29q-15 14 -36 14q-22 0 -39 -12t-21 -38q-1 -4 -1 -7zM366 479l-6 112h-14l-40 -114l-82 -177h175z" />
    <glyph glyph-name="AE" unicode="&#xc6;" horiz-adv-x="802" 
d="M546 592l-26 -181h228l-16 -115h-228l-25 -182h255l-16 -114h-368l30 215h-164l-137 -215h-132l476 708h394l-16 -116h-255zM414 459l22 110h-6q-13 -25 -24 -45q-9 -17 -16.5 -33t-9.5 -19l-99 -148h114z" />
    <glyph glyph-name="Ccedilla" unicode="&#xc7;" horiz-adv-x="599" 
d="M291 106q48 0 95 24t79 72l97 -48q-42 -66 -101.5 -105t-123.5 -53l-28 -49q23 -3 38 -15t22 -30q5 -13 5 -29v-9q-2 -21 -13 -43q-18 -35 -54 -50t-77 -15q-22 0 -48.5 7t-55.5 26l34 67q26 -17 48 -20h12q13 0 23 4q14 5 20 15.5t2 22t-19 19.5t-43 9l47 85
q-47 3 -89 19t-72.5 44.5t-45.5 69.5q-10 26 -10 58q0 17 3 36l37 272q8 57 37.5 99.5t72 71t93.5 43t103 14.5q39 0 76 -10t68.5 -30t56 -50.5t37.5 -71.5l-110 -51q-19 48 -59.5 72.5t-87.5 24.5q-29 0 -58.5 -7t-53.5 -21t-40 -35t-20 -49l-37 -272q-1 -8 -1 -15
q0 -19 8 -34q10 -21 30 -35t47 -21t56 -7z" />
    <glyph glyph-name="Egrave" unicode="&#xc8;" horiz-adv-x="576" 
d="M235 907h149l70 -151h-120zM198 412h323l-16 -116h-323l-25 -180h351l-16 -116h-467l99 709h467l-16 -116h-351z" />
    <glyph glyph-name="Eacute" unicode="&#xc9;" horiz-adv-x="576" 
d="M404 756h-114l114 151h141zM198 412h323l-16 -116h-323l-25 -180h351l-16 -116h-467l99 709h467l-16 -116h-351z" />
    <glyph glyph-name="Ecircumflex" unicode="&#xca;" horiz-adv-x="576" 
d="M545 756h-127l-46 53l-56 -53h-129l160 151h81zM198 412h323l-16 -116h-323l-25 -180h351l-16 -116h-467l99 709h467l-16 -116h-351z" />
    <glyph glyph-name="Edieresis" unicode="&#xcb;" horiz-adv-x="576" 
d="M483 899q31 0 50 -21q14 -17 14 -39q0 -6 -1 -13q-5 -31 -28.5 -52t-54.5 -21t-49 21q-14 16 -14 39q0 6 1 13q5 31 28 52t54 21zM282 899q31 0 50 -21q14 -17 14 -39q0 -6 -1 -13q-5 -31 -28.5 -52t-54.5 -21t-49 21q-14 16 -14 39q0 6 1 13q5 31 28 52t54 21zM198 412
h323l-16 -116h-323l-25 -180h351l-16 -116h-467l99 709h467l-16 -116h-351z" />
    <glyph glyph-name="Igrave" unicode="&#xcc;" horiz-adv-x="250" 
d="M59 907h149l70 -151h-120zM140 0h-115l99 708h115z" />
    <glyph glyph-name="Iacute" unicode="&#xcd;" horiz-adv-x="250" 
d="M228 756h-114l114 151h141zM140 0h-115l99 708h115z" />
    <glyph glyph-name="Icircumflex" unicode="&#xce;" horiz-adv-x="250" 
d="M342 756h-97l-47 57l-65 -57h-109l140 151h81zM140 0h-115l99 708h115z" />
    <glyph glyph-name="Idieresis" unicode="&#xcf;" horiz-adv-x="250" 
d="M304 899q31 0 50 -21q14 -17 14 -39q0 -6 -1 -13q-5 -31 -28.5 -52t-54.5 -21t-49 21q-14 16 -14 39q0 6 1 13q5 31 28 52t54 21zM106 899q31 0 50 -21q14 -17 14 -39q0 -6 -1 -13q-5 -31 -28.5 -52t-54.5 -21t-49 21q-14 16 -14 39q0 6 1 13q5 31 28 52t54 21zM140 0
h-115l99 708h115z" />
    <glyph glyph-name="Eth" unicode="&#xd0;" horiz-adv-x="642" 
d="M395 708q51 0 95 -12.5t75 -39.5t45 -68q10 -27 10 -61q0 -18 -3 -39l-38 -269q-8 -58 -34 -99.5t-64.5 -68t-86 -39t-98.5 -12.5h-266l42 302h-57l13 95h57l44 311h266zM312 116q60 0 102 23.5t50 79.5l38 269q1 10 1 19q0 16 -5 29q-7 20 -23.5 32.5t-41 18t-54.5 5.5
h-150l-28 -195h114l-13 -95h-114l-26 -186h150z" />
    <glyph glyph-name="Ntilde" unicode="&#xd1;" horiz-adv-x="681" 
d="M356 908q23 0 43 -10.5t37 -17.5q14 -6 26 -6h6q14 2 25 27l74 -30q-11 -54 -39 -78.5t-55 -24.5q-25 0 -47.5 11t-41.5 19q-14 5 -27 5q-5 0 -10 -1q-17 -3 -30 -32l-70 33q20 59 46.5 82t62.5 23zM24 0l99 708h122l187 -418l53 -141l8 2l4 152l57 405h116l-99 -708
h-135l-184 410l-47 135l-7 -2l-3 -148l-55 -395h-116z" />
    <glyph glyph-name="Ograve" unicode="&#xd2;" horiz-adv-x="668" 
d="M269 917h149l70 -151h-120zM392 718q54 0 103.5 -14.5t86 -43t54.5 -71.5q13 -30 13 -67q0 -16 -2 -33l-39 -269q-8 -57 -39 -100.5t-75.5 -72t-98 -43t-107.5 -14.5t-103.5 14.5t-85.5 43t-54 72.5q-12 30 -12 66q0 16 2 34l39 269q8 57 38.5 100t74.5 71.5t97.5 43
t107.5 14.5zM150 207q0 -21 8 -37q12 -21 33.5 -35t51.5 -21.5t62 -7.5q33 0 65 7.5t58 21.5t44 35.5t22 50.5l38 265q1 8 1 15q0 21 -9 37q-11 22 -33.5 36t-52.5 20.5t-62 6.5t-64 -7t-58 -21t-43.5 -35.5t-21.5 -51.5l-38 -265q-1 -7 -1 -14z" />
    <glyph glyph-name="Oacute" unicode="&#xd3;" horiz-adv-x="668" 
d="M438 766h-114l114 151h141zM392 718q54 0 103.5 -14.5t86 -43t54.5 -71.5q13 -30 13 -67q0 -16 -2 -33l-39 -269q-8 -57 -39 -100.5t-75.5 -72t-98 -43t-107.5 -14.5t-103.5 14.5t-85.5 43t-54 72.5q-12 30 -12 66q0 16 2 34l39 269q8 57 38.5 100t74.5 71.5t97.5 43
t107.5 14.5zM150 207q0 -21 8 -37q12 -21 33.5 -35t51.5 -21.5t62 -7.5q33 0 65 7.5t58 21.5t44 35.5t22 50.5l38 265q1 8 1 15q0 21 -9 37q-11 22 -33.5 36t-52.5 20.5t-62 6.5t-64 -7t-58 -21t-43.5 -35.5t-21.5 -51.5l-38 -265q-1 -7 -1 -14z" />
    <glyph glyph-name="Ocircumflex" unicode="&#xd4;" horiz-adv-x="668" 
d="M579 766h-127l-46 53l-56 -53h-129l160 151h81zM392 718q54 0 103.5 -14.5t86 -43t54.5 -71.5q13 -30 13 -67q0 -16 -2 -33l-39 -269q-8 -57 -39 -100.5t-75.5 -72t-98 -43t-107.5 -14.5t-103.5 14.5t-85.5 43t-54 72.5q-12 30 -12 66q0 16 2 34l39 269q8 57 38.5 100
t74.5 71.5t97.5 43t107.5 14.5zM150 207q0 -21 8 -37q12 -21 33.5 -35t51.5 -21.5t62 -7.5q33 0 65 7.5t58 21.5t44 35.5t22 50.5l38 265q1 8 1 15q0 21 -9 37q-11 22 -33.5 36t-52.5 20.5t-62 6.5t-64 -7t-58 -21t-43.5 -35.5t-21.5 -51.5l-38 -265q-1 -7 -1 -14z" />
    <glyph glyph-name="Otilde" unicode="&#xd5;" horiz-adv-x="668" 
d="M341 918q23 0 43 -10.5t37 -17.5q14 -6 26 -6h6q14 2 25 27l74 -30q-11 -54 -39 -78.5t-55 -24.5q-25 0 -47.5 11t-41.5 19q-14 5 -27 5q-5 0 -10 -1q-17 -3 -30 -32l-70 33q20 59 46.5 82t62.5 23zM392 718q54 0 103.5 -14.5t86 -43t54.5 -71.5q13 -30 13 -67
q0 -16 -2 -33l-39 -269q-8 -57 -39 -100.5t-75.5 -72t-98 -43t-107.5 -14.5t-103.5 14.5t-85.5 43t-54 72.5q-12 30 -12 66q0 16 2 34l39 269q8 57 38.5 100t74.5 71.5t97.5 43t107.5 14.5zM150 207q0 -21 8 -37q12 -21 33.5 -35t51.5 -21.5t62 -7.5q33 0 65 7.5t58 21.5
t44 35.5t22 50.5l38 265q1 8 1 15q0 21 -9 37q-11 22 -33.5 36t-52.5 20.5t-62 6.5t-64 -7t-58 -21t-43.5 -35.5t-21.5 -51.5l-38 -265q-1 -7 -1 -14z" />
    <glyph glyph-name="Odieresis" unicode="&#xd6;" horiz-adv-x="668" 
d="M517 909q31 0 50 -21q14 -17 14 -39q0 -6 -1 -13q-5 -31 -28.5 -52t-54.5 -21t-49 21q-14 16 -14 39q0 6 1 13q5 31 28 52t54 21zM316 909q31 0 50 -21q14 -17 14 -39q0 -6 -1 -13q-5 -31 -28.5 -52t-54.5 -21t-49 21q-14 16 -14 39q0 6 1 13q5 31 28 52t54 21zM392 718
q54 0 103.5 -14.5t86 -43t54.5 -71.5q13 -30 13 -67q0 -16 -2 -33l-39 -269q-8 -57 -39 -100.5t-75.5 -72t-98 -43t-107.5 -14.5t-103.5 14.5t-85.5 43t-54 72.5q-12 30 -12 66q0 16 2 34l39 269q8 57 38.5 100t74.5 71.5t97.5 43t107.5 14.5zM150 207q0 -21 8 -37
q12 -21 33.5 -35t51.5 -21.5t62 -7.5q33 0 65 7.5t58 21.5t44 35.5t22 50.5l38 265q1 8 1 15q0 21 -9 37q-11 22 -33.5 36t-52.5 20.5t-62 6.5t-64 -7t-58 -21t-43.5 -35.5t-21.5 -51.5l-38 -265q-1 -7 -1 -14z" />
    <glyph glyph-name="multiply" unicode="&#xd7;" horiz-adv-x="513" 
d="M429 518l66 -79l-160 -141l120 -139l-88 -78l-120 140l-166 -145l-64 80l162 141l-124 145l87 77l125 -144z" />
    <glyph glyph-name="Oslash" unicode="&#xd8;" horiz-adv-x="668" 
d="M649 522q0 -16 -2 -33l-39 -269q-8 -57 -39 -100.5t-75.5 -72t-98 -43t-107.5 -14.5q-55 0 -100 13l-43 -80l-69 28l44 82q-46 28 -70 75q-18 33 -18 75q0 18 3 37l39 269q8 57 38.5 100t74.5 71.5t97.5 43t107.5 14.5q25 0 50 -3t48 -10l43 78l64 -28l-42 -77
q48 -28 75 -75q19 -35 19 -81zM150 206q0 -16 6 -30q8 -19 25 -33l249 453q-28 5 -54 5q-32 0 -64 -7t-58 -21t-43.5 -35.5t-21.5 -51.5l-38 -265q-1 -8 -1 -15zM534 504q0 18 -7 32q-10 20 -30 34l-249 -458q27 -6 57 -6q33 0 65 7.5t58 21.5t44 35.5t22 50.5l38 265
q2 10 2 18z" />
    <glyph glyph-name="Ugrave" unicode="&#xd9;" horiz-adv-x="671" 
d="M270 907h149l70 -151h-120zM165 206q0 -20 7 -36q11 -22 31 -36.5t47.5 -21.5t56.5 -7q30 0 59 7t53.5 21.5t41 36.5t20.5 52l69 486h116l-69 -486q-8 -58 -38 -101.5t-72.5 -72.5t-93.5 -43.5t-102 -14.5t-98.5 14.5t-82 43.5t-51.5 72q-12 30 -12 66q0 17 3 36l69 486
h116l-69 -486q-1 -8 -1 -16z" />
    <glyph glyph-name="Uacute" unicode="&#xda;" horiz-adv-x="671" 
d="M439 756h-114l114 151h141zM165 206q0 -20 7 -36q11 -22 31 -36.5t47.5 -21.5t56.5 -7q30 0 59 7t53.5 21.5t41 36.5t20.5 52l69 486h116l-69 -486q-8 -58 -38 -101.5t-72.5 -72.5t-93.5 -43.5t-102 -14.5t-98.5 14.5t-82 43.5t-51.5 72q-12 30 -12 66q0 17 3 36l69 486
h116l-69 -486q-1 -8 -1 -16z" />
    <glyph glyph-name="Ucircumflex" unicode="&#xdb;" horiz-adv-x="671" 
d="M580 756h-127l-46 53l-56 -53h-129l160 151h81zM165 206q0 -20 7 -36q11 -22 31 -36.5t47.5 -21.5t56.5 -7q30 0 59 7t53.5 21.5t41 36.5t20.5 52l69 486h116l-69 -486q-8 -58 -38 -101.5t-72.5 -72.5t-93.5 -43.5t-102 -14.5t-98.5 14.5t-82 43.5t-51.5 72
q-12 30 -12 66q0 17 3 36l69 486h116l-69 -486q-1 -8 -1 -16z" />
    <glyph glyph-name="Udieresis" unicode="&#xdc;" horiz-adv-x="671" 
d="M518 899q31 0 50 -21q14 -17 14 -39q0 -6 -1 -13q-5 -31 -28.5 -52t-54.5 -21t-49 21q-14 16 -14 39q0 6 1 13q5 31 28 52t54 21zM317 899q31 0 50 -21q14 -17 14 -39q0 -6 -1 -13q-5 -31 -28.5 -52t-54.5 -21t-49 21q-14 16 -14 39q0 6 1 13q5 31 28 52t54 21zM165 206
q0 -20 7 -36q11 -22 31 -36.5t47.5 -21.5t56.5 -7q30 0 59 7t53.5 21.5t41 36.5t20.5 52l69 486h116l-69 -486q-8 -58 -38 -101.5t-72.5 -72.5t-93.5 -43.5t-102 -14.5t-98.5 14.5t-82 43.5t-51.5 72q-12 30 -12 66q0 17 3 36l69 486h116l-69 -486q-1 -8 -1 -16z" />
    <glyph glyph-name="Yacute" unicode="&#xdd;" horiz-adv-x="599" 
d="M403 756h-114l114 151h141zM199 0l38 275l-185 433h133l126 -322l215 322h135l-308 -433l-38 -275h-116z" />
    <glyph glyph-name="Thorn" unicode="&#xde;" horiz-adv-x="608" 
d="M381 592q61 0 104 -20t69 -53t36 -75q5 -26 5 -52q0 -16 -2 -33q-6 -44 -27 -85.5t-56 -73.5t-83.5 -51.5t-109.5 -19.5h-161l-18 -129h-114l99 708h114l-16 -116h160zM331 235q33 0 58.5 11t44.5 28t30 39t14 44q1 8 1 16q0 14 -3 27q-5 22 -19 39t-37 27q-21 10 -50 10
h-5h-160l-34 -241h160z" />
    <glyph glyph-name="germandbls" unicode="&#xdf;" horiz-adv-x="580" 
d="M276 107q27 0 52 9q34 11 59.5 36.5t30.5 63.5q1 10 1 19q0 16 -4 29q-7 20 -22.5 33t-37.5 19t-49 6h-92l15 105h92q40 0 73 26.5t39 71.5q1 7 1 13q0 15 -6 26q-7 17 -22 27.5t-34.5 15.5t-40.5 5t-43 -5.5t-40.5 -17t-31.5 -29t-16 -41.5l-72 -519h-111l72 519
q7 48 32 85t60.5 62t78.5 37.5t85 12.5t81 -11.5t68 -35.5t44 -60q10 -25 10 -55q0 -14 -2 -29q-3 -20 -9.5 -41t-17.5 -40.5t-26.5 -36t-35.5 -26.5q50 -26 67 -69q11 -28 11 -62q0 -16 -3 -34q-11 -67 -49 -114.5t-89.5 -73t-109.5 -28.5h-14q-51 0 -96 20l16 112
q29 -20 66 -24q10 -1 20 -1z" />
    <glyph glyph-name="agrave" unicode="&#xe0;" 
d="M171 727h149l70 -151h-120zM183 -10q-35 0 -66 12t-54 35t-34 56q-7 21 -7 46q0 14 2 28l26 180q7 51 30 85.5t56 56t73.5 30.5t82.5 9q48 0 97.5 -13t88.5 -33l-67 -482h-89l-8 45q-29 -29 -63 -42t-68 -13zM289 434q-22 0 -43.5 -4.5t-39.5 -15t-31 -27t-16 -39.5
l-26 -181q-1 -7 -1 -13q0 -12 4 -20q5 -14 16 -23t26.5 -13.5t33.5 -4.5h6q26 0 52 8q29 9 49 24l42 292q-14 8 -33 12.5t-39 4.5z" />
    <glyph glyph-name="aacute" unicode="&#xe1;" 
d="M340 576h-114l114 151h141zM183 -10q-35 0 -66 12t-54 35t-34 56q-7 21 -7 46q0 14 2 28l26 180q7 51 30 85.5t56 56t73.5 30.5t82.5 9q48 0 97.5 -13t88.5 -33l-67 -482h-89l-8 45q-29 -29 -63 -42t-68 -13zM289 434q-22 0 -43.5 -4.5t-39.5 -15t-31 -27t-16 -39.5
l-26 -181q-1 -7 -1 -13q0 -12 4 -20q5 -14 16 -23t26.5 -13.5t33.5 -4.5h6q26 0 52 8q29 9 49 24l42 292q-14 8 -33 12.5t-39 4.5z" />
    <glyph glyph-name="acircumflex" unicode="&#xe2;" 
d="M471 576h-127l-46 53l-56 -53h-129l160 151h81zM183 -10q-35 0 -66 12t-54 35t-34 56q-7 21 -7 46q0 14 2 28l26 180q7 51 30 85.5t56 56t73.5 30.5t82.5 9q48 0 97.5 -13t88.5 -33l-67 -482h-89l-8 45q-29 -29 -63 -42t-68 -13zM289 434q-22 0 -43.5 -4.5t-39.5 -15
t-31 -27t-16 -39.5l-26 -181q-1 -7 -1 -13q0 -12 4 -20q5 -14 16 -23t26.5 -13.5t33.5 -4.5h6q26 0 52 8q29 9 49 24l42 292q-14 8 -33 12.5t-39 4.5z" />
    <glyph glyph-name="atilde" unicode="&#xe3;" 
d="M243 728q23 0 43 -10.5t37 -17.5q14 -6 26 -6h6q14 2 25 27l74 -30q-11 -54 -39 -78.5t-55 -24.5q-25 0 -47.5 11t-41.5 19q-14 5 -27 5q-5 0 -10 -1q-17 -3 -30 -32l-70 33q20 59 46.5 82t62.5 23zM183 -10q-35 0 -66 12t-54 35t-34 56q-7 21 -7 46q0 14 2 28l26 180
q7 51 30 85.5t56 56t73.5 30.5t82.5 9q48 0 97.5 -13t88.5 -33l-67 -482h-89l-8 45q-29 -29 -63 -42t-68 -13zM289 434q-22 0 -43.5 -4.5t-39.5 -15t-31 -27t-16 -39.5l-26 -181q-1 -7 -1 -13q0 -12 4 -20q5 -14 16 -23t26.5 -13.5t33.5 -4.5h6q26 0 52 8q29 9 49 24l42 292
q-14 8 -33 12.5t-39 4.5z" />
    <glyph glyph-name="adieresis" unicode="&#xe4;" 
d="M419 719q31 0 50 -21q14 -17 14 -39q0 -6 -1 -13q-5 -31 -28.5 -52t-54.5 -21t-49 21q-14 16 -14 39q0 6 1 13q5 31 28 52t54 21zM218 719q31 0 50 -21q14 -17 14 -39q0 -6 -1 -13q-5 -31 -28.5 -52t-54.5 -21t-49 21q-14 16 -14 39q0 6 1 13q5 31 28 52t54 21zM183 -10
q-35 0 -66 12t-54 35t-34 56q-7 21 -7 46q0 14 2 28l26 180q7 51 30 85.5t56 56t73.5 30.5t82.5 9q48 0 97.5 -13t88.5 -33l-67 -482h-89l-8 45q-29 -29 -63 -42t-68 -13zM289 434q-22 0 -43.5 -4.5t-39.5 -15t-31 -27t-16 -39.5l-26 -181q-1 -7 -1 -13q0 -12 4 -20
q5 -14 16 -23t26.5 -13.5t33.5 -4.5h6q26 0 52 8q29 9 49 24l42 292q-14 8 -33 12.5t-39 4.5z" />
    <glyph glyph-name="aring" unicode="&#xe5;" 
d="M333 779q23 0 43.5 -9t34.5 -24.5t21 -35.5q5 -14 5 -29q0 -6 -1 -13q-3 -22 -15.5 -42t-31 -35t-41 -23.5t-45.5 -8.5q-24 0 -44.5 8.5t-35 23.5t-21.5 35q-5 14 -5 29q0 7 1 14q3 27 16 47.5t31.5 34.5t41 21t46.5 7zM370 675q0 16 -13 28q-14 14 -34 14q-21 0 -38 -12
t-20 -37q-1 -4 -1 -7q0 -15 12 -27q14 -13 35 -13q20 0 37.5 12t20.5 35q1 4 1 7zM183 -10q-35 0 -66 12t-54 35t-34 56q-7 21 -7 46q0 14 2 28l26 180q7 51 30 85.5t56 56t73.5 30.5t82.5 9q48 0 97.5 -13t88.5 -33l-67 -482h-89l-8 45q-29 -29 -63 -42t-68 -13zM289 434
q-22 0 -43.5 -4.5t-39.5 -15t-31 -27t-16 -39.5l-26 -181q-1 -7 -1 -13q0 -12 4 -20q5 -14 16 -23t26.5 -13.5t33.5 -4.5h6q26 0 52 8q29 9 49 24l42 292q-14 8 -33 12.5t-39 4.5z" />
    <glyph glyph-name="ae" unicode="&#xe6;" horiz-adv-x="779" 
d="M511 -7q-31 0 -61 7.5t-55 22.5l-6 -23h-74l2 45q-29 -26 -62.5 -40.5t-68.5 -14.5t-66.5 12t-54.5 35t-35 56q-7 22 -7 47q0 13 2 27l24 176q7 49 28.5 83.5t53 57t70 33t79.5 11.5h8q41 0 81 -9q44 -10 80 -27q29 17 63 26.5t68 9.5q39 0 73.5 -11.5t60 -34.5t37.5 -57
q8 -23 8 -50q0 -14 -2 -29q-5 -39 -24.5 -66.5t-47.5 -45t-62.5 -26t-70.5 -8.5q-29 0 -58.5 6t-54.5 18l-7 -52q-1 -7 -1 -13q0 -12 4 -22q6 -15 18.5 -25.5t29.5 -15.5t36 -5q29 0 58.5 12.5t50.5 38.5l70 -52q-40 -50 -88 -73.5t-99 -23.5zM133 158q0 -12 3 -22
q6 -15 17.5 -25t28 -15t35.5 -5q28 0 56.5 9.5t51.5 29.5q-1 10 0 20.5t3 21.5l24 171q2 18 6 34.5t12 31.5q-36 22 -85 22q-23 0 -44.5 -5.5t-39 -16t-29 -27t-14.5 -38.5l-24 -173q-1 -7 -1 -13zM544 281q19 0 36.5 3t32 10.5t24 20t12.5 31.5q1 6 1 12q0 12 -4 22
q-7 15 -19 25t-28 15t-34 5t-36.5 -5t-33.5 -15.5t-25.5 -25.5t-13.5 -35l-6 -45q20 -6 45.5 -12t48.5 -6z" />
    <glyph glyph-name="ccedilla" unicode="&#xe7;" horiz-adv-x="473" 
d="M302 -127v-9q-2 -21 -13 -43q-18 -35 -54 -50t-77 -15q-22 0 -48.5 7t-55.5 26l34 67q26 -17 48 -20h12q13 0 23 4q14 5 20 15.5t2 22t-19 19.5t-43 9l47 85q-34 3 -64.5 16.5t-52 36t-31.5 54.5q-7 21 -7 45q0 14 2 29l25 178q6 45 28.5 78.5t54.5 55.5t70 33t76 11
q30 0 60.5 -7.5t55.5 -23.5t43 -42t23 -63l-105 -38q-5 35 -32 50.5t-59 16.5q-18 0 -36 -4.5t-32.5 -13.5t-24.5 -22t-12 -30l-26 -180v-8q0 -13 4 -23q6 -14 18 -23.5t28.5 -14.5t35.5 -5q32 1 63.5 19t45.5 52l95 -42q-24 -56 -67 -86.5t-91 -41.5l-29 -51q23 -3 38 -15
t22 -30q5 -13 5 -29z" />
    <glyph glyph-name="egrave" unicode="&#xe8;" horiz-adv-x="479" 
d="M156 727h149l70 -151h-120zM207 -10q-38 0 -73.5 11.5t-61.5 34.5t-40 57q-9 24 -9 52q0 13 2 27l24 172q6 46 28.5 80.5t54.5 57.5t70 34.5t77 11.5t73.5 -11.5t60 -34t37.5 -56.5q8 -23 8 -50q0 -14 -2 -29q-5 -37 -23.5 -64.5t-46 -45.5t-63.5 -26.5t-76 -8.5
q-57 0 -108 20l-6 -50q-1 -7 -1 -13q0 -12 4 -21q5 -15 17 -25.5t28.5 -16t34.5 -5.5h4q27 0 58 12q32 13 53 40l70 -52q-40 -50 -91.5 -75.5t-102.5 -25.5zM254 287q44 0 68 20q26 22 26 54q0 24 -19 43q-21 20 -64 20q-19 0 -37 -5.5t-33 -16.5t-25 -26.5t-13 -35.5
l-6 -36q17 -5 44 -11t59 -6z" />
    <glyph glyph-name="eacute" unicode="&#xe9;" horiz-adv-x="479" 
d="M305 576h-114l114 151h141zM207 -10q-38 0 -73.5 11.5t-61.5 34.5t-40 57q-9 24 -9 52q0 13 2 27l24 172q6 46 28.5 80.5t54.5 57.5t70 34.5t77 11.5t73.5 -11.5t60 -34t37.5 -56.5q8 -23 8 -50q0 -14 -2 -29q-5 -37 -23.5 -64.5t-46 -45.5t-63.5 -26.5t-76 -8.5
q-57 0 -108 20l-6 -50q-1 -7 -1 -13q0 -12 4 -21q5 -15 17 -25.5t28.5 -16t34.5 -5.5h4q27 0 58 12q32 13 53 40l70 -52q-40 -50 -91.5 -75.5t-102.5 -25.5zM254 287q44 0 68 20q26 22 26 54q0 24 -19 43q-21 20 -64 20q-19 0 -37 -5.5t-33 -16.5t-25 -26.5t-13 -35.5
l-6 -36q17 -5 44 -11t59 -6z" />
    <glyph glyph-name="ecircumflex" unicode="&#xea;" horiz-adv-x="479" 
d="M456 576h-127l-46 53l-56 -53h-129l160 151h81zM207 -10q-38 0 -73.5 11.5t-61.5 34.5t-40 57q-9 24 -9 52q0 13 2 27l24 172q6 46 28.5 80.5t54.5 57.5t70 34.5t77 11.5t73.5 -11.5t60 -34t37.5 -56.5q8 -23 8 -50q0 -14 -2 -29q-5 -37 -23.5 -64.5t-46 -45.5
t-63.5 -26.5t-76 -8.5q-57 0 -108 20l-6 -50q-1 -7 -1 -13q0 -12 4 -21q5 -15 17 -25.5t28.5 -16t34.5 -5.5h4q27 0 58 12q32 13 53 40l70 -52q-40 -50 -91.5 -75.5t-102.5 -25.5zM254 287q44 0 68 20q26 22 26 54q0 24 -19 43q-21 20 -64 20q-19 0 -37 -5.5t-33 -16.5
t-25 -26.5t-13 -35.5l-6 -36q17 -5 44 -11t59 -6z" />
    <glyph glyph-name="edieresis" unicode="&#xeb;" horiz-adv-x="479" 
d="M394 719q31 0 50 -21q14 -17 14 -39q0 -6 -1 -13q-5 -31 -28.5 -52t-54.5 -21t-49 21q-14 16 -14 39q0 6 1 13q5 31 28 52t54 21zM193 719q31 0 50 -21q14 -17 14 -39q0 -6 -1 -13q-5 -31 -28.5 -52t-54.5 -21t-49 21q-14 16 -14 39q0 6 1 13q5 31 28 52t54 21zM207 -10
q-38 0 -73.5 11.5t-61.5 34.5t-40 57q-9 24 -9 52q0 13 2 27l24 172q6 46 28.5 80.5t54.5 57.5t70 34.5t77 11.5t73.5 -11.5t60 -34t37.5 -56.5q8 -23 8 -50q0 -14 -2 -29q-5 -37 -23.5 -64.5t-46 -45.5t-63.5 -26.5t-76 -8.5q-57 0 -108 20l-6 -50q-1 -7 -1 -13
q0 -12 4 -21q5 -15 17 -25.5t28.5 -16t34.5 -5.5h4q27 0 58 12q32 13 53 40l70 -52q-40 -50 -91.5 -75.5t-102.5 -25.5zM254 287q44 0 68 20q26 22 26 54q0 24 -19 43q-21 20 -64 20q-19 0 -37 -5.5t-33 -16.5t-25 -26.5t-13 -35.5l-6 -36q17 -5 44 -11t59 -6z" />
    <glyph glyph-name="igrave" unicode="&#xec;" horiz-adv-x="228" 
d="M22 727h149l70 -151h-120zM126 0h-110l73 519h110z" />
    <glyph glyph-name="iacute" unicode="&#xed;" horiz-adv-x="228" 
d="M191 576h-114l114 151h141zM126 0h-110l73 519h110z" />
    <glyph glyph-name="icircumflex" unicode="&#xee;" horiz-adv-x="228" 
d="M-6 566l140 151h81l97 -151h-111l-38 66l-57 -66h-112zM126 0h-110l73 519h110z" />
    <glyph glyph-name="idieresis" unicode="&#xef;" horiz-adv-x="228" 
d="M260 709q31 0 50 -21q14 -17 14 -39q0 -6 -1 -13q-5 -31 -28.5 -52t-54.5 -21t-49 21q-14 16 -14 39q0 6 1 13q5 31 28 52t54 21zM79 709q31 0 50 -21q14 -17 14 -39q0 -6 -1 -13q-5 -31 -28.5 -52t-54.5 -21t-49 21q-14 16 -14 39q0 6 1 13q5 31 28 52t54 21zM126 0
h-110l73 519h110z" />
    <glyph glyph-name="eth" unicode="&#xf0;" horiz-adv-x="504" 
d="M292 691q13 0 26 -2l40 84l74 -21l-39 -77q48 -17 70 -57q16 -30 16 -70q0 -14 -2 -30l-68 -487q-45 -12 -77.5 -19.5t-56.5 -11.5t-42 -5t-34 -1q-37 0 -71 11.5t-58.5 33.5t-37.5 55q-8 22 -8 50q0 13 2 27l19 135q5 40 24 69.5t45.5 49t58.5 30t65 12.5h15q25 0 49 -5
q31 -6 56 -19l10 75q2 15 -2.5 29t-18.5 23l-31 -61l-74 22l27 53q-20 0 -45 -8.5t-45 -23.5l-54 75q21 16 45.5 29.5t50 22t50.5 11.5q11 1 21 1zM213 93q54 0 98 14l33 241q-20 15 -50 22q-20 5 -40 5q-10 0 -20 -1q-30 -4 -53 -20.5t-27 -47.5l-21 -143q-1 -4 -1 -8
q0 -12 5 -22q6 -13 17.5 -22t26.5 -13.5t32 -4.5z" />
    <glyph glyph-name="ntilde" unicode="&#xf1;" horiz-adv-x="518" 
d="M243 728q23 0 43 -10.5t37 -17.5q14 -6 26 -6h6q14 2 25 27l74 -30q-11 -54 -39 -78.5t-55 -24.5q-25 0 -47.5 11t-41.5 19q-14 5 -27 5q-5 0 -10 -1q-17 -3 -30 -32l-70 33q20 59 46.5 82t62.5 23zM470 376q0 -15 -2 -32l-48 -344h-109l47 339v9q0 16 -6 28
q-8 16 -22 26t-32.5 14.5t-38.5 4.5q-21 0 -41.5 -4.5t-36.5 -13.5l-56 -403h-110l68 486q43 20 93 31t98 11q43 -1 81 -11.5t65.5 -32.5t41.5 -56q8 -23 8 -52z" />
    <glyph glyph-name="ograve" unicode="&#xf2;" horiz-adv-x="496" 
d="M142 727h149l70 -151h-120zM280 528q37 0 72 -11.5t60.5 -34t38.5 -55.5q9 -23 9 -51q0 -13 -2 -27l-25 -180q-6 -45 -28.5 -78.5t-54.5 -56t-70 -33.5t-75 -11q-38 0 -73.5 11t-61 33.5t-38.5 55.5q-9 23 -9 52q0 13 2 27l25 180q6 45 28.5 78t54.5 55.5t70.5 34
t76.5 11.5zM265 421q-17 0 -34.5 -4.5t-32.5 -13.5t-25 -22.5t-13 -31.5l-24 -175q-1 -6 -1 -11q0 -12 5 -21q6 -15 18.5 -25t29 -15t33.5 -5q16 0 33 5t32 15t25 24.5t13 32.5l24 175q1 5 1 10q0 12 -5 21q-7 14 -19 23t-28 13.5t-32 4.5z" />
    <glyph glyph-name="oacute" unicode="&#xf3;" horiz-adv-x="496" 
d="M326 576h-114l114 151h141zM280 528q37 0 72 -11.5t60.5 -34t38.5 -55.5q9 -23 9 -51q0 -13 -2 -27l-25 -180q-6 -45 -28.5 -78.5t-54.5 -56t-70 -33.5t-75 -11q-38 0 -73.5 11t-61 33.5t-38.5 55.5q-9 23 -9 52q0 13 2 27l25 180q6 45 28.5 78t54.5 55.5t70.5 34
t76.5 11.5zM265 421q-17 0 -34.5 -4.5t-32.5 -13.5t-25 -22.5t-13 -31.5l-24 -175q-1 -6 -1 -11q0 -12 5 -21q6 -15 18.5 -25t29 -15t33.5 -5q16 0 33 5t32 15t25 24.5t13 32.5l24 175q1 5 1 10q0 12 -5 21q-7 14 -19 23t-28 13.5t-32 4.5z" />
    <glyph glyph-name="ocircumflex" unicode="&#xf4;" horiz-adv-x="496" 
d="M467 576h-127l-46 53l-56 -53h-129l160 151h81zM280 528q37 0 72 -11.5t60.5 -34t38.5 -55.5q9 -23 9 -51q0 -13 -2 -27l-25 -180q-6 -45 -28.5 -78.5t-54.5 -56t-70 -33.5t-75 -11q-38 0 -73.5 11t-61 33.5t-38.5 55.5q-9 23 -9 52q0 13 2 27l25 180q6 45 28.5 78
t54.5 55.5t70.5 34t76.5 11.5zM265 421q-17 0 -34.5 -4.5t-32.5 -13.5t-25 -22.5t-13 -31.5l-24 -175q-1 -6 -1 -11q0 -12 5 -21q6 -15 18.5 -25t29 -15t33.5 -5q16 0 33 5t32 15t25 24.5t13 32.5l24 175q1 5 1 10q0 12 -5 21q-7 14 -19 23t-28 13.5t-32 4.5z" />
    <glyph glyph-name="otilde" unicode="&#xf5;" horiz-adv-x="496" 
d="M229 728q23 0 43 -10.5t37 -17.5q14 -6 26 -6h6q14 2 25 27l74 -30q-11 -54 -39 -78.5t-55 -24.5q-25 0 -47.5 11t-41.5 19q-14 5 -27 5q-5 0 -10 -1q-17 -3 -30 -32l-70 33q20 59 46.5 82t62.5 23zM280 528q37 0 72 -11.5t60.5 -34t38.5 -55.5q9 -23 9 -51q0 -13 -2 -27
l-25 -180q-6 -45 -28.5 -78.5t-54.5 -56t-70 -33.5t-75 -11q-38 0 -73.5 11t-61 33.5t-38.5 55.5q-9 23 -9 52q0 13 2 27l25 180q6 45 28.5 78t54.5 55.5t70.5 34t76.5 11.5zM265 421q-17 0 -34.5 -4.5t-32.5 -13.5t-25 -22.5t-13 -31.5l-24 -175q-1 -6 -1 -11q0 -12 5 -21
q6 -15 18.5 -25t29 -15t33.5 -5q16 0 33 5t32 15t25 24.5t13 32.5l24 175q1 5 1 10q0 12 -5 21q-7 14 -19 23t-28 13.5t-32 4.5z" />
    <glyph glyph-name="odieresis" unicode="&#xf6;" horiz-adv-x="496" 
d="M405 719q31 0 50 -21q14 -17 14 -39q0 -6 -1 -13q-5 -31 -28.5 -52t-54.5 -21t-49 21q-14 16 -14 39q0 6 1 13q5 31 28 52t54 21zM204 719q31 0 50 -21q14 -17 14 -39q0 -6 -1 -13q-5 -31 -28.5 -52t-54.5 -21t-49 21q-14 16 -14 39q0 6 1 13q5 31 28 52t54 21zM280 528
q37 0 72 -11.5t60.5 -34t38.5 -55.5q9 -23 9 -51q0 -13 -2 -27l-25 -180q-6 -45 -28.5 -78.5t-54.5 -56t-70 -33.5t-75 -11q-38 0 -73.5 11t-61 33.5t-38.5 55.5q-9 23 -9 52q0 13 2 27l25 180q6 45 28.5 78t54.5 55.5t70.5 34t76.5 11.5zM265 421q-17 0 -34.5 -4.5
t-32.5 -13.5t-25 -22.5t-13 -31.5l-24 -175q-1 -6 -1 -11q0 -12 5 -21q6 -15 18.5 -25t29 -15t33.5 -5q16 0 33 5t32 15t25 24.5t13 32.5l24 175q1 5 1 10q0 12 -5 21q-7 14 -19 23t-28 13.5t-32 4.5z" />
    <glyph glyph-name="divide" unicode="&#xf7;" 
d="M473 271h-443l15 113h443zM317 179q0 -6 -1 -13q-5 -32 -30 -54t-56 -22q-15 0 -28 6t-22 16t-13 24q-3 9 -3 20q0 5 1 10q5 32 29.5 52.5t55.5 21.5q32 0 52 -21q15 -17 15 -40zM291 562q31 0 49 -21q15 -17 15 -39q0 -6 -1 -13q-5 -31 -28.5 -52t-54.5 -21t-49 21
q-14 16 -14 39q0 6 1 13q5 31 28 52t54 21z" />
    <glyph glyph-name="oslash" unicode="&#xf8;" horiz-adv-x="496" 
d="M460 377q0 -13 -2 -28l-25 -180q-6 -45 -28.5 -78.5t-54.5 -56t-70 -33.5t-75 -11q-35 0 -65 9l-33 -63l-55 28l31 61q-32 22 -49 57q-12 25 -12 56q0 15 3 31l25 180q6 45 28.5 78t54.5 55.5t70.5 34t76.5 11.5q29 0 59 -8l34 64l63 -28l-35 -64q31 -23 47 -58
q12 -25 12 -57zM135 164q0 -15 7 -27l146 282q-6 1 -12 1.5t-11 0.5q-17 0 -34.5 -4.5t-32.5 -13.5t-25 -22.5t-13 -31.5l-24 -175q-1 -5 -1 -10zM349 359q0 13 -6 23l-149 -282q13 -3 27 -3q16 0 33 5t32 15t25 24.5t13 32.5l24 175q1 5 1 10z" />
    <glyph glyph-name="ugrave" unicode="&#xf9;" horiz-adv-x="519" 
d="M165 717h149l70 -151h-120zM218 -10q-42 0 -78 10t-61.5 32t-37.5 56q-8 21 -8 49q0 15 3 33l49 348h110l-49 -350v-9q0 -15 6 -28q7 -16 21 -26t33 -15t39 -5t41 4.5t38 13.5l58 415h109l-68 -485q-50 -20 -103 -31.5t-102 -11.5z" />
    <glyph glyph-name="uacute" unicode="&#xfa;" horiz-adv-x="519" 
d="M334 566h-114l114 151h141zM218 -10q-42 0 -78 10t-61.5 32t-37.5 56q-8 21 -8 49q0 15 3 33l49 348h110l-49 -350v-9q0 -15 6 -28q7 -16 21 -26t33 -15t39 -5t41 4.5t38 13.5l58 415h109l-68 -485q-50 -20 -103 -31.5t-102 -11.5z" />
    <glyph glyph-name="ucircumflex" unicode="&#xfb;" horiz-adv-x="519" 
d="M466 573h-127l-46 53l-56 -53h-129l160 151h81zM218 -10q-42 0 -78 10t-61.5 32t-37.5 56q-8 21 -8 49q0 15 3 33l49 348h110l-49 -350v-9q0 -15 6 -28q7 -16 21 -26t33 -15t39 -5t41 4.5t38 13.5l58 415h109l-68 -485q-50 -20 -103 -31.5t-102 -11.5z" />
    <glyph glyph-name="udieresis" unicode="&#xfc;" horiz-adv-x="519" 
d="M413 709q31 0 50 -21q14 -17 14 -39q0 -6 -1 -13q-5 -31 -28.5 -52t-54.5 -21t-49 21q-14 16 -14 39q0 6 1 13q5 31 28 52t54 21zM212 709q31 0 50 -21q14 -17 14 -39q0 -6 -1 -13q-5 -31 -28.5 -52t-54.5 -21t-49 21q-14 16 -14 39q0 6 1 13q5 31 28 52t54 21zM218 -10
q-42 0 -78 10t-61.5 32t-37.5 56q-8 21 -8 49q0 15 3 33l49 348h110l-49 -350v-9q0 -15 6 -28q7 -16 21 -26t33 -15t39 -5t41 4.5t38 13.5l58 415h109l-68 -485q-50 -20 -103 -31.5t-102 -11.5z" />
    <glyph glyph-name="yacute" unicode="&#xfd;" horiz-adv-x="528" 
d="M189 -190q-30 0 -58 6.5t-53 18.5t-44 30t-31 41l75 63q17 -29 52 -44.5t73 -15.5q22 0 43 6t37.5 18t26.5 31t12 46q-52 -20 -104 -20q-39 1 -75 13t-62 35.5t-39 56.5q-8 22 -8 49q0 13 2 27l48 347h110l-49 -345v-8q0 -15 6 -27q8 -14 22 -23t32.5 -14t38.5 -5
q24 0 48 6t41 17l56 399h109l-72 -518q-7 -50 -30 -86t-56 -59t-72 -34t-79 -11zM337 566h-114l114 151h141z" />
    <glyph glyph-name="thorn" unicode="&#xfe;" horiz-adv-x="511" 
d="M302 528q37 0 71 -10.5t58.5 -32.5t36.5 -55q7 -23 7 -49q0 -15 -2 -30l-25 -181q-6 -41 -28 -74t-53.5 -56.5t-69.5 -36.5t-75 -13q-53 0 -93 25l-26 -184h-110l120 854h110l-26 -177q52 20 105 20zM225 88q19 0 37.5 4.5t34 14.5t26.5 25.5t15 37.5l26 187v9
q0 15 -5 26q-7 15 -20 24t-30 13t-36 4q-24 0 -47.5 -5.5t-41.5 -14.5l-42 -302q16 -11 38 -17t45 -6z" />
    <glyph glyph-name="ydieresis" unicode="&#xff;" horiz-adv-x="528" 
d="M189 -190q-30 0 -58 6.5t-53 18.5t-44 30t-31 41l75 63q17 -29 52 -44.5t73 -15.5q22 0 43 6t37.5 18t26.5 31t12 46q-52 -20 -104 -20q-39 1 -75 13t-62 35.5t-39 56.5q-8 22 -8 49q0 13 2 27l48 347h110l-49 -345v-8q0 -15 6 -27q8 -14 22 -23t32.5 -14t38.5 -5
q24 0 48 6t41 17l56 399h109l-72 -518q-7 -50 -30 -86t-56 -59t-72 -34t-79 -11zM416 709q31 0 50 -21q14 -17 14 -39q0 -6 -1 -13q-5 -31 -28.5 -52t-54.5 -21t-49 21q-14 16 -14 39q0 6 1 13q5 31 28 52t54 21zM215 709q31 0 49 -21q15 -17 15 -39q0 -6 -1 -13
q-5 -31 -28.5 -52t-54.5 -21t-49 21q-14 16 -14 39q0 6 1 13q5 31 28 52t54 21z" />
    <glyph glyph-name="Amacron" unicode="&#x100;" horiz-adv-x="627" 
d="M260 873h263l-17 -96h-263zM587 0h-121l-44 184h-254l-89 -184h-124l354 708h121zM346 591l-40 -114l-82 -177h175l-33 179l-6 112h-14z" />
    <glyph glyph-name="amacron" unicode="&#x101;" 
d="M184 693h263l-17 -96h-263zM183 -10q-35 0 -66 12t-54 35t-34 56q-7 21 -7 46q0 14 2 28l26 180q7 51 30 85.5t56 56t73.5 30.5t82.5 9q48 0 97.5 -13t88.5 -33l-67 -482h-89l-8 45q-29 -29 -63 -42t-68 -13zM286 434q-22 0 -43 -6q-31 -7 -55 -26.5t-29 -53.5l-26 -181
q-1 -7 -1 -13q0 -12 4 -20q5 -14 16 -23t26.5 -13.5t33.5 -4.5h6q26 0 52 8q29 9 49 24l42 292q-22 12 -55 15q-10 2 -20 2z" />
    <glyph glyph-name="Abreve" unicode="&#x102;" horiz-adv-x="627" 
d="M387 753q-28 0 -55 9.5t-46.5 28.5t-29.5 48q-5 18 -5 39q0 14 2 29h89q-1 -7 -1 -13q0 -21 13 -33q18 -15 41 -15t44 15t26 46h92q-5 -38 -21.5 -66.5t-39.5 -48t-51.5 -29.5t-57.5 -10zM587 0h-121l-44 184h-254l-89 -184h-124l354 708h121zM346 591l-40 -114l-82 -177
h175l-33 179l-6 112h-14z" />
    <glyph glyph-name="abreve" unicode="&#x103;" 
d="M311 573q-28 0 -55 9.5t-46.5 28.5t-29.5 48q-5 18 -5 39q0 14 2 29h89q-1 -7 -1 -13q0 -21 13 -33q18 -15 41 -15t44 15t26 46h92q-5 -38 -21.5 -66.5t-39.5 -48t-51.5 -29.5t-57.5 -10zM183 -10q-35 0 -66 12t-54 35t-34 56q-7 21 -7 46q0 14 2 28l26 180q7 51 30 85.5
t56 56t73.5 30.5t82.5 9q48 0 97.5 -13t88.5 -33l-67 -482h-89l-8 45q-29 -29 -63 -42t-68 -13zM286 434q-22 0 -43 -6q-31 -7 -55 -26.5t-29 -53.5l-26 -181q-1 -7 -1 -13q0 -12 4 -20q5 -14 16 -23t26.5 -13.5t33.5 -4.5h6q26 0 52 8q29 9 49 24l42 292q-22 12 -55 15
q-10 2 -20 2z" />
    <glyph glyph-name="Aogonek" unicode="&#x104;" horiz-adv-x="626" 
d="M484 -244q-23 0 -41.5 8.5t-31 23t-17.5 34.5q-3 10 -3 22q0 11 2 22q4 20 14 39.5t23.5 37t28.5 32.5t30 25h-24l-44 184h-254l-89 -184h-124l354 708h121l157 -708q-43 -33 -64 -64.5t-21 -52t19 -24.5q3 -1 7 -1q19 0 51 20l29 -71q-25 -23 -59.5 -37t-63.5 -14z
M365 479l-6 112h-9l-45 -114l-82 -177h175z" />
    <glyph glyph-name="aogonek" unicode="&#x105;" 
d="M333 -104q0 -23 19 -30q5 -3 11 -3q16 0 40 15l29 -71q-25 -23 -57.5 -33t-61.5 -10q-43 0 -69 27q-19 20 -19 52q0 11 2 23q4 22 14.5 42t24 37t28.5 31t28 25l-8 44q-29 -29 -63 -42t-68 -13q-35 0 -66 12t-54 35t-34 56q-7 21 -7 46q0 14 2 28l26 180q7 51 30 85.5
t56 56t73.5 30.5t82.5 9q48 0 97.5 -13t88.5 -33l-67 -482q-40 -24 -59 -54q-19 -29 -19 -50zM218 93q26 0 52 8q29 9 49 24l42 292q-22 12 -55 15q-10 2 -20 2q-22 0 -43 -6q-31 -7 -55 -26.5t-29 -53.5l-26 -181q-1 -7 -1 -13q0 -12 4 -20q5 -14 16 -23t26.5 -13.5
t33.5 -4.5h6z" />
    <glyph glyph-name="Cacute" unicode="&#x106;" horiz-adv-x="599" 
d="M425 766h-114l114 151h141zM379 718q39 0 76 -10t68.5 -30t56 -50.5t37.5 -71.5l-110 -51q-19 48 -59.5 72.5t-87.5 24.5q-29 0 -58.5 -7t-53.5 -21t-40 -35t-20 -49l-37 -272q-1 -8 -1 -15q0 -19 8 -34q10 -21 30 -35t47 -21t56 -7q48 0 95 24t79 72l97 -48
q-26 -41 -59 -72t-71 -51.5t-78 -30.5t-79 -10q-51 0 -97.5 14t-80.5 42.5t-51 71.5q-13 30 -13 66q0 16 3 34l37 272q8 57 37.5 99.5t72 71t93.5 43t103 14.5z" />
    <glyph glyph-name="cacute" unicode="&#x107;" horiz-adv-x="473" 
d="M326 576h-114l114 151h141zM280 528q30 0 60.5 -7.5t55.5 -23.5t43 -42t23 -63l-105 -38q-5 35 -32 50.5t-59 16.5q-18 0 -36 -4.5t-32.5 -13.5t-24.5 -22t-12 -30l-26 -180q-1 -4 -1 -8q0 -13 5 -23q6 -14 18 -23.5t28.5 -14.5t35.5 -5q32 1 63.5 19t45.5 52l95 -42
q-16 -37 -41 -63t-55 -42t-63 -23.5t-63 -7.5q-38 0 -72.5 11.5t-60 34.5t-38.5 57q-8 23 -8 51q0 13 2 28l25 178q6 45 28.5 78.5t54.5 55.5t70 33t76 11z" />
    <glyph glyph-name="Cdotaccent" unicode="&#x10a;" horiz-adv-x="599" 
d="M407 917q31 0 50 -21q14 -17 14 -39q0 -6 -1 -13q-5 -31 -28.5 -52t-54.5 -21t-49 21q-14 16 -14 39q0 6 1 13q5 31 28 52t54 21zM379 718q39 0 76 -10t68.5 -30t56 -50.5t37.5 -71.5l-110 -51q-19 48 -59.5 72.5t-87.5 24.5q-29 0 -58.5 -7t-53.5 -21t-40 -35t-20 -49
l-37 -272q-1 -8 -1 -15q0 -19 8 -34q10 -21 30 -35t47 -21t56 -7q48 0 95 24t79 72l97 -48q-26 -41 -59 -72t-71 -51.5t-78 -30.5t-79 -10q-51 0 -97.5 14t-80.5 42.5t-51 71.5q-13 30 -13 66q0 16 3 34l37 272q8 57 37.5 99.5t72 71t93.5 43t103 14.5z" />
    <glyph glyph-name="cdotaccent" unicode="&#x10b;" horiz-adv-x="473" 
d="M308 727q31 0 50 -21q14 -17 14 -39q0 -6 -1 -13q-5 -31 -28.5 -52t-54.5 -21t-49 21q-14 16 -14 39q0 6 1 13q5 31 28 52t54 21zM280 528q30 0 60.5 -7.5t55.5 -23.5t43 -42t23 -63l-105 -38q-5 35 -32 50.5t-59 16.5q-18 0 -36 -4.5t-32.5 -13.5t-24.5 -22t-12 -30
l-26 -180q-1 -4 -1 -8q0 -13 5 -23q6 -14 18 -23.5t28.5 -14.5t35.5 -5q32 1 63.5 19t45.5 52l95 -42q-16 -37 -41 -63t-55 -42t-63 -23.5t-63 -7.5q-38 0 -72.5 11.5t-60 34.5t-38.5 57q-8 23 -8 51q0 13 2 28l25 178q6 45 28.5 78.5t54.5 55.5t70 33t76 11z" />
    <glyph glyph-name="Ccaron" unicode="&#x10c;" horiz-adv-x="599" 
d="M221 917h134l46 -51l58 51h135l-165 -151h-83zM379 718q39 0 76 -10t68.5 -30t56 -50.5t37.5 -71.5l-110 -51q-19 48 -59.5 72.5t-87.5 24.5q-29 0 -58.5 -7t-53.5 -21t-40 -35t-20 -49l-37 -272q-1 -8 -1 -15q0 -19 8 -34q10 -21 30 -35t47 -21t56 -7q48 0 95 24t79 72
l97 -48q-26 -41 -59 -72t-71 -51.5t-78 -30.5t-79 -10q-51 0 -97.5 14t-80.5 42.5t-51 71.5q-13 30 -13 66q0 16 3 34l37 272q8 57 37.5 99.5t72 71t93.5 43t103 14.5z" />
    <glyph glyph-name="ccaron" unicode="&#x10d;" horiz-adv-x="473" 
d="M122 727h134l46 -51l58 51h135l-165 -151h-83zM280 528q30 0 60.5 -7.5t55.5 -23.5t43 -42t23 -63l-105 -38q-5 35 -32 50.5t-59 16.5q-18 0 -36 -4.5t-32.5 -13.5t-24.5 -22t-12 -30l-26 -180q-1 -4 -1 -8q0 -13 5 -23q6 -14 18 -23.5t28.5 -14.5t35.5 -5q32 1 63.5 19
t45.5 52l95 -42q-16 -37 -41 -63t-55 -42t-63 -23.5t-63 -7.5q-38 0 -72.5 11.5t-60 34.5t-38.5 57q-8 23 -8 51q0 13 2 28l25 178q6 45 28.5 78.5t54.5 55.5t70 33t76 11z" />
    <glyph glyph-name="Dcaron" unicode="&#x10e;" horiz-adv-x="634" 
d="M215 907h134l46 -51l58 51h135l-165 -151h-83zM377 708q52 0 98 -13t79 -40.5t49 -69.5q11 -28 11 -63q0 -18 -3 -37l-38 -266q-8 -58 -35.5 -99.5t-68 -68t-90 -39t-101.5 -12.5h-254l99 708h254zM294 116q30 0 57.5 5.5t50 18t37 32t18.5 47.5l38 266q1 8 1 16
q0 18 -6 33q-10 20 -28.5 33t-44.5 19t-56 6h-139l-67 -476h139z" />
    <glyph glyph-name="dcaron" unicode="&#x10f;" horiz-adv-x="518" 
d="M608 525h-92l59 183h105zM213 -10q-40 0 -75.5 9t-62 29t-40.5 54q-12 27 -12 65q0 8 1 17l26 185q6 43 28 76t53.5 56t69.5 35t76 12q52 0 94 -21l29 202h110l-95 -679q-46 -17 -98.5 -28.5t-103.5 -11.5zM285 434h-7q-19 -1 -38 -6t-35 -15t-27.5 -24.5t-16.5 -34.5
l-27 -190v-9q0 -16 6 -29q8 -15 22 -25t33 -14.5t39 -4.5h9q17 0 33 3q21 4 38 11l44 317q-16 11 -36 17q-18 4 -37 4z" />
    <glyph glyph-name="Dcroat" unicode="&#x110;" horiz-adv-x="642" 
d="M395 708q51 0 95 -12.5t75 -39.5t45 -68q10 -27 10 -61q0 -18 -3 -39l-38 -269q-8 -58 -34 -99.5t-64.5 -68t-86 -39t-98.5 -12.5h-266l42 302h-57l13 95h57l44 311h266zM312 116q60 0 102 23.5t50 79.5l38 269q1 10 1 19q0 16 -5 29q-7 20 -23.5 32.5t-41 18t-54.5 5.5
h-150l-28 -195h114l-13 -95h-114l-26 -186h150z" />
    <glyph glyph-name="dcroat" unicode="&#x111;" 
d="M213 -10q-40 0 -75.5 9t-62 29t-40.5 54q-12 27 -12 65q0 8 1 17l26 185q6 43 28 76t53.5 56t69.5 35t76 12q52 0 94 -21l9 64h-103l11 72h103l9 66h110l-9 -66h50l-11 -72h-49l-76 -541q-46 -17 -98.5 -28.5t-103.5 -11.5zM285 434h-7q-19 -1 -38 -6t-35 -15
t-27.5 -24.5t-16.5 -34.5l-27 -190v-9q0 -16 6 -29q8 -15 22 -25t33 -14.5t39 -4.5h9q17 0 33 3q21 4 38 11l44 317q-16 11 -36 17q-18 4 -37 4z" />
    <glyph glyph-name="Emacron" unicode="&#x112;" horiz-adv-x="576" 
d="M248 873h263l-17 -96h-263zM198 412h323l-16 -116h-323l-25 -180h351l-16 -116h-467l99 709h467l-16 -116h-351z" />
    <glyph glyph-name="emacron" unicode="&#x113;" horiz-adv-x="478" 
d="M202 -10q-38 0 -72.5 11.5t-60 34.5t-37.5 57q-9 23 -9 51q0 13 2 28l24 172q6 46 28.5 80.5t54.5 57.5t70 34.5t77 11.5t73.5 -11.5t60 -34t37.5 -56.5q8 -23 8 -50q0 -14 -2 -29q-6 -41 -27 -72t-52 -52t-68.5 -31t-75.5 -10q-53 0 -96 21l-4 -31q-1 -7 -1 -14
q0 -29 20 -46q26 -20 63 -21h4q27 0 56 11q31 13 52 40l70 -52q-40 -50 -92 -75t-103 -25zM242 274q19 0 37 3.5t32.5 11.5t24 21t12.5 32q1 6 1 12q0 12 -5 22q-6 15 -18 25t-28 15t-34 5q-37 0 -69 -20.5t-38 -60.5l-7 -48q20 -6 44.5 -12t47.5 -6zM169 693h263l-17 -96
h-263z" />
    <glyph glyph-name="Edotaccent" unicode="&#x116;" horiz-adv-x="576" 
d="M386 907q31 0 50 -21q14 -17 14 -39q0 -6 -1 -13q-5 -31 -28.5 -52t-54.5 -21t-49 21q-14 16 -14 39q0 6 1 13q5 31 28 52t54 21zM198 412h323l-16 -116h-323l-25 -180h351l-16 -116h-467l99 709h467l-16 -116h-351z" />
    <glyph glyph-name="edotaccent" unicode="&#x117;" horiz-adv-x="478" 
d="M202 -10q-38 0 -72.5 11.5t-60 34.5t-37.5 57q-9 23 -9 51q0 13 2 28l24 172q6 46 28.5 80.5t54.5 57.5t70 34.5t77 11.5t73.5 -11.5t60 -34t37.5 -56.5q8 -23 8 -50q0 -14 -2 -29q-6 -41 -27 -72t-52 -52t-68.5 -31t-75.5 -10q-53 0 -96 21l-4 -31q-1 -7 -1 -14
q0 -29 20 -46q26 -20 63 -21h4q27 0 56 11q31 13 52 40l70 -52q-40 -50 -92 -75t-103 -25zM242 274q19 0 37 3.5t32.5 11.5t24 21t12.5 32q1 6 1 12q0 12 -5 22q-6 15 -18 25t-28 15t-34 5q-37 0 -69 -20.5t-38 -60.5l-7 -48q20 -6 44.5 -12t47.5 -6zM307 727q31 0 49 -21
q15 -17 15 -39q0 -6 -1 -13q-5 -31 -28.5 -52t-54.5 -21t-49 21q-14 16 -14 39q0 6 1 13q5 31 28 52t54 21z" />
    <glyph glyph-name="Eogonek" unicode="&#x118;" horiz-adv-x="575" 
d="M413 -105q0 -22 19 -29q5 -1 11 -1q16 0 40 13l29 -71q-25 -23 -59.5 -37t-63.5 -14q-23 0 -41.5 8.5t-31 23t-18.5 34.5q-2 10 -2 22q0 11 2 22q4 20 14 39.5t23.5 37t28.5 32.5t30 25h-370l99 709h467l-16 -116h-351l-26 -181h323l-16 -116h-323l-25 -180h351l-16 -116
q-40 -27 -59 -56t-19 -49z" />
    <glyph glyph-name="eogonek" unicode="&#x119;" horiz-adv-x="479" 
d="M279 528q39 0 73.5 -11.5t60 -34t37.5 -56.5q8 -23 8 -50q0 -14 -2 -29q-6 -41 -27 -72t-52 -52t-68.5 -31t-75.5 -10q-53 0 -96 21l-4 -31q-1 -7 -1 -14q0 -29 20 -46q26 -20 63 -21h4q27 0 56 11q31 13 52 40l70 -52q-28 -34 -60 -56q-48 -41 -69 -77q-20 -34 -20 -57
q0 -26 21 -33q6 -2 12 -2q17 0 41 13l29 -71q-25 -23 -56 -34.5t-60 -11.5q-20 0 -38 7.5t-30 21.5t-17 33q-3 10 -3 21t2 22q7 34 27.5 66.5t49.5 58.5q-6 -1 -12 -1h-12q-38 0 -72.5 11.5t-60 34.5t-37.5 57q-9 23 -9 51q0 13 2 28l24 172q6 46 28.5 80.5t54.5 57.5
t70 34.5t77 11.5zM349 354q0 12 -5 22q-6 15 -18 25t-28 15t-34 5q-37 0 -69 -20.5t-38 -60.5l-7 -48q20 -6 44.5 -12t47.5 -6q19 0 37 3.5t32.5 11.5t24 21t12.5 32q1 6 1 12z" />
    <glyph glyph-name="Ecaron" unicode="&#x11a;" horiz-adv-x="576" 
d="M200 907h134l46 -51l58 51h135l-165 -151h-83zM198 412h323l-16 -116h-323l-25 -180h351l-16 -116h-467l99 709h467l-16 -116h-351z" />
    <glyph glyph-name="ecaron" unicode="&#x11b;" horiz-adv-x="478" 
d="M203 -10q-38 0 -72.5 11.5t-60 34.5t-38.5 57q-8 23 -8 51q0 13 2 28l24 172q6 46 28.5 80.5t54.5 57.5t70 34.5t77 11.5t73.5 -11.5t60 -34t37.5 -56.5q8 -23 8 -50q0 -14 -2 -29q-6 -41 -27 -72t-52 -52t-68.5 -31t-75.5 -10q-53 0 -96 21l-4 -31q-1 -7 -1 -14
q0 -29 21 -46q25 -20 62 -21h4q27 0 56 11q31 13 52 40l70 -52q-40 -50 -92 -75t-103 -25zM243 274q19 0 37 3.5t32.5 11.5t24 21t12.5 32q1 6 1 12q0 12 -4 22q-7 15 -19 25t-28 15t-34 5q-37 0 -69 -20.5t-38 -60.5l-7 -48q20 -6 44.5 -12t47.5 -6zM122 727h134l46 -51
l58 51h135l-165 -151h-83z" />
    <glyph glyph-name="Gbreve" unicode="&#x11e;" horiz-adv-x="631" 
d="M389 753q-28 0 -55 9.5t-46.5 28.5t-29.5 48q-5 18 -5 39q0 14 2 29h89q-1 -7 -1 -13q0 -21 13 -33q18 -15 41 -15t44 15t26 46h92q-5 -38 -21.5 -66.5t-39.5 -48t-51.5 -29.5t-57.5 -10zM378 718q39 0 75.5 -8.5t67.5 -27.5t55 -48t38 -70l-111 -52q-17 48 -57.5 68.5
t-86.5 20.5q-29 0 -57.5 -7t-52 -21t-40 -35t-20.5 -49l-38 -269q-1 -8 -1 -15q0 -20 8 -35q10 -22 30 -36t47.5 -21t56.5 -7q30 0 59.5 7t54 21t41 35.5t20.5 50.5l7 56h-199l16 111h314l-23 -166q-8 -58 -37.5 -101.5t-72.5 -72t-94 -42.5t-103 -14q-51 0 -98 14t-81 42.5
t-51 72.5q-12 29 -12 65q0 17 3 36l38 271q8 57 37.5 99t71.5 70.5t93 42.5t102 14z" />
    <glyph glyph-name="gbreve" unicode="&#x11f;" horiz-adv-x="505" 
d="M189 -96q39 0 71 24.5t40 81.5q-25 -10 -50 -14.5t-49 -4.5q-39 0 -74 12t-60 35t-37 56q-8 22 -8 49q0 13 2 28l25 175q7 48 31 83t58.5 57t76.5 32t85 10q49 -1 94 -14.5t77 -38.5l-67 -475q-7 -49 -29 -85t-53.5 -59t-69.5 -34.5t-77 -11.5q-29 0 -57 6.5t-52.5 18.5
t-43.5 30t-31 41l75 63q18 -29 52.5 -47t70.5 -18zM279 427q-20 0 -40 -4.5t-36.5 -14t-28.5 -25t-15 -37.5l-27 -173v-8q0 -15 6 -27q7 -14 19.5 -23t30 -14t36.5 -5q23 0 46 6t40 17l42 287q-13 10 -32.5 15.5t-40.5 5.5zM305 573q-28 0 -55 9.5t-46.5 28.5t-29.5 48
q-5 18 -5 39q0 14 2 29h89q-1 -7 -1 -13q0 -21 13 -33q18 -15 41 -15t44 15t26 46h92q-5 -38 -21.5 -66.5t-39.5 -48t-51.5 -29.5t-57.5 -10z" />
    <glyph glyph-name="Gdotaccent" unicode="&#x120;" horiz-adv-x="631" 
d="M406 907q31 0 50 -21q14 -17 14 -39q0 -6 -1 -13q-5 -31 -28.5 -52t-54.5 -21t-49 21q-14 16 -14 39q0 6 1 13q5 31 28 52t54 21zM378 718q39 0 75.5 -8.5t67.5 -27.5t55 -48t38 -70l-111 -52q-17 48 -57.5 68.5t-86.5 20.5q-29 0 -57.5 -7t-52 -21t-40 -35t-20.5 -49
l-38 -269q-1 -8 -1 -15q0 -20 8 -35q10 -22 30 -36t47.5 -21t56.5 -7q30 0 59.5 7t54 21t41 35.5t20.5 50.5l7 56h-199l16 111h314l-23 -166q-8 -58 -37.5 -101.5t-72.5 -72t-94 -42.5t-103 -14q-51 0 -98 14t-81 42.5t-51 72.5q-12 29 -12 65q0 17 3 36l38 271
q8 57 37.5 99t71.5 70.5t93 42.5t102 14z" />
    <glyph glyph-name="gdotaccent" unicode="&#x121;" horiz-adv-x="505" 
d="M189 -96q39 0 71 24.5t40 81.5q-25 -10 -50 -14.5t-49 -4.5q-39 0 -74 12t-60 35t-37 56q-8 22 -8 49q0 13 2 28l25 175q7 48 31 83t58.5 57t76.5 32t85 10q49 -1 94 -14.5t77 -38.5l-67 -475q-7 -49 -29 -85t-53.5 -59t-69.5 -34.5t-77 -11.5q-29 0 -57 6.5t-52.5 18.5
t-43.5 30t-31 41l75 63q18 -29 52.5 -47t70.5 -18zM279 427q-20 0 -40 -4.5t-36.5 -14t-28.5 -25t-15 -37.5l-27 -173v-8q0 -15 6 -27q7 -14 19.5 -23t30 -14t36.5 -5q23 0 46 6t40 17l42 287q-13 10 -32.5 15.5t-40.5 5.5zM316 727q31 0 50 -21q14 -17 14 -39q0 -6 -1 -13
q-5 -31 -28.5 -52t-54.5 -21t-49 21q-14 16 -14 39q0 6 1 13q5 31 28 52t54 21z" />
    <glyph glyph-name="Gcommaaccent" unicode="&#x122;" horiz-adv-x="632" 
d="M264 -243h-111l73 183h125zM379 718q39 0 75.5 -8.5t67.5 -27.5t55 -48t38 -70l-111 -52q-17 48 -57.5 68.5t-86.5 20.5q-29 0 -57.5 -7t-52 -21t-40 -35t-20.5 -49l-38 -269q-1 -8 -1 -15q0 -20 8 -35q10 -22 30 -36t47.5 -21t56.5 -7q30 0 59.5 7t54 21t41 35.5
t20.5 50.5l7 56h-199l16 111h314l-23 -166q-8 -58 -37.5 -101.5t-72.5 -72t-94 -42.5t-103 -14q-51 0 -98 14t-81 42.5t-51 72.5q-12 29 -12 65q0 17 3 36l38 271q8 57 37.5 99t71.5 70.5t93 42.5t102 14z" />
    <glyph glyph-name="gcommaaccent" unicode="&#x123;" horiz-adv-x="505" 
d="M306 716h111l-55 -148h-125zM189 -96q39 0 71 24.5t40 81.5q-25 -10 -50 -14.5t-49 -4.5q-39 0 -74 12t-60 35t-37 56q-8 22 -8 49q0 13 2 28l25 175q7 48 31 83t58.5 57t76.5 32t85 10q49 -1 94 -14.5t77 -38.5l-67 -475q-7 -49 -29 -85t-53.5 -59t-69.5 -34.5
t-77 -11.5q-29 0 -57 6.5t-52.5 18.5t-43.5 30t-31 41l75 63q18 -29 52.5 -47t70.5 -18zM279 427q-20 0 -40 -4.5t-36.5 -14t-28.5 -25t-15 -37.5l-27 -173v-8q0 -15 6 -27q7 -14 19.5 -23t30 -14t36.5 -5q23 0 46 6t40 17l42 287q-13 10 -32.5 15.5t-40.5 5.5z" />
    <glyph glyph-name="Hbar" unicode="&#x126;" horiz-adv-x="696" 
d="M652 518l-72 -518h-116l41 296h-315l-41 -296h-116l72 518h-63l12 83h63l15 107h116l-15 -107h315l15 107h116l-15 -107h60l-12 -83h-60zM221 518l-15 -107h315l15 107h-315z" />
    <glyph glyph-name="hbar" unicode="&#x127;" horiz-adv-x="519" 
d="M298 528q37 0 71 -10.5t58.5 -33t36.5 -56.5q7 -22 7 -50q0 -15 -2 -31l-47 -347h-109l47 342q1 7 1 13q0 13 -5 23q-6 15 -19 24.5t-31 14t-37 4.5q-23 0 -46.5 -5.5t-41.5 -16.5l-55 -399h-110l80 571h-51l11 72h50l9 65h109l-9 -65h114l-11 -72h-113l-9 -63
q51 20 102 20z" />
    <glyph glyph-name="Imacron" unicode="&#x12a;" horiz-adv-x="250" 
d="M102 888h223l-17 -96h-223zM140 0h-115l99 708h115z" />
    <glyph glyph-name="imacron" unicode="&#x12b;" horiz-adv-x="228" 
d="M263 602h-217l17 96h217zM126 0h-110l73 519h110z" />
    <glyph glyph-name="Iogonek" unicode="&#x12e;" horiz-adv-x="249" 
d="M56 -107q0 -22 23 -28q4 -1 9 -1q18 0 44 14l29 -71q-25 -23 -58 -37t-62 -14q-23 0 -41.5 8.5t-31 23t-17.5 34.5q-3 10 -3 22q0 11 2 22q4 20 14 39.5t24 37t30 32.5t31 25h-24l99 708h115l-99 -708q-47 -32 -67 -62q-17 -26 -17 -45z" />
    <glyph glyph-name="iogonek" unicode="&#x12f;" horiz-adv-x="228" 
d="M54 -106q0 -19 15 -26q5 -3 12 -3q15 0 38 13l29 -71q-25 -23 -59.5 -37t-63.5 -14q-23 0 -41.5 8.5t-31 23t-17.5 34.5q-3 10 -3 22q0 11 2 22q4 22 15.5 42.5t26.5 38t32.5 31.5t32.5 22h-24l73 519h110l-73 -519q-36 -24 -54 -53q-19 -31 -19 -53zM170 708
q31 0 49 -21q15 -17 15 -39q0 -6 -1 -13q-5 -31 -28.5 -52t-54.5 -21t-49 21q-14 16 -14 39q0 6 1 13q5 31 28 52t54 21z" />
    <glyph glyph-name="Idotaccent" unicode="&#x130;" horiz-adv-x="250" 
d="M210 907q31 0 50 -21q14 -17 14 -39q0 -6 -1 -13q-5 -31 -28.5 -52t-54.5 -21t-49 21q-14 16 -14 39q0 6 1 13q5 31 28 52t54 21zM140 0h-115l99 708h115z" />
    <glyph glyph-name="dotlessi" unicode="&#x131;" horiz-adv-x="228" 
d="M126 0h-110l73 519h110z" />
    <glyph glyph-name="IJ" unicode="&#x132;" horiz-adv-x="846" 
d="M475 -11q-44 0 -84.5 13.5t-72.5 40.5t-52 67.5t-23 94.5l119 19q1 -30 13 -52.5t30 -37t41 -21.5t48 -7q27 0 54 7t49.5 21.5t38 35.5t19.5 49l54 382h-176l15 107h292l-69 -493q-8 -56 -37 -98.5t-70 -71t-90.5 -42.5t-98.5 -14zM140 0h-115l99 708h115z" />
    <glyph glyph-name="ij" unicode="&#x133;" horiz-adv-x="456" 
d="M164 -74q23 0 37.5 5.5t23.5 15t13 23t6 29.5l73 520h110l-73 -520q-11 -83 -60 -129.5t-144 -46.5zM398 718q31 0 50 -21q14 -17 14 -39q0 -6 -1 -13q-5 -31 -28.5 -52t-54.5 -21t-49 21q-14 16 -14 39q0 6 1 13q5 31 28 52t54 21zM170 718q31 0 50 -21q14 -17 14 -39
q0 -6 -1 -13q-5 -31 -28.5 -52t-54.5 -21t-49 21q-14 16 -14 39q0 6 1 13q5 31 28 52t54 21zM126 0h-110l73 519h110z" />
    <glyph glyph-name="Kcommaaccent" unicode="&#x136;" horiz-adv-x="628" 
d="M265 -244h-111l73 183h125zM545 708h143l-366 -342l269 -366h-147l-216 284l-57 -50l-32 -234h-115l99 708h115l-44 -313z" />
    <glyph glyph-name="kcommaaccent" unicode="&#x137;" horiz-adv-x="500" 
d="M192 -244h-111l73 183h125zM385 518h138l-249 -239l176 -279h-129l-134 212l-35 -31l-25 -181h-110l99 708h110l-56 -399z" />
    <glyph glyph-name="Lacute" unicode="&#x139;" horiz-adv-x="517" 
d="M228 756h-114l114 151h141zM124 708h115l-83 -592h323l-16 -116h-438z" />
    <glyph glyph-name="lacute" unicode="&#x13a;" horiz-adv-x="260" 
d="M212 756h-114l114 151h141zM34 136q0 16 2 32l75 540h110l-75 -540q-1 -7 -1 -13q0 -24 15 -41q18 -21 65 -21l-14 -103q-97 0 -141 48q-36 38 -36 98z" />
    <glyph glyph-name="Lcommaaccent" unicode="&#x13b;" horiz-adv-x="517" 
d="M227 -244h-111l73 183h125zM124 708h115l-83 -592h323l-16 -116h-438z" />
    <glyph glyph-name="lcommaaccent" unicode="&#x13c;" horiz-adv-x="260" 
d="M103 -244h-111l73 183h125zM34 136q0 16 2 32l75 540h110l-75 -540q-1 -7 -1 -13q0 -24 15 -41q18 -21 65 -21l-14 -103q-97 0 -141 48q-36 38 -36 98z" />
    <glyph glyph-name="Lcaron" unicode="&#x13d;" horiz-adv-x="519" 
d="M413 529h-102l91 179h115zM124 708h115l-83 -592h323l-16 -116h-438z" />
    <glyph glyph-name="lcaron" unicode="&#x13e;" horiz-adv-x="271" 
d="M324 525h-92l59 183h105zM34 136q0 16 2 32l75 540h110l-75 -540q-1 -7 -1 -13q0 -24 15 -41q18 -21 65 -21l-14 -103q-97 0 -141 48q-36 38 -36 98z" />
    <glyph glyph-name="Ldot" unicode="&#x13f;" horiz-adv-x="522" 
d="M361 433q31 0 50 -21q14 -17 14 -39q0 -6 -1 -13q-5 -31 -28.5 -52t-54.5 -21t-49 21q-14 16 -14 39q0 6 1 13q5 31 28 52t54 21zM124 708h115l-83 -592h323l-16 -116h-438z" />
    <glyph glyph-name="ldot" unicode="&#x140;" horiz-adv-x="324" 
d="M286 386q31 0 50 -21q14 -17 14 -39q0 -6 -1 -13q-5 -31 -28.5 -52t-54.5 -21t-49 21q-14 16 -14 39q0 6 1 13q5 31 28 52t54 21zM34 136q0 16 2 32l75 540h110l-75 -540q-1 -7 -1 -13q0 -24 15 -41q18 -21 65 -21l-14 -103q-97 0 -141 48q-36 38 -36 98z" />
    <glyph glyph-name="Lslash" unicode="&#x141;" horiz-adv-x="537" 
d="M484 0h-438l31 222l-61 -33l-33 68l107 61l55 390h115l-45 -320l72 41l33 -77l-119 -64l-24 -172h323z" />
    <glyph glyph-name="lslash" unicode="&#x142;" horiz-adv-x="291" 
d="M165 158q0 -22 15 -36q19 -16 66 -16l-15 -110q-97 0 -141 46q-36 36 -36 95q0 16 3 34l18 129l-50 -22l-26 57l87 40l44 317h109l-37 -263l68 32l31 -61l-110 -48l-25 -181q-1 -7 -1 -13z" />
    <glyph glyph-name="Nacute" unicode="&#x143;" horiz-adv-x="681" 
d="M443 756h-114l114 151h141zM24 0l99 708h122l187 -418l53 -141l8 2l4 152l57 405h116l-99 -708h-135l-184 410l-47 135l-7 -2l-3 -148l-55 -395h-116z" />
    <glyph glyph-name="nacute" unicode="&#x144;" horiz-adv-x="518" 
d="M340 576h-114l114 151h141zM470 376q0 -15 -2 -32l-48 -344h-109l47 339v9q0 16 -6 28q-8 16 -22 26t-32.5 14.5t-38.5 4.5q-21 0 -41.5 -4.5t-36.5 -13.5l-56 -403h-110l68 486q43 20 93 31t98 11q43 -1 81 -11.5t65.5 -32.5t41.5 -56q8 -23 8 -52z" />
    <glyph glyph-name="Ncommaaccent" unicode="&#x145;" horiz-adv-x="681" 
d="M288 -244h-111l73 183h125zM24 0l99 708h122l187 -418l53 -141l8 2l4 152l57 405h116l-99 -708h-135l-184 410l-47 135l-7 -2l-3 -148l-55 -395h-116z" />
    <glyph glyph-name="ncommaaccent" unicode="&#x146;" horiz-adv-x="518" 
d="M194 -244h-111l73 183h125zM470 376q0 -15 -2 -32l-48 -344h-109l47 339v9q0 16 -6 28q-8 16 -22 26t-32.5 14.5t-38.5 4.5q-21 0 -41.5 -4.5t-36.5 -13.5l-56 -403h-110l68 486q43 20 93 31t98 11q43 -1 81 -11.5t65.5 -32.5t41.5 -56q8 -23 8 -52z" />
    <glyph glyph-name="Ncaron" unicode="&#x147;" horiz-adv-x="681" 
d="M239 907h134l46 -51l58 51h135l-165 -151h-83zM24 0l99 708h122l187 -418l53 -141l8 2l4 152l57 405h116l-99 -708h-135l-184 410l-47 135l-7 -2l-3 -148l-55 -395h-116z" />
    <glyph glyph-name="ncaron" unicode="&#x148;" horiz-adv-x="518" 
d="M136 727h134l46 -51l58 51h135l-165 -151h-83zM470 376q0 -15 -2 -32l-48 -344h-109l47 339v9q0 16 -6 28q-8 16 -22 26t-32.5 14.5t-38.5 4.5q-21 0 -41.5 -4.5t-36.5 -13.5l-56 -403h-110l68 486q43 20 93 31t98 11q43 -1 81 -11.5t65.5 -32.5t41.5 -56q8 -23 8 -52z
" />
    <glyph glyph-name="Eng" unicode="&#x14a;" horiz-adv-x="681" 
d="M461 0h-25l-184 410l-47 135l-7 -2l-3 -148l-55 -395h-116l99 708h122l187 -418l53 -141l8 2l4 152l57 405h116l-99 -710q-11 -83 -60 -129.5t-144 -46.5l14 103q23 0 37.5 5.5t23.5 15t13 23t6 29.5v2z" />
    <glyph glyph-name="eng" unicode="&#x14b;" horiz-adv-x="517" 
d="M469 376q0 -15 -2 -32l-48 -345q-11 -82 -60 -129t-144 -47l14 103q23 0 37.5 5.5t23.5 15.5t13 23.5t6 28.5l48 340v9q0 16 -6 28q-8 16 -22 26t-32.5 14.5t-38.5 4.5q-21 0 -41.5 -4.5t-36.5 -13.5l-56 -403h-110l68 486q43 20 93 31t98 11q43 -1 81 -11.5t65.5 -32.5
t40.5 -56q9 -23 9 -52z" />
    <glyph glyph-name="Omacron" unicode="&#x14c;" horiz-adv-x="668" 
d="M282 883h263l-17 -96h-263zM392 718q54 0 103.5 -14.5t86 -43t54.5 -71.5q13 -30 13 -67q0 -16 -2 -33l-39 -269q-8 -57 -39 -100.5t-75.5 -72t-98 -43t-107.5 -14.5t-103.5 14.5t-85.5 43t-54 72.5q-12 30 -12 66q0 16 2 34l39 269q8 57 38.5 100t74.5 71.5t97.5 43
t107.5 14.5zM150 207q0 -21 8 -37q12 -21 33.5 -35t51.5 -21.5t62 -7.5q33 0 65 7.5t58 21.5t44 35.5t22 50.5l38 265q1 8 1 15q0 21 -9 37q-11 22 -33.5 36t-52.5 20.5t-62 6.5t-64 -7t-58 -21t-43.5 -35.5t-21.5 -51.5l-38 -265q-1 -7 -1 -14z" />
    <glyph glyph-name="omacron" unicode="&#x14d;" horiz-adv-x="496" 
d="M170 693h263l-17 -96h-263zM280 528q37 0 72 -11.5t60.5 -34t38.5 -55.5q9 -23 9 -51q0 -13 -2 -27l-25 -180q-6 -45 -28.5 -78.5t-54.5 -56t-70 -33.5t-75 -11q-38 0 -73.5 11t-61 33.5t-38.5 55.5q-9 23 -9 52q0 13 2 27l25 180q6 45 28.5 78t54.5 55.5t70.5 34
t76.5 11.5zM265 421q-17 0 -34.5 -4.5t-32.5 -13.5t-25 -22.5t-13 -31.5l-24 -175q-1 -6 -1 -11q0 -12 5 -21q6 -15 18.5 -25t29 -15t33.5 -5q16 0 33 5t32 15t25 24.5t13 32.5l24 175q1 5 1 10q0 12 -5 21q-7 14 -19 23t-28 13.5t-32 4.5z" />
    <glyph glyph-name="Ohungarumlaut" unicode="&#x150;" horiz-adv-x="668" 
d="M340 766h-96l81 151h134zM520 766h-97l79 151h135zM392 718q54 0 103.5 -14.5t86 -43t54.5 -71.5q13 -30 13 -67q0 -16 -2 -33l-39 -269q-8 -57 -39 -100.5t-75.5 -72t-98 -43t-107.5 -14.5t-103.5 14.5t-85.5 43t-54 72.5q-12 30 -12 66q0 16 2 34l39 269q8 57 38.5 100
t74.5 71.5t97.5 43t107.5 14.5zM150 207q0 -21 8 -37q12 -21 33.5 -35t51.5 -21.5t62 -7.5q33 0 65 7.5t58 21.5t44 35.5t22 50.5l38 265q1 8 1 15q0 21 -9 37q-11 22 -33.5 36t-52.5 20.5t-62 6.5t-64 -7t-58 -21t-43.5 -35.5t-21.5 -51.5l-38 -265q-1 -7 -1 -14z" />
    <glyph glyph-name="ohungarumlaut" unicode="&#x151;" horiz-adv-x="496" 
d="M242 570h-87l74 137h121zM405 570h-88l72 137h122zM280 528q37 0 72 -11.5t60.5 -34t38.5 -55.5q9 -23 9 -51q0 -13 -2 -27l-25 -180q-6 -45 -28.5 -78.5t-54.5 -56t-70 -33.5t-75 -11q-38 0 -73.5 11t-61 33.5t-38.5 55.5q-9 23 -9 52q0 13 2 27l25 180q6 45 28.5 78
t54.5 55.5t70.5 34t76.5 11.5zM265 421q-17 0 -34.5 -4.5t-32.5 -13.5t-25 -22.5t-13 -31.5l-24 -175q-1 -6 -1 -11q0 -12 5 -21q6 -15 18.5 -25t29 -15t33.5 -5q16 0 33 5t32 15t25 24.5t13 32.5l24 175q1 5 1 10q0 12 -5 21q-7 14 -19 23t-28 13.5t-32 4.5z" />
    <glyph glyph-name="OE" unicode="&#x152;" horiz-adv-x="896" 
d="M35 166q0 15 2 31l43 312q7 50 34 89t66 66t86 41q44 13 88 13h6q73 0 126 -35l4 24h421l-16 -116h-311l-26 -181h283l-16 -115h-283l-25 -180h311l-17 -116h-421l3 22q-33 -16 -67.5 -23.5t-69.5 -7.5q-47 0 -90 13t-74 39t-46 65q-11 27 -11 59zM308 98q26 0 52 9
t49 25l60 436q-19 23 -51 34q-30 9 -63 9h-6q-27 0 -53 -7t-47.5 -19.5t-36 -32t-17.5 -44.5l-42 -309q-1 -7 -1 -14q0 -20 9 -35q12 -19 34 -30.5t51.5 -16.5t61.5 -5z" />
    <glyph glyph-name="oe" unicode="&#x153;" horiz-adv-x="777" 
d="M500 -10q-41 0 -78 15.5t-60 50.5q-33 -37 -75 -51t-83 -15q-38 0 -73.5 11.5t-61.5 33.5t-39 56q-8 22 -8 49q0 14 2 30l26 179q6 45 28.5 78t54.5 55.5t70.5 34t76.5 11.5q21 0 42.5 -4t40.5 -12.5t34 -21t23 -30.5q32 39 73.5 53.5t83.5 14.5q39 0 73.5 -12t60 -36
t37.5 -58q8 -24 8 -51q0 -14 -2 -29q-6 -40 -26.5 -68.5t-50 -46.5t-66 -26t-73.5 -8q-26 0 -51 7.5t-48 17.5l-6 -46q-1 -7 -1 -13q0 -30 22 -47q25 -21 63 -21q29 0 58 12.5t50 38.5l70 -52q-40 -50 -92 -75t-103 -25zM265 421q-17 0 -34.5 -4.5t-32.5 -13.5t-25 -22.5
t-13 -31.5l-26 -179q-1 -6 -1 -11q0 -12 5 -21q6 -15 18.5 -25t29 -15t33.5 -5q42 0 70 19.5t33 57.5l25 171l1 8q1 5 1 10q0 12 -5 21q-7 14 -19 23t-28 13.5t-32 4.5zM541 285q19 0 36.5 2.5t32 9t24 18.5t12.5 31q1 6 1 12q0 12 -5 22q-6 14 -18 23t-28 13.5t-34 4.5
q-37 0 -68 -20.5t-37 -60.5l-6 -37q20 -7 43.5 -12.5t46.5 -5.5z" />
    <glyph glyph-name="Racute" unicode="&#x154;" horiz-adv-x="620" 
d="M408 756h-114l114 151h141zM397 708q52 0 95 -12.5t72.5 -38.5t43.5 -68q8 -28 8 -62q0 -18 -2 -38q-7 -50 -26 -87t-47.5 -62.5t-65 -40.5t-77.5 -21l180 -278h-141l-174 274h-85l-38 -274h-116l99 708h274zM351 375q60 0 99.5 26.5t47.5 86.5q2 11 2 21q0 17 -4 29
q-7 20 -23 32.5t-39 17.5q-19 4 -43 4h-9h-159l-31 -217h159z" />
    <glyph glyph-name="racute" unicode="&#x155;" horiz-adv-x="326" 
d="M273 566h-114l114 151h141zM285 528q13 0 27 -1t31 -5l-14 -97q-17 5 -39 5h-7q-26 -1 -49.5 -10.5t-41 -27.5t-21.5 -44l-49 -348h-110l49 350q8 56 40.5 97t77.5 59q33 14 64 18t42 4z" />
    <glyph glyph-name="Rcommaaccent" unicode="&#x156;" horiz-adv-x="620" 
d="M277 -244h-111l73 183h125zM397 708q52 0 95 -12.5t72.5 -38.5t43.5 -68q8 -28 8 -62q0 -18 -2 -38q-7 -50 -26 -87t-47.5 -62.5t-65 -40.5t-77.5 -21l180 -278h-141l-174 274h-85l-38 -274h-116l99 708h274zM351 375q60 0 99.5 26.5t47.5 86.5q2 11 2 21q0 17 -4 29
q-7 20 -23 32.5t-39 17.5q-19 4 -43 4h-9h-159l-31 -217h159z" />
    <glyph glyph-name="rcommaaccent" unicode="&#x157;" horiz-adv-x="326" 
d="M32 -244h-111l73 183h125zM285 528q13 0 27 -1t31 -5l-14 -97q-17 5 -39 5h-7q-26 -1 -49.5 -10.5t-41 -27.5t-21.5 -44l-49 -348h-110l49 350q8 56 40.5 97t77.5 59q33 14 64 18t42 4z" />
    <glyph glyph-name="Rcaron" unicode="&#x158;" horiz-adv-x="620" 
d="M204 907h134l46 -51l58 51h135l-165 -151h-83zM397 708q52 0 95 -12.5t72.5 -38.5t43.5 -68q8 -28 8 -62q0 -18 -2 -38q-7 -50 -26 -87t-47.5 -62.5t-65 -40.5t-77.5 -21l180 -278h-141l-174 274h-85l-38 -274h-116l99 708h274zM351 375q60 0 99.5 26.5t47.5 86.5
q2 11 2 21q0 17 -4 29q-7 20 -23 32.5t-39 17.5q-19 4 -43 4h-9h-159l-31 -217h159z" />
    <glyph glyph-name="rcaron" unicode="&#x159;" horiz-adv-x="326" 
d="M90 718h134l46 -51l58 51h135l-165 -151h-83zM285 528q13 0 27 -1t31 -5l-14 -97q-17 5 -39 5h-7q-26 -1 -49.5 -10.5t-41 -27.5t-21.5 -44l-49 -348h-110l49 350q8 56 40.5 97t77.5 59q33 14 64 18t42 4z" />
    <glyph glyph-name="Sacute" unicode="&#x15a;" horiz-adv-x="586" 
d="M396 756h-114l114 151h141zM182 505q0 -13 7 -25q10 -16 30 -27.5t46.5 -19t53.5 -12.5q45 -9 89.5 -23t77.5 -40.5t48 -67.5q9 -23 9 -53q0 -23 -5 -50q-9 -51 -38 -88t-69 -61t-88.5 -36t-96.5 -12q-41 0 -78.5 10.5t-69.5 32t-56 53.5t-37 74l113 48q16 -51 56 -76
t90 -25q27 0 53 5t48 16t37 28t20 40q2 12 2 22q0 16 -6 28q-9 19 -29.5 32t-49.5 20t-61 12q-44 7 -84.5 21.5t-71 39.5t-46.5 63q-10 25 -10 59q0 15 2 31q10 48 37.5 84.5t66.5 61t85 36.5t93 12q40 0 76.5 -8t67.5 -25.5t54 -46.5t35 -71l-111 -46q-16 50 -52 70.5
t-85 20.5q-26 0 -51 -6t-46 -17.5t-35.5 -29t-18.5 -39.5q-2 -8 -2 -15z" />
    <glyph glyph-name="sacute" unicode="&#x15b;" horiz-adv-x="447" 
d="M205 92q29 0 52 14.5t28 43.5q2 14 -4.5 23.5t-17.5 16t-24.5 10.5t-26.5 7q-27 5 -57.5 15.5t-56 29.5t-40.5 48q-10 21 -10 49q0 12 2 25q6 43 28 72.5t52.5 47.5t66 26t68.5 8q42 0 84 -19.5t75 -57.5l-76 -72q-20 23 -54 36q-31 12 -60 12h-5q-26 -1 -45 -11.5
t-24 -32.5q-4 -17 3 -30t20 -22t29.5 -14.5t32.5 -8.5q30 -5 59 -14.5t51 -27.5t33 -46q8 -18 8 -44q0 -11 -2 -24q-6 -41 -25.5 -71t-47.5 -50.5t-62.5 -30.5t-69.5 -10q-30 0 -59.5 7.5t-55 23t-44.5 38.5t-29 54l90 53q16 -37 49 -55.5t65 -18.5zM296 576h-114l114 151
h141z" />
    <glyph glyph-name="Scedilla" unicode="&#x15e;" horiz-adv-x="586" 
d="M543 237q0 -23 -5 -50q-8 -44 -30.5 -77t-54.5 -57t-71 -38.5t-81 -20.5l-27 -47q23 -3 38 -15t22 -30q5 -13 5 -29v-9q-2 -21 -13 -43q-18 -35 -54 -50t-77 -15q-22 0 -48.5 7t-55.5 26l34 67q26 -17 47 -20h13q13 0 23 4q14 5 20 15.5t2 22t-19 19.5t-43 9l47 86
q-36 3 -68.5 15.5t-60.5 33.5t-48.5 51t-32.5 68l113 48q16 -51 56 -76t90 -25q27 0 53 5t48 16t37 28t20 40q2 12 2 22q0 16 -6 28q-9 19 -29.5 32t-49.5 20t-61 12q-44 7 -84.5 21.5t-71 39.5t-46.5 63q-10 25 -10 59q0 15 2 31q10 48 37.5 84.5t66.5 61t85 36.5t93 12
q40 0 76.5 -8t67.5 -25.5t54 -46.5t35 -71l-111 -46q-16 50 -52 70.5t-85 20.5q-26 0 -51 -6t-46 -17.5t-35.5 -29t-18.5 -39.5q-2 -8 -2 -15q0 -13 7 -25q10 -16 30 -27.5t46.5 -19t53.5 -12.5q45 -9 89.5 -23t77.5 -40.5t48 -67.5q9 -23 9 -53z" />
    <glyph glyph-name="scedilla" unicode="&#x15f;" horiz-adv-x="447" 
d="M396 176q0 -11 -2 -24q-9 -63 -48.5 -101t-91.5 -52l-30 -52q23 -3 38 -15t22 -30q5 -13 5 -29v-9q-2 -21 -13 -43q-18 -35 -54 -50t-77 -15q-22 0 -48.5 7t-55.5 26l34 67q26 -17 47 -20h13q13 0 23 4q14 5 20 15.5t2 22t-19 19.5t-43 9l47 85q-27 3 -53 11.5t-47.5 24
t-38 37t-25.5 49.5l90 53q16 -37 49 -55.5t65 -18.5q29 0 52 14.5t28 43.5q2 14 -4.5 23.5t-17.5 16t-24.5 10.5t-26.5 7q-27 5 -57.5 15.5t-56 29.5t-40.5 48q-10 21 -10 49q0 12 2 25q6 43 28 72.5t52.5 47.5t66 26t68.5 8q42 0 84 -19.5t75 -57.5l-76 -72q-20 23 -54 36
q-31 12 -60 12h-5q-26 -1 -45 -11.5t-24 -32.5q-4 -17 3 -30t20 -22t29.5 -14.5t32.5 -8.5q30 -5 59 -14.5t51 -27.5t33 -46q8 -18 8 -44z" />
    <glyph glyph-name="Scaron" unicode="&#x160;" horiz-adv-x="586" 
d="M192 907h134l46 -51l58 51h135l-165 -151h-83zM182 505q0 -13 7 -25q10 -16 30 -27.5t46.5 -19t53.5 -12.5q45 -9 89.5 -23t77.5 -40.5t48 -67.5q9 -23 9 -53q0 -23 -5 -50q-9 -51 -38 -88t-69 -61t-88.5 -36t-96.5 -12q-41 0 -78.5 10.5t-69.5 32t-56 53.5t-37 74
l113 48q16 -51 56 -76t90 -25q27 0 53 5t48 16t37 28t20 40q2 12 2 22q0 16 -6 28q-9 19 -29.5 32t-49.5 20t-61 12q-44 7 -84.5 21.5t-71 39.5t-46.5 63q-10 25 -10 59q0 15 2 31q10 48 37.5 84.5t66.5 61t85 36.5t93 12q40 0 76.5 -8t67.5 -25.5t54 -46.5t35 -71l-111 -46
q-16 50 -52 70.5t-85 20.5q-26 0 -51 -6t-46 -17.5t-35.5 -29t-18.5 -39.5q-2 -8 -2 -15z" />
    <glyph glyph-name="scaron" unicode="&#x161;" horiz-adv-x="447" 
d="M205 92q29 0 52 14.5t28 43.5q2 14 -4.5 23.5t-17.5 16t-24.5 10.5t-26.5 7q-27 5 -57.5 15.5t-56 29.5t-40.5 48q-10 21 -10 49q0 12 2 25q6 43 28 72.5t52.5 47.5t66 26t68.5 8q42 0 84 -19.5t75 -57.5l-76 -72q-20 23 -54 36q-31 12 -60 12h-5q-26 -1 -45 -11.5
t-24 -32.5q-4 -17 3 -30t20 -22t29.5 -14.5t32.5 -8.5q30 -5 59 -14.5t51 -27.5t33 -46q8 -18 8 -44q0 -11 -2 -24q-6 -41 -25.5 -71t-47.5 -50.5t-62.5 -30.5t-69.5 -10q-30 0 -59.5 7.5t-55 23t-44.5 38.5t-29 54l90 53q16 -37 49 -55.5t65 -18.5zM98 720h134l46 -51
l58 51h135l-165 -151h-83z" />
    <glyph glyph-name="Tcommaaccent" unicode="&#x162;" horiz-adv-x="572" 
d="M212 -244h-111l73 183h125zM52 0zM383 592l-82 -592h-116l82 592h-215l17 117h546l-17 -117h-215z" />
    <glyph glyph-name="tcommaaccent" unicode="&#x163;" horiz-adv-x="301" 
d="M205 -10h-19q-37 0 -67.5 11t-50.5 33.5t-29 57t-2 82.5l76 534h109l-27 -190h99l-15 -110h-99l-34 -233q-5 -31 2.5 -48.5t22 -26t35 -10.5t43.5 -2l-13 -95q-14 -3 -31 -3zM7 0zM118 -244h-111l73 183h125z" />
    <glyph glyph-name="Tcaron" unicode="&#x164;" horiz-adv-x="572" 
d="M184 907h134l46 -51l58 51h135l-165 -151h-83zM383 592l-82 -592h-116l82 592h-215l17 117h546l-17 -117h-215z" />
    <glyph glyph-name="tcaron" unicode="&#x165;" horiz-adv-x="301" 
d="M204 -10h-19q-37 0 -67.5 11t-50.5 33.5t-29 57.5q-5 19 -5 43q0 18 3 39l76 534h109l-27 -190h99l-15 -110h-99l-34 -233q-2 -12 -2 -23q0 -15 5 -26q7 -17 21.5 -25.5t35 -10.5t43.5 -2l-13 -95q-14 -3 -31 -3zM328 568h-92l46 140h105z" />
    <glyph glyph-name="Tbar" unicode="&#x166;" horiz-adv-x="576" 
d="M356 380h86l-11 -83h-87l-41 -297h-116l41 297h-87l11 83h88l29 212h-215l17 117h546l-17 -117h-215z" />
    <glyph glyph-name="tbar" unicode="&#x167;" horiz-adv-x="303" 
d="M148 152q0 -15 4 -26q8 -17 22.5 -25.5t35 -10.5t43.5 -2l-13 -95q-14 -3 -31 -3h-19q-37 0 -67.5 11t-50.5 33.5t-29 57.5q-5 19 -5 43q0 18 3 39l8 57h-40l11 83h41l56 394h109l-27 -190h99l-15 -110h-99l-14 -94h64l-11 -83h-65l-8 -56q-2 -12 -2 -23z" />
    <glyph glyph-name="Umacron" unicode="&#x16a;" horiz-adv-x="671" 
d="M283 873h263l-17 -96h-263zM165 206q0 -20 7 -36q11 -22 31 -36.5t47.5 -21.5t56.5 -7q30 0 59 7t53.5 21.5t41 36.5t20.5 52l69 486h116l-69 -486q-8 -58 -38 -101.5t-72.5 -72.5t-93.5 -43.5t-102 -14.5t-98.5 14.5t-82 43.5t-51.5 72q-12 30 -12 66q0 17 3 36l69 486
h116l-69 -486q-1 -8 -1 -16z" />
    <glyph glyph-name="umacron" unicode="&#x16b;" horiz-adv-x="519" 
d="M178 683h263l-17 -96h-263zM218 -10q-42 0 -78 10t-61.5 32t-37.5 56q-8 21 -8 49q0 15 3 33l49 348h110l-49 -350v-9q0 -15 6 -28q7 -16 21 -26t33 -15t39 -5t41 4.5t38 13.5l58 415h109l-68 -485q-50 -20 -103 -31.5t-102 -11.5z" />
    <glyph glyph-name="Uring" unicode="&#x16e;" horiz-adv-x="671" 
d="M424 941q23 0 43.5 -9t34.5 -24.5t21 -35.5q5 -14 5 -29q0 -6 -1 -13q-3 -22 -15.5 -42t-31 -35t-41 -23.5t-45.5 -8.5q-24 0 -44.5 8.5t-35 23.5t-21.5 35q-5 14 -5 29q0 7 1 14q3 27 16 47.5t31.5 34.5t41 21t46.5 7zM461 837q0 16 -13 28q-14 14 -34 14q-21 0 -38 -12
t-20 -37q-1 -4 -1 -7q0 -15 12 -27q14 -13 35 -13q20 0 37.5 12t20.5 35q1 4 1 7zM165 206q0 -20 7 -36q11 -22 31 -36.5t47.5 -21.5t56.5 -7q30 0 59 7t53.5 21.5t41 36.5t20.5 52l69 486h116l-69 -486q-8 -58 -38 -101.5t-72.5 -72.5t-93.5 -43.5t-102 -14.5t-98.5 14.5
t-82 43.5t-51.5 72q-12 30 -12 66q0 17 3 36l69 486h116l-69 -486q-1 -8 -1 -16z" />
    <glyph glyph-name="uring" unicode="&#x16f;" horiz-adv-x="519" 
d="M319 756q23 0 43.5 -9t34.5 -24.5t21 -35.5q5 -14 5 -29q0 -6 -1 -13q-3 -22 -15.5 -42t-31 -35t-41 -23.5t-45.5 -8.5q-24 0 -44.5 8.5t-35 23.5t-21.5 35q-5 14 -5 29q0 7 1 14q3 27 16 47.5t31.5 34.5t41 21t46.5 7zM356 652q0 16 -13 28q-14 14 -34 14q-21 0 -38 -12
t-20 -37q-1 -4 -1 -7q0 -15 12 -27q14 -13 35 -13q20 0 37.5 12t20.5 35q1 4 1 7zM218 -10q-42 0 -78 10t-61.5 32t-37.5 56q-8 21 -8 49q0 15 3 33l49 348h110l-49 -350v-9q0 -15 6 -28q7 -16 21 -26t33 -15t39 -5t41 4.5t38 13.5l58 415h109l-68 -485q-50 -20 -103 -31.5
t-102 -11.5z" />
    <glyph glyph-name="Uhungarumlaut" unicode="&#x170;" horiz-adv-x="671" 
d="M341 756h-96l81 151h134zM521 756h-97l79 151h135zM165 206q0 -20 7 -36q11 -22 31 -36.5t47.5 -21.5t56.5 -7q30 0 59 7t53.5 21.5t41 36.5t20.5 52l69 486h116l-69 -486q-8 -58 -38 -101.5t-72.5 -72.5t-93.5 -43.5t-102 -14.5t-98.5 14.5t-82 43.5t-51.5 72
q-12 30 -12 66q0 17 3 36l69 486h116l-69 -486q-1 -8 -1 -16z" />
    <glyph glyph-name="uhungarumlaut" unicode="&#x171;" horiz-adv-x="519" 
d="M251 578h-93l76 139h130zM426 578h-94l74 139h131zM218 -10q-42 0 -78 10t-61.5 32t-37.5 56q-8 21 -8 49q0 15 3 33l49 348h110l-49 -350v-9q0 -15 6 -28q7 -16 21 -26t33 -15t39 -5t41 4.5t38 13.5l58 415h109l-68 -485q-50 -20 -103 -31.5t-102 -11.5z" />
    <glyph glyph-name="Uogonek" unicode="&#x172;" horiz-adv-x="671" 
d="M372 -102q0 -17 10 -26q6 -5 15 -5q13 0 33 11l29 -71q-25 -23 -59.5 -37t-63.5 -14q-20 0 -37 8.5t-28.5 23t-16.5 34.5q-2 9 -2 20t3 24q3 16 11 33.5t18.5 34.5t22.5 32t25 26q-11 -1 -20.5 -1.5t-20.5 -0.5q-51 0 -98.5 14.5t-82 43.5t-51.5 72q-12 30 -12 66
q0 17 3 36l69 486h116l-69 -486q-1 -8 -1 -16q0 -20 7 -36q11 -22 31 -36.5t47.5 -21.5t56.5 -7q30 0 59 7t53.5 21.5t41 36.5t20.5 52l69 486h116l-69 -486q-9 -64 -43.5 -110t-83.5 -75q-43 -28 -67 -63t-29 -62q-2 -8 -2 -14z" />
    <glyph glyph-name="uogonek" unicode="&#x173;" horiz-adv-x="519" 
d="M218 -10q-42 0 -78 10t-61.5 32t-37.5 56q-8 21 -8 49q0 15 3 33l49 348h110l-49 -350v-9q0 -15 6 -28q7 -16 21 -26t33 -15t39 -5t41 4.5t38 13.5l58 415h109l-68 -485q-37 -26 -60.5 -46t-37.5 -36.5t-19.5 -30t-5.5 -26.5q0 -20 20 -26q5 -2 11 -2q17 0 40 12l29 -71
q-25 -23 -57 -34t-61 -11q-41 0 -67 22t-26 61q0 34 21 74.5t56 69.5l-2 3q-12 -1 -23.5 -1.5t-22.5 -0.5z" />
    <glyph glyph-name="Wcircumflex" unicode="&#x174;" horiz-adv-x="925" 
d="M706 756h-127l-46 53l-56 -53h-129l160 151h81zM247 133h9l41 137l159 334h97l63 -336q-1 0 1 -21t4 -46l6 -66h9l35 132l186 441h119l-304 -708h-123l-64 346l-1 89h-7q-9 -25 -15 -44q-5 -17 -10 -30.5t-4 -13.5l-157 -347h-123l-106 708h120l63 -443q-1 0 -0.5 -20.5
t1.5 -45.5q1 -29 1 -66z" />
    <glyph glyph-name="wcircumflex" unicode="&#x175;" horiz-adv-x="704" 
d="M362 352h-6l-35 -125l-84 -227h-115l-84 518h114l41 -294l-3 -105h7q2 9 6.5 26t9 34.5t7.5 30.5t3 14l103 294h109l27 -293l-5 -104h8l22 104l124 293h113l-227 -518h-115l-20 228v124zM568 576h-127l-46 53l-56 -53h-129l160 151h81z" />
    <glyph glyph-name="Ycircumflex" unicode="&#x176;" horiz-adv-x="599" 
d="M544 756h-127l-46 53l-56 -53h-129l160 151h81zM199 0l38 275l-185 433h133l126 -322l215 322h135l-308 -433l-38 -275h-116z" />
    <glyph glyph-name="ycircumflex" unicode="&#x177;" horiz-adv-x="528" 
d="M189 -190q-30 0 -58 6.5t-53 18.5t-44 30t-31 41l75 63q17 -29 52 -44.5t73 -15.5q22 0 43 6t37.5 18t26.5 31t12 46q-52 -20 -104 -20q-39 1 -75 13t-62 35.5t-39 56.5q-8 22 -8 49q0 13 2 27l48 347h110l-49 -345v-8q0 -15 6 -27q8 -14 22 -23t32.5 -14t38.5 -5
q24 0 48 6t41 17l56 399h109l-72 -518q-7 -50 -30 -86t-56 -59t-72 -34t-79 -11zM478 566h-127l-46 53l-56 -53h-129l160 151h81z" />
    <glyph glyph-name="Ydieresis" unicode="&#x178;" horiz-adv-x="599" 
d="M482 899q31 0 50 -21q14 -17 14 -39q0 -6 -1 -13q-5 -31 -28.5 -52t-54.5 -21t-49 21q-14 16 -14 39q0 6 1 13q5 31 28 52t54 21zM281 899q31 0 50 -21q14 -17 14 -39q0 -6 -1 -13q-5 -31 -28.5 -52t-54.5 -21t-49 21q-14 16 -14 39q0 6 1 13q5 31 28 52t54 21zM199 0
l38 275l-185 433h133l126 -322l215 322h135l-308 -433l-38 -275h-116z" />
    <glyph glyph-name="Zacute" unicode="&#x179;" horiz-adv-x="590" 
d="M394 766h-114l114 151h141zM590 708l24 -75l-467 -527h380l-15 -106h-505l-21 76l465 516h-372l17 116h494z" />
    <glyph glyph-name="zacute" unicode="&#x17a;" horiz-adv-x="470" 
d="M297 566h-114l114 151h141zM423 518l33 -66l-305 -346h259l-15 -106h-369l-36 65l310 349h-245l14 104h354z" />
    <glyph glyph-name="Zdotaccent" unicode="&#x17b;" horiz-adv-x="590" 
d="M376 917q31 0 50 -21q14 -17 14 -39q0 -6 -1 -13q-5 -31 -28.5 -52t-54.5 -21t-49 21q-14 16 -14 39q0 6 1 13q5 31 28 52t54 21zM590 708l24 -75l-467 -527h380l-15 -106h-505l-21 76l465 516h-372l17 116h494z" />
    <glyph glyph-name="zdotaccent" unicode="&#x17c;" horiz-adv-x="470" 
d="M279 717q31 0 50 -21q14 -17 14 -39q0 -6 -1 -13q-5 -31 -28.5 -52t-54.5 -21t-49 21q-14 16 -14 39q0 6 1 13q5 31 28 52t54 21zM423 518l33 -66l-305 -346h259l-15 -106h-369l-36 65l310 349h-245l14 104h354z" />
    <glyph glyph-name="Zcaron" unicode="&#x17d;" horiz-adv-x="590" 
d="M190 917h134l46 -51l58 51h135l-165 -151h-83zM590 708l24 -75l-467 -527h380l-15 -106h-505l-21 76l465 516h-372l17 116h494z" />
    <glyph glyph-name="zcaron" unicode="&#x17e;" horiz-adv-x="470" 
d="M93 717h134l46 -51l58 51h135l-165 -151h-83zM423 518l33 -66l-305 -346h259l-15 -106h-369l-36 65l310 349h-245l14 104h354z" />
    <glyph glyph-name="florin" unicode="&#x192;" horiz-adv-x="376" 
d="M40 323v107h108l25 132q5 28 15.5 56t29 50t46 36t66.5 14q17 0 38 -5t43 -17l-42 -88q-16 8 -30 8t-25 -8q-23 -18 -28 -52l-24 -126h90v-107h-108l-59 -317q-12 -62 -48.5 -98t-108.5 -36q-15 0 -32.5 4t-36.5 14l32 89q14 -4 27 -5t24 4t19 17t12 34l56 294h-89z" />
    <glyph glyph-name="Scommaaccent" unicode="&#x218;" horiz-adv-x="586" 
d="M236 -244h-111l73 183h125zM182 505q0 -13 7 -25q10 -16 30 -27.5t46.5 -19t53.5 -12.5q45 -9 89.5 -23t77.5 -40.5t48 -67.5q9 -23 9 -53q0 -23 -5 -50q-9 -51 -38 -88t-69 -61t-88.5 -36t-96.5 -12q-41 0 -78.5 10.5t-69.5 32t-56 53.5t-37 74l113 48q16 -51 56 -76
t90 -25q27 0 53 5t48 16t37 28t20 40q2 12 2 22q0 16 -6 28q-9 19 -29.5 32t-49.5 20t-61 12q-44 7 -84.5 21.5t-71 39.5t-46.5 63q-10 25 -10 59q0 15 2 31q10 48 37.5 84.5t66.5 61t85 36.5t93 12q40 0 76.5 -8t67.5 -25.5t54 -46.5t35 -71l-111 -46q-16 50 -52 70.5
t-85 20.5q-26 0 -51 -6t-46 -17.5t-35.5 -29t-18.5 -39.5q-2 -8 -2 -15z" />
    <glyph glyph-name="scommaaccent" unicode="&#x219;" horiz-adv-x="447" 
d="M205 92q29 0 52 14.5t28 43.5q2 14 -4.5 23.5t-17.5 16t-24.5 10.5t-26.5 7q-27 5 -57.5 15.5t-56 29.5t-40.5 48q-10 21 -10 49q0 12 2 25q6 43 28 72.5t52.5 47.5t66 26t68.5 8q42 0 84 -19.5t75 -57.5l-76 -72q-20 23 -54 36q-31 12 -60 12h-5q-26 -1 -45 -11.5
t-24 -32.5q-4 -17 3 -30t20 -22t29.5 -14.5t32.5 -8.5q30 -5 59 -14.5t51 -27.5t33 -46q8 -18 8 -44q0 -11 -2 -24q-6 -41 -25.5 -71t-47.5 -50.5t-62.5 -30.5t-69.5 -10q-30 0 -59.5 7.5t-55 23t-44.5 38.5t-29 54l90 53q16 -37 49 -55.5t65 -18.5zM164 -244h-111l73 183
h125z" />
    <glyph glyph-name="uni021A" unicode="&#x21a;" horiz-adv-x="572" 
d="M212 -244h-111l73 183h125zM383 592l-82 -592h-116l82 592h-215l17 117h546l-17 -117h-215z" />
    <glyph glyph-name="uni021B" unicode="&#x21b;" horiz-adv-x="301" 
d="M205 -10h-19q-37 0 -67.5 11t-50.5 33.5t-29 57.5q-5 19 -5 43q0 18 3 39l76 534h109l-27 -190h99l-15 -110h-99l-34 -233q-2 -12 -2 -23q0 -15 4 -26q8 -17 22.5 -25.5t35 -10.5t43.5 -2l-13 -95q-14 -3 -31 -3zM118 -244h-111l73 183h125z" />
    <glyph glyph-name="circumflex" unicode="&#x2c6;" horiz-adv-x="392" 
d="M449 756h-127l-46 53l-56 -53h-129l160 151h81z" />
    <glyph glyph-name="caron" unicode="&#x2c7;" horiz-adv-x="289" 
d="M29 907h134l46 -51l58 51h135l-165 -151h-83z" />
    <glyph glyph-name="uni02C9" unicode="&#x2c9;" horiz-adv-x="240" 
d="M59 664h293l-15 -107h-293z" />
    <glyph glyph-name="breve" unicode="&#x2d8;" horiz-adv-x="252" 
d="M203 753q-28 0 -55 9.5t-46.5 28.5t-29.5 48q-5 18 -5 39q0 14 2 29h89q-1 -7 -1 -13q0 -21 13 -33q18 -15 41 -15t44 15t26 46h92q-5 -38 -21.5 -66.5t-39.5 -48t-51.5 -29.5t-57.5 -10z" />
    <glyph glyph-name="dotaccent" unicode="&#x2d9;" horiz-adv-x="240" 
d="M211 907q31 0 50 -21q14 -17 14 -39q0 -6 -1 -13q-5 -31 -28.5 -52t-54.5 -21t-49 21q-14 16 -14 39q0 6 1 13q5 31 28 52t54 21z" />
    <glyph glyph-name="ring" unicode="&#x2da;" horiz-adv-x="240" 
d="M212 941q23 0 43.5 -9t34.5 -24.5t21 -35.5q5 -14 5 -29q0 -6 -1 -13q-3 -22 -15.5 -42t-31 -35t-41 -23.5t-45.5 -8.5q-24 0 -44.5 8.5t-35 23.5t-21.5 35q-5 14 -5 29q0 7 1 14q3 27 16 47.5t31.5 34.5t41 21t46.5 7zM249 837q0 16 -13 28q-14 14 -34 14q-21 0 -38 -12
t-20 -37q-1 -4 -1 -7q0 -15 12 -27q14 -13 35 -13q20 0 37.5 12t20.5 35q1 4 1 7z" />
    <glyph glyph-name="ogonek" unicode="&#x2db;" horiz-adv-x="240" 
d="M130 -106q0 -19 16 -26q4 -3 11 -3q15 0 38 13l29 -71q-25 -23 -59.5 -37t-63.5 -14q-20 0 -37 8.5t-28.5 23t-15.5 34.5q-3 9 -3 20t3 24q4 20 14.5 42t24.5 41.5t30.5 35.5t31.5 24l82 -9q-36 -24 -54 -53q-19 -31 -19 -53z" />
    <glyph glyph-name="tilde" unicode="&#x2dc;" horiz-adv-x="271" 
d="M160 908q23 0 43 -10.5t37 -17.5q14 -6 26 -6h6q14 2 25 27l74 -30q-11 -54 -39 -78.5t-55 -24.5q-25 0 -47.5 11t-41.5 19q-14 5 -27 5q-5 0 -10 -1q-17 -3 -30 -32l-70 33q20 59 46.5 82t62.5 23z" />
    <glyph glyph-name="hungarumlaut" unicode="&#x2dd;" horiz-adv-x="425" 
d="M196 756h-96l81 151h134zM376 756h-97l79 151h135z" />
    <glyph glyph-name="uni0326" unicode="&#x326;" horiz-adv-x="0" 
d="M163 -244h-111l73 183h125z" />
    <glyph glyph-name="uni03A9" unicode="&#x3a9;" horiz-adv-x="778" 
d="M53 315q0 29 4 61q12 85 50.5 148t92.5 104.5t118 61.5q63 20 126 20h3q64 -1 122.5 -22t101 -62.5t63.5 -103.5q13 -40 13 -88q0 -26 -4 -54q-6 -41 -20.5 -79t-34 -72t-42.5 -64t-46 -54h106l-15 -111h-307l11 83q41 21 80 51.5t70.5 68.5t53.5 82.5t29 94.5q3 20 3 38
q0 47 -19 83q-27 49 -74 75t-106 27h-4q-56 0 -108 -23q-54 -25 -94.5 -76t-51.5 -130q-2 -19 -2 -37q0 -26 4 -51q9 -42 29.5 -79t50 -68.5t64.5 -56.5l-11 -82h-310l15 111h109q-37 50 -57 115q-13 40 -13 89z" />
    <glyph glyph-name="uni03BC" unicode="&#x3bc;" horiz-adv-x="530" 
d="M219 -11q-28 0 -51 13q-24 12 -34 39l-34 -242h-112l101 717h113l-45 -318q-1 -8 -1 -15q0 -20 8 -35q11 -21 30 -31.5t42.5 -10.5t45.5 11t39 33t22 57l43 309h113l-71 -518h-104l-1 40q-17 -23 -45 -35.5t-57 -12.5q-1 -1 -2 -1z" />
    <glyph glyph-name="pi" unicode="&#x3c0;" horiz-adv-x="561" 
d="M322 115q0 18 3 38l37 264h-124l-58 -417h-109l58 416q-24 -2 -46 -8t-41 -12l-10 88q14 8 27.5 15.5t28.5 13t34 8.5t44 3h399l-25 -107h-67l-36 -259q-1 -9 -1 -16q0 -15 5 -24q7 -10 29 -10h8l-15 -111q-47 2 -76 14t-44.5 32t-18.5 48q-2 12 -2 24z" />
    <glyph glyph-name="uni0401" unicode="&#x401;" horiz-adv-x="576" 
d="M483 899q31 0 50 -21q14 -17 14 -39q0 -6 -1 -13q-5 -31 -28.5 -52t-54.5 -21t-49 21q-14 16 -14 39q0 6 1 13q5 31 28 52t54 21zM282 899q31 0 50 -21q14 -17 14 -39q0 -6 -1 -13q-5 -31 -28.5 -52t-54.5 -21t-49 21q-14 16 -14 39q0 6 1 13q5 31 28 52t54 21zM198 412
h323l-16 -116h-323l-25 -180h351l-16 -116h-467l99 709h467l-16 -116h-351z" />
    <glyph glyph-name="uni0410" unicode="&#x410;" horiz-adv-x="627" 
d="M587 0h-121l-44 184h-254l-89 -184h-124l354 708h121zM346 591l-40 -114l-82 -177h175l-33 179l-6 112h-14z" />
    <glyph glyph-name="uni0411" unicode="&#x411;" horiz-adv-x="617" 
d="M357 430q127 0 183 -50q43 -40 43 -117q0 -22 -4 -47q-8 -56 -32 -96.5t-60.5 -67t-84 -39.5t-101.5 -13h-277l100 708h466l-15 -106h-350l-25 -172h157zM317 108q31 0 56 5.5t43.5 18.5t30.5 34.5t17 53.5q2 13 2 25q0 39 -21 61q-27 29 -101 29h-157l-32 -227h162z" />
    <glyph glyph-name="uni0412" unicode="&#x412;" horiz-adv-x="624" 
d="M580 253q0 -20 -3 -42q-9 -59 -34 -99t-61.5 -65t-83 -36t-98.5 -11h-275l99 709h276q44 0 81.5 -12t63.5 -36.5t38 -61.5q8 -23 8 -52q0 -16 -3 -34q-5 -36 -25.5 -73.5t-58.5 -60.5q27 -12 43 -30t24 -40t9 -47v-9zM360 426q44 0 75.5 21t38.5 70q1 7 1 14q0 31 -22 47
q-27 19 -69 19h-160l-24 -171h160zM325 111q23 0 44 5q25 5 44.5 17.5t32 32.5t16.5 49q2 12 2 22q0 41 -26 61q-31 24 -87 24h-5h-160l-30 -211h160h9z" />
    <glyph glyph-name="uni0413" unicode="&#x413;" horiz-adv-x="518" 
d="M24 0l100 708h437l-16 -112h-321l-85 -596h-115z" />
    <glyph glyph-name="uni0414" unicode="&#x414;" horiz-adv-x="709" 
d="M508 -131l17 131h-437l-18 -131h-115l33 240h15q40 3 67 23.5t46.5 62.5t35.5 106.5t35 155.5l52 251h425l-84 -599h77l-33 -240h-116zM290 375q-18 -85 -40.5 -152.5t-57.5 -113.5h272l69 487h-198z" />
    <glyph glyph-name="uni0415" unicode="&#x415;" horiz-adv-x="576" 
d="M198 412h323l-16 -116h-323l-25 -180h351l-16 -116h-467l99 709h467l-16 -116h-351z" />
    <glyph glyph-name="uni0416" unicode="&#x416;" horiz-adv-x="937" 
d="M572 302l-53 -50l-36 -252h-115l35 252l-39 50l-263 -302h-147l332 368l-232 340h145l223 -327l46 327h115l-45 -327l314 327h145l-327 -340l227 -368h-147z" />
    <glyph glyph-name="uni0417" unicode="&#x417;" horiz-adv-x="555" 
d="M325 718q57 0 97 -15.5t63.5 -42.5t32.5 -63q4 -21 4 -44q0 -17 -2 -34q-7 -43 -30 -80.5t-61 -60.5q48 -26 67 -72q13 -32 13 -69q0 -15 -2 -31q-9 -56 -34 -97t-62.5 -67.5t-86 -39t-104.5 -12.5q-38 0 -74 8t-66.5 24.5t-55 41.5t-39.5 60l97 55q24 -41 65 -56.5
t85 -15.5q32 0 58.5 4.5t47 16.5t34 32t19.5 50q2 13 2 25q0 35 -23 59q-31 30 -99 30h-99l13 96h99q52 0 85 23t41 73q1 8 1 16q0 35 -23 52q-28 22 -82 22q-50 0 -84.5 -13.5t-66.5 -43.5l-77 54q51 61 111.5 88t135.5 27z" />
    <glyph glyph-name="uni0418" unicode="&#x418;" horiz-adv-x="686" 
d="M539 515h-3l-65 -94l-322 -421h-125l100 708h115l-61 -436l-21 -98h4l70 100l326 434h119l-100 -708h-116l60 417z" />
    <glyph glyph-name="uni0419" unicode="&#x419;" horiz-adv-x="686" 
d="M411 764q-32 0 -60.5 10t-49.5 29.5t-32 49.5q-9 24 -9 53q0 8 1 16h101q2 -30 16.5 -46.5t45.5 -16.5q32 0 51 16.5t29 46.5h101q-8 -39 -27.5 -69t-46 -49.5t-57.5 -29.5t-63 -10zM540 515h-4l-78 -112l-309 -403h-125l100 708h115l-61 -440l-20 -94h3l64 92l332 442
h119l-100 -708h-116l56 398z" />
    <glyph glyph-name="uni041A" unicode="&#x41a;" horiz-adv-x="632" 
d="M325 365l266 -365h-147l-212 289l-57 -51l-35 -238h-116l100 708h116l-46 -325l352 325h148z" />
    <glyph glyph-name="uni041B" unicode="&#x41b;" horiz-adv-x="681" 
d="M-13 0h-16l16 111h8q42 0 71 21q30 23 51 67.5t36 109.5t32 148l52 251h434l-100 -708h-115l84 596h-207l-46 -221q-18 -84 -38.5 -154.5t-54.5 -120.5t-88 -76q-48 -24 -119 -24z" />
    <glyph glyph-name="uni041C" unicode="&#x41c;" horiz-adv-x="785" 
d="M123 708h129l130 -460l262 460h130l-99 -708h-116l45 325l49 192h-10l-83 -167l-152 -252h-91l-81 252l-35 170h-10l-7 -196l-45 -324h-115z" />
    <glyph glyph-name="uni041D" unicode="&#x41d;" horiz-adv-x="681" 
d="M140 0h-116l99 708h116l-42 -297h315l42 297h116l-99 -708h-116l41 296h-315z" />
    <glyph glyph-name="uni041E" unicode="&#x41e;" horiz-adv-x="667" 
d="M392 718q54 0 103.5 -14.5t86 -43t54.5 -71.5q13 -30 13 -67q0 -16 -2 -33l-39 -269q-8 -57 -39 -100.5t-75.5 -72t-98 -43t-107.5 -14.5t-103.5 14.5t-85.5 43t-54 72.5q-12 30 -12 66q0 16 2 34l39 269q8 57 38.5 100t74.5 71.5t97.5 43t107.5 14.5zM150 207
q0 -21 8 -37q12 -21 33.5 -35t51.5 -21.5t62 -7.5q33 0 65 7.5t58 21.5t44 35.5t22 50.5l38 265q1 8 1 15q0 21 -9 37q-11 22 -33.5 36t-52.5 20.5t-62 6.5t-64 -7t-58 -21t-43.5 -35.5t-21.5 -51.5l-38 -265q-1 -7 -1 -14z" />
    <glyph glyph-name="uni041F" unicode="&#x41f;" horiz-adv-x="673" 
d="M124 708h539l-100 -708h-115l84 596h-308l-85 -596h-115z" />
    <glyph glyph-name="uni0420" unicode="&#x420;" horiz-adv-x="612" 
d="M398 708q61 0 104.5 -20.5t69.5 -53.5t36 -76q5 -26 5 -52q0 -17 -2 -34q-6 -45 -27 -87.5t-56 -74.5t-83 -51.5t-109 -19.5h-163l-34 -239h-115l100 708h274zM348 348q33 0 59.5 10.5t45 28t30 40t14.5 46.5q1 9 1 18q0 14 -3 29q-5 22 -19 39.5t-37 27.5t-56 10h-160
l-35 -249h160z" />
    <glyph glyph-name="uni0421" unicode="&#x421;" horiz-adv-x="601" 
d="M379 718q39 0 76 -10t68.5 -30t56 -50.5t37.5 -71.5l-110 -51q-19 48 -59.5 72.5t-87.5 24.5q-29 0 -58.5 -7t-53.5 -21t-40 -35t-20 -49l-37 -272q-1 -8 -1 -15q0 -19 8 -34q10 -21 30 -35t47 -21t56 -7q48 0 95 24t79 72l97 -48q-26 -41 -59 -72t-71 -51.5t-78 -30.5
t-79 -10q-51 0 -97.5 14t-80.5 42.5t-51 71.5q-13 30 -13 66q0 16 3 34l37 272q8 57 37.5 99.5t72 71t93.5 43t103 14.5z" />
    <glyph glyph-name="uni0422" unicode="&#x422;" horiz-adv-x="570" 
d="M384 599l-82 -592h-116l82 592h-215l17 117h546l-17 -117h-215z" />
    <glyph glyph-name="uni0423" unicode="&#x423;" horiz-adv-x="547" 
d="M35 708h132l70 -217l39 -137h2l77 134l130 220h124l-419 -708h-123l135 226z" />
    <glyph glyph-name="uni0424" unicode="&#x424;" horiz-adv-x="752" 
d="M738 470q0 -15 -2 -33l-23 -165q-8 -58 -38.5 -98t-74 -64.5t-96 -35.5t-106.5 -11l-9 -63h-113l10 63q-54 0 -104 11t-86.5 35.5t-55.5 64.5q-13 28 -13 65q0 16 2 33l23 165q8 58 38.5 98t74 64.5t96.5 35t107 10.5l8 63h113l-9 -63q54 0 103.5 -10.5t86.5 -35
t56 -64.5q12 -28 12 -65zM143 253q0 -20 8 -34q12 -20 34.5 -31.5t52.5 -15.5t62 -4l53 373q-32 0 -63.5 -4.5t-57 -16t-43.5 -31.5t-22 -52l-23 -166q-1 -9 -1 -18zM622 453q0 21 -8 36q-12 20 -34.5 31.5t-52.5 16t-63 4.5l-52 -373q33 0 64.5 4t57 15.5t42.5 31.5t22 52
l23 166q1 8 1 16z" />
    <glyph glyph-name="uni0425" unicode="&#x425;" horiz-adv-x="622" 
d="M440 0l-135 263l-207 -263h-142l291 353l-190 355h140l134 -266l208 266h140l-291 -355l193 -353h-141z" />
    <glyph glyph-name="uni0426" unicode="&#x426;" horiz-adv-x="696" 
d="M493 -131l18 131h-488l100 708h115l-84 -596h298l84 596h116l-84 -596h74l-33 -243h-116z" />
    <glyph glyph-name="uni0427" unicode="&#x427;" horiz-adv-x="616" 
d="M265 214q-50 0 -91.5 14t-70.5 42.5t-42 71.5q-8 27 -8 59q0 20 3 42l37 265h116l-37 -265q-2 -13 -2 -25q0 -41 24 -63q32 -28 92 -28q54 0 92.5 15.5t64.5 37.5l47 328h116l-100 -708h-116l39 273q-32 -25 -74 -42t-90 -17z" />
    <glyph glyph-name="uni0428" unicode="&#x428;" horiz-adv-x="917" 
d="M239 708l-84 -596h219l84 596h115l-84 -596h219l84 596h115l-100 -708h-783l100 708h115z" />
    <glyph glyph-name="uni0429" unicode="&#x429;" horiz-adv-x="951" 
d="M747 -131l18 131h-742l100 708h115l-84 -596h219l84 596h115l-84 -596h219l84 596h115l-84 -596h75l-34 -243h-116z" />
    <glyph glyph-name="uni042A" unicode="&#x42a;" horiz-adv-x="705" 
d="M448 449q126 0 181 -55q43 -43 43 -121q0 -23 -4 -49q-8 -56 -32 -97.5t-60.5 -70t-84 -42.5t-101.5 -14h-275l86 603h-146l14 105h262l-37 -259h154zM407 108q61 0 99.5 27t47.5 91q2 14 2 26q0 41 -21 66q-27 32 -99 32h-156l-34 -242h161z" />
    <glyph glyph-name="uni042B" unicode="&#x42b;" horiz-adv-x="866" 
d="M756 0h-115l99 708h115zM357 449q127 0 181 -55q43 -43 43 -121q0 -23 -4 -49q-8 -56 -32 -97.5t-60.5 -70t-84 -42.5t-101.5 -14h-275l100 708h116l-37 -259h154zM316 108q61 0 99.5 27t47.5 91q2 14 2 26q0 41 -21 66q-27 32 -99 32h-156l-34 -242h161z" />
    <glyph glyph-name="uni042C" unicode="&#x42c;" horiz-adv-x="614" 
d="M357 449q127 0 181 -55q43 -43 43 -121q0 -23 -4 -49q-8 -56 -32 -97.5t-60.5 -70t-84 -42.5t-101.5 -14h-275l100 708h116l-37 -259h154zM316 108q61 0 99.5 27t47.5 91q2 14 2 26q0 41 -21 66q-27 32 -99 32h-156l-34 -242h161z" />
    <glyph glyph-name="uni042D" unicode="&#x42d;" horiz-adv-x="593" 
d="M329 718q51 0 98.5 -15t82 -44t52.5 -72q12 -29 12 -66q0 -16 -3 -34l-37 -267q-8 -57 -37.5 -99.5t-72 -71t-93 -43t-101.5 -14.5q-36 0 -72 9t-67 27.5t-55.5 46.5t-37.5 66l108 48q7 -22 21.5 -38t33 -26.5t41 -15.5t45.5 -5q29 0 57.5 7.5t52.5 22t40.5 36t20.5 50.5
l11 82h-262l15 105h262l11 80q1 8 1 16q0 19 -7 35q-10 23 -29.5 38t-46.5 23t-56 8q-47 0 -93 -21t-74 -63l-92 45q24 40 55.5 68.5t67.5 46.5t74 26.5t74 8.5z" />
    <glyph glyph-name="uni042E" unicode="&#x42e;" horiz-adv-x="936" 
d="M660 718q54 0 103.5 -14.5t86 -43t54.5 -71.5q13 -30 13 -67q0 -16 -2 -33l-38 -269q-8 -57 -38.5 -100.5t-75 -72t-98 -43t-107.5 -14.5t-103.5 14.5t-85.5 43t-55 72.5q-13 30 -13 67q0 16 2 33l12 85h-135l-43 -305h-115l100 708h115l-41 -296h135l10 77
q8 57 38.5 100t75 71.5t98 43t107.5 14.5zM644 606q-32 0 -64 -7.5t-58 -22t-44 -37t-22 -53.5l-37 -265q-1 -8 -1 -15q0 -21 8 -37q12 -22 34 -37t51.5 -22.5t62.5 -7.5q32 0 64 7.5t58 22t44 37t22 52.5l38 265q1 8 1 15q0 22 -9 39q-11 23 -33.5 37.5t-52.5 21.5t-62 7z
" />
    <glyph glyph-name="uni042F" unicode="&#x42f;" horiz-adv-x="629" 
d="M61 448q0 19 3 41q9 56 33.5 97.5t61.5 68.5t84.5 40t101.5 13h274l-100 -708h-115l38 272h-78l-264 -272h-149l278 281q-39 3 -72.5 17.5t-56.5 40t-34 63.5q-5 21 -5 46zM320 596q-55 0 -92 -24q-40 -26 -49 -88q-2 -12 -2 -23q0 -42 25 -63q31 -27 94 -27h160l32 225
h-160h-8z" />
    <glyph glyph-name="uni0430" unicode="&#x430;" 
d="M183 -10q-35 0 -66 12t-54 35t-34 56q-7 21 -7 46q0 14 2 28l26 180q7 51 30 85.5t56 56t73.5 30.5t82.5 9q48 0 97.5 -13t88.5 -33l-67 -482h-89l-8 45q-29 -29 -63 -42t-68 -13zM286 434q-22 0 -43 -6q-31 -7 -55 -26.5t-29 -53.5l-26 -181q-1 -7 -1 -13q0 -12 4 -20
q5 -14 16 -23t26.5 -13.5t33.5 -4.5h6q26 0 52 8q29 9 49 24l42 292q-22 12 -55 15q-10 2 -20 2z" />
    <glyph glyph-name="uni0431" unicode="&#x431;" horiz-adv-x="511" 
d="M309 488q40 0 72 -10.5t53 -32.5t30 -55q5 -19 5 -43q0 -15 -2 -33l-21 -148q-6 -44 -28 -77t-54 -55t-70.5 -33t-76.5 -11t-73.5 11t-61.5 33t-39 55q-9 23 -9 50q0 13 2 27l51 366q6 46 28 76.5t52 49t65.5 27.5t70.5 12q51 5 89.5 14.5t70.5 26.5l24 -85
q-35 -22 -78.5 -33t-88.5 -16q-21 -2 -41.5 -5t-38 -11t-29.5 -23t-15 -41l-11 -73q23 15 54.5 26t69.5 11zM277 391q-56 0 -104 -32l-27 -191q-1 -6 -1 -12q0 -12 5 -22q6 -14 18 -23.5t28.5 -14t34.5 -4.5q17 0 35 4.5t33 14t25 24t13 33.5l20 147q1 8 1 16q0 29 -20 43
q-24 17 -61 17z" />
    <glyph glyph-name="uni0432" unicode="&#x432;" horiz-adv-x="511" 
d="M305 528q39 0 71 -9t53.5 -26.5t32.5 -42.5q7 -18 7 -38q0 -10 -2 -21q-5 -38 -24.5 -68t-46.5 -48q38 -21 50 -55q8 -22 8 -48q0 -13 -2 -27q-14 -85 -75 -120t-163 -35q-56 0 -103 12.5t-94 34.5l63 444q53 22 109 34.5t116 12.5zM289 441q-41 0 -63 -4.5t-44 -13.5
l-18 -119h108q35 0 59 19t29 54q1 6 1 12q0 26 -18 37q-22 15 -54 15zM239 77q42 0 71 15.5t36 62.5q1 8 1 16q0 28 -19 41q-23 16 -67 16h-107l-19 -133q19 -9 41 -13.5t63 -4.5z" />
    <glyph glyph-name="uni0433" unicode="&#x433;" horiz-adv-x="440" 
d="M253 528q34 0 64 -9t52 -27t33 -46q7 -18 7 -41q0 -11 -2 -23q-6 -40 -23 -67t-42.5 -45t-57 -29t-64.5 -19q-21 -5 -39 -10.5t-32 -13t-23 -19t-12 -28.5q-1 -7 -1 -13q0 -26 17 -38q20 -15 58 -15q80 0 143 54l52 -65q-46 -46 -99 -65t-114 -19q-37 0 -69 9.5t-54.5 29
t-33.5 48.5q-8 20 -8 45q0 11 2 23q6 38 21.5 64t39 44t55 30t68.5 22l34 9q18 4 33 11.5t25.5 19.5t13.5 31q1 5 1 9q0 21 -16 31q-19 12 -51 12q-59 0 -108 -36l-56 64q42 38 91 55t95 17z" />
    <glyph glyph-name="uni0434" unicode="&#x434;" horiz-adv-x="502" 
d="M306 718q38 0 72.5 -11t59.5 -34t37 -59q8 -22 8 -50q0 -16 -3 -34l-51 -360q-6 -44 -27.5 -78t-52.5 -56.5t-69 -34t-76 -11.5t-73.5 10.5t-61 32.5t-37.5 55q-9 22 -9 50q0 13 2 27l22 155q6 44 27 76.5t51.5 54t67 31.5t72.5 10q27 0 54 -4.5t47 -17.5l10 69q1 7 1 14
q0 33 -23 50q-29 21 -72 21q-29 0 -58.5 -7t-54.5 -23l-49 68q45 32 88.5 44t97.5 12zM131 154q0 -13 5 -23q7 -14 19.5 -23t29 -13t33.5 -4t34.5 4.5t32 14t25 24t13.5 33.5l29 215q-42 17 -90 19q-18 -1 -36 -6t-33 -15t-25.5 -25t-13.5 -34l-22 -156q-1 -6 -1 -11z" />
    <glyph glyph-name="uni0435" unicode="&#x435;" horiz-adv-x="479" 
d="M207 -10q-38 0 -73.5 11.5t-61.5 34.5t-39.5 57t-7.5 79l24 172q6 46 28.5 80.5t54.5 57.5t70 34.5t77 11.5t73.5 -11.5t60 -34t37.5 -56.5t6 -79q-5 -37 -23.5 -64.5t-46 -45.5t-63.5 -26.5t-76 -8.5q-57 0 -108 20l-6 -50q-3 -20 2.5 -34.5t17.5 -25t28.5 -16
t34.5 -5.5q29 -1 61.5 12t53.5 40l70 -52q-40 -50 -91.5 -75.5t-102.5 -25.5zM254 287q44 0 68 20t26 50q2 26 -19 46.5t-64 20.5q-19 0 -37 -5.5t-33 -16.5t-25 -26.5t-13 -35.5l-6 -36q17 -5 44 -11t59 -6zM19 0z" />
    <glyph glyph-name="uni0436" unicode="&#x436;" horiz-adv-x="750" 
d="M439 214l-26 -23l-28 -191h-107l27 191l-20 23l-188 -214h-129l252 280l-183 238h132l153 -208l29 208h107l-29 -208l211 208h132l-250 -238l173 -280h-129z" />
    <glyph glyph-name="uni0437" unicode="&#x437;" horiz-adv-x="446" 
d="M249 528q75 0 118 -38q36 -32 36 -83q0 -10 -1 -20q-5 -38 -27 -66.5t-51 -42.5q38 -17 54 -54q12 -24 12 -53q0 -14 -3 -29q-7 -41 -28 -69.5t-50.5 -47t-65.5 -27t-73 -8.5q-60 0 -106 21.5t-74 75.5l83 47q30 -53 101 -53q42 0 72 14.5t37 57.5q1 9 1 17q0 31 -18 45
q-23 18 -68 18h-69l10 74h68q35 0 59 17.5t29 52.5q1 6 1 12q0 23 -16 34q-21 14 -57 14q-35 0 -60 -10t-48 -33l-61 46q38 45 89 66.5t106 21.5z" />
    <glyph glyph-name="uni0438" unicode="&#x438;" horiz-adv-x="519" 
d="M218 -10q-42 0 -78 10t-61.5 32t-37.5 56q-8 21 -8 49q0 15 3 33l49 348h110l-49 -350v-9q0 -15 6 -28q7 -16 21 -26t33 -15t39 -5t41 4.5t38 13.5l58 415h109l-68 -485q-50 -20 -103 -31.5t-102 -11.5z" />
    <glyph glyph-name="uni0439" unicode="&#x439;" horiz-adv-x="520" 
d="M286 572q-26 0 -49.5 9t-40.5 27t-26 44q-8 21 -8 46q0 8 1 16h95q1 -23 14 -34.5t30 -11.5t33.5 11.5t24.5 34.5h94q-8 -36 -25 -62.5t-40 -44t-50 -26.5t-53 -9zM219 -10q-39 0 -75 10.5t-62 33t-39 56.5q-9 22 -9 52q0 13 2 28l49 348h110l-49 -349q-1 -6 -1 -12
q0 -12 4 -22q6 -15 18 -25t28 -15.5t34 -5.5q54 0 95 14l58 415h110l-69 -489q-66 -23 -115.5 -31t-88.5 -8z" />
    <glyph glyph-name="uni043A" unicode="&#x43a;" horiz-adv-x="506" 
d="M192 206l-42 -37l-24 -169h-110l73 518h110l-30 -214l227 214h133l-252 -241l176 -277h-131z" />
    <glyph glyph-name="uni043B" unicode="&#x43b;" horiz-adv-x="543" 
d="M-10 0h-15l14 102h9q31 0 49 6q21 7 34 29t22 61t22 101l47 219h341l-72 -518h-111l59 417h-133l-37 -173q-13 -61 -28 -107.5t-41 -77.5t-68 -46q-36 -13 -92 -13z" />
    <glyph glyph-name="uni043C" unicode="&#x43c;" horiz-adv-x="646" 
d="M487 344l-44 -72l-117 -201h-70l-61 201l-25 72l-12 -113l-32 -231h-110l73 518h126l95 -311l181 311h126l-73 -518h-110l33 232z" />
    <glyph glyph-name="uni043D" unicode="&#x43d;" horiz-adv-x="527" 
d="M157 220l-31 -220h-110l73 518h110l-27 -197h189l28 197h109l-73 -518h-109l31 220h-190z" />
    <glyph glyph-name="uni043E" unicode="&#x43e;" horiz-adv-x="496" 
d="M280 528q37 0 72 -11.5t60.5 -34t38.5 -55.5q9 -23 9 -51q0 -13 -2 -27l-25 -180q-6 -45 -28.5 -78.5t-54.5 -56t-70 -33.5t-75 -11q-38 0 -73.5 11t-61 33.5t-38.5 55.5q-9 23 -9 52q0 13 2 27l25 180q6 45 28.5 78t54.5 55.5t70.5 34t76.5 11.5zM265 421
q-17 0 -34.5 -4.5t-32.5 -13.5t-25 -22.5t-13 -31.5l-24 -175q-1 -6 -1 -11q0 -12 5 -21q6 -15 18.5 -25t29 -15t33.5 -5q16 0 33 5t32 15t25 24.5t13 32.5l24 175q1 5 1 10q0 12 -5 21q-7 14 -19 23t-28 13.5t-32 4.5z" />
    <glyph glyph-name="uni043F" unicode="&#x43f;" horiz-adv-x="518" 
d="M470 376q0 -15 -2 -32l-48 -344h-109l47 339v9q0 16 -6 28q-8 16 -22 26t-32.5 14.5t-38.5 4.5q-21 0 -41.5 -4.5t-36.5 -13.5l-56 -403h-110l68 486q43 20 93 31t98 11q43 -1 81 -11.5t65.5 -32.5t41.5 -56q8 -23 8 -52z" />
    <glyph glyph-name="uni0440" unicode="&#x440;" horiz-adv-x="510" 
d="M286 528q42 0 78.5 -9.5t63 -30.5t38.5 -56q9 -22 9 -50q0 -16 -3 -34l-26 -184q-6 -44 -28.5 -77t-55 -54.5t-71 -32t-76.5 -10.5q-50 0 -90 18l-24 -177h-110l92 656q45 19 98.5 30t104.5 11zM208 87h9q41 0 75 17.5t44 59.5l27 186q1 7 1 14q0 14 -4 25q-7 16 -21 26
t-33.5 14t-40.5 4q-43 0 -82 -17l-45 -317q17 -6 38 -9q15 -3 32 -3z" />
    <glyph glyph-name="uni0441" unicode="&#x441;" horiz-adv-x="475" 
d="M280 528q30 0 60.5 -7.5t55.5 -23.5t43 -42t23 -63l-105 -38q-5 35 -32 50.5t-59 16.5q-18 0 -36 -4.5t-32.5 -13.5t-24.5 -22t-12 -30l-26 -180q-1 -4 -1 -8q0 -13 5 -23q6 -14 18 -23.5t28.5 -14.5t35.5 -5q32 1 63.5 19t45.5 52l95 -42q-16 -37 -41 -63t-55 -42
t-63 -23.5t-63 -7.5q-38 0 -72.5 11.5t-60 34.5t-38.5 57q-8 23 -8 51q0 13 2 28l25 178q6 45 28.5 78.5t54.5 55.5t70 33t76 11z" />
    <glyph glyph-name="uni0442" unicode="&#x442;" horiz-adv-x="774" 
d="M564 528q35 0 66.5 -12.5t54.5 -35.5t34 -56q7 -22 7 -48q0 -14 -2 -29l-48 -347h-109l48 343q2 9 2 16q0 24 -17 41q-21 21 -53 21q-16 0 -33 -6t-31.5 -16t-25 -23.5t-12.5 -28.5l-48 -347h-108l49 352q2 17 -3.5 30t-16.5 21.5t-26.5 13t-32.5 4.5h-6q-17 0 -35 -5
q-22 -5 -40 -16l-55 -400h-108l65 473q38 24 88 39.5t98 15.5q46 -1 84.5 -18.5t55.5 -54.5q28 34 68.5 53.5t89.5 19.5z" />
    <glyph glyph-name="uni0443" unicode="&#x443;" horiz-adv-x="527" 
d="M186 -204q-30 0 -58 6.5t-53 18.5t-44 30t-31 41l75 63q17 -29 52 -44.5t73 -15.5q44 0 79 27.5t43 87.5q-52 -20 -104 -20q-39 1 -75 13t-62 35.5t-38.5 56.5t-6.5 76l48 347h110l-49 -345q-2 -20 6 -35.5t22 -26t32.5 -16t38.5 -5.5q24 0 48 6t41 17l56 405h109
l-75 -532q-7 -50 -30 -86t-56 -59t-72 -34t-79 -11zM0 0z" />
    <glyph glyph-name="uni0444" unicode="&#x444;" horiz-adv-x="708" 
d="M514 528q35 0 66 -11.5t53 -33t32 -53.5q6 -21 6 -45q0 -14 -2 -30l-27 -192q-6 -42 -25 -74.5t-47 -54t-62.5 -33t-69.5 -11.5q-19 0 -41 4t-31 9l-26 -186h-109l27 186q-11 -5 -34 -9t-42 -4q-35 0 -66 11.5t-53 33t-33 53.5q-6 21 -6 46q0 14 2 29l27 192
q6 42 25.5 74.5t47.5 54t62.5 33t69.5 11.5q19 0 41 -4t31 -9l27 193h108l-27 -193q11 5 34 9t42 4zM269 431q-17 0 -34.5 -5t-32.5 -14.5t-26 -24.5t-14 -35l-26 -186q-1 -6 -1 -12q0 -13 5 -23q6 -15 18.5 -25t28.5 -14.5t33 -4.5q12 0 26 2.5t25 7.5l46 324
q-10 5 -23.5 7.5t-24.5 2.5zM475 431q-11 0 -25.5 -2.5t-25.5 -7.5l-45 -324q9 -5 23 -7.5t25 -2.5q17 0 34.5 4.5t32.5 14.5t25.5 25t13.5 35l26 186q1 7 1 13q0 12 -4 22q-6 15 -18.5 24.5t-29 14.5t-33.5 5z" />
    <glyph glyph-name="uni0445" unicode="&#x445;" horiz-adv-x="498" 
d="M444 0h-127l-85 173l-135 -173h-128l212 259l-140 259h128l87 -174l133 174h126l-205 -259z" />
    <glyph glyph-name="uni0446" unicode="&#x446;" horiz-adv-x="549" 
d="M219 -10q-39 0 -75 10.5t-62 33t-39 56.5q-9 22 -9 52q0 13 2 28l49 348h110l-49 -349q-1 -6 -1 -12q0 -12 4 -22q6 -15 17.5 -25t27 -15.5t33.5 -5.5q26 0 48 2t43 9l59 418h110l-56 -402h67l-20 -121l-34 -120h-90l23 144l-4 -1q-32 -13 -74.5 -20.5t-79.5 -7.5z" />
    <glyph glyph-name="uni0447" unicode="&#x447;" horiz-adv-x="492" 
d="M194 147q-34 0 -65.5 10t-54.5 31t-34 54q-7 21 -7 47q0 14 2 30l28 199h110l-26 -187q-1 -10 -1 -18q0 -30 16 -45q22 -18 60 -19q25 0 50 5.5t48 16.5l34 247h110l-73 -518h-110l25 178q-25 -16 -54 -23.5t-58 -7.5z" />
    <glyph glyph-name="uni0448" unicode="&#x448;" horiz-adv-x="784" 
d="M205 -10q-40 0 -73.5 11t-57 33t-34.5 56q-6 21 -6 46q0 15 2 31l49 351h110l-49 -351q-1 -9 -1 -17q0 -30 17 -42q21 -16 54 -16h4q14 0 30 4.5t30.5 12t24.5 18.5t12 26l51 365h108l-51 -365q-2 -17 4 -29t18 -19.5t28.5 -11.5t33.5 -4q23 0 44.5 5t35.5 14l57 410h110
l-67 -479q-37 -21 -87 -35t-98 -14q-43 0 -82 14t-64 44q-32 -29 -73 -43.5t-80 -14.5z" />
    <glyph glyph-name="uni0449" unicode="&#x449;" horiz-adv-x="818" 
d="M504 -10q-43 0 -82 14t-64 44q-32 -29 -73 -43.5t-80 -14.5q-40 0 -73.5 11t-57 33t-34.5 56q-6 21 -6 46q0 15 2 31l49 351h110l-49 -351q-2 -10 -2 -19q0 -28 18 -40q21 -16 54 -16h4q14 0 30 4.5t30.5 12t24.5 18.5t12 26l51 365h108l-51 -365q-2 -17 4 -29t18 -19.5
t28.5 -11.5t33.5 -4q23 0 44 3.5t35 10.5l58 415h110l-56 -401h68l-20 -114l-36 -127h-89l23 142l-7 -2q-32 -11 -67.5 -18.5t-67.5 -7.5z" />
    <glyph glyph-name="uni044A" unicode="&#x44a;" horiz-adv-x="548" 
d="M353 352q90 0 129 -50q29 -38 29 -95q0 -18 -3 -38q-6 -43 -27 -76.5t-52.5 -56t-70.5 -34.5t-81 -12q-40 0 -75.5 11t-61 33t-38.5 55q-9 23 -9 50q0 13 2 27l37 263h-104l12 89h214l-27 -195q25 11 60 20t66 9zM321 266q-26 0 -55 -8t-51 -17l-11 -77q-1 -6 -1 -11
q0 -12 5 -23q7 -14 19.5 -23.5t29.5 -14t34 -4.5q19 0 37.5 5.5t34 16t26 26.5t13.5 37q2 13 2 23q0 32 -17 48q-23 22 -66 22z" />
    <glyph glyph-name="uni044B" unicode="&#x44b;" horiz-adv-x="715" 
d="M294 352q90 0 128 -50q29 -39 29 -97q0 -17 -2 -36q-6 -43 -27.5 -76.5t-53 -56t-70.5 -34.5t-81 -12q-40 0 -75.5 11t-61 33t-37.5 55q-9 22 -9 50q0 13 2 27l48 352h110l-27 -195q26 11 61 20t66 9zM262 266q-26 0 -55.5 -8t-50.5 -17l-12 -77q-1 -6 -1 -11
q0 -12 5 -23q7 -14 19.5 -23.5t29.5 -14t35 -4.5q19 0 37.5 5.5t34 16t26 26.5t13.5 37q2 12 2 22q0 32 -18 49q-22 22 -65 22zM613 0h-110l73 519h110z" />
    <glyph glyph-name="uni044C" unicode="&#x44c;" horiz-adv-x="489" 
d="M295 352q90 0 128 -50q29 -39 29 -97q0 -17 -2 -36q-6 -43 -27.5 -76.5t-53 -56t-70.5 -34.5t-81 -12q-40 0 -75.5 11t-61 33t-37.5 55q-9 22 -9 50q0 13 2 27l48 352h110l-27 -195q26 11 61 20t66 9zM263 266q-26 0 -55.5 -8t-50.5 -17l-12 -77q-1 -6 -1 -11
q0 -12 5 -23q7 -14 19.5 -23.5t29.5 -14t35 -4.5q19 0 37.5 5.5t34 16t26 26.5t13.5 37q2 12 2 22q0 32 -18 49q-22 22 -65 22z" />
    <glyph glyph-name="uni044D" unicode="&#x44d;" horiz-adv-x="470" 
d="M252 527q38 0 73 -11t61 -33.5t39 -55.5q9 -23 9 -51q0 -13 -2 -27l-25 -179q-6 -45 -29 -78.5t-55 -56t-70.5 -33.5t-76.5 -11q-29 0 -57.5 7.5t-53 23.5t-42.5 41.5t-25 61.5l101 35q5 -35 30.5 -54t60.5 -19q18 0 36 4.5t32.5 14t24.5 23.5t13 33l8 55h-163l12 81h162
l7 50q1 6 1 12q0 12 -4 22q-6 14 -18 23.5t-28.5 14.5t-34.5 5q-32 0 -59.5 -12.5t-46.5 -43.5l-85 42q18 31 42 53t51.5 36t56 20.5t55.5 6.5z" />
    <glyph glyph-name="uni044E" unicode="&#x44e;" horiz-adv-x="730" 
d="M513 528q38 0 73 -11t60.5 -33.5t38.5 -55.5q9 -23 9 -52q0 -13 -2 -27l-26 -183q-6 -44 -28 -77t-54 -55t-70.5 -33t-76.5 -11t-73.5 11t-61.5 33t-39 55q-9 23 -9 50q0 13 2 27l8 57h-108l-32 -223h-110l73 518h110l-28 -200h108l5 36q6 44 29 76.5t55 54t70.5 32.5
t76.5 11zM498 425q-17 0 -35 -4.5t-33 -13.5t-25.5 -23.5t-13.5 -33.5l-25 -182q-1 -6 -1 -12q0 -12 5 -22q6 -14 18.5 -23.5t29 -14t33.5 -4.5t34.5 4.5t32.5 14t25.5 24t13.5 33.5l25 182q1 6 1 12q0 12 -5 22q-6 14 -18 23t-28.5 13.5t-33.5 4.5z" />
    <glyph glyph-name="uni044F" unicode="&#x44f;" horiz-adv-x="506" 
d="M45 331q0 13 2 28q6 43 24.5 73.5t47 49.5t65 27.5t78.5 8.5h215l-73 -518h-110l29 202h-52l-179 -202h-128l192 208q-27 4 -49 15.5t-37 30.5t-22 45q-3 15 -3 32zM250 431q-85 0 -97 -74q-1 -9 -1 -18q0 -28 16 -43q21 -19 68 -19h98l21 154h-105z" />
    <glyph glyph-name="uni0451" unicode="&#x451;" horiz-adv-x="479" 
d="M394 703q31 0 50 -21q14 -17 14 -39q0 -6 -1 -13q-5 -31 -28.5 -52t-54.5 -21t-49 21q-14 16 -14 39q0 6 1 13q5 31 28 52t54 21zM193 703q31 0 50 -21q14 -17 14 -39q0 -6 -1 -13q-5 -31 -28.5 -52t-54.5 -21t-49 21q-14 16 -14 39q0 6 1 13q5 31 28 52t54 21zM207 -10
q-38 0 -73.5 11.5t-61.5 34.5t-40 57q-9 24 -9 52q0 13 2 27l24 172q6 46 28.5 80.5t54.5 57.5t70 34.5t77 11.5t73.5 -11.5t60 -34t37.5 -56.5q8 -23 8 -50q0 -14 -2 -29q-5 -37 -23.5 -64.5t-46 -45.5t-63.5 -26.5t-76 -8.5q-57 0 -108 20l-6 -50q-1 -7 -1 -13
q0 -12 4 -21q5 -15 17 -25.5t28.5 -16t34.5 -5.5h4q27 0 58 12q32 13 53 40l70 -52q-40 -50 -91.5 -75.5t-102.5 -25.5zM254 287q44 0 68 20q26 22 26 54q0 24 -19 43q-21 20 -64 20q-19 0 -37 -5.5t-33 -16.5t-25 -26.5t-13 -35.5l-6 -36q17 -5 44 -11t59 -6z" />
    <glyph glyph-name="Wgrave" unicode="&#x1e80;" horiz-adv-x="925" 
d="M396 907h149l70 -151h-120zM247 133h9l41 137l159 334h97l63 -336q-1 0 1 -21t4 -46l6 -66h9l35 132l186 441h119l-304 -708h-123l-64 346l-1 89h-7q-9 -25 -15 -44q-5 -17 -10 -30.5t-4 -13.5l-157 -347h-123l-106 708h120l63 -443q-1 0 -0.5 -20.5t1.5 -45.5
q1 -29 1 -66z" />
    <glyph glyph-name="wgrave" unicode="&#x1e81;" horiz-adv-x="724" 
d="M278 727h149l70 -151h-120zM456 506l25 -385h2l50 163l100 234h111l-227 -518h-111l-21 374h-2l-146 -374h-115l-84 518h111l34 -236l10 -163h2l157 387h104z" />
    <glyph glyph-name="Wacute" unicode="&#x1e82;" horiz-adv-x="925" 
d="M565 756h-114l114 151h141zM247 133h9l41 137l159 334h97l63 -336q-1 0 1 -21t4 -46l6 -66h9l35 132l186 441h119l-304 -708h-123l-64 346l-1 89h-7q-9 -25 -15 -44q-5 -17 -10 -30.5t-4 -13.5l-157 -347h-123l-106 708h120l63 -443q-1 0 -0.5 -20.5t1.5 -45.5
q1 -29 1 -66z" />
    <glyph glyph-name="wacute" unicode="&#x1e83;" horiz-adv-x="724" 
d="M447 576h-114l114 151h141zM456 506l25 -385h2l50 163l100 234h111l-227 -518h-111l-21 374h-2l-146 -374h-115l-84 518h111l34 -236l10 -163h2l157 387h104z" />
    <glyph glyph-name="Wdieresis" unicode="&#x1e84;" horiz-adv-x="925" 
d="M644 899q31 0 50 -21q14 -17 14 -39q0 -6 -1 -13q-5 -31 -28.5 -52t-54.5 -21t-49 21q-14 16 -14 39q0 6 1 13q5 31 28 52t54 21zM443 899q31 0 50 -21q14 -17 14 -39q0 -6 -1 -13q-5 -31 -28.5 -52t-54.5 -21t-49 21q-14 16 -14 39q0 6 1 13q5 31 28 52t54 21zM247 133
h9l41 137l159 334h97l63 -336q-1 0 1 -21t4 -46l6 -66h9l35 132l186 441h119l-304 -708h-123l-64 346l-1 89h-7q-9 -25 -15 -44q-5 -17 -10 -30.5t-4 -13.5l-157 -347h-123l-106 708h120l63 -443q-1 0 -0.5 -20.5t1.5 -45.5q1 -29 1 -66z" />
    <glyph glyph-name="wdieresis" unicode="&#x1e85;" horiz-adv-x="724" 
d="M526 719q31 0 50 -21q14 -17 14 -39q0 -6 -1 -13q-5 -31 -28.5 -52t-54.5 -21t-49 21q-14 16 -14 39q0 6 1 13q5 31 28 52t54 21zM325 719q31 0 50 -21q14 -17 14 -39q0 -6 -1 -13q-5 -31 -28.5 -52t-54.5 -21t-49 21q-14 16 -14 39q0 6 1 13q5 31 28 52t54 21zM456 506
l25 -385h2l50 163l100 234h111l-227 -518h-111l-21 374h-2l-146 -374h-115l-84 518h111l34 -236l10 -163h2l157 387h104z" />
    <glyph glyph-name="Ygrave" unicode="&#x1ef2;" horiz-adv-x="599" 
d="M234 907h149l70 -151h-120zM199 0l38 275l-185 433h133l126 -322l215 322h135l-308 -433l-38 -275h-116z" />
    <glyph glyph-name="ygrave" unicode="&#x1ef3;" horiz-adv-x="527" 
d="M168 717h137l70 -151h-108zM186 -204q-30 0 -58 6.5t-53 18.5t-44 30t-31 41l75 63q17 -29 52 -44.5t73 -15.5q44 0 79 27.5t43 87.5q-52 -20 -104 -20q-39 1 -75 13t-62 35.5t-39 56.5q-8 22 -8 49q0 13 2 27l48 347h110l-49 -345v-8q0 -15 6 -27q8 -16 22 -26.5
t32.5 -16t38.5 -5.5q24 0 48 6t41 17l56 405h109l-75 -532q-7 -50 -30 -86t-56 -59t-72 -34t-79 -11z" />
    <glyph glyph-name="endash" unicode="&#x2013;" horiz-adv-x="577" 
d="M514 239h-471l16 111h471z" />
    <glyph glyph-name="emdash" unicode="&#x2014;" horiz-adv-x="960" 
d="M896 239h-853l16 111h853z" />
    <glyph glyph-name="quoteleft" unicode="&#x2018;" horiz-adv-x="262" 
d="M177 707h115l-112 -262h-126z" />
    <glyph glyph-name="quoteright" unicode="&#x2019;" horiz-adv-x="261" 
d="M169 446h-111l111 262h125z" />
    <glyph glyph-name="quotesinglbase" unicode="&#x201a;" horiz-adv-x="251" 
d="M54 -122h-110l106 249h130z" />
    <glyph glyph-name="quotedblleft" unicode="&#x201c;" horiz-adv-x="432" 
d="M349 705h115l-112 -262h-126zM177 705h115l-112 -262h-126z" />
    <glyph glyph-name="quotedblright" unicode="&#x201d;" horiz-adv-x="428" 
d="M337 445h-111l111 262h125zM169 445h-111l111 262h125z" />
    <glyph glyph-name="quotedblbase" unicode="&#x201e;" horiz-adv-x="427" 
d="M232 -122h-110l106 249h130zM54 -122h-110l106 249h130z" />
    <glyph glyph-name="dagger" unicode="&#x2020;" horiz-adv-x="503" 
d="M55 514h170l27 195h112l-27 -195h170l-15 -107h-170l-73 -519h-112l73 519h-170z" />
    <glyph glyph-name="daggerdbl" unicode="&#x2021;" horiz-adv-x="550" 
d="M33 187h170l31 220h-170l15 106h170l27 195h112l-27 -195h170l-15 -106h-170l-31 -220h170l-15 -106h-170l-27 -193h-112l27 193h-170z" />
    <glyph glyph-name="bullet" unicode="&#x2022;" horiz-adv-x="407" 
d="M230 491q31 0 56 -11.5t42 -31.5t24 -47q5 -18 5 -37q0 -10 -1 -21q-5 -31 -20 -58t-37.5 -47.5t-51 -32t-59.5 -11.5t-56.5 11.5t-42.5 32t-25 47.5q-5 17 -5 35q0 11 2 23q4 31 19.5 58t38 47t51.5 31.5t60 11.5z" />
    <glyph glyph-name="ellipsis" unicode="&#x2026;" horiz-adv-x="595" 
d="M459 140q31 0 50 -21q14 -17 14 -39q0 -6 -1 -13q-5 -31 -28.5 -52t-54.5 -21t-49 21q-14 16 -14 39q0 6 1 13q5 31 28 52t54 21zM91 140q31 0 50 -21q14 -17 14 -39q0 -6 -1 -13q-5 -31 -28.5 -52t-54.5 -21t-49 21q-14 16 -14 39q0 6 1 13q5 31 28 52t54 21zM275 140
q31 0 50 -21q14 -17 14 -39q0 -6 -1 -13q-5 -31 -28.5 -52t-54.5 -21t-49 21q-14 16 -14 39q0 6 1 13q5 31 28 52t54 21z" />
    <glyph glyph-name="perthousand" unicode="&#x2030;" horiz-adv-x="1085" 
d="M868 -4q-70 0 -102 47q-23 33 -23 89q0 23 4 49q6 42 21.5 75t38.5 56.5t51.5 36t60.5 12.5q70 0 103 -47q23 -34 23 -91q0 -20 -3 -44q-6 -43 -22 -77t-39 -57.5t-52 -36t-61 -12.5zM955 212q0 27 -9 42q-13 23 -42 23q-28 0 -45.5 -22.5t-24.5 -72.5q-3 -22 -3 -38
q0 -24 7 -38q11 -22 40 -22q30 0 49 23t26 73q2 17 2 32zM623 734l83 -59l-595 -748l-82 59zM180 340q-70 0 -102 47q-23 33 -23 89q0 23 4 49q6 42 22 75t39 56.5t51.5 36t60.5 12.5q70 0 102 -47q23 -34 23 -90q0 -21 -3 -45q-6 -43 -22 -77t-39 -57.5t-52 -36t-61 -12.5z
M267 555q0 27 -8 42q-13 23 -42 23q-28 0 -45.5 -22.5t-25.5 -72.5q-3 -21 -3 -38q0 -24 7 -37q12 -23 41 -23q30 0 48.5 23t25.5 73q2 18 2 32zM536 -4q-70 0 -102 47q-23 33 -23 89q0 23 4 49q6 42 21.5 75t38.5 56.5t51.5 36t60.5 12.5q70 0 103 -47q23 -34 23 -91
q0 -20 -3 -44q-6 -43 -22 -77t-39 -57.5t-52 -36t-61 -12.5zM623 212q0 27 -9 42q-13 23 -42 23q-28 0 -45.5 -22.5t-24.5 -72.5q-3 -22 -3 -38q0 -24 7 -38q11 -22 40 -22q30 0 49 23t26 73q2 17 2 32z" />
    <glyph glyph-name="guilsinglleft" unicode="&#x2039;" horiz-adv-x="307" 
d="M292 454l-135 -163l89 -164l-103 -56l-117 220l179 220z" />
    <glyph glyph-name="guilsinglright" unicode="&#x203a;" horiz-adv-x="306" 
d="M10 127l135 164l-87 163l103 57l116 -220l-178 -220z" />
    <glyph glyph-name="fraction" unicode="&#x2044;" horiz-adv-x="530" 
d="M45 -41l-83 56l534 712l83 -55z" />
    <glyph glyph-name="Euro" unicode="&#x20ac;" horiz-adv-x="609" 
d="M395 718q35 0 68.5 -10t62.5 -29.5t51.5 -49.5t35.5 -69l-108 -51q-17 49 -52.5 72t-73.5 23q-25 0 -50 -7t-46 -20.5t-35.5 -34t-17.5 -47.5l-5 -38h246l-28 -81h-227l-6 -44h241l-28 -87h-228l-5 -34q-1 -9 -1 -17q0 -17 5 -30q9 -21 25.5 -34.5t39.5 -20.5t48 -7
q40 0 81.5 23.5t72.5 71.5l94 -49q-24 -40 -55.5 -69.5t-66 -49t-71 -29.5t-71.5 -10q-46 0 -88 13.5t-72.5 41.5t-44.5 69q-10 26 -10 59q0 18 3 38l5 34h-67l30 87h49l6 44h-59l28 81h43l5 38q7 55 34 97t65 70t84.5 42t92.5 14z" />
    <glyph glyph-name="uni2113" unicode="&#x2113;" horiz-adv-x="422" 
d="M215 -7q-38 0 -64 11.5t-42.5 32t-24.5 48t-9 60.5q-11 -8 -20.5 -14t-16.5 -11l-32 84q20 16 41 34t42 37l33 234q10 70 30 116t46 73.5t55 38.5t56 11q33 0 55.5 -13t35.5 -35.5t16 -53.5q2 -13 2 -26q0 -20 -3 -41q-13 -91 -73 -178t-151 -169l-4 -26q-2 -17 -2 -31
q0 -25 7 -41q10 -26 28 -34q9 -3 18 -3q11 0 24 5q23 9 42 31l64 -65q-35 -36 -73 -55.5t-80 -19.5zM318 595q0 11 -2 21q-3 21 -22 21q-8 0 -17.5 -6.5t-19 -22t-17.5 -41t-14 -64.5l-17 -125q46 49 72.5 94.5t34.5 98.5q2 13 2 24z" />
    <glyph glyph-name="trademark" unicode="&#x2122;" horiz-adv-x="836" 
d="M172 591h-103l14 103h313l-14 -103h-104l-43 -301h-106zM440 694h95l73 -203q25 42 45 73t36 55t28.5 42t21.5 33h92l-57 -404h-106l33 181l-85 -125h-53l-54 128l-20 -184h-106z" />
    <glyph glyph-name="Omega" unicode="&#x2126;" horiz-adv-x="783" 
d="M56 315q0 29 4 61q12 85 50.5 148t92.5 104.5t118 61.5q63 20 126 20h3q64 -1 122.5 -22t101 -62.5t63.5 -103.5q13 -40 13 -88q0 -26 -4 -54q-6 -41 -20.5 -79t-34 -72t-42.5 -64t-46 -54h106l-15 -111h-307l11 83q41 21 80 51.5t70.5 68.5t53.5 82.5t29 94.5q3 20 3 38
q0 47 -19 83q-27 49 -74 75t-106 27h-4q-56 0 -108 -23q-54 -25 -94.5 -76t-51.5 -130q-2 -19 -2 -37q0 -26 4 -51q9 -42 29.5 -79t50 -68.5t64.5 -56.5l-11 -82h-310l15 111h109q-37 50 -57 115q-13 40 -13 89z" />
    <glyph glyph-name="estimated" unicode="&#x212e;" horiz-adv-x="848" 
d="M433 68q31 0 66 5.5t69 18t64.5 33t51.5 51.5l99 -1q-30 -50 -70.5 -85t-87 -57t-96.5 -32t-97 -10q-80 0 -151 27.5t-124 75t-83.5 111.5t-30.5 138q0 73 30.5 137.5t83.5 112.5t124 76t151 28q81 0 152 -28t124 -76t83.5 -112.5t30.5 -137.5v-39h-586v-150l1 -1
q38 -37 89 -61t107 -24zM433 617q-54 0 -106.5 -25t-90.5 -61v-150h394v153q-39 37 -89.5 60t-107.5 23z" />
    <glyph glyph-name="partialdiff" unicode="&#x2202;" 
d="M287 721q45 0 86 -19.5t69.5 -61.5t40.5 -108q6 -31 6 -68q0 -41 -7 -88q-12 -83 -38 -153.5t-65 -121.5t-90 -79.5t-111 -28.5q-47 0 -78.5 18.5t-50 49.5t-25.5 71q-3 23 -3 47q0 18 2 37q6 54 28 98t53.5 76t70 51t75.5 23h16q29 0 56 -10q34 -14 58 -46q5 28 5 54
q0 30 -7 56q-13 47 -42.5 73.5t-72.5 28.5q-3 1 -7 1q-40 0 -84 -27l-33 84q31 18 68 30.5t80 12.5zM207 101q18 0 37 11q26 16 49 45t40.5 68.5t25.5 81.5q-5 23 -36.5 37t-69.5 14q-20 0 -39.5 -11t-36 -30t-28 -44.5t-15.5 -54.5q-3 -17 -3 -32q0 -31 11 -52
q17 -32 52 -32h1q6 -1 12 -1z" />
    <glyph glyph-name="Delta" unicode="&#x2206;" horiz-adv-x="592" 
d="M403 701l132 -627l-10 -74h-541l10 73l309 628h100zM330 548q-50 -102 -102.5 -217.5t-103.5 -220.5h284z" />
    <glyph glyph-name="product" unicode="&#x220f;" horiz-adv-x="643" 
d="M361 -61l93 661h-186l-93 -661h-111l93 661h-90l15 109h590l-15 -109h-92l-93 -661h-111z" />
    <glyph glyph-name="summation" unicode="&#x2211;" horiz-adv-x="544" 
d="M258 302l-176 306l11 77h457l-15 -107h-299q37 -68 77 -137.5t76 -135.5l-245 -277h327l-14 -105h-481l9 75z" />
    <glyph glyph-name="minus" unicode="&#x2212;" horiz-adv-x="621" 
d="M557 247h-501l14 110h502z" />
    <glyph glyph-name="uni2215" unicode="&#x2215;" horiz-adv-x="522" 
d="M41 -41l-83 56l534 712l83 -55z" />
    <glyph glyph-name="uni2219" unicode="&#x2219;" horiz-adv-x="236" 
d="M129 384q31 0 50 -21q14 -17 14 -39q0 -6 -1 -13q-5 -31 -28.5 -52t-54.5 -21t-49 21q-14 16 -14 39q0 6 1 13q5 31 28 52t54 21z" />
    <glyph glyph-name="radical" unicode="&#x221a;" horiz-adv-x="528" 
d="M92 266q-2 0 -6 -2q-12 -5 -28.5 -10t-29.5 -9l-23 99l177 64l50 -364l242 756h115l-329 -936h-95z" />
    <glyph glyph-name="infinity" unicode="&#x221e;" horiz-adv-x="702" 
d="M478 124q-42 0 -74 20t-67 62q-37 -35 -76.5 -58.5t-92.5 -23.5q-33 0 -60 12.5t-45.5 34t-26.5 51.5q-5 18 -5 38q0 12 2 25q5 36 21.5 66.5t41.5 52.5t56.5 34.5t67.5 12.5q50 0 83 -24.5t59 -59.5q37 34 77 59t92 25q69 -1 105 -45q29 -35 29 -87q0 -15 -2 -30v-1
q-5 -37 -23 -67.5t-43.5 -52t-56.5 -33t-62 -11.5zM514 354q-25 0 -53 -21t-52 -44q26 -33 46.5 -50.5t41.5 -17.5q29 0 46.5 20t21.5 44q1 7 1 14q0 23 -12 37q-14 18 -40 18zM186 223q24 0 51 20.5t53 43.5q-19 26 -41 45.5t-53 19.5q-26 0 -42 -20t-20 -47q-1 -6 -1 -11
q0 -19 11 -33q13 -18 41 -18h1z" />
    <glyph glyph-name="integral" unicode="&#x222b;" horiz-adv-x="349" 
d="M334 734q-17 0 -28 -9q-24 -18 -31 -69l-29 -234l-10 -81q-5 -45 -10.5 -91.5t-11 -89.5t-10.5 -80t-8 -62q-6 -40 -21.5 -69.5t-37.5 -49t-49 -29t-55 -9.5q-15 0 -37.5 6.5t-48.5 19.5l35 83q28 -12 49 -12q11 0 21 3q28 10 35 58q4 27 8.5 63t9.5 79t10.5 89.5
t11.5 94.5q6 45 11.5 91t10.5 88t9.5 77.5t7.5 59.5q6 41 21.5 71.5t37 51t47 31t51.5 10.5q18 0 41.5 -8.5t46.5 -25.5l-33 -68q-25 11 -44 11z" />
    <glyph glyph-name="approxequal" unicode="&#x2248;" horiz-adv-x="481" 
d="M319 295q-22 0 -43 7q-26 10 -55 24q-14 8 -28.5 14t-26.5 4q-9 -1 -25.5 -9t-32.5 -24l-56 55q29 38 60.5 58.5t63.5 22.5h4q26 0 52 -13q27 -15 54 -26q24 -10 46 -10h6q25 2 48 36l60 -58q-26 -34 -54 -55.5t-63 -25.5h-10zM297 136q-23 0 -45 8q-25 9 -53 23
q-14 8 -28.5 14t-26.5 4q-10 -1 -26 -9t-32 -24l-56 55q29 38 60.5 58.5t63.5 22.5h3q26 0 52 -14q28 -14 55 -25q24 -10 46 -10q3 0 6 1q25 1 48 35l60 -58q-26 -34 -54 -55.5t-63 -25.5h-10z" />
    <glyph glyph-name="notequal" unicode="&#x2260;" horiz-adv-x="532" 
d="M488 314h-158l-37 -63h186l-15 -107h-232l-59 -102l-82 44l32 58h-101l15 107h147l35 63h-173l15 106h218l55 98l88 -37l-34 -61h115z" />
    <glyph glyph-name="lessequal" unicode="&#x2264;" horiz-adv-x="485" 
d="M417 281l-16 -116l-344 194l10 69l398 197l-16 -117l-238 -115zM415 132l-15 -107h-395l15 107h395z" />
    <glyph glyph-name="greaterequal" unicode="&#x2265;" horiz-adv-x="483" 
d="M443 354l-398 -194l16 116l238 112l-206 115l17 117l343 -197zM416 127l-15 -107h-395l15 107h395z" />
    <glyph glyph-name="lozenge" unicode="&#x25ca;" horiz-adv-x="547" 
d="M27 344l262 372h87l155 -371l-262 -373h-88zM245 105l162 239l-95 248l-162 -246z" />
    <glyph glyph-name="i.loclTRK" horiz-adv-x="228" 
d="M173 727q31 0 50 -21q14 -17 14 -39q0 -6 -1 -13q-5 -31 -28.5 -52t-54.5 -21t-49 21q-14 16 -14 39q0 6 1 13q5 31 28 52t54 21zM126 0h-110l73 519h110z" />
    <glyph glyph-name="f_i" horiz-adv-x="519" 
d="M461 709q31 0 50 -21q14 -17 14 -39q0 -6 -1 -13q-5 -31 -28.5 -52t-54.5 -21t-49 21q-14 16 -14 39q0 6 1 13q5 31 28 52t54 21zM419 0h-110l73 519h110zM-31 -106q27 20 35 45.5t10 42.5l77 550q6 45 27.5 78.5t53.5 55.5t72.5 33.5t85.5 11.5l-15 -108
q-46 0 -78 -18.5t-37 -52.5l-7 -41h99l-15 -108h-99l-55 -401q-14 -100 -112 -156z" />
    <glyph glyph-name="uni0414.loclBGR" horiz-adv-x="683" 
d="M495 -131l17 131h-426l-18 -131h-115l33 238h65l282 601h128l117 -601h65l-33 -238h-115zM457 107l-55 315l-22 160h-2l-63 -153l-144 -322h286z" />
    <glyph glyph-name="uni041B.loclBGR" horiz-adv-x="610" 
d="M344 582h-2l-35 -93l-228 -489h-123l340 708h128l145 -708h-123l-93 489z" />
    <glyph glyph-name="uni0432.loclBGR" horiz-adv-x="508" 
d="M318 717q36 0 69 -9t57 -28.5t36 -51.5q8 -20 8 -47q0 -13 -2 -28q-4 -29 -15.5 -54t-27 -45t-32.5 -34.5t-33 -22.5q20 -2 37 -12t28.5 -27t16.5 -40q4 -13 4 -26q0 -10 -2 -21l-15 -105q-6 -44 -28.5 -77t-55 -55t-71 -33t-76.5 -11t-73.5 10.5t-61.5 32t-39 54.5
q-9 23 -9 50q0 13 2 27l53 378q6 40 26 72.5t50.5 55.5t70 35t83.5 12zM302 617q-43 0 -71 -20.5t-34 -62.5l-19 -136q24 7 47 14t47 14q46 14 71.5 45t30.5 72q1 9 1 17q0 24 -13 38q-19 19 -60 19zM145 161q0 -13 4 -23q6 -15 18.5 -25.5t29 -15.5t34.5 -5q17 0 35 5
t33 14.5t25.5 24.5t13.5 36l15 103q1 6 1 12q0 29 -22 44q-18 12 -44 12q-12 0 -25 -2q-26 -5 -49.5 -12t-47.5 -15l-20 -140q-1 -7 -1 -13z" />
    <glyph glyph-name="uni0433.loclBGR" horiz-adv-x="442" 
d="M255 528q34 0 64 -9t52 -27t33 -46q7 -18 7 -41q0 -11 -2 -23q-6 -40 -23 -67t-42.5 -45t-57 -29t-64.5 -19q-21 -5 -39 -10.5t-32 -13t-23 -19t-12 -28.5q-1 -7 -1 -13q0 -26 17 -38q20 -15 58 -15q80 0 143 54l52 -65q-46 -46 -99 -65t-114 -19q-37 0 -69 9.5t-54.5 29
t-33.5 48.5q-8 20 -8 45q0 11 2 23q6 38 21.5 64t39 44t55 30t68.5 22l34 9q18 4 33 11.5t25.5 19.5t13.5 31q1 5 1 9q0 21 -16 31q-19 12 -51 12q-59 0 -108 -36l-56 64q42 38 91 55t95 17z" />
    <glyph glyph-name="uni0434.loclBGR" horiz-adv-x="504" 
d="M186 -110q19 0 38 8t34.5 23.5t26.5 37.5t15 51q-25 -10 -50 -14.5t-49 -4.5q-39 0 -74 12t-60 35t-37 56t-6 77l25 175q7 48 31 83t58.5 57t76.5 32t85 10q49 -1 94 -14.5t77 -38.5l-70 -489q-7 -49 -29 -85t-53.5 -59t-69.5 -34.5t-77 -11.5q-29 0 -57 6.5t-52.5 18.5
t-43.5 30t-31 41l75 63q18 -29 52.5 -47t70.5 -18zM279 427q-20 0 -40 -4.5t-36.5 -14t-28.5 -25t-15 -37.5l-27 -173q-2 -20 5.5 -34.5t20 -23.5t30 -14t36.5 -5q23 0 46 6t40 17l42 287q-13 10 -32.5 15.5t-40.5 5.5zM0 0z" />
    <glyph glyph-name="uni0436.loclBGR" horiz-adv-x="749" 
d="M524 280l171 -280h-130l-121 212l-33 -26l-26 -186h-108l27 186l-23 26l-184 -212h-130l252 280l-182 238h132l153 -207l55 397h108l-56 -397l210 207h133z" />
    <glyph glyph-name="uni0438.loclBGR" horiz-adv-x="519" 
d="M218 -10q-42 0 -78 10t-61.5 32t-37.5 56q-8 21 -8 49q0 15 3 33l49 348h110l-49 -350v-9q0 -15 6 -28q7 -16 21 -26t33 -15t39 -5t41 4.5t38 13.5l58 415h109l-68 -485q-50 -20 -103 -31.5t-102 -11.5z" />
    <glyph glyph-name="uni0439.loclBGR" horiz-adv-x="520" 
d="M303 572q-25 0 -49 9.5t-42 27.5t-28 45q-9 20 -9 45q0 7 1 15h95q1 -23 13.5 -34t29.5 -12h3q15 0 31 11q17 12 25 35h94q-8 -36 -24.5 -62.5t-39 -44.5t-48.5 -26.5t-52 -8.5zM219 -10q-40 0 -76 10.5t-62 33t-39 56.5q-8 22 -8 51q0 14 2 29l49 348h109l-48 -349
q-1 -6 -1 -12q0 -12 4 -22q6 -15 18 -25t28 -15.5t33 -5.5q55 0 96 14l58 415h110l-69 -489q-66 -23 -115.5 -31t-88.5 -8z" />
    <glyph glyph-name="uni043A.loclBGR" horiz-adv-x="500" 
d="M385 518h138l-249 -239l176 -279h-129l-134 212l-35 -31l-25 -181h-110l99 708h110l-56 -399z" />
    <glyph glyph-name="uni043B.loclBGR" horiz-adv-x="478" 
d="M258 420h-3l-41 -117l-133 -303h-117l239 518h135l89 -518h-118l-43 303z" />
    <glyph glyph-name="uni043F.loclBGR" horiz-adv-x="518" 
d="M470 375q0 -15 -2 -32l-48 -344h-109l47 339v9q0 16 -6 28q-8 16 -22 26t-32.5 14.5t-38.5 4.5q-21 0 -41.5 -4.5t-36.5 -13.5l-56 -403h-110l68 486q43 20 93 31t98 11q43 -1 81 -11.5t65.5 -32.5t41.5 -56q8 -23 8 -52z" />
    <glyph glyph-name="uni0442.loclBGR" horiz-adv-x="774" 
d="M564 528q35 0 66.5 -12.5t54.5 -35.5t34 -56q7 -22 7 -48q0 -14 -2 -29l-48 -347h-109l48 343q2 9 2 16q0 24 -17 41q-21 21 -53 21q-16 0 -33 -6t-31.5 -16t-25 -23.5t-12.5 -28.5l-48 -347h-108l49 352q2 17 -3.5 30t-16.5 21.5t-26.5 13t-32.5 4.5h-6q-17 0 -35 -5
q-22 -5 -40 -16l-55 -400h-108l65 473q38 24 88 39.5t98 15.5q46 -1 84.5 -18.5t55.5 -54.5q28 34 68.5 53.5t89.5 19.5z" />
    <glyph glyph-name="uni0446.loclBGR" horiz-adv-x="549" 
d="M219 -9q-39 0 -75 10.5t-62 33t-39 56.5q-9 22 -9 52q0 13 2 28l49 348h110l-49 -349q-1 -6 -1 -12q0 -12 4 -22q6 -15 17.5 -25t27 -15.5t33.5 -5.5q26 0 48 2t43 9l59 418h110l-56 -402h67l-20 -121l-34 -120h-90l23 144l-4 -1q-32 -13 -74.5 -20.5t-79.5 -7.5z" />
    <glyph glyph-name="uni0448.loclBGR" horiz-adv-x="784" 
d="M205 -10q-40 0 -73.5 11t-57 33t-34.5 56q-6 21 -6 46q0 15 2 31l49 351h110l-49 -351q-1 -9 -1 -17q0 -30 17 -42q21 -16 54 -16h4q14 0 30 4.5t30.5 12t24.5 18.5t12 26l51 365h108l-51 -365q-2 -17 4 -29t18 -19.5t28.5 -11.5t33.5 -4q23 0 44.5 5t35.5 14l57 410h110
l-67 -479q-37 -21 -87 -35t-98 -14q-43 0 -82 14t-64 44q-32 -29 -73 -43.5t-80 -14.5z" />
    <glyph glyph-name="uni0449.loclBGR" horiz-adv-x="818" 
d="M504 -10q-43 0 -82 14t-64 44q-32 -29 -73 -43.5t-80 -14.5q-40 0 -73.5 11t-57 33t-34.5 56q-6 21 -6 46q0 15 2 31l49 351h110l-49 -351q-2 -10 -2 -19q0 -28 18 -40q21 -16 54 -16h4q14 0 30 4.5t30.5 12t24.5 18.5t12 26l51 365h108l-51 -365q-2 -17 4 -29t18 -19.5
t28.5 -11.5t33.5 -4q23 0 44 3.5t35 10.5l58 415h110l-56 -401h68l-20 -114l-36 -127h-89l23 142l-7 -2q-32 -11 -67.5 -18.5t-67.5 -7.5z" />
    <glyph glyph-name="uni044E.loclBGR" horiz-adv-x="731" 
d="M514 528q38 0 73 -11t60.5 -33.5t38.5 -55.5q9 -23 9 -52q0 -13 -2 -27l-26 -183q-6 -44 -28 -77t-54 -55t-70.5 -33t-76.5 -11t-73.5 11t-61.5 33t-39 55q-9 23 -9 50q0 13 2 27l8 57h-108l-32 -223h-110l100 708h110l-55 -390h108l5 36q6 44 29 76.5t55 54t70.5 32.5
t76.5 11zM499 425q-17 0 -35 -4.5t-33 -13.5t-25.5 -23.5t-13.5 -33.5l-25 -182q-1 -6 -1 -12q0 -12 4 -22q7 -14 19.5 -23.5t29 -14t33.5 -4.5t34.5 4.5t32.5 14t25.5 24t13.5 33.5l25 182q1 6 1 12q0 12 -4 22q-7 14 -19 23t-28.5 13.5t-33.5 4.5z" />
    <glyph glyph-name=".ttfautohint" horiz-adv-x="240" 
d="M0 0z" />
    </font>
</defs>
</svg>
