<?xml version="1.0" standalone="no"?>
<!DOCTYPE svg PUBLIC "-//W3C//DTD SVG 1.1//EN" "http://www.w3.org/Graphics/SVG/1.1/DTD/svg11.dtd" >
<svg xmlns="http://www.w3.org/2000/svg" xmlns:xlink="http://www.w3.org/1999/xlink" version="1.1">
<metadata>
Created by FontForge 20161013 at Sun Mar  1 19:23:46 2015
 By ,,,
Copyright (c) 2014 by (c) 2009 Designed by Svetoslav Simov (c) Fontfabric, Inc. All rights reserved.
</metadata>
<defs>
<font id="UniSansBoldItalic" horiz-adv-x="510" >
  <font-face 
    font-family="UniSansBoldItalic"
    font-weight="400"
    font-style="italic"
    font-stretch="normal"
    units-per-em="1000"
    panose-1="0 0 5 0 0 0 0 0 0 0"
    ascent="778"
    descent="-222"
    x-height="518"
    cap-height="708"
    bbox="-83 -264 1026 993"
    underline-thickness="50"
    underline-position="-150"
    unicode-range="U+0020-FB02"
  />
<missing-glyph horiz-adv-x="601" 
d="M540 0h-529l98 700h529zM340 458q11 14 20.5 26t19.5 24t20 25t23 29h-139zM272 363l-63 121l-37 -262l106 127zM376 349l70 -127l37 262l-97 -121zM363 139q-8 12 -20 36t-35 66l-84 -102h139z" />
    <glyph glyph-name="fi" unicode="fi" horiz-adv-x="558" 
d="M494 728q38 0 58 -24q15 -19 15 -45q0 -7 -1 -14q-5 -35 -31.5 -59.5t-64.5 -24.5q-17 0 -31 6.5t-23.5 18t-13.5 26.5q-3 10 -3 21q0 6 1 12q3 18 11.5 33t21 26t28.5 17.5t33 6.5zM464 1h-142l72 517h142zM306 716q20 0 41 -3l-20 -137q-13 2 -24 2t-20 -2
q-19 -4 -32 -13t-20.5 -22t-9.5 -26l-3 -24h92l-17 -125h-92l-52 -365q-8 -51 -39.5 -93t-91.5 -76l-55 88q32 23 39 45t9 36l72 514q7 53 29.5 93t57 65.5t79.5 36.5q27 6 57 6z" />
    <glyph glyph-name="fl" unicode="fl" horiz-adv-x="592" 
d="M500 -2q-30 0 -54 8q-40 13 -64 40t-32 66q-5 22 -5 45q0 17 3 35l75 526h139l-75 -526q-1 -6 -1 -12q0 -22 14 -38q18 -21 61 -21l-17 -119q-24 -4 -44 -4zM306 716q20 0 41 -3l-20 -137q-13 2 -24 2t-20 -2q-19 -4 -32 -13t-20.5 -22t-9.5 -26l-3 -24h92l-17 -125h-92
l-52 -365q-8 -51 -39.5 -93t-91.5 -76l-55 88q32 23 39 45t9 36l72 514q7 53 29.5 93t57 65.5t79.5 36.5q27 6 57 6z" />
    <glyph glyph-name=".notdef" horiz-adv-x="601" 
d="M540 0h-529l98 700h529zM340 458q11 14 20.5 26t19.5 24t20 25t23 29h-139zM272 363l-63 121l-37 -262l106 127zM376 349l70 -127l37 262l-97 -121zM363 139q-8 12 -20 36t-35 66l-84 -102h139z" />
    <glyph glyph-name=".null" horiz-adv-x="0" 
 />
    <glyph glyph-name="nonmarkingreturn" horiz-adv-x="333" 
 />
    <glyph glyph-name="space" unicode=" " horiz-adv-x="196" 
 />
    <glyph glyph-name="exclam" unicode="!" horiz-adv-x="256" 
d="M107 163q37 0 59 -25q17 -21 17 -49q0 -6 -1 -13q-3 -18 -11.5 -33.5t-22 -27.5t-30.5 -18.5t-35 -6.5q-36 0 -57 25q-17 20 -17 48q0 6 1 13q3 18 11.5 34t21.5 27.5t29.5 18.5t34.5 7zM182 191h-142l72 517h142z" />
    <glyph glyph-name="quotedbl" unicode="&#x22;" horiz-adv-x="415" 
d="M371 436h-126l38 271h140zM192 436h-126l38 271h140z" />
    <glyph glyph-name="numbersign" unicode="#" horiz-adv-x="728" 
d="M619 183h-149q-32 -75 -51 -118.5t-28 -65.5h-137l78 184h-72l-79 -184h-138l80 184h-115l45 133h128q6 12 10 20.5t12 27.5h-136l48 135h147q18 41 38 88t37 86h138l-75 -174h72l75 174h140l-77 -174h121l-57 -135h-125l-20 -48h137zM400 307l27 66h-97l-26 -66h96z" />
    <glyph glyph-name="dollar" unicode="$" horiz-adv-x="569" 
d="M59 470q0 21 4 45q9 43 31 77.5t53.5 59.5t70 41t79.5 22l9 61h95l-9 -60q57 -8 103.5 -36.5t75.5 -85.5l-132 -81q-25 45 -67 60l-21 -149q41 -9 77.5 -24.5t61.5 -41.5t36 -66q5 -20 5 -45q0 -24 -5 -52q-10 -42 -32.5 -75.5t-54 -58.5t-70 -41.5t-78.5 -23.5l-9 -66
h-95l8 62q-60 7 -111 40t-83 93l123 85q14 -28 38.5 -45.5t53.5 -25.5l22 154q-39 7 -74 22t-60.5 41t-37.5 64q-7 22 -7 50zM211 498q0 -19 11 -30q14 -15 37 -23l18 127q-26 -8 -43 -23t-22 -39v-1q-1 -6 -1 -11zM381 221q0 18 -11 29q-14 15 -40 24l-19 -136
q26 8 44.5 24.5t23.5 42.5q2 8 2 16z" />
    <glyph glyph-name="percent" unicode="%" horiz-adv-x="733" 
d="M606 745l100 -72l-595 -748l-99 68zM183 357q-71 0 -103 46q-23 33 -23 90q0 21 3 46q6 41 21.5 74t38.5 56t52 35.5t61 12.5q72 0 104 -47q23 -33 23 -89q0 -20 -3 -44q-6 -42 -22 -75.5t-39 -56.5t-52 -35.5t-61 -12.5zM255 562q0 21 -7 33q-9 18 -31 18
q-21 0 -37.5 -18t-21.5 -57q-2 -15 -2 -27q0 -21 7 -32q11 -17 32 -17q23 0 38 18.5t20 56.5q2 14 2 25zM515 -4q-71 0 -103 46q-23 33 -23 88q0 22 4 48q6 41 21.5 74t38.5 56t52 35.5t61 12.5q72 0 104 -46q22 -34 22 -89q0 -21 -3 -45q-6 -42 -22 -75.5t-39 -56.5
t-52 -35.5t-61 -12.5zM587 203q0 20 -6 31q-10 18 -32 18q-21 0 -37 -18t-22 -57q-2 -13 -2 -24q0 -23 8 -35q11 -17 32 -17q47 0 57 75q2 15 2 27z" />
    <glyph glyph-name="ampersand" unicode="&#x26;" horiz-adv-x="663" 
d="M217 -4q-48 0 -87.5 15.5t-66.5 44t-39 68.5q-8 26 -8 56q0 17 3 36q5 34 18 62t31 50.5t40.5 40.5t46.5 33q-16 28 -25 60q-7 22 -7 45q0 12 2 24q6 44 27.5 78t52.5 57.5t68.5 35.5t75.5 12q36 0 67 -12.5t53.5 -35t32.5 -54.5q8 -22 8 -47q0 -11 -2 -24
q-5 -32 -17 -57.5t-29 -46t-38 -36.5t-44 -29l65 -91l71 73l77 -86l-82 -83l115 -170h-171l-42 61q-43 -40 -88.5 -60t-107.5 -20zM327 588q-23 0 -41 -15.5t-21 -38.5q-1 -5 -1 -10q0 -13 6 -28q8 -21 22 -40q28 14 51.5 36t26.5 47q1 4 1 8q0 17 -10 27q-12 14 -34 14z
M157 201q0 -22 11 -39q16 -21 42 -28q11 -4 24 -4q15 0 32 5q32 9 61 38l-93 126q-28 -17 -50 -37t-26 -46q-1 -8 -1 -15z" />
    <glyph glyph-name="quotesingle" unicode="'" horiz-adv-x="237" 
d="M196 436h-126l38 271h140z" />
    <glyph glyph-name="parenleft" unicode="(" horiz-adv-x="307" 
d="M161 258q0 -56 10 -112q18 -101 69 -193l-114 -71q-61 108 -82 230q-11 67 -11 134q0 56 7 111q18 122 73 235t146 201l91 -68q-77 -83 -122.5 -179t-59.5 -198q-7 -45 -7 -90z" />
    <glyph glyph-name="parenright" unicode=")" horiz-adv-x="306" 
d="M287 458q0 -50 -7 -101q-17 -122 -72.5 -244.5t-146.5 -230.5l-93 71q76 92 122 193t60 202q6 44 6 86q0 57 -11 112q-19 96 -72 179l111 68q66 -88 90 -201q13 -66 13 -134z" />
    <glyph glyph-name="asterisk" unicode="*" horiz-adv-x="462" 
d="M464 510l-119 -22l67 -93l-114 -78l-51 108l-77 -108l-96 77l91 93l-110 25l54 126l108 -47l6 118h130l-28 -117l120 44z" />
    <glyph glyph-name="plus" unicode="+" horiz-adv-x="568" 
d="M257 581h140l-26 -184h182l-20 -141h-182l-26 -186h-140l26 186h-190l20 141h190z" />
    <glyph glyph-name="comma" unicode="," horiz-adv-x="269" 
d="M75 -122h-140l109 233h156z" />
    <glyph glyph-name="hyphen" unicode="-" horiz-adv-x="397" 
d="M334 222h-295l20 141h295z" />
    <glyph glyph-name="period" unicode="." horiz-adv-x="242" 
d="M102 167q36 0 58 -25q17 -20 17 -48q0 -6 -1 -13q-5 -37 -33.5 -62t-64.5 -25t-57 25q-17 20 -17 48q0 7 1 14q5 36 33 61t64 25z" />
    <glyph glyph-name="slash" unicode="/" horiz-adv-x="476" 
d="M102 -54l-125 48l412 768l124 -46z" />
    <glyph glyph-name="zero" unicode="0" horiz-adv-x="604" 
d="M258 -8q-45 0 -89 12.5t-77 39t-50 66.5q-13 27 -13 62q0 16 3 34l42 295q8 56 36.5 96.5t69 67t88 39t92.5 12.5t89 -12.5t77 -39t50 -66.5q13 -28 13 -63q0 -16 -3 -34l-42 -295q-8 -56 -36.5 -96t-69 -66.5t-88 -39t-92.5 -12.5zM173 200q0 -22 13 -37
q15 -17 39 -25.5t52.5 -8.5t54.5 8.5t45.5 25.5t25.5 43l42 295v6q0 22 -13 37q-15 18 -38.5 27t-52 9t-55 -9t-46 -26.5t-25.5 -43.5l-42 -295v-6z" />
    <glyph glyph-name="one" unicode="1" horiz-adv-x="357" 
d="M119 0l70 499l-76 -58l-81 78l208 191h116l-99 -710h-138z" />
    <glyph glyph-name="two" unicode="2" horiz-adv-x="557" 
d="M339 718q62 0 105.5 -19t69 -50.5t32.5 -72.5q3 -17 3 -34q0 -26 -7 -53q-10 -45 -38.5 -91t-73.5 -86l-209 -176l1 -6l102 11l169 1l-19 -141h-458l-27 76l356 337q18 16 31.5 34t21.5 36t8.5 34t-7.5 29q-14 24 -42 33q-15 4 -32 4q-14 0 -28 -3q-32 -7 -65 -28.5
t-58 -56.5l-101 76q52 72 123 109t143 37z" />
    <glyph glyph-name="three" unicode="3" horiz-adv-x="570" 
d="M334 718q31 0 62 -8.5t57.5 -25t45.5 -42t27 -58.5q6 -24 6 -50t-8.5 -52.5t-27.5 -52.5t-51 -49q28 -15 45 -36.5t25 -46.5t9 -51v-10q0 -21 -3 -40q-8 -44 -31.5 -81.5t-60 -65t-83 -43t-100.5 -15.5q-26 0 -60.5 4t-70.5 19.5t-68.5 45.5t-52.5 82l121 80
q19 -42 54.5 -65.5t73.5 -23.5q59 0 92.5 26t39.5 58q1 7 1 14q0 24 -17 45q-22 28 -75 31h-99l17 125h99q31 0 55 20t29 52q2 16 -3.5 29t-16 22.5t-26 14.5t-32.5 5q-30 0 -70 -11t-77 -50l-76 82q46 60 109 91t141 31z" />
    <glyph glyph-name="four" unicode="4" horiz-adv-x="563" 
d="M508 159h-58l-22 -159h-141l22 159h-260l-53 99l405 451h126l-59 -421h58zM170 278h159l24 149q7 23 13 42q5 17 9.5 33t6.5 24l-5 1l-39 -55z" />
    <glyph glyph-name="five" unicode="5" horiz-adv-x="565" 
d="M251 136q39 0 67.5 16.5t45.5 41t22 53.5q1 10 1 19q0 18 -6 34q-9 25 -32.5 41.5t-62.5 17.5q-20 0 -36 -2t-33.5 -7.5t-38 -14.5t-47.5 -23l-82 -1l56 397h442l-20 -139h-306l-13 -97q33 13 65 17q21 3 42 3q10 0 19 -1q30 -2 56 -9.5t47 -18.5q49 -26 73 -71
q25 -48 25 -103q0 -51 -19 -102q-21 -54 -59.5 -98t-93.5 -71.5t-123 -27.5q-21 0 -52 4.5t-62.5 20t-60.5 45t-46 78.5l118 72q18 -37 50 -55.5t64 -18.5z" />
    <glyph glyph-name="six" unicode="6" horiz-adv-x="597" 
d="M348 588q-10 0 -21 -2q-28 -3 -51.5 -14t-40.5 -29t-20 -41l-14 -102q34 31 75 45q38 13 75 13h9q41 -2 79.5 -17t66.5 -42.5t42 -66.5q11 -27 11 -58q0 -13 -2 -27l-5 -42q-6 -54 -33.5 -94t-67.5 -67t-89 -40.5t-98 -13.5q-50 0 -95 13t-78 40t-50 67q-12 28 -12 62
q0 16 3 33l42 298q7 54 35 94.5t68.5 67.5t89.5 40t99 13q72 0 131 -33t92 -111l-132 -53q-9 27 -29.5 42.5t-46.5 20.5q-16 4 -33 4zM416 254q0 20 -12 34q-15 17 -40 25.5t-56 8.5t-58.5 -8.5t-47.5 -25.5t-23 -42l-5 -37q-1 -5 -1 -10q0 -18 13 -32q15 -17 40 -25.5
t56 -8.5t58.5 8.5t47 25t23.5 42.5l5 37v8z" />
    <glyph glyph-name="seven" unicode="7" horiz-adv-x="535" 
d="M547 709l30 -82l-427 -627h-159l384 575h-307l19 134h460z" />
    <glyph glyph-name="eight" unicode="8" horiz-adv-x="617" 
d="M256 -10q-56 0 -102.5 15.5t-78 46t-45.5 74.5q-10 29 -10 63q0 19 3 39q5 38 32 82t84 78q-26 18 -37 46q-13 28 -13 60q0 28 9 55q9 29 23 51q19 29 45.5 51t57.5 37t65 22.5t69 7.5h16q45 0 86 -12t71 -37t45 -64q10 -25 10 -58q0 -17 -3 -36q-4 -29 -25 -63.5
t-59 -56.5q25 -13 40.5 -31.5t24 -40t10.5 -45.5v-15q0 -16 -2 -31q-9 -57 -36.5 -101.5t-67 -75t-90 -46t-106.5 -15.5h-16zM340 596q-18 0 -36 -5.5t-33 -15.5t-25.5 -24.5t-13.5 -32.5q-1 -6 -1 -11q0 -14 5 -25q8 -14 21 -23t30.5 -13.5t35.5 -4.5q19 0 39 4.5t37 13.5
t29 23.5t15 35.5q1 6 1 12q0 11 -4 20q-6 14 -18.5 24t-29.5 15.5t-35 6.5h-17zM291 128q21 0 43 6t41 18t33 29t17 40q1 8 1 15q0 17 -6 30q-7 19 -22 30.5t-35.5 16.5t-44.5 5h-16q-24 0 -46.5 -5t-41 -16.5t-31 -30t-15.5 -45.5q-1 -6 -1 -12q0 -15 7 -28q8 -17 23.5 -29
t36 -18t41.5 -6h16z" />
    <glyph glyph-name="nine" unicode="9" horiz-adv-x="597" 
d="M261 120q10 0 21 2q28 3 52 14t40.5 29t20.5 41l15 102q-35 -30 -77 -44q-39 -13 -78 -13h-6q-42 1 -80.5 16.5t-66.5 42.5t-42 65q-9 25 -9 55q0 15 2 31l6 42q7 54 34.5 94t67.5 67t88 40.5t98 13.5q49 0 94.5 -13t78.5 -40t50 -67q11 -29 11 -64q0 -15 -2 -31
l-42 -298q-8 -54 -36 -94.5t-68.5 -67.5t-89.5 -40t-98 -13q-72 0 -131.5 33t-91.5 111l131 53q9 -27 29.5 -42.5t45.5 -20.5q16 -4 33 -4zM194 454q0 -21 12 -34q16 -17 41 -25.5t55.5 -8.5t58 8.5t47.5 25.5t23 42l5 40v8q0 20 -12 34q-16 17 -41 25.5t-55.5 8.5t-58 -8.5
t-47.5 -25.5t-23 -42l-5 -40v-8z" />
    <glyph glyph-name="colon" unicode=":" horiz-adv-x="267" 
d="M159 489q36 0 57 -25q18 -19 18 -47q0 -6 -1 -13q-2 -18 -11 -34t-22.5 -27.5t-30 -18.5t-34.5 -7t-32.5 7t-24.5 18.5t-14 27.5q-4 11 -4 23q0 5 1 11q5 36 33.5 60.5t64.5 24.5zM116 179q36 0 58 -24q17 -19 17 -48q0 -7 -1 -14q-3 -18 -12 -33.5t-22.5 -27.5
t-30 -18.5t-34.5 -6.5q-36 0 -57 25q-17 20 -17 48q0 6 1 13q5 38 33.5 62t64.5 24z" />
    <glyph glyph-name="semicolon" unicode=";" horiz-adv-x="278" 
d="M88 -95h-124l88 232h153zM166 477q36 0 58 -25q17 -20 17 -48q0 -6 -1 -13q-5 -37 -33.5 -62t-64.5 -25t-57 25q-17 20 -17 48q0 7 1 14q5 36 33 61t64 25z" />
    <glyph glyph-name="less" unicode="&#x3c;" horiz-adv-x="427" 
d="M362 187l-23 -162l-323 224l13 92l386 227l-22 -161l-213 -112z" />
    <glyph glyph-name="equal" unicode="=" horiz-adv-x="531" 
d="M480 315h-427l19 137h427zM454 132h-427l19 136h427z" />
    <glyph glyph-name="greater" unicode="&#x3e;" horiz-adv-x="426" 
d="M394 249l-385 -224l23 162l212 108l-181 112l22 161l322 -227z" />
    <glyph glyph-name="question" unicode="?" horiz-adv-x="481" 
d="M280 719q68 0 113 -27.5t67 -69.5q23 -42 23 -91q0 -52 -23 -99q-23 -45 -68.5 -79t-113.5 -44l-26 -113h-121l20 207q20 -5 36.5 -6t24.5 -1q35 0 61 15t41 37.5t19 47.5q1 8 1 16q0 16 -6 31q-9 21 -32 34q-19 11 -47 11q-6 0 -13 -1q-23 -2 -47 -14t-45 -36l-79 76
q52 57 107.5 81.5t107.5 24.5zM182 148q36 0 58 -25q17 -20 17 -48q0 -6 -1 -13q-5 -37 -33.5 -62t-64.5 -25t-57 25q-17 20 -17 48q0 7 1 14q5 36 33 61t64 25z" />
    <glyph glyph-name="at" unicode="@" horiz-adv-x="772" 
d="M660 436q0 28 -7 56q-11 43 -42 72t-77 42q-42 11 -80 11q-30 0 -58 -7q-63 -16 -112 -55.5t-81.5 -94.5t-46.5 -114q-8 -37 -8 -73q0 -20 2 -39q8 -54 39.5 -91t88.5 -51q21 -4 45 -4q43 0 98 15l10 -94q-61 -19 -118 -19q-25 0 -49 4q-80 12 -135.5 57t-80.5 119
q-14 42 -14 91q0 39 9 83q11 53 35 105.5t60 98.5t82 83t100.5 59t116.5 26q12 1 25 1q50 0 104 -14q68 -17 115 -58t68 -98q15 -40 15 -88v-7q-1 -51 -17 -101.5t-46 -96.5t-71 -79q-20 -16 -48 -29t-58 -18q-15 -3 -30 -3q-14 0 -27 3q-28 4 -49 22q-23 -15 -49 -20
q-14 -3 -28 -3q-12 0 -23 2q-24 4 -46 15t-37 28q-27 28 -36 65q-6 24 -6 49q0 13 2 28q5 39 22 78t42.5 72.5t57.5 57.5t67 33q17 4 34 4q19 0 37 -5q36 -9 69 -42l26 25l76 -19l-95 -291q39 20 66.5 50t43 65.5t18.5 73.5q1 10 1 20zM424 451h-4q-19 -1 -38.5 -13
t-35.5 -31q-13 -16 -22 -37t-12 -42q-2 -12 -2 -23q0 -10 1 -19q3 -20 13 -34q9 -12 24 -17q12 -4 24 -4h6q15 1 30 7.5t26 17.5l52 148q-11 26 -28 37q-17 10 -34 10z" />
    <glyph glyph-name="A" unicode="A" horiz-adv-x="634" 
d="M597 0h-154l-40 162h-211l-81 -162h-157l347 708h141zM248 297h136l-23 154l-6 101h-11l-34 -102z" />
    <glyph glyph-name="B" unicode="B" horiz-adv-x="624" 
d="M584 247v-12q-2 -28 -9 -55q-10 -36 -30.5 -68.5t-53.5 -57t-79 -39.5t-107 -15h-285l99 709h280q46 0 84.5 -13t65 -39.5t38.5 -65.5q8 -25 8 -54q0 -17 -3 -36q-2 -15 -8.5 -32.5t-17 -34.5t-25.5 -32t-34 -25q31 -16 48 -39t24 -49q5 -20 5 -42zM360 431q37 0 60.5 21
t28.5 46q1 6 1 11q0 19 -12 35q-17 21 -59 21h-133l-19 -134h133zM320 143q34 0 59 12t39 30t17 39q1 5 1 10q0 16 -7 29q-9 18 -30.5 30t-56.5 12h-133l-22 -162h133z" />
    <glyph glyph-name="C" unicode="C" horiz-adv-x="583" 
d="M273 -10q-51 0 -98.5 15t-82.5 44.5t-52 73.5q-12 29 -12 65q0 18 3 38l38 257q9 58 39 102t73 73.5t94.5 44.5t104.5 15q35 0 70 -9t65 -28t53.5 -47.5t36.5 -67.5l-128 -68q-15 39 -50 57.5t-74 18.5q-24 0 -47.5 -6.5t-42.5 -18.5t-32.5 -29.5t-16.5 -40.5l-37 -253
q-1 -7 -1 -13q0 -14 5 -27q7 -17 22 -29t36 -18t44 -6q40 0 81 18.5t67 58.5l117 -71q-57 -75 -130.5 -112t-144.5 -37z" />
    <glyph glyph-name="D" unicode="D" horiz-adv-x="637" 
d="M379 708q52 0 99 -13.5t80.5 -41.5t49.5 -71q12 -30 12 -67q0 -17 -3 -37l-36 -252q-8 -60 -36.5 -102.5t-70 -70t-92 -40.5t-102.5 -13h-260l99 708h260zM300 148q24 0 46.5 4t41 13.5t30.5 24.5t15 36l36 252q1 6 1 12q0 14 -6 26q-8 15 -23.5 25t-37 14.5t-45.5 4.5
h-113l-58 -412h113z" />
    <glyph glyph-name="E" unicode="E" horiz-adv-x="584" 
d="M227 426h305l-20 -143h-305l-19 -140h332l-20 -143h-480l99 709h480l-20 -144h-332z" />
    <glyph glyph-name="F" unicode="F" horiz-adv-x="571" 
d="M225 409h290l-20 -145h-290l-37 -264h-148l99 708h479l-20 -143h-331z" />
    <glyph glyph-name="G" unicode="G" horiz-adv-x="620" 
d="M357 575q-24 0 -48 -6t-44 -18.5t-33.5 -31t-16.5 -42.5l-36 -249q-1 -6 -1 -12q0 -17 6 -30q9 -17 26 -29t39.5 -18t47.5 -6t49.5 6t45 18t34.5 29.5t17 41.5l7 52h-161l17 124h295l-24 -176q-9 -60 -38 -104.5t-70.5 -74.5t-92.5 -44.5t-103 -14.5q-51 0 -98 15.5
t-81.5 45t-51.5 73.5q-12 31 -12 68q0 17 3 36l36 257q8 58 37.5 101.5t72.5 73t94.5 44t103.5 14.5q36 0 71 -8t65 -25.5t54 -46t38 -70.5l-128 -71q-11 40 -45 59t-75 19z" />
    <glyph glyph-name="H" unicode="H" horiz-adv-x="680" 
d="M167 0h-147l99 708h147l-39 -281h261l39 281h147l-99 -708h-147l39 280h-261z" />
    <glyph glyph-name="I" unicode="I" horiz-adv-x="272" 
d="M167 0h-147l99 708h147z" />
    <glyph glyph-name="J" unicode="J" horiz-adv-x="597" 
d="M239 -10q-44 0 -88 14t-79 43.5t-57 73.5q-20 42 -20 99v5l142 28q1 -30 11 -52t26 -37t35.5 -22.5t40.5 -7.5q22 0 44 5.5t40.5 17t31.5 30t16 45.5l47 337h-167l20 139h315l-68 -486q-8 -58 -36 -101.5t-67.5 -72.5t-88 -43.5t-98.5 -14.5z" />
    <glyph glyph-name="K" unicode="K" horiz-adv-x="633" 
d="M518 708h179l-353 -347l254 -361h-182l-185 263l-31 -27l-33 -236h-147l99 708h147l-41 -295z" />
    <glyph glyph-name="L" unicode="L" horiz-adv-x="529" 
d="M119 708h147l-79 -560h306l-20 -148h-453z" />
    <glyph glyph-name="M" unicode="M" horiz-adv-x="779" 
d="M416 93h-110l-66 228l-21 97h-10l-3 -137l-39 -281h-147l99 708h154l115 -407l231 407h154l-99 -708h-147l39 282l37 137h-11l-48 -99z" />
    <glyph glyph-name="N" unicode="N" horiz-adv-x="680" 
d="M527 708h147l-99 -708h-157l-164 372l-30 96h-4l-4 -123l-48 -345h-148l99 708h145l170 -386l35 -126h3l4 150z" />
    <glyph glyph-name="O" unicode="O" horiz-adv-x="668" 
d="M389 717h7q54 -1 103 -16t84.5 -44.5t54.5 -73.5q12 -31 12 -68q0 -16 -2 -34l-35 -255q-8 -59 -39.5 -103.5t-77 -74t-100 -44t-109.5 -14.5q-54 0 -103 15t-85.5 44.5t-54.5 73.5q-13 31 -13 69q0 16 2 34l35 255q8 60 39.5 104.5t77.5 74t101 44.5q51 13 103 13z
M176 211q0 -16 8 -29q9 -16 27.5 -27t43.5 -16.5t52 -5.5t53.5 5.5t48.5 17t37 28t18 38.5l39 263q1 6 1 11q0 16 -8 29q-9 17 -27.5 28t-43 16.5t-51.5 5.5t-54 -5.5t-49 -17t-37 -28.5t-18 -39l-39 -263q-1 -6 -1 -11z" />
    <glyph glyph-name="P" unicode="P" horiz-adv-x="618" 
d="M398 708q59 0 102 -18.5t70 -49t39 -70.5q10 -34 10 -70v-12q-3 -56 -23.5 -105t-57 -85.5t-89 -57.5t-119.5 -21h-134l-30 -219h-146l99 708h279zM349 357q28 0 50.5 9.5t38.5 25.5t24.5 35.5t9.5 39.5v6q0 32 -21 59q-23 28 -74 28h-133l-28 -203h133z" />
    <glyph glyph-name="Q" unicode="Q" horiz-adv-x="668" 
d="M31 192q0 17 2 34l35 255q8 60 39.5 104.5t76.5 74t99.5 44t109.5 14.5q54 0 103.5 -15.5t86 -45t55.5 -73.5q12 -32 12 -69q0 -16 -2 -34l-35 -255q-5 -38 -20.5 -71t-38.5 -59l61 -72l-78 -60l-59 71q-41 -23 -87 -34t-94 -11q-55 0 -106.5 14.5t-89 43.5t-57.5 74
q-13 31 -13 70zM504 496q0 16 -8 29q-9 17 -27.5 28t-43 16.5t-51.5 5.5t-54 -5.5t-49 -17t-37 -28.5t-18 -39l-39 -263q-1 -5 -1 -10q0 -16 8 -28q9 -17 27 -28.5t42.5 -17t51.5 -5.5q52 0 84 9l-54 65l79 57l47 -56l3 14l39 263q1 6 1 11z" />
    <glyph glyph-name="R" unicode="R" horiz-adv-x="633" 
d="M398 708q53 0 97 -12.5t74 -40t43 -70.5q9 -28 9 -64q0 -19 -2 -39q-14 -98 -63 -148t-128 -65l174 -269h-181l-165 259h-52l-36 -259h-148l99 708h279zM354 393q49 0 80 20.5t38 67.5q1 8 1 15q0 12 -3 22q-6 16 -19 25t-32 13t-42 4h-131l-23 -167h131z" />
    <glyph glyph-name="S" unicode="S" horiz-adv-x="569" 
d="M269 132q45 0 73 18t36 55q1 7 1 14q0 14 -5 23q-9 15 -26.5 24.5t-42 14.5t-51.5 9q-41 6 -79 22.5t-66 44t-42 67.5q-9 24 -9 52q0 19 4 39q9 54 35.5 92t64 63t83 36.5t93.5 11.5q69 0 127 -28t102 -95l-121 -77q-23 31 -53 44.5t-65 13.5q-21 0 -40.5 -3t-35.5 -10.5
t-27 -20.5t-14 -33q-1 -7 -1 -13q0 -12 6 -22q8 -13 24 -21t37.5 -13t44.5 -10q45 -9 86.5 -22.5t71 -40.5t42.5 -71q8 -23 8 -55q0 -25 -5 -55q-9 -56 -35.5 -93.5t-65.5 -60t-87.5 -32.5t-101.5 -10q-35 0 -69 8.5t-65 25.5t-57 42t-44 59l119 88q12 -20 29 -35t37.5 -25
t42 -15.5t41.5 -5.5z" />
    <glyph glyph-name="T" unicode="T" horiz-adv-x="583" 
d="M400 561l-78 -561h-148l78 561h-203l21 148h554l-21 -148h-203z" />
    <glyph glyph-name="U" unicode="U" horiz-adv-x="671" 
d="M194 217q0 -16 6 -29q9 -19 25.5 -31t39.5 -18t48 -6q24 0 48 6t43.5 18.5t33.5 31t17 43.5l67 476h148l-67 -476q-9 -61 -39.5 -106.5t-74 -75.5t-95.5 -45t-104 -15t-99.5 15.5t-82 45.5t-52.5 75q-12 32 -12 70q0 17 3 36l67 476h148l-67 -476q-1 -8 -1 -15z" />
    <glyph glyph-name="V" unicode="V" horiz-adv-x="643" 
d="M548 708h157l-355 -707h-142l-157 707h157l79 -392l8 -146h11l48 146z" />
    <glyph glyph-name="W" unicode="W" horiz-adv-x="920" 
d="M59 708h152l49 -370l-1 -165h9l47 166l128 271h119l48 -273l5 -171h9l43 171l155 371h151l-303 -708h-144l-53 273l-4 85h-8q-8 -24 -15 -43q-6 -17 -11 -31l-5 -12l-121 -272h-144z" />
    <glyph glyph-name="X" unicode="X" horiz-adv-x="632" 
d="M411 0l-107 250l-166 -250h-181l258 353l-157 355h179l96 -252l178 252h179l-274 -356l175 -352h-180z" />
    <glyph glyph-name="Y" unicode="Y" horiz-adv-x="627" 
d="M197 0l38 271l-185 437h169l108 -296l192 296h171l-308 -437l-38 -271h-147z" />
    <glyph glyph-name="Z" unicode="Z" horiz-adv-x="594" 
d="M590 708l32 -67l-425 -508h339l-18 -133h-510l-25 67l424 508h-334l18 133h499z" />
    <glyph glyph-name="bracketleft" unicode="[" horiz-adv-x="310" 
d="M158 26h75l-19 -135h-217l116 822h217l-19 -136h-75z" />
    <glyph glyph-name="backslash" unicode="\" horiz-adv-x="479" 
d="M78 715l140 47l196 -774l-140 -45z" />
    <glyph glyph-name="bracketright" unicode="]" horiz-adv-x="307" 
d="M148 581h-73l19 133h216l-116 -822h-215l19 132h72z" />
    <glyph glyph-name="asciicircum" unicode="^" horiz-adv-x="615" 
d="M601 394h-167l-97 144l-134 -144h-161l276 299h85z" />
    <glyph glyph-name="underscore" unicode="_" horiz-adv-x="600" 
d="M490 -131h-502l20 139h502z" />
    <glyph glyph-name="grave" unicode="`" horiz-adv-x="257" 
d="M33 906h171l71 -150h-139z" />
    <glyph glyph-name="a" unicode="a" 
d="M183 -10q-35 0 -67 11.5t-55 34.5t-34 56q-7 22 -7 48q0 14 2 30l24 170q7 52 30.5 88t57.5 58.5t75 32t83 9.5q48 0 98.5 -14.5t91.5 -36.5l-65 -477h-114l-12 42q-21 -25 -50.5 -38.5t-57.5 -13.5zM280 406q-17 0 -33 -4q-23 -6 -41 -21t-21 -40l-23 -164q-1 -5 -1 -9
q0 -23 17 -36q20 -15 47 -15q23 0 41 5.5t32 13.5l36 257q-16 10 -40 13h-14z" />
    <glyph glyph-name="b" unicode="b" 
d="M478 378q0 -12 -2 -26l-25 -185q-11 -50 -34.5 -84t-55.5 -54.5t-70.5 -29.5t-79.5 -9q-49 0 -100.5 10.5t-96.5 28.5l96 678h140l-29 -197q43 18 89 18q36 -1 68.5 -13t56 -34.5t35.5 -54.5q8 -22 8 -48zM215 91q18 0 36 5q22 6 39 20.5t21 37.5l27 199q1 22 -13 35.5
t-34 19.5q-13 3 -27 3q-8 0 -16 -1q-24 -3 -42 -12l-40 -296q16 -9 40 -10q4 -1 9 -1z" />
    <glyph glyph-name="c" unicode="c" horiz-adv-x="466" 
d="M204 -10q-39 0 -74.5 11.5t-62 34t-39.5 56.5q-9 24 -9 53q0 13 2 28l24 171q6 46 29 80.5t55.5 57.5t71.5 34.5t78 11.5q28 0 57 -7t54 -23.5t42.5 -43t22.5 -66.5l-124 -40q-5 27 -24 39.5t-43 12.5q-27 0 -51.5 -15t-28.5 -43l-23 -166q-1 -5 -1 -9q0 -22 16 -35
q19 -16 45 -16q24 0 49 13.5t39 43.5l116 -42q-19 -39 -45.5 -66t-56 -43.5t-60.5 -24t-59 -7.5z" />
    <glyph glyph-name="d" unicode="d" horiz-adv-x="511" 
d="M20 135q0 16 2 34l25 183q6 46 27 79.5t51 54.5t66 31.5t72 10.5q46 0 84 -18l28 197h140l-96 -678q-50 -18 -104 -28.5t-103 -10.5q-41 0 -78.5 8t-64.5 28.5t-41 55.5q-8 22 -8 53zM279 417q-15 0 -30.5 -4t-28.5 -12.5t-22.5 -22t-12.5 -31.5l-26 -176q-1 -8 -1 -15
q0 -12 4 -22q5 -15 16 -24t27 -13t33 -4q28 0 52 11l42 300q-11 6 -23.5 9.5t-29.5 3.5z" />
    <glyph glyph-name="e" unicode="e" horiz-adv-x="478" 
d="M202 -10q-38 0 -73.5 11.5t-61.5 35t-39 57.5q-9 24 -9 53q0 13 2 28l23 162q7 47 29.5 83t55 60t71.5 36t78 12t74.5 -12t60.5 -36t37 -59q9 -22 9 -49q0 -15 -3 -32q-8 -54 -40.5 -88.5t-76.5 -51.5q-43 -16 -89 -16h-3q-48 1 -86 16l-4 -25q-2 -16 3 -27.5t15.5 -19.5
t25 -12t30.5 -4q28 0 56 11t45 31l79 -57q-48 -59 -103 -83t-106 -24zM244 286q27 0 52.5 14.5t28.5 40.5q1 5 1 9q0 10 -4 18q-5 12 -14.5 19t-21.5 10.5t-25 3.5q-27 0 -52 -17.5t-29 -45.5l-6 -41q33 -11 70 -11z" />
    <glyph glyph-name="f" unicode="f" horiz-adv-x="306" 
d="M306 716q20 0 41 -3l-20 -137q-13 2 -24 2t-20 -2q-19 -4 -32 -13t-20.5 -22t-9.5 -26l-3 -24h92l-17 -125h-92l-52 -365q-8 -51 -39.5 -93t-91.5 -76l-55 88q32 23 39 45t9 36l72 514q7 53 29.5 93t57 65.5t79.5 36.5q27 6 57 6z" />
    <glyph glyph-name="g" unicode="g" horiz-adv-x="505" 
d="M169 -207q-54 0 -103 21.5t-79 63.5l81 73q15 -17 41 -26t53 -9q39 0 68.5 19t37.5 68q-21 -6 -41.5 -9.5t-40.5 -3.5q-37 0 -70 10.5t-56 31.5t-34 52q-8 21 -8 46q0 14 2 28l29 196q7 48 29.5 81t55.5 54t73 30t82 9h8q49 0 95 -12q49 -12 87 -32l-69 -476
q-10 -63 -33 -104t-55.5 -66t-71.5 -35t-81 -10zM278 422q-36 0 -63 -16t-32 -49l-28 -190q-1 -6 -1 -12q0 -26 18 -38q22 -15 57 -15q31 0 57 13l43 297q-21 10 -51 10z" />
    <glyph glyph-name="h" unicode="h" horiz-adv-x="517" 
d="M309 528q37 0 69.5 -12t55.5 -35t34 -58q7 -23 7 -50q0 -15 -2 -31l-48 -342h-138l48 343q2 16 -3 27t-15 18t-24 10.5t-29 3.5q-34 0 -59 -14l-55 -388h-139l99 708h139l-27 -196q42 16 87 16z" />
    <glyph glyph-name="i" unicode="i" horiz-adv-x="246" 
d="M180 727q38 0 58 -24q15 -19 15 -45q0 -7 -1 -14q-5 -35 -31.5 -59.5t-64.5 -24.5q-17 0 -31 6.5t-23.5 18t-13.5 26.5q-3 10 -3 21q0 6 1 12q3 18 11.5 33t21 26t28.5 17.5t33 6.5zM150 0h-142l72 517h142z" />
    <glyph glyph-name="j" unicode="j" horiz-adv-x="247" 
d="M182 727q35 0 56 -24q17 -19 17 -47q0 -6 -1 -13q-3 -17 -11.5 -32.5t-21.5 -26.5t-29 -17.5t-34 -6.5q-35 0 -56 24q-16 19 -16 46q0 6 1 13q3 18 11.5 33.5t21.5 26.5t29 17.5t33 6.5zM-57 -76q16 0 27 4q14 6 22.5 16.5t12 23t5.5 23.5l74 528h139l-74 -528
q-6 -42 -23 -79t-46 -61.5t-70 -34.5q-19 -5 -41 -5q-24 0 -52 6l15 107h11z" />
    <glyph glyph-name="k" unicode="k" horiz-adv-x="508" 
d="M372 518h162l-241 -250q40 -65 85.5 -135t84.5 -133h-161l-117 189l-10 -8l-25 -181h-139l99 707h139l-54 -385z" />
    <glyph glyph-name="l" unicode="l" horiz-adv-x="277" 
d="M184 -12q-30 0 -54 8q-40 13 -64 40t-32 66q-5 22 -5 45q0 17 3 35l75 526h139l-75 -526q-1 -6 -1 -12q0 -22 14 -38q18 -21 61 -21l-17 -119q-24 -4 -44 -4z" />
    <glyph glyph-name="m" unicode="m" horiz-adv-x="753" 
d="M269 528q19 0 38.5 -2.5t37.5 -10t32 -20t22 -32.5q29 34 67.5 49.5t75.5 15.5q36 0 69 -11t57 -33t36 -56q8 -22 8 -49q0 -13 -2 -28l-49 -351h-138l49 354q1 4 1 8q0 17 -15 26q-18 12 -41 12t-43.5 -11.5t-23.5 -33.5l-50 -355h-133l49 351v6q0 19 -16 29
q-18 13 -44 14q-15 0 -30.5 -4.5t-26.5 -15.5l-53 -380h-136l65 464q38 29 91 46.5t103 17.5z" />
    <glyph glyph-name="n" unicode="n" horiz-adv-x="515" 
d="M272 528q44 0 83 -10.5t67.5 -33t41.5 -58.5q9 -24 9 -54q0 -16 -2 -33l-48 -339h-138l46 331q1 7 1 13q0 25 -18 39q-21 17 -51 17q-32 0 -60 -14l-54 -386h-139l68 483q46 21 96 33t98 12z" />
    <glyph glyph-name="o" unicode="o" horiz-adv-x="494" 
d="M279 528q39 0 74.5 -12t61 -35t38.5 -57q9 -24 9 -53q0 -13 -2 -28l-24 -169q-7 -47 -29.5 -81.5t-55 -57t-71 -34t-77.5 -11.5t-74.5 11.5t-62 34t-39.5 56.5q-8 23 -8 51q0 15 2 31l24 169q6 46 29 80.5t55.5 57.5t71.5 35t78 12zM260 400q-25 0 -48.5 -13t-27.5 -38
l-24 -176q-1 -4 -1 -7q0 -8 3 -16q5 -10 14 -17.5t21 -11.5t24 -4t24.5 4t23.5 11.5t18.5 18t9.5 22.5l24 176q1 3 1 7q0 8 -4 14q-5 10 -14 16.5t-20.5 10t-23.5 3.5z" />
    <glyph glyph-name="p" unicode="p" 
d="M285 528q41 0 77 -9t62 -30t40 -55q12 -29 12 -68q0 -8 -1 -17l-24 -184q-6 -43 -24.5 -76t-48.5 -55t-69.5 -33t-85.5 -11q-38 0 -72 17l-28 -197h-139l93 679q51 18 105 28.5t103 10.5zM216 96q38 0 64.5 16.5t31.5 52.5l26 197v7q0 27 -20 41q-24 15 -54 15
q-15 0 -29.5 -2.5t-27.5 -8.5l-41 -306q19 -12 50 -12z" />
    <glyph glyph-name="q" unicode="q" horiz-adv-x="509" 
d="M188 -10q-41 0 -74.5 12t-56 34.5t-33.5 55.5q-6 20 -6 45q0 14 2 29l25 184q11 50 34.5 84.5t55.5 55.5t70.5 30t79.5 9q49 0 100 -10.5t96 -28.5l-95 -680h-140l28 198q-42 -18 -86 -18zM281 426q-16 0 -32 -4t-29.5 -11.5t-22.5 -19.5t-11 -28l-27 -196q-1 -6 -1 -12
q0 -27 20 -41q24 -17 56 -17q31 0 55 12l42 306q-22 11 -50 11z" />
    <glyph glyph-name="r" unicode="r" horiz-adv-x="339" 
d="M281 528q15 0 36 -3t38 -8l-16 -118q-21 6 -45 7q-4 1 -9 1q-19 0 -36 -5q-21 -7 -36.5 -22.5t-19.5 -42.5l-47 -337h-139l48 342q6 46 26.5 81t50.5 58t68.5 35t80.5 12z" />
    <glyph glyph-name="s" unicode="s" horiz-adv-x="424" 
d="M187.5 112q10.5 0 20.5 2q18 5 24 19q5 13 5 23t-3 18q-8 17 -43 25q-47 10 -77 30.5t-46 47t-19 57.5q-1 9 -1 18q0 21 5 42q14 60 64 96.5t128 37.5h6q33 0 73 -10q44 -12 79 -44l-83 -95q-10 11 -29.5 19.5t-40.5 10.5h-9q-16 0 -29 -5q-18 -8 -23 -29q-1 -6 -1 -12
q0 -15 9 -26q13 -15 51 -25q24 -6 49 -18t44.5 -31t29.5 -47q7 -20 7 -43q0 -12 -2 -25q-6 -42 -24 -72t-46 -49t-64 -28t-77 -9q-54 0 -99 19.5t-75 68.5l79 90q20 -22 45.5 -35.5t49.5 -18.5q12 -2 22.5 -2z" />
    <glyph glyph-name="t" unicode="t" horiz-adv-x="317" 
d="M166 -9q-36 0 -63.5 12t-45.5 36t-25 59q-3 18 -3 37q0 22 4 46l65 462h126l-7 -125h94l-17 -125h-94l-29 -211q-1 -10 -1 -18q0 -31 20 -47q17 -13 46 -13q15 0 32 3l-15 -101q-48 -15 -87 -15z" />
    <glyph glyph-name="u" unicode="u" horiz-adv-x="517" 
d="M218 -10q-42 0 -79.5 9.5t-63.5 31.5t-39 59q-7 22 -7 51q0 18 3 39l48 338h139l-45 -324q-1 -5 -1 -10q0 -29 22 -46q25 -21 61 -21q11 0 22.5 1.5t22.5 5.5l55 394h138l-69 -490q-46 -16 -100 -27t-107 -11z" />
    <glyph glyph-name="v" unicode="v" horiz-adv-x="501" 
d="M381 518h149l-257 -518h-131l-112 518h148l42 -260l6 -135h2l39 136z" />
    <glyph glyph-name="w" unicode="w" horiz-adv-x="697" 
d="M248 0h-126l-89 518h137l26 -219l3 -125h1l31 126l96 218h101l34 -217l-3 -127h1l38 126l83 218h139l-228 -518h-127l-17 187l4 141h-3l-34 -141z" />
    <glyph glyph-name="x" unicode="x" horiz-adv-x="519" 
d="M471 0h-165l-52 108l-13 53h-7l-31 -55l-81 -106h-157l204 259l-132 259h157l56 -118l12 -49h6l25 49l85 118h163l-208 -258z" />
    <glyph glyph-name="y" unicode="y" horiz-adv-x="515" 
d="M179 -207q-54 0 -103 21.5t-79 63.5l81 73q15 -17 41 -26t53 -9q39 0 68.5 18.5t37.5 67.5q-21 -6 -42.5 -9.5t-41.5 -3.5q-37 0 -69.5 10.5t-56 31.5t-34.5 53q-7 20 -7 45q0 13 2 28l51 361h134l-49 -343q-2 -15 3 -25.5t15.5 -17.5t24.5 -11t29 -4q16 0 31.5 3
t28.5 10l55 388h140l-72 -510q-10 -63 -33 -104t-55.5 -66t-71.5 -35t-81 -10z" />
    <glyph glyph-name="z" unicode="z" horiz-adv-x="450" 
d="M413 518l34 -49l-265 -352h209l-16 -117h-359l-32 50l264 351h-196l14 117h347z" />
    <glyph glyph-name="braceleft" unicode="{" horiz-adv-x="333" 
d="M215 204q0 -14 -2 -30l-19 -135q-1 -13 -6 -15h68l-19 -132h-76q-39 0 -62.5 10t-35.5 29t-14 46q-1 8 -1 16q0 20 4 44l17 120q2 15 1 29.5t-6 25.5t-15 17.5t-27 6.5l18 133q34 0 49.5 24.5t19.5 54.5l17 120q5 33 15.5 60t29.5 46t47 29.5t68 10.5h67l-19 -133h-64
l-2 -18l-19 -132q-3 -20 -10.5 -39.5t-19.5 -37t-27 -31.5t-31 -21q38 -17 48 -52q6 -21 6 -46z" />
    <glyph glyph-name="bar" unicode="|" horiz-adv-x="249" 
d="M-8 -146l121 858h139l-121 -858h-139z" />
    <glyph glyph-name="braceright" unicode="}" horiz-adv-x="326" 
d="M150 714q48 0 75 -10.5t39 -29.5q13 -20 13 -51q0 -25 -5 -55l-17 -120q-2 -15 -1.5 -29t6 -25.5t15.5 -18t28 -6.5l-18 -133q-35 0 -50.5 -24t-19.5 -55l-17 -120q-5 -33 -15 -60t-28.5 -46t-48 -29t-74.5 -10h-50l19 132h49q5 0 7 15l19 135q5 40 26.5 76t63.5 53
q-27 19 -44 54q-12 26 -12 53q0 11 2 21l19 132q2 18 -1 18h-52l19 133h53z" />
    <glyph glyph-name="asciitilde" unicode="~" horiz-adv-x="485" 
d="M290 199q-28 0 -50 11.5t-39 28.5q-19 19 -38 19h-3q-21 -2 -52 -36l-77 73q16 19 33.5 36.5t37 31t40 21.5t43.5 8q35 0 59.5 -15.5t41.5 -30.5t34 -15q6 0 11 1q22 7 51 39l69 -66q-31 -44 -71 -75t-90 -31z" />
    <glyph glyph-name="uni00A0" unicode="&#xa0;" horiz-adv-x="196" 
 />
    <glyph glyph-name="exclamdown" unicode="&#xa1;" horiz-adv-x="249" 
d="M132 355q-37 0 -58 25q-18 21 -18 49q0 6 1 13q3 18 11.5 33.5t22 27.5t30.5 18.5t35 6.5q36 0 57 -25q17 -20 17 -48q0 -6 -1 -13q-3 -18 -11.5 -34t-21.5 -27.5t-29.5 -18.5t-34.5 -7zM125 -190h-142l72 517h142z" />
    <glyph glyph-name="cent" unicode="&#xa2;" horiz-adv-x="473" 
d="M18 148q0 14 2 29l23 163q6 40 24.5 72t45.5 54.5t59.5 36t67.5 18.5l6 48h90l-7 -51q22 -5 43 -15.5t38 -26.5t28.5 -39t14.5 -53l-124 -37q-5 24 -19 35l-35 -247q21 15 33 40l116 -40q-15 -30 -34 -53t-41 -39.5t-45.5 -27t-46.5 -15.5l-8 -53h-90l7 50
q-33 4 -62 17.5t-49.5 36t-30.5 53.5q-6 20 -6 44zM159 168q0 -12 5 -20q7 -13 20 -21l37 263q-15 -8 -25.5 -20t-13.5 -29l-22 -163q-1 -5 -1 -10z" />
    <glyph glyph-name="sterling" unicode="&#xa3;" horiz-adv-x="526" 
d="M394 718q42 0 80.5 -20t66.5 -68l-91 -75q-17 24 -41 31q-11 3 -22 3q-13 0 -25 -5q-24 -7 -42.5 -27t-25.5 -50l-12 -78h134l-19 -132h-134l-22 -162h224l-18 -135h-450l18 135h85l22 162h-85l19 132h85l11 73q5 34 21 72.5t44.5 70t72 52.5t104.5 21z" />
    <glyph glyph-name="currency" unicode="&#xa4;" horiz-adv-x="612" 
d="M56 298q0 19 3 39q5 34 18 66t32 58l-1 2l-42 46l106 100l47 -54q30 17 60 24t65 7q66 0 118 -32l62 54l77 -99l-57 -49q14 -28 18 -58q1 -13 1 -26q0 -19 -3 -39q-5 -35 -18 -66.5t-33 -58.5l2 -2v1l42 -46l-105 -99l-47 54q-31 -17 -61.5 -24.5t-65.5 -7.5
q-31 0 -61.5 7.5t-56.5 23.5l-4 -5l-56 -47l-77 97l54 49q-17 40 -17 85zM195 321q0 -15 4 -29q6 -20 19 -35.5t32.5 -24.5t42.5 -9t44.5 9t39 24.5t29.5 36t15 43.5q1 8 1 16q0 15 -4 29q-6 21 -19 36.5t-32 24.5t-42 9t-45 -9t-39.5 -24.5t-29.5 -36.5t-15 -45
q-1 -8 -1 -15z" />
    <glyph glyph-name="yen" unicode="&#xa5;" horiz-adv-x="683" 
d="M408 272v-1l-6 -37h127l-32 -98h-108l-19 -136h-147l19 136h-126l33 98h106l6 37l-1 1h-125l34 100h49l-142 336h169l108 -296l192 296h171l-237 -336h70l-34 -100h-107z" />
    <glyph glyph-name="brokenbar" unicode="&#xa6;" horiz-adv-x="254" 
d="M60 324l49 348h140l-49 -348h-140zM-2 -119l53 381h140l-53 -381h-140z" />
    <glyph glyph-name="section" unicode="&#xa7;" horiz-adv-x="477" 
d="M40 294q0 11 2 23q5 38 26.5 66.5t61.5 44.5q-26 18 -34 45q-6 20 -6 39q0 7 1 14q6 42 27 75.5t51.5 56.5t67 35t73.5 12q49 0 87 -23t64 -83l-109 -54q-11 24 -30 31q-11 4 -22 4q-8 0 -15 -2q-19 -4 -34 -18q-18 -18 -18 -39q0 -18 21 -33q25 -17 59 -34
q25 -12 50 -26.5t44 -33.5t29 -45q7 -17 7 -39q0 -10 -2 -22q-5 -31 -25.5 -59t-52.5 -45q26 -32 33 -66q4 -17 4 -33q0 -18 -4 -35q-8 -32 -28.5 -61.5t-50 -51t-65.5 -34.5t-74 -13q-30 0 -59 9t-53.5 26.5t-44 43.5t-30.5 61l115 59q15 -40 42 -53q6 -2 14.5 -4.5t15 -4
t12.5 -2.5t7 -1q21 0 40 12t22 35q2 12 -4.5 22.5t-18.5 20t-28.5 18t-33.5 17.5q-26 12 -52 26t-45.5 33t-29.5 46q-7 17 -7 40zM316 282q0 4 -2 8q-3 12 -16 23t-29 19v1l-48 30q-18 -8 -34 -19q-18 -13 -18 -27q0 -13 9 -21q12 -11 26 -19l75 -38q24 13 31 26q6 9 6 17z
" />
    <glyph glyph-name="dieresis" unicode="&#xa8;" horiz-adv-x="393" 
d="M167 911q33 0 53 -23q16 -18 16 -44q0 -7 -1 -14q-2 -17 -10.5 -31t-20.5 -25t-27.5 -17t-31.5 -6q-35 0 -55 23q-16 18 -16 43q0 6 1 13q5 35 31.5 58t60.5 23zM389 911q36 0 57 -25q18 -20 18 -48q0 -6 -1 -13q-5 -37 -33.5 -62t-64.5 -25t-57 25q-17 20 -17 48
q0 7 1 14q5 36 33 61t64 25z" />
    <glyph glyph-name="copyright" unicode="&#xa9;" horiz-adv-x="785" 
d="M450 710q74 0 135 -28.5t103 -77t61 -114.5q12 -42 12 -89q0 -24 -3 -50q-11 -74 -48.5 -139.5t-93 -114.5t-124.5 -77t-143 -28t-135.5 28t-103.5 77t-62 115q-12 41 -12 87q0 25 4 52q10 74 48 139.5t93.5 114t125 77t143.5 28.5zM140 312q0 -31 8 -61q14 -47 44 -82
t74 -55t98 -20q53 0 102 20t88.5 55t66 82t34.5 100q2 19 2 37q0 33 -8 64q-13 46 -43 80.5t-73.5 54.5t-96.5 20q-54 0 -103.5 -20t-89 -54.5t-66.5 -81t-34 -100.5q-3 -20 -3 -39zM431 570q28 0 56.5 -7t52.5 -22t40.5 -39t21.5 -59l-99 -36q-5 34 -31 49q-25 14 -52 14
h-6q-31 -2 -59 -18.5t-36 -46.5l-15 -113q-1 -30 22 -46.5t54 -17.5q2 -1 5 -1q28 0 55 14q31 15 46 49l91 -36q-15 -35 -38.5 -59t-52 -39t-59.5 -22t-59 -7q-36 0 -69 10t-57 30.5t-36 52.5q-8 20 -8 46q0 13 2 27l15 111q6 42 27 73.5t51 52t66 30.5t72 10z" />
    <glyph glyph-name="ordfeminine" unicode="&#xaa;" horiz-adv-x="383" 
d="M245 702q14 0 29 -2q46 -8 76 -42q23 -26 23 -67q0 -12 -2 -24l-33 -233q-50 -13 -104 -19q-20 -2 -39 -2q-30 0 -57 5q-42 10 -66 40q-19 23 -19 61q0 13 2 27q6 44 30 70.5t55 38.5t64 12t58 -8v5q0 16 -11 25q-13 10 -33 11q-4 1 -7 1q-17 0 -35 -6q-23 -7 -40 -21
l-49 52q36 45 88 64q36 12 70 12zM214 476q-10 0 -19 -2q-12 -3 -21 -11t-11 -20v-7q0 -11 5 -18q6 -9 16 -13t21 -4q2 0 3 1q14 0 25 3l10 66q-10 4 -23 5h-6z" />
    <glyph glyph-name="guillemotleft" unicode="&#xab;" horiz-adv-x="560" 
d="M547 446l-130 -159l6 -9q7 -14 28.5 -51.5t52.5 -94.5l-132 -73l-121 230l185 229zM318 446l-129 -156q20 -38 42.5 -81.5t42.5 -78.5l-130 -71l-121 230l186 229z" />
    <glyph glyph-name="logicalnot" unicode="&#xac;" horiz-adv-x="583" 
d="M60 421h485l-40 -282h-139l20 143h-346z" />
    <glyph glyph-name="uni00AD" unicode="&#xad;" horiz-adv-x="404" 
d="M331 175h-295l20 141h295z" />
    <glyph glyph-name="registered" unicode="&#xae;" horiz-adv-x="785" 
d="M450 710q74 0 135 -28.5t103 -77t61 -114.5q12 -42 12 -89q0 -24 -3 -50q-11 -74 -48.5 -139.5t-93 -114.5t-124.5 -77t-143 -28t-135.5 28t-103.5 77t-62 115q-12 41 -12 87q0 25 4 52q10 74 48 139.5t93.5 114t125 77t143.5 28.5zM144 313q0 -32 8 -61q14 -46 44 -81
t73.5 -55t96.5 -20q52 0 101 20t88 55t65.5 81t34.5 99q2 19 2 36q0 33 -8 63q-13 46 -42.5 80.5t-73 54.5t-95.5 20q-53 0 -102 -20t-88.5 -54.5t-66.5 -80.5t-34 -99q-3 -20 -3 -38zM441 527q40 0 66.5 -14t40 -36.5t14.5 -49.5v-5q0 -24 -8 -48q-10 -26 -30.5 -48
t-50.5 -33l68 -124h-116l-61 117h-21l-17 -117h-98l51 358h162zM415 366q20 0 31 12q14 14 14 30q0 12 -8 22q-8 12 -27 12h-60l-11 -76h61z" />
    <glyph glyph-name="macron" unicode="&#xaf;" horiz-adv-x="321" 
d="M73 771l16 117h309l-16 -117h-309z" />
    <glyph glyph-name="degree" unicode="&#xb0;" horiz-adv-x="372" 
d="M198 398q-33 0 -59.5 12.5t-45 33.5t-26.5 50q-5 17 -5 36q0 12 2 25q4 33 20.5 61.5t40.5 49.5t54 33t63 12q32 0 59 -12t45.5 -33t26.5 -50q5 -18 5 -39q0 -11 -1 -22q-5 -32 -21.5 -60.5t-41 -50t-54.5 -34t-62 -12.5zM214 507q20 0 36 13.5t18 33.5q1 4 1 8
q0 15 -10 26q-12 15 -32 15t-36 -14.5t-19 -34.5v-6q0 -16 10 -28q12 -13 32 -13z" />
    <glyph glyph-name="plusminus" unicode="&#xb1;" horiz-adv-x="540" 
d="M244 624h140l-20 -143h153l-20 -140h-153l-20 -142h-140l20 142h-150l20 140h150zM454 28h-445l20 139h445z" />
    <glyph glyph-name="twosuperior" unicode="&#xb2;" horiz-adv-x="408" 
d="M251 718q37 0 65.5 -12.5t46.5 -33.5t25 -48q4 -18 4 -37q0 -10 -1 -21q-5 -31 -19.5 -59t-48.5 -54l-67 -56h119l-18 -131h-301l-17 76l179 176q26 25 28 43.5t-10 24.5q-5 3 -12 3q-9 0 -20 -5q-21 -7 -39 -32l-81 79q37 48 79 67.5t88 19.5z" />
    <glyph glyph-name="threesuperior" unicode="&#xb3;" horiz-adv-x="375" 
d="M219 543q11 0 18 9t7.5 19.5t-6.5 19.5t-23 8t-31 -8t-23 -17l-67 64q35 32 64 51t69 19q43 0 76.5 -19.5t48.5 -49.5q10 -19 10 -41q0 -12 -4 -26q-8 -36 -48 -70q29 -14 40 -37q11 -20 11 -43q0 -3 -1 -6q-1 -25 -14 -51t-34 -47q-34 -33 -77 -46q-31 -9 -61 -9
q-11 0 -22 1q-41 5 -74 28t-47 63l99 57q6 -16 22 -23q13 -6 27 -6h5q16 1 29.5 10t15.5 25q1 8 -5 17.5t-18 7.5h-51l14 100h50z" />
    <glyph glyph-name="acute" unicode="&#xb4;" horiz-adv-x="262" 
d="M196 756h-148l110 150h181z" />
    <glyph glyph-name="mu" unicode="&#xb5;" horiz-adv-x="519" 
d="M217 -10q-21 0 -38 10q-18 11 -26 35l-31 -225h-140l98 708h142l-44 -316q-1 -8 -1 -16q0 -26 14 -40q17 -17 42 -17l1 1q25 0 48.5 18t28.5 52l44 318h142l-71 -518l-124 1l-6 32q-14 -20 -35 -31t-43 -12h-1z" />
    <glyph glyph-name="paragraph" unicode="&#xb6;" horiz-adv-x="649" 
d="M45 436q0 17 2 35q6 45 27 87.5t56.5 75.5t84 53.5t109.5 20.5h321l-112 -798h-141l93 666h-60l-93 -666h-142l46 325q-54 3 -93 24.5t-62 54t-31 73.5q-5 24 -5 49z" />
    <glyph glyph-name="periodcentered" unicode="&#xb7;" horiz-adv-x="250" 
d="M138 394q36 0 58 -25q17 -20 17 -48q0 -6 -1 -13q-5 -37 -33.5 -62t-64.5 -25t-57 25q-17 20 -17 48q0 7 1 14q5 36 33 61t64 25z" />
    <glyph glyph-name="cedilla" unicode="&#xb8;" horiz-adv-x="251" 
d="M212 -127q0 -13 -4 -28q-7 -26 -25.5 -48t-48.5 -36.5t-70 -14.5q-30 0 -66.5 11.5t-63.5 37.5l41 75q19 -14 38.5 -20t33.5 -6q21 0 30.5 11.5t6 24t-21.5 22.5q-15 8 -38 8q-7 0 -15 -1l72 121h95l-44 -74q33 -4 52.5 -21t25.5 -41q2 -10 2 -21z" />
    <glyph glyph-name="onesuperior" unicode="&#xb9;" horiz-adv-x="300" 
d="M49 570l145 137h107l-62 -441h-134l37 262l-53 -28z" />
    <glyph glyph-name="ordmasculine" unicode="&#xba;" horiz-adv-x="421" 
d="M209 298q-32 0 -61.5 9.5t-51 28t-32.5 46.5q-8 19 -8 43q0 10 2 22l17 120q5 37 24 65t46 47t59 28t64 9q31 0 60.5 -9t51.5 -28t33 -47q8 -19 8 -43q0 -10 -2 -22l-17 -120q-5 -37 -24 -65t-46 -46.5t-59.5 -28t-63.5 -9.5zM193 442q0 -13 9 -20q10 -9 23.5 -9t26 8
t15.5 26l17 119v6q0 13 -8 20q-10 9 -24 9t-26.5 -8.5t-15.5 -25.5l-17 -120v-5z" />
    <glyph glyph-name="guillemotright" unicode="&#xbb;" horiz-adv-x="555" 
d="M6 130l131 158l-85 158l129 72l122 -229l-185 -229zM233 132l129 159q-19 37 -42 79t-42 78l130 72l121 -229l-184 -229z" />
    <glyph glyph-name="onequarter" unicode="&#xbc;" horiz-adv-x="833" 
d="M785 468l-37 -264h36l-16 -117h-36l-12 -87h-134l12 87h-161l-46 90l281 291h113zM626 200l15 93l-4 1l-95 -94h84zM60 576l145 137h107l-62 -441h-134l37 262l-53 -28zM189 -45l-106 71l520 693l106 -70z" />
    <glyph glyph-name="onehalf" unicode="&#xbd;" horiz-adv-x="860" 
d="M679 437q37 0 65.5 -12.5t46.5 -33.5t25 -48q4 -18 4 -37q0 -10 -1 -21q-5 -31 -19.5 -59t-48.5 -54l-67 -56h119l-18 -131h-301l-17 76l179 176q26 25 28 43.5t-10 24.5q-5 3 -12 3q-9 0 -20 -5q-21 -7 -39 -32l-81 79q37 48 79 67.5t88 19.5zM60 576l145 137h107
l-62 -441h-134l37 262l-53 -28zM195 -45l-106 71l520 693l106 -70z" />
    <glyph glyph-name="threequarters" unicode="&#xbe;" horiz-adv-x="863" 
d="M228 541q13 0 20 10.5t6 22.5q0 10 -7.5 18t-23.5 7q-17 -1 -32.5 -8.5t-24.5 -17.5l-71 66q36 33 67.5 52t72.5 20h4q43 0 77 -19q35 -20 50 -52q11 -20 11 -43q0 -12 -3 -25q-9 -38 -52 -73q30 -15 42 -39q12 -20 12 -44v-6q-2 -26 -15.5 -52.5t-35.5 -47.5
q-36 -34 -81 -48q-32 -10 -63 -10q-13 0 -25 2q-42 5 -76.5 28.5t-49.5 65.5l104 58q6 -17 22 -24q13 -6 27 -6h7q17 2 31 11t16 25v5q0 8 -6 14.5t-17 6.5h-54l15 103h53zM712 452h105l-36 -255h35l-16 -113h-35l-11 -84h-118l11 84h-163l-43 87zM586 193h81l14 90l-4 1z
M247 -45l-106 71l520 693l106 -70z" />
    <glyph glyph-name="questiondown" unicode="&#xbf;" horiz-adv-x="477" 
d="M187 -201q-68 0 -113 27.5t-67 69.5q-23 42 -23 91q0 52 23 99q23 45 68.5 79t113.5 44l26 113h121l-20 -207q-20 5 -36.5 6t-24.5 1q-35 0 -61 -15t-41 -37.5t-19 -47.5q-1 -8 -1 -16q0 -16 6 -31q9 -21 32 -34q18 -11 46 -11q7 0 14 1q23 2 47 14t45 36l79 -76
q-52 -57 -107.5 -81.5t-107.5 -24.5zM307 528q36 0 58 -25q17 -20 17 -48q0 -6 -1 -13q-5 -37 -33.5 -62t-64.5 -25t-57 25q-17 20 -17 48q0 7 1 14q5 36 33 61t64 25z" />
    <glyph glyph-name="Agrave" unicode="&#xc0;" horiz-adv-x="634" 
d="M219 906h171l71 -150h-139zM597 0h-154l-40 162h-211l-81 -162h-157l347 708h141zM248 297h136l-23 154l-6 101h-11l-34 -102z" />
    <glyph glyph-name="Aacute" unicode="&#xc1;" horiz-adv-x="634" 
d="M417 756h-148l110 150h181zM597 0h-154l-40 162h-211l-81 -162h-157l347 708h141zM248 297h136l-23 154l-6 101h-11l-34 -102z" />
    <glyph glyph-name="Acircumflex" unicode="&#xc2;" horiz-adv-x="634" 
d="M568 756h-128l-44 57l-60 -57h-140l158 150h113zM597 0h-154l-40 162h-211l-81 -162h-157l347 708h141zM248 297h136l-23 154l-6 101h-11l-34 -102z" />
    <glyph glyph-name="Atilde" unicode="&#xc3;" horiz-adv-x="634" 
d="M316 918q30 0 52.5 -12t40.5 -20q14 -6 27 -6h6q15 2 29 31l84 -46q-22 -59 -54.5 -84.5t-66.5 -25.5q-24 0 -47 13.5t-43 22.5q-15 6 -28 6q-5 0 -11 -1q-18 -4 -31 -38l-76 42q18 60 49 89t69 29zM597 0h-154l-40 162h-211l-81 -162h-157l347 708h141zM248 297h136
l-23 154l-6 101h-11l-34 -102z" />
    <glyph glyph-name="Adieresis" unicode="&#xc4;" horiz-adv-x="634" 
d="M290 911q33 0 53 -23q16 -18 16 -44q0 -7 -1 -14q-2 -17 -10.5 -31t-20.5 -25t-27.5 -17t-31.5 -6q-35 0 -55 23q-16 18 -16 43q0 6 1 13q5 35 31.5 58t60.5 23zM512 911q36 0 57 -25q18 -20 18 -48q0 -6 -1 -13q-5 -37 -33.5 -62t-64.5 -25t-57 25q-17 20 -17 48
q0 7 1 14q5 36 33 61t64 25zM597 0h-154l-40 162h-211l-81 -162h-157l347 708h141zM248 297h136l-23 154l-6 101h-11l-34 -102z" />
    <glyph glyph-name="Aring" unicode="&#xc5;" horiz-adv-x="634" 
d="M256 774q0 25 10 48q14 35 47.5 60t84.5 25t78.5 -26t33.5 -61q1 -9 1 -18q0 -26 -13 -54q-16 -37 -52 -58l151 -690h-154l-40 162h-211l-81 -162h-157l340 693q-29 22 -36 59q-2 11 -2 22zM390 838q-29 0 -44 -16q-18 -17 -18 -38q0 -16 11 -30q12 -15 39 -15t41.5 15.5
t16.5 33.5v6q0 15 -10 28q-11 16 -36 16zM361 451l-6 101h-11l-34 -102l-62 -153h136z" />
    <glyph glyph-name="AE" unicode="&#xc6;" horiz-adv-x="809" 
d="M562 560l-18 -133h214l-21 -147h-214l-19 -134h240l-20 -146h-377l28 204h-132l-122 -204h-176l462 708h416l-21 -148h-240zM403 345l25 174l-10 1l-94 -175h79z" />
    <glyph glyph-name="Ccedilla" unicode="&#xc7;" horiz-adv-x="583" 
d="M283 133q40 0 81 18.5t67 58.5l117 -71q-48 -63 -108.5 -99t-122.5 -46l-22 -38q33 -4 52.5 -21t24.5 -41q3 -10 3 -21q0 -13 -4 -28q-7 -26 -25.5 -48t-48.5 -36.5t-70 -14.5q-30 0 -66.5 11.5t-63.5 37.5l41 75q19 -14 38.5 -20t33.5 -6q21 0 30.5 11.5t6 24
t-22.5 22.5q-14 8 -37 8q-7 0 -15 -1l51 85q-44 6 -82 24t-65 47t-40 69q-8 26 -8 55q0 18 3 37l38 257q9 58 39 102t73 73.5t94.5 44.5t104.5 15q35 0 70 -9t65 -28t53.5 -47.5t36.5 -67.5l-128 -68q-15 39 -50 57.5t-74 18.5q-24 0 -47.5 -6.5t-42.5 -18.5t-32.5 -29.5
t-16.5 -40.5l-37 -253q-1 -7 -1 -13q0 -14 5 -27q7 -17 22 -29t36 -18t44 -6z" />
    <glyph glyph-name="Egrave" unicode="&#xc8;" horiz-adv-x="584" 
d="M206 906h171l71 -150h-139zM227 426h305l-20 -143h-305l-19 -140h332l-20 -143h-480l99 709h480l-20 -144h-332z" />
    <glyph glyph-name="Eacute" unicode="&#xc9;" horiz-adv-x="584" 
d="M404 756h-148l110 150h181zM227 426h305l-20 -143h-305l-19 -140h332l-20 -143h-480l99 709h480l-20 -144h-332z" />
    <glyph glyph-name="Ecircumflex" unicode="&#xca;" horiz-adv-x="584" 
d="M555 756h-128l-44 57l-60 -57h-140l158 150h113zM227 426h305l-20 -143h-305l-19 -140h332l-20 -143h-480l99 709h480l-20 -144h-332z" />
    <glyph glyph-name="Edieresis" unicode="&#xcb;" horiz-adv-x="584" 
d="M277 911q33 0 53 -23q16 -18 16 -44q0 -7 -1 -14q-2 -17 -10.5 -31t-20.5 -25t-27.5 -17t-31.5 -6q-35 0 -55 23q-16 18 -16 43q0 6 1 13q5 35 31.5 58t60.5 23zM499 911q36 0 57 -25q18 -20 18 -48q0 -6 -1 -13q-5 -37 -33.5 -62t-64.5 -25t-57 25q-17 20 -17 48
q0 7 1 14q5 36 33 61t64 25zM227 426h305l-20 -143h-305l-19 -140h332l-20 -143h-480l99 709h480l-20 -144h-332z" />
    <glyph glyph-name="Igrave" unicode="&#xcc;" horiz-adv-x="272" 
d="M40 906h171l71 -150h-139zM167 0h-147l99 708h147z" />
    <glyph glyph-name="Iacute" unicode="&#xcd;" horiz-adv-x="272" 
d="M238 756h-148l110 150h181zM167 0h-147l99 708h147z" />
    <glyph glyph-name="Icircumflex" unicode="&#xce;" horiz-adv-x="272" 
d="M389 756h-128l-44 57l-60 -57h-140l158 150h113zM167 0h-147l99 708h147z" />
    <glyph glyph-name="Idieresis" unicode="&#xcf;" horiz-adv-x="272" 
d="M323 908q36 0 58 -25q17 -20 17 -48q0 -6 -1 -13q-5 -37 -33.5 -62t-64.5 -25t-57 25q-17 20 -17 48q0 7 1 14q5 36 33 61t64 25zM121 908q36 0 58 -25q17 -20 17 -48q0 -6 -1 -13q-5 -37 -33.5 -62t-64.5 -25t-57 25q-17 20 -17 48q0 7 1 14q5 36 33 61t64 25zM167 0
h-147l99 708h147z" />
    <glyph glyph-name="Eth" unicode="&#xd0;" horiz-adv-x="654" 
d="M417 708q52 0 95.5 -13t73 -40.5t42.5 -70.5q8 -25 8 -57q0 -21 -4 -46l-36 -255q-8 -60 -33 -102.5t-62 -70t-84 -40.5t-99 -13h-282l40 286h-66l18 128h66l41 294h282zM338 148q48 0 76.5 17.5t34.5 60.5l36 255q1 9 1 17q0 31 -18 44q-24 18 -72 18h-134l-20 -146h128
l-18 -128h-128l-20 -138h134z" />
    <glyph glyph-name="Ntilde" unicode="&#xd1;" horiz-adv-x="680" 
d="M340 918q30 0 52.5 -12t40.5 -20q14 -6 27 -6h6q15 2 29 31l84 -46q-22 -59 -54.5 -84.5t-66.5 -25.5q-24 0 -47 13.5t-43 22.5q-15 6 -28 6q-5 0 -11 -1q-18 -4 -31 -38l-76 42q18 60 49 89t69 29zM527 708h147l-99 -708h-157l-164 372l-30 96h-4l-4 -123l-48 -345h-148
l99 708h145l170 -386l35 -126h3l4 150z" />
    <glyph glyph-name="Ograve" unicode="&#xd2;" horiz-adv-x="668" 
d="M243 915h171l71 -150h-139zM389 717h7q54 -1 103 -16t84.5 -44.5t54.5 -73.5q12 -31 12 -68q0 -16 -2 -34l-35 -255q-8 -59 -39.5 -103.5t-77 -74t-100 -44t-109.5 -14.5q-54 0 -103 15t-85.5 44.5t-54.5 73.5q-13 31 -13 69q0 16 2 34l35 255q8 60 39.5 104.5t77.5 74
t101 44.5q51 13 103 13zM176 211q0 -16 8 -29q9 -16 27.5 -27t43.5 -16.5t52 -5.5t53.5 5.5t48.5 17t37 28t18 38.5l39 263q1 6 1 11q0 16 -8 29q-9 17 -27.5 28t-43 16.5t-51.5 5.5t-54 -5.5t-49 -17t-37 -28.5t-18 -39l-39 -263q-1 -6 -1 -11z" />
    <glyph glyph-name="Oacute" unicode="&#xd3;" horiz-adv-x="668" 
d="M441 765h-148l110 150h181zM389 717h7q54 -1 103 -16t84.5 -44.5t54.5 -73.5q12 -31 12 -68q0 -16 -2 -34l-35 -255q-8 -59 -39.5 -103.5t-77 -74t-100 -44t-109.5 -14.5q-54 0 -103 15t-85.5 44.5t-54.5 73.5q-13 31 -13 69q0 16 2 34l35 255q8 60 39.5 104.5t77.5 74
t101 44.5q51 13 103 13zM176 211q0 -16 8 -29q9 -16 27.5 -27t43.5 -16.5t52 -5.5t53.5 5.5t48.5 17t37 28t18 38.5l39 263q1 6 1 11q0 16 -8 29q-9 17 -27.5 28t-43 16.5t-51.5 5.5t-54 -5.5t-49 -17t-37 -28.5t-18 -39l-39 -263q-1 -6 -1 -11z" />
    <glyph glyph-name="Ocircumflex" unicode="&#xd4;" horiz-adv-x="668" 
d="M592 765h-128l-44 57l-60 -57h-140l158 150h113zM389 717h7q54 -1 103 -16t84.5 -44.5t54.5 -73.5q12 -31 12 -68q0 -16 -2 -34l-35 -255q-8 -59 -39.5 -103.5t-77 -74t-100 -44t-109.5 -14.5q-54 0 -103 15t-85.5 44.5t-54.5 73.5q-13 31 -13 69q0 16 2 34l35 255
q8 60 39.5 104.5t77.5 74t101 44.5q51 13 103 13zM176 211q0 -16 8 -29q9 -16 27.5 -27t43.5 -16.5t52 -5.5t53.5 5.5t48.5 17t37 28t18 38.5l39 263q1 6 1 11q0 16 -8 29q-9 17 -27.5 28t-43 16.5t-51.5 5.5t-54 -5.5t-49 -17t-37 -28.5t-18 -39l-39 -263q-1 -6 -1 -11z
" />
    <glyph glyph-name="Otilde" unicode="&#xd5;" horiz-adv-x="668" 
d="M340 927q30 0 52.5 -12t40.5 -20q14 -6 27 -6h6q15 2 29 31l84 -46q-22 -59 -54.5 -84.5t-66.5 -25.5q-24 0 -47 13.5t-43 22.5q-15 6 -28 6q-5 0 -11 -1q-18 -4 -31 -38l-76 42q18 60 49 89t69 29zM389 717h7q54 -1 103 -16t84.5 -44.5t54.5 -73.5q12 -31 12 -68
q0 -16 -2 -34l-35 -255q-8 -59 -39.5 -103.5t-77 -74t-100 -44t-109.5 -14.5q-54 0 -103 15t-85.5 44.5t-54.5 73.5q-13 31 -13 69q0 16 2 34l35 255q8 60 39.5 104.5t77.5 74t101 44.5q51 13 103 13zM176 211q0 -16 8 -29q9 -16 27.5 -27t43.5 -16.5t52 -5.5t53.5 5.5
t48.5 17t37 28t18 38.5l39 263q1 6 1 11q0 16 -8 29q-9 17 -27.5 28t-43 16.5t-51.5 5.5t-54 -5.5t-49 -17t-37 -28.5t-18 -39l-39 -263q-1 -6 -1 -11z" />
    <glyph glyph-name="Odieresis" unicode="&#xd6;" horiz-adv-x="668" 
d="M314 920q33 0 53 -23q16 -18 16 -44q0 -7 -1 -14q-2 -17 -10.5 -31t-20.5 -25t-27.5 -17t-31.5 -6q-35 0 -55 23q-16 18 -16 43q0 6 1 13q5 35 31.5 58t60.5 23zM536 920q36 0 57 -25q18 -20 18 -48q0 -6 -1 -13q-5 -37 -33.5 -62t-64.5 -25t-57 25q-17 20 -17 48
q0 7 1 14q5 36 33 61t64 25zM389 717h7q54 -1 103 -16t84.5 -44.5t54.5 -73.5q12 -31 12 -68q0 -16 -2 -34l-35 -255q-8 -59 -39.5 -103.5t-77 -74t-100 -44t-109.5 -14.5q-54 0 -103 15t-85.5 44.5t-54.5 73.5q-13 31 -13 69q0 16 2 34l35 255q8 60 39.5 104.5t77.5 74
t101 44.5q51 13 103 13zM176 211q0 -16 8 -29q9 -16 27.5 -27t43.5 -16.5t52 -5.5t53.5 5.5t48.5 17t37 28t18 38.5l39 263q1 6 1 11q0 16 -8 29q-9 17 -27.5 28t-43 16.5t-51.5 5.5t-54 -5.5t-49 -17t-37 -28.5t-18 -39l-39 -263q-1 -6 -1 -11z" />
    <glyph glyph-name="multiply" unicode="&#xd7;" horiz-adv-x="525" 
d="M425 525l84 -99l-148 -130l111 -130l-112 -98l-112 130l-153 -135l-82 100l151 131l-116 135l111 97l116 -133z" />
    <glyph glyph-name="Oslash" unicode="&#xd8;" horiz-adv-x="668" 
d="M651 517q0 -17 -3 -36l-35 -255q-8 -59 -39.5 -103.5t-77 -74t-100 -44t-109.5 -14.5q-45 0 -89 11l-45 -83l-88 36l46 86q-42 30 -64 76q-16 35 -16 78q0 15 2 32l35 255q8 60 39.5 104.5t77.5 74t101 44.5q51 13 103 13h7q34 0 71 -8l35 67l92 -31l-37 -70
q48 -29 75 -77q19 -35 19 -81zM176 213q0 -19 10 -33l209 394q-5 1 -11 1h-10q-27 0 -54 -5.5t-49 -17t-37 -28.5t-18 -39l-39 -263q-1 -5 -1 -9zM504 495q0 26 -19 45l-216 -404q18 -3 38 -3q27 0 53.5 5.5t48.5 17t37 28t18 38.5l39 263q1 5 1 10z" />
    <glyph glyph-name="Ugrave" unicode="&#xd9;" horiz-adv-x="671" 
d="M239 906h171l71 -150h-139zM194 217q0 -16 6 -29q9 -19 25.5 -31t39.5 -18t48 -6q24 0 48 6t43.5 18.5t33.5 31t17 43.5l67 476h148l-67 -476q-9 -61 -39.5 -106.5t-74 -75.5t-95.5 -45t-104 -15t-99.5 15.5t-82 45.5t-52.5 75q-12 32 -12 70q0 17 3 36l67 476h148
l-67 -476q-1 -8 -1 -15z" />
    <glyph glyph-name="Uacute" unicode="&#xda;" horiz-adv-x="671" 
d="M437 756h-148l110 150h181zM194 217q0 -16 6 -29q9 -19 25.5 -31t39.5 -18t48 -6q24 0 48 6t43.5 18.5t33.5 31t17 43.5l67 476h148l-67 -476q-9 -61 -39.5 -106.5t-74 -75.5t-95.5 -45t-104 -15t-99.5 15.5t-82 45.5t-52.5 75q-12 32 -12 70q0 17 3 36l67 476h148
l-67 -476q-1 -8 -1 -15z" />
    <glyph glyph-name="Ucircumflex" unicode="&#xdb;" horiz-adv-x="671" 
d="M588 756h-128l-44 57l-60 -57h-140l158 150h113zM194 217q0 -16 6 -29q9 -19 25.5 -31t39.5 -18t48 -6q24 0 48 6t43.5 18.5t33.5 31t17 43.5l67 476h148l-67 -476q-9 -61 -39.5 -106.5t-74 -75.5t-95.5 -45t-104 -15t-99.5 15.5t-82 45.5t-52.5 75q-12 32 -12 70
q0 17 3 36l67 476h148l-67 -476q-1 -8 -1 -15z" />
    <glyph glyph-name="Udieresis" unicode="&#xdc;" horiz-adv-x="671" 
d="M310 911q33 0 53 -23q16 -18 16 -44q0 -7 -1 -14q-2 -17 -10.5 -31t-20.5 -25t-27.5 -17t-31.5 -6q-35 0 -55 23q-16 18 -16 43q0 6 1 13q5 35 31.5 58t60.5 23zM532 911q36 0 57 -25q18 -20 18 -48q0 -6 -1 -13q-5 -37 -33.5 -62t-64.5 -25t-57 25q-17 20 -17 48
q0 7 1 14q5 36 33 61t64 25zM194 217q0 -16 6 -29q9 -19 25.5 -31t39.5 -18t48 -6q24 0 48 6t43.5 18.5t33.5 31t17 43.5l67 476h148l-67 -476q-9 -61 -39.5 -106.5t-74 -75.5t-95.5 -45t-104 -15t-99.5 15.5t-82 45.5t-52.5 75q-12 32 -12 70q0 17 3 36l67 476h148
l-67 -476q-1 -8 -1 -15z" />
    <glyph glyph-name="Yacute" unicode="&#xdd;" horiz-adv-x="627" 
d="M414 756h-148l110 150h181zM197 0l38 271l-185 437h169l108 -296l192 296h171l-308 -437l-38 -271h-147z" />
    <glyph glyph-name="Thorn" unicode="&#xde;" horiz-adv-x="621" 
d="M386 622q85 0 136 -36.5t72 -91.5q14 -37 14 -78q0 -19 -4 -39q-9 -63 -44.5 -117.5t-97 -90.5t-144.5 -36h-134l-18 -133h-146l99 708h144l-11 -86h134zM337 271q36 0 62 15t41 37.5t19 48.5q1 9 1 16q0 18 -6 34q-9 22 -31 37t-58 15h-133l-28 -203h133z" />
    <glyph glyph-name="germandbls" unicode="&#xdf;" horiz-adv-x="577" 
d="M276 135q19 0 38 6q27 9 47.5 29t24.5 49q1 8 1 15q0 31 -21 46q-26 19 -68 19h-70l18 135h70q15 0 29.5 7.5t26.5 19.5t20.5 27.5t10.5 32.5q1 5 1 10q0 19 -9 32q-11 17 -30 25q-18 7 -40 7q-1 0 -3 -1q-24 0 -45 -9.5t-36.5 -27t-17.5 -42.5l-72 -515h-140l72 515
q7 51 31.5 89.5t60.5 64.5t79.5 39t87.5 14h6q40 0 77 -12q40 -12 69 -37t44 -63q9 -26 9 -57q0 -15 -2 -32q-5 -34 -24.5 -74.5t-69.5 -73.5q41 -22 61 -55t22 -70q1 -7 1 -13q0 -31 -11 -64q-13 -39 -38 -73q-25 -33 -60 -56t-74 -34q-34 -8 -68 -8h-14q-41 2 -79 18
l20 141q19 -19 47 -23q9 -1 18 -1z" />
    <glyph glyph-name="agrave" unicode="&#xe0;" 
d="M139 726h171l71 -150h-139zM183 -10q-35 0 -67 11.5t-55 34.5t-34 56q-7 22 -7 48q0 14 2 30l24 170q7 52 30.5 88t57.5 58.5t75 32t83 9.5q48 0 98.5 -14.5t91.5 -36.5l-65 -477h-114l-12 42q-21 -25 -50.5 -38.5t-57.5 -13.5zM280 406q-17 0 -33 -4q-23 -6 -41 -21
t-21 -40l-23 -164q-1 -5 -1 -9q0 -23 17 -36q20 -15 47 -15q23 0 41 5.5t32 13.5l36 257q-16 10 -40 13h-14z" />
    <glyph glyph-name="aacute" unicode="&#xe1;" 
d="M337 576h-148l110 150h181zM183 -10q-35 0 -67 11.5t-55 34.5t-34 56q-7 22 -7 48q0 14 2 30l24 170q7 52 30.5 88t57.5 58.5t75 32t83 9.5q48 0 98.5 -14.5t91.5 -36.5l-65 -477h-114l-12 42q-21 -25 -50.5 -38.5t-57.5 -13.5zM280 406q-17 0 -33 -4q-23 -6 -41 -21
t-21 -40l-23 -164q-1 -5 -1 -9q0 -23 17 -36q20 -15 47 -15q23 0 41 5.5t32 13.5l36 257q-16 10 -40 13h-14z" />
    <glyph glyph-name="acircumflex" unicode="&#xe2;" 
d="M488 576h-128l-44 57l-60 -57h-140l158 150h113zM183 -10q-35 0 -67 11.5t-55 34.5t-34 56q-7 22 -7 48q0 14 2 30l24 170q7 52 30.5 88t57.5 58.5t75 32t83 9.5q48 0 98.5 -14.5t91.5 -36.5l-65 -477h-114l-12 42q-21 -25 -50.5 -38.5t-57.5 -13.5zM280 406
q-17 0 -33 -4q-23 -6 -41 -21t-21 -40l-23 -164q-1 -5 -1 -9q0 -23 17 -36q20 -15 47 -15q23 0 41 5.5t32 13.5l36 257q-16 10 -40 13h-14z" />
    <glyph glyph-name="atilde" unicode="&#xe3;" 
d="M236 738q30 0 52.5 -12t40.5 -20q14 -6 27 -6h6q15 2 29 31l84 -46q-22 -59 -54.5 -84.5t-66.5 -25.5q-24 0 -47 13.5t-43 22.5q-15 6 -28 6q-5 0 -11 -1q-18 -4 -31 -38l-76 42q18 60 49 89t69 29zM183 -10q-35 0 -67 11.5t-55 34.5t-34 56q-7 22 -7 48q0 14 2 30
l24 170q7 52 30.5 88t57.5 58.5t75 32t83 9.5q48 0 98.5 -14.5t91.5 -36.5l-65 -477h-114l-12 42q-21 -25 -50.5 -38.5t-57.5 -13.5zM280 406q-17 0 -33 -4q-23 -6 -41 -21t-21 -40l-23 -164q-1 -5 -1 -9q0 -23 17 -36q20 -15 47 -15q23 0 41 5.5t32 13.5l36 257
q-16 10 -40 13h-14z" />
    <glyph glyph-name="adieresis" unicode="&#xe4;" 
d="M422 728q36 0 58 -25q17 -20 17 -48q0 -6 -1 -13q-5 -37 -33.5 -62t-64.5 -25t-57 25q-17 20 -17 48q0 7 1 14q5 36 33 61t64 25zM220 728q36 0 58 -25q17 -20 17 -48q0 -6 -1 -13q-5 -37 -33.5 -62t-64.5 -25t-57 25q-17 20 -17 48q0 7 1 14q5 36 33 61t64 25zM183 -10
q-35 0 -67 11.5t-55 34.5t-34 56q-7 22 -7 48q0 14 2 30l24 170q7 52 30.5 88t57.5 58.5t75 32t83 9.5q48 0 98.5 -14.5t91.5 -36.5l-65 -477h-114l-12 42q-21 -25 -50.5 -38.5t-57.5 -13.5zM280 406q-17 0 -33 -4q-23 -6 -41 -21t-21 -40l-23 -164q-1 -5 -1 -9
q0 -23 17 -36q20 -15 47 -15q23 0 41 5.5t32 13.5l36 257q-16 10 -40 13h-14z" />
    <glyph glyph-name="aring" unicode="&#xe5;" 
d="M332 796q41 0 67 -17.5t37 -43.5q8 -21 8 -43q0 -7 -1 -15q-3 -30 -20 -56.5t-47 -44t-73 -17.5q-42 0 -68 17.5t-36 44.5q-8 19 -8 42v14q4 31 21.5 57.5t47.5 44t72 17.5zM324 727q-29 0 -45 -16q-17 -17 -17 -38q0 -16 11 -30q12 -15 39 -15t41.5 15.5t16.5 33.5v6
q0 15 -9 28q-12 16 -37 16zM183 -10q-35 0 -67 11.5t-55 34.5t-34 56q-7 22 -7 48q0 14 2 30l24 170q7 52 30.5 88t57.5 58.5t75 32t83 9.5q48 0 98.5 -14.5t91.5 -36.5l-65 -477h-114l-12 42q-21 -25 -50.5 -38.5t-57.5 -13.5zM280 406q-17 0 -33 -4q-23 -6 -41 -21
t-21 -40l-23 -164q-1 -5 -1 -9q0 -23 17 -36q20 -15 47 -15q23 0 41 5.5t32 13.5l36 257q-16 10 -40 13h-14z" />
    <glyph glyph-name="ae" unicode="&#xe6;" horiz-adv-x="760" 
d="M482 -9q-33 0 -63 8t-55 25l-6 -24h-70l1 35q-21 -25 -50 -35t-57 -10q-35 0 -66.5 11.5t-54.5 34.5t-35 56q-7 23 -7 49q0 14 2 29l23 171q7 52 30.5 88t57 58t75 31.5t83.5 9.5q41 0 72.5 -8.5t60.5 -29.5q62 38 135 38q39 0 75 -12t61.5 -36t38.5 -59q8 -23 8 -50
q0 -15 -2 -31q-8 -54 -42 -88.5t-79 -51.5q-45 -16 -93 -16h-3q-49 1 -87 16l-4 -25q-1 -5 -1 -9q0 -23 18 -36q21 -16 52 -18q6 -1 12 -1q24 0 50 8q32 10 51 32l78 -54q-48 -59 -103 -82.5t-106 -23.5zM159 169q0 -20 12 -31q14 -15 37 -20q11 -2 23 -2t25 2q26 5 46 19v8
q0 14 2 30l23 164q2 14 5 27.5t8 25.5q-20 14 -46 17q-7 1 -15 1q-17 0 -33 -5q-24 -7 -42 -23t-21 -40l-23 -165q-1 -4 -1 -8zM524 289q27 0 52.5 13t28.5 39q1 4 1 7q0 9 -4 17q-5 11 -14.5 19t-21.5 12.5t-25 4.5q-14 0 -28.5 -4.5t-27 -13t-21 -20t-10.5 -25.5l-5 -38
q16 -5 37 -8t38 -3z" />
    <glyph glyph-name="ccedilla" unicode="&#xe7;" horiz-adv-x="466" 
d="M220 116q24 0 49 13.5t39 43.5l116 -42q-28 -59 -72 -90.5t-89 -42.5l-25 -42q33 -4 52.5 -21t25.5 -41q2 -10 2 -21q0 -13 -4 -28q-7 -26 -25.5 -48t-48.5 -36.5t-70 -14.5q-30 0 -66.5 11.5t-63.5 37.5l41 75q19 -14 38.5 -20t33.5 -6q21 0 30.5 11.5t6 24t-21.5 22.5
q-15 8 -38 8q-7 0 -15 -1l50 84q-33 5 -62 18.5t-49 36t-30 53.5q-6 19 -6 43q0 14 2 29l24 171q6 46 29 80.5t55.5 57.5t71.5 34.5t78 11.5q28 0 57 -7t54 -23.5t42.5 -43t22.5 -66.5l-124 -40q-5 27 -24 39.5t-43 12.5q-27 0 -51.5 -15t-28.5 -43l-23 -166q-1 -5 -1 -9
q0 -22 16 -35q19 -16 45 -16z" />
    <glyph glyph-name="egrave" unicode="&#xe8;" horiz-adv-x="478" 
d="M125 716h171l71 -150h-139zM202 -10q-38 0 -73.5 11.5t-61.5 35t-39 57.5q-9 24 -9 53q0 13 2 28l23 162q7 47 29.5 83t55 60t71.5 36t78 12t74.5 -12t60.5 -36t37 -59q9 -22 9 -49q0 -15 -3 -32q-8 -54 -40.5 -88.5t-76.5 -51.5q-43 -16 -89 -16h-3q-48 1 -86 16l-4 -25
q-2 -16 3 -27.5t15.5 -19.5t25 -12t30.5 -4q28 0 56 11t45 31l79 -57q-48 -59 -103 -83t-106 -24zM244 286q27 0 52.5 14.5t28.5 40.5q1 5 1 9q0 10 -4 18q-5 12 -14.5 19t-21.5 10.5t-25 3.5q-27 0 -52 -17.5t-29 -45.5l-6 -41q33 -11 70 -11z" />
    <glyph glyph-name="eacute" unicode="&#xe9;" horiz-adv-x="478" 
d="M323 566h-148l110 150h181zM202 -10q-38 0 -73.5 11.5t-61.5 35t-39 57.5q-9 24 -9 53q0 13 2 28l23 162q7 47 29.5 83t55 60t71.5 36t78 12t74.5 -12t60.5 -36t37 -59q9 -22 9 -49q0 -15 -3 -32q-8 -54 -40.5 -88.5t-76.5 -51.5q-43 -16 -89 -16h-3q-48 1 -86 16l-4 -25
q-2 -16 3 -27.5t15.5 -19.5t25 -12t30.5 -4q28 0 56 11t45 31l79 -57q-48 -59 -103 -83t-106 -24zM244 286q27 0 52.5 14.5t28.5 40.5q1 5 1 9q0 10 -4 18q-5 12 -14.5 19t-21.5 10.5t-25 3.5q-27 0 -52 -17.5t-29 -45.5l-6 -41q33 -11 70 -11z" />
    <glyph glyph-name="ecircumflex" unicode="&#xea;" horiz-adv-x="478" 
d="M474 566h-128l-44 57l-60 -57h-140l158 150h113zM202 -10q-38 0 -73.5 11.5t-61.5 35t-39 57.5q-9 24 -9 53q0 13 2 28l23 162q7 47 29.5 83t55 60t71.5 36t78 12t74.5 -12t60.5 -36t37 -59q9 -22 9 -49q0 -15 -3 -32q-8 -54 -40.5 -88.5t-76.5 -51.5q-43 -16 -89 -16h-3
q-48 1 -86 16l-4 -25q-2 -16 3 -27.5t15.5 -19.5t25 -12t30.5 -4q28 0 56 11t45 31l79 -57q-48 -59 -103 -83t-106 -24zM244 286q27 0 52.5 14.5t28.5 40.5q1 5 1 9q0 10 -4 18q-5 12 -14.5 19t-21.5 10.5t-25 3.5q-27 0 -52 -17.5t-29 -45.5l-6 -41q33 -11 70 -11z" />
    <glyph glyph-name="edieresis" unicode="&#xeb;" horiz-adv-x="478" 
d="M196 721q33 0 53 -23q16 -18 16 -44q0 -7 -1 -14q-2 -17 -10.5 -31t-20.5 -25t-27.5 -17t-31.5 -6q-35 0 -55 23q-16 18 -16 43q0 6 1 13q5 35 31.5 58t60.5 23zM418 721q36 0 57 -25q18 -20 18 -48q0 -6 -1 -13q-5 -37 -33.5 -62t-64.5 -25t-57 25q-17 20 -17 48
q0 7 1 14q5 36 33 61t64 25zM202 -10q-38 0 -73.5 11.5t-61.5 35t-39 57.5q-9 24 -9 53q0 13 2 28l23 162q7 47 29.5 83t55 60t71.5 36t78 12t74.5 -12t60.5 -36t37 -59q9 -22 9 -49q0 -15 -3 -32q-8 -54 -40.5 -88.5t-76.5 -51.5q-43 -16 -89 -16h-3q-48 1 -86 16l-4 -25
q-2 -16 3 -27.5t15.5 -19.5t25 -12t30.5 -4q28 0 56 11t45 31l79 -57q-48 -59 -103 -83t-106 -24zM244 286q27 0 52.5 14.5t28.5 40.5q1 5 1 9q0 10 -4 18q-5 12 -14.5 19t-21.5 10.5t-25 3.5q-27 0 -52 -17.5t-29 -45.5l-6 -41q33 -11 70 -11z" />
    <glyph glyph-name="igrave" unicode="&#xec;" horiz-adv-x="249" 
d="M1 716h171l71 -150h-139zM153 0h-142l72 517h142z" />
    <glyph glyph-name="iacute" unicode="&#xed;" horiz-adv-x="250" 
d="M199 566h-148l110 150h181zM153 0h-142l72 517h142z" />
    <glyph glyph-name="icircumflex" unicode="&#xee;" horiz-adv-x="250" 
d="M350 566h-128l-44 57l-60 -57h-140l158 150h113zM153 0h-142l72 517h142z" />
    <glyph glyph-name="idieresis" unicode="&#xef;" horiz-adv-x="250" 
d="M273 718q36 0 58 -25q17 -20 17 -48q0 -6 -1 -13q-5 -37 -33.5 -62t-64.5 -25t-57 25q-17 20 -17 48q0 7 1 14q5 36 33 61t64 25zM91 718q36 0 58 -25q17 -20 17 -48q0 -6 -1 -13q-5 -37 -33.5 -62t-64.5 -25t-57 25q-17 20 -17 48q0 7 1 14q5 36 33 61t64 25zM152 0
h-142l72 517h142z" />
    <glyph glyph-name="eth" unicode="&#xf0;" horiz-adv-x="506" 
d="M484 541q0 -17 -3 -37l-65 -467q-38 -18 -83.5 -29.5t-91.5 -14.5q-13 -1 -26 -1q-32 0 -63 6q-43 7 -74 27.5t-47 54.5q-11 25 -11 57q0 14 2 30l27 195q7 54 38 90.5t73.5 56t91.5 21.5h11q43 0 82 -14q2 9 2 17q0 13 -5 23q-6 17 -20 28l-19 -40l-74 20l17 36
q-22 -3 -43 -12.5t-38 -26.5l-58 73q38 39 89 58q47 18 96 18h5l26 56l75 -21l-23 -49q54 -20 85 -68q24 -36 24 -87zM274 418q-15 0 -28 -4q-22 -5 -39.5 -18.5t-23.5 -35.5l-27 -196q-1 -4 -1 -8q0 -18 11 -30q13 -15 33 -22q16 -6 35 -6h8q24 2 44 11l41 296
q-15 9 -37 12q-8 1 -16 1z" />
    <glyph glyph-name="ntilde" unicode="&#xf1;" horiz-adv-x="515" 
d="M241 738q30 0 52.5 -12t40.5 -20q14 -6 27 -6h6q15 2 29 31l84 -46q-22 -59 -54.5 -84.5t-66.5 -25.5q-24 0 -47 13.5t-43 22.5q-15 6 -28 6q-5 0 -11 -1q-18 -4 -31 -38l-76 42q18 60 49 89t69 29zM272 528q44 0 83 -10.5t67.5 -33t41.5 -58.5q9 -24 9 -54q0 -16 -2 -33
l-48 -339h-138l46 331q1 7 1 13q0 25 -18 39q-21 17 -51 17q-32 0 -60 -14l-54 -386h-139l68 483q46 21 96 33t98 12z" />
    <glyph glyph-name="ograve" unicode="&#xf2;" horiz-adv-x="494" 
d="M120 726h171l71 -150h-139zM279 528q39 0 74.5 -12t61 -35t38.5 -57q9 -24 9 -53q0 -13 -2 -28l-24 -169q-7 -47 -29.5 -81.5t-55 -57t-71 -34t-77.5 -11.5t-74.5 11.5t-62 34t-39.5 56.5q-8 23 -8 51q0 15 2 31l24 169q6 46 29 80.5t55.5 57.5t71.5 35t78 12zM260 400
q-25 0 -48.5 -13t-27.5 -38l-24 -176q-1 -4 -1 -7q0 -8 3 -16q5 -10 14 -17.5t21 -11.5t24 -4t24.5 4t23.5 11.5t18.5 18t9.5 22.5l24 176q1 3 1 7q0 8 -4 14q-5 10 -14 16.5t-20.5 10t-23.5 3.5z" />
    <glyph glyph-name="oacute" unicode="&#xf3;" horiz-adv-x="494" 
d="M334 576h-148l110 150h181zM279 528q39 0 74.5 -12t61 -35t38.5 -57q9 -24 9 -53q0 -13 -2 -28l-24 -169q-7 -47 -29.5 -81.5t-55 -57t-71 -34t-77.5 -11.5t-74.5 11.5t-62 34t-39.5 56.5q-8 23 -8 51q0 15 2 31l24 169q6 46 29 80.5t55.5 57.5t71.5 35t78 12zM260 400
q-25 0 -48.5 -13t-27.5 -38l-24 -176q-1 -4 -1 -7q0 -8 3 -16q5 -10 14 -17.5t21 -11.5t24 -4t24.5 4t23.5 11.5t18.5 18t9.5 22.5l24 176q1 3 1 7q0 8 -4 14q-5 10 -14 16.5t-20.5 10t-23.5 3.5z" />
    <glyph glyph-name="ocircumflex" unicode="&#xf4;" horiz-adv-x="494" 
d="M485 576h-128l-44 57l-60 -57h-140l158 150h113zM279 528q39 0 74.5 -12t61 -35t38.5 -57q9 -24 9 -53q0 -13 -2 -28l-24 -169q-7 -47 -29.5 -81.5t-55 -57t-71 -34t-77.5 -11.5t-74.5 11.5t-62 34t-39.5 56.5q-8 23 -8 51q0 15 2 31l24 169q6 46 29 80.5t55.5 57.5
t71.5 35t78 12zM260 400q-25 0 -48.5 -13t-27.5 -38l-24 -176q-1 -4 -1 -7q0 -8 3 -16q5 -10 14 -17.5t21 -11.5t24 -4t24.5 4t23.5 11.5t18.5 18t9.5 22.5l24 176q1 3 1 7q0 8 -4 14q-5 10 -14 16.5t-20.5 10t-23.5 3.5z" />
    <glyph glyph-name="otilde" unicode="&#xf5;" horiz-adv-x="494" 
d="M233 738q30 0 52.5 -12t40.5 -20q14 -6 27 -6h6q15 2 29 31l84 -46q-22 -59 -54.5 -84.5t-66.5 -25.5q-24 0 -47 13.5t-43 22.5q-15 6 -28 6q-5 0 -11 -1q-18 -4 -31 -38l-76 42q18 60 49 89t69 29zM279 528q39 0 74.5 -12t61 -35t38.5 -57q9 -24 9 -53q0 -13 -2 -28
l-24 -169q-7 -47 -29.5 -81.5t-55 -57t-71 -34t-77.5 -11.5t-74.5 11.5t-62 34t-39.5 56.5q-8 23 -8 51q0 15 2 31l24 169q6 46 29 80.5t55.5 57.5t71.5 35t78 12zM260 400q-25 0 -48.5 -13t-27.5 -38l-24 -176q-1 -4 -1 -7q0 -8 3 -16q5 -10 14 -17.5t21 -11.5t24 -4
t24.5 4t23.5 11.5t18.5 18t9.5 22.5l24 176q1 3 1 7q0 8 -4 14q-5 10 -14 16.5t-20.5 10t-23.5 3.5z" />
    <glyph glyph-name="odieresis" unicode="&#xf6;" horiz-adv-x="494" 
d="M207 731q33 0 53 -23q16 -18 16 -44q0 -7 -1 -14q-2 -17 -10.5 -31t-20.5 -25t-27.5 -17t-31.5 -6q-35 0 -55 23q-16 18 -16 43q0 6 1 13q5 35 31.5 58t60.5 23zM429 731q36 0 57 -25q18 -20 18 -48q0 -6 -1 -13q-5 -37 -33.5 -62t-64.5 -25t-57 25q-17 20 -17 48
q0 7 1 14q5 36 33 61t64 25zM279 528q39 0 74.5 -12t61 -35t38.5 -57q9 -24 9 -53q0 -13 -2 -28l-24 -169q-7 -47 -29.5 -81.5t-55 -57t-71 -34t-77.5 -11.5t-74.5 11.5t-62 34t-39.5 56.5q-8 23 -8 51q0 15 2 31l24 169q6 46 29 80.5t55.5 57.5t71.5 35t78 12zM260 400
q-25 0 -48.5 -13t-27.5 -38l-24 -176q-1 -4 -1 -7q0 -8 3 -16q5 -10 14 -17.5t21 -11.5t24 -4t24.5 4t23.5 11.5t18.5 18t9.5 22.5l24 176q1 3 1 7q0 8 -4 14q-5 10 -14 16.5t-20.5 10t-23.5 3.5z" />
    <glyph glyph-name="divide" unicode="&#xf7;" horiz-adv-x="511" 
d="M295 584q36 0 59 -25q18 -20 18 -49q0 -6 -1 -13q-3 -18 -12 -34.5t-23 -29t-31 -19.5t-35 -7t-33 7t-25.5 19.5t-15.5 28.5q-3 11 -3 22q0 6 1 13q3 18 12 34t23 28t31 18.5t35 6.5zM471 241h-449l20 142h449zM324 141q0 -6 -1 -13q-3 -19 -12 -35t-22.5 -28t-30.5 -19
t-35 -7q-37 0 -60 25q-19 21 -19 51q0 6 1 13q6 38 35.5 62t66.5 25q37 0 59 -25q18 -20 18 -49z" />
    <glyph glyph-name="oslash" unicode="&#xf8;" horiz-adv-x="494" 
d="M462 373q0 -14 -2 -30l-24 -169q-7 -47 -29.5 -81.5t-55 -57t-71 -34t-77.5 -11.5q-16 0 -31 2t-29 5l-31 -59l-71 30l33 62q-30 23 -46 58q-10 23 -10 53q0 16 3 33l24 169q6 46 29 80.5t55.5 57.5t71.5 35t78 12q14 0 28.5 -2t28.5 -5l29 53l75 -25l-33 -61
q29 -23 45 -59q10 -25 10 -56zM271 399l-11 1q-25 0 -48.5 -13t-27.5 -38l-21 -152zM221 117q12 0 24.5 4t23.5 11.5t18.5 18t9.5 22.5l20 147l-108 -202q4 -1 12 -1z" />
    <glyph glyph-name="ugrave" unicode="&#xf9;" horiz-adv-x="517" 
d="M135 716h171l71 -150h-139zM218 -10q-42 0 -79.5 9.5t-63.5 31.5t-39 59q-7 22 -7 51q0 18 3 39l48 338h139l-45 -324q-1 -5 -1 -10q0 -29 22 -46q25 -21 61 -21q11 0 22.5 1.5t22.5 5.5l55 394h138l-69 -490q-46 -16 -100 -27t-107 -11z" />
    <glyph glyph-name="uacute" unicode="&#xfa;" horiz-adv-x="517" 
d="M333 566h-148l110 150h181zM218 -10q-42 0 -79.5 9.5t-63.5 31.5t-39 59q-7 22 -7 51q0 18 3 39l48 338h139l-45 -324q-1 -5 -1 -10q0 -29 22 -46q25 -21 61 -21q11 0 22.5 1.5t22.5 5.5l55 394h138l-69 -490q-46 -16 -100 -27t-107 -11z" />
    <glyph glyph-name="ucircumflex" unicode="&#xfb;" horiz-adv-x="517" 
d="M484 566h-128l-44 57l-60 -57h-140l158 150h113zM218 -10q-42 0 -79.5 9.5t-63.5 31.5t-39 59q-7 22 -7 51q0 18 3 39l48 338h139l-45 -324q-1 -5 -1 -10q0 -29 22 -46q25 -21 61 -21q11 0 22.5 1.5t22.5 5.5l55 394h138l-69 -490q-46 -16 -100 -27t-107 -11z" />
    <glyph glyph-name="udieresis" unicode="&#xfc;" horiz-adv-x="517" 
d="M206 721q33 0 53 -23q16 -18 16 -44q0 -7 -1 -14q-2 -17 -10.5 -31t-20.5 -25t-27.5 -17t-31.5 -6q-35 0 -55 23q-16 18 -16 43q0 6 1 13q5 35 31.5 58t60.5 23zM428 721q36 0 57 -25q18 -20 18 -48q0 -6 -1 -13q-5 -37 -33.5 -62t-64.5 -25t-57 25q-17 20 -17 48
q0 7 1 14q5 36 33 61t64 25zM218 -10q-42 0 -79.5 9.5t-63.5 31.5t-39 59q-7 22 -7 51q0 18 3 39l48 338h139l-45 -324q-1 -5 -1 -10q0 -29 22 -46q25 -21 61 -21q11 0 22.5 1.5t22.5 5.5l55 394h138l-69 -490q-46 -16 -100 -27t-107 -11z" />
    <glyph glyph-name="yacute" unicode="&#xfd;" horiz-adv-x="515" 
d="M337 566h-148l110 150h181zM179 -207q-54 0 -103 21.5t-79 63.5l81 73q15 -17 41 -26t53 -9q39 0 68.5 18.5t37.5 67.5q-21 -6 -42.5 -9.5t-41.5 -3.5q-37 0 -69.5 10.5t-56 31.5t-34.5 53q-7 20 -7 45q0 13 2 28l51 361h134l-49 -343q-2 -15 3 -25.5t15.5 -17.5
t24.5 -11t29 -4q16 0 31.5 3t28.5 10l55 388h140l-72 -510q-10 -63 -33 -104t-55.5 -66t-71.5 -35t-81 -10z" />
    <glyph glyph-name="thorn" unicode="&#xfe;" horiz-adv-x="511" 
d="M300 528q39 0 73.5 -9t59.5 -30.5t37 -56.5q8 -22 8 -51q0 -17 -3 -36l-23 -172q-7 -52 -29.5 -87t-54.5 -56.5t-70 -30.5t-76 -9q-19 0 -36 4t-34 12l-29 -196h-139l127 898h139l-28 -197q17 9 37.5 13t40.5 4zM220 105q16 0 31.5 3t28 11t21.5 21t12 34l24 178
q1 5 1 10q0 18 -10 30q-11 15 -30 21q-14 4 -29 4q-7 0 -15 -1q-25 -3 -48 -15l-38 -281q21 -15 52 -15z" />
    <glyph glyph-name="ydieresis" unicode="&#xff;" horiz-adv-x="515" 
d="M200 721q33 0 53 -23q16 -18 16 -44q0 -7 -1 -14q-2 -17 -10.5 -31t-20.5 -25t-27.5 -17t-31.5 -6q-35 0 -55 23q-16 18 -16 43q0 6 1 13q5 35 31.5 58t60.5 23zM422 721q36 0 57 -25q18 -20 18 -48q0 -6 -1 -13q-5 -37 -33.5 -62t-64.5 -25t-57 25q-17 20 -17 48
q0 7 1 14q5 36 33 61t64 25zM179 -207q-54 0 -103 21.5t-79 63.5l81 73q15 -17 41 -26t53 -9q39 0 68.5 18.5t37.5 67.5q-21 -6 -42.5 -9.5t-41.5 -3.5q-37 0 -69.5 10.5t-56 31.5t-34.5 53q-7 20 -7 45q0 13 2 28l51 361h134l-49 -343q-2 -15 3 -25.5t15.5 -17.5t24.5 -11
t29 -4q16 0 31.5 3t28.5 10l55 388h140l-72 -510q-10 -63 -33 -104t-55.5 -66t-71.5 -35t-81 -10z" />
    <glyph glyph-name="Amacron" unicode="&#x100;" horiz-adv-x="634" 
d="M217 771l16 117h309l-16 -117h-309zM597 0h-154l-40 162h-211l-81 -162h-157l347 708h141zM248 297h136l-23 154l-6 101h-11l-34 -102z" />
    <glyph glyph-name="amacron" unicode="&#x101;" 
d="M137 591l16 117h309l-16 -117h-309zM183 -10q-35 0 -67 11.5t-55 34.5t-34 56q-7 22 -7 48q0 14 2 30l24 170q7 52 30.5 88t57.5 58.5t75 32t83 9.5q48 0 98.5 -14.5t91.5 -36.5l-65 -477h-114l-12 42q-21 -25 -50.5 -38.5t-57.5 -13.5zM280 406q-17 0 -33 -4
q-23 -6 -41 -21t-21 -40l-23 -164q-1 -5 -1 -9q0 -23 17 -36q20 -15 47 -15q23 0 41 5.5t32 13.5l36 257q-16 10 -40 13h-14z" />
    <glyph glyph-name="Abreve" unicode="&#x102;" horiz-adv-x="634" 
d="M382 752h-3q-44 1 -79 18.5t-55 51.5q-15 25 -15 59q0 12 2 25h127q-1 -4 -1 -9q0 -14 9 -23q11 -11 26 -11t29.5 10.5t17.5 32.5h128q-7 -53 -36.5 -87t-69.5 -51q-38 -16 -80 -16zM597 0h-154l-40 162h-211l-81 -162h-157l347 708h141zM248 297h136l-23 154l-6 101h-11
l-34 -102z" />
    <glyph glyph-name="abreve" unicode="&#x103;" 
d="M302 572h-3q-44 1 -79 18.5t-55 51.5q-15 25 -15 59q0 12 2 25h127q-1 -4 -1 -9q0 -14 9 -23q11 -11 26 -11t29.5 10.5t17.5 32.5h128q-7 -53 -36.5 -87t-69.5 -51q-38 -16 -80 -16zM183 -10q-35 0 -67 11.5t-55 34.5t-34 56q-7 22 -7 48q0 14 2 30l24 170q7 52 30.5 88
t57.5 58.5t75 32t83 9.5q48 0 98.5 -14.5t91.5 -36.5l-65 -477h-114l-12 42q-21 -25 -50.5 -38.5t-57.5 -13.5zM280 406q-17 0 -33 -4q-23 -6 -41 -21t-21 -40l-23 -164q-1 -5 -1 -9q0 -23 17 -36q20 -15 47 -15q23 0 41 5.5t32 13.5l36 257q-16 10 -40 13h-14z" />
    <glyph glyph-name="Aogonek" unicode="&#x104;" horiz-adv-x="633" 
d="M499 -244q-48 0 -73.5 23.5t-27.5 59.5q-1 4 -1 8q0 33 17 71q20 43 62 82h-34l-40 162h-211l-81 -162h-157l347 708h141l155 -708q-32 -30 -47 -53.5t-18 -40t5.5 -25.5t23.5 -9q9 0 21 1.5t27 11.5l22 -78q-35 -32 -68.5 -41.5t-62.5 -9.5zM247 297h136l-23 154l-6 101
h-11l-34 -102z" />
    <glyph glyph-name="aogonek" unicode="&#x105;" 
d="M320 -239q-50 0 -73 23t-23 58t20.5 77.5t58.5 80.5l-12 42q-21 -25 -50.5 -38.5t-57.5 -13.5q-35 0 -67 11.5t-55 34.5t-34 56q-7 22 -7 48q0 14 2 30l24 170q7 52 30.5 88t57.5 58.5t75 32t83 9.5q48 0 98.5 -14.5t91.5 -36.5l-65 -477q-63 -60 -68 -94q-1 -4 -1 -8
q0 -26 33 -26q18 0 38 13l32 -64q-35 -32 -68.5 -46t-62.5 -14zM280 406q-17 0 -33 -4q-23 -6 -41 -21t-21 -40l-23 -164q-1 -5 -1 -9q0 -23 17 -36q20 -15 47 -15q23 0 41 5.5t32 13.5l36 257q-16 10 -40 13h-14z" />
    <glyph glyph-name="Cacute" unicode="&#x106;" horiz-adv-x="583" 
d="M425 756h-148l110 150h181zM273 -10q-51 0 -98.5 15t-82.5 44.5t-52 73.5q-12 29 -12 65q0 18 3 38l38 257q9 58 39 102t73 73.5t94.5 44.5t104.5 15q35 0 70 -9t65 -28t53.5 -47.5t36.5 -67.5l-128 -68q-15 39 -50 57.5t-74 18.5q-24 0 -47.5 -6.5t-42.5 -18.5
t-32.5 -29.5t-16.5 -40.5l-37 -253q-1 -7 -1 -13q0 -14 5 -27q7 -17 22 -29t36 -18t44 -6q40 0 81 18.5t67 58.5l117 -71q-57 -75 -130.5 -112t-144.5 -37z" />
    <glyph glyph-name="cacute" unicode="&#x107;" horiz-adv-x="466" 
d="M332 566h-148l110 150h181zM204 -10q-39 0 -74.5 11.5t-62 34t-39.5 56.5q-9 24 -9 53q0 13 2 28l24 171q6 46 29 80.5t55.5 57.5t71.5 34.5t78 11.5q28 0 57 -7t54 -23.5t42.5 -43t22.5 -66.5l-124 -40q-5 27 -24 39.5t-43 12.5q-27 0 -51.5 -15t-28.5 -43l-23 -166
q-1 -5 -1 -9q0 -22 16 -35q19 -16 45 -16q24 0 49 13.5t39 43.5l116 -42q-19 -39 -45.5 -66t-56 -43.5t-60.5 -24t-59 -7.5z" />
    <glyph glyph-name="Cdotaccent" unicode="&#x10a;" horiz-adv-x="583" 
d="M398 926q22 0 40 -9t28 -27q7 -14 7 -32q0 -7 -1 -15q-4 -26 -19 -43.5t-35 -26t-42 -8.5t-40 8.5t-29 26.5q-7 12 -7 29q0 7 1 14q4 27 19.5 45.5t35.5 28t42 9.5zM273 -10q-51 0 -98.5 15t-82.5 44.5t-52 73.5q-12 29 -12 65q0 18 3 38l38 257q9 58 39 102t73 73.5
t94.5 44.5t104.5 15q35 0 70 -9t65 -28t53.5 -47.5t36.5 -67.5l-128 -68q-15 39 -50 57.5t-74 18.5q-24 0 -47.5 -6.5t-42.5 -18.5t-32.5 -29.5t-16.5 -40.5l-37 -253q-1 -7 -1 -13q0 -14 5 -27q7 -17 22 -29t36 -18t44 -6q40 0 81 18.5t67 58.5l117 -71
q-57 -75 -130.5 -112t-144.5 -37z" />
    <glyph glyph-name="cdotaccent" unicode="&#x10b;" horiz-adv-x="466" 
d="M305 736q22 0 40 -9t28 -27q7 -14 7 -32q0 -7 -1 -15q-4 -26 -19 -43.5t-35 -26t-42 -8.5t-40 8.5t-29 26.5q-7 12 -7 29q0 7 1 14q4 27 19.5 45.5t35.5 28t42 9.5zM204 -10q-39 0 -74.5 11.5t-62 34t-39.5 56.5q-9 24 -9 53q0 13 2 28l24 171q6 46 29 80.5t55.5 57.5
t71.5 34.5t78 11.5q28 0 57 -7t54 -23.5t42.5 -43t22.5 -66.5l-124 -40q-5 27 -24 39.5t-43 12.5q-27 0 -51.5 -15t-28.5 -43l-23 -166q-1 -5 -1 -9q0 -22 16 -35q19 -16 45 -16q24 0 49 13.5t39 43.5l116 -42q-19 -39 -45.5 -66t-56 -43.5t-60.5 -24t-59 -7.5z" />
    <glyph glyph-name="Ccaron" unicode="&#x10c;" horiz-adv-x="583" 
d="M349 906l46 -57l52 57h159l-146 -151h-144l-118 151h151zM273 -10q-51 0 -98.5 15t-82.5 44.5t-52 73.5q-12 29 -12 65q0 18 3 38l38 257q9 58 39 102t73 73.5t94.5 44.5t104.5 15q35 0 70 -9t65 -28t53.5 -47.5t36.5 -67.5l-128 -68q-15 39 -50 57.5t-74 18.5
q-24 0 -47.5 -6.5t-42.5 -18.5t-32.5 -29.5t-16.5 -40.5l-37 -253q-1 -7 -1 -13q0 -14 5 -27q7 -17 22 -29t36 -18t44 -6q40 0 81 18.5t67 58.5l117 -71q-57 -75 -130.5 -112t-144.5 -37z" />
    <glyph glyph-name="ccaron" unicode="&#x10d;" horiz-adv-x="466" 
d="M256 716l46 -57l52 57h159l-146 -151h-144l-118 151h151zM204 -10q-39 0 -74.5 11.5t-62 34t-39.5 56.5q-9 24 -9 53q0 13 2 28l24 171q6 46 29 80.5t55.5 57.5t71.5 34.5t78 11.5q28 0 57 -7t54 -23.5t42.5 -43t22.5 -66.5l-124 -40q-5 27 -24 39.5t-43 12.5
q-27 0 -51.5 -15t-28.5 -43l-23 -166q-1 -5 -1 -9q0 -22 16 -35q19 -16 45 -16q24 0 49 13.5t39 43.5l116 -42q-19 -39 -45.5 -66t-56 -43.5t-60.5 -24t-59 -7.5z" />
    <glyph glyph-name="Dcaron" unicode="&#x10e;" horiz-adv-x="637" 
d="M316 906l46 -57l52 57h159l-146 -151h-144l-118 151h151zM379 708q52 0 99 -13.5t80.5 -41.5t49.5 -71q12 -30 12 -67q0 -17 -3 -37l-36 -252q-8 -60 -36.5 -102.5t-70 -70t-92 -40.5t-102.5 -13h-260l99 708h260zM300 148q24 0 46.5 4t41 13.5t30.5 24.5t15 36l36 252
q1 6 1 12q0 14 -6 26q-8 15 -23.5 25t-37 14.5t-45.5 4.5h-113l-58 -412h113z" />
    <glyph glyph-name="dcaron" unicode="&#x10f;" horiz-adv-x="514" 
d="M626 555h-104l48 153h120zM20 135q0 16 2 34l25 183q6 46 27 79.5t51 54.5t66 31.5t72 10.5q46 0 84 -18l28 197h140l-96 -678q-50 -18 -104 -28.5t-103 -10.5q-41 0 -78.5 8t-64.5 28.5t-41 55.5q-8 22 -8 53zM279 417q-15 0 -30.5 -4t-28.5 -12.5t-22.5 -22
t-12.5 -31.5l-26 -176q-1 -8 -1 -15q0 -12 4 -22q5 -15 16 -24t27 -13t33 -4q28 0 52 11l42 300q-11 6 -23.5 9.5t-29.5 3.5z" />
    <glyph glyph-name="Dcroat" unicode="&#x110;" horiz-adv-x="654" 
d="M417 708q52 0 95.5 -13t73 -40.5t42.5 -70.5q8 -25 8 -57q0 -21 -4 -46l-36 -255q-8 -60 -33 -102.5t-62 -70t-84 -40.5t-99 -13h-282l40 286h-66l18 128h66l41 294h282zM338 148q48 0 76.5 17.5t34.5 60.5l36 255q1 9 1 17q0 31 -18 44q-24 18 -72 18h-134l-20 -146h128
l-18 -128h-128l-20 -138h134z" />
    <glyph glyph-name="dcroat" unicode="&#x111;" horiz-adv-x="511" 
d="M20 135q0 16 2 34l25 183q6 46 27 79.5t51 54.5t66 31.5t72 10.5q46 0 84 -18l9 61h-98l15 84h95l7 52h140l-7 -52h55l-15 -84h-52l-77 -542q-50 -18 -104 -28.5t-103 -10.5q-41 0 -78.5 8t-64.5 28.5t-41 55.5q-8 22 -8 53zM279 417q-15 0 -30.5 -4t-28.5 -12.5
t-22.5 -22t-12.5 -31.5l-26 -176q-1 -8 -1 -15q0 -12 4 -22q5 -15 16 -24t27 -13t33 -4q28 0 52 11l42 300q-11 6 -23.5 9.5t-29.5 3.5z" />
    <glyph glyph-name="Emacron" unicode="&#x112;" horiz-adv-x="584" 
d="M204 771l16 117h309l-16 -117h-309zM227 426h305l-20 -143h-305l-19 -140h332l-20 -143h-480l99 709h480l-20 -144h-332z" />
    <glyph glyph-name="emacron" unicode="&#x113;" horiz-adv-x="478" 
d="M123 581l16 117h309l-16 -117h-309zM202 -10q-38 0 -73.5 11.5t-61.5 35t-39 57.5q-9 24 -9 53q0 13 2 28l23 162q7 47 29.5 83t55 60t71.5 36t78 12t74.5 -12t60.5 -36t37 -59q9 -22 9 -49q0 -15 -3 -32q-8 -54 -40.5 -88.5t-76.5 -51.5q-43 -16 -89 -16h-3
q-48 1 -86 16l-4 -25q-2 -16 3 -27.5t15.5 -19.5t25 -12t30.5 -4q28 0 56 11t45 31l79 -57q-48 -59 -103 -83t-106 -24zM244 286q27 0 52.5 14.5t28.5 40.5q1 5 1 9q0 10 -4 18q-5 12 -14.5 19t-21.5 10.5t-25 3.5q-27 0 -52 -17.5t-29 -45.5l-6 -41q33 -11 70 -11z" />
    <glyph glyph-name="Edotaccent" unicode="&#x116;" horiz-adv-x="584" 
d="M377 926q22 0 40 -9t28 -27q7 -14 7 -32q0 -7 -1 -15q-4 -26 -19 -43.5t-35 -26t-42 -8.5t-40 8.5t-29 26.5q-7 12 -7 29q0 7 1 14q4 27 19.5 45.5t35.5 28t42 9.5zM227 426h305l-20 -143h-305l-19 -140h332l-20 -143h-480l99 709h480l-20 -144h-332z" />
    <glyph glyph-name="edotaccent" unicode="&#x117;" horiz-adv-x="478" 
d="M296 736q22 0 40 -9t28 -27q7 -14 7 -32q0 -7 -1 -15q-4 -26 -19 -43.5t-35 -26t-42 -8.5t-40 8.5t-29 26.5q-7 12 -7 29q0 7 1 14q4 27 19.5 45.5t35.5 28t42 9.5zM202 -10q-38 0 -73.5 11.5t-61.5 35t-39 57.5q-9 24 -9 53q0 13 2 28l23 162q7 47 29.5 83t55 60
t71.5 36t78 12t74.5 -12t60.5 -36t37 -59q9 -22 9 -49q0 -15 -3 -32q-8 -54 -40.5 -88.5t-76.5 -51.5q-43 -16 -89 -16h-3q-48 1 -86 16l-4 -25q-2 -16 3 -27.5t15.5 -19.5t25 -12t30.5 -4q28 0 56 11t45 31l79 -57q-48 -59 -103 -83t-106 -24zM244 286q27 0 52.5 14.5
t28.5 40.5q1 5 1 9q0 10 -4 18q-5 12 -14.5 19t-21.5 10.5t-25 3.5q-27 0 -52 -17.5t-29 -45.5l-6 -41q33 -11 70 -11z" />
    <glyph glyph-name="Eogonek" unicode="&#x118;" horiz-adv-x="583" 
d="M452 -128q9 0 21 1.5t27 11.5l22 -78q-35 -32 -68.5 -41.5t-62.5 -9.5q-48 0 -73.5 23.5t-27.5 59.5q-1 4 -1 8q0 33 17 71q20 43 62 82h-349l99 709h480l-20 -144h-332l-20 -139h305l-20 -143h-305l-19 -140h332l-20 -143q-32 -25 -49 -48t-21.5 -41t2 -28.5t21.5 -10.5
z" />
    <glyph glyph-name="eogonek" unicode="&#x119;" horiz-adv-x="478" 
d="M231 112q28 0 56 11t45 31l79 -57q-30 -36 -62 -59q-33 -24 -52 -52.5t-25 -53.5q-3 -13 -3 -23.5t3 -19.5q6 -17 21 -17q9 0 21 1.5t27 11.5l22 -78q-35 -32 -68.5 -41.5t-62.5 -9.5q-47 0 -70.5 22t-25.5 56v7q0 32 16 69q19 41 57 80h-7q-38 0 -73.5 11.5t-61.5 35
t-39 57.5q-9 24 -9 53q0 13 2 28l23 162q7 47 29.5 83t55 60t71.5 36t78 12t74.5 -12t60.5 -36t37 -59q9 -22 9 -49q0 -15 -3 -32q-8 -54 -40.5 -88.5t-76.5 -51.5q-43 -16 -89 -16h-3q-48 1 -86 16l-4 -25q-2 -16 3 -27.5t15.5 -19.5t25 -12t30.5 -4zM244 286
q27 0 52.5 14.5t28.5 40.5q1 5 1 9q0 10 -4 18q-5 12 -14.5 19t-21.5 10.5t-25 3.5q-27 0 -52 -17.5t-29 -45.5l-6 -41q33 -11 70 -11z" />
    <glyph glyph-name="Ecaron" unicode="&#x11a;" horiz-adv-x="584" 
d="M328 906l46 -57l52 57h159l-146 -151h-144l-118 151h151zM227 426h305l-20 -143h-305l-19 -140h332l-20 -143h-480l99 709h480l-20 -144h-332z" />
    <glyph glyph-name="ecaron" unicode="&#x11b;" horiz-adv-x="478" 
d="M247 716l46 -57l52 57h159l-146 -151h-144l-118 151h151zM202 -10q-38 0 -73.5 11.5t-61.5 35t-39 57.5q-9 24 -9 53q0 13 2 28l23 162q7 47 29.5 83t55 60t71.5 36t78 12t74.5 -12t60.5 -36t37 -59q9 -22 9 -49q0 -15 -3 -32q-8 -54 -40.5 -88.5t-76.5 -51.5
q-43 -16 -89 -16h-3q-48 1 -86 16l-4 -25q-2 -16 3 -27.5t15.5 -19.5t25 -12t30.5 -4q28 0 56 11t45 31l79 -57q-48 -59 -103 -83t-106 -24zM244 286q27 0 52.5 14.5t28.5 40.5q1 5 1 9q0 10 -4 18q-5 12 -14.5 19t-21.5 10.5t-25 3.5q-27 0 -52 -17.5t-29 -45.5l-6 -41
q33 -11 70 -11z" />
    <glyph glyph-name="Gbreve" unicode="&#x11e;" horiz-adv-x="628" 
d="M357 575q-24 0 -48 -6t-44 -18.5t-33.5 -31t-16.5 -42.5l-36 -249q-1 -6 -1 -12q0 -17 6 -30q9 -17 26 -29t39.5 -18t47.5 -6t49.5 6t45 18t34.5 29.5t17 41.5l4 33h-161l20 143h305l-24 -176q-9 -60 -39.5 -104.5t-74 -74.5t-96 -44.5t-104.5 -14.5q-51 0 -98 15.5
t-81.5 45t-51.5 73.5q-12 31 -12 68q0 17 3 36l36 257q8 58 37.5 101.5t72.5 73t94.5 44t103.5 14.5q36 0 71 -8t65 -25.5t54 -46t38 -70.5l-128 -71q-11 40 -45 59t-75 19zM377 752h-3q-44 1 -79 18.5t-55 51.5q-15 25 -15 59q0 12 2 25h127q-1 -4 -1 -9q0 -14 9 -23
q11 -11 26 -11t29.5 10.5t17.5 32.5h128q-7 -53 -36.5 -87t-68.5 -51q-39 -16 -81 -16z" />
    <glyph glyph-name="gbreve" unicode="&#x11f;" horiz-adv-x="505" 
d="M295 567h-3q-44 1 -79 18.5t-55 51.5q-15 25 -15 59q0 12 2 25h127q-1 -4 -1 -9q0 -14 9 -23q11 -11 26 -11t29.5 10.5t17.5 32.5h128q-7 -53 -36.5 -87t-69.5 -51q-38 -16 -80 -16zM169 -207q-54 0 -103 21.5t-79 63.5l81 73q15 -17 41 -26t53 -9q39 0 68.5 19t37.5 68
q-21 -6 -41.5 -9.5t-40.5 -3.5q-37 0 -70 10.5t-56 31.5t-34 52q-8 21 -8 46q0 14 2 28l29 196q7 48 29.5 81t55.5 54t73 30t82 9h8q49 0 95 -12q49 -12 87 -32l-69 -476q-10 -63 -33 -104t-55.5 -66t-71.5 -35t-81 -10zM278 422q-36 0 -63 -16t-32 -49l-28 -190
q-1 -6 -1 -12q0 -26 18 -38q22 -15 57 -15q31 0 57 13l43 297q-21 10 -51 10z" />
    <glyph glyph-name="Gdotaccent" unicode="&#x120;" horiz-adv-x="628" 
d="M357 575q-24 0 -48 -6t-44 -18.5t-33.5 -31t-16.5 -42.5l-36 -249q-1 -6 -1 -12q0 -17 6 -30q9 -17 26 -29t39.5 -18t47.5 -6t49.5 6t45 18t34.5 29.5t17 41.5l4 33h-161l20 143h305l-24 -176q-9 -60 -39.5 -104.5t-74 -74.5t-96 -44.5t-104.5 -14.5q-51 0 -98 15.5
t-81.5 45t-51.5 73.5q-12 31 -12 68q0 17 3 36l36 257q8 58 37.5 101.5t72.5 73t94.5 44t103.5 14.5q36 0 71 -8t65 -25.5t54 -46t38 -70.5l-128 -71q-11 40 -45 59t-75 19zM385 926q22 0 40 -9t28 -27q7 -14 7 -32q0 -7 -1 -15q-4 -26 -19 -43.5t-35 -26t-42 -8.5t-40 8.5
t-29 26.5q-7 12 -7 29q0 7 1 14q4 27 19.5 45.5t35.5 28t42 9.5z" />
    <glyph glyph-name="gdotaccent" unicode="&#x121;" horiz-adv-x="505" 
d="M307 736q22 0 40 -9t28 -27q7 -14 7 -32q0 -7 -1 -15q-4 -26 -19 -43.5t-35 -26t-42 -8.5t-40 8.5t-29 26.5q-7 12 -7 29q0 7 1 14q4 27 19.5 45.5t35.5 28t42 9.5zM169 -207q-54 0 -103 21.5t-79 63.5l81 73q15 -17 41 -26t53 -9q39 0 68.5 19t37.5 68
q-21 -6 -41.5 -9.5t-40.5 -3.5q-37 0 -70 10.5t-56 31.5t-34 52q-8 21 -8 46q0 14 2 28l29 196q7 48 29.5 81t55.5 54t73 30t82 9h8q49 0 95 -12q49 -12 87 -32l-69 -476q-10 -63 -33 -104t-55.5 -66t-71.5 -35t-81 -10zM278 422q-36 0 -63 -16t-32 -49l-28 -190
q-1 -6 -1 -12q0 -26 18 -38q22 -15 57 -15q31 0 57 13l43 297q-21 10 -51 10z" />
    <glyph glyph-name="Gcommaaccent" unicode="&#x122;" horiz-adv-x="628" 
d="M357 575q-24 0 -48 -6t-44 -18.5t-33.5 -31t-16.5 -42.5l-36 -249q-1 -6 -1 -12q0 -17 6 -30q9 -17 26 -29t39.5 -18t47.5 -6t49.5 6t45 18t34.5 29.5t17 41.5l4 33h-161l20 143h305l-24 -176q-9 -60 -39.5 -104.5t-74 -74.5t-96 -44.5t-104.5 -14.5q-51 0 -98 15.5
t-81.5 45t-51.5 73.5q-12 31 -12 68q0 17 3 36l36 257q8 58 37.5 101.5t72.5 73t94.5 44t103.5 14.5q36 0 71 -8t65 -25.5t54 -46t38 -70.5l-128 -71q-11 40 -45 59t-75 19zM284 -254h-137l56 183h153z" />
    <glyph glyph-name="gcommaaccent" unicode="&#x123;" horiz-adv-x="505" 
d="M294 737h130l-59 -163h-156zM169 -207q-54 0 -103 21.5t-79 63.5l81 73q15 -17 41 -26t53 -9q39 0 68.5 19t37.5 68q-21 -6 -41.5 -9.5t-40.5 -3.5q-37 0 -70 10.5t-56 31.5t-34 52q-8 21 -8 46q0 14 2 28l29 196q7 48 29.5 81t55.5 54t73 30t82 9h8q49 0 95 -12
q49 -12 87 -32l-69 -476q-10 -63 -33 -104t-55.5 -66t-71.5 -35t-81 -10zM278 422q-36 0 -63 -16t-32 -49l-28 -190q-1 -6 -1 -12q0 -26 18 -38q22 -15 57 -15q31 0 57 13l43 297q-21 10 -51 10z" />
    <glyph glyph-name="Hbar" unicode="&#x126;" horiz-adv-x="697" 
d="M656 519l-73 -519h-147l39 280h-261l-39 -280h-147l73 519h-61l13 94h61l13 95h147l-13 -95h261l13 95h147l-13 -95h61l-13 -94h-61zM248 519l-13 -92h261l13 92h-261z" />
    <glyph glyph-name="hbar" unicode="&#x127;" horiz-adv-x="517" 
d="M309 528q37 0 69.5 -12t55.5 -35t34 -58q7 -23 7 -50q0 -15 -2 -31l-48 -342h-138l48 343q2 16 -3 27t-15 18t-24 10.5t-29 3.5q-34 0 -59 -14l-55 -388h-139l80 572h-61l13 86h60l7 50h139l-7 -50h99l-13 -86h-98l-8 -60q42 16 87 16z" />
    <glyph glyph-name="Imacron" unicode="&#x12a;" horiz-adv-x="272" 
d="M72 771l19 135h249l-19 -135h-249zM167 0h-147l99 708h147z" />
    <glyph glyph-name="imacron" unicode="&#x12b;" horiz-adv-x="250" 
d="M39 581l19 135h239l-19 -135h-239zM153 0h-142l72 517h142z" />
    <glyph glyph-name="Iogonek" unicode="&#x12e;" horiz-adv-x="272" 
d="M118 -128q18 0 38 13l32 -64q-35 -32 -68.5 -46t-62.5 -14q-48 0 -72 23q-25 24 -25 62q0 34 21 74q21 42 63 80h-22l99 708h147l-99 -708h-17q-31 -29 -47 -53t-19 -40.5t5.5 -25.5t26.5 -9z" />
    <glyph glyph-name="iogonek" unicode="&#x12f;" horiz-adv-x="246" 
d="M181 727q38 0 57 -24q16 -19 16 -45q0 -7 -1 -14q-5 -35 -31.5 -59.5t-64.5 -24.5q-17 0 -31 6.5t-23.5 18t-13.5 26.5q-3 10 -3 21q0 6 1 12q3 18 11.5 33t21 26t28.5 17.5t33 6.5zM69 -102q0 -26 33 -26q18 0 38 13l32 -64q-35 -32 -68.5 -46t-62.5 -14q-48 0 -70 23
t-22 58.5t20.5 77.5t58.5 80h-16l72 519h139l-72 -519h-13q-63 -60 -68 -94q-1 -4 -1 -8z" />
    <glyph glyph-name="Idotaccent" unicode="&#x130;" horiz-adv-x="272" 
d="M211 926q22 0 40 -9t28 -27q7 -14 7 -32q0 -7 -1 -15q-4 -26 -19 -43.5t-35 -26t-42 -8.5t-40 8.5t-29 26.5q-7 12 -7 29q0 7 1 14q4 27 19.5 45.5t35.5 28t42 9.5zM167 0h-147l99 708h147z" />
    <glyph glyph-name="dotlessi" unicode="&#x131;" horiz-adv-x="249" 
d="M153 0h-142l72 517h142z" />
    <glyph glyph-name="IJ" unicode="&#x132;" horiz-adv-x="869" 
d="M512 -10q-44 0 -88 14t-79 43.5t-57 73.5q-20 42 -20 99v5l142 28q1 -30 11 -52t26 -37t35.5 -22.5t40.5 -7.5q22 0 44 5.5t40.5 17t31.5 30t16 45.5l47 337h-167l20 139h315l-68 -486q-8 -58 -36 -101.5t-67.5 -72.5t-88 -43.5t-98.5 -14.5zM167 0h-147l99 708h147z" />
    <glyph glyph-name="ij" unicode="&#x133;" horiz-adv-x="493" 
d="M428 727q35 0 56 -24q17 -19 17 -47q0 -6 -1 -13q-3 -17 -11.5 -32.5t-21.5 -26.5t-29 -17.5t-34 -6.5q-35 0 -56 24q-16 19 -16 46q0 6 1 13q3 18 11.5 33.5t21.5 26.5t29 17.5t33 6.5zM189 -76q16 0 27 4q14 6 22.5 16.5t12 23t5.5 23.5l74 528h139l-74 -528
q-6 -42 -23 -79t-46 -61.5t-70 -34.5q-19 -5 -41 -5q-24 0 -52 6l15 107h11zM180 727q38 0 58 -24q15 -19 15 -45q0 -7 -1 -14q-5 -35 -31.5 -59.5t-64.5 -24.5q-17 0 -31 6.5t-23.5 18t-13.5 26.5q-3 10 -3 21q0 6 1 12q3 18 11.5 33t21 26t28.5 17.5t33 6.5zM150 0h-142
l72 517h142z" />
    <glyph glyph-name="Kcommaaccent" unicode="&#x136;" horiz-adv-x="633" 
d="M303 -254h-137l56 183h153zM518 708h179l-353 -347l254 -361h-182l-185 263l-31 -27l-33 -236h-147l99 708h147l-41 -295z" />
    <glyph glyph-name="kcommaaccent" unicode="&#x137;" horiz-adv-x="508" 
d="M237 -254h-137l56 183h153zM372 518h162l-241 -250q40 -65 85.5 -135t84.5 -133h-161l-117 189l-10 -8l-25 -181h-139l99 707h139l-54 -385z" />
    <glyph glyph-name="Lacute" unicode="&#x139;" horiz-adv-x="529" 
d="M238 756h-148l110 150h181zM119 708h147l-79 -560h306l-20 -148h-453z" />
    <glyph glyph-name="lacute" unicode="&#x13a;" horiz-adv-x="277" 
d="M218 757h-148l110 150h181zM184 -12q-30 0 -54 8q-40 13 -64 40t-32 66q-5 22 -5 45q0 17 3 35l75 526h139l-75 -526q-1 -6 -1 -12q0 -22 14 -38q18 -21 61 -21l-17 -119q-24 -4 -44 -4z" />
    <glyph glyph-name="Lcommaaccent" unicode="&#x13b;" horiz-adv-x="529" 
d="M258 -254h-137l56 183h153zM119 708h147l-79 -560h306l-20 -148h-453z" />
    <glyph glyph-name="lcommaaccent" unicode="&#x13c;" horiz-adv-x="277" 
d="M145 -254h-137l56 183h153zM184 -12q-30 0 -54 8q-40 13 -64 40t-32 66q-5 22 -5 45q0 17 3 35l75 526h139l-75 -526q-1 -6 -1 -12q0 -22 14 -38q18 -21 61 -21l-17 -119q-24 -4 -44 -4z" />
    <glyph glyph-name="Lcaron" unicode="&#x13d;" horiz-adv-x="530" 
d="M448 518h-124l66 190h140zM119 708h147l-79 -560h306l-20 -148h-453z" />
    <glyph glyph-name="lcaron" unicode="&#x13e;" horiz-adv-x="288" 
d="M366 538h-114l54 170h130zM184 -12q-30 0 -54 8q-40 13 -64 40t-32 66q-5 22 -5 45q0 17 3 35l75 526h139l-75 -526q-1 -6 -1 -12q0 -22 14 -38q18 -21 61 -21l-17 -119q-24 -4 -44 -4z" />
    <glyph glyph-name="Ldot" unicode="&#x13f;" horiz-adv-x="538" 
d="M399 488q36 0 58 -25q17 -20 17 -48q0 -6 -1 -13q-5 -37 -33.5 -62t-64.5 -25t-57 25q-17 20 -17 48q0 7 1 14q5 36 33 61t64 25zM119 708h147l-79 -560h306l-20 -148h-453z" />
    <glyph glyph-name="ldot" unicode="&#x140;" horiz-adv-x="365" 
d="M323 443q36 0 58 -25q17 -20 17 -48q0 -6 -1 -13q-5 -37 -33.5 -62t-64.5 -25t-57 25q-17 20 -17 48q0 7 1 14q5 36 33 61t64 25zM184 -12q-30 0 -54 8q-40 13 -64 40t-32 66q-5 22 -5 45q0 17 3 35l75 526h139l-75 -526q-1 -6 -1 -12q0 -22 14 -38q18 -21 61 -21
l-17 -119q-24 -4 -44 -4z" />
    <glyph glyph-name="Lslash" unicode="&#x141;" horiz-adv-x="557" 
d="M487 0h-439l36 259l-58 -25l-31 89l105 46l47 339h148l-38 -270l140 61l31 -92l-187 -80l-25 -178h291z" />
    <glyph glyph-name="lslash" unicode="&#x142;" horiz-adv-x="332" 
d="M253 122q13 0 32 5l-17 -123q-38 -9 -68 -9q-18 0 -33 3q-41 9 -64.5 34.5t-30.5 63.5q-5 21 -5 44q0 18 3 37l10 72l-57 -22l-25 71l95 39l48 343h138l-40 -283l76 31l24 -80l-113 -43l-18 -128q-1 -10 0.5 -22t9.5 -20.5t24 -11.5q5 -1 11 -1z" />
    <glyph glyph-name="Nacute" unicode="&#x143;" horiz-adv-x="680" 
d="M441 756h-148l110 150h181zM527 708h147l-99 -708h-157l-164 372l-30 96h-4l-4 -123l-48 -345h-148l99 708h145l170 -386l35 -126h3l4 150z" />
    <glyph glyph-name="nacute" unicode="&#x144;" horiz-adv-x="515" 
d="M342 576h-148l110 150h181zM272 528q44 0 83 -10.5t67.5 -33t41.5 -58.5q9 -24 9 -54q0 -16 -2 -33l-48 -339h-138l46 331q1 7 1 13q0 25 -18 39q-21 17 -51 17q-32 0 -60 -14l-54 -386h-139l68 483q46 21 96 33t98 12z" />
    <glyph glyph-name="Ncommaaccent" unicode="&#x145;" horiz-adv-x="680" 
d="M309 -254h-137l56 183h153zM527 708h147l-99 -708h-157l-164 372l-30 96h-4l-4 -123l-48 -345h-148l99 708h145l170 -386l35 -126h3l4 150z" />
    <glyph glyph-name="ncommaaccent" unicode="&#x146;" horiz-adv-x="515" 
d="M228 -254h-137l56 183h153zM272 528q44 0 83 -10.5t67.5 -33t41.5 -58.5q9 -24 9 -54q0 -16 -2 -33l-48 -339h-138l46 331q1 7 1 13q0 25 -18 39q-21 17 -51 17q-32 0 -60 -14l-54 -386h-139l68 483q46 21 96 33t98 12z" />
    <glyph glyph-name="Ncaron" unicode="&#x147;" horiz-adv-x="680" 
d="M365 906l46 -57l52 57h159l-146 -151h-144l-118 151h151zM527 708h147l-99 -708h-157l-164 372l-30 96h-4l-4 -123l-48 -345h-148l99 708h145l170 -386l35 -126h3l4 150z" />
    <glyph glyph-name="ncaron" unicode="&#x148;" horiz-adv-x="515" 
d="M266 726l46 -57l52 57h159l-146 -151h-144l-118 151h151zM272 528q44 0 83 -10.5t67.5 -33t41.5 -58.5q9 -24 9 -54q0 -16 -2 -33l-48 -339h-138l46 331q1 7 1 13q0 25 -18 39q-21 17 -51 17q-32 0 -60 -14l-54 -386h-139l68 483q46 21 96 33t98 12z" />
    <glyph glyph-name="Eng" unicode="&#x14a;" horiz-adv-x="679" 
d="M392 -189q-24 0 -52 6l15 107h11q16 0 26 4q15 6 23.5 16.5t12 23t5.5 23.5l1 9h-17l-164 372l-30 96l-10 -2l2 -121l-48 -345h-148l99 708h145l170 -386l32 -128l10 2q0 17 -0.5 40.5t-0.5 46t0.5 40t0.5 23.5l51 362h147l-100 -717q-6 -42 -23.5 -79t-46.5 -61.5
t-69 -34.5q-20 -5 -42 -5z" />
    <glyph glyph-name="eng" unicode="&#x14b;" horiz-adv-x="514" 
d="M270 528q44 0 83 -10.5t67.5 -33t41.5 -58.5q9 -24 9 -54q0 -16 -2 -33l-48 -348q-6 -42 -23 -79t-46 -61.5t-70 -34.5q-19 -5 -41 -5q-24 0 -52 6l15 107h11q15 0 26 4q14 6 22.5 16.5t12.5 23t6 23.5l47 340q1 7 1 13q0 25 -18 39q-21 17 -51 17q-32 0 -60 -14
l-54 -386h-139l68 483q46 21 96 33t98 12z" />
    <glyph glyph-name="Omacron" unicode="&#x14c;" horiz-adv-x="668" 
d="M241 780l16 117h309l-16 -117h-309zM389 717h7q54 -1 103 -16t84.5 -44.5t54.5 -73.5q12 -31 12 -68q0 -16 -2 -34l-35 -255q-8 -59 -39.5 -103.5t-77 -74t-100 -44t-109.5 -14.5q-54 0 -103 15t-85.5 44.5t-54.5 73.5q-13 31 -13 69q0 16 2 34l35 255q8 60 39.5 104.5
t77.5 74t101 44.5q51 13 103 13zM176 211q0 -16 8 -29q9 -16 27.5 -27t43.5 -16.5t52 -5.5t53.5 5.5t48.5 17t37 28t18 38.5l39 263q1 6 1 11q0 16 -8 29q-9 17 -27.5 28t-43 16.5t-51.5 5.5t-54 -5.5t-49 -17t-37 -28.5t-18 -39l-39 -263q-1 -6 -1 -11z" />
    <glyph glyph-name="omacron" unicode="&#x14d;" horiz-adv-x="494" 
d="M134 591l16 117h309l-16 -117h-309zM279 528q39 0 74.5 -12t61 -35t38.5 -57q9 -24 9 -53q0 -13 -2 -28l-24 -169q-7 -47 -29.5 -81.5t-55 -57t-71 -34t-77.5 -11.5t-74.5 11.5t-62 34t-39.5 56.5q-8 23 -8 51q0 15 2 31l24 169q6 46 29 80.5t55.5 57.5t71.5 35t78 12z
M260 400q-25 0 -48.5 -13t-27.5 -38l-24 -176q-1 -4 -1 -7q0 -8 3 -16q5 -10 14 -17.5t21 -11.5t24 -4t24.5 4t23.5 11.5t18.5 18t9.5 22.5l24 176q1 3 1 7q0 8 -4 14q-5 10 -14 16.5t-20.5 10t-23.5 3.5z" />
    <glyph glyph-name="Ohungarumlaut" unicode="&#x150;" horiz-adv-x="668" 
d="M352 765h-137l79 150h180zM576 765h-137l76 150h180zM389 717h7q54 -1 103 -16t84.5 -44.5t54.5 -73.5q12 -31 12 -68q0 -16 -2 -34l-35 -255q-8 -59 -39.5 -103.5t-77 -74t-100 -44t-109.5 -14.5q-54 0 -103 15t-85.5 44.5t-54.5 73.5q-13 31 -13 69q0 16 2 34l35 255
q8 60 39.5 104.5t77.5 74t101 44.5q51 13 103 13zM176 211q0 -16 8 -29q9 -16 27.5 -27t43.5 -16.5t52 -5.5t53.5 5.5t48.5 17t37 28t18 38.5l39 263q1 6 1 11q0 16 -8 29q-9 17 -27.5 28t-43 16.5t-51.5 5.5t-54 -5.5t-49 -17t-37 -28.5t-18 -39l-39 -263q-1 -6 -1 -11z
" />
    <glyph glyph-name="ohungarumlaut" unicode="&#x151;" horiz-adv-x="494" 
d="M234 580h-122l70 134h160zM433 580h-122l68 134h159zM279 528q39 0 74.5 -12t61 -35t38.5 -57q9 -24 9 -53q0 -13 -2 -28l-24 -169q-7 -47 -29.5 -81.5t-55 -57t-71 -34t-77.5 -11.5t-74.5 11.5t-62 34t-39.5 56.5q-8 23 -8 51q0 15 2 31l24 169q6 46 29 80.5t55.5 57.5
t71.5 35t78 12zM260 400q-25 0 -48.5 -13t-27.5 -38l-24 -176q-1 -4 -1 -7q0 -8 3 -16q5 -10 14 -17.5t21 -11.5t24 -4t24.5 4t23.5 11.5t18.5 18t9.5 22.5l24 176q1 3 1 7q0 8 -4 14q-5 10 -14 16.5t-20.5 10t-23.5 3.5z" />
    <glyph glyph-name="OE" unicode="&#x152;" horiz-adv-x="847" 
d="M27 166q0 18 4 37l42 298q7 51 34 91.5t64.5 68.5t82.5 42.5t88 14.5q34 -1 64 -11t53 -31l5 31h397l-21 -148h-261l-19 -133h234l-20 -147h-234l-19 -132h261l-20 -147h-397l3 31q-34 -21 -69 -30.5t-70 -10.5q-45 0 -84.5 15t-67.5 43t-41 68q-9 23 -9 50zM309 118
q18 0 38 5t37 22l57 408q-16 16 -40.5 26t-52.5 10q-22 0 -44 -6.5t-39.5 -18t-29.5 -28t-15 -36.5l-41 -295q-1 -5 -1 -10q0 -17 8 -29q10 -17 28.5 -27.5t43 -15.5t51.5 -5z" />
    <glyph glyph-name="oe" unicode="&#x153;" horiz-adv-x="756" 
d="M478 -9q-17 0 -35 1t-35.5 7t-33 17.5t-26.5 32.5q-35 -37 -71.5 -47.5t-74.5 -11.5q-39 0 -74.5 11.5t-62 34t-39.5 56.5q-8 23 -8 51q0 15 2 31l25 170q7 46 29.5 80.5t55 57.5t71.5 34.5t78 11.5q38 -1 74 -15.5t56 -48.5q32 36 69.5 50t75.5 14q39 0 75 -11t61.5 -34
t38.5 -59q8 -23 8 -51q0 -16 -2 -33q-8 -54 -41 -88.5t-78 -51.5q-43 -16 -90 -16h-2q-49 1 -87 16l-4 -25q-1 -5 -1 -10q0 -22 17 -35q20 -15 49 -17h9q25 0 51 9q32 10 50 32l79 -57q-48 -59 -103 -82.5t-106 -23.5zM261 401q-25 0 -48.5 -13t-27.5 -38l-25 -177
q-1 -4 -1 -7q0 -8 3 -16q5 -10 14 -17.5t21 -11.5t24 -4t24 4t22.5 11t18.5 16.5t10 21.5l1 3l24 170l1 9q1 12 -4 21t-14 15.5t-20 9.5t-23 3zM520 289q27 0 52.5 13t28.5 39q1 4 1 7q0 9 -4 17q-5 11 -14.5 19t-21.5 12.5t-25 4.5q-27 0 -52 -17.5t-29 -45.5l-5 -38
q33 -11 69 -11z" />
    <glyph glyph-name="Racute" unicode="&#x154;" horiz-adv-x="633" 
d="M393 756h-148l110 150h181zM398 708q53 0 97 -12.5t74 -40t43 -70.5q9 -28 9 -64q0 -19 -2 -39q-14 -98 -63 -148t-128 -65l174 -269h-181l-165 259h-52l-36 -259h-148l99 708h279zM354 393q49 0 80 20.5t38 67.5q1 8 1 15q0 12 -3 22q-6 16 -19 25t-32 13t-42 4h-131
l-23 -167h131z" />
    <glyph glyph-name="racute" unicode="&#x155;" horiz-adv-x="339" 
d="M281 528q15 0 36 -3t38 -8l-16 -118q-21 6 -45 7q-4 1 -9 1q-19 0 -36 -5q-21 -7 -36.5 -22.5t-19.5 -42.5l-47 -337h-139l48 342q6 46 26.5 81t50.5 58t68.5 35t80.5 12zM304 576h-148l110 150h181z" />
    <glyph glyph-name="Rcommaaccent" unicode="&#x156;" horiz-adv-x="633" 
d="M302 -254h-137l56 183h153zM398 708q53 0 97 -12.5t74 -40t43 -70.5q9 -28 9 -64q0 -19 -2 -39q-14 -98 -63 -148t-128 -65l174 -269h-181l-165 259h-52l-36 -259h-148l99 708h279zM354 393q49 0 80 20.5t38 67.5q1 8 1 15q0 12 -3 22q-6 16 -19 25t-32 13t-42 4h-131
l-23 -167h131z" />
    <glyph glyph-name="rcommaaccent" unicode="&#x157;" horiz-adv-x="339" 
d="M281 528q15 0 36 -3t38 -8l-16 -118q-21 6 -45 7q-4 1 -9 1q-19 0 -36 -5q-21 -7 -36.5 -22.5t-19.5 -42.5l-47 -337h-139l48 342q6 46 26.5 81t50.5 58t68.5 35t80.5 12zM88 -254h-137l56 183h153z" />
    <glyph glyph-name="Rcaron" unicode="&#x158;" horiz-adv-x="633" 
d="M317 906l46 -57l52 57h159l-146 -151h-144l-118 151h151zM398 708q53 0 97 -12.5t74 -40t43 -70.5q9 -28 9 -64q0 -19 -2 -39q-14 -98 -63 -148t-128 -65l174 -269h-181l-165 259h-52l-36 -259h-148l99 708h279zM354 393q49 0 80 20.5t38 67.5q1 8 1 15q0 12 -3 22
q-6 16 -19 25t-32 13t-42 4h-131l-23 -167h131z" />
    <glyph glyph-name="rcaron" unicode="&#x159;" horiz-adv-x="339" 
d="M281 528q15 0 36 -3t38 -8l-16 -118q-21 6 -45 7q-4 1 -9 1q-19 0 -36 -5q-21 -7 -36.5 -22.5t-19.5 -42.5l-47 -337h-139l48 342q6 46 26.5 81t50.5 58t68.5 35t80.5 12zM217 726l46 -57l52 57h159l-146 -151h-144l-118 151h151z" />
    <glyph glyph-name="Sacute" unicode="&#x15a;" horiz-adv-x="569" 
d="M390 766h-148l110 150h181zM269 132q45 0 73 18t36 55q1 7 1 14q0 14 -5 23q-9 15 -26.5 24.5t-42 14.5t-51.5 9q-41 6 -79 22.5t-66 44t-42 67.5q-9 24 -9 52q0 19 4 39q9 54 35.5 92t64 63t83 36.5t93.5 11.5q69 0 127 -28t102 -95l-121 -77q-23 31 -53 44.5t-65 13.5
q-21 0 -40.5 -3t-35.5 -10.5t-27 -20.5t-14 -33q-1 -7 -1 -13q0 -12 6 -22q8 -13 24 -21t37.5 -13t44.5 -10q45 -9 86.5 -22.5t71 -40.5t42.5 -71q8 -23 8 -55q0 -25 -5 -55q-9 -56 -35.5 -93.5t-65.5 -60t-87.5 -32.5t-101.5 -10q-35 0 -69 8.5t-65 25.5t-57 42t-44 59
l119 88q12 -20 29 -35t37.5 -25t42 -15.5t41.5 -5.5z" />
    <glyph glyph-name="sacute" unicode="&#x15b;" horiz-adv-x="424" 
d="M302 566h-148l110 150h181zM187.5 112q10.5 0 20.5 2q18 5 24 19q5 13 5 23t-3 18q-8 17 -43 25q-47 10 -77 30.5t-46 47t-19 57.5q-1 9 -1 18q0 21 5 42q14 60 64 96.5t128 37.5h6q33 0 73 -10q44 -12 79 -44l-83 -95q-10 11 -29.5 19.5t-40.5 10.5h-9q-16 0 -29 -5
q-18 -8 -23 -29q-1 -6 -1 -12q0 -15 9 -26q13 -15 51 -25q24 -6 49 -18t44.5 -31t29.5 -47q7 -20 7 -43q0 -12 -2 -25q-6 -42 -24 -72t-46 -49t-64 -28t-77 -9q-54 0 -99 19.5t-75 68.5l79 90q20 -22 45.5 -35.5t49.5 -18.5q12 -2 22.5 -2z" />
    <glyph glyph-name="Scedilla" unicode="&#x15e;" horiz-adv-x="569" 
d="M530 241q0 -25 -5 -55q-8 -45 -27 -78t-47 -56t-63.5 -37t-75.5 -20l-24 -40q33 -4 52.5 -21t25.5 -40q2 -11 2 -22q0 -13 -4 -28q-7 -26 -25.5 -48t-48.5 -36.5t-70 -14.5q-30 0 -66.5 11.5t-63.5 37.5l41 75q19 -14 38.5 -20t33.5 -6q21 0 30.5 11.5t6 24t-21.5 22.5
q-15 8 -38 8q-7 0 -15 -1l49 83q-32 2 -63.5 11.5t-59.5 26.5t-51.5 41t-39.5 55l119 88q12 -20 29 -35t37.5 -25t42 -15.5t41.5 -5.5q45 0 73 18t36 55q1 7 1 14q0 14 -5 23q-9 15 -26.5 24.5t-42 14.5t-51.5 9q-41 6 -79 22.5t-66 44t-42 67.5q-9 24 -9 52q0 19 4 39
q9 54 35.5 92t64 63t83 36.5t93.5 11.5q69 0 127 -28t102 -95l-121 -77q-23 31 -53 44.5t-65 13.5q-21 0 -40.5 -3t-35.5 -10.5t-27 -20.5t-14 -33q-1 -7 -1 -13q0 -12 6 -22q8 -13 24 -21t37.5 -13t44.5 -10q45 -9 86.5 -22.5t71 -40.5t42.5 -71q8 -23 8 -55z" />
    <glyph glyph-name="scedilla" unicode="&#x15f;" horiz-adv-x="425" 
d="M378 173q0 -12 -2 -25q-9 -67 -48 -103.5t-97 -48.5l-24 -40q33 -4 52.5 -21t24.5 -41q3 -10 3 -21q0 -13 -4 -28q-7 -26 -25.5 -48t-48.5 -36.5t-70 -14.5q-30 0 -66.5 11.5t-63.5 37.5l41 75q19 -14 38.5 -20t33.5 -6q21 0 30.5 11.5t6 24t-22.5 22.5q-14 8 -37 8
q-7 0 -15 -1l49 83q-44 5 -80 24.5t-62 61.5l79 90q20 -22 45.5 -35.5t49.5 -18.5q12 -2 22.5 -2t20.5 2q18 5 24 19q5 13 5 23t-3 18q-8 17 -43 25q-47 10 -77 30.5t-46 47t-19 57.5q-1 9 -1 18q0 21 5 42q14 60 64 96.5t128 37.5h6q33 0 73 -10q44 -12 79 -44l-83 -95
q-10 11 -29.5 19.5t-40.5 10.5h-9q-16 0 -29 -5q-18 -8 -23 -29q-1 -6 -1 -12q0 -15 9 -26q13 -15 51 -25q24 -6 49 -18t44.5 -31t29.5 -47q7 -20 7 -43z" />
    <glyph glyph-name="Scaron" unicode="&#x160;" horiz-adv-x="569" 
d="M314 916l46 -57l52 57h159l-146 -151h-144l-118 151h151zM269 132q45 0 73 18t36 55q1 7 1 14q0 14 -5 23q-9 15 -26.5 24.5t-42 14.5t-51.5 9q-41 6 -79 22.5t-66 44t-42 67.5q-9 24 -9 52q0 19 4 39q9 54 35.5 92t64 63t83 36.5t93.5 11.5q69 0 127 -28t102 -95
l-121 -77q-23 31 -53 44.5t-65 13.5q-21 0 -40.5 -3t-35.5 -10.5t-27 -20.5t-14 -33q-1 -7 -1 -13q0 -12 6 -22q8 -13 24 -21t37.5 -13t44.5 -10q45 -9 86.5 -22.5t71 -40.5t42.5 -71q8 -23 8 -55q0 -25 -5 -55q-9 -56 -35.5 -93.5t-65.5 -60t-87.5 -32.5t-101.5 -10
q-35 0 -69 8.5t-65 25.5t-57 42t-44 59l119 88q12 -20 29 -35t37.5 -25t42 -15.5t41.5 -5.5z" />
    <glyph glyph-name="scaron" unicode="&#x161;" horiz-adv-x="424" 
d="M226 716l46 -57l52 57h159l-146 -151h-144l-118 151h151zM187.5 112q10.5 0 20.5 2q18 5 24 19q5 13 5 23t-3 18q-8 17 -43 25q-47 10 -77 30.5t-46 47t-19 57.5q-1 9 -1 18q0 21 5 42q14 60 64 96.5t128 37.5h6q33 0 73 -10q44 -12 79 -44l-83 -95q-10 11 -29.5 19.5
t-40.5 10.5h-9q-16 0 -29 -5q-18 -8 -23 -29q-1 -6 -1 -12q0 -15 9 -26q13 -15 51 -25q24 -6 49 -18t44.5 -31t29.5 -47q7 -20 7 -43q0 -12 -2 -25q-6 -42 -24 -72t-46 -49t-64 -28t-77 -9q-54 0 -99 19.5t-75 68.5l79 90q20 -22 45.5 -35.5t49.5 -18.5q12 -2 22.5 -2z" />
    <glyph glyph-name="Tcommaaccent" unicode="&#x162;" horiz-adv-x="583" 
d="M259 -254h-137l56 183h153zM49 0zM400 561l-78 -561h-148l78 561h-203l21 148h554l-21 -148h-203z" />
    <glyph glyph-name="tcommaaccent" unicode="&#x163;" horiz-adv-x="317" 
d="M149 -243h-125l52 180h140zM166 -9q-36 0 -63.5 12t-45.5 36t-24.5 59.5t0.5 82.5l65 462h126l-7 -125h94l-17 -125h-94l-29 -211q-7 -45 19 -65t78 -10l-15 -101q-48 -15 -87 -15zM24 0z" />
    <glyph glyph-name="Tcaron" unicode="&#x164;" horiz-adv-x="583" 
d="M316 906l46 -57l52 57h159l-146 -151h-144l-118 151h151zM400 561l-78 -561h-148l78 561h-203l21 148h554l-21 -148h-203z" />
    <glyph glyph-name="tcaron" unicode="&#x165;" horiz-adv-x="316" 
d="M383 555h-112l48 153h128zM166 -9q-36 0 -63.5 12t-45.5 36t-25 59q-3 18 -3 37q0 22 4 46l65 462h126l-7 -125h94l-17 -125h-94l-29 -211q-1 -10 -1 -18q0 -31 20 -47q17 -13 46 -13q15 0 32 3l-15 -101q-48 -15 -87 -15z" />
    <glyph glyph-name="Tbar" unicode="&#x166;" horiz-adv-x="589" 
d="M378 373h93l-17 -105h-91l-37 -268h-148l37 268h-93l17 105h91l26 188h-203l21 148h554l-21 -148h-203z" />
    <glyph glyph-name="tbar" unicode="&#x167;" horiz-adv-x="335" 
d="M188 164q0 -31 20 -47q17 -13 46 -13q15 0 32 3l-15 -101q-48 -15 -87 -15q-36 0 -63.5 12t-45.5 36t-25 59q-3 18 -3 37q0 22 4 46l8 53h-58l13 89h57l45 320h126l-5 -125h85l-17 -125h-85l-10 -70h79l-13 -89h-79l-8 -52q-1 -10 -1 -18z" />
    <glyph glyph-name="Umacron" unicode="&#x16a;" horiz-adv-x="671" 
d="M237 771l16 117h309l-16 -117h-309zM194 217q0 -16 6 -29q9 -19 25.5 -31t39.5 -18t48 -6q24 0 48 6t43.5 18.5t33.5 31t17 43.5l67 476h148l-67 -476q-9 -61 -39.5 -106.5t-74 -75.5t-95.5 -45t-104 -15t-99.5 15.5t-82 45.5t-52.5 75q-12 32 -12 70q0 17 3 36l67 476
h148l-67 -476q-1 -8 -1 -15z" />
    <glyph glyph-name="umacron" unicode="&#x16b;" horiz-adv-x="517" 
d="M133 581l16 117h309l-16 -117h-309zM218 -10q-42 0 -79.5 9.5t-63.5 31.5t-39 59q-7 22 -7 51q0 18 3 39l48 338h139l-45 -324q-1 -5 -1 -10q0 -29 22 -46q25 -21 61 -21q11 0 22.5 1.5t22.5 5.5l55 394h138l-69 -490q-46 -16 -100 -27t-107 -11z" />
    <glyph glyph-name="Uring" unicode="&#x16e;" horiz-adv-x="671" 
d="M418 993q41 0 67 -17.5t37 -43.5q8 -21 8 -43q0 -7 -1 -15q-3 -30 -20 -56.5t-47 -44t-73 -17.5q-42 0 -68 17.5t-36 44.5q-8 19 -8 42v14q4 31 21.5 57.5t47.5 44t72 17.5zM410 924q-29 0 -45 -16q-17 -17 -17 -38q0 -16 11 -30q12 -15 39 -15t41.5 15.5t16.5 33.5v6
q0 15 -9 28q-12 16 -37 16zM194 217q0 -16 6 -29q9 -19 25.5 -31t39.5 -18t48 -6q24 0 48 6t43.5 18.5t33.5 31t17 43.5l67 476h148l-67 -476q-9 -61 -39.5 -106.5t-74 -75.5t-95.5 -45t-104 -15t-99.5 15.5t-82 45.5t-52.5 75q-12 32 -12 70q0 17 3 36l67 476h148l-67 -476
q-1 -8 -1 -15z" />
    <glyph glyph-name="uring" unicode="&#x16f;" horiz-adv-x="517" 
d="M314 803q41 0 67 -17.5t37 -43.5q8 -21 8 -43q0 -7 -1 -15q-3 -30 -20 -56.5t-47 -44t-73 -17.5q-42 0 -68 17.5t-36 44.5q-8 19 -8 42v14q4 31 21.5 57.5t47.5 44t72 17.5zM306 734q-29 0 -45 -16q-17 -17 -17 -38q0 -16 11 -30q12 -15 39 -15t41.5 15.5t16.5 33.5v6
q0 15 -9 28q-12 16 -37 16zM218 -10q-42 0 -79.5 9.5t-63.5 31.5t-39 59q-7 22 -7 51q0 18 3 39l48 338h139l-45 -324q-1 -5 -1 -10q0 -29 22 -46q25 -21 61 -21q11 0 22.5 1.5t22.5 5.5l55 394h138l-69 -490q-46 -16 -100 -27t-107 -11z" />
    <glyph glyph-name="Uhungarumlaut" unicode="&#x170;" horiz-adv-x="671" 
d="M348 756h-137l79 150h180zM572 756h-137l76 150h180zM194 217q0 -16 6 -29q9 -19 25.5 -31t39.5 -18t48 -6q24 0 48 6t43.5 18.5t33.5 31t17 43.5l67 476h148l-67 -476q-9 -61 -39.5 -106.5t-74 -75.5t-95.5 -45t-104 -15t-99.5 15.5t-82 45.5t-52.5 75q-12 32 -12 70
q0 17 3 36l67 476h148l-67 -476q-1 -8 -1 -15z" />
    <glyph glyph-name="uhungarumlaut" unicode="&#x171;" horiz-adv-x="517" 
d="M249 570h-129l75 141h169zM460 570h-129l72 141h170zM218 -10q-42 0 -79.5 9.5t-63.5 31.5t-39 59q-7 22 -7 51q0 18 3 39l48 338h139l-45 -324q-1 -5 -1 -10q0 -29 22 -46q25 -21 61 -21q11 0 22.5 1.5t22.5 5.5l55 394h138l-69 -490q-46 -16 -100 -27t-107 -11z" />
    <glyph glyph-name="Uogonek" unicode="&#x172;" horiz-adv-x="671" 
d="M306 -103q0 -25 33 -25q18 0 38 13l32 -64q-35 -32 -68.5 -46t-62.5 -14q-47 0 -70 22q-24 23 -24 59q0 33 18 72q19 40 55 78q-47 4 -88.5 21.5t-71 47.5t-43.5 73q-10 27 -10 60q0 18 3 38l67 476h148l-67 -476q-1 -8 -1 -15q0 -16 6 -29q9 -19 25.5 -31t39.5 -18
t48 -6q24 0 48 6t43.5 18.5t33.5 31t17 43.5l67 476h148l-67 -476q-6 -40 -21 -73t-37.5 -59.5t-51 -47t-60.5 -33.5q-24 -10 -46 -20t-39.5 -23.5t-28.5 -31.5q-13 -21 -13 -47z" />
    <glyph glyph-name="uogonek" unicode="&#x173;" horiz-adv-x="517" 
d="M218 -10q-42 0 -79.5 9.5t-63.5 31.5t-39 59q-7 22 -7 51q0 18 3 39l48 338h139l-45 -324q-1 -5 -1 -10q0 -29 22 -46q25 -21 61 -21q11 0 22.5 1.5t22.5 5.5l55 394h138l-69 -490l-29 -28q-63 -60 -68 -94q-1 -4 -1 -8q0 -26 33 -26q18 0 38 13l32 -64
q-35 -32 -68.5 -46t-62.5 -14q-47 0 -70 21.5t-25 55.5v5q0 31 18 69q18 40 54 77l-3 4q-27 -3 -55 -3z" />
    <glyph glyph-name="Wcircumflex" unicode="&#x174;" horiz-adv-x="920" 
d="M727 756h-128l-44 57l-60 -57h-140l158 150h113zM59 708h152l49 -370l-1 -165h9l47 166l128 271h119l48 -273l5 -171h9l43 171l155 371h151l-303 -708h-144l-53 273l-4 85h-8q-8 -24 -15 -43q-6 -17 -11 -31l-5 -12l-121 -272h-144z" />
    <glyph glyph-name="wcircumflex" unicode="&#x175;" horiz-adv-x="697" 
d="M576 566h-128l-44 57l-60 -57h-140l158 150h113zM248 0h-126l-89 518h137l26 -219l3 -125h1l31 126l96 218h101l34 -217l-3 -127h1l38 126l83 218h139l-228 -518h-127l-17 187l4 141h-3l-34 -141z" />
    <glyph glyph-name="Ycircumflex" unicode="&#x176;" horiz-adv-x="627" 
d="M565 756h-128l-44 57l-60 -57h-140l158 150h113zM197 0l38 271l-185 437h169l108 -296l192 296h171l-308 -437l-38 -271h-147z" />
    <glyph glyph-name="ycircumflex" unicode="&#x177;" horiz-adv-x="515" 
d="M478 566h-128l-44 57l-60 -57h-140l158 150h113zM179 -207q-54 0 -103 21.5t-79 63.5l81 73q15 -17 41 -26t53 -9q39 0 68.5 18.5t37.5 67.5q-21 -6 -42.5 -9.5t-41.5 -3.5q-37 0 -69.5 10.5t-56 31.5t-34.5 53q-7 20 -7 45q0 13 2 28l51 361h134l-49 -343
q-2 -15 3 -25.5t15.5 -17.5t24.5 -11t29 -4q16 0 31.5 3t28.5 10l55 388h140l-72 -510q-10 -63 -33 -104t-55.5 -66t-71.5 -35t-81 -10z" />
    <glyph glyph-name="Ydieresis" unicode="&#x178;" horiz-adv-x="627" 
d="M287 911q33 0 53 -23q16 -18 16 -44q0 -7 -1 -14q-2 -17 -10.5 -31t-20.5 -25t-27.5 -17t-31.5 -6q-35 0 -55 23q-16 18 -16 43q0 6 1 13q5 35 31.5 58t60.5 23zM509 911q36 0 57 -25q18 -20 18 -48q0 -6 -1 -13q-5 -37 -33.5 -62t-64.5 -25t-57 25q-17 20 -17 48
q0 7 1 14q5 36 33 61t64 25zM197 0l38 271l-185 437h169l108 -296l192 296h171l-308 -437l-38 -271h-147z" />
    <glyph glyph-name="Zacute" unicode="&#x179;" horiz-adv-x="594" 
d="M416 756h-148l110 150h181zM590 708l32 -67l-425 -508h339l-18 -133h-510l-25 67l424 508h-334l18 133h499z" />
    <glyph glyph-name="zacute" unicode="&#x17a;" horiz-adv-x="450" 
d="M315 566h-148l110 150h181zM413 518l34 -49l-265 -352h209l-16 -117h-359l-32 50l264 351h-196l14 117h347z" />
    <glyph glyph-name="Zdotaccent" unicode="&#x17b;" horiz-adv-x="594" 
d="M363 926q22 0 40 -9t28 -27q7 -14 7 -32q0 -7 -1 -15q-4 -26 -19 -43.5t-35 -26t-42 -8.5t-40 8.5t-29 26.5q-7 12 -7 29q0 7 1 14q4 27 19.5 45.5t35.5 28t42 9.5zM590 708l32 -67l-425 -508h339l-18 -133h-510l-25 67l424 508h-334l18 133h499z" />
    <glyph glyph-name="zdotaccent" unicode="&#x17c;" horiz-adv-x="450" 
d="M288 736q22 0 40 -9t28 -27q7 -14 7 -32q0 -7 -1 -15q-4 -26 -19 -43.5t-35 -26t-42 -8.5t-40 8.5t-29 26.5q-7 12 -7 29q0 7 1 14q4 27 19.5 45.5t35.5 28t42 9.5zM413 518l34 -49l-265 -352h209l-16 -117h-359l-32 50l264 351h-196l14 117h347z" />
    <glyph glyph-name="Zcaron" unicode="&#x17d;" horiz-adv-x="594" 
d="M314 906l46 -57l52 57h159l-146 -151h-144l-118 151h151zM590 708l32 -67l-425 -508h339l-18 -133h-510l-25 67l424 508h-334l18 133h499z" />
    <glyph glyph-name="zcaron" unicode="&#x17e;" horiz-adv-x="450" 
d="M239 716l46 -57l52 57h159l-146 -151h-144l-118 151h151zM413 518l34 -49l-265 -352h209l-16 -117h-359l-32 50l264 351h-196l14 117h347z" />
    <glyph glyph-name="florin" unicode="&#x192;" horiz-adv-x="398" 
d="M25 -5q11 0 22 5q22 11 28 49l54 281h-82v114h103l20 113q5 29 16 57.5t30.5 51.5t48.5 37.5t70 14.5q19 0 44 -7t56 -24l-48 -98q-16 8 -29 8q-11 0 -20 -6q-21 -13 -26 -45l-18 -102h80v-114h-100l-57 -310q-8 -46 -33 -78.5t-60 -47.5q-31 -14 -66 -14h-12
q-41 3 -81 27l32 94q15 -6 28 -6z" />
    <glyph glyph-name="Scommaaccent" unicode="&#x218;" horiz-adv-x="569" 
d="M247 -264h-137l56 183h153zM269 132q45 0 73 18t36 55q1 7 1 14q0 14 -5 23q-9 15 -26.5 24.5t-42 14.5t-51.5 9q-41 6 -79 22.5t-66 44t-42 67.5q-9 24 -9 52q0 19 4 39q9 54 35.5 92t64 63t83 36.5t93.5 11.5q69 0 127 -28t102 -95l-121 -77q-23 31 -53 44.5t-65 13.5
q-21 0 -40.5 -3t-35.5 -10.5t-27 -20.5t-14 -33q-1 -7 -1 -13q0 -12 6 -22q8 -13 24 -21t37.5 -13t44.5 -10q45 -9 86.5 -22.5t71 -40.5t42.5 -71q8 -23 8 -55q0 -25 -5 -55q-9 -56 -35.5 -93.5t-65.5 -60t-87.5 -32.5t-101.5 -10q-35 0 -69 8.5t-65 25.5t-57 42t-44 59
l119 88q12 -20 29 -35t37.5 -25t42 -15.5t41.5 -5.5z" />
    <glyph glyph-name="scommaaccent" unicode="&#x219;" horiz-adv-x="424" 
d="M183 -254h-137l56 183h153zM187.5 112q10.5 0 20.5 2q18 5 24 19q5 13 5 23t-3 18q-8 17 -43 25q-47 10 -77 30.5t-46 47t-19 57.5q-1 9 -1 18q0 21 5 42q14 60 64 96.5t128 37.5h6q33 0 73 -10q44 -12 79 -44l-83 -95q-10 11 -29.5 19.5t-40.5 10.5h-9q-16 0 -29 -5
q-18 -8 -23 -29q-1 -6 -1 -12q0 -15 9 -26q13 -15 51 -25q24 -6 49 -18t44.5 -31t29.5 -47q7 -20 7 -43q0 -12 -2 -25q-6 -42 -24 -72t-46 -49t-64 -28t-77 -9q-54 0 -99 19.5t-75 68.5l79 90q20 -22 45.5 -35.5t49.5 -18.5q12 -2 22.5 -2z" />
    <glyph glyph-name="uni021A" unicode="&#x21a;" horiz-adv-x="583" 
d="M259 -254h-137l56 183h153zM400 561l-78 -561h-148l78 561h-203l21 148h554l-21 -148h-203z" />
    <glyph glyph-name="uni021B" unicode="&#x21b;" horiz-adv-x="317" 
d="M149 -243h-125l52 180h140zM166 -9q-36 0 -63.5 12t-45.5 36t-25 59q-3 18 -3 37q0 22 4 46l65 462h126l-7 -125h94l-17 -125h-94l-29 -211q-1 -10 -1 -18q0 -31 20 -47q17 -13 46 -13q15 0 32 3l-15 -101q-48 -15 -87 -15z" />
    <glyph glyph-name="circumflex" unicode="&#x2c6;" horiz-adv-x="441" 
d="M514 756h-128l-44 57l-60 -57h-140l158 150h113z" />
    <glyph glyph-name="caron" unicode="&#x2c7;" horiz-adv-x="332" 
d="M197 906l46 -57l52 57h159l-146 -151h-144l-118 151h151z" />
    <glyph glyph-name="uni02C9" unicode="&#x2c9;" horiz-adv-x="323" 
d="M75 572l16 117h309l-16 -117h-309z" />
    <glyph glyph-name="breve" unicode="&#x2d8;" horiz-adv-x="287" 
d="M212 752h-3q-44 1 -79 18.5t-55 51.5q-15 25 -15 59q0 12 2 25h127q-1 -4 -1 -9q0 -14 9 -23q11 -11 26 -11t29.5 10.5t17.5 32.5h128q-7 -53 -36.5 -87t-69.5 -51q-38 -16 -80 -16z" />
    <glyph glyph-name="dotaccent" unicode="&#x2d9;" horiz-adv-x="240" 
d="M199 926q22 0 40 -9t28 -27q7 -14 7 -32q0 -7 -1 -15q-4 -26 -19 -43.5t-35 -26t-42 -8.5t-40 8.5t-29 26.5q-7 12 -7 29q0 7 1 14q4 27 19.5 45.5t35.5 28t42 9.5z" />
    <glyph glyph-name="ring" unicode="&#x2da;" horiz-adv-x="240" 
d="M145 993q41 0 67 -17.5t37 -43.5q8 -21 8 -43q0 -7 -1 -15q-3 -30 -20 -56.5t-47 -44t-73 -17.5q-42 0 -68 17.5t-36 44.5q-8 19 -8 42v14q4 31 21.5 57.5t47.5 44t72 17.5zM137 924q-29 0 -45 -16q-17 -17 -17 -38q0 -16 11 -30q12 -15 39 -15t41.5 15.5t16.5 33.5v6
q0 15 -9 28q-12 16 -37 16z" />
    <glyph glyph-name="ogonek" unicode="&#x2db;" horiz-adv-x="252" 
d="M188 -128q9 0 21 1.5t27 11.5l22 -78q-35 -32 -68.5 -41.5t-62.5 -9.5q-48 0 -72 24q-25 24 -25 61q0 35 22 77q21 44 63 83l109 -1q-32 -30 -47 -53.5t-18 -40t5.5 -25.5t23.5 -9z" />
    <glyph glyph-name="tilde" unicode="&#x2dc;" horiz-adv-x="305" 
d="M132 918q30 0 52.5 -12t40.5 -20q14 -6 27 -6h6q15 2 29 31l84 -46q-22 -59 -54.5 -84.5t-66.5 -25.5q-24 0 -47 13.5t-43 22.5q-15 6 -28 6q-5 0 -11 -1q-18 -4 -31 -38l-76 42q18 60 49 89t69 29z" />
    <glyph glyph-name="hungarumlaut" unicode="&#x2dd;" horiz-adv-x="487" 
d="M233 756h-137l79 150h180zM457 756h-137l76 150h180z" />
    <glyph glyph-name="uni0326" unicode="&#x326;" horiz-adv-x="0" 
d="M170 -254h-137l56 183h153z" />
    <glyph glyph-name="uni03A9" unicode="&#x3a9;" horiz-adv-x="775" 
d="M50 317q0 28 4 58q12 84 50 147t91.5 104.5t117.5 62.5t128 21q65 0 124.5 -21t102.5 -63t64 -104q14 -41 14 -90q0 -25 -4 -53q-11 -73 -45.5 -137t-88.5 -99h102l-20 -143h-314l15 108q58 17 102.5 58.5t71.5 93t34 106.5q2 17 2 33q0 36 -11 67q-16 46 -57 75.5
t-111 29.5q-65 0 -112.5 -29.5t-76.5 -75.5t-39 -102q-5 -26 -5 -51q0 -29 6 -55q11 -52 43.5 -93t87.5 -58l-15 -107h-314l20 143h100q-45 41 -59 100q-8 34 -8 74z" />
    <glyph glyph-name="uni03BC" unicode="&#x3bc;" horiz-adv-x="525" 
d="M220 -10q-21 0 -38 10q-18 11 -26 35l-31 -225h-140l98 708h142l-44 -316q-1 -8 -1 -16q0 -26 14 -40q17 -17 42 -17l1 1q25 0 48.5 18t28.5 52l44 318h142l-71 -518l-124 1l-6 32q-14 -20 -35 -31t-43 -12h-1z" />
    <glyph glyph-name="pi" unicode="&#x3c0;" horiz-adv-x="566" 
d="M300 125q0 17 3 36l32 220h-78l-54 -381h-138l53 377q-25 -4 -53 -14l-23 -1l-12 109q16 9 31.5 17.5t32.5 15t37 10.5t46 4h391l-32 -137h-61l-31 -216q-2 -15 6 -22q7 -5 24 -5h11l-19 -142q-54 3 -88.5 15.5t-52.5 34t-23 50.5q-2 14 -2 29z" />
    <glyph glyph-name="uni0401" unicode="&#x401;" horiz-adv-x="584" 
d="M277 911q33 0 53 -23q16 -18 16 -44q0 -7 -1 -14q-2 -17 -10.5 -31t-20.5 -25t-27.5 -17t-31.5 -6q-35 0 -55 23q-16 18 -16 43q0 6 1 13q5 35 31.5 58t60.5 23zM499 911q36 0 57 -25q18 -20 18 -48q0 -6 -1 -13q-5 -37 -33.5 -62t-64.5 -25t-57 25q-17 20 -17 48
q0 7 1 14q5 36 33 61t64 25zM227 426h305l-20 -143h-305l-19 -140h332l-20 -143h-480l99 709h480l-20 -144h-332z" />
    <glyph glyph-name="uni0410" unicode="&#x410;" horiz-adv-x="634" 
d="M597 0h-154l-40 162h-211l-81 -162h-157l347 708h141zM248 297h136l-23 154l-6 101h-11l-34 -102z" />
    <glyph glyph-name="uni0411" unicode="&#x411;" horiz-adv-x="617" 
d="M358 439q137 0 189 -53q40 -41 40 -114q0 -23 -4 -49q-8 -54 -31.5 -96t-60.5 -70t-85 -42.5t-105 -14.5h-282l100 708h475l-18 -128h-328l-20 -141h130zM319 132q54 0 83 23t37 75q1 10 1 19q0 33 -18 53q-22 25 -79 25h-131l-27 -195h134z" />
    <glyph glyph-name="uni0412" unicode="&#x412;" horiz-adv-x="624" 
d="M584 247v-12q-2 -28 -9 -55q-10 -36 -30.5 -68.5t-53.5 -57t-79 -39.5t-107 -15h-285l99 709h280q46 0 84.5 -13t65 -39.5t38.5 -65.5q8 -25 8 -54q0 -17 -3 -36q-2 -15 -8.5 -32.5t-17 -34.5t-25.5 -32t-34 -25q31 -16 48 -39t24 -49q5 -20 5 -42zM360 431q37 0 60.5 21
t28.5 46q1 6 1 11q0 19 -12 35q-17 21 -59 21h-133l-19 -134h133zM320 143q34 0 59 12t39 30t17 39q1 5 1 10q0 16 -7 29q-9 18 -30.5 30t-56.5 12h-133l-22 -162h133z" />
    <glyph glyph-name="uni0413" unicode="&#x413;" horiz-adv-x="515" 
d="M19 0l100 708h439l-20 -140h-292l-80 -568h-147z" />
    <glyph glyph-name="uni0414" unicode="&#x414;" horiz-adv-x="731" 
d="M502 -136l18 136h-398l-17 -136h-148l37 270h11q45 3 73.5 26.5t47.5 65.5t32.5 102t29.5 136l52 244h442l-80 -574h85l-37 -270h-148zM312 349q-14 -65 -31.5 -119t-49.5 -96h223l61 434h-158z" />
    <glyph glyph-name="uni0415" unicode="&#x415;" horiz-adv-x="584" 
d="M227 426h305l-20 -143h-305l-19 -140h332l-20 -143h-480l99 709h480l-20 -144h-332z" />
    <glyph glyph-name="uni0416" unicode="&#x416;" horiz-adv-x="941" 
d="M568 285l-31 -29l-36 -256h-148l37 256l-23 29l-232 -285h-184l317 364l-218 344h180l182 -297l41 297h148l-42 -297l265 297h180l-315 -344l215 -364h-185z" />
    <glyph glyph-name="uni0417" unicode="&#x417;" horiz-adv-x="564" 
d="M324 718q62 0 104.5 -16t68 -43.5t33.5 -64.5q5 -21 5 -44q0 -17 -2 -34q-7 -39 -30 -78t-63 -60q51 -28 69 -74q13 -33 13 -68q0 -13 -2 -27q-9 -57 -34 -98t-64 -68t-90 -40t-112 -13q-85 0 -146.5 34t-93.5 103l111 70q26 -38 58.5 -55.5t80.5 -17.5q59 0 96 21.5
t46 71.5q2 11 2 21q0 29 -18 48q-23 26 -85 26h-103l17 114h99q100 0 112 85q1 6 1 12q0 29 -21 46q-24 21 -74 21q-44 0 -76.5 -16.5t-61.5 -42.5l-88 72q51 60 111 87.5t137 27.5z" />
    <glyph glyph-name="uni0418" unicode="&#x418;" horiz-adv-x="687" 
d="M512 466l-5 1l-75 -116l-267 -351h-146l100 708h147l-53 -379l-26 -102l4 -1l73 114l276 368h141l-100 -708h-147l50 351z" />
    <glyph glyph-name="uni0419" unicode="&#x419;" horiz-adv-x="687" 
d="M409 756q-34 0 -64 10.5t-51.5 31.5t-31.5 52q-8 21 -8 47q0 12 2 25h120v-6q0 -20 11 -32q13 -14 38 -14t41 14t23 38h120q-8 -41 -27.5 -72t-46.5 -52t-60 -31.5t-66 -10.5zM512 466l-5 1l-75 -116l-267 -351h-146l100 708h147l-53 -379l-26 -102l4 -1l73 114l276 368
h141l-100 -708h-147l50 351z" />
    <glyph glyph-name="uni041A" unicode="&#x41a;" horiz-adv-x="637" 
d="M516 708h179l-353 -347l254 -361h-182l-185 263l-31 -27l-33 -236h-147l99 708h147l-41 -295z" />
    <glyph glyph-name="uni041B" unicode="&#x41b;" horiz-adv-x="689" 
d="M8 -1q-16 0 -32 1l20 138h10q39 0 66 20q29 24 48.5 68.5t33 105.5t28.5 132l50 244h452l-100 -708h-147l80 568h-167l-46 -219q-15 -73 -34.5 -139t-55 -114.5t-92.5 -75.5q-46 -21 -114 -21z" />
    <glyph glyph-name="uni041C" unicode="&#x41c;" horiz-adv-x="779" 
d="M416 93h-110l-66 228l-21 97h-10l-3 -137l-39 -281h-147l99 708h154l115 -407l231 407h154l-99 -708h-147l39 282l37 137h-11l-48 -99z" />
    <glyph glyph-name="uni041D" unicode="&#x41d;" horiz-adv-x="680" 
d="M167 0h-147l99 708h147l-39 -281h261l39 281h147l-99 -708h-147l39 280h-261z" />
    <glyph glyph-name="uni041E" unicode="&#x41e;" horiz-adv-x="667" 
d="M391 718q54 0 104.5 -15t87 -44.5t55.5 -73.5q13 -30 13 -67q0 -17 -3 -36l-36 -256q-8 -59 -38.5 -103t-75 -73.5t-99 -44.5t-110.5 -15q-55 0 -105 15t-86.5 44.5t-55.5 73.5q-12 31 -12 69q0 16 2 34l37 256q9 59 40 103.5t75.5 74t98.5 44t108 14.5zM177 215
q0 -17 7 -31q10 -19 28.5 -31.5t43 -18.5t50.5 -6q27 0 54 6t49 19t37.5 32t18.5 45l37 252q1 7 1 14q0 17 -7 30q-9 19 -27 31.5t-42.5 18.5t-51.5 6t-54 -6t-49.5 -18.5t-37.5 -31.5t-19 -44l-37 -256q-1 -6 -1 -11z" />
    <glyph glyph-name="uni041F" unicode="&#x41f;" horiz-adv-x="674" 
d="M119 708h549l-100 -708h-148l80 568h-254l-80 -568h-147z" />
    <glyph glyph-name="uni0420" unicode="&#x420;" horiz-adv-x="618" 
d="M398 708q63 0 107 -21t70.5 -55.5t36.5 -78.5q6 -28 6 -56q0 -17 -2 -34q-6 -48 -27 -91.5t-56 -76.5t-84.5 -52.5t-112.5 -19.5h-138l-32 -223h-146l99 708h279zM349 357q27 0 48.5 9t36.5 24t24 35t12 41q1 9 1 18q0 11 -2 22q-4 18 -15.5 32.5t-30 22.5t-44.5 8h-133
l-30 -212h133z" />
    <glyph glyph-name="uni0421" unicode="&#x421;" horiz-adv-x="585" 
d="M274 -10q-51 0 -98.5 15t-82.5 44.5t-52 73.5q-12 29 -12 65q0 18 3 38l38 257q9 58 39 102t73 73.5t94.5 44.5t104.5 15q35 0 70 -9t65 -28t53.5 -47.5t36.5 -67.5l-128 -68q-15 39 -50 57.5t-74 18.5q-24 0 -47.5 -6.5t-42.5 -18.5t-32.5 -29.5t-16.5 -40.5l-37 -253
q-1 -7 -1 -13q0 -14 5 -27q7 -17 22 -29t36 -18t44 -6q40 0 81 18.5t67 58.5l117 -71q-57 -75 -130.5 -112t-144.5 -37z" />
    <glyph glyph-name="uni0422" unicode="&#x422;" horiz-adv-x="581" 
d="M401 572l-78 -561h-148l78 561h-203l21 148h554l-21 -148h-203z" />
    <glyph glyph-name="uni0423" unicode="&#x423;" horiz-adv-x="575" 
d="M32 708h167l59 -186l35 -132h4l74 135l108 183h161l-420 -708h-157l136 228z" />
    <glyph glyph-name="uni0424" unicode="&#x424;" horiz-adv-x="778" 
d="M767 463q0 -17 -3 -37l-20 -144q-9 -61 -39.5 -103t-74.5 -68.5t-97.5 -38t-107.5 -11.5l-9 -61h-141l9 61q-54 0 -104.5 11.5t-87 38t-55.5 68.5q-13 29 -13 66q0 17 3 37l20 144q9 61 39.5 103t74.5 68t97.5 38t107.5 12l9 61h141l-9 -61q54 0 104.5 -12t87 -38
t55.5 -68q13 -28 13 -66zM173 266q0 -17 7 -29q9 -17 27 -27t43 -13.5t52 -3.5l46 323q-27 0 -53 -4t-47 -13.5t-35.5 -27t-18.5 -44.5l-20 -146q-1 -8 -1 -15zM618 442q0 17 -6 30q-10 17 -28.5 26.5t-43.5 13.5t-52 4l-45 -323q27 0 53 3.5t47 13.5t35.5 27t18.5 44
l20 146q1 8 1 15z" />
    <glyph glyph-name="uni0425" unicode="&#x425;" horiz-adv-x="632" 
d="M411 0l-107 250l-166 -250h-181l258 353l-157 355h179l96 -252l178 252h179l-274 -356l175 -352h-180z" />
    <glyph glyph-name="uni0426" unicode="&#x426;" horiz-adv-x="706" 
d="M472 -136l19 136h-473l100 708h147l-80 -568h246l80 568h147l-80 -568h80l-38 -276h-148z" />
    <glyph glyph-name="uni0427" unicode="&#x427;" horiz-adv-x="628" 
d="M261 206q-48 0 -89.5 14.5t-70.5 44t-43 73.5q-8 28 -8 61q0 20 3 42l38 267h147l-38 -267q-1 -9 -1 -18q0 -35 19 -53q25 -23 73 -23q44 0 79.5 11.5t58.5 31.5l46 318h147l-100 -708h-147l36 255q-26 -20 -65 -34.5t-85 -14.5z" />
    <glyph glyph-name="uni0428" unicode="&#x428;" horiz-adv-x="954" 
d="M266 708l-80 -568h193l80 568h148l-80 -568h193l80 568h148l-100 -708h-829l100 708h147z" />
    <glyph glyph-name="uni0429" unicode="&#x429;" horiz-adv-x="995" 
d="M761 -136l19 136h-762l100 708h147l-80 -568h193l80 568h148l-80 -568h193l80 568h148l-80 -568h80l-39 -276h-147z" />
    <glyph glyph-name="uni042A" unicode="&#x42a;" horiz-adv-x="700" 
d="M444 458q135 0 186 -58q39 -45 39 -120q0 -22 -3 -47q-8 -54 -31.5 -97t-60 -73t-84.5 -46.5t-105 -16.5h-283l80 569h-130l20 139h277l-35 -250h130zM402 132q54 0 83.5 27t36.5 76q2 12 2 22q0 34 -18 55q-23 26 -78 26h-131l-28 -206h133z" />
    <glyph glyph-name="uni042B" unicode="&#x42b;" horiz-adv-x="900" 
d="M794 0h-147l99 708h147zM362 458q134 0 186 -58q39 -45 39 -120q0 -22 -3 -47q-8 -54 -32 -97t-60.5 -73t-84.5 -46.5t-105 -16.5h-283l100 708h148l-36 -250h131zM319 132q54 0 83.5 27t36.5 76q2 12 2 22q0 34 -18 55q-23 26 -78 26h-131l-28 -206h133z" />
    <glyph glyph-name="uni042C" unicode="&#x42c;" horiz-adv-x="618" 
d="M362 458q134 0 186 -58q39 -45 39 -120q0 -22 -3 -47q-8 -54 -32 -97t-60.5 -73t-84.5 -46.5t-105 -16.5h-283l100 708h148l-36 -250h131zM319 132q54 0 83.5 27t36.5 76q2 12 2 22q0 34 -18 55q-23 26 -78 26h-131l-28 -206h133z" />
    <glyph glyph-name="uni042D" unicode="&#x42d;" horiz-adv-x="592" 
d="M327 718q52 0 100.5 -15t83.5 -45t53 -74q12 -31 12 -68q0 -17 -3 -35l-36 -254q-8 -59 -38 -103t-72.5 -73.5t-94.5 -44.5t-103 -15q-35 0 -70.5 9t-66.5 27.5t-56 48t-40 70.5l137 59q11 -38 45 -55.5t74 -17.5q24 0 47 6t42.5 18t32.5 30t16 41l9 66h-210l18 126h210
l9 62q1 7 1 13q0 16 -6 29q-8 18 -24.5 30.5t-39 19t-46.5 6.5q-39 0 -78 -17.5t-62 -52.5l-115 52q26 43 59 73t68.5 49t72 27t71.5 8z" />
    <glyph glyph-name="uni042E" unicode="&#x42e;" horiz-adv-x="956" 
d="M679 718q54 0 104.5 -15t87 -44.5t55.5 -73.5q13 -31 13 -69q0 -16 -2 -34l-36 -256q-8 -59 -39.5 -103t-76.5 -73.5t-99.5 -44.5t-108.5 -15t-104.5 15t-87 44.5t-55.5 73.5q-13 31 -13 69q0 17 2 34l10 64h-124l-41 -290h-147l100 708h147l-40 -283h124l8 57
q8 59 39 103.5t76 74t99 44t109 14.5zM660 578q-27 0 -54 -6.5t-48.5 -19t-36.5 -31.5t-19 -44l-35 -248q-1 -6 -1 -11q0 -17 8 -32q9 -18 27.5 -30.5t43.5 -19t52 -6.5t53.5 6t48.5 18.5t37 31t18 43.5l35 248q1 7 1 14q0 17 -7 31q-10 19 -28.5 31.5t-43 18.5t-51.5 6z
" />
    <glyph glyph-name="uni042F" unicode="&#x42f;" horiz-adv-x="639" 
d="M60 437q0 21 4 45q9 56 34 98.5t62.5 71t87 42.5t107.5 14h278l-100 -708h-148l37 255h-54l-245 -255h-185l269 272q-34 7 -63.5 22t-49.5 39.5t-29 60.5q-5 20 -5 43zM333 568q-51 0 -83.5 -22.5t-39.5 -72.5q-2 -11 -2 -20q0 -34 20 -53q24 -25 78 -25h133l27 193h-133
z" />
    <glyph glyph-name="uni0430" unicode="&#x430;" 
d="M183 -10q-35 0 -67 11.5t-55 34.5t-34 56q-7 22 -7 48q0 14 2 30l24 170q7 52 30.5 88t57.5 58.5t75 32t83 9.5q48 0 98.5 -14.5t91.5 -36.5l-65 -477h-114l-12 42q-21 -25 -50.5 -38.5t-57.5 -13.5zM280 406q-17 0 -33 -4q-23 -6 -41 -21t-21 -40l-23 -164q-1 -5 -1 -9
q0 -23 17 -36q20 -15 47 -15q23 0 41 5.5t32 13.5l36 257q-16 10 -40 13h-14z" />
    <glyph glyph-name="uni0431" unicode="&#x431;" horiz-adv-x="509" 
d="M316 487q39 0 70.5 -12t52 -34.5t29.5 -56.5q5 -20 5 -43q0 -16 -2 -33l-20 -138q-6 -45 -29 -79t-55.5 -56.5t-72 -33.5t-78.5 -11t-75.5 11t-63 33.5t-39.5 56.5q-10 24 -10 52q0 13 2 27l51 361q7 49 29.5 80.5t53 50t65 26.5t65.5 12q50 6 93 16t78 29l28 -105
q-34 -22 -76.5 -33.5t-82.5 -16.5q-18 -2 -37 -4t-35.5 -9t-28 -21t-15.5 -39l-8 -60q17 11 44 20.5t62 9.5zM271 367q-20 0 -40 -5.5t-37 -17.5l-24 -170q-1 -5 -1 -9q0 -22 17 -35q21 -14 48 -14q26 0 50 14.5t29 43.5l18 136q1 6 1 12q0 21 -15 32q-19 13 -46 13z" />
    <glyph glyph-name="uni0432" unicode="&#x432;" horiz-adv-x="514" 
d="M305 528q92 0 136 -38q36 -30 36 -79q0 -11 -2 -23q-6 -39 -26.5 -67.5t-49.5 -44.5q44 -23 55 -58q8 -23 8 -46q0 -14 -3 -29q-12 -77 -73 -115t-164 -38q-54 0 -108.5 10.5t-101.5 30.5l65 456q52 20 111.5 30.5t116.5 10.5zM284 424q-30 0 -46.5 -3t-32.5 -9l-16 -97
h79q29 0 47.5 15.5t22.5 40.5q1 5 1 9q0 17 -13 29q-15 15 -42 15zM238 97q36 0 58 16t26 45v7q0 19 -14 33q-17 18 -53 18h-79l-16 -106q14 -7 31 -10t47 -3z" />
    <glyph glyph-name="uni0433" unicode="&#x433;" horiz-adv-x="436" 
d="M253 528q39 0 70 -11t51 -30.5t29 -48.5q6 -18 6 -38q0 -12 -2 -24q-5 -37 -20.5 -64t-39.5 -46.5t-54.5 -32.5t-66.5 -21q-36 -9 -59.5 -19.5t-28.5 -36.5q-1 -5 -1 -9q0 -19 14 -28q17 -11 47 -11q62 0 122 47l63 -82q-47 -47 -100 -64.5t-113 -17.5q-37 0 -69.5 10
t-55.5 30t-34 50q-8 21 -8 46q0 11 2 24q6 39 22 66t39 45t51.5 29.5t60.5 20.5q14 3 28.5 7t27 10t21.5 15t11 23v5q0 17 -12 24q-13 9 -39 9q-43 0 -85 -26l-67 77q43 39 93 55.5t97 16.5z" />
    <glyph glyph-name="uni0434" unicode="&#x434;" horiz-adv-x="501" 
d="M306 718q39 0 74 -12.5t60 -39t36 -66.5q7 -24 7 -52q0 -20 -3 -43l-46 -331q-6 -45 -28.5 -79.5t-54 -57.5t-70 -35t-77.5 -12t-75 11t-62 33.5t-39 55.5q-9 23 -9 52q0 13 2 27l20 141q6 45 27 78t51 54t65.5 30.5t70.5 9.5q24 0 47.5 -3.5t40.5 -13.5l9 60q1 7 1 14
q0 28 -17 45q-21 20 -61 20q-26 0 -53.5 -7.5t-50.5 -21.5l-57 81q43 33 89.5 47.5t102.5 14.5zM260 374q-29 0 -53.5 -15.5t-29.5 -47.5l-20 -142q-1 -5 -1 -9q0 -22 18 -34q20 -13 47 -13q26 0 50 14.5t28 43.5l26 188q-29 15 -65 15z" />
    <glyph glyph-name="uni0435" unicode="&#x435;" horiz-adv-x="478" 
d="M202 -10q-38 0 -73.5 11.5t-61.5 35t-39 57.5q-9 24 -9 53q0 13 2 28l23 162q7 47 29.5 83t55 60t71.5 36t78 12t74.5 -12t60.5 -36t37 -59q9 -22 9 -49q0 -15 -3 -32q-8 -54 -40.5 -88.5t-76.5 -51.5q-43 -16 -89 -16h-3q-48 1 -86 16l-4 -25q-2 -16 3 -27.5t15.5 -19.5
t25 -12t30.5 -4q28 0 56 11t45 31l79 -57q-48 -59 -103 -83t-106 -24zM244 286q27 0 52.5 14.5t28.5 40.5q1 5 1 9q0 10 -4 18q-5 12 -14.5 19t-21.5 10.5t-25 3.5q-27 0 -52 -17.5t-29 -45.5l-6 -41q33 -11 70 -11z" />
    <glyph glyph-name="uni0436" unicode="&#x436;" horiz-adv-x="747" 
d="M439 191l-15 -12l-26 -179h-135l25 179l-11 12l-155 -191h-159l238 273l-167 245h161l114 -191l27 191h135l-27 -191l168 191h161l-235 -245l160 -273h-159z" />
    <glyph glyph-name="uni0437" unicode="&#x437;" horiz-adv-x="443" 
d="M248 528q36 0 67 -9t52.5 -27t31.5 -44q7 -19 7 -41q0 -9 -1 -19q-5 -42 -27.5 -69.5t-51.5 -41.5q41 -20 56 -56q10 -22 10 -48q0 -17 -4 -35q-8 -40 -29 -68t-50.5 -46t-65.5 -26t-74 -8q-62 0 -107 20.5t-78 75.5l94 68q15 -22 38.5 -35t52.5 -13q34 0 58.5 10
t30.5 43q1 7 1 13q0 20 -13 30q-17 13 -55 13h-67l13 98h64q30 0 48.5 11.5t23.5 40.5q1 4 1 9q0 17 -14 28q-16 14 -47 14q-29 0 -52.5 -11.5t-43.5 -28.5l-67 67q45 50 94 67.5t104 17.5z" />
    <glyph glyph-name="uni0438" unicode="&#x438;" horiz-adv-x="517" 
d="M225 -10q-42 0 -80.5 10.5t-66 33.5t-40.5 58q-9 23 -9 53q0 15 2 32l48 341h139l-47 -340q-2 -15 2.5 -27t13.5 -20.5t21 -12.5t25 -4q37 0 67 10l55 394h140l-69 -487q-55 -22 -105.5 -31.5t-95.5 -9.5z" />
    <glyph glyph-name="uni0439" unicode="&#x439;" horiz-adv-x="517" 
d="M282 576q-29 0 -55 10.5t-45.5 30.5t-29.5 50q-6 21 -6 46q0 11 1 22h117q-1 -20 10.5 -30.5t26.5 -11.5q16 0 31 10t20 32h116q-7 -41 -26 -70.5t-44.5 -49.5t-55.5 -29.5t-60 -9.5zM225 -10q-42 0 -80.5 10.5t-66 33.5t-40.5 58q-9 23 -9 53q0 15 2 32l48 341h139
l-47 -340q-2 -15 2.5 -27t13.5 -20.5t21 -12.5t25 -4q37 0 67 10l55 394h140l-69 -487q-55 -22 -105.5 -31.5t-95.5 -9.5z" />
    <glyph glyph-name="uni043A" unicode="&#x43a;" horiz-adv-x="513" 
d="M197 187l-22 -19l-25 -168h-139l73 518h139l-26 -188l181 188h163l-238 -246l162 -272h-160z" />
    <glyph glyph-name="uni043B" unicode="&#x43b;" horiz-adv-x="547" 
d="M6 -1q-15 0 -31 1l18 126h15q23 0 38 4q19 7 31 26.5t20.5 53t19.5 85.5l48 223h359l-72 -518h-140l55 393h-96l-35 -170q-13 -60 -31 -104t-47.5 -71.5t-73.5 -39.5q-34 -9 -78 -9z" />
    <glyph glyph-name="uni043C" unicode="&#x43c;" horiz-adv-x="652" 
d="M466 304l-23 -37l-106 -194h-86l-51 194l-14 37l-8 -113l-27 -191h-140l73 518h154l79 -286l158 286h153l-73 -518h-139l27 191z" />
    <glyph glyph-name="uni043D" unicode="&#x43d;" horiz-adv-x="527" 
d="M180 208l-30 -208h-139l73 518h139l-26 -185h140l26 185h140l-73 -518h-140l30 208h-140z" />
    <glyph glyph-name="uni043E" unicode="&#x43e;" horiz-adv-x="494" 
d="M279 528q39 0 74.5 -12t61 -35t38.5 -57q9 -24 9 -53q0 -13 -2 -28l-24 -169q-7 -47 -29.5 -81.5t-55 -57t-71 -34t-77.5 -11.5t-74.5 11.5t-62 34t-39.5 56.5q-8 23 -8 51q0 15 2 31l24 169q6 46 29 80.5t55.5 57.5t71.5 35t78 12zM260 400q-25 0 -48.5 -13t-27.5 -38
l-24 -176q-1 -4 -1 -7q0 -8 3 -16q5 -10 14 -17.5t21 -11.5t24 -4t24.5 4t23.5 11.5t18.5 18t9.5 22.5l24 176q1 3 1 7q0 8 -4 14q-5 10 -14 16.5t-20.5 10t-23.5 3.5z" />
    <glyph glyph-name="uni043F" unicode="&#x43f;" horiz-adv-x="515" 
d="M272 528q44 0 83 -10.5t67.5 -33t41.5 -58.5q9 -24 9 -54q0 -16 -2 -33l-48 -339h-138l46 331q1 7 1 13q0 25 -18 39q-21 17 -51 17q-32 0 -60 -14l-54 -386h-139l68 483q46 21 96 33t98 12z" />
    <glyph glyph-name="uni0440" unicode="&#x440;" horiz-adv-x="509" 
d="M285 528q41 0 77 -9t62 -30t40 -55q12 -29 12 -68q0 -8 -1 -17l-24 -184q-6 -43 -24.5 -76t-48.5 -55t-69.5 -33t-85.5 -11q-38 0 -72 17l-28 -197h-139l93 679q51 18 105 28.5t103 10.5zM216 96q38 0 64.5 16.5t31.5 52.5l26 197v7q0 27 -20 41q-24 15 -54 15
q-15 0 -29.5 -2.5t-27.5 -8.5l-41 -306q19 -12 50 -12z" />
    <glyph glyph-name="uni0441" unicode="&#x441;" horiz-adv-x="467" 
d="M204 -10q-39 0 -74.5 11.5t-62 34t-39.5 56.5q-9 24 -9 53q0 13 2 28l24 171q6 46 29 80.5t55.5 57.5t71.5 34.5t78 11.5q28 0 57 -7t54 -23.5t42.5 -43t22.5 -66.5l-124 -40q-5 27 -24 39.5t-43 12.5q-27 0 -51.5 -15t-28.5 -43l-23 -166q-1 -5 -1 -9q0 -22 16 -35
q19 -16 45 -16q24 0 49 13.5t39 43.5l116 -42q-19 -39 -45.5 -66t-56 -43.5t-60.5 -24t-59 -7.5z" />
    <glyph glyph-name="uni0442" unicode="&#x442;" horiz-adv-x="753" 
d="M269 528q19 0 38.5 -2.5t37.5 -10t32 -20t22 -32.5q29 34 67.5 49.5t75.5 15.5q36 0 69 -11t57 -33t36 -56q8 -22 8 -49q0 -13 -2 -28l-49 -351h-138l49 354q1 4 1 8q0 17 -15 26q-18 12 -41 12t-43.5 -11.5t-23.5 -33.5l-50 -355h-133l49 351v6q0 19 -16 29
q-18 13 -44 14q-15 0 -30.5 -4.5t-26.5 -15.5l-53 -380h-136l65 464q38 29 91 46.5t103 17.5z" />
    <glyph glyph-name="uni0443" unicode="&#x443;" horiz-adv-x="516" 
d="M179 -207q-54 0 -103 21.5t-79 63.5l81 73q15 -17 41 -26t53 -9q39 0 68.5 18.5t37.5 67.5q-21 -6 -42.5 -9.5t-41.5 -3.5q-37 0 -69.5 10.5t-56 31.5t-34.5 52.5t-5 73.5l51 361h134l-49 -343q-2 -15 3 -25.5t15.5 -17.5t24.5 -11t29 -4q16 0 31.5 3t28.5 10l55 388h140
l-72 -510q-10 -63 -33 -104t-55.5 -66t-71.5 -35t-81 -10zM0 0z" />
    <glyph glyph-name="uni0444" unicode="&#x444;" horiz-adv-x="719" 
d="M529 528q83 0 125 -46q32 -36 32 -95q0 -15 -2 -32l-27 -192q-6 -41 -23 -73t-43.5 -54t-61.5 -34t-76 -12q-20 0 -38.5 4t-27.5 9l-27 -187h-136l27 187q-11 -5 -30.5 -9t-39.5 -4q-41 0 -72.5 12t-52 34t-28.5 54q-5 20 -5 43q0 14 2 30l27 192q12 81 67 127t138 46
q20 0 38.5 -4t27.5 -9l27 193h136l-27 -193q11 5 30.5 9t39.5 4zM269 411q-26 0 -49.5 -15t-28.5 -47l-25 -180q-1 -7 -1 -12q0 -23 15 -35q20 -15 47 -15q20 0 40 10l40 284q-17 10 -38 10zM483 411q-21 0 -41 -10l-39 -284q17 -10 37 -10q26 0 49.5 15t28.5 47l25 180
q1 7 1 12q0 23 -16 35q-19 15 -45 15z" />
    <glyph glyph-name="uni0445" unicode="&#x445;" horiz-adv-x="519" 
d="M471 0h-165l-52 108l-13 53h-7l-31 -55l-81 -106h-157l204 259l-132 259h157l56 -118l12 -49h6l25 49l85 118h163l-208 -258z" />
    <glyph glyph-name="uni0446" unicode="&#x446;" horiz-adv-x="552" 
d="M222 -10q-42 0 -79.5 10.5t-64.5 33.5t-40 58q-9 23 -9 53q0 15 2 32l48 341h139l-47 -340q-1 -7 -1 -13q0 -22 14 -35q19 -16 46 -16q18 0 33.5 2t31.5 7l55 395h140l-53 -381h70l-23 -142l-34 -126h-115l24 147l-4 -1q-29 -11 -65.5 -18t-67.5 -7z" />
    <glyph glyph-name="uni0447" unicode="&#x447;" horiz-adv-x="497" 
d="M184 144q-29 0 -59 9t-53.5 29t-35.5 52q-8 21 -8 47q0 16 3 33l29 204h139l-25 -183q-1 -9 -1 -16q0 -23 11 -34q15 -15 45 -15q40 0 72 17l33 231h139l-73 -518h-139l24 170q-20 -12 -46.5 -19t-54.5 -7z" />
    <glyph glyph-name="uni0448" unicode="&#x448;" horiz-adv-x="780" 
d="M503 -10q-42 0 -83 13.5t-65 42.5q-30 -27 -72 -41.5t-79 -14.5q-39 0 -73.5 11.5t-58.5 34.5t-36 56q-7 23 -7 49q0 14 2 29l48 348h140l-49 -350q-1 -7 -1 -12q0 -20 13 -29q17 -12 44 -12q10 0 22.5 3.5t23.5 9t18.5 14t9.5 19.5l50 357h139l-50 -358q-2 -12 3 -20.5
t14 -14t21 -8.5t25 -3q41 0 62 15l54 389h139l-67 -478q-35 -21 -85.5 -35.5t-101.5 -14.5z" />
    <glyph glyph-name="uni0449" unicode="&#x449;" horiz-adv-x="819" 
d="M503 -10q-42 0 -83 13.5t-66 42.5q-29 -27 -71 -41.5t-80 -14.5q-39 0 -73 11.5t-58 34.5t-36 56q-7 23 -7 49q0 14 2 29l48 348h140l-49 -350q-1 -7 -1 -12q0 -20 13 -29q17 -12 44 -12q10 0 22.5 3.5t23.5 9t18.5 14t9.5 19.5l50 357h139l-51 -358v-6q0 -18 18 -28
q20 -12 46 -12q39 0 62 12l54 392h139l-53 -380h72l-23 -138l-38 -131h-112l23 144l-9 -3q-27 -8 -56.5 -14t-57.5 -6z" />
    <glyph glyph-name="uni044A" unicode="&#x44a;" horiz-adv-x="549" 
d="M357 359q91 0 130 -49q30 -37 30 -96q0 -18 -3 -38q-6 -44 -26.5 -78.5t-52.5 -58.5t-73 -36.5t-87 -12.5q-42 0 -79 11t-63 33.5t-39 56.5q-9 23 -9 52q0 13 2 27l34 243h-95l14 105h235l-25 -182q23 9 52 16t55 7zM316 259q-19 0 -40.5 -5.5t-39.5 -13.5l-10 -75
q-1 -4 -1 -8q0 -9 4 -17q5 -11 14.5 -18.5t22.5 -11t27 -3.5q33 0 58.5 20.5t31.5 55.5q1 9 1 16q0 28 -14 42q-18 18 -54 18z" />
    <glyph glyph-name="uni044B" unicode="&#x44b;" horiz-adv-x="734" 
d="M300 359q91 0 130 -49q30 -37 30 -96q0 -18 -3 -38q-6 -44 -26.5 -78.5t-52.5 -58.5t-73 -36.5t-87 -12.5q-42 0 -79 11t-63 33.5t-39 56.5q-9 23 -9 52q0 13 2 27l49 348h139l-25 -182q24 9 52.5 16t54.5 7zM259 259q-19 0 -40.5 -5.5t-38.5 -13.5l-11 -75q-1 -4 -1 -8
q0 -9 4 -17q5 -11 14.5 -18.5t22.5 -11t27 -3.5q33 0 58.5 20.5t31.5 55.5q1 9 1 17q0 27 -13 41q-18 18 -55 18zM638 0h-142l72 517h142z" />
    <glyph glyph-name="uni044C" unicode="&#x44c;" horiz-adv-x="493" 
d="M300 359q91 0 130 -49q30 -37 30 -96q0 -18 -3 -38q-6 -44 -26.5 -78.5t-52.5 -58.5t-73 -36.5t-87 -12.5q-42 0 -79 11t-63 33.5t-39 56.5q-9 23 -9 52q0 13 2 27l49 348h139l-25 -182q24 9 52.5 16t54.5 7zM259 259q-19 0 -40.5 -5.5t-38.5 -13.5l-11 -75q-1 -4 -1 -8
q0 -9 4 -17q5 -11 14.5 -18.5t22.5 -11t27 -3.5q33 0 58.5 20.5t31.5 55.5q1 9 1 17q0 27 -13 41q-18 18 -55 18z" />
    <glyph glyph-name="uni044D" unicode="&#x44d;" horiz-adv-x="469" 
d="M250 528q39 0 75 -11.5t63 -34.5t40 -58q9 -23 9 -51q0 -14 -2 -30l-23 -169q-7 -46 -30.5 -80.5t-56.5 -57t-72.5 -34t-78.5 -11.5q-27 0 -56 7t-53.5 23.5t-43.5 43.5t-26 67l123 33q5 -29 23.5 -46.5t47.5 -17.5q28 0 52.5 15t28.5 45l6 47h-126l12 90h127l7 43
q1 5 1 10q0 23 -17 35q-20 16 -47 16h-4q-22 0 -42 -11q-22 -12 -36 -39l-109 47q18 36 42.5 61t52.5 40t57 21.5t56 6.5z" />
    <glyph glyph-name="uni044E" unicode="&#x44e;" horiz-adv-x="736" 
d="M517 528q39 0 75 -11.5t63 -34.5t41 -58q8 -23 8 -51q0 -14 -2 -30l-24 -173q-6 -45 -29 -79t-56 -56.5t-72.5 -33.5t-78.5 -11t-75.5 11t-63 33.5t-39.5 56.5q-10 24 -10 52q0 13 2 27l7 42h-85l-30 -212h-139l73 518h139l-27 -191h85l3 27q6 44 29.5 76.5t56.5 54
t72 32.5t77 11zM500 402q-26 0 -50.5 -14t-29.5 -43l-24 -171q-1 -5 -1 -9q0 -22 17 -35q21 -14 48 -14q13 0 26 3.5t24 11t18.5 18.5t10.5 25l23 171q1 6 1 11q0 21 -17 32q-20 14 -46 14z" />
    <glyph glyph-name="uni044F" unicode="&#x44f;" horiz-adv-x="514" 
d="M44 325q0 14 2 30q6 44 25 75t49 50.5t69.5 28.5t86.5 9h214l-73 -518h-139l28 192h-29l-158 -192h-159l184 205q-25 6 -45 18t-33.5 30.5t-19.5 43.5q-2 13 -2 28zM261 417q-35 0 -57 -16.5t-27 -49.5q-1 -7 -1 -14q0 -56 70 -56h72l19 136h-76z" />
    <glyph glyph-name="uni0451" unicode="&#x451;" horiz-adv-x="478" 
d="M413 713q36 0 58 -25q17 -20 17 -48q0 -6 -1 -13q-5 -37 -33.5 -62t-64.5 -25t-57 25q-17 20 -17 48q0 7 1 14q5 36 33 61t64 25zM199 713q36 0 58 -25q17 -20 17 -48q0 -6 -1 -13q-5 -37 -33.5 -62t-64.5 -25t-57 25q-17 20 -17 48q0 7 1 14q5 36 33 61t64 25zM202 -10
q-38 0 -73.5 11.5t-61.5 35t-39 57.5q-9 24 -9 53q0 13 2 28l23 162q7 47 29.5 83t55 60t71.5 36t78 12t74.5 -12t60.5 -36t37 -59q9 -22 9 -49q0 -15 -3 -32q-8 -54 -40.5 -88.5t-76.5 -51.5q-43 -16 -89 -16h-3q-48 1 -86 16l-4 -25q-2 -16 3 -27.5t15.5 -19.5t25 -12
t30.5 -4q28 0 56 11t45 31l79 -57q-48 -59 -103 -83t-106 -24zM244 286q27 0 52.5 14.5t28.5 40.5q1 5 1 9q0 10 -4 18q-5 12 -14.5 19t-21.5 10.5t-25 3.5q-27 0 -52 -17.5t-29 -45.5l-6 -41q33 -11 70 -11z" />
    <glyph glyph-name="Wgrave" unicode="&#x1e80;" horiz-adv-x="920" 
d="M378 906h171l71 -150h-139zM59 708h152l49 -370l-1 -165h9l47 166l128 271h119l48 -273l5 -171h9l43 171l155 371h151l-303 -708h-144l-53 273l-4 85h-8q-8 -24 -15 -43q-6 -17 -11 -31l-5 -12l-121 -272h-144z" />
    <glyph glyph-name="wgrave" unicode="&#x1e81;" horiz-adv-x="697" 
d="M227 716h171l71 -150h-139zM248 0h-126l-89 518h137l26 -219l3 -125h1l31 126l96 218h101l34 -217l-3 -127h1l38 126l83 218h139l-228 -518h-127l-17 187l4 141h-3l-34 -141z" />
    <glyph glyph-name="Wacute" unicode="&#x1e82;" horiz-adv-x="920" 
d="M576 756h-148l110 150h181zM59 708h152l49 -370l-1 -165h9l47 166l128 271h119l48 -273l5 -171h9l43 171l155 371h151l-303 -708h-144l-53 273l-4 85h-8q-8 -24 -15 -43q-6 -17 -11 -31l-5 -12l-121 -272h-144z" />
    <glyph glyph-name="wacute" unicode="&#x1e83;" horiz-adv-x="697" 
d="M425 566h-148l110 150h181zM248 0h-126l-89 518h137l26 -219l3 -125h1l31 126l96 218h101l34 -217l-3 -127h1l38 126l83 218h139l-228 -518h-127l-17 187l4 141h-3l-34 -141z" />
    <glyph glyph-name="Wdieresis" unicode="&#x1e84;" horiz-adv-x="920" 
d="M449 911q33 0 53 -23q16 -18 16 -44q0 -7 -1 -14q-2 -17 -10.5 -31t-20.5 -25t-27.5 -17t-31.5 -6q-35 0 -55 23q-16 18 -16 43q0 6 1 13q5 35 31.5 58t60.5 23zM671 911q36 0 57 -25q18 -20 18 -48q0 -6 -1 -13q-5 -37 -33.5 -62t-64.5 -25t-57 25q-17 20 -17 48
q0 7 1 14q5 36 33 61t64 25zM59 708h152l49 -370l-1 -165h9l47 166l128 271h119l48 -273l5 -171h9l43 171l155 371h151l-303 -708h-144l-53 273l-4 85h-8q-8 -24 -15 -43q-6 -17 -11 -31l-5 -12l-121 -272h-144z" />
    <glyph glyph-name="wdieresis" unicode="&#x1e85;" horiz-adv-x="697" 
d="M298 721q33 0 53 -23q16 -18 16 -44q0 -7 -1 -14q-2 -17 -10.5 -31t-20.5 -25t-27.5 -17t-31.5 -6q-35 0 -55 23q-16 18 -16 43q0 6 1 13q5 35 31.5 58t60.5 23zM520 721q36 0 57 -25q18 -20 18 -48q0 -6 -1 -13q-5 -37 -33.5 -62t-64.5 -25t-57 25q-17 20 -17 48
q0 7 1 14q5 36 33 61t64 25zM248 0h-126l-89 518h137l26 -219l3 -125h1l31 126l96 218h101l34 -217l-3 -127h1l38 126l83 218h139l-228 -518h-127l-17 187l4 141h-3l-34 -141z" />
    <glyph glyph-name="Ygrave" unicode="&#x1ef2;" horiz-adv-x="627" 
d="M216 906h171l71 -150h-139zM197 0l38 271l-185 437h169l108 -296l192 296h171l-308 -437l-38 -271h-147z" />
    <glyph glyph-name="ygrave" unicode="&#x1ef3;" horiz-adv-x="515" 
d="M129 716h171l71 -150h-139zM179 -207q-54 0 -103 21.5t-79 63.5l81 73q15 -17 41 -26t53 -9q39 0 68.5 18.5t37.5 67.5q-21 -6 -42.5 -9.5t-41.5 -3.5q-37 0 -69.5 10.5t-56 31.5t-34.5 53q-7 20 -7 45q0 13 2 28l51 361h134l-49 -343q-2 -15 3 -25.5t15.5 -17.5
t24.5 -11t29 -4q16 0 31.5 3t28.5 10l55 388h140l-72 -510q-10 -63 -33 -104t-55.5 -66t-71.5 -35t-81 -10z" />
    <glyph glyph-name="endash" unicode="&#x2013;" horiz-adv-x="578" 
d="M515 222h-475l19 140h475z" />
    <glyph glyph-name="emdash" unicode="&#x2014;" horiz-adv-x="901" 
d="M838 222h-798l19 140h798z" />
    <glyph glyph-name="quoteleft" unicode="&#x2018;" horiz-adv-x="287" 
d="M190 707h127l-95 -231h-168z" />
    <glyph glyph-name="quoteright" unicode="&#x2019;" horiz-adv-x="283" 
d="M185 475h-127l95 231h168z" />
    <glyph glyph-name="quotesinglbase" unicode="&#x201a;" horiz-adv-x="272" 
d="M66 -113h-127l95 231h168z" />
    <glyph glyph-name="quotedblleft" unicode="&#x201c;" horiz-adv-x="478" 
d="M377 707h127l-81 -231h-168zM190 707h127l-95 -231h-168z" />
    <glyph glyph-name="quotedblright" unicode="&#x201d;" horiz-adv-x="473" 
d="M188 475h-127l81 231h168zM375 475h-127l95 231h168z" />
    <glyph glyph-name="quotedblbase" unicode="&#x201e;" horiz-adv-x="469" 
d="M264 -113h-127l95 231h168zM66 -113h-127l95 231h168z" />
    <glyph glyph-name="dagger" unicode="&#x2020;" horiz-adv-x="507" 
d="M54 514h158l27 193h141l-27 -193h158l-19 -136h-158l-68 -482h-141l68 482h-158z" />
    <glyph glyph-name="daggerdbl" unicode="&#x2021;" horiz-adv-x="541" 
d="M25 211h158l26 182h-158l19 135h158l25 181h141l-25 -181h158l-19 -135h-158l-26 -182h158l-19 -136h-158l-25 -179h-141l25 179h-158z" />
    <glyph glyph-name="bullet" unicode="&#x2022;" horiz-adv-x="411" 
d="M232 491q32 0 58 -12t44 -33t26 -49q4 -18 4 -38q0 -11 -1 -22q-5 -32 -20.5 -60t-39.5 -49t-53.5 -33.5t-61.5 -12.5t-58.5 12.5t-44.5 33.5t-26 49q-5 17 -5 36q0 12 2 24q4 32 20 60t40 49t54 33t62 12z" />
    <glyph glyph-name="ellipsis" unicode="&#x2026;" horiz-adv-x="717" 
d="M103 163q36 0 57 -25q18 -20 18 -48q0 -6 -1 -13q-5 -37 -33.5 -62t-64.5 -25q-37 0 -59 25q-17 20 -17 48q0 7 1 14q3 18 11.5 33.5t22 27.5t30.5 18.5t35 6.5zM575 163q36 0 57 -25q18 -20 18 -48q0 -6 -1 -13q-5 -37 -33.5 -62t-64.5 -25t-57 25q-17 20 -17 48
q0 7 1 14q5 36 33 61t64 25zM338 163q36 0 58 -25q17 -20 17 -48q0 -6 -1 -13q-5 -37 -33.5 -62t-64.5 -25t-57 25q-17 20 -17 48q0 7 1 14q5 36 33 61t64 25z" />
    <glyph glyph-name="perthousand" unicode="&#x2030;" horiz-adv-x="1065" 
d="M849 -4q-71 0 -103 46q-23 33 -23 88q0 22 4 48q6 41 21.5 74t38.5 56t52 35.5t61 12.5q72 0 104 -46q22 -34 22 -89q0 -21 -3 -45q-6 -42 -22 -75.5t-39 -56.5t-52 -35.5t-61 -12.5zM921 203q0 20 -6 31q-10 18 -32 18q-21 0 -37 -18t-22 -57q-2 -13 -2 -24q0 -23 8 -35
q11 -17 32 -17q47 0 57 75q2 15 2 27zM606 745l100 -72l-595 -748l-99 68zM183 357q-71 0 -103 46q-23 33 -23 90q0 21 3 46q6 41 21.5 74t38.5 56t52 35.5t61 12.5q72 0 104 -47q23 -33 23 -89q0 -20 -3 -44q-6 -42 -22 -75.5t-39 -56.5t-52 -35.5t-61 -12.5zM255 562
q0 21 -7 33q-9 18 -31 18q-21 0 -37.5 -18t-21.5 -57q-2 -15 -2 -27q0 -21 7 -32q11 -17 32 -17q23 0 38 18.5t20 56.5q2 14 2 25zM515 -4q-71 0 -103 46q-23 33 -23 88q0 22 4 48q6 41 21.5 74t38.5 56t52 35.5t61 12.5q72 0 104 -46q22 -34 22 -89q0 -21 -3 -45
q-6 -42 -22 -75.5t-39 -56.5t-52 -35.5t-61 -12.5zM587 203q0 20 -6 31q-10 18 -32 18q-21 0 -37 -18t-22 -57q-2 -13 -2 -24q0 -23 8 -35q11 -17 32 -17q47 0 57 75q2 15 2 27z" />
    <glyph glyph-name="guilsinglleft" unicode="&#x2039;" horiz-adv-x="329" 
d="M317 446l-129 -156q20 -38 42.5 -81.5t42.5 -78.5l-130 -71l-121 230l186 229z" />
    <glyph glyph-name="guilsinglright" unicode="&#x203a;" horiz-adv-x="328" 
d="M6 130l129 159q-19 37 -42 79t-42 78l130 72l121 -229l-184 -229z" />
    <glyph glyph-name="fraction" unicode="&#x2044;" horiz-adv-x="538" 
d="M67 -45l-106 71l520 693l106 -70z" />
    <glyph glyph-name="Euro" unicode="&#x20ac;" horiz-adv-x="647" 
d="M425 718q35 0 70 -9t65 -28t53.5 -47.5t36.5 -67.5l-127 -64q-11 29 -34 46.5t-51 24.5q-20 5 -40 5q-9 0 -18 -1q-31 -3 -56.5 -14.5t-43 -32t-20.5 -47.5l-2 -17h190l-34 -100h-170l-5 -38h190l-33 -98h-171v-5q-1 -7 -1 -13q0 -19 9 -34q12 -20 34 -31.5t51 -14.5h14
q21 0 44 6q29 7 56.5 24.5t46.5 46.5l117 -71q-57 -75 -130.5 -111.5t-144.5 -36.5q-51 0 -98.5 15t-82 44t-52.5 73q-12 30 -12 67q0 17 3 36v5h-64l34 98h44l5 38h-64l34 100h44l2 17q7 58 36.5 102t73 73.5t96 44.5t105.5 15z" />
    <glyph glyph-name="uni2113" unicode="&#x2113;" horiz-adv-x="428" 
d="M226 -10q-69 0 -103 35t-41 92l-3 -2l-44 -25l-31 115q18 14 44.5 34.5t46.5 37.5l30 210q10 70 30.5 116.5t47 74.5t56.5 39t59 11q36 0 60.5 -13.5t38.5 -37.5t18 -56q2 -14 2 -29q0 -19 -3 -40q-13 -87 -69 -169t-141 -160l-2 -17q-2 -15 -2 -27q0 -15 3 -25
q5 -20 16.5 -27.5t28.5 -3t37 20.5l65 -90q-36 -31 -71.5 -47.5t-72.5 -16.5zM317 587q0 30 -13 30q-6 0 -14.5 -7t-17 -23t-16 -43t-13.5 -67l-11 -80q28 23 47 60.5t29 72.5q9 33 9 57z" />
    <glyph glyph-name="trademark" unicode="&#x2122;" horiz-adv-x="838" 
d="M163 576h-96l18 132h328l-18 -132h-97l-40 -280h-135zM437 708h114l64 -166l113 166h110l-57 -410h-120l26 164l-73 -114h-49l-41 120l-19 -170h-125z" />
    <glyph glyph-name="Omega" unicode="&#x2126;" horiz-adv-x="780" 
d="M53 317q0 28 4 58q12 84 50 147t91.5 104.5t117.5 62.5t128 21q65 0 124.5 -21t102.5 -63t64 -104q14 -41 14 -90q0 -25 -4 -53q-11 -73 -45.5 -137t-88.5 -99h102l-20 -143h-314l15 108q58 17 102.5 58.5t71.5 93t34 106.5q2 17 2 33q0 36 -11 67q-16 46 -57 75.5
t-111 29.5q-65 0 -112.5 -29.5t-76.5 -75.5t-39 -102q-5 -26 -5 -51q0 -29 6 -55q11 -52 43.5 -93t87.5 -58l-15 -107h-314l20 143h100q-45 41 -59 100q-8 34 -8 74z" />
    <glyph glyph-name="estimated" unicode="&#x212e;" horiz-adv-x="830" 
d="M257 282q0 -29 0.5 -56t0.5 -58q32 -31 74 -49.5t89 -18.5q27 0 58 5t61 16.5t57.5 31t47.5 48.5l133 -1q-33 -57 -76 -96.5t-90.5 -64.5t-96.5 -36t-95 -11q-78 0 -147.5 27t-121 73.5t-81.5 109.5t-30 135t30 135t81.5 110t121 74.5t147.5 27.5q79 0 148.5 -27.5
t121 -74.5t81.5 -110t30 -135v-55h-544zM421 573q-45 0 -88.5 -19.5t-75.5 -49.5v-113h328v115q-34 31 -75 49t-89 18z" />
    <glyph glyph-name="partialdiff" unicode="&#x2202;" horiz-adv-x="511" 
d="M283 718q45 0 86.5 -20t70.5 -62t42 -108q8 -37 8 -82q0 -36 -5 -78q-9 -82 -35 -151t-66 -119.5t-91.5 -79t-112.5 -28.5q-48 0 -81 19.5t-52 51t-25 72.5q-3 22 -3 46q0 19 2 39q6 57 30.5 103t59.5 79t76 50.5t80 17.5q25 0 47.5 -6.5t42.5 -21.5q2 16 2 30
q0 31 -9 55q-12 36 -38 54q-24 17 -57 17h-6q-37 -2 -80 -27l-51 97q38 22 79.5 37t85.5 15zM215 131q14 0 29 10q19 13 36.5 36.5t31.5 55.5t21 67q-7 14 -31 23t-52 9q-15 0 -29.5 -9t-26.5 -24t-20.5 -35t-11.5 -43q-2 -15 -2 -28q0 -22 6 -37q11 -24 35 -24h5q4 -1 9 -1
z" />
    <glyph glyph-name="Delta" unicode="&#x2206;" horiz-adv-x="590" 
d="M409 688l126 -597l-12 -91h-539l12 90l294 598h119zM164 139h212l-60 328z" />
    <glyph glyph-name="product" unicode="&#x220f;" horiz-adv-x="638" 
d="M334 -57l87 614h-136l-87 -614h-140l87 614h-83l19 138h584l-19 -138h-85l-87 -614h-140z" />
    <glyph glyph-name="summation" unicode="&#x2211;" horiz-adv-x="545" 
d="M239 316l-159 291l14 101h464l-16 -116h-282l147 -274l-233 -265h305l-17 -124h-486l13 98z" />
    <glyph glyph-name="minus" unicode="&#x2212;" horiz-adv-x="614" 
d="M551 229h-502l20 139h502z" />
    <glyph glyph-name="uni2215" unicode="&#x2215;" horiz-adv-x="531" 
d="M64 -45l-106 71l520 693l106 -70z" />
    <glyph glyph-name="uni2219" unicode="&#x2219;" horiz-adv-x="250" 
d="M138 394q36 0 58 -25q17 -20 17 -48q0 -6 -1 -13q-5 -37 -33.5 -62t-64.5 -25t-57 25q-17 20 -17 48q0 7 1 14q5 36 33 61t64 25z" />
    <glyph glyph-name="radical" unicode="&#x221a;" horiz-adv-x="534" 
d="M92 241q-9 -3 -18.5 -6.5t-17.5 -5.5l-24 -2l-27 122l202 73l34 -317q25 77 51.5 163.5t53 174.5t53 174t50.5 163h146l-317 -906h-118z" />
    <glyph glyph-name="infinity" unicode="&#x221e;" horiz-adv-x="687" 
d="M459 115q-45 0 -79 21.5t-51 59.5q-11 -14 -27 -28.5t-36 -26t-44 -19t-51 -7.5q-35 0 -63 13t-47.5 35.5t-28.5 52.5q-5 20 -5 41q0 13 2 26q5 37 22.5 69t43.5 55t59 36t70 13q48 0 79.5 -24t50.5 -63q14 17 31.5 33t38 28.5t42.5 19.5q20 6 41 6h6q36 -1 64 -13.5
t46.5 -35t26.5 -53.5q4 -18 4 -38q0 -14 -2 -29v-1q-6 -39 -24.5 -70.5t-45 -54t-58.5 -34.5t-65 -12zM206 337q-28 0 -43 -16t-17 -35v-6q0 -16 9 -30q11 -16 35 -16q14 0 36 13.5t47 39.5q-16 20 -33 35t-34 15zM493 337q-17 0 -39 -15t-42 -35q17 -27 35 -40t32 -13
q24 0 40 16t19 36q1 4 1 9q0 14 -7 26q-11 16 -39 16z" />
    <glyph glyph-name="integral" unicode="&#x222b;" horiz-adv-x="370" 
d="M53 -131q-10 0 -21 1q-45 5 -84 33l46 99q13 -8 27.5 -12t26.5 -1.5t21.5 13.5t12.5 34q3 25 8 63.5t13.5 105.5t21 170t30.5 257q9 61 39 101.5t70 58.5q32 14 65 14q10 0 21 -2q44 -5 80 -34l-44 -92q-10 6 -23 9t-25 -1.5t-21 -18t-11 -39.5l-78 -593
q-8 -60 -38.5 -98.5t-71.5 -54.5q-31 -13 -65 -13z" />
    <glyph glyph-name="approxequal" unicode="&#x2248;" horiz-adv-x="490" 
d="M321 309q-18 0 -37 5q-31 7 -62 23q-16 8 -28 12.5t-24 4t-26 -7.5t-33 -22l-62 60q35 45 71.5 70t70.5 27h5q18 0 36 -7q21 -8 42 -18q17 -8 30 -15t26.5 -8.5t29 5.5t36.5 27l69 -65q-28 -41 -57.5 -62t-60.5 -26q-13 -3 -26 -3zM293 130q-17 0 -35 5q-32 8 -61 27
q-16 10 -28 16t-24 5t-26 -9t-33 -25l-61 60q33 45 61.5 66.5t55.5 26.5q11 2 21 2q16 0 31 -4q26 -7 55 -19q16 -7 29.5 -12t27 -5t29 5.5t36.5 20.5l69 -65q-28 -41 -58.5 -63.5t-61.5 -28.5q-13 -3 -27 -3z" />
    <glyph glyph-name="notequal" unicode="&#x2260;" horiz-adv-x="532" 
d="M489 301h-152l-24 -41h170l-18 -126h-221l-59 -102l-107 57l24 45h-85l18 126h139l25 41h-158l18 126h210l54 97l113 -48l-27 -49h98z" />
    <glyph glyph-name="lessequal" unicode="&#x2264;" horiz-adv-x="487" 
d="M258 412q17 -9 32.5 -18t32.5 -17l105 -57l-21 -150l-353 200l12 86l410 202l-21 -150zM423 160l-19 -137h-403l19 137h403z" />
    <glyph glyph-name="greaterequal" unicode="&#x2265;" horiz-adv-x="485" 
d="M451 366l-410 -200l21 151l121 56l75 37l-170 94l22 151l353 -203zM425 155l-19 -136h-403l19 136h403z" />
    <glyph glyph-name="lozenge" unicode="&#x25ca;" horiz-adv-x="553" 
d="M26 337l257 365h101l152 -363l-257 -365h-104zM177 340q11 -26 20 -49l18 -46q9 -23 18.5 -46.5t20.5 -51.5l129 191l-75 199z" />
    <glyph glyph-name="i.loclTRK" horiz-adv-x="249" 
d="M176 735q22 0 40 -9t28 -27q7 -14 7 -32q0 -7 -1 -15q-4 -26 -19 -43.5t-35 -26t-42 -8.5t-40 8.5t-29 26.5q-7 12 -7 29q0 7 1 14q4 27 19.5 45.5t35.5 28t42 9.5zM153 0h-142l72 517h142z" />
    <glyph glyph-name="uni0414.loclBGR" horiz-adv-x="692" 
d="M469 -136l18 136h-369l-18 -136h-147l38 270h64l269 574h153l111 -574h65l-38 -270h-146zM435 134l-41 253l-15 158h-3l-57 -156l-111 -255h227z" />
    <glyph glyph-name="uni041B.loclBGR" horiz-adv-x="626" 
d="M348 545h-2l-53 -149l-179 -396h-159l335 708h153l144 -708h-157l-71 397z" />
    <glyph glyph-name="uni0432.loclBGR" 
d="M318 718q37 0 71.5 -9.5t59.5 -30.5t37 -54q9 -21 9 -49q0 -13 -2 -28q-4 -30 -15 -55t-25.5 -45t-31.5 -34t-33 -21q42 -5 64 -39q17 -25 17 -61q0 -12 -2 -26l-13 -96q-6 -45 -29.5 -79t-57 -56.5t-73.5 -33.5t-79 -11t-75.5 10.5t-63 32t-39.5 54.5q-9 23 -9 51
q0 13 2 27l53 374q6 43 27.5 76.5t53.5 56t72 34.5t82 12zM298 593q-31 0 -51.5 -16t-25.5 -45l-17 -124q17 5 33.5 10t33.5 11q35 11 55.5 39.5t25.5 63.5q1 7 1 13q0 20 -11 32q-13 16 -44 16zM171 172q0 -25 15 -38q19 -18 47 -18t53 15.5t30 49.5l13 93q1 6 1 11
q0 21 -16 34q-14 12 -36 12q-8 0 -18 -2q-20 -3 -36.5 -8.5t-33.5 -10.5l-18 -125q-1 -7 -1 -13z" />
    <glyph glyph-name="uni0433.loclBGR" horiz-adv-x="437" 
d="M253 528q39 0 70 -11t51 -30.5t29 -48.5q6 -18 6 -38q0 -12 -2 -24q-5 -37 -20.5 -64t-39.5 -46.5t-54.5 -32.5t-66.5 -21q-36 -9 -59.5 -19.5t-28.5 -36.5q-1 -5 -1 -9q0 -19 14 -28q17 -11 47 -11q62 0 122 47l63 -82q-47 -47 -100 -64.5t-113 -17.5q-37 0 -69.5 10
t-55.5 30t-34 50q-8 21 -8 46q0 11 2 24q6 39 22 66t39 45t51.5 29.5t60.5 20.5q14 3 28.5 7t27 10t21.5 15t11 23v5q0 17 -12 24q-13 9 -39 9q-43 0 -85 -26l-67 77q43 39 93 55.5t97 16.5z" />
    <glyph glyph-name="uni0434.loclBGR" horiz-adv-x="505" 
d="M169 -207q-54 0 -103 21.5t-79 63.5l81 73q15 -17 41 -26t53 -9q39 0 68.5 19t37.5 68q-21 -6 -41.5 -9.5t-40.5 -3.5q-37 0 -70 10.5t-56 31.5t-34.5 52.5t-5.5 73.5l29 196q7 48 29.5 81t55.5 54t73 30t82 9q53 1 102.5 -11.5t87.5 -32.5l-69 -476q-10 -63 -33 -104
t-55.5 -66t-71.5 -35t-81 -10zM278 422q-36 0 -63 -16t-32 -49l-28 -190q-5 -35 17 -50t57 -15q31 0 57 13l43 297q-21 10 -51 10zM0 0z" />
    <glyph glyph-name="uni0436.loclBGR" horiz-adv-x="746" 
d="M540 273l157 -273h-159l-96 192l-19 -15l-25 -177h-136l25 177l-14 14l-152 -191h-158l235 273l-165 245h161l114 -189l54 379h136l-54 -379l167 189h161z" />
    <glyph glyph-name="uni0438.loclBGR" horiz-adv-x="517" 
d="M218 -10q-42 0 -79.5 9.5t-63.5 31.5t-39 59q-7 22 -7 51q0 18 3 39l48 338h139l-45 -324q-1 -5 -1 -10q0 -29 22 -46q25 -21 61 -21q11 0 22.5 1.5t22.5 5.5l55 394h138l-69 -490q-46 -16 -100 -27t-107 -11z" />
    <glyph glyph-name="uni0439.loclBGR" horiz-adv-x="516" 
d="M290 564q-29 0 -56 9.5t-47 29t-31 49.5q-10 26 -10 59v12h115q-1 -20 10.5 -31.5t26.5 -12.5h3q15 0 29 9q16 9 22 35h114q-3 -39 -18.5 -69t-39.5 -50t-54.5 -30t-63.5 -10zM224 -10q-42 0 -80.5 10.5t-66 33.5t-41.5 58q-8 23 -8 53q0 15 2 32l48 341h139l-47 -340
q-2 -15 2.5 -27t13.5 -20.5t21 -12.5t25 -4q37 0 67 10l55 394h140l-69 -487q-55 -22 -105.5 -31.5t-95.5 -9.5z" />
    <glyph glyph-name="uni043A.loclBGR" horiz-adv-x="508" 
d="M372 518h162l-241 -250q40 -65 85.5 -135t84.5 -133h-161l-117 189l-10 -8l-25 -181h-139l99 707h139l-54 -385z" />
    <glyph glyph-name="uni043B.loclBGR" horiz-adv-x="497" 
d="M264 394h-2l-42 -131l-111 -263h-147l233 518h166l90 -518h-151l-32 263z" />
    <glyph glyph-name="uni043F.loclBGR" horiz-adv-x="516" 
d="M278 525q43 0 81.5 -10.5t65.5 -33t40 -57.5q8 -24 8 -53q0 -15 -2 -33l-48 -338h-138l48 337q1 6 1 11q0 25 -18 38q-20 15 -47 15q-18 0 -35 -3.5t-31 -8.5l-55 -389h-138l68 482q47 19 98.5 31t101.5 12z" />
    <glyph glyph-name="uni0442.loclBGR" horiz-adv-x="753" 
d="M269 528q19 0 38.5 -2.5t37.5 -10t32 -20t22 -32.5q29 34 67.5 49.5t75.5 15.5q36 0 69 -11t57 -33t36 -56q8 -22 8 -49q0 -13 -2 -28l-49 -351h-138l49 354q1 4 1 8q0 17 -15 26q-18 12 -41 12t-43.5 -11.5t-23.5 -33.5l-50 -355h-133l49 351v6q0 19 -16 29
q-18 13 -44 14q-15 0 -30.5 -4.5t-26.5 -15.5l-53 -380h-136l65 464q38 29 91 46.5t103 17.5z" />
    <glyph glyph-name="uni0446.loclBGR" horiz-adv-x="552" 
d="M223 -10q-42 0 -79.5 10.5t-64.5 33.5t-40 58q-9 23 -9 53q0 15 2 32l48 341h139l-47 -340q-1 -7 -1 -13q0 -22 14 -35q19 -16 46 -16q18 0 33.5 2t31.5 7l55 395h140l-53 -381h70l-23 -142l-34 -126h-115l24 147l-4 -1q-29 -11 -65.5 -18t-67.5 -7z" />
    <glyph glyph-name="uni0448.loclBGR" horiz-adv-x="780" 
d="M503 -10q-42 0 -83 13.5t-66 42.5q-29 -27 -71 -41.5t-80 -14.5q-39 0 -73 11.5t-58 34.5t-36 56q-7 23 -7 49q0 14 2 29l48 348h140l-49 -350q-1 -7 -1 -12q0 -20 13 -29q17 -12 44 -12q10 0 22.5 3.5t23.5 9t18.5 14t9.5 19.5l50 357h139l-51 -358v-6q0 -18 18 -28
q20 -12 46 -12q41 0 62 15l54 389h139l-67 -478q-35 -21 -85.5 -35.5t-101.5 -14.5z" />
    <glyph glyph-name="uni0449.loclBGR" horiz-adv-x="819" 
d="M503 -10q-42 0 -83 13.5t-66 42.5q-29 -27 -71 -41.5t-80 -14.5q-39 0 -73 11.5t-58 34.5t-36 56q-7 23 -7 49q0 14 2 29l48 348h140l-49 -350q-1 -7 -1 -12q0 -20 13 -29q17 -12 44 -12q10 0 22.5 3.5t23.5 9t18.5 14t9.5 19.5l50 357h139l-51 -358v-6q0 -18 18 -28
q20 -12 46 -12q39 0 62 12l54 392h139l-53 -380h72l-23 -138l-38 -131h-112l23 144l-9 -3q-27 -8 -56.5 -14t-57.5 -6z" />
    <glyph glyph-name="uni044E.loclBGR" horiz-adv-x="737" 
d="M518 528q39 0 75 -11.5t63 -34.5t40 -58q9 -23 9 -51q0 -14 -2 -30l-24 -173q-6 -45 -29 -79t-56 -56.5t-72.5 -33.5t-78.5 -11t-75.5 11t-63 33.5t-40.5 56.5q-9 24 -9 52q0 13 2 27l7 42h-85l-30 -212h-139l100 708h139l-54 -381h85l3 27q6 44 29.5 76.5t56.5 54
t72 32.5t77 11zM501 402q-26 0 -50.5 -14t-29.5 -43l-24 -171q-1 -5 -1 -9q0 -22 18 -35q20 -14 47 -14q13 0 26 3.5t24 11t18.5 18.5t10.5 25l23 171q1 6 1 11q0 21 -16 32q-21 14 -47 14z" />
    <glyph glyph-name=".ttfautohint" horiz-adv-x="323" 
d="M0 0z" />
    </font>
</defs>
</svg>
