<?xml version="1.0" standalone="no"?>
<!DOCTYPE svg PUBLIC "-//W3C//DTD SVG 1.1//EN" "http://www.w3.org/Graphics/SVG/1.1/DTD/svg11.dtd" >
<svg xmlns="http://www.w3.org/2000/svg" xmlns:xlink="http://www.w3.org/1999/xlink" version="1.1">
<metadata>
Created by FontForge 20161013 at Sun Mar  1 19:23:47 2015
 By ,,,
Copyright (c) 2014 by (c) 2009 Designed by Svetoslav Simov (c) Fontfabric, Inc. All rights reserved.
</metadata>
<defs>
<font id="UniSansThinItalic" horiz-adv-x="514" >
  <font-face 
    font-family="UniSansThinItalic"
    font-weight="400"
    font-style="italic"
    font-stretch="normal"
    units-per-em="1000"
    panose-1="0 0 5 0 0 0 0 0 0 0"
    ascent="775"
    descent="-225"
    x-height="518"
    cap-height="708"
    bbox="-98 -248 967 921"
    underline-thickness="50"
    underline-position="-150"
    unicode-range="U+0020-FB02"
  />
<missing-glyph horiz-adv-x="563" 
d="M512 0h-466l99 708h466zM330 363l248 329h-404zM158 688l-94 -667l255 329zM337 350l161 -329l94 667zM79 16h404l-157 320z" />
    <glyph glyph-name="fi" unicode="fi" horiz-adv-x="452" 
d="M417 706q11 0 19 -8q5 -7 5 -15q0 -14 -11 -25q-10 -8 -21 -8t-18.5 8.5t-5.5 19.5t11.5 19.5t20.5 8.5zM330 0h-24l74 518h24zM275 718h6l-3 -19h-6q-52 0 -87 -33q-37 -34 -45 -99l-9 -70h112l-3 -21h-112l-74 -530q-5 -36 -20.5 -63.5t-36.5 -45.5l-10 13q23 20 32 45
t13 51l86 621q5 39 20 68t36.5 48t49.5 27q24 8 51 8z" />
    <glyph glyph-name="fl" unicode="fl" horiz-adv-x="471" 
d="M313 99q0 17 3 38l79 571h22l-79 -571q-2 -17 -2 -32q0 -35 12 -58q19 -33 74 -35l-3 -22q-56 5 -85 38q-21 25 -21 71zM275 718h6l-3 -19h-6q-52 0 -87 -33q-37 -34 -45 -99l-9 -70h112l-3 -21h-112l-74 -530q-5 -36 -20.5 -63.5t-36.5 -45.5l-10 13q23 20 32 45t13 51
l86 621q5 39 20 68t36.5 48t49.5 27q24 8 51 8z" />
    <glyph glyph-name=".notdef" horiz-adv-x="563" 
d="M512 0h-466l99 708h466zM330 363l248 329h-404zM158 688l-94 -667l255 329zM337 350l161 -329l94 667zM79 16h404l-157 320z" />
    <glyph glyph-name=".null" horiz-adv-x="0" 
 />
    <glyph glyph-name="nonmarkingreturn" horiz-adv-x="333" 
 />
    <glyph glyph-name="space" unicode=" " horiz-adv-x="246" 
 />
    <glyph glyph-name="exclam" unicode="!" horiz-adv-x="193" 
d="M141 709h25l-81 -577h-25zM63 61q13 0 21 -9q5 -7 5 -17v-5q-2 -13 -12 -22t-23 -9t-21 9q-6 7 -6 17v5q2 13 12.5 22t23.5 9z" />
    <glyph glyph-name="quotedbl" unicode="&#x22;" horiz-adv-x="264" 
d="M213 532h-19l25 177h27zM121 532h-19l25 177h27z" />
    <glyph glyph-name="numbersign" unicode="#" horiz-adv-x="725" 
d="M634 259l-9 -20h-185l-105 -239h-24l106 239h-200l-105 -239h-24l106 239h-160l8 20h162l84 195h-184l9 21h185l102 234h23l-103 -234h201l101 234h25l-104 -234h163l-10 -21h-164l-83 -195h185zM226 259h201l84 195h-201z" />
    <glyph glyph-name="dollar" unicode="$" horiz-adv-x="583" 
d="M514 206q0 -20 -5 -42q-9 -41 -33.5 -73t-58 -54t-74.5 -34t-83 -13l-12 -76h-20l12 76q-32 1 -63 7.5t-59 20.5t-51 35t-38 50l25 10q26 -48 78 -73.5t111 -26.5l47 338q-38 8 -76.5 21t-68 35t-43.5 55q-9 21 -9 48q0 17 3 36q7 43 31 75t57.5 53t74 32t82.5 12l10 71
h20l-10 -71q64 -2 116 -28t76 -81l-25 -9q-20 45 -67 68.5t-104 25.5l-44 -322q41 -9 81 -23.5t69 -38.5t43 -60q8 -19 8 -44zM117 514q0 -19 6 -34q11 -28 36 -48t60 -33.5t74 -22.5l44 318q-37 -1 -72.5 -9.5t-64.5 -26.5t-50 -45.5t-29 -66.5q-4 -17 -4 -32zM486 201
q0 22 -6 39q-12 31 -37 51.5t-60.5 33.5t-73.5 22l-46 -334q36 1 70.5 11t64 28.5t51.5 46t33 65.5q4 20 4 37z" />
    <glyph glyph-name="percent" unicode="%" horiz-adv-x="711" 
d="M72 -48q-6 3 -10 6.5t-9 6.5l601 778l18 -12zM190 345q-66 0 -96 47q-20 32 -20 85q0 23 4 50q12 88 57.5 133.5t105.5 45.5q65 0 95 -47q20 -33 20 -87q0 -22 -3 -47q-6 -42 -20.5 -75.5t-36.5 -56.5t-49 -35.5t-57 -12.5zM328 572q0 46 -16 71q-24 37 -76 37
q-56 0 -87 -38t-42 -115q-4 -30 -4 -54q0 -42 13 -65q21 -36 78 -36q55 0 87.5 36.5t43.5 116.5q3 25 3 47zM483 -7q-66 0 -95 47q-21 33 -21 87q0 22 3 48q12 88 57.5 133.5t105.5 45.5q65 0 95 -47q21 -34 21 -88q0 -21 -3 -46q-12 -84 -57.5 -132t-105.5 -48zM621 217
q0 47 -17 73q-25 37 -77 37q-109 0 -130 -152q-4 -29 -4 -52q0 -43 14 -67q21 -36 78 -36q55 0 88.5 36.5t44.5 115.5q3 25 3 45z" />
    <glyph glyph-name="ampersand" unicode="&#x26;" horiz-adv-x="604" 
d="M200 -4q-41 0 -74.5 12.5t-56.5 36.5t-33 57q-7 22 -7 47q0 14 2 29q5 36 23 68t45 59t59.5 49.5t67.5 41.5q-14 19 -27.5 40.5t-23 43t-14.5 44.5q-3 14 -3 27q0 8 1 16q5 33 21.5 59.5t41 45t54.5 28.5t61 10q27 0 51 -10t41.5 -27.5t25.5 -41.5q5 -16 5 -34
q0 -9 -1 -19q-5 -33 -21.5 -59.5t-40 -47.5t-52.5 -38t-58 -31l-25 -14l172 -223l75 98l16 -9l-77 -103l92 -125h-29l-77 103q-55 -62 -110.5 -97.5t-123.5 -35.5zM331 688q-26 0 -51 -9t-45 -24.5t-33.5 -37.5t-17.5 -48q-1 -7 -1 -15q0 -14 3 -28q6 -23 16 -45t23 -41.5
t24 -34.5q34 16 65.5 33t56.5 37t42 44.5t21 54.5q2 11 2 21q0 37 -24 61q-29 32 -81 32zM54 150q0 -54 32 -89q41 -44 125 -44q31 0 60 11t55.5 29t50 40.5t43.5 45.5l-181 239q-29 -16 -59.5 -36.5t-56.5 -45.5t-44 -55t-23 -65q-2 -16 -2 -30z" />
    <glyph glyph-name="quotesingle" unicode="'" horiz-adv-x="176" 
d="M126 531h-19l25 177h27z" />
    <glyph glyph-name="parenleft" unicode="(" horiz-adv-x="243" 
d="M82 236q0 -55 8 -110q16 -105 66 -195l-21 -11q-52 94 -69 202q-10 57 -10 115q0 53 8 106q15 111 62.5 218t123.5 201l16 -14q-73 -88 -117 -192.5t-60 -214.5q-7 -53 -7 -105z" />
    <glyph glyph-name="parenright" unicode=")" horiz-adv-x="244" 
d="M194 428q0 -56 -8 -114q-17 -114 -62.5 -222t-122.5 -202l-19 13q74 94 117.5 198t58.5 211q8 57 8 113q0 54 -8 107q-15 109 -62 206l16 9q1 0 2.5 1t3.5 2q51 -94 68 -206q8 -58 8 -116zM112 747l2 1z" />
    <glyph glyph-name="asterisk" unicode="*" horiz-adv-x="438" 
d="M262 554q38 11 63 19t42 14t28 10.5t22 7.5l3 -20l-154 -46l77 -130l-18 -11l-75 130q-26 -31 -56.5 -65.5t-56.5 -64.5l-14 13l117 128q-35 11 -72.5 23.5t-72.5 23.5q2 7 3.5 11.5t3.5 8.5l145 -51q5 36 9.5 76.5t9.5 77.5h20z" />
    <glyph glyph-name="plus" unicode="+" horiz-adv-x="573" 
d="M318 578h22l-32 -226h223l-3 -23h-223l-32 -227h-22l32 227h-231l3 23h231z" />
    <glyph glyph-name="comma" unicode="," horiz-adv-x="193" 
d="M-4 -121h-22l78 162h35z" />
    <glyph glyph-name="hyphen" unicode="-" horiz-adv-x="419" 
d="M341 288h-269l3 24h269z" />
    <glyph glyph-name="period" unicode="." horiz-adv-x="210" 
d="M73 59q13 0 21 -9q5 -7 5 -17v-5q-2 -13 -12 -22t-23 -9t-21 9q-6 7 -6 17v5q2 13 12.5 22t23.5 9z" />
    <glyph glyph-name="slash" unicode="/" horiz-adv-x="374" 
d="M400 717q-65 -122 -115 -215t-88 -164t-66 -123.5t-49.5 -93.5t-39 -73t-34.5 -63q-14 4 -16 4.5t-4 1.5l395 732z" />
    <glyph glyph-name="zero" unicode="0" horiz-adv-x="624" 
d="M269 -10q-42 0 -83.5 11.5t-72.5 34.5t-47 59q-12 25 -12 56q0 14 2 28l48 350q7 49 33.5 84.5t64 58.5t82 34.5t86.5 11.5t82.5 -11.5t71.5 -34.5t48 -58q11 -25 11 -57q0 -13 -2 -28l-48 -350q-7 -48 -33 -84t-63.5 -59t-81.5 -34.5t-86 -11.5zM79 154q0 -29 11 -52
q15 -31 43.5 -50.5t64.5 -27.5q9 -2 22 -4t23.5 -3t19.5 -1.5l9 -0.5q36 0 75 8.5t73 28t58 51t30 76.5l48 350q2 13 2 25q0 30 -11 52q-15 31 -43 50.5t-65 28t-73 8.5q-37 0 -76 -8.5t-73 -28t-58 -50.5t-30 -77l-48 -350q-2 -13 -2 -25z" />
    <glyph glyph-name="one" unicode="1" horiz-adv-x="288" 
d="M154 0h-24l95 683l-159 -147l-14 14l167 158h34z" />
    <glyph glyph-name="two" unicode="2" horiz-adv-x="545" 
d="M316 693q-60 0 -108 -25q-52 -26 -87 -78l-21 10q38 61 93.5 89t136.5 29q47 0 85 -14.5t63 -40t36 -59.5q9 -24 9 -50q0 -11 -2 -23q-6 -40 -34.5 -84t-74.5 -86l-369 -336h408l-3 -25h-435l-8 23l390 357q42 38 68.5 77t31.5 75q1 9 1 19q0 21 -6 41q-10 29 -32 51
t-55.5 35t-77.5 15h-9z" />
    <glyph glyph-name="three" unicode="3" horiz-adv-x="565" 
d="M468 226q0 64 -36 100q-44 46 -131 46h-4h-68l3 24h68q70 0 120 37.5t61 112.5q1 11 1 22q0 25 -8 45q-12 28 -36 46t-56 27t-66 9q-54 0 -101.5 -18.5t-80.5 -58.5l-19 10q38 48 90.5 69t115.5 21q39 0 75 -10.5t62.5 -31.5t39.5 -54q9 -22 9 -49q0 -13 -2 -27
q-3 -22 -10 -45t-21 -44t-35.5 -39t-53.5 -31q38 -15 61 -36t34 -47t12 -56q1 -8 1 -17q0 -22 -3 -45q-8 -48 -34 -85t-63 -61.5t-81.5 -37t-89.5 -12.5q-72 0 -125.5 24.5t-82.5 80.5l23 13q29 -50 74.5 -72t113.5 -22q40 0 80.5 11t74 32.5t56.5 54t29 75.5q3 21 3 39z
" />
    <glyph glyph-name="four" unicode="4" horiz-adv-x="561" 
d="M501 222l-4 -23h-59l-27 -199h-25l27 199h-384l-11 29l457 480h35l-68 -486h59zM45 222h372l66 462z" />
    <glyph glyph-name="five" unicode="5" horiz-adv-x="573" 
d="M238 21q44 0 85 13.5t75 41.5t57.5 71t32.5 103q2 14 2 27q0 27 -8 50q-13 34 -39 57t-62.5 35.5t-77.5 12.5q-56 0 -102.5 -10.5t-98.5 -35.5l-11 -1l45 323h404l-3 -23h-379l-38 -267q54 22 100 30q40 8 78 8h9q43 0 83 -13.5t69.5 -39t44.5 -63.5q12 -28 12 -63
q0 -13 -2 -27q-11 -70 -37.5 -118.5t-64 -79t-83 -44t-94.5 -13.5q-67 0 -122 25t-82 79l26 12q23 -43 73 -66.5t108 -23.5z" />
    <glyph glyph-name="six" unicode="6" horiz-adv-x="616" 
d="M373 694q-42 0 -83.5 -10t-75 -31t-56.5 -52t-29 -73l-29 -208q24 34 54.5 55.5t62 33.5t62.5 16.5t58 4.5q46 0 87.5 -12t71.5 -36t46 -59q11 -25 11 -57q0 -12 -2 -25l-8 -61q-6 -47 -31.5 -82.5t-62.5 -59t-82 -35.5t-91 -12q-47 0 -89.5 11.5t-73.5 35.5t-47 60
q-12 25 -12 57q0 12 2 25l48 349q6 47 32.5 82.5t64.5 59.5t84 35.5t92 11.5q68 0 121.5 -23t78.5 -73l-25 -12q-21 45 -70 64.5t-109 19.5zM528 264q0 27 -10 49q-14 31 -41 51.5t-64 31t-79 10.5t-83.5 -10t-75.5 -31t-57 -52t-29 -73l-8 -59q-2 -12 -2 -24q0 -27 11 -49
q14 -31 42 -52t66.5 -31t80.5 -10t82 10.5t73 31t55.5 51.5t28.5 73l8 59q2 13 2 24z" />
    <glyph glyph-name="seven" unicode="7" horiz-adv-x="489" 
d="M90 708h419l11 -24l-470 -684h-28l469 684h-404z" />
    <glyph glyph-name="eight" unicode="8" horiz-adv-x="614" 
d="M253 -10q-45 0 -85.5 13.5t-70 39t-45.5 63.5q-11 27 -11 59q0 13 2 26q9 72 50 120t119 71q-30 10 -48.5 28.5t-28.5 41t-11 46.5q-1 9 -1 17q0 16 2 32q6 43 28 75t53.5 53.5t70 32.5t77.5 11h19q39 0 74 -11t61 -32.5t39 -53.5q9 -22 9 -49q0 -12 -2 -26
q-3 -23 -11 -47t-23.5 -46.5t-39 -41t-56.5 -29.5q68 -20 98 -67q21 -34 21 -81q0 -21 -4 -44q-8 -48 -34 -85.5t-62.5 -63t-81 -39t-89.5 -13.5h-19zM351 697q-35 0 -69 -9t-62 -27.5t-47 -46.5t-25 -67q-2 -15 -2 -28q0 -26 8 -46q12 -30 35.5 -48t55.5 -25.5t65 -7.5h19
q33 0 66.5 7.5t61.5 25.5t48 48t26 74q2 13 2 25q0 24 -7 42q-12 28 -35 46.5t-54.5 27.5t-66.5 9h-19zM517 228q0 30 -9 52q-12 35 -38.5 55.5t-64 28.5t-79.5 8h-19q-42 0 -82 -8t-72.5 -28.5t-55.5 -55.5t-30 -88q-2 -13 -2 -25q0 -31 11 -55q15 -33 42.5 -55t64 -33
t73.5 -11h19q37 0 76.5 11t73.5 33t58.5 55.5t30.5 79.5q3 19 3 36z" />
    <glyph glyph-name="nine" unicode="9" horiz-adv-x="617" 
d="M257 14q42 0 83.5 10t75.5 30t57 51t29 73l27 202q-29 -35 -59 -55.5t-60 -31t-59.5 -13t-56.5 -2.5q-46 0 -87.5 12t-72 36t-46.5 59q-11 25 -11 57q0 12 2 25l8 62q6 47 31.5 82.5t62.5 59t82 35.5t91 12t88.5 -11t74 -34.5t47.5 -59.5q12 -26 12 -59q0 -12 -2 -25
l-47 -350q-6 -47 -32.5 -82.5t-64.5 -59.5t-84 -35.5t-92 -11.5q-69 0 -121 24t-78 76l26 12q21 -45 68.5 -66.5t107.5 -21.5zM102 444q0 -27 10 -49q14 -31 41 -51.5t64.5 -31t79.5 -10.5t83.5 10t75.5 31t57 52t29 73l8 60q2 12 2 24q0 27 -10 49q-15 31 -43.5 52t-67 31
t-80.5 10t-82.5 -10.5t-73.5 -31t-55 -51.5t-28 -73l-8 -60q-2 -13 -2 -24z" />
    <glyph glyph-name="colon" unicode=":" horiz-adv-x="212" 
d="M128 466q13 0 21 -9q6 -8 6 -18v-5q-2 -13 -12.5 -22.5t-23.5 -9.5t-22 9q-6 8 -6 18q0 16 13 28q11 9 24 9zM75 88q13 0 21 -9q5 -7 5 -17v-5q-2 -13 -12 -22t-23 -9t-21 9q-6 7 -6 17v5q2 13 12.5 22t23.5 9z" />
    <glyph glyph-name="semicolon" unicode=";" horiz-adv-x="275" 
d="M54 -99h-22l71 149h33zM164 451q13 0 21 -9q6 -8 6 -18v-5q-2 -13 -12.5 -22.5t-23.5 -9.5t-22 9q-6 8 -6 18q0 16 13 28q11 9 24 9z" />
    <glyph glyph-name="less" unicode="&#x3c;" horiz-adv-x="440" 
d="M343 128l-3 -25q-75 49 -148 93.5t-148 93.5l4 26l349 190l-4 -26l-325 -177z" />
    <glyph glyph-name="equal" unicode="=" horiz-adv-x="532" 
d="M459 360h-373l3 22h373zM440 222h-373l3 22h373z" />
    <glyph glyph-name="greater" unicode="&#x3e;" horiz-adv-x="441" 
d="M98 506q75 -50 149 -95t149 -95l-4 -26l-351 -187l3 23l329 177q-67 42 -139 88.5t-140 88.5z" />
    <glyph glyph-name="question" unicode="?" horiz-adv-x="446" 
d="M254 713q39 0 75 -12t62 -35.5t39 -59.5q8 -22 8 -49q0 -15 -3 -32q-7 -47 -29.5 -84.5t-54.5 -64.5t-71.5 -43t-80.5 -20l-33 -193h-18l26 210q42 3 82.5 17.5t73.5 40t55 60.5t27 78q2 12 2 24q0 26 -8 48q-12 31 -35.5 51.5t-55.5 30.5t-67 10q-38 0 -81.5 -17.5
t-76.5 -42.5l-12 14q36 31 83 50t93 19zM148 51q11 0 18 -8q5 -6 5 -14q0 -14 -11 -23q-9 -8 -20 -8t-18 8q-5 5 -5 13q0 14 11 24q9 8 20 8z" />
    <glyph glyph-name="at" unicode="@" horiz-adv-x="777" 
d="M501 121q34 0 69 20.5t65.5 55t52.5 79.5t29 95q3 19 3 37q0 39 -12 72q-18 48 -54.5 82t-88 52t-109.5 18q-73 0 -137 -25.5t-113.5 -70.5t-82 -105.5t-42.5 -129.5q-4 -29 -4 -56q0 -54 16 -98q24 -66 74 -105t121 -48q20 -3 40 -3q54 0 115 19l3 -19q-64 -20 -122 -20
q-21 0 -40 3q-77 9 -131 50t-81 112q-17 46 -17 102q0 30 5 63q10 76 46.5 140.5t90 111.5t121 73.5t139.5 26.5q68 0 123.5 -20.5t94 -57.5t55.5 -89q12 -34 12 -73q0 -21 -3 -42q-9 -64 -37.5 -115.5t-65.5 -87t-78 -53.5q-36 -16 -66 -16h-7q-12 1 -21.5 5t-15 13.5
t-5.5 25t9 38.5q-45 -51 -84 -68t-73 -17q-29 0 -49 10.5t-32 28t-16 41.5q-2 11 -2 23.5t2 25.5q7 49 28.5 98t54.5 87t76 62t93 24q14 0 31.5 -3.5t32.5 -14.5t24 -32q7 -17 7 -44v-12l5 -1l42 85h21l-125 -262q-7 -15 -13.5 -31t-7.5 -29.5t6 -22t28 -8.5zM216 205
q0 -33 18 -57q23 -32 69 -32q30 0 59 15.5t55 40t47.5 55.5t36.5 63q14 30 21 64q5 20 5 39q0 11 -1 22q-5 28 -24 46q-17 15 -48 15h-11h-4q-45 0 -82 -24q-39 -24 -68 -61.5t-47 -81.5t-24 -82q-2 -11 -2 -22z" />
    <glyph glyph-name="A" unicode="A" horiz-adv-x="600" 
d="M539 0h-27l-58 253h-327l-125 -253h-27l359 708h45zM450 278l-92 411h-6l-212 -411h310z" />
    <glyph glyph-name="B" unicode="B" horiz-adv-x="627" 
d="M308 0h-258l99 708h259q39 0 71.5 -11t54 -33t31.5 -54q6 -20 6 -44q0 -14 -2 -30q-8 -56 -34.5 -95t-90.5 -65q42 -12 66 -32t35 -45t12 -53v-12q0 -23 -3 -45q-9 -55 -31 -91.5t-54.5 -58t-73.5 -30.5t-87 -9zM363 387q35 0 65.5 9t54.5 27t40 46t22 66q2 14 2 26
q0 21 -5 39q-9 28 -28 47t-47 28.5t-62 9.5h-234l-42 -298h234zM321 24q37 0 70 8q37 8 65.5 28t47.5 52t25 78q3 20 3 38q0 22 -5 41q-9 33 -31 54t-56.5 30.5t-79.5 9.5h-234l-48 -339h234h9z" />
    <glyph glyph-name="C" unicode="C" horiz-adv-x="584" 
d="M381 718q33 0 65.5 -6.5t61 -19t50.5 -32t34 -44.5l-24 -15q-11 23 -30 40.5t-44.5 29t-55 17.5t-59.5 6q-41 0 -82.5 -11t-76 -32.5t-58.5 -54.5t-30 -76l-45 -332q-2 -13 -2 -25q0 -28 11 -51q14 -32 42.5 -54t67 -32.5t79.5 -10.5q26 0 56 5.5t59.5 16.5t55 27.5
t43.5 39.5l20 -11q-19 -26 -46 -45t-58 -32t-65 -19.5t-68 -6.5q-46 0 -88.5 12.5t-74 37.5t-47.5 62q-12 26 -12 58q0 13 2 28l45 332q7 49 31.5 86t61.5 62t83.5 37.5t97.5 12.5z" />
    <glyph glyph-name="D" unicode="D" horiz-adv-x="640" 
d="M388 708q46 0 86 -11t68 -34t41 -59q8 -23 8 -53q0 -15 -2 -33l-46 -329q-7 -50 -30 -85.5t-57.5 -58.5t-77.5 -34t-89 -11h-239l99 708h239zM292 25q39 0 76.5 9.5t69 29.5t53 51t27.5 74l46 329q2 15 2 29q0 26 -8 47q-11 31 -35.5 51t-60.5 29t-78 9h-214l-92 -658
h214z" />
    <glyph glyph-name="E" unicode="E" horiz-adv-x="564" 
d="M126 366h366l-4 -27h-366l-44 -314h396l-3 -25h-421l99 708h421l-4 -25h-396z" />
    <glyph glyph-name="F" unicode="F" horiz-adv-x="539" 
d="M170 683l-46 -330h348l-3 -25h-348l-46 -328h-25l99 708h408l-4 -25h-383z" />
    <glyph glyph-name="G" unicode="G" horiz-adv-x="633" 
d="M383 718q33 0 64.5 -6.5t58.5 -19.5t48 -32.5t33 -44.5l-25 -15q-10 24 -29 42t-43.5 29t-53.5 16.5t-59 5.5q-42 0 -83 -10.5t-75 -32.5t-57.5 -54.5t-29.5 -75.5l-45 -329q-2 -13 -2 -25q0 -29 11 -52q14 -34 42 -56t66.5 -33t80.5 -11t83.5 11t76.5 33t59 55.5
t30 77.5l18 127h-217l4 24h242l-22 -151q-7 -50 -34 -88t-65.5 -63t-85 -37.5t-92.5 -12.5q-47 0 -89.5 12.5t-74 37.5t-47.5 63q-11 26 -11 59q0 14 2 29l45 329q7 49 33.5 86t65 62t84.5 37.5t93 12.5z" />
    <glyph glyph-name="H" unicode="H" horiz-adv-x="682" 
d="M75 0h-25l99 708h25l-48 -342h447l48 342h25l-99 -708h-25l47 341h-447z" />
    <glyph glyph-name="I" unicode="I" horiz-adv-x="210" 
d="M75 0h-25l99 708h25z" />
    <glyph glyph-name="J" unicode="J" horiz-adv-x="573" 
d="M204 -10q-37 0 -71 9t-61.5 27t-46.5 45t-25 62l26 8q6 -34 24.5 -58t43.5 -39.5t55 -22.5q7 -2 17.5 -3t18.5 -2t15 -2h8q39 0 78.5 10.5t72.5 32t56 54t29 76.5l70 498h-236l3 23h261l-73 -521q-7 -51 -32.5 -88t-62.5 -61.5t-81 -36t-89 -11.5z" />
    <glyph glyph-name="K" unicode="K" horiz-adv-x="589" 
d="M114 278l479 430h32l-375 -341l276 -367h-29l-267 349l-121 -106l-34 -243h-25l99 708h25z" />
    <glyph glyph-name="L" unicode="L" horiz-adv-x="488" 
d="M50 0l99 708h25l-96 -683h354l-3 -25h-379z" />
    <glyph glyph-name="M" unicode="M" horiz-adv-x="796" 
d="M179 683l-9 -1l-95 -682h-25l99 708h53l172 -573l333 573h53l-99 -708h-25l96 690h-9l-337 -578h-32z" />
    <glyph glyph-name="N" unicode="N" horiz-adv-x="670" 
d="M513 24l96 684h25l-99 -708h-43l-320 676l-96 -676h-26l99 708h39z" />
    <glyph glyph-name="O" unicode="O" horiz-adv-x="682" 
d="M398 718q49 0 95 -12.5t79.5 -37.5t51.5 -62q12 -27 12 -60q0 -14 -2 -28l-45 -327q-7 -50 -35 -87.5t-68.5 -63t-90 -38t-98.5 -12.5q-50 0 -95 12.5t-78.5 38t-51.5 63.5q-12 26 -12 59q0 14 2 28l45 327q7 50 34 87.5t67 62.5t89.5 37.5t100.5 12.5zM85 167
q0 -29 11 -53q16 -33 46.5 -55t71.5 -33t86 -11t89.5 11t81 33t62 55t31.5 77l45 327q2 13 2 24q0 31 -12 56q-16 33 -47 54.5t-72.5 31.5t-86.5 10t-89 -10.5t-80 -32t-61 -54.5t-31 -79l-45 -327q-2 -12 -2 -24z" />
    <glyph glyph-name="P" unicode="P" horiz-adv-x="601" 
d="M588 523q0 -15 -2 -30q-6 -39 -24.5 -76.5t-50 -67.5t-74.5 -48.5t-97 -18.5h-226l-39 -282h-25l99 708h250q54 -1 92 -20t61 -49.5t31 -68.5q5 -23 5 -47zM343 307q45 0 83 16.5t66.5 42.5t46 59.5t22.5 68.5q2 13 2 27q0 21 -5 42q-8 34 -29 61t-54.5 44t-78.5 17h-225
l-53 -378h225z" />
    <glyph glyph-name="Q" unicode="Q" horiz-adv-x="681" 
d="M60 163q0 14 2 28l45 327q7 50 34 87.5t67 62.5t89.5 37.5t100.5 12.5q49 0 94.5 -12.5t79 -37.5t50.5 -62q13 -27 13 -60q0 -14 -2 -28l-45 -327q-7 -47 -25.5 -75.5t-49.5 -56.5l44 -63l-21 -13l-43 61q-47 -29 -97.5 -41.5t-98.5 -12.5q-50 0 -95 12.5t-78.5 38
t-51.5 63.5q-12 26 -12 59zM610 541q0 30 -12 54q-16 33 -46.5 55t-71.5 33t-86 11t-89 -10.5t-80.5 -32t-61.5 -54.5t-31 -79l-45 -327q-2 -12 -2 -23q0 -29 11 -53q16 -33 46.5 -55.5t71.5 -34t86 -11.5q44 0 91 12t90 38l-51 78l21 14l48 -77q32 23 46 53t18 59l45 327
q2 12 2 23z" />
    <glyph glyph-name="R" unicode="R" horiz-adv-x="608" 
d="M399 708q46 0 84.5 -10t64.5 -32.5t38 -59.5q8 -24 8 -56q0 -16 -2 -34q-8 -55 -29.5 -93t-53.5 -62t-74 -34.5t-90 -10.5h-38l195 -316h-29l-194 316h-161l-44 -316h-24l99 708h250zM348 338q97 0 151.5 41.5t68.5 135.5q3 20 3 37q0 25 -6 44q-10 33 -33.5 53t-57.5 29
q-31 7 -68 7h-9h-227l-49 -347h227z" />
    <glyph glyph-name="S" unicode="S" horiz-adv-x="577" 
d="M114 514q0 -19 7 -36q12 -29 38.5 -49t63.5 -33t79 -22t83.5 -23t72 -38t44.5 -60q9 -20 9 -46q0 -20 -5 -42q-9 -43 -33.5 -75.5t-60 -54.5t-79 -33.5t-90.5 -11.5q-66 0 -125.5 27t-91.5 87l25 10q27 -50 80.5 -75t116.5 -25q37 0 73.5 9t68 27.5t55 47t34.5 67.5
q4 20 4 38q0 23 -7 41q-13 31 -40.5 51.5t-65 33t-77.5 21.5q-39 8 -78.5 21t-69.5 35t-45 56q-10 22 -10 49q0 17 3 35q7 44 31 76.5t58.5 53.5t76.5 31.5t86 10.5q69 0 124 -25.5t81 -83.5l-25 -9q-11 24 -29.5 41.5t-43 29.5t-53 17.5t-58.5 5.5q-38 0 -74 -8t-66.5 -26
t-52.5 -46t-30 -68q-4 -17 -4 -32z" />
    <glyph glyph-name="T" unicode="T" horiz-adv-x="536" 
d="M568 683h-236l-95 -683h-25l95 683h-236l4 25h497z" />
    <glyph glyph-name="U" unicode="U" horiz-adv-x="672" 
d="M95 168q0 -29 10 -53q14 -34 42.5 -56.5t67 -33.5t80.5 -11t83.5 11t76 33.5t59 56.5t30.5 79l72 514h25l-72 -514q-7 -51 -34 -89t-65.5 -63.5t-85 -38.5t-92.5 -13q-47 0 -89.5 13t-74 38.5t-47.5 63.5q-11 26 -11 59q0 14 2 30l72 514h25l-72 -514q-2 -14 -2 -26z" />
    <glyph glyph-name="V" unicode="V" horiz-adv-x="597" 
d="M636 709l-357 -709h-45l-162 708h28l157 -685h6l346 686h27z" />
    <glyph glyph-name="W" unicode="W" horiz-adv-x="925" 
d="M957 708l-306 -708h-44l-105 578l-269 -578h-45l-107 708h27l104 -681h5l270 575h35l107 -577h6l295 683h27z" />
    <glyph glyph-name="X" unicode="X" horiz-adv-x="546" 
d="M477 0h-29l-170 336l-264 -336h-31l282 353l-182 355h28l172 -332l265 332h29l-283 -355z" />
    <glyph glyph-name="Y" unicode="Y" horiz-adv-x="547" 
d="M242 0h-25l39 281l-182 427h30l169 -399l288 399h31l-311 -427z" />
    <glyph glyph-name="Z" unicode="Z" horiz-adv-x="546" 
d="M104 708h460l7 -13l-549 -673h441l-3 -22h-465l-9 12l550 674h-435z" />
    <glyph glyph-name="bracketleft" unicode="[" horiz-adv-x="236" 
d="M46 -98h92l-3 -22h-116l122 871h116l-3 -21h-92z" />
    <glyph glyph-name="backslash" unicode="\" horiz-adv-x="386" 
d="M91 741l20 7l200 -770l-23 -7z" />
    <glyph glyph-name="bracketright" unicode="]" horiz-adv-x="236" 
d="M191 727h-90l3 24h116l-123 -877h-116l3 25h90z" />
    <glyph glyph-name="asciicircum" unicode="^" horiz-adv-x="504" 
d="M321 708q35 -66 71 -129.5t75 -126.5h-27l-135 239l-197 -239h-27l212 256h28z" />
    <glyph glyph-name="underscore" unicode="_" horiz-adv-x="585" 
d="M479 -43h-466l4 22h466z" />
    <glyph glyph-name="grave" unicode="`" horiz-adv-x="210" 
d="M44 862h35l47 -103h-25z" />
    <glyph glyph-name="a" unicode="a" horiz-adv-x="511" 
d="M46 113q0 12 2 26l33 234q6 43 26.5 73t50 48t65.5 26t73 8q45 0 87 -10t74 -24l-68 -494h-21l7 59q-41 -41 -87.5 -55t-89.5 -14q-32 0 -61 8.5t-51 26.5t-33 47q-7 18 -7 41zM298 508q-34 0 -67 -7t-60 -23t-45.5 -41.5t-23.5 -62.5l-33 -235q-2 -12 -2 -24
q0 -20 6 -35q9 -25 27.5 -40.5t44.5 -22.5t55 -7q23 0 47.5 5t47.5 14t44 22t37 30l3 4l55 393q-29 14 -64.5 22t-71.5 8z" />
    <glyph glyph-name="b" unicode="b" horiz-adv-x="509" 
d="M291 528q34 0 65 -9.5t53.5 -29t34.5 -47.5q8 -20 8 -43q0 -11 -2 -22l-32 -230q-5 -38 -24.5 -66.5t-47.5 -48.5t-61 -30.5t-66 -11.5q-47 0 -92.5 4.5t-87.5 18.5l98 695h22l-31 -219q45 20 86.5 29.5t76.5 9.5zM222 11q29 0 58 10t53 27.5t41 42t21 54.5l32 232
q1 9 1 17q0 21 -7 38q-10 23 -29.5 39.5t-46 25.5t-56.5 9q-41 0 -79 -11.5t-86 -31.5l-60 -432q18 -6 39 -10t42 -6.5t41 -3t36 -0.5z" />
    <glyph glyph-name="c" unicode="c" horiz-adv-x="453" 
d="M275 506q-30 0 -59 -7.5t-53.5 -23.5t-41.5 -39.5t-21 -56.5l-32 -238q-2 -11 -2 -20q0 -21 8 -37q10 -25 29.5 -41t46.5 -23.5t57 -7.5q45 0 88 18t67 56l20 -10q-29 -42 -77.5 -64t-100.5 -22q-33 0 -64 9.5t-53.5 28t-34.5 46.5q-8 20 -8 45q0 10 2 22l32 236
q5 38 24.5 66.5t47.5 47t61.5 28t66.5 9.5q46 0 84.5 -16t58.5 -51l-18 -11q-17 30 -51.5 43t-76.5 13z" />
    <glyph glyph-name="d" unicode="d" horiz-adv-x="512" 
d="M45 114q0 13 2 27l33 235q5 38 24.5 66.5t47.5 47.5t61.5 28.5t67.5 9.5q35 0 74 -6.5t80 -26.5l30 213h23l-97 -692q-46 -14 -93.5 -20t-94.5 -6q-33 1 -63.5 9t-53 26t-34.5 47q-7 18 -7 42zM277 505q-30 0 -59.5 -8t-53.5 -24t-40.5 -39.5t-20.5 -56.5l-33 -236
q-2 -11 -2 -21q0 -20 7 -36q10 -24 29.5 -39.5t46 -23t56.5 -7.5q38 0 78 4t86 18l60 433q-78 36 -154 36z" />
    <glyph glyph-name="e" unicode="e" horiz-adv-x="474" 
d="M64 118q0 -21 8 -38q11 -24 31.5 -39t47.5 -22t56 -7q41 0 81.5 14.5t66.5 47.5l16 -10q-30 -36 -75 -55t-92 -19q-34 0 -65 9t-53.5 28t-33.5 47q-8 19 -8 43q0 11 2 23l31 228q6 40 25.5 70.5t47.5 50t61.5 29.5t67.5 10q33 0 63.5 -9t52.5 -28.5t33 -48.5q8 -20 8 -44
q0 -12 -2 -26q-6 -40 -25 -70.5t-46.5 -51t-61 -31t-68.5 -10.5t-74.5 7t-78.5 27l-14 -104q-2 -11 -2 -21zM236 229q31 0 60.5 8.5t54 26t41 44.5t22.5 64q2 11 2 22q0 21 -7 38q-10 26 -29.5 42.5t-46.5 25t-57 8.5t-60 -8.5t-55 -26t-42 -43.5t-22 -61l-14 -105
q40 -19 73 -27t80 -8z" />
    <glyph glyph-name="f" unicode="f" horiz-adv-x="247" 
d="M275 718h6l-3 -19h-6q-52 0 -87 -33q-37 -34 -45 -99l-9 -70h112l-3 -21h-112l-74 -530q-5 -36 -20.5 -63.5t-36.5 -45.5l-10 13q23 20 32 45t13 51l86 621q5 39 20 68t36.5 48t49.5 27q24 8 51 8z" />
    <glyph glyph-name="g" unicode="g" horiz-adv-x="503" 
d="M180 -188q29 0 57 7t51.5 22t40 38.5t22.5 56.5l14 93q-48 -22 -87 -30.5t-74 -8.5q-34 0 -64.5 9.5t-52.5 28.5t-33 47q-9 20 -9 43q0 11 2 22l31 239q5 37 24 64.5t46 46.5t59.5 28.5t65.5 9.5q48 0 89.5 -10t86.5 -26l-77 -555q-5 -38 -23.5 -65.5t-45 -45.5
t-59 -26.5t-65.5 -8.5q-42 0 -79 12t-62 36l15 15q24 -20 58 -31t69 -11zM270 506q-29 0 -58 -8t-52.5 -24t-39.5 -39.5t-20 -54.5l-31 -240q-1 -9 -1 -18q0 -21 6 -38q10 -23 29 -39t45.5 -24.5t55.5 -9.5q21 0 39.5 2t38 6.5t40 12t46.5 18.5l57 424q-27 12 -69.5 22
t-85.5 10z" />
    <glyph glyph-name="h" unicode="h" horiz-adv-x="517" 
d="M296 528q31 0 58 -8q31 -10 53.5 -29t34.5 -47q8 -20 8 -44q0 -11 -2 -22l-51 -378h-22l51 378q1 9 1 18q0 22 -7 38q-10 24 -29.5 40t-46.5 24t-56 8q-36 0 -77.5 -8.5t-85.5 -25.5l-64 -472h-22l99 708h22l-31 -214q45 20 85.5 27t75.5 7h6z" />
    <glyph glyph-name="i" unicode="i" horiz-adv-x="185" 
d="M147 692q11 0 19 -8q5 -7 5 -15q0 -14 -11 -25q-10 -8 -21 -8t-18.5 8.5t-5.5 19.5t11.5 19.5t20.5 8.5zM60 0h-24l74 518h24z" />
    <glyph glyph-name="j" unicode="j" horiz-adv-x="185" 
d="M146 688q11 0 18 -8q6 -7 6 -15q0 -14 -12 -25q-9 -8 -20 -8t-18.5 8.5t-5.5 19.5t11.5 19.5t20.5 8.5zM-95 -153q54 5 87.5 37t42.5 94l77 540h22l-77 -540q-10 -71 -52 -109.5t-103 -43.5z" />
    <glyph glyph-name="k" unicode="k" horiz-adv-x="461" 
d="M90 207l341 311h27l-251 -233l181 -285h-25l-175 269l-102 -90l-25 -179h-22l99 708h22z" />
    <glyph glyph-name="l" unicode="l" horiz-adv-x="210" 
d="M154 -10q-55 0 -82 36q-21 26 -21 72q0 18 3 39l79 571h22l-79 -571q-2 -17 -2 -32q0 -35 12 -59q18 -34 71 -34h3l-3 -22h-3z" />
    <glyph glyph-name="m" unicode="m" horiz-adv-x="804" 
d="M263 528q23 0 46 -4t44 -13t37.5 -25t27.5 -40q19 25 39 40.5t40 24.5t40.5 12.5t42.5 4.5h7q32 0 59 -8q31 -10 52.5 -30t31.5 -50q7 -21 7 -45q0 -12 -2 -25l-51 -370h-23l50 368q2 12 2 24q0 21 -7 38q-9 26 -28.5 42.5t-45.5 24.5t-54 8q-27 0 -53 -7.5t-48 -21.5
t-36.5 -35t-18.5 -49l-54 -392h-22l54 392q1 7 1 14q0 20 -8 35q-11 21 -32 35.5t-49.5 22t-58.5 7.5q-34 0 -68 -9t-60 -24l-65 -473h-23l68 489q34 21 75.5 30t82.5 9z" />
    <glyph glyph-name="n" unicode="n" 
d="M448 400q0 -11 -2 -23l-52 -377h-22l52 377q1 9 1 18q0 22 -7 39q-10 24 -29.5 40t-45.5 23.5t-54 7.5q-43 0 -88.5 -7.5t-75.5 -19.5l-66 -478h-22l69 497q92 31 186 31q33 -1 63 -10t52 -27t33 -47q8 -19 8 -44z" />
    <glyph glyph-name="o" unicode="o" horiz-adv-x="495" 
d="M279 529q33 0 64 -10t53.5 -28.5t33.5 -46.5q9 -20 9 -45q0 -10 -2 -22l-32 -235q-5 -38 -24.5 -66.5t-47.5 -47t-61.5 -28.5t-66.5 -10q-34 0 -65 10t-53.5 28.5t-34.5 47.5q-8 19 -8 44q0 10 2 22l32 235q5 38 24.5 66.5t47.5 47t61.5 28.5t67.5 10zM276 506
q-29 0 -58 -7.5t-54 -23t-42.5 -40t-21.5 -58.5l-32 -235q-2 -11 -2 -20q0 -22 8 -38q11 -25 31 -41t47 -23.5t56 -7.5q28 0 57 7.5t54 23.5t42 40.5t22 58.5l32 235q1 9 1 18q0 23 -8 41q-10 24 -30 39.5t-47 23t-55 7.5z" />
    <glyph glyph-name="p" unicode="p" horiz-adv-x="508" 
d="M451 393q0 -11 -2 -22l-31 -231q-5 -37 -24.5 -65t-47.5 -47.5t-62 -29t-68 -9.5q-35 0 -74 9.5t-78 29.5l-31 -220h-22l97 697q46 14 92.5 18.5t93.5 4.5q33 -1 63 -11.5t52 -30.5t33 -49q9 -20 9 -44zM220 11q30 0 59.5 9t54 25.5t41 40t20.5 54.5l32 233q1 9 1 17
q0 20 -7 38q-10 24 -29 41.5t-45.5 27.5t-55.5 10q-16 0 -36 -0.5t-42 -3t-44 -6.5t-41 -10l-60 -434q42 -23 76.5 -32.5t75.5 -9.5z" />
    <glyph glyph-name="q" unicode="q" horiz-adv-x="508" 
d="M204 -10q-34 0 -64.5 9.5t-53 29t-34.5 47.5q-8 20 -8 43q0 11 2 22l31 230q5 37 24.5 66t47 49t61 30.5t66.5 11.5q47 0 92.5 -4.5t87.5 -18.5l-97 -697h-22l31 221q-45 -20 -87 -29.5t-77 -9.5zM273 507q-29 0 -58 -10t-53 -27.5t-40.5 -42t-20.5 -54.5l-32 -232
q-1 -9 -1 -17q0 -21 7 -38q10 -23 29.5 -39.5t46 -25.5t55.5 -9q41 0 79.5 10.5t86.5 32.5l60 432q-18 6 -39 10t-42.5 6.5t-41.5 3t-36 0.5z" />
    <glyph glyph-name="r" unicode="r" horiz-adv-x="294" 
d="M268 528q10 0 19 -1t19 -2l-3 -21q-14 2 -33 2q-3 1 -5 1q-17 0 -30 -4q-44 -11 -81 -42.5t-45 -83.5l-52 -377h-22l52 377q4 30 18 55t34 44t46 31.5t54 17.5q16 3 29 3z" />
    <glyph glyph-name="s" unicode="s" horiz-adv-x="429" 
d="M179 12h8q20 0 44.5 7t46.5 21.5t38 36t20 51.5q1 9 1 17q0 20 -7 35q-9 22 -26 37t-40 24t-45 14q-28 5 -56 14.5t-50 25.5t-33 40q-9 17 -9 39q0 9 2 20q5 34 22.5 59t42 41.5t54.5 25t60 8.5q38 0 72 -13t55 -36l-16 -15q-19 21 -50.5 32.5t-64.5 11.5q-26 0 -51 -7
t-46 -21t-36.5 -35.5t-20.5 -50.5q-1 -8 -1 -15q0 -23 9 -39q13 -21 33.5 -34t45 -19.5t45.5 -10.5q27 -5 52.5 -15.5t45 -28t28.5 -43.5q7 -18 7 -41q0 -10 -1 -20q-5 -33 -21.5 -58t-40.5 -42.5t-53.5 -27t-58.5 -10.5h-9q-48 0 -87 20q-43 23 -69 66l20 13q26 -40 64 -59
q34 -18 76 -18z" />
    <glyph glyph-name="t" unicode="t" horiz-adv-x="250" 
d="M75 119q0 -20 7 -36q10 -24 28.5 -39.5t41.5 -23t46 -7.5l-3 -21q-32 0 -59.5 10t-47 29.5t-28.5 46.5q-7 19 -7 40q0 11 2 23l68 492h21l-16 -115h112l-2 -20h-112l-49 -357q-2 -11 -2 -22z" />
    <glyph glyph-name="u" unicode="u" 
d="M53 119q0 10 2 22l52 377h22l-52 -377q-2 -10 -2 -19q0 -20 8 -37q11 -24 30.5 -40.5t45.5 -24.5t53 -8q41 0 86.5 8t77.5 21l66 477h22l-69 -496q-94 -32 -186 -32q-33 1 -63 10.5t-52 28.5t-33 47q-8 19 -8 43z" />
    <glyph glyph-name="v" unicode="v" horiz-adv-x="460" 
d="M464 518l-258 -518h-36l-115 518h25l112 -494l248 494h24z" />
    <glyph glyph-name="w" unicode="w" horiz-adv-x="711" 
d="M141 0l-81 518h27l75 -493h3l200 493h39l61 -492h3l216 492h27l-227 -518h-41l-61 490h-2l-197 -490h-42z" />
    <glyph glyph-name="x" unicode="x" horiz-adv-x="437" 
d="M228 259l131 -259h-26l-122 243l-191 -243h-27l205 259l-133 259h28l122 -243l190 243h27z" />
    <glyph glyph-name="y" unicode="y" horiz-adv-x="515" 
d="M186 -209q-42 0 -77.5 12.5t-60.5 36.5l16 16q26 -23 55 -33t71 -10q27 0 55 7.5t52 22.5t41 38t22 55l14 94q-48 -22 -86.5 -31t-73.5 -9q-34 0 -65 9.5t-53.5 28.5t-33.5 47q-9 20 -9 43q0 11 2 22l52 378h23l-52 -378q-2 -11 -2 -21q0 -19 6 -35q10 -23 29 -39
t45.5 -24.5t56.5 -9.5q24 0 42.5 2.5t37 7t38.5 12t46 19.5l65 466h22l-82 -581q-5 -38 -24 -65.5t-46 -45.5t-60 -26.5t-66 -8.5z" />
    <glyph glyph-name="z" unicode="z" horiz-adv-x="436" 
d="M81 518h335l8 -17l-405 -480h334l-2 -21h-345l-12 21l401 477h-317z" />
    <glyph glyph-name="braceleft" unicode="{" horiz-adv-x="259" 
d="M255 727q-22 0 -34.5 -6t-19.5 -17.5t-10.5 -29t-6.5 -40.5l-21 -146q-6 -42 -16 -73t-22.5 -52.5t-26 -34t-24.5 -16.5q8 -4 18 -13.5t16.5 -29t9.5 -51.5v-18q0 -27 -5 -62l-21 -147q-3 -17 -3 -31q0 -20 6 -32q5 -11 17 -16.5t33 -5.5h16l-3 -21h-17q-26 0 -42 7.5
t-23.5 21t-8.5 32.5v11q0 15 2 33l20 145q6 38 6 68q0 25 -4 45q-8 44 -48 55l3 18q21 5 37 21t27 39.5t18.5 51.5t11.5 57l21 145q3 24 8 45t15.5 36t27.5 23.5t45 8.5h23l-3 -21h-22z" />
    <glyph glyph-name="bar" unicode="|" horiz-adv-x="179" 
d="M13 -161l127 908h22l-127 -908h-22z" />
    <glyph glyph-name="braceright" unicode="}" horiz-adv-x="260" 
d="M126 747q25 0 40 -8t21.5 -22.5t6.5 -35.5t-3 -46l-21 -145q-4 -29 -4 -57q-1 -3 -1 -5q0 -25 5 -46q5 -24 16.5 -40t31.5 -21l-3 -18q-21 -5 -37 -21t-27.5 -39t-18.5 -51t-11 -57l-20 -144q-7 -48 -30.5 -77t-71.5 -29h-17l3 21h15q42 0 57.5 24.5t20.5 60.5l21 145
q7 48 19 80.5t25 53t25.5 30.5t19.5 15q-10 4 -20 16.5t-16.5 34t-7.5 52.5q-1 6 -1 13q0 26 5 59l21 144q3 22 4.5 39t-2.5 29t-15 18.5t-33 6.5h-22l2 20h23z" />
    <glyph glyph-name="asciitilde" unicode="~" horiz-adv-x="528" 
d="M342 256q-23 0 -43 11t-39 24t-38 24t-38 11q-32 0 -55.5 -15t-45.5 -41q-2 3 -4.5 7t-4.5 6q19 26 47.5 45.5t66.5 19.5q24 0 43 -11t37 -24t36.5 -24t41.5 -11q32 0 55.5 17.5t44.5 43.5l8 -12q-19 -29 -48 -50t-64 -21z" />
    <glyph glyph-name="uni00A0" unicode="&#xa0;" horiz-adv-x="246" 
 />
    <glyph glyph-name="exclamdown" unicode="&#xa1;" horiz-adv-x="188" 
d="M35 -205h-27l80 572h27zM124 521q13 0 21 -9q6 -8 6 -18v-5q-2 -13 -12.5 -22.5t-23.5 -9.5t-21 9q-7 8 -7 18q0 16 13 28q11 9 24 9z" />
    <glyph glyph-name="cent" unicode="&#xa2;" horiz-adv-x="460" 
d="M292 507h-8l-68 -495q20 1 42 6.5t42 15.5t36.5 23t25.5 29l18 -9q-25 -39 -69.5 -60.5t-97.5 -26.5l-13 -84h-21l13 84q-33 4 -61.5 15t-49.5 30t-31 45q-7 18 -7 40q0 10 2 22l32 235q5 34 23 61.5t44 47t57.5 30t64.5 12.5l13 85h21l-13 -85q48 -3 80.5 -19t52.5 -48
l-17 -12q-16 25 -48 43q-29 15 -63 15zM66 125q0 -19 6 -34q9 -22 27 -38t42.5 -26t53.5 -14l68 493q-28 -1 -55.5 -10t-50.5 -25t-38.5 -39.5t-19.5 -53.5l-32 -236q-1 -9 -1 -17z" />
    <glyph glyph-name="sterling" unicode="&#xa3;" horiz-adv-x="493" 
d="M398 718q33 0 58 -8.5t48 -29.5l-17 -17q-17 16 -41 25t-53 9q-42 0 -74 -15t-54.5 -38.5t-35.5 -53t-17 -57.5l-21 -151h165l-3 -20h-165l-48 -341h245l-2 -21h-372l2 21h104l48 341h-104l3 20h104l20 148q4 31 17.5 64.5t38.5 61t63 45t91 17.5z" />
    <glyph glyph-name="currency" unicode="&#xa4;" horiz-adv-x="617" 
d="M81 322q0 16 2 32q6 42 25.5 82t56.5 75l-44 52l15 16l44 -55q86 61 168 61q40 0 77.5 -15t69.5 -44l59 53l13 -12l-62 -56q28 -35 38 -75q6 -25 6 -51q0 -15 -2 -31q-6 -42 -26 -81.5t-58 -74.5l50 -55q-4 -2 -9 -6.5t-8 -7.5l-48 54q-40 -29 -83 -46t-83 -17t-78 16
t-71 45l-60 -53l-12 13l62 54q-27 35 -37 76q-5 25 -5 51zM101 323q0 -27 7 -53q12 -38 36.5 -66.5t60 -45t78.5 -16.5t84 16.5t74 45t55.5 67t28.5 82.5q2 15 2 30q0 28 -7 54q-12 39 -36.5 67.5t-61 45t-79.5 16.5t-83.5 -16.5t-73 -45t-55 -67.5t-28.5 -84q-2 -15 -2 -30
z" />
    <glyph glyph-name="yen" unicode="&#xa5;" horiz-adv-x="563" 
d="M453 292l-9 -23h-162l-10 -74h167l-7 -22h-163l-24 -173h-23l24 173h-165l6 22h162l10 74h-163l8 23h146l-166 416h29l162 -410l284 410h29l-288 -416h153z" />
    <glyph glyph-name="brokenbar" unicode="&#xa6;" horiz-adv-x="191" 
d="M93 373l47 333h24l-47 -333h-24zM23 -127l48 346h24l-48 -346h-24z" />
    <glyph glyph-name="section" unicode="&#xa7;" horiz-adv-x="467" 
d="M166 -106q25 0 51 5t48 18.5t38 36.5t21 59q1 8 1 16q0 25 -12 44q-16 25 -42.5 44t-58.5 34t-58 29q-20 11 -37.5 24t-30 29t-18.5 35q-4 14 -4 29q0 8 1 16q7 45 46.5 77.5t92.5 54.5q-42 27 -63 56q-17 23 -17 53q0 8 1 15q5 34 23 60.5t44 45t57 28t63 9.5
q18 0 38.5 -4t38.5 -12.5t32 -22t21 -33.5l-21 -11q-14 33 -44.5 46.5t-68.5 13.5q-26 0 -52 -8t-48.5 -23.5t-38.5 -38t-20 -50.5q-1 -6 -1 -12q0 -19 8 -33q9 -20 26.5 -35.5t41.5 -28t49 -24.5t50.5 -27t45.5 -34t31 -43q7 -18 7 -39q0 -8 -1 -17q-3 -21 -13.5 -40.5
t-27 -36.5t-37.5 -32t-43 -27q39 -25 57 -58q13 -26 13 -49q0 -7 -1 -13q-6 -42 -24.5 -71t-45 -46t-58.5 -24.5t-64 -7.5q-26 0 -50.5 6.5t-45 18.5t-36.5 30t-23 42l24 10q10 -23 25.5 -39t34 -26t38 -14.5t37.5 -4.5zM382 286q0 14 -4 26q-7 19 -18 34t-25 26.5t-27 19.5
l-77 40q-20 -6 -43 -16.5t-43.5 -25.5t-36 -34t-18.5 -43q-1 -7 -1 -13q0 -14 5 -26q6 -17 17 -30t24.5 -22t24.5 -16l105 -55q17 8 36 21t36 28.5t29 34t15 38.5q1 7 1 13z" />
    <glyph glyph-name="dieresis" unicode="&#xa8;" horiz-adv-x="300" 
d="M70 833q10 0 16 -7t4 -17t-9.5 -17t-17.5 -7t-17 7q-4 5 -4 12q0 13 10 22q8 7 18 7zM250 833q13 0 21 -9q6 -8 6 -18v-5q-2 -13 -12.5 -22.5t-23.5 -9.5t-21 9q-7 8 -7 18q0 16 13 28q11 9 24 9z" />
    <glyph glyph-name="copyright" unicode="&#xa9;" horiz-adv-x="827" 
d="M470 709q73 0 134 -28t102.5 -76.5t59.5 -112.5q13 -42 13 -88q0 -24 -4 -50q-10 -73 -47 -137.5t-92.5 -113t-124 -76.5t-141.5 -28t-133.5 28t-102 76.5t-60.5 112.5q-12 43 -12 89q0 24 3 49q10 73 47.5 137.5t92.5 113t123.5 76.5t141.5 28zM84 305q0 -42 12 -81
q17 -60 56 -105t96 -71t126 -26t133.5 26t115.5 71t85 105.5t44 129.5q4 25 4 49q0 42 -12 81q-17 60 -55.5 105t-95.5 71t-126 26t-133.5 -26t-115.5 -71t-85.5 -105.5t-44.5 -129.5q-4 -25 -4 -49zM449 559q-30 0 -59 -7.5t-53.5 -23.5t-41.5 -39.5t-21 -56.5l-21 -153
q-2 -11 -2 -21q0 -20 7 -36q10 -25 30 -41t47 -23.5t57 -7.5q45 0 88 18t67 56q7 -3 10 -5t10 -5q-29 -42 -78 -64t-101 -22q-33 0 -64 9.5t-53.5 28t-33.5 46.5q-8 20 -8 44q0 11 2 23l21 151q5 38 24.5 66.5t47.5 47t61.5 28t66.5 9.5q46 0 85 -16t59 -51l-19 -11
q-17 30 -51.5 43t-76.5 13z" />
    <glyph glyph-name="ordfeminine" unicode="&#xaa;" horiz-adv-x="367" 
d="M317 635q0 12 -4 21q-6 14 -18 23t-29 13.5t-36 4.5q-21 0 -44.5 -8t-44.5 -23l-13 13q25 19 53 29t54 10q22 0 42 -5.5t34.5 -17.5t21.5 -29q5 -13 5 -28q0 -7 -1 -14l-31 -223q-67 -19 -126 -19h-6q-44 1 -72 31q-21 24 -21 60q0 9 1 19q4 29 17.5 48t32 30t41.5 15.5
t46 4.5q19 0 42.5 -3.5t47.5 -14.5l7 51q1 6 1 12zM214 571q-20 0 -38 -3.5t-33 -12t-25.5 -24t-14.5 -39.5q-1 -9 -1 -17q0 -30 17 -49q22 -23 60 -24q23 0 50 2.5t58 8.5l19 140q-20 8 -44.5 13t-47.5 5z" />
    <glyph glyph-name="guillemotleft" unicode="&#xab;" horiz-adv-x="377" 
d="M192 476q2 -2 7 -5.5t7 -5.5t3 -2l-138 -168q16 -30 29 -54.5t23 -44.5t18.5 -36.5t17.5 -32.5l-17 -11l-97 179zM316 476q2 -2 7 -5.5t7 -5.5t3 -2l-140 -168l91 -168l-18 -11l-97 179z" />
    <glyph glyph-name="logicalnot" unicode="&#xac;" horiz-adv-x="603" 
d="M87 382h443l-27 -195h-21l24 174h-422z" />
    <glyph glyph-name="uni00AD" unicode="&#xad;" horiz-adv-x="334" 
d="M281 258h-228l3 23h228z" />
    <glyph glyph-name="registered" unicode="&#xae;" horiz-adv-x="827" 
d="M470 709q73 0 134 -28t102.5 -76.5t59.5 -112.5q13 -42 13 -88q0 -24 -4 -50q-10 -73 -47 -137.5t-92.5 -113t-124 -76.5t-141.5 -28t-133.5 28t-102 76.5t-60.5 112.5q-12 43 -12 89q0 24 3 49q10 73 47.5 137.5t92.5 113t123.5 76.5t141.5 28zM85 305q0 -42 11 -81
q18 -60 56.5 -104.5t95.5 -70.5t126 -26t133 26t115 70.5t85 105t44 129.5q4 25 4 49q0 42 -11 81q-18 60 -56.5 104.5t-95 70.5t-125.5 26t-133 -26t-115 -70.5t-85.5 -105t-44.5 -129.5q-4 -25 -4 -49zM465 556q64 0 93 -32q23 -27 23 -62q0 -8 -1 -17q-8 -52 -46.5 -81.5
t-89.5 -33.5l99 -172h-22l-101 170h-103l-24 -170h-20l56 398h136zM405 346q25 0 50.5 3.5t47 14t36.5 30t20 51.5q1 7 1 14q0 16 -6 29q-7 17 -21.5 28t-34 16t-39.5 5h-113l-27 -191h86z" />
    <glyph glyph-name="macron" unicode="&#xaf;" horiz-adv-x="275" 
d="M58 807h197l-3 -21h-197z" />
    <glyph glyph-name="degree" unicode="&#xb0;" horiz-adv-x="322" 
d="M188 509q-21 0 -38.5 8t-29 22t-16.5 33q-4 12 -4 25q0 8 1 15q3 21 13.5 39.5t26 32t35.5 21.5t41 8t38.5 -8t29.5 -21.5t17 -31.5q4 -12 4 -25q0 -8 -1 -15q-3 -21 -14 -40t-26.5 -33t-35.5 -22t-41 -8zM191 528q34 0 60.5 24t31.5 59q1 7 1 14q0 26 -16 45
q-20 24 -54 24q-17 0 -32.5 -6.5t-28 -17.5t-21 -26t-11.5 -33q-1 -6 -1 -12q0 -11 3 -21q4 -15 13.5 -26t23.5 -17.5t31 -6.5z" />
    <glyph glyph-name="plusminus" unicode="&#xb1;" horiz-adv-x="570" 
d="M314 598h21l-26 -179h195l-3 -21h-195l-25 -182h-21l25 182h-188l3 21h188zM459 112h-401l3 20h401z" />
    <glyph glyph-name="twosuperior" unicode="&#xb2;" horiz-adv-x="400" 
d="M348 616q0 8 -2 16q-11 35 -38.5 51t-60.5 16q-29 0 -59 -12.5t-51 -37.5l-15 8q26 32 58.5 46.5t69.5 14.5q40 0 72 -18.5t43 -57.5l-1 1q3 -12 3 -23q0 -8 -1 -16q-4 -20 -13.5 -37t-23 -31.5t-28.5 -25.5l-207 -185h234l-2 -19h-258l-4 16l224 200q29 25 46 52
q14 19 14 42z" />
    <glyph glyph-name="threesuperior" unicode="&#xb3;" horiz-adv-x="385" 
d="M343 448q0 -9 -1 -17q-4 -29 -20 -51t-39 -36.5t-51 -21.5q-21 -5 -41 -5h-12q-35 2 -66.5 18.5t-43.5 48.5l20 7q12 -27 39 -40t55 -15h11q16 0 33 4q23 6 43 18t34.5 30.5t17.5 42.5q1 9 1 17q0 14 -3 26q-6 18 -19 29.5t-31 16.5q-15 3 -32 3h-8h-33l2 17h33
q17 0 37.5 4.5t34.5 16.5q12 10 19 23.5t9 28t-1 28.5t-11 25q-14 17 -34.5 25.5t-43.5 8.5q-28 0 -57.5 -11t-49.5 -34l-12 10q22 24 51 37.5t59 15.5h10q25 0 47 -8q28 -9 46 -31q16 -20 18 -42q1 -5 1 -11q0 -16 -5 -31q-8 -20 -24 -36.5t-37 -25.5q36 -12 47 -42
q7 -22 7 -43z" />
    <glyph glyph-name="acute" unicode="&#xb4;" horiz-adv-x="220" 
d="M215 862l-87 -103h-25l77 103h35z" />
    <glyph glyph-name="mu" unicode="&#xb5;" 
d="M81 152q0 -10 1 -20q2 -30 13.5 -55t35.5 -41.5t65 -16.5q37 0 71 13.5t61 40.5t46 66.5t27 91.5l40 287h24l-69 -518h-22l19 137q-16 -39 -39 -65t-50 -42t-55 -23q-19 -5 -55 -7q-20 0 -40.5 4t-38 15t-30 29.5t-16.5 47.5l-42 -307h-22l102 729h23l-46 -328
q-3 -19 -3 -38z" />
    <glyph glyph-name="paragraph" unicode="&#xb6;" horiz-adv-x="555" 
d="M59 472q0 12 2 25q6 39 25.5 77t52 68t77.5 48.5t102 18.5h212l-115 -822h-21l113 804h-164l-113 -804h-22l57 409q-57 0 -97.5 17t-66 45.5t-35.5 64.5q-7 24 -7 49z" />
    <glyph glyph-name="periodcentered" unicode="&#xb7;" horiz-adv-x="215" 
d="M113 343q13 0 21 -9q6 -8 6 -18v-5q-2 -13 -12.5 -22.5t-23.5 -9.5t-22 9q-6 8 -6 18q0 16 13 28q11 9 24 9z" />
    <glyph glyph-name="cedilla" unicode="&#xb8;" horiz-adv-x="244" 
d="M222 -122q0 -10 -3 -22q-7 -25 -35 -44q-24 -18 -63 -18h-8q-17 1 -33.5 7t-30.5 14l6 18q14 -8 28 -13t31 -6h8q32 0 50 14q20 16 26 35q3 8 3 15q0 16 -14 28q-15 12 -44 12q-9 0 -19 -1l55 93h20l-45 -78q42 0 58 -22q10 -14 10 -32z" />
    <glyph glyph-name="onesuperior" unicode="&#xb9;" horiz-adv-x="233" 
d="M82 610l100 98h27l-57 -408h-21l54 387l-90 -90z" />
    <glyph glyph-name="ordmasculine" unicode="&#xba;" horiz-adv-x="404" 
d="M211 374q-25 0 -48.5 6.5t-41 20t-26.5 33.5q-6 15 -6 32q0 8 1 16l18 128q4 27 18.5 47t35.5 33.5t46.5 20.5t50.5 7t48.5 -7t41 -20.5t26.5 -33.5q6 -14 6 -31q0 -8 -1 -16l-18 -128q-4 -27 -18.5 -47.5t-35.5 -34t-46.5 -20t-50.5 -6.5zM110 469q0 -16 5 -27
q8 -18 23 -28.5t35 -15.5t41 -5t42 5t39 15.5t31 28t17 43.5l17 122q1 7 1 13q0 17 -6 30q-8 18 -23 28.5t-34.5 15.5t-40.5 5t-42.5 -5t-39.5 -15.5t-31 -28.5t-16 -43l-17 -122q-1 -9 -1 -16z" />
    <glyph glyph-name="guillemotright" unicode="&#xbb;" horiz-adv-x="374" 
d="M57 114q-2 2 -7 5.5t-7 5.5t-3 2l140 168q-30 54 -47 85.5t-26 48t-12.5 23t-5.5 11.5l18 11l97 -179zM162 127l140 168q-30 54 -47 85.5t-26 48t-12.5 23t-5.5 11.5l18 11l97 -179l-147 -181z" />
    <glyph glyph-name="onequarter" unicode="&#xbc;" horiz-adv-x="645" 
d="M574 106h-40l-14 -106h-19l14 106h-223l-9 18l270 289h25l-41 -290h40zM304 122l214 1l37 267zM35 -11l-18 9l538 720l20 -10zM84 610l100 98h27l-57 -408h-21l54 387l-90 -90z" />
    <glyph glyph-name="onehalf" unicode="&#xbd;" horiz-adv-x="688" 
d="M620 310q0 8 -2 16q-11 35 -38.5 51t-60.5 16q-29 0 -59 -12.5t-51 -37.5l-15 8q26 32 58.5 46.5t69.5 14.5q40 0 72 -18.5t43 -57.5l-1 1q3 -12 3 -23q0 -8 -1 -16q-4 -20 -13.5 -37t-23 -31.5t-28.5 -25.5l-207 -185h234l-2 -19h-258l-4 16l224 200q29 25 46 52
q14 19 14 42zM45 -11l-18 9l538 720l20 -10zM81 610l100 98h27l-57 -408h-21l54 387l-90 -90z" />
    <glyph glyph-name="threequarters" unicode="&#xbe;" horiz-adv-x="706" 
d="M669 708l-540 -718l-13 9l539 719l6 -4zM330 440q0 -10 -2 -19q-4 -29 -20 -51t-39 -36.5t-50 -21.5q-21 -5 -42 -5h-12q-35 2 -66.5 18.5t-43.5 48.5l20 7q12 -27 39 -40t56 -15h10q16 0 33 4q23 6 43 18t34.5 30.5t17.5 42.5q2 10 2 19q0 13 -4 24q-6 18 -18.5 29.5
t-31.5 16.5q-15 3 -32 3h-8h-33l2 17h33q17 0 37.5 4.5t34.5 16.5q12 10 19 23.5t9 28t-1 28.5t-11 25q-14 17 -34.5 25.5t-43.5 8.5q-28 0 -57 -11t-49 -34q-3 2 -7 5t-6 5q22 24 51 37.5t59 15.5h10q25 0 47 -8q28 -9 46 -31q10 -12 14 -29q2 -10 2 -20v-14
q-3 -18 -11 -35.5t-23 -30.5q-6 -5 -13 -8.5t-16 -8.5q36 -12 47 -42q8 -21 8 -41zM630 106h-40l-14 -106h-19l14 106h-223l-9 18l270 289h25l-41 -290h40zM360 122l214 1l37 267z" />
    <glyph glyph-name="questiondown" unicode="&#xbf;" horiz-adv-x="441" 
d="M280 454q-12 0 -19 9t-5 22t11.5 21.5t21.5 8.5q13 0 21 -8.5t6 -21.5t-12.5 -22t-23.5 -9zM179 -186q-39 0 -75 12t-62.5 35.5t-38.5 58.5q-9 22 -9 50q0 15 3 32q7 47 28 83t52.5 61.5t71 40t82.5 18.5q8 46 13.5 77t8.5 52t5.5 35.5t4.5 27.5h18l-23 -210
q-42 -3 -82.5 -16.5t-73 -37t-54.5 -57t-27 -75.5q-2 -12 -2 -24q0 -26 8 -47q12 -31 35.5 -51t55.5 -30t67 -10q38 0 81.5 17t75.5 42l13 -15q-36 -31 -83 -50t-93 -19z" />
    <glyph glyph-name="Agrave" unicode="&#xc0;" horiz-adv-x="600" 
d="M305 862h35l47 -103h-25zM539 0h-27l-58 253h-327l-125 -253h-27l359 708h45zM450 278l-92 411h-6l-212 -411h310z" />
    <glyph glyph-name="Aacute" unicode="&#xc1;" horiz-adv-x="600" 
d="M436 862l-87 -103h-25l77 103h35zM539 0h-27l-58 253h-327l-125 -253h-27l359 708h45zM450 278l-92 411h-6l-212 -411h310z" />
    <glyph glyph-name="Acircumflex" unicode="&#xc2;" horiz-adv-x="600" 
d="M461 755h-28l-58 79l-84 -79h-30l100 94h28zM539 0h-27l-58 253h-327l-125 -253h-27l359 708h45zM450 278l-92 411h-6l-212 -411h310z" />
    <glyph glyph-name="Atilde" unicode="&#xc3;" horiz-adv-x="600" 
d="M328 843q15 0 27 -7.5t22.5 -16.5t20.5 -16.5t22 -7.5q16 0 26 8.5t18 23.5l15 -6q-8 -18 -23.5 -33t-38.5 -15q-15 0 -26.5 7.5t-22 17t-21 17t-23.5 7.5q-30 0 -49 -34l-14 6q9 20 26.5 34.5t40.5 14.5zM539 0h-27l-58 253h-327l-125 -253h-27l359 708h45zM450 278
l-92 411h-6l-212 -411h310z" />
    <glyph glyph-name="Adieresis" unicode="&#xc4;" horiz-adv-x="600" 
d="M283 833q10 0 16 -7t4 -17t-9.5 -17t-17.5 -7t-16.5 7t-4.5 17t10 17t18 7zM463 833q10 0 16 -7t4 -17t-9.5 -17t-17.5 -7t-16.5 7t-4.5 17t10 17t18 7zM539 0h-27l-58 253h-327l-125 -253h-27l359 708h45zM450 278l-92 411h-6l-212 -411h310z" />
    <glyph glyph-name="Aring" unicode="&#xc5;" horiz-adv-x="600" 
d="M289 761q0 11 3 22q6 26 27.5 46t57.5 20q34 0 50.5 -20.5t16.5 -47t-16 -51.5t-46 -34l157 -696h-27l-58 253h-327l-125 -253h-27l354 698q-26 10 -35 34q-5 15 -5 29zM374 829q-29 0 -44.5 -18t-17.5 -40q-1 -4 -1 -8q0 -17 9 -32q12 -18 38 -18q28 0 44.5 18t19.5 40
q1 5 1 9q0 17 -9 31q-12 18 -40 18zM358 689h-6l-212 -411h310z" />
    <glyph glyph-name="AE" unicode="&#xc6;" horiz-adv-x="772" 
d="M775 684h-304l-46 -328h273l-4 -24h-273l-43 -310h304l-3 -22h-327l35 253h-231q-40 -63 -67 -104.5t-45.5 -70t-30 -46t-20.5 -32.5h-28l450 708h363zM170 276h220l58 411l-20 -1z" />
    <glyph glyph-name="Ccedilla" unicode="&#xc7;" horiz-adv-x="584" 
d="M381 718q33 0 65.5 -6.5t61 -19t50.5 -32t34 -44.5l-24 -15q-11 23 -30 40.5t-44.5 29t-55 17.5t-59.5 6q-41 0 -82.5 -11t-76 -32.5t-58.5 -54.5t-30 -76l-45 -332q-2 -13 -2 -25q0 -28 11 -51q14 -32 42.5 -54t67 -32.5t79.5 -10.5q26 0 56 5.5t59.5 16.5t55 27.5
t43.5 39.5l20 -11q-18 -24 -43 -42.5t-54 -31.5t-61 -20.5t-64 -8.5l-33 -58q42 0 58 -22q10 -14 10 -32q0 -10 -3 -22q-7 -25 -35 -44q-24 -18 -63 -18h-8q-17 1 -33.5 7t-30.5 14l6 18q14 -8 28 -13t31 -6h8q32 0 50 14q20 16 26 35q3 8 3 15q0 16 -14 28q-15 12 -44 12
q-9 0 -19 -1l43 73q-45 1 -87 14t-72.5 37.5t-46.5 61.5q-11 26 -11 57q0 13 2 28l45 332q7 49 31.5 86t61.5 62t83.5 37.5t97.5 12.5z" />
    <glyph glyph-name="Egrave" unicode="&#xc8;" horiz-adv-x="564" 
d="M317 862h35l47 -103h-25zM126 366h366l-4 -27h-366l-44 -314h396l-3 -25h-421l99 708h421l-4 -25h-396z" />
    <glyph glyph-name="Eacute" unicode="&#xc9;" horiz-adv-x="564" 
d="M448 862l-87 -103h-25l77 103h35zM126 366h366l-4 -27h-366l-44 -314h396l-3 -25h-421l99 708h421l-4 -25h-396z" />
    <glyph glyph-name="Ecircumflex" unicode="&#xca;" horiz-adv-x="564" 
d="M473 755h-28l-58 79l-84 -79h-30l100 94h28zM126 366h366l-4 -27h-366l-44 -314h396l-3 -25h-421l99 708h421l-4 -25h-396z" />
    <glyph glyph-name="Edieresis" unicode="&#xcb;" horiz-adv-x="564" 
d="M295 833q10 0 16 -7t4 -17t-9.5 -17t-17.5 -7t-16.5 7t-4.5 17t10 17t18 7zM475 833q10 0 16 -7t4 -17t-9.5 -17t-17.5 -7t-16.5 7t-4.5 17t10 17t18 7zM126 366h366l-4 -27h-366l-44 -314h396l-3 -25h-421l99 708h421l-4 -25h-396z" />
    <glyph glyph-name="Igrave" unicode="&#xcc;" horiz-adv-x="210" 
d="M120 862h35l47 -103h-25zM75 0h-25l99 708h25z" />
    <glyph glyph-name="Iacute" unicode="&#xcd;" horiz-adv-x="210" 
d="M251 862l-87 -103h-25l77 103h35zM75 0h-25l99 708h25z" />
    <glyph glyph-name="Icircumflex" unicode="&#xce;" horiz-adv-x="210" 
d="M276 755h-28l-58 79l-84 -79h-30l100 94h28zM75 0h-25l99 708h25z" />
    <glyph glyph-name="Idieresis" unicode="&#xcf;" horiz-adv-x="210" 
d="M98 833q10 0 16 -7t4 -17t-9.5 -17t-17.5 -7t-17 7q-4 5 -4 12q0 13 10 22q8 7 18 7zM278 833q13 0 21 -9q6 -8 6 -18v-5q-2 -13 -12.5 -22.5t-23.5 -9.5t-21 9q-7 8 -7 18q0 16 13 28q11 9 24 9zM75 0h-25l99 708h25z" />
    <glyph glyph-name="Eth" unicode="&#xd0;" horiz-adv-x="636" 
d="M370 708q46 0 89 -12.5t74.5 -37.5t47.5 -62q11 -27 11 -59q0 -14 -2 -29l-44 -309q-7 -50 -33.5 -87.5t-64.5 -62t-84.5 -37t-92.5 -12.5h-219l47 340h-63l3 22h63l49 346h219zM274 25q42 0 83.5 10.5t76 32.5t58 54.5t29.5 76.5l44 309q2 13 2 25q0 29 -11 52
q-14 33 -42.5 54.5t-67 32.5t-80.5 11h-194l-45 -321h125l-3 -22h-125l-44 -315h194z" />
    <glyph glyph-name="Ntilde" unicode="&#xd1;" horiz-adv-x="670" 
d="M372 843q15 0 27 -7.5t22.5 -16.5t20.5 -16.5t22 -7.5q16 0 26 8.5t18 23.5l15 -6q-8 -18 -23.5 -33t-38.5 -15q-15 0 -26.5 7.5t-22 17t-21 17t-23.5 7.5q-30 0 -49 -34l-14 6q9 20 26.5 34.5t40.5 14.5zM513 24l96 684h25l-99 -708h-43l-320 676l-96 -676h-26l99 708
h39z" />
    <glyph glyph-name="Ograve" unicode="&#xd2;" horiz-adv-x="682" 
d="M348 862h35l47 -103h-25zM398 718q49 0 95 -12.5t79.5 -37.5t51.5 -62q12 -27 12 -60q0 -14 -2 -28l-45 -327q-7 -50 -35 -87.5t-68.5 -63t-90 -38t-98.5 -12.5q-50 0 -95 12.5t-78.5 38t-51.5 63.5q-12 26 -12 59q0 14 2 28l45 327q7 50 34 87.5t67 62.5t89.5 37.5
t100.5 12.5zM85 167q0 -29 11 -53q16 -33 46.5 -55t71.5 -33t86 -11t89.5 11t81 33t62 55t31.5 77l45 327q2 13 2 24q0 31 -12 56q-16 33 -47 54.5t-72.5 31.5t-86.5 10t-89 -10.5t-80 -32t-61 -54.5t-31 -79l-45 -327q-2 -12 -2 -24z" />
    <glyph glyph-name="Oacute" unicode="&#xd3;" horiz-adv-x="682" 
d="M479 862l-87 -103h-25l77 103h35zM398 718q49 0 95 -12.5t79.5 -37.5t51.5 -62q12 -27 12 -60q0 -14 -2 -28l-45 -327q-7 -50 -35 -87.5t-68.5 -63t-90 -38t-98.5 -12.5q-50 0 -95 12.5t-78.5 38t-51.5 63.5q-12 26 -12 59q0 14 2 28l45 327q7 50 34 87.5t67 62.5
t89.5 37.5t100.5 12.5zM85 167q0 -29 11 -53q16 -33 46.5 -55t71.5 -33t86 -11t89.5 11t81 33t62 55t31.5 77l45 327q2 13 2 24q0 31 -12 56q-16 33 -47 54.5t-72.5 31.5t-86.5 10t-89 -10.5t-80 -32t-61 -54.5t-31 -79l-45 -327q-2 -12 -2 -24z" />
    <glyph glyph-name="Ocircumflex" unicode="&#xd4;" horiz-adv-x="682" 
d="M504 755h-28l-58 79l-84 -79h-30l100 94h28zM398 718q49 0 95 -12.5t79.5 -37.5t51.5 -62q12 -27 12 -60q0 -14 -2 -28l-45 -327q-7 -50 -35 -87.5t-68.5 -63t-90 -38t-98.5 -12.5q-50 0 -95 12.5t-78.5 38t-51.5 63.5q-12 26 -12 59q0 14 2 28l45 327q7 50 34 87.5
t67 62.5t89.5 37.5t100.5 12.5zM85 167q0 -29 11 -53q16 -33 46.5 -55t71.5 -33t86 -11t89.5 11t81 33t62 55t31.5 77l45 327q2 13 2 24q0 31 -12 56q-16 33 -47 54.5t-72.5 31.5t-86.5 10t-89 -10.5t-80 -32t-61 -54.5t-31 -79l-45 -327q-2 -12 -2 -24z" />
    <glyph glyph-name="Otilde" unicode="&#xd5;" horiz-adv-x="682" 
d="M371 843q15 0 27 -7.5t22.5 -16.5t20.5 -16.5t22 -7.5q16 0 26 8.5t18 23.5l15 -6q-8 -18 -23.5 -33t-38.5 -15q-15 0 -26.5 7.5t-22 17t-21 17t-23.5 7.5q-30 0 -49 -34l-14 6q9 20 26.5 34.5t40.5 14.5zM398 718q49 0 95 -12.5t79.5 -37.5t51.5 -62q12 -27 12 -60
q0 -14 -2 -28l-45 -327q-7 -50 -35 -87.5t-68.5 -63t-90 -38t-98.5 -12.5q-50 0 -95 12.5t-78.5 38t-51.5 63.5q-12 26 -12 59q0 14 2 28l45 327q7 50 34 87.5t67 62.5t89.5 37.5t100.5 12.5zM85 167q0 -29 11 -53q16 -33 46.5 -55t71.5 -33t86 -11t89.5 11t81 33t62 55
t31.5 77l45 327q2 13 2 24q0 31 -12 56q-16 33 -47 54.5t-72.5 31.5t-86.5 10t-89 -10.5t-80 -32t-61 -54.5t-31 -79l-45 -327q-2 -12 -2 -24z" />
    <glyph glyph-name="Odieresis" unicode="&#xd6;" horiz-adv-x="682" 
d="M326 833q10 0 16 -7t4 -17t-9.5 -17t-17.5 -7t-16.5 7t-4.5 17t10 17t18 7zM506 833q10 0 16 -7t4 -17t-9.5 -17t-17.5 -7t-16.5 7t-4.5 17t10 17t18 7zM398 718q49 0 95 -12.5t79.5 -37.5t51.5 -62q12 -27 12 -60q0 -14 -2 -28l-45 -327q-7 -50 -35 -87.5t-68.5 -63
t-90 -38t-98.5 -12.5q-50 0 -95 12.5t-78.5 38t-51.5 63.5q-12 26 -12 59q0 14 2 28l45 327q7 50 34 87.5t67 62.5t89.5 37.5t100.5 12.5zM85 167q0 -29 11 -53q16 -33 46.5 -55t71.5 -33t86 -11t89.5 11t81 33t62 55t31.5 77l45 327q2 13 2 24q0 31 -12 56q-16 33 -47 54.5
t-72.5 31.5t-86.5 10t-89 -10.5t-80 -32t-61 -54.5t-31 -79l-45 -327q-2 -12 -2 -24z" />
    <glyph glyph-name="multiply" unicode="&#xd7;" horiz-adv-x="489" 
d="M433 513l14 -16l-182 -159l135 -157l-18 -17l-135 157l-184 -161l-14 17l183 160l-140 164l19 16l140 -163z" />
    <glyph glyph-name="Oslash" unicode="&#xd8;" horiz-adv-x="682" 
d="M398 710q26 0 56 -3.5t64 -17.5l39 71l18 -7l-39 -71q49 -27 78 -70q22 -34 22 -77q0 -12 -2 -25l-44 -311q-7 -50 -35 -87.5t-68.5 -63t-90 -38t-98.5 -12.5q-25 0 -55 5.5t-62 15.5l-40 -74l-19 5l40 76q-51 27 -79 70q-22 33 -22 77q0 13 2 26l44 311q7 50 35 87.5
t68.5 62.5t89 37.5t98.5 12.5zM85 178q0 -36 20 -66q25 -38 70 -65l332 622q-34 14 -60.5 15.5t-52.5 1.5q-45 0 -89 -10.5t-80.5 -32t-62 -54.5t-31.5 -79l-44 -311q-2 -11 -2 -21zM613 531q0 37 -21 67q-25 37 -68 63l-331 -620q29 -8 56 -13.5t53 -5.5q44 0 88.5 11
t81.5 33t63 55.5t32 77.5l44 311q2 11 2 21z" />
    <glyph glyph-name="Ugrave" unicode="&#xd9;" horiz-adv-x="672" 
d="M339 862h35l47 -103h-25zM95 168q0 -29 10 -53q14 -34 42.5 -56.5t67 -33.5t80.5 -11t83.5 11t76 33.5t59 56.5t30.5 79l72 514h25l-72 -514q-7 -51 -34 -89t-65.5 -63.5t-85 -38.5t-92.5 -13q-47 0 -89.5 13t-74 38.5t-47.5 63.5q-11 26 -11 59q0 14 2 30l72 514h25
l-72 -514q-2 -14 -2 -26z" />
    <glyph glyph-name="Uacute" unicode="&#xda;" horiz-adv-x="672" 
d="M470 862l-87 -103h-25l77 103h35zM95 168q0 -29 10 -53q14 -34 42.5 -56.5t67 -33.5t80.5 -11t83.5 11t76 33.5t59 56.5t30.5 79l72 514h25l-72 -514q-7 -51 -34 -89t-65.5 -63.5t-85 -38.5t-92.5 -13q-47 0 -89.5 13t-74 38.5t-47.5 63.5q-11 26 -11 59q0 14 2 30
l72 514h25l-72 -514q-2 -14 -2 -26z" />
    <glyph glyph-name="Ucircumflex" unicode="&#xdb;" horiz-adv-x="672" 
d="M495 755h-28l-58 79l-84 -79h-30l100 94h28zM95 168q0 -29 10 -53q14 -34 42.5 -56.5t67 -33.5t80.5 -11t83.5 11t76 33.5t59 56.5t30.5 79l72 514h25l-72 -514q-7 -51 -34 -89t-65.5 -63.5t-85 -38.5t-92.5 -13q-47 0 -89.5 13t-74 38.5t-47.5 63.5q-11 26 -11 59
q0 14 2 30l72 514h25l-72 -514q-2 -14 -2 -26z" />
    <glyph glyph-name="Udieresis" unicode="&#xdc;" horiz-adv-x="672" 
d="M317 833q10 0 16 -7t4 -17t-9.5 -17t-17.5 -7t-16.5 7t-4.5 17t10 17t18 7zM497 833q10 0 16 -7t4 -17t-9.5 -17t-17.5 -7t-16.5 7t-4.5 17t10 17t18 7zM95 168q0 -29 10 -53q14 -34 42.5 -56.5t67 -33.5t80.5 -11t83.5 11t76 33.5t59 56.5t30.5 79l72 514h25l-72 -514
q-7 -51 -34 -89t-65.5 -63.5t-85 -38.5t-92.5 -13q-47 0 -89.5 13t-74 38.5t-47.5 63.5q-11 26 -11 59q0 14 2 30l72 514h25l-72 -514q-2 -14 -2 -26z" />
    <glyph glyph-name="Yacute" unicode="&#xdd;" horiz-adv-x="547" 
d="M423 862l-87 -103h-25l77 103h35zM242 0h-25l39 281l-182 427h30l169 -399l288 399h31l-311 -427z" />
    <glyph glyph-name="Thorn" unicode="&#xde;" horiz-adv-x="602" 
d="M382 588q54 0 92 -19t61 -49.5t31 -69.5q5 -22 5 -45q0 -16 -2 -32q-6 -39 -24.5 -76.5t-50 -67.5t-74.5 -48.5t-97 -18.5h-226l-23 -162h-25l100 708h25l-17 -120h225zM326 187q45 0 83 16.5t66.5 42.5t46 59.5t22.5 68.5q2 15 2 29q0 20 -4 40q-7 34 -27.5 61t-54 44
t-81.5 17h-225l-53 -378h225z" />
    <glyph glyph-name="germandbls" unicode="&#xdf;" horiz-adv-x="581" 
d="M246 15q38 0 76 11q42 13 76.5 37.5t58.5 61t30 83.5q2 16 2 31q0 26 -7 47q-10 32 -33.5 53t-57.5 30.5t-75 9.5h-116l3 22h116q33 0 64 9t56 27t42 46t22 66q2 13 2 25q0 24 -9 42q-12 28 -35 45.5t-54.5 25.5t-64.5 8t-67 -9t-62.5 -27.5t-48.5 -47t-26 -68.5
l-76 -543h-24l76 543q6 42 26.5 74.5t51 55t70 34t83.5 11.5q41 0 77 -10.5t61.5 -32t38.5 -53.5q8 -21 8 -47q0 -12 -2 -26q-3 -22 -10.5 -45t-22 -43.5t-37 -38t-55.5 -29.5q39 -12 62.5 -32t35.5 -44.5t14 -52.5q1 -9 1 -19q0 -19 -3 -38q-8 -54 -32.5 -94.5t-61 -68
t-83.5 -41.5q-43 -13 -91 -13h-7q-23 0 -51.5 7.5t-48.5 16.5l5 26q20 -8 47.5 -16t49.5 -9h6z" />
    <glyph glyph-name="agrave" unicode="&#xe0;" horiz-adv-x="511" 
d="M244 683h35l47 -103h-25zM46 113q0 12 2 26l33 234q6 43 26.5 73t50 48t65.5 26t73 8q45 0 87 -10t74 -24l-68 -494h-21l7 59q-41 -41 -87.5 -55t-89.5 -14q-32 0 -61 8.5t-51 26.5t-33 47q-7 18 -7 41zM298 508q-34 0 -67 -7t-60 -23t-45.5 -41.5t-23.5 -62.5l-33 -235
q-2 -12 -2 -24q0 -20 6 -35q9 -25 27.5 -40.5t44.5 -22.5t55 -7q23 0 47.5 5t47.5 14t44 22t37 30l3 4l55 393q-29 14 -64.5 22t-71.5 8z" />
    <glyph glyph-name="aacute" unicode="&#xe1;" horiz-adv-x="511" 
d="M375 683l-87 -103h-25l77 103h35zM46 113q0 12 2 26l33 234q6 43 26.5 73t50 48t65.5 26t73 8q45 0 87 -10t74 -24l-68 -494h-21l7 59q-41 -41 -87.5 -55t-89.5 -14q-32 0 -61 8.5t-51 26.5t-33 47q-7 18 -7 41zM298 508q-34 0 -67 -7t-60 -23t-45.5 -41.5t-23.5 -62.5
l-33 -235q-2 -12 -2 -24q0 -20 6 -35q9 -25 27.5 -40.5t44.5 -22.5t55 -7q23 0 47.5 5t47.5 14t44 22t37 30l3 4l55 393q-29 14 -64.5 22t-71.5 8z" />
    <glyph glyph-name="acircumflex" unicode="&#xe2;" horiz-adv-x="511" 
d="M400 576h-28l-58 79l-84 -79h-30l100 94h28zM46 113q0 12 2 26l33 234q6 43 26.5 73t50 48t65.5 26t73 8q45 0 87 -10t74 -24l-68 -494h-21l7 59q-41 -41 -87.5 -55t-89.5 -14q-32 0 -61 8.5t-51 26.5t-33 47q-7 18 -7 41zM298 508q-34 0 -67 -7t-60 -23t-45.5 -41.5
t-23.5 -62.5l-33 -235q-2 -12 -2 -24q0 -20 6 -35q9 -25 27.5 -40.5t44.5 -22.5t55 -7q23 0 47.5 5t47.5 14t44 22t37 30l3 4l55 393q-29 14 -64.5 22t-71.5 8z" />
    <glyph glyph-name="atilde" unicode="&#xe3;" horiz-adv-x="511" 
d="M267 664q15 0 27 -7.5t22.5 -16.5t20.5 -16.5t22 -7.5q16 0 26 8.5t18 23.5l15 -6q-8 -18 -23.5 -33t-38.5 -15q-15 0 -26.5 7.5t-22 17t-21 17t-23.5 7.5q-30 0 -49 -34l-14 6q9 20 26.5 34.5t40.5 14.5zM46 113q0 12 2 26l33 234q6 43 26.5 73t50 48t65.5 26t73 8
q45 0 87 -10t74 -24l-68 -494h-21l7 59q-41 -41 -87.5 -55t-89.5 -14q-32 0 -61 8.5t-51 26.5t-33 47q-7 18 -7 41zM298 508q-34 0 -67 -7t-60 -23t-45.5 -41.5t-23.5 -62.5l-33 -235q-2 -12 -2 -24q0 -20 6 -35q9 -25 27.5 -40.5t44.5 -22.5t55 -7q23 0 47.5 5t47.5 14
t44 22t37 30l3 4l55 393q-29 14 -64.5 22t-71.5 8z" />
    <glyph glyph-name="adieresis" unicode="&#xe4;" horiz-adv-x="511" 
d="M222 654q10 0 16 -7t4 -17t-9.5 -17t-17.5 -7t-16.5 7t-4.5 17t10 17t18 7zM402 654q10 0 16 -7t4 -17t-9.5 -17t-17.5 -7t-16.5 7t-4.5 17t10 17t18 7zM46 113q0 12 2 26l33 234q6 43 26.5 73t50 48t65.5 26t73 8q45 0 87 -10t74 -24l-68 -494h-21l7 59
q-41 -41 -87.5 -55t-89.5 -14q-32 0 -61 8.5t-51 26.5t-33 47q-7 18 -7 41zM298 508q-34 0 -67 -7t-60 -23t-45.5 -41.5t-23.5 -62.5l-33 -235q-2 -13 -2 -24q0 -20 6 -35q9 -25 27.5 -40.5t44.5 -22.5t55 -7q23 0 47.5 5t47.5 14t44 22t37 30l3 4l55 393q-29 14 -64.5 22
t-71.5 8z" />
    <glyph glyph-name="aring" unicode="&#xe5;" horiz-adv-x="511" 
d="M326 731q25 0 40.5 -11.5t21.5 -28.5q5 -13 5 -27q0 -5 -1 -11q-2 -20 -12.5 -37.5t-29 -29t-44.5 -11.5q-25 0 -41 11.5t-23 28.5q-4 14 -4 29v9q2 20 12.5 37.5t29.5 29t46 11.5zM323 711q-29 0 -44.5 -18t-18.5 -40v-8q0 -17 10 -32q11 -18 37 -18q28 0 44.5 18
t19.5 40q1 5 1 9q0 17 -10 31q-11 18 -39 18zM46 113q0 12 2 26l33 234q6 43 26.5 73t50 48t65.5 26t73 8q45 0 87 -10t74 -24l-68 -494h-21l7 59q-41 -41 -87.5 -55t-89.5 -14q-32 0 -61 8.5t-51 26.5t-33 47q-7 18 -7 41zM298 508q-34 0 -67 -7t-60 -23t-45.5 -41.5
t-23.5 -62.5l-33 -235q-2 -12 -2 -24q0 -20 6 -35q9 -25 27.5 -40.5t44.5 -22.5t55 -7q23 0 47.5 5t47.5 14t44 22t37 30l3 4l55 393q-29 14 -64.5 22t-71.5 8z" />
    <glyph glyph-name="ae" unicode="&#xe6;" horiz-adv-x="816" 
d="M198 -10q-32 0 -61 8.5t-51 26.5t-33 47q-7 18 -7 41q0 12 2 26l33 234q6 43 26.5 73t50 48t65.5 26t73 8q22 0 47 -3.5t49 -10t46 -17.5t39 -26q29 30 67 43.5t77 13.5q33 0 63.5 -9t52.5 -28.5t33 -48.5q8 -20 8 -44q0 -12 -2 -26q-6 -40 -25 -70.5t-46.5 -51t-61 -31
t-68.5 -10.5t-74.5 7t-78.5 27l-15 -106q-1 -7 -1 -13q0 -25 10 -44q11 -23 31.5 -38.5t47 -23t54.5 -7.5q41 0 81.5 15t66.5 48l16 -10q-30 -36 -75 -55t-92 -19q-48 0 -90 20.5t-60 58.5l-8 -69h-19l7 62q-41 -41 -88 -56.5t-90 -15.5zM578 229q31 0 60.5 8.5t54 26
t41 44.5t22.5 64q2 11 2 22q0 21 -7 38q-10 26 -29.5 43t-46.5 25.5t-57 8.5t-59 -9t-53.5 -26.5t-42 -43.5t-23.5 -59l-15 -107q40 -19 73 -27t80 -8zM294 508q-34 0 -66 -7t-58.5 -23t-44.5 -41.5t-23 -62.5l-33 -235q-2 -12 -2 -24q0 -20 6 -35q9 -25 27.5 -40.5
t44.5 -22.5t55 -7q48 0 96.5 20t83.5 58l39 275q4 29 14.5 52t27.5 41q-14 14 -35 24t-44.5 16t-46.5 9t-41 3z" />
    <glyph glyph-name="ccedilla" unicode="&#xe7;" horiz-adv-x="453" 
d="M278 528q46 0 84.5 -16t58.5 -51l-18 -11q-17 30 -51.5 43t-76.5 13q-30 0 -59 -7.5t-53.5 -23.5t-41.5 -39.5t-21 -56.5l-32 -238q-2 -11 -2 -20q0 -21 8 -37q10 -25 29.5 -41t46.5 -23.5t57 -7.5q45 0 88 18t67 56l20 -10q-26 -38 -67.5 -59t-87.5 -26l-34 -59
q42 0 58 -22q10 -14 10 -32q0 -10 -3 -22q-7 -25 -34 -44q-25 -18 -64 -18h-8q-17 1 -33.5 7t-30.5 14l6 18q14 -8 28 -13t31 -6h8q32 0 50 14q20 16 26 35q3 8 3 15q0 16 -14 28q-15 12 -44 12q-9 0 -19 -1l43 73h-2q-33 0 -64 9.5t-53.5 28t-34.5 46.5q-8 20 -8 45
q0 10 2 22l32 236q5 38 24.5 66.5t47.5 47t61.5 28t66.5 9.5z" />
    <glyph glyph-name="egrave" unicode="&#xe8;" horiz-adv-x="474" 
d="M228 682h35l47 -103h-25zM64 118q0 -21 8 -38q11 -24 31.5 -39t47.5 -22t56 -7q41 0 81.5 14.5t66.5 47.5l16 -10q-30 -36 -75 -55t-92 -19q-34 0 -65 9t-53.5 28t-33.5 47q-8 19 -8 43q0 11 2 23l31 228q6 40 25.5 70.5t47.5 50t61.5 29.5t67.5 10q33 0 63.5 -9
t52.5 -28.5t33 -48.5q8 -20 8 -44q0 -12 -2 -26q-6 -40 -25 -70.5t-46.5 -51t-61 -31t-68.5 -10.5t-74.5 7t-78.5 27l-14 -104q-2 -11 -2 -21zM236 229q31 0 60.5 8.5t54 26t41 44.5t22.5 64q2 11 2 22q0 21 -7 38q-10 26 -29.5 42.5t-46.5 25t-57 8.5t-60 -8.5t-55 -26
t-42 -43.5t-22 -61l-14 -105q40 -19 73 -27t80 -8z" />
    <glyph glyph-name="eacute" unicode="&#xe9;" horiz-adv-x="474" 
d="M359 682l-87 -103h-25l77 103h35zM64 118q0 -21 8 -38q11 -24 31.5 -39t47.5 -22t56 -7q41 0 81.5 14.5t66.5 47.5l16 -10q-30 -36 -75 -55t-92 -19q-34 0 -65 9t-53.5 28t-33.5 47q-8 19 -8 43q0 11 2 23l31 228q6 40 25.5 70.5t47.5 50t61.5 29.5t67.5 10q33 0 63.5 -9
t52.5 -28.5t33 -48.5q8 -20 8 -44q0 -12 -2 -26q-6 -40 -25 -70.5t-46.5 -51t-61 -31t-68.5 -10.5t-74.5 7t-78.5 27l-14 -104q-2 -11 -2 -21zM236 229q31 0 60.5 8.5t54 26t41 44.5t22.5 64q2 11 2 22q0 21 -7 38q-10 26 -29.5 42.5t-46.5 25t-57 8.5t-60 -8.5t-55 -26
t-42 -43.5t-22 -61l-14 -105q40 -19 73 -27t80 -8z" />
    <glyph glyph-name="ecircumflex" unicode="&#xea;" horiz-adv-x="474" 
d="M384 575h-28l-58 79l-84 -79h-30l100 94h28zM64 118q0 -21 8 -38q11 -24 31.5 -39t47.5 -22t56 -7q41 0 81.5 14.5t66.5 47.5l16 -10q-30 -36 -75 -55t-92 -19q-34 0 -65 9t-53.5 28t-33.5 47q-8 19 -8 43q0 11 2 23l31 228q6 40 25.5 70.5t47.5 50t61.5 29.5t67.5 10
q33 0 63.5 -9t52.5 -28.5t33 -48.5q8 -20 8 -44q0 -12 -2 -26q-6 -40 -25 -70.5t-46.5 -51t-61 -31t-68.5 -10.5t-74.5 7t-78.5 27l-14 -104q-2 -11 -2 -21zM236 229q31 0 60.5 8.5t54 26t41 44.5t22.5 64q2 11 2 22q0 21 -7 38q-10 26 -29.5 42.5t-46.5 25t-57 8.5
t-60 -8.5t-55 -26t-42 -43.5t-22 -61l-14 -105q40 -19 73 -27t80 -8z" />
    <glyph glyph-name="edieresis" unicode="&#xeb;" horiz-adv-x="474" 
d="M206 653q10 0 16 -7t4 -17t-9.5 -17t-17.5 -7t-16.5 7t-4.5 17t10 17t18 7zM386 653q10 0 16 -7t4 -17t-9.5 -17t-17.5 -7t-16.5 7t-4.5 17t10 17t18 7zM64 118q0 -22 8 -38q11 -24 31.5 -39t47.5 -22t56 -7q41 0 81.5 14.5t66.5 47.5l16 -10q-30 -36 -75 -55t-92 -19
q-34 0 -65 9t-53.5 28t-33.5 47q-8 19 -8 43q0 11 2 23l31 228q6 40 25.5 70.5t47.5 50t61.5 29.5t67.5 10q33 0 63.5 -9t52.5 -28.5t33 -48.5q8 -20 8 -44q0 -12 -2 -26q-6 -40 -25 -70.5t-46.5 -51t-61 -31t-68.5 -10.5t-74.5 7t-78.5 27l-14 -104q-2 -11 -2 -21zM236 229
q31 0 60.5 8.5t54 26t41 44.5t22.5 64q2 11 2 22q0 21 -7 38q-10 26 -29.5 42.5t-46.5 25t-57 8.5t-60 -8.5t-55 -26t-42 -43.5t-22 -61l-14 -105q40 -19 73 -27t80 -8z" />
    <glyph glyph-name="igrave" unicode="&#xec;" horiz-adv-x="187" 
d="M83 672h35l47 -103h-25zM62 0h-24l74 518h24z" />
    <glyph glyph-name="iacute" unicode="&#xed;" horiz-adv-x="187" 
d="M214 672l-87 -103h-25l77 103h35zM62 0h-24l74 518h24z" />
    <glyph glyph-name="icircumflex" unicode="&#xee;" horiz-adv-x="187" 
d="M239 565h-28l-58 79l-84 -79h-30l100 94h28zM62 0h-24l74 518h24z" />
    <glyph glyph-name="idieresis" unicode="&#xef;" horiz-adv-x="187" 
d="M71 643q10 0 16 -7t4 -17t-9.5 -17t-17.5 -7t-16.5 7t-4.5 17t10 17t18 7zM211 643q10 0 16 -7q5 -5 4 -12q0 -13 -9 -22q-8 -7 -18 -7t-16.5 7t-4.5 17t10 17t18 7zM62 0h-24l74 518h24z" />
    <glyph glyph-name="eth" unicode="&#xf0;" horiz-adv-x="502" 
d="M299 707q19 0 38 -3l30 61l16 -5l-30 -59q25 -8 46 -21t35.5 -31.5t21.5 -41.5q4 -14 4 -30q0 -10 -2 -21l-76 -539q-69 -20 -110.5 -25.5t-74.5 -5.5t-63 10.5t-51.5 30t-32.5 47.5q-8 19 -8 43q0 10 2 22l24 173q5 37 24.5 65.5t47.5 48t61.5 29.5t66.5 10q35 0 72 -8
t79 -30l18 129q1 9 1 18q0 36 -22 60q-29 31 -73 46l-36 -81q-10 3 -12.5 3.5t-3.5 1.5l36 79q-19 3 -38 3q-25 0 -49 -6q-43 -9 -78 -41l-14 15q38 34 90 46q31 7 61 7zM262 440q-29 0 -57 -8t-52 -23.5t-40.5 -39.5t-21.5 -56l-24 -174q-2 -11 -2 -22q0 -19 7 -35
q9 -24 28 -40t45.5 -24t55.5 -8q42 0 86.5 7.5t76.5 20.5l51 365q-79 37 -153 37z" />
    <glyph glyph-name="ntilde" unicode="&#xf1;" 
d="M259 663q15 0 27 -7.5t22.5 -16.5t20.5 -16.5t22 -7.5q16 0 26 8.5t18 23.5l15 -6q-8 -18 -23.5 -33t-38.5 -15q-15 0 -26.5 7.5t-22 17t-21 17t-23.5 7.5q-30 0 -49 -34l-14 6q9 20 26.5 34.5t40.5 14.5zM448 400q0 -11 -2 -23l-52 -377h-22l52 377q1 9 1 18q0 22 -7 39
q-10 24 -29.5 40t-45.5 23.5t-54 7.5q-43 0 -88.5 -7.5t-75.5 -19.5l-66 -478h-22l69 497q92 31 186 31q33 -1 63 -10t52 -27t33 -47q8 -19 8 -44z" />
    <glyph glyph-name="ograve" unicode="&#xf2;" horiz-adv-x="495" 
d="M235 682h35l47 -103h-25zM279 529q33 0 64 -10t53.5 -28.5t33.5 -46.5q9 -20 9 -45q0 -10 -2 -22l-32 -235q-5 -38 -24.5 -66.5t-47.5 -47t-61.5 -28.5t-66.5 -10q-34 0 -65 10t-53.5 28.5t-34.5 47.5q-8 19 -8 44q0 10 2 22l32 235q5 38 24.5 66.5t47.5 47t61.5 28.5
t67.5 10zM276 506q-29 0 -58 -7.5t-54 -23t-42.5 -40t-21.5 -58.5l-32 -235q-2 -11 -2 -20q0 -22 8 -38q11 -25 31 -41t47 -23.5t56 -7.5q28 0 57 7.5t54 23.5t42 40.5t22 58.5l32 235q1 9 1 18q0 23 -8 41q-10 24 -30 39.5t-47 23t-55 7.5z" />
    <glyph glyph-name="oacute" unicode="&#xf3;" horiz-adv-x="495" 
d="M366 682l-87 -103h-25l77 103h35zM279 529q33 0 64 -10t53.5 -28.5t33.5 -46.5q9 -20 9 -45q0 -10 -2 -22l-32 -235q-5 -38 -24.5 -66.5t-47.5 -47t-61.5 -28.5t-66.5 -10q-34 0 -65 10t-53.5 28.5t-34.5 47.5q-8 19 -8 44q0 10 2 22l32 235q5 38 24.5 66.5t47.5 47
t61.5 28.5t67.5 10zM276 506q-29 0 -58 -7.5t-54 -23t-42.5 -40t-21.5 -58.5l-32 -235q-2 -11 -2 -20q0 -22 8 -38q11 -25 31 -41t47 -23.5t56 -7.5q28 0 57 7.5t54 23.5t42 40.5t22 58.5l32 235q1 9 1 18q0 23 -8 41q-10 24 -30 39.5t-47 23t-55 7.5z" />
    <glyph glyph-name="ocircumflex" unicode="&#xf4;" horiz-adv-x="495" 
d="M391 575h-28l-58 79l-84 -79h-30l100 94h28zM279 529q33 0 64 -10t53.5 -28.5t33.5 -46.5q9 -20 9 -45q0 -10 -2 -22l-32 -235q-5 -38 -24.5 -66.5t-47.5 -47t-61.5 -28.5t-66.5 -10q-34 0 -65 10t-53.5 28.5t-34.5 47.5q-8 19 -8 44q0 10 2 22l32 235q5 38 24.5 66.5
t47.5 47t61.5 28.5t67.5 10zM276 506q-29 0 -58 -7.5t-54 -23t-42.5 -40t-21.5 -58.5l-32 -235q-2 -11 -2 -20q0 -22 8 -38q11 -25 31 -41t47 -23.5t56 -7.5q28 0 57 7.5t54 23.5t42 40.5t22 58.5l32 235q1 9 1 18q0 23 -8 41q-10 24 -30 39.5t-47 23t-55 7.5z" />
    <glyph glyph-name="otilde" unicode="&#xf5;" horiz-adv-x="495" 
d="M258 663q15 0 27 -7.5t22.5 -16.5t20.5 -16.5t22 -7.5q16 0 26 8.5t18 23.5l15 -6q-8 -18 -23.5 -33t-38.5 -15q-15 0 -26.5 7.5t-22 17t-21 17t-23.5 7.5q-30 0 -49 -34l-14 6q9 20 26.5 34.5t40.5 14.5zM279 529q33 0 64 -10t53.5 -28.5t33.5 -46.5q9 -20 9 -45
q0 -10 -2 -22l-32 -235q-5 -38 -24.5 -66.5t-47.5 -47t-61.5 -28.5t-66.5 -10q-34 0 -65 10t-53.5 28.5t-34.5 47.5q-8 19 -8 44q0 10 2 22l32 235q5 38 24.5 66.5t47.5 47t61.5 28.5t67.5 10zM276 506q-29 0 -58 -7.5t-54 -23t-42.5 -40t-21.5 -58.5l-32 -235
q-2 -11 -2 -20q0 -22 8 -38q11 -25 31 -41t47 -23.5t56 -7.5q28 0 57 7.5t54 23.5t42 40.5t22 58.5l32 235q1 9 1 18q0 23 -8 41q-10 24 -30 39.5t-47 23t-55 7.5z" />
    <glyph glyph-name="odieresis" unicode="&#xf6;" horiz-adv-x="495" 
d="M213 653q10 0 16 -7t4 -17t-9.5 -17t-17.5 -7t-16.5 7t-4.5 17t10 17t18 7zM393 653q10 0 16 -7t4 -17t-9.5 -17t-17.5 -7t-16.5 7t-4.5 17t10 17t18 7zM279 529q33 0 64 -10t53.5 -28.5t33.5 -46.5q9 -20 9 -45q0 -10 -2 -22l-32 -235q-5 -38 -24.5 -66.5t-47.5 -47
t-61.5 -28.5t-66.5 -10q-34 0 -65 10t-53.5 28.5t-34.5 47.5q-8 19 -8 44q0 10 2 22l32 235q5 38 24.5 66.5t47.5 47t61.5 28.5t67.5 10zM276 506q-29 0 -58 -7.5t-54 -23t-42.5 -40t-21.5 -58.5l-32 -235q-2 -11 -2 -20q0 -22 8 -38q11 -25 31 -41t47 -23.5t56 -7.5
q28 0 57 7.5t54 23.5t42 40.5t22 58.5l32 235q1 9 1 18q0 23 -8 41q-10 24 -30 39.5t-47 23t-55 7.5z" />
    <glyph glyph-name="divide" unicode="&#xf7;" horiz-adv-x="577" 
d="M312 449q-13 0 -20.5 8.5t-5.5 21.5q2 14 11.5 21.5t22.5 8.5q13 0 20.5 -8.5t5.5 -21.5t-11.5 -21.5t-22.5 -8.5zM499 320h-430l3 23h430zM277 204q13 0 21 -9q5 -7 5 -17v-5q-2 -13 -12 -22t-23 -9t-21 9q-6 7 -6 17v5q2 13 12.5 22t23.5 9z" />
    <glyph glyph-name="oslash" unicode="&#xf8;" horiz-adv-x="495" 
d="M439 400q0 -11 -2 -23l-32 -235q-5 -38 -24.5 -66.5t-47.5 -47t-61.5 -28.5t-66.5 -10q-46 0 -85 18l-44 -78l-17 6l45 80q-31 18 -48 50q-12 23 -12 53q0 11 2 23l32 235q5 38 24.5 66.5t47.5 47t61.5 28.5t67.5 10q43 0 81 -16l40 73l18 -8l-40 -74q31 -19 48 -50
q13 -24 13 -54zM67 122q0 -25 9 -44q14 -27 39 -42l234 456q-17 8 -35.5 11t-37.5 3q-29 0 -58 -7.5t-54 -23t-42.5 -40t-21.5 -58.5l-32 -235q-1 -10 -1 -20zM416 397q0 26 -10 45q-14 26 -40 42l-234 -457q17 -8 36.5 -11.5t39.5 -3.5q28 0 57 7.5t54 23.5t42 40.5
t22 58.5l32 235q1 10 1 20z" />
    <glyph glyph-name="ugrave" unicode="&#xf9;" 
d="M238 682h35l47 -103h-25zM53 119q0 10 2 22l52 377h22l-52 -377q-2 -10 -2 -19q0 -20 8 -37q11 -24 30.5 -40.5t45.5 -24.5t53 -8q41 0 86.5 8t77.5 21l66 477h22l-69 -496q-94 -32 -186 -32q-33 1 -63 10.5t-52 28.5t-33 47q-8 19 -8 43z" />
    <glyph glyph-name="uacute" unicode="&#xfa;" 
d="M369 682l-87 -103h-25l77 103h35zM53 119q0 10 2 22l52 377h22l-52 -377q-2 -10 -2 -19q0 -20 8 -37q11 -24 30.5 -40.5t45.5 -24.5t53 -8q41 0 86.5 8t77.5 21l66 477h22l-69 -496q-94 -32 -186 -32q-33 1 -63 10.5t-52 28.5t-33 47q-8 19 -8 43z" />
    <glyph glyph-name="ucircumflex" unicode="&#xfb;" 
d="M394 575h-28l-58 79l-84 -79h-30l100 94h28zM53 119q0 10 2 22l52 377h22l-52 -377q-2 -10 -2 -19q0 -20 8 -37q11 -24 30.5 -40.5t45.5 -24.5t53 -8q41 0 86.5 8t77.5 21l66 477h22l-69 -496q-94 -32 -186 -32q-33 1 -63 10.5t-52 28.5t-33 47q-8 19 -8 43z" />
    <glyph glyph-name="udieresis" unicode="&#xfc;" 
d="M216 653q10 0 16 -7t4 -17t-9.5 -17t-17.5 -7t-16.5 7t-4.5 17t10 17t18 7zM396 653q10 0 16 -7t4 -17t-9.5 -17t-17.5 -7t-16.5 7t-4.5 17t10 17t18 7zM53 119q0 10 2 22l52 377h22l-52 -377q-2 -10 -2 -19q0 -20 8 -37q11 -24 30.5 -40.5t45.5 -24.5t53 -8q41 0 86.5 8
t77.5 21l66 477h22l-69 -496q-94 -32 -186 -32q-33 1 -63 10.5t-52 28.5t-33 47q-8 19 -8 43z" />
    <glyph glyph-name="yacute" unicode="&#xfd;" horiz-adv-x="515" 
d="M372 682l-87 -103h-25l77 103h35zM186 -209q-42 0 -77.5 12.5t-60.5 36.5l16 16q26 -23 55 -33t71 -10q27 0 55 7.5t52 22.5t41 38t22 55l14 94q-48 -22 -86.5 -31t-73.5 -9q-34 0 -65 9.5t-53.5 28.5t-33.5 47q-9 20 -9 43q0 11 2 22l52 378h23l-52 -378q-2 -11 -2 -21
q0 -19 6 -35q10 -23 29 -39t45.5 -24.5t56.5 -9.5q24 0 42.5 2.5t37 7t38.5 12t46 19.5l65 466h22l-82 -581q-5 -38 -24 -65.5t-46 -45.5t-60 -26.5t-66 -8.5z" />
    <glyph glyph-name="thorn" unicode="&#xfe;" horiz-adv-x="510" 
d="M297 528q33 0 63 -10t52.5 -29.5t33.5 -48.5q8 -20 8 -44q0 -10 -2 -22l-32 -230q-5 -37 -24.5 -66t-48 -48.5t-62 -29.5t-67.5 -10q-35 1 -73.5 7.5t-79.5 26.5l-29 -203h-23l125 887h23l-29 -202q92 22 165 22zM223 13q29 0 58 8.5t53 24.5t40.5 40t21.5 56l33 232
q2 11 2 22q0 19 -7 36q-9 24 -28 40t-46 24t-57 8q-38 0 -77 -3.5t-87 -19.5l-61 -433q44 -20 78.5 -27.5t76.5 -7.5z" />
    <glyph glyph-name="ydieresis" unicode="&#xff;" horiz-adv-x="515" 
d="M219 653q10 0 16 -7t4 -17t-9.5 -17t-17.5 -7t-16.5 7t-4.5 17t10 17t18 7zM399 653q10 0 16 -7t4 -17t-9.5 -17t-17.5 -7t-16.5 7t-4.5 17t10 17t18 7zM186 -209q-42 0 -77.5 12.5t-60.5 36.5l16 16q26 -23 55 -33t71 -10q27 0 55 7.5t52 22.5t41 38t22 55l14 94
q-48 -22 -86.5 -31t-73.5 -9q-34 0 -65 9.5t-53.5 28.5t-33.5 47q-9 20 -9 43q0 11 2 22l52 378h23l-52 -378q-2 -11 -2 -21q0 -19 6 -35q10 -23 29 -39t45.5 -24.5t56.5 -9.5q24 0 42.5 2.5t37 7t38.5 12t46 19.5l65 466h22l-82 -581q-5 -38 -24 -65.5t-46 -45.5t-60 -26.5
t-66 -8.5z" />
    <glyph glyph-name="Amacron" unicode="&#x100;" horiz-adv-x="600" 
d="M270 807h197l-3 -21h-197zM539 0h-27l-58 253h-327l-125 -253h-27l359 708h45zM450 278l-92 411h-6l-212 -411h310z" />
    <glyph glyph-name="amacron" unicode="&#x101;" horiz-adv-x="511" 
d="M209 628h197l-3 -21h-197zM46 113q0 12 2 26l33 234q6 43 26.5 73t50 48t65.5 26t73 8q45 0 87 -10t74 -24l-68 -494h-21l7 59q-41 -41 -87.5 -55t-89.5 -14q-32 0 -61 8.5t-51 26.5t-33 47q-7 18 -7 41zM298 508q-34 0 -67 -7t-60 -23t-45.5 -41.5t-23.5 -62.5l-33 -235
q-2 -12 -2 -24q0 -20 6 -35q9 -25 27.5 -40.5t44.5 -22.5t55 -7q23 0 47.5 5t47.5 14t44 22t37 30l3 4l55 393q-29 14 -64.5 22t-71.5 8z" />
    <glyph glyph-name="Abreve" unicode="&#x102;" horiz-adv-x="600" 
d="M379 708h-45l-359 -708h27l125 253h327l58 -253h27zM140 278l212 411h6l92 -411h-310zM366 777q-33 0 -60 19.5t-30 57.5h23q4 -28 24 -41.5t45 -13.5t48 13.5t37 41.5h23q-15 -38 -46 -57.5t-64 -19.5z" />
    <glyph glyph-name="abreve" unicode="&#x103;" horiz-adv-x="511" 
d="M296 528q-37 0 -73 -8t-65.5 -26t-50 -48t-26.5 -73l-33 -234q-2 -14 -2 -26q0 -23 7 -41q11 -29 33 -47t51 -26.5t61 -8.5q43 0 89.5 14t87.5 55l-7 -59h21l68 494q-32 14 -74 24t-87 10zM200 10q-29 0 -55 7t-44.5 22.5t-27.5 40.5q-6 15 -6 35q0 12 2 24l33 235
q5 37 23.5 62.5t45.5 41.5t60 23t67 7q36 0 71.5 -8t64.5 -22l-55 -393l-3 -4q-16 -17 -37 -30t-44 -22t-47.5 -14t-47.5 -5zM305 598q-33 0 -60 19.5t-30 57.5h23q4 -28 24 -41.5t45 -13.5t48 13.5t37 41.5h23q-15 -38 -46 -57.5t-64 -19.5z" />
    <glyph glyph-name="Aogonek" unicode="&#x104;" horiz-adv-x="599" 
d="M490 -204q-6 0 -12 1q-17 3 -29.5 14.5t-15.5 33.5q-1 7 -1 14q0 28 16 57q21 36 66 84h-3l-58 253h-327l-125 -253h-27l359 708h45l160 -708h-1q-27 -29 -44 -51.5t-26 -40t-11 -31.5t0 -26q5 -26 31 -33q6 -1 12 -1q22 0 52 19l4 -16q-19 -14 -39 -20q-13 -4 -26 -4z
M357 689h-6l-212 -411h310z" />
    <glyph glyph-name="aogonek" unicode="&#x105;" horiz-adv-x="510" 
d="M351 -183q22 0 52 19l4 -16q-19 -14 -39 -20q-13 -4 -26 -4q-6 0 -12 1q-17 3 -29.5 14.5t-15.5 33.5q-1 7 -1 14q0 28 16 57q21 37 68 85l7 58q-41 -41 -87.5 -55t-89.5 -14q-32 0 -61 8.5t-51 26.5t-33 47q-7 18 -7 41q0 12 2 26l33 234q6 43 26.5 73t50 48t65.5 26
t73 8q45 0 87 -10t74 -24l-69 -494q-27 -29 -43.5 -51t-25.5 -40t-11 -32t0 -26q5 -26 31 -33q6 -1 12 -1zM200 10q23 0 47.5 5t47.5 14t44 22t37 30l3 4l55 393q-29 14 -64.5 22t-71.5 8q-34 0 -67 -7t-60 -23t-45.5 -41.5t-23.5 -62.5l-33 -235q-2 -12 -2 -24q0 -20 6 -35
q9 -25 27.5 -40.5t44.5 -22.5t55 -7z" />
    <glyph glyph-name="Cacute" unicode="&#x106;" horiz-adv-x="584" 
d="M465 862l-87 -103h-25l77 103h35zM381 718q33 0 65.5 -6.5t61 -19t50.5 -32t34 -44.5l-24 -15q-11 23 -30 40.5t-44.5 29t-55 17.5t-59.5 6q-41 0 -82.5 -11t-76 -32.5t-58.5 -54.5t-30 -76l-45 -332q-2 -13 -2 -25q0 -28 11 -51q14 -32 42.5 -54t67 -32.5t79.5 -10.5
q26 0 56 5.5t59.5 16.5t55 27.5t43.5 39.5l20 -11q-19 -26 -46 -45t-58 -32t-65 -19.5t-68 -6.5q-46 0 -88.5 12.5t-74 37.5t-47.5 62q-12 26 -12 58q0 13 2 28l45 332q7 49 31.5 86t61.5 62t83.5 37.5t97.5 12.5z" />
    <glyph glyph-name="cacute" unicode="&#x107;" horiz-adv-x="453" 
d="M354 682l-87 -103h-25l77 103h35zM275 506q-30 0 -59 -7.5t-53.5 -23.5t-41.5 -39.5t-21 -56.5l-32 -238q-2 -11 -2 -20q0 -21 8 -37q10 -25 29.5 -41t46.5 -23.5t57 -7.5q45 0 88 18t67 56l20 -10q-29 -42 -77.5 -64t-100.5 -22q-33 0 -64 9.5t-53.5 28t-34.5 46.5
q-8 20 -8 45q0 10 2 22l32 236q5 38 24.5 66.5t47.5 47t61.5 28t66.5 9.5q46 0 84.5 -16t58.5 -51l-18 -11q-17 30 -51.5 43t-76.5 13z" />
    <glyph glyph-name="Cdotaccent" unicode="&#x10a;" horiz-adv-x="584" 
d="M401 832q11 0 18 -8t5 -20q-2 -11 -10.5 -19t-19.5 -8t-18.5 8t-5.5 19q2 12 11 20t20 8zM381 718q33 0 65.5 -6.5t61 -19t50.5 -32t34 -44.5l-24 -15q-11 23 -30 40.5t-44.5 29t-55 17.5t-59.5 6q-41 0 -82.5 -11t-76 -32.5t-58.5 -54.5t-30 -76l-45 -332q-2 -13 -2 -25
q0 -28 11 -51q14 -32 42.5 -54t67 -32.5t79.5 -10.5q26 0 56 5.5t59.5 16.5t55 27.5t43.5 39.5l20 -11q-19 -26 -46 -45t-58 -32t-65 -19.5t-68 -6.5q-46 0 -88.5 12.5t-74 37.5t-47.5 62q-12 26 -12 58q0 13 2 28l45 332q7 49 31.5 86t61.5 62t83.5 37.5t97.5 12.5z" />
    <glyph glyph-name="cdotaccent" unicode="&#x10b;" horiz-adv-x="453" 
d="M290 652q11 0 18 -8t5 -20q-2 -11 -10.5 -19t-19.5 -8t-18.5 8t-5.5 19q2 12 11 20t20 8zM275 506q-30 0 -59 -7.5t-53.5 -23.5t-41.5 -39.5t-21 -56.5l-32 -238q-2 -11 -2 -20q0 -21 8 -37q10 -25 29.5 -41t46.5 -23.5t57 -7.5q45 0 88 18t67 56l20 -10
q-29 -42 -77.5 -64t-100.5 -22q-33 0 -64 9.5t-53.5 28t-34.5 46.5q-8 20 -8 45q0 10 2 22l32 236q5 38 24.5 66.5t47.5 47t61.5 28t66.5 9.5q46 0 84.5 -16t58.5 -51l-18 -11q-17 30 -51.5 43t-76.5 13z" />
    <glyph glyph-name="Ccaron" unicode="&#x10c;" horiz-adv-x="584" 
d="M308 854h28l58 -79l84 79h30l-100 -94h-28zM381 718q33 0 65.5 -6.5t61 -19t50.5 -32t34 -44.5l-24 -15q-11 23 -30 40.5t-44.5 29t-55 17.5t-59.5 6q-41 0 -82.5 -11t-76 -32.5t-58.5 -54.5t-30 -76l-45 -332q-2 -13 -2 -25q0 -28 11 -51q14 -32 42.5 -54t67 -32.5
t79.5 -10.5q26 0 56 5.5t59.5 16.5t55 27.5t43.5 39.5l20 -11q-19 -26 -46 -45t-58 -32t-65 -19.5t-68 -6.5q-46 0 -88.5 12.5t-74 37.5t-47.5 62q-12 26 -12 58q0 13 2 28l45 332q7 49 31.5 86t61.5 62t83.5 37.5t97.5 12.5z" />
    <glyph glyph-name="ccaron" unicode="&#x10d;" horiz-adv-x="453" 
d="M197 674h28l58 -79l84 79h30l-100 -94h-28zM275 506q-30 0 -59 -7.5t-53.5 -23.5t-41.5 -39.5t-21 -56.5l-32 -238q-2 -11 -2 -20q0 -21 8 -37q10 -25 29.5 -41t46.5 -23.5t57 -7.5q45 0 88 18t67 56l20 -10q-29 -42 -77.5 -64t-100.5 -22q-33 0 -64 9.5t-53.5 28
t-34.5 46.5q-8 20 -8 45q0 10 2 22l32 236q5 38 24.5 66.5t47.5 47t61.5 28t66.5 9.5q46 0 84.5 -16t58.5 -51l-18 -11q-17 30 -51.5 43t-76.5 13z" />
    <glyph glyph-name="Dcaron" unicode="&#x10e;" horiz-adv-x="640" 
d="M283 854h28l58 -79l84 79h30l-100 -94h-28zM388 708q46 0 86 -11t68 -34t41 -59q8 -23 8 -53q0 -15 -2 -33l-46 -329q-7 -50 -30 -85.5t-57.5 -58.5t-77.5 -34t-89 -11h-239l99 708h239zM292 25q39 0 76.5 9.5t69 29.5t53 51t27.5 74l46 329q2 15 2 29q0 26 -8 47
q-11 31 -35.5 51t-60.5 29t-78 9h-214l-92 -658h214z" />
    <glyph glyph-name="dcaron" unicode="&#x10f;" horiz-adv-x="536" 
d="M556 558h-22l61 149h30zM45 114q0 13 2 27l33 235q5 38 24.5 66.5t47.5 47.5t61.5 28.5t67.5 9.5q35 0 74 -6.5t80 -26.5l30 213h23l-97 -692q-46 -14 -93.5 -20t-94.5 -6q-33 1 -63.5 9t-53 26t-34.5 47q-7 18 -7 42zM277 505q-30 0 -59.5 -8t-53.5 -24t-40.5 -39.5
t-20.5 -56.5l-33 -236q-2 -11 -2 -21q0 -20 7 -36q10 -24 29.5 -39.5t46 -23t56.5 -7.5q38 0 78 4t86 18l60 433q-78 36 -154 36z" />
    <glyph glyph-name="Dcroat" unicode="&#x110;" horiz-adv-x="636" 
d="M370 708q46 0 89 -12.5t74.5 -37.5t47.5 -62q11 -27 11 -59q0 -14 -2 -29l-44 -309q-7 -50 -33.5 -87.5t-64.5 -62t-84.5 -37t-92.5 -12.5h-219l47 340h-63l3 22h63l49 346h219zM274 25q42 0 83.5 10.5t76 32.5t58 54.5t29.5 76.5l44 309q2 13 2 25q0 29 -11 52
q-14 33 -42.5 54.5t-67 32.5t-80.5 11h-194l-45 -321h125l-3 -22h-125l-44 -315h194z" />
    <glyph glyph-name="dcroat" unicode="&#x111;" horiz-adv-x="512" 
d="M45 114q0 13 2 27l33 235q5 38 24.5 66.5t47.5 47.5t61.5 28.5t67.5 9.5q35 0 74 -6.5t80 -26.5l15 110h-99l2 17h100l12 86h23l-12 -86h54l-2 -17h-54l-83 -589q-46 -14 -93.5 -20t-94.5 -6q-33 1 -63.5 9t-53 26t-34.5 47q-7 18 -7 42zM277 505q-30 0 -59.5 -8
t-53.5 -24t-40.5 -39.5t-20.5 -56.5l-33 -236q-2 -11 -2 -21q0 -20 7 -36q10 -24 29.5 -39.5t46 -23t56.5 -7.5q38 0 78 4t86 18l60 433q-78 36 -154 36z" />
    <glyph glyph-name="Emacron" unicode="&#x112;" horiz-adv-x="564" 
d="M282 807h197l-3 -21h-197zM126 366h366l-4 -27h-366l-44 -314h396l-3 -25h-421l99 708h421l-4 -25h-396z" />
    <glyph glyph-name="emacron" unicode="&#x113;" horiz-adv-x="474" 
d="M193 627h197l-3 -21h-197zM64 118q0 -21 8 -38q11 -24 31.5 -39t47.5 -22t56 -7q41 0 81.5 14.5t66.5 47.5l16 -10q-30 -36 -75 -55t-92 -19q-34 0 -65 9t-53.5 28t-33.5 47q-8 19 -8 43q0 11 2 23l31 228q6 40 25.5 70.5t47.5 50t61.5 29.5t67.5 10q33 0 63.5 -9
t52.5 -28.5t33 -48.5q8 -20 8 -44q0 -12 -2 -26q-6 -40 -25 -70.5t-46.5 -51t-61 -31t-68.5 -10.5t-74.5 7t-78.5 27l-14 -104q-2 -11 -2 -21zM236 229q31 0 60.5 8.5t54 26t41 44.5t22.5 64q2 11 2 22q0 21 -7 38q-10 26 -29.5 42.5t-46.5 25t-57 8.5t-60 -8.5t-55 -26
t-42 -43.5t-22 -61l-14 -105q40 -19 73 -27t80 -8z" />
    <glyph glyph-name="Edotaccent" unicode="&#x116;" horiz-adv-x="564" 
d="M384 832q11 0 18 -8t5 -20q-2 -11 -10.5 -19t-19.5 -8t-18.5 8t-5.5 19q2 12 11 20t20 8zM126 366h366l-4 -27h-366l-44 -314h396l-3 -25h-421l99 708h421l-4 -25h-396z" />
    <glyph glyph-name="edotaccent" unicode="&#x117;" horiz-adv-x="474" 
d="M295 652q11 0 18 -8t5 -20q-2 -11 -10.5 -19t-19.5 -8t-18.5 8t-5.5 19q2 12 11 20t20 8zM64 118q0 -22 8 -38q11 -24 31.5 -39t47.5 -22t56 -7q41 0 81.5 14.5t66.5 47.5l16 -10q-30 -36 -75 -55t-92 -19q-34 0 -65 9t-53.5 28t-33.5 47q-8 19 -8 43q0 11 2 23l31 228
q6 40 25.5 70.5t47.5 50t61.5 29.5t67.5 10q33 0 63.5 -9t52.5 -28.5t33 -48.5q8 -20 8 -44q0 -12 -2 -26q-6 -40 -25 -70.5t-46.5 -51t-61 -31t-68.5 -10.5t-74.5 7t-78.5 27l-14 -104q-2 -11 -2 -21zM236 229q31 0 60.5 8.5t54 26t41 44.5t22.5 64q2 11 2 22q0 21 -7 38
q-10 26 -29.5 42.5t-46.5 25t-57 8.5t-60 -8.5t-55 -26t-42 -43.5t-22 -61l-14 -105q40 -19 73 -27t80 -8z" />
    <glyph glyph-name="Eogonek" unicode="&#x118;" horiz-adv-x="562" 
d="M431 -183q22 0 52 19l4 -16q-19 -14 -39 -20q-13 -4 -26 -4q-6 0 -12 1q-17 3 -29.5 14.5t-15.5 33.5q-1 7 -1 14q0 28 16 57q21 36 66 84h-398l99 708h421l-4 -25h-396l-44 -317h366l-4 -27h-366l-44 -314h396l-3 -25q-27 -29 -44 -51.5t-26 -40t-11 -31.5t0 -26
q5 -26 31 -33q6 -1 12 -1z" />
    <glyph glyph-name="eogonek" unicode="&#x119;" horiz-adv-x="475" 
d="M65 119q0 -21 7 -37q11 -24 31 -39.5t47.5 -23t57.5 -7.5q42 0 82.5 15.5t66.5 48.5l19 -11q-16 -21 -38.5 -36.5t-48.5 -35.5q-23 -18 -39 -37.5t-25.5 -39t-13 -36.5t-1.5 -29q5 -26 31 -33q6 -1 12 -1q22 0 52 19l4 -15q-19 -14 -39 -21q-15 -4 -27 -4q-6 0 -11 1
q-17 3 -29.5 14.5t-15.5 33.5q-1 6 -1 13q0 27 17 59q21 40 63 80q-15 -4 -30.5 -5.5t-30.5 -1.5q-34 0 -65 9t-53.5 28t-34.5 47q-8 20 -8 44q0 10 2 22l31 228q6 40 25.5 70.5t47.5 50t61.5 29.5t67.5 10q33 0 63.5 -9t52.5 -28.5t33 -48.5q8 -20 8 -44q0 -12 -2 -26
q-6 -40 -25 -70.5t-46.5 -51t-61 -31t-68.5 -10.5t-74.5 7t-78.5 27l-13 -104q-2 -11 -2 -20zM236 229q31 0 60.5 8.5t54 26t41 44.5t22.5 64q2 11 2 22q0 21 -7 38q-10 26 -29.5 42.5t-46.5 25t-57 8.5t-60 -8.5t-55 -26t-42 -43.5t-22 -61l-14 -105q40 -19 73 -27t80 -8z
" />
    <glyph glyph-name="Ecaron" unicode="&#x11a;" horiz-adv-x="564" 
d="M291 854h28l58 -79l84 79h30l-100 -94h-28zM126 366h366l-4 -27h-366l-44 -314h396l-3 -25h-421l99 708h421l-4 -25h-396z" />
    <glyph glyph-name="ecaron" unicode="&#x11b;" horiz-adv-x="474" 
d="M202 674h28l58 -79l84 79h30l-100 -94h-28zM64 118q0 -21 8 -38q11 -24 31.5 -39t47.5 -22t56 -7q41 0 81.5 14.5t66.5 47.5l16 -10q-30 -36 -75 -55t-92 -19q-34 0 -65 9t-53.5 28t-33.5 47q-8 19 -8 43q0 11 2 23l31 228q6 40 25.5 70.5t47.5 50t61.5 29.5t67.5 10
q33 0 63.5 -9t52.5 -28.5t33 -48.5q8 -20 8 -44q0 -12 -2 -26q-6 -40 -25 -70.5t-46.5 -51t-61 -31t-68.5 -10.5t-74.5 7t-78.5 27l-14 -104q-2 -11 -2 -21zM236 229q31 0 60.5 8.5t54 26t41 44.5t22.5 64q2 11 2 22q0 21 -7 38q-10 26 -29.5 42.5t-46.5 25t-57 8.5
t-60 -8.5t-55 -26t-42 -43.5t-22 -61l-14 -105q40 -19 73 -27t80 -8z" />
    <glyph glyph-name="Gbreve" unicode="&#x11e;" horiz-adv-x="633" 
d="M394 777q-33 0 -60 19.5t-30 57.5h23q4 -28 24 -41.5t45 -13.5t48 13.5t37 41.5h23q-15 -38 -46 -57.5t-64 -19.5zM60 162q0 -33 11 -59q16 -38 47.5 -63t74 -37.5t89.5 -12.5q46 0 92.5 12.5t85 37.5t65.5 63t34 88l22 151h-242l-4 -24h217l-18 -127q-6 -44 -30 -77.5
t-59 -55.5t-76.5 -33t-83.5 -11t-80.5 11t-66.5 33t-42 56q-11 23 -11 52q0 12 2 25l45 329q6 43 29.5 75.5t57.5 54.5t75 32.5t83 10.5q30 0 59 -5.5t53.5 -16.5t43.5 -29t29 -42l25 15q-12 25 -33 44.5t-48 32.5t-58.5 19.5t-64.5 6.5q-47 0 -93 -12.5t-84.5 -37.5
t-65 -62t-33.5 -86l-45 -329q-2 -15 -2 -29z" />
    <glyph glyph-name="gbreve" unicode="&#x11f;" horiz-adv-x="503" 
d="M179 -209q33 0 65.5 8.5t59 26.5t45 45.5t23.5 65.5l77 555q-45 16 -86.5 26t-89.5 10q-33 0 -65.5 -9.5t-59.5 -28.5t-46 -46.5t-24 -64.5l-31 -239q-2 -11 -2 -22q0 -23 9 -43q11 -28 33 -47t52.5 -28.5t64.5 -9.5q35 0 74 8.5t87 30.5l-14 -93q-6 -33 -22.5 -56.5
t-40 -38.5t-51.5 -22t-57 -7q-35 0 -69 11t-58 31l-15 -15q25 -24 62 -36t79 -12zM68 122q0 9 1 18l31 240q4 31 20 54.5t39.5 39.5t52.5 24t58 8q43 0 85.5 -10t69.5 -22l-57 -424q-26 -11 -46.5 -18.5t-40 -12t-38 -6.5t-39.5 -2q-29 1 -55.5 9.5t-45.5 24.5t-29 39
q-6 17 -6 38zM305 597q-33 0 -60 19.5t-30 57.5h23q4 -28 24 -41.5t45 -13.5t48 13.5t37 41.5h23q-15 -38 -46 -57.5t-64 -19.5z" />
    <glyph glyph-name="Gdotaccent" unicode="&#x120;" horiz-adv-x="633" 
d="M400 832q11 0 18 -8t5 -20q-2 -11 -10.5 -19t-19.5 -8t-18.5 8t-5.5 19q2 12 11 20t20 8zM383 718q33 0 64.5 -6.5t58.5 -19.5t48 -32.5t33 -44.5l-25 -15q-10 24 -29 42t-43.5 29t-53.5 16.5t-59 5.5q-42 0 -83 -10.5t-75 -32.5t-57.5 -54.5t-29.5 -75.5l-45 -329
q-2 -13 -2 -25q0 -29 11 -52q14 -34 42 -56t66.5 -33t80.5 -11t83.5 11t76.5 33t59 55.5t30 77.5l18 127h-217l4 24h242l-22 -151q-7 -50 -34 -88t-65.5 -63t-85 -37.5t-92.5 -12.5q-47 0 -89.5 12.5t-74 37.5t-47.5 63q-11 26 -11 59q0 14 2 29l45 329q7 49 33.5 86t65 62
t84.5 37.5t93 12.5z" />
    <glyph glyph-name="gdotaccent" unicode="&#x121;" horiz-adv-x="503" 
d="M319 652q11 0 18 -8t5 -20q-2 -11 -10.5 -19t-19.5 -8t-18.5 8t-5.5 19q2 12 11 20t20 8zM180 -188q29 0 57 7t51.5 22t40 38.5t22.5 56.5l14 93q-48 -22 -87 -30.5t-74 -8.5q-34 0 -64.5 9.5t-52.5 28.5t-33 47q-9 20 -9 43q0 11 2 22l31 239q5 37 24 64.5t46 46.5
t59.5 28.5t65.5 9.5q48 0 89.5 -10t86.5 -26l-77 -555q-5 -38 -23.5 -65.5t-45 -45.5t-59 -26.5t-65.5 -8.5q-42 0 -79 12t-62 36l15 15q24 -20 58 -31t69 -11zM270 506q-29 0 -58 -8t-52.5 -24t-39.5 -39.5t-20 -54.5l-31 -240q-1 -9 -1 -18q0 -21 6 -38q10 -23 29 -39
t45.5 -24.5t55.5 -9.5q21 0 39.5 2t38 6.5t40 12t46.5 18.5l57 424q-27 12 -69.5 22t-85.5 10z" />
    <glyph glyph-name="Gcommaaccent" unicode="&#x122;" horiz-adv-x="633" 
d="M211 -248h-22l71 149h33zM383 718q33 0 64.5 -6.5t58.5 -19.5t48 -32.5t33 -44.5l-25 -15q-10 24 -29 42t-43.5 29t-53.5 16.5t-59 5.5q-42 0 -83 -10.5t-75 -32.5t-57.5 -54.5t-29.5 -75.5l-45 -329q-2 -13 -2 -25q0 -29 11 -52q14 -34 42 -56t66.5 -33t80.5 -11
t83.5 11t76.5 33t59 55.5t30 77.5l18 127h-217l4 24h242l-22 -151q-7 -50 -34 -88t-65.5 -63t-85 -37.5t-92.5 -12.5q-47 0 -89.5 12.5t-74 37.5t-47.5 63q-11 26 -11 59q0 14 2 29l45 329q7 49 33.5 86t65 62t84.5 37.5t93 12.5z" />
    <glyph glyph-name="gcommaaccent" unicode="&#x123;" horiz-adv-x="503" 
d="M318 708h26l-50 -102h-30zM180 -188q29 0 57 7t51.5 22t40 38.5t22.5 56.5l14 93q-48 -22 -87 -30.5t-74 -8.5q-34 0 -64.5 9.5t-52.5 28.5t-33 47q-9 20 -9 43q0 11 2 22l31 239q5 37 24 64.5t46 46.5t59.5 28.5t65.5 9.5q48 0 89.5 -10t86.5 -26l-77 -555
q-5 -38 -23.5 -65.5t-45 -45.5t-59 -26.5t-65.5 -8.5q-42 0 -79 12t-62 36l15 15q24 -20 58 -31t69 -11zM270 506q-29 0 -58 -8t-52.5 -24t-39.5 -39.5t-20 -54.5l-31 -240q-1 -9 -1 -18q0 -21 6 -38q10 -23 29 -39t45.5 -24.5t55.5 -9.5q21 0 39.5 2t38 6.5t40 12
t46.5 18.5l57 424q-27 12 -69.5 22t-85.5 10z" />
    <glyph glyph-name="Hbar" unicode="&#x126;" horiz-adv-x="688" 
d="M550 0h-25l48 341h-447l-48 -341h-25l76 538h-75l3 23h75l21 147h25l-21 -147h447l21 147h25l-21 -147h72l-3 -23h-72zM130 366h447l24 172h-447z" />
    <glyph glyph-name="hbar" unicode="&#x127;" horiz-adv-x="516" 
d="M295 528q31 0 59 -8q30 -10 52.5 -29t33.5 -47q9 -20 9 -44q0 -11 -2 -22l-51 -378h-22l51 378q1 9 1 18q0 22 -7 38q-10 24 -29.5 40t-46.5 24t-56 8q-36 0 -77.5 -8.5t-85.5 -25.5l-64 -472h-22l85 609h-61l3 20h61l11 79h22l-11 -79h114l-3 -20h-114l-17 -115
q45 20 85.5 27t75.5 7h6z" />
    <glyph glyph-name="Imacron" unicode="&#x12a;" horiz-adv-x="210" 
d="M85 807h197l-3 -21h-197zM75 0h-25l99 708h25z" />
    <glyph glyph-name="imacron" unicode="&#x12b;" horiz-adv-x="187" 
d="M50 627h167l-3 -21h-167zM62 0h-24l74 518h24z" />
    <glyph glyph-name="Iogonek" unicode="&#x12e;" horiz-adv-x="210" 
d="M38 -183q22 0 52 19l4 -16q-19 -14 -39 -20q-13 -4 -26 -4q-6 0 -12 1q-17 3 -29.5 14.5t-15.5 33.5q-1 7 -1 14q0 28 16 57q21 36 66 84h-2l99 708h25l-99 -708q-27 -29 -44 -51.5t-26 -40t-11 -31.5t0 -26q5 -26 31 -33q6 -1 12 -1z" />
    <glyph glyph-name="iogonek" unicode="&#x12f;" horiz-adv-x="186" 
d="M148 692q11 0 18 -8q6 -7 6 -15q0 -14 -12 -25q-9 -8 -20 -8t-18.5 8.5t-5.5 19.5t11.5 19.5t20.5 8.5zM24 -183q22 0 52 19l4 -16q-19 -14 -39 -20q-13 -4 -26 -4q-6 0 -11 1q-18 3 -30.5 14.5t-15.5 33.5q-1 7 -1 14q0 28 16 57q20 37 65 85l72 507h24l-73 -508
q-27 -29 -43.5 -51t-25.5 -40t-11 -32t0 -26q5 -26 31 -33q6 -1 12 -1z" />
    <glyph glyph-name="Idotaccent" unicode="&#x130;" horiz-adv-x="210" 
d="M187 832q13 0 21 -9q6 -8 6 -18v-5q-2 -13 -12.5 -22.5t-23.5 -9.5t-22 9q-6 8 -6 18q0 16 13 28q11 9 24 9zM75 0h-25l99 708h25z" />
    <glyph glyph-name="dotlessi" unicode="&#x131;" horiz-adv-x="187" 
d="M62 0h-24l74 518h24z" />
    <glyph glyph-name="IJ" unicode="&#x132;" horiz-adv-x="783" 
d="M414 -10q-37 0 -71 9t-61.5 27t-46.5 45t-25 62l26 8q6 -34 24.5 -58t43.5 -39.5t55 -22.5q7 -2 17.5 -3t18.5 -2t15 -2h8q39 0 78.5 10.5t72.5 32t56 54t29 76.5l70 498h-236l3 23h261l-73 -521q-7 -51 -32.5 -88t-62.5 -61.5t-81 -36t-89 -11.5zM75 0h-25l99 708h25z
" />
    <glyph glyph-name="ij" unicode="&#x133;" horiz-adv-x="370" 
d="M147 692q11 0 19 -8q5 -7 5 -15q0 -14 -11 -25q-10 -8 -21 -8t-18.5 8.5t-5.5 19.5t11.5 19.5t20.5 8.5zM60 0h-24l74 518h24zM331 688q11 0 18 -8q6 -7 6 -15q0 -14 -12 -25q-9 -8 -20 -8t-18.5 8.5t-5.5 19.5t11.5 19.5t20.5 8.5zM90 -153q54 5 87.5 37t42.5 94l77 540
h22l-77 -540q-10 -71 -52 -109.5t-103 -43.5z" />
    <glyph glyph-name="Kcommaaccent" unicode="&#x136;" horiz-adv-x="589" 
d="M200 -247h-22l71 149h33zM114 278l479 430h32l-375 -341l276 -367h-29l-267 349l-121 -106l-34 -243h-25l99 708h25z" />
    <glyph glyph-name="kcommaaccent" unicode="&#x137;" horiz-adv-x="461" 
d="M135 -247h-22l71 149h33zM90 207l341 311h27l-251 -233l181 -285h-25l-175 269l-102 -90l-25 -179h-22l99 708h22z" />
    <glyph glyph-name="Lacute" unicode="&#x139;" horiz-adv-x="488" 
d="M269 862l-87 -103h-25l77 103h35zM50 0l99 708h25l-96 -683h354l-3 -25h-379z" />
    <glyph glyph-name="lacute" unicode="&#x13a;" horiz-adv-x="210" 
d="M244 862l-87 -103h-25l77 103h35zM154 -10q-55 0 -82 36q-21 26 -21 72q0 18 3 39l79 571h22l-79 -571q-2 -17 -2 -32q0 -35 12 -59q18 -34 71 -34h3l-3 -22h-3z" />
    <glyph glyph-name="Lcommaaccent" unicode="&#x13b;" horiz-adv-x="488" 
d="M155 -247h-22l71 149h33zM50 0l99 708h25l-96 -683h354l-3 -25h-379z" />
    <glyph glyph-name="lcommaaccent" unicode="&#x13c;" horiz-adv-x="210" 
d="M29 -247h-22l71 149h33zM155 -10q-55 0 -82 36q-21 26 -21 72q0 18 3 39l79 571h22l-79 -571q-2 -17 -2 -32q0 -35 12 -59q18 -34 71 -34h3l-3 -22h-3z" />
    <glyph glyph-name="Lcaron" unicode="&#x13d;" horiz-adv-x="489" 
d="M401 559h-22l71 149h33zM50 0l99 708h25l-96 -683h354l-3 -25h-379z" />
    <glyph glyph-name="lcaron" unicode="&#x13e;" horiz-adv-x="222" 
d="M231 559h-19l47 140h25zM154 -10q-55 0 -82 36q-21 26 -21 72q0 18 3 39l79 571h22l-79 -571q-2 -17 -2 -32q0 -35 12 -59q18 -34 71 -34h3l-3 -22h-3z" />
    <glyph glyph-name="Ldot" unicode="&#x13f;" horiz-adv-x="490" 
d="M316 343q13 0 21 -9q6 -8 6 -18v-5q-2 -13 -12.5 -22.5t-23.5 -9.5t-22 9q-6 8 -6 18q0 16 13 28q11 9 24 9zM50 0l99 708h25l-96 -683h354l-3 -25h-379z" />
    <glyph glyph-name="ldot" unicode="&#x140;" horiz-adv-x="240" 
d="M215 331q13 0 21 -9q6 -8 6 -18v-5q-2 -13 -12.5 -22.5t-23.5 -9.5t-22 9q-6 8 -6 18q0 16 13 28q11 9 24 9zM154 -10q-55 0 -82 36q-21 26 -21 72q0 18 3 39l79 571h22l-79 -571q-2 -17 -2 -32q0 -35 12 -59q18 -34 71 -34h3l-3 -22h-3z" />
    <glyph glyph-name="Lslash" unicode="&#x141;" horiz-adv-x="487" 
d="M53 0l41 294l-71 -30l-5 17l80 34l55 394h22l-54 -385l146 62l6 -18l-155 -65l-39 -280h340l-4 -23h-362z" />
    <glyph glyph-name="lslash" unicode="&#x142;" horiz-adv-x="218" 
d="M79 112q0 -35 14 -58q19 -32 68 -32h6l-4 -22q-56 0 -85 35q-22 26 -22 73q0 16 3 34l30 207l-57 -24l-4 18l63 27l48 338h22l-46 -328l75 33l4 -18l-82 -36l-31 -217q-2 -16 -2 -30z" />
    <glyph glyph-name="Nacute" unicode="&#x143;" horiz-adv-x="670" 
d="M480 862l-87 -103h-25l77 103h35zM513 24l96 684h25l-99 -708h-43l-320 676l-96 -676h-26l99 708h39z" />
    <glyph glyph-name="nacute" unicode="&#x144;" 
d="M367 682l-87 -103h-25l77 103h35zM448 400q0 -11 -2 -23l-52 -377h-22l52 377q1 9 1 18q0 22 -7 39q-10 24 -29.5 40t-45.5 23.5t-54 7.5q-43 0 -88.5 -7.5t-75.5 -19.5l-66 -478h-22l69 497q92 31 186 31q33 -1 63 -10t52 -27t33 -47q8 -19 8 -44z" />
    <glyph glyph-name="Ncommaaccent" unicode="&#x145;" horiz-adv-x="670" 
d="M235 -247h-22l71 149h33zM513 24l96 684h25l-99 -708h-43l-320 676l-96 -676h-26l99 708h39z" />
    <glyph glyph-name="ncommaaccent" unicode="&#x146;" 
d="M151 -247h-22l71 149h33zM448 400q0 -11 -2 -23l-52 -377h-22l52 377q1 9 1 18q0 22 -7 39q-10 24 -29.5 40t-45.5 23.5t-54 7.5q-43 0 -88.5 -7.5t-75.5 -19.5l-66 -478h-22l69 497q92 31 186 31q33 -1 63 -10t52 -27t33 -47q8 -19 8 -44z" />
    <glyph glyph-name="Ncaron" unicode="&#x147;" horiz-adv-x="670" 
d="M323 854h28l58 -79l84 79h30l-100 -94h-28zM513 24l96 684h25l-99 -708h-43l-320 676l-96 -676h-26l99 708h39z" />
    <glyph glyph-name="ncaron" unicode="&#x148;" 
d="M210 674h28l58 -79l84 79h30l-100 -94h-28zM448 400q0 -11 -2 -23l-52 -377h-22l52 377q1 9 1 18q0 22 -7 39q-10 24 -29.5 40t-45.5 23.5t-54 7.5q-43 0 -88.5 -7.5t-75.5 -19.5l-66 -478h-22l69 497q92 31 186 31q33 -1 63 -10t52 -27t33 -47q8 -19 8 -44z" />
    <glyph glyph-name="Eng" unicode="&#x14a;" horiz-adv-x="668" 
d="M529 -22q-10 -71 -50.5 -115.5t-106.5 -48.5l3 22q54 5 87 41.5t42 100.5l2 9l-336 689l-97 -676h-26l100 708h39l327 -671l94 671h25z" />
    <glyph glyph-name="eng" unicode="&#x14b;" 
d="M425 397q0 22 -7 39q-10 24 -29.5 39t-46 22.5t-54.5 7.5q-43 0 -88 -7.5t-75 -19.5l-68 -478h-22l70 497q92 31 187 31q32 -1 62.5 -9.5t52.5 -26.5t33 -46q8 -18 8 -42q0 -12 -2 -25l-57 -401q-10 -71 -52 -109.5t-104 -43.5l3 22q54 5 88.5 37t42.5 94l57 401
q1 9 1 18z" />
    <glyph glyph-name="Omacron" unicode="&#x14c;" horiz-adv-x="682" 
d="M313 807h197l-3 -21h-197zM398 718q49 0 95 -12.5t79.5 -37.5t51.5 -62q12 -27 12 -60q0 -14 -2 -28l-45 -327q-7 -50 -35 -87.5t-68.5 -63t-90 -38t-98.5 -12.5q-50 0 -95 12.5t-78.5 38t-51.5 63.5q-12 26 -12 59q0 14 2 28l45 327q7 50 34 87.5t67 62.5t89.5 37.5
t100.5 12.5zM85 167q0 -29 11 -53q16 -33 46.5 -55t71.5 -33t86 -11t89.5 11t81 33t62 55t31.5 77l45 327q2 13 2 24q0 31 -12 56q-16 33 -47 54.5t-72.5 31.5t-86.5 10t-89 -10.5t-80 -32t-61 -54.5t-31 -79l-45 -327q-2 -12 -2 -24z" />
    <glyph glyph-name="omacron" unicode="&#x14d;" horiz-adv-x="495" 
d="M200 627h197l-3 -21h-197zM279 529q33 0 64 -10t53.5 -28.5t33.5 -46.5q9 -20 9 -45q0 -10 -2 -22l-32 -235q-5 -38 -24.5 -66.5t-47.5 -47t-61.5 -28.5t-66.5 -10q-34 0 -65 10t-53.5 28.5t-34.5 47.5q-8 19 -8 44q0 10 2 22l32 235q5 38 24.5 66.5t47.5 47t61.5 28.5
t67.5 10zM276 506q-29 0 -58 -7.5t-54 -23t-42.5 -40t-21.5 -58.5l-32 -235q-2 -11 -2 -20q0 -22 8 -38q11 -25 31 -41t47 -23.5t56 -7.5q28 0 57 7.5t54 23.5t42 40.5t22 58.5l32 235q1 9 1 18q0 23 -8 41q-10 24 -30 39.5t-47 23t-55 7.5z" />
    <glyph glyph-name="Ohungarumlaut" unicode="&#x150;" horiz-adv-x="682" 
d="M487 756h-22l66 110h30zM421 866l-87 -103h-25l77 103h35zM398 718q49 0 95 -12.5t79.5 -37.5t51.5 -62q12 -27 12 -60q0 -14 -2 -28l-45 -327q-7 -50 -35 -87.5t-68.5 -63t-90 -38t-98.5 -12.5q-50 0 -95 12.5t-78.5 38t-51.5 63.5q-12 26 -12 59q0 14 2 28l45 327
q7 50 34 87.5t67 62.5t89.5 37.5t100.5 12.5zM85 167q0 -29 11 -53q16 -33 46.5 -55t71.5 -33t86 -11t89.5 11t81 33t62 55t31.5 77l45 327q2 13 2 24q0 31 -12 56q-16 33 -47 54.5t-72.5 31.5t-86.5 10t-89 -10.5t-80 -32t-61 -54.5t-31 -79l-45 -327q-2 -12 -2 -24z" />
    <glyph glyph-name="ohungarumlaut" unicode="&#x151;" horiz-adv-x="495" 
d="M359 575h-22l66 110h30zM293 685l-87 -103h-25l77 103h35zM279 529q33 0 64 -10t53.5 -28.5t33.5 -46.5q9 -20 9 -45q0 -10 -2 -22l-32 -235q-5 -38 -24.5 -66.5t-47.5 -47t-61.5 -28.5t-66.5 -10q-34 0 -65 10t-53.5 28.5t-34.5 47.5q-8 19 -8 44q0 10 2 22l32 235
q5 38 24.5 66.5t47.5 47t61.5 28.5t67.5 10zM276 506q-29 0 -58 -7.5t-54 -23t-42.5 -40t-21.5 -58.5l-32 -235q-2 -11 -2 -20q0 -22 8 -38q11 -25 31 -41t47 -23.5t56 -7.5q28 0 57 7.5t54 23.5t42 40.5t22 58.5l32 235q1 9 1 18q0 23 -8 41q-10 24 -30 39.5t-47 23
t-55 7.5z" />
    <glyph glyph-name="OE" unicode="&#x152;" horiz-adv-x="934" 
d="M288 -10q-48 0 -92 15t-76.5 42.5t-49.5 66.5q-11 27 -11 60q0 13 2 28l43 314q7 49 33 87t65 63.5t88.5 38.5t102.5 13q31 0 72.5 -12.5t76.5 -44.5l7 47h389l-3 -23h-365l-45 -320h334l-4 -24h-334l-44 -317h365l-3 -24h-389l6 41q-43 -25 -87 -38t-81 -13zM396 694h-5
q-45 0 -89 -10.5t-80.5 -32.5t-61.5 -55.5t-31 -79.5l-43 -314q-2 -12 -2 -24q0 -30 12 -55q15 -35 45 -59t70.5 -36.5t85.5 -12.5q38 0 80 15.5t82 37.5l81 573q-34 26 -72 40q-36 13 -72 13z" />
    <glyph glyph-name="oe" unicode="&#x153;" horiz-adv-x="813" 
d="M403 121q0 -25 9 -43q12 -23 32.5 -37.5t47 -21.5t54.5 -7q41 0 81.5 14.5t66.5 47.5l16 -10q-30 -36 -75 -55t-92 -19q-27 0 -52.5 6t-46.5 18.5t-36 30.5t-21 42q-13 -24 -33 -42t-44.5 -30t-51 -18.5t-53.5 -6.5q-34 0 -65 10t-53.5 28.5t-34.5 47.5q-8 19 -8 44
q0 10 2 22l32 234q5 38 23.5 66.5t46 47.5t61.5 28.5t70 9.5q27 0 53 -6.5t47 -19t36 -32t20 -44.5q14 25 34.5 43.5t44.5 31t50.5 18.5t53.5 6q33 0 63.5 -9t52.5 -28.5t34 -49.5q7 -19 7 -43q0 -12 -2 -26q-6 -40 -25 -70t-46.5 -50t-61 -30t-68.5 -10t-74.5 7t-78.5 27
l-15 -109q-1 -7 -1 -13zM575 229q31 0 60.5 8t54 25t41 43.5t22.5 63.5q2 11 2 22q0 21 -7 38q-10 26 -29.5 43t-46.5 25.5t-57 8.5t-60 -8.5t-55 -26t-42 -44t-22 -61.5l-14 -102q40 -19 73 -27t80 -8zM276 505q-29 0 -58 -7.5t-54 -23t-42.5 -40t-21.5 -58.5l-32 -234
q-2 -11 -2 -20q0 -22 8 -38q11 -25 31 -41t47 -23.5t56 -7.5q28 0 57 7.5t54 23.5t42 40.5t22 58.5l32 234q1 9 1 18q0 23 -8 40q-10 25 -30 40.5t-47 23t-55 7.5z" />
    <glyph glyph-name="Racute" unicode="&#x154;" horiz-adv-x="608" 
d="M426 862l-87 -103h-25l77 103h35zM399 708q46 0 84.5 -10t64.5 -32.5t38 -59.5q8 -24 8 -56q0 -16 -2 -34q-8 -55 -29.5 -93t-53.5 -62t-74 -34.5t-90 -10.5h-38l195 -316h-29l-194 316h-161l-44 -316h-24l99 708h250zM348 338q97 0 151.5 41.5t68.5 135.5q3 20 3 37
q0 25 -6 44q-10 33 -33.5 53t-57.5 29q-31 7 -68 7h-9h-227l-49 -347h227z" />
    <glyph glyph-name="racute" unicode="&#x155;" horiz-adv-x="294" 
d="M322 682l-87 -103h-25l77 103h35zM268 528q10 0 19 -1t19 -2l-3 -21q-14 2 -33 2q-3 1 -5 1q-17 0 -30 -4q-44 -11 -81 -42.5t-45 -83.5l-52 -377h-22l52 377q4 30 18 55t34 44t46 31.5t54 17.5q16 3 29 3z" />
    <glyph glyph-name="Rcommaaccent" unicode="&#x156;" horiz-adv-x="608" 
d="M189 -247h-22l71 149h33zM399 708q46 0 84.5 -10t64.5 -32.5t38 -59.5q8 -24 8 -56q0 -16 -2 -34q-8 -55 -29.5 -93t-53.5 -62t-74 -34.5t-90 -10.5h-38l195 -316h-29l-194 316h-161l-44 -316h-24l99 708h250zM348 338q97 0 151.5 41.5t68.5 135.5q3 20 3 37q0 25 -6 44
q-10 33 -33.5 53t-57.5 29q-31 7 -68 7h-9h-227l-49 -347h227z" />
    <glyph glyph-name="rcommaaccent" unicode="&#x157;" horiz-adv-x="294" 
d="M-13 -247h-22l71 149h33zM268 528q10 0 19 -1t19 -2l-3 -21q-14 2 -33 2q-3 1 -5 1q-17 0 -30 -4q-44 -11 -81 -42.5t-45 -83.5l-52 -377h-22l52 377q4 30 18 55t34 44t46 31.5t54 17.5q16 3 29 3z" />
    <glyph glyph-name="Rcaron" unicode="&#x158;" horiz-adv-x="608" 
d="M269 854h28l58 -79l84 79h30l-100 -94h-28zM399 708q46 0 84.5 -10t64.5 -32.5t38 -59.5q8 -24 8 -56q0 -16 -2 -34q-8 -55 -29.5 -93t-53.5 -62t-74 -34.5t-90 -10.5h-38l195 -316h-29l-194 316h-161l-44 -316h-24l99 708h250zM348 338q97 0 151.5 41.5t68.5 135.5
q3 20 3 37q0 25 -6 44q-10 33 -33.5 53t-57.5 29q-31 7 -68 7h-9h-227l-49 -347h227z" />
    <glyph glyph-name="rcaron" unicode="&#x159;" horiz-adv-x="295" 
d="M165 674h28l58 -79l84 79h30l-100 -94h-28zM268 528q10 0 19 -1t19 -2l-3 -21q-14 2 -33 2q-3 1 -5 1q-17 0 -30 -4q-44 -11 -81 -42.5t-45 -83.5l-52 -377h-22l52 377q4 30 18 55t34 44t46 31.5t54 17.5q16 3 29 3z" />
    <glyph glyph-name="Sacute" unicode="&#x15a;" horiz-adv-x="577" 
d="M409 862l-87 -103h-25l77 103h35zM114 514q0 -19 7 -36q12 -29 38.5 -49t63.5 -33t79 -22t83.5 -23t72 -38t44.5 -60q9 -20 9 -46q0 -20 -5 -42q-9 -43 -33.5 -75.5t-60 -54.5t-79 -33.5t-90.5 -11.5q-66 0 -125.5 27t-91.5 87l25 10q27 -50 80.5 -75t116.5 -25
q37 0 73.5 9t68 27.5t55 47t34.5 67.5q4 20 4 38q0 23 -7 41q-13 31 -40.5 51.5t-65 33t-77.5 21.5q-39 8 -78.5 21t-69.5 35t-45 56q-10 22 -10 49q0 17 3 35q7 44 31 76.5t58.5 53.5t76.5 31.5t86 10.5q69 0 124 -25.5t81 -83.5l-25 -9q-11 24 -29.5 41.5t-43 29.5
t-53 17.5t-58.5 5.5q-38 0 -74 -8t-66.5 -26t-52.5 -46t-30 -68q-4 -17 -4 -32z" />
    <glyph glyph-name="sacute" unicode="&#x15b;" horiz-adv-x="429" 
d="M332 684l-87 -103h-25l77 103h35zM179 12h8q20 0 44.5 7t46.5 21.5t38 36t20 51.5q1 9 1 17q0 20 -7 35q-9 22 -26 37t-40 24t-45 14q-28 5 -56 14.5t-50 25.5t-33 40q-9 17 -9 39q0 9 2 20q5 34 22.5 59t42 41.5t54.5 25t60 8.5q38 0 72 -13t55 -36l-16 -15
q-19 21 -50.5 32.5t-64.5 11.5q-26 0 -51 -7t-46 -21t-36.5 -35.5t-20.5 -50.5q-1 -8 -1 -15q0 -23 9 -39q13 -21 33.5 -34t45 -19.5t45.5 -10.5q27 -5 52.5 -15.5t45 -28t28.5 -43.5q7 -18 7 -41q0 -10 -1 -20q-5 -33 -21.5 -58t-40.5 -42.5t-53.5 -27t-58.5 -10.5h-9
q-48 0 -87 20q-43 23 -69 66l20 13q26 -40 64 -59q34 -18 76 -18z" />
    <glyph glyph-name="Scedilla" unicode="&#x15e;" horiz-adv-x="577" 
d="M341 694q-38 0 -74 -8t-66.5 -26t-52.5 -46t-30 -68q-4 -17 -4 -32q0 -19 7 -36q12 -29 38.5 -49t63.5 -33t79 -22t83.5 -23t72 -38t44.5 -60q9 -20 9 -46q0 -20 -5 -42q-8 -40 -30 -71t-54 -53t-71.5 -34.5t-82.5 -15.5l-34 -59q42 0 58 -22q10 -14 10 -32q0 -10 -3 -22
q-7 -25 -35 -44q-24 -18 -63 -18h-8q-17 1 -33.5 7t-30.5 14l6 18q14 -8 28 -13t31 -6h8q32 0 50 14q20 16 26 35q3 8 3 15q0 16 -14 28q-15 12 -44 12q-9 0 -19 -1l43 73h-4q-66 0 -125.5 27t-91.5 87l25 10q27 -50 80.5 -75t116.5 -25q37 0 73.5 9t68 27.5t55 47
t34.5 67.5q4 20 4 38q0 23 -7 41q-13 31 -40.5 51.5t-65 33t-77.5 21.5q-39 8 -78.5 21t-69.5 35t-45 56q-10 22 -10 49q0 17 3 35q7 44 31 76.5t58.5 53.5t76.5 31.5t86 10.5q69 0 124 -25.5t81 -83.5l-25 -9q-11 24 -29.5 41.5t-43 29.5t-53 17.5t-58.5 5.5z" />
    <glyph glyph-name="scedilla" unicode="&#x15f;" horiz-adv-x="429" 
d="M252 528q38 0 72 -13t55 -36l-16 -15q-19 21 -50.5 32.5t-64.5 11.5q-26 0 -51 -7t-46 -21t-36.5 -35.5t-20.5 -50.5q-1 -8 -1 -15q0 -23 9 -39q13 -21 33.5 -34t45 -19.5t45.5 -10.5q27 -5 52.5 -15.5t45 -28t28.5 -43.5q7 -18 7 -41q0 -10 -1 -20q-5 -32 -20.5 -56.5
t-38.5 -42t-51 -27.5t-56 -12l-34 -58q42 0 58 -22q10 -14 10 -32q0 -10 -3 -22q-7 -25 -35 -44q-24 -18 -63 -18h-8q-17 1 -33.5 7t-30.5 14l6 18q14 -8 28 -13t31 -6h8q32 0 50 14q20 16 26 35q3 8 3 15q0 16 -14 28q-15 12 -44 12q-9 0 -19 -1l43 73q-49 2 -88.5 23.5
t-63.5 62.5l20 13q26 -40 64 -59q34 -18 76 -18h8q20 0 44.5 7t46.5 21.5t38 36t20 51.5q1 9 1 17q0 20 -7 35q-9 22 -26 37t-40 24t-45 14q-28 5 -56 14.5t-50 25.5t-33 40q-9 17 -9 39q0 9 2 20q5 34 22.5 59t42 41.5t54.5 25t60 8.5z" />
    <glyph glyph-name="Scaron" unicode="&#x160;" horiz-adv-x="577" 
d="M252 854h28l58 -79l84 79h30l-100 -94h-28zM114 514q0 -19 7 -36q12 -29 38.5 -49t63.5 -33t79 -22t83.5 -23t72 -38t44.5 -60q9 -20 9 -46q0 -20 -5 -42q-9 -43 -33.5 -75.5t-60 -54.5t-79 -33.5t-90.5 -11.5q-66 0 -125.5 27t-91.5 87l25 10q27 -50 80.5 -75t116.5 -25
q37 0 73.5 9t68 27.5t55 47t34.5 67.5q4 20 4 38q0 23 -7 41q-13 31 -40.5 51.5t-65 33t-77.5 21.5q-39 8 -78.5 21t-69.5 35t-45 56q-10 22 -10 49q0 17 3 35q7 44 31 76.5t58.5 53.5t76.5 31.5t86 10.5q69 0 124 -25.5t81 -83.5l-25 -9q-11 24 -29.5 41.5t-43 29.5
t-53 17.5t-58.5 5.5q-38 0 -74 -8t-66.5 -26t-52.5 -46t-30 -68q-4 -17 -4 -32z" />
    <glyph glyph-name="scaron" unicode="&#x161;" horiz-adv-x="429" 
d="M175 676h28l58 -79l84 79h30l-100 -94h-28zM179 12h8q20 0 44.5 7t46.5 21.5t38 36t20 51.5q1 9 1 17q0 20 -7 35q-9 22 -26 37t-40 24t-45 14q-28 5 -56 14.5t-50 25.5t-33 40q-9 17 -9 39q0 9 2 20q5 34 22.5 59t42 41.5t54.5 25t60 8.5q38 0 72 -13t55 -36l-16 -15
q-19 21 -50.5 32.5t-64.5 11.5q-26 0 -51 -7t-46 -21t-36.5 -35.5t-20.5 -50.5q-1 -8 -1 -15q0 -23 9 -39q13 -21 33.5 -34t45 -19.5t45.5 -10.5q27 -5 52.5 -15.5t45 -28t28.5 -43.5q7 -18 7 -41q0 -10 -1 -20q-5 -33 -21.5 -58t-40.5 -42.5t-53.5 -27t-58.5 -10.5h-9
q-48 0 -87 20q-43 23 -69 66l20 13q26 -40 64 -59q34 -18 76 -18z" />
    <glyph glyph-name="Tcommaaccent" unicode="&#x162;" horiz-adv-x="536" 
d="M147 -247h-22l71 149h33zM71 0zM568 683h-236l-95 -683h-25l95 683h-236l4 25h497z" />
    <glyph glyph-name="tcommaaccent" unicode="&#x163;" horiz-adv-x="250" 
d="M144 633l-16 -115h112l-2 -20h-112l-49 -357q-5 -34 5 -58t28.5 -39.5t41.5 -23t46 -7.5l-3 -21q-32 0 -59.5 10t-47 29.5t-29 47t-4.5 62.5l68 492h21zM31 0zM53 -247h-22l71 149h33z" />
    <glyph glyph-name="Tcaron" unicode="&#x164;" horiz-adv-x="536" 
d="M247 854h28l58 -79l84 79h30l-100 -94h-28zM568 683h-236l-95 -683h-25l95 683h-236l4 25h497z" />
    <glyph glyph-name="tcaron" unicode="&#x165;" horiz-adv-x="250" 
d="M237 599h-22l51 109h28zM75 119q0 -20 7 -36q10 -24 28.5 -39.5t41.5 -23t46 -7.5l-3 -21q-32 0 -59.5 10t-47 29.5t-28.5 46.5q-7 19 -7 40q0 11 2 23l68 492h21l-16 -115h112l-2 -20h-112l-49 -357q-2 -11 -2 -22z" />
    <glyph glyph-name="Tbar" unicode="&#x166;" horiz-adv-x="540" 
d="M385 360l-3 -19h-96l-48 -341h-25l48 341h-96l3 19h96l45 323h-236l4 25h497l-4 -25h-236l-45 -323h96z" />
    <glyph glyph-name="tbar" unicode="&#x167;" horiz-adv-x="253" 
d="M78 121q0 -22 8 -39q11 -24 29.5 -40t41.5 -23.5t44 -7.5l-3 -21q-32 0 -59.5 10.5t-47 30t-29.5 47.5q-6 18 -6 40q0 11 2 23l23 167h-52l2 18h52l43 307h21l-16 -115h112l-3 -22h-112l-23 -170h83l-2 -18h-83l-23 -167q-2 -11 -2 -20z" />
    <glyph glyph-name="Umacron" unicode="&#x16a;" horiz-adv-x="672" 
d="M304 807h197l-3 -21h-197zM95 168q0 -29 10 -53q14 -34 42.5 -56.5t67 -33.5t80.5 -11t83.5 11t76 33.5t59 56.5t30.5 79l72 514h25l-72 -514q-7 -51 -34 -89t-65.5 -63.5t-85 -38.5t-92.5 -13q-47 0 -89.5 13t-74 38.5t-47.5 63.5q-11 26 -11 59q0 14 2 30l72 514h25
l-72 -514q-2 -14 -2 -26z" />
    <glyph glyph-name="umacron" unicode="&#x16b;" 
d="M203 627h197l-3 -21h-197zM53 119q0 10 2 22l52 377h22l-52 -377q-2 -10 -2 -19q0 -20 8 -37q11 -24 30.5 -40.5t45.5 -24.5t53 -8q41 0 86.5 8t77.5 21l66 477h22l-69 -496q-94 -32 -186 -32q-33 1 -63 10.5t-52 28.5t-33 47q-8 19 -8 43z" />
    <glyph glyph-name="Uring" unicode="&#x16e;" horiz-adv-x="672" 
d="M421 910q25 0 40.5 -11.5t21.5 -28.5q5 -13 5 -27q0 -5 -1 -11q-2 -20 -12.5 -37.5t-29 -29t-44.5 -11.5q-25 0 -41 11.5t-23 28.5q-4 14 -4 29v9q2 20 12.5 37.5t29.5 29t46 11.5zM418 890q-29 0 -44.5 -18t-18.5 -40v-8q0 -17 10 -32q11 -18 37 -18q28 0 44.5 18
t19.5 40q1 5 1 9q0 17 -10 31q-11 18 -39 18zM95 168q0 -29 10 -53q14 -34 42.5 -56.5t67 -33.5t80.5 -11t83.5 11t76 33.5t59 56.5t30.5 79l72 514h25l-72 -514q-7 -51 -34 -89t-65.5 -63.5t-85 -38.5t-92.5 -13q-47 0 -89.5 13t-74 38.5t-47.5 63.5q-11 26 -11 59
q0 14 2 30l72 514h25l-72 -514q-2 -14 -2 -26z" />
    <glyph glyph-name="uring" unicode="&#x16f;" 
d="M320 730q25 0 40.5 -11.5t21.5 -28.5q5 -13 5 -27q0 -5 -1 -11q-2 -20 -12.5 -37.5t-29 -29t-44.5 -11.5q-25 0 -41 11.5t-23 28.5q-4 14 -4 29v9q2 20 12.5 37.5t29.5 29t46 11.5zM317 710q-29 0 -44.5 -18t-18.5 -40v-8q0 -17 10 -32q11 -18 37 -18q28 0 44.5 18
t19.5 40q1 5 1 9q0 17 -10 31q-11 18 -39 18zM53 119q0 10 2 22l52 377h22l-52 -377q-2 -10 -2 -19q0 -20 8 -37q11 -24 30.5 -40.5t45.5 -24.5t53 -8q41 0 86.5 8t77.5 21l66 477h22l-69 -496q-94 -32 -186 -32q-33 1 -63 10.5t-52 28.5t-33 47q-8 19 -8 43z" />
    <glyph glyph-name="Uhungarumlaut" unicode="&#x170;" horiz-adv-x="672" 
d="M478 756h-22l66 110h30zM412 866l-87 -103h-25l77 103h35zM95 168q0 -29 10 -53q14 -34 42.5 -56.5t67 -33.5t80.5 -11t83.5 11t76 33.5t59 56.5t30.5 79l72 514h25l-72 -514q-7 -51 -34 -89t-65.5 -63.5t-85 -38.5t-92.5 -13q-47 0 -89.5 13t-74 38.5t-47.5 63.5
q-11 26 -11 59q0 14 2 30l72 514h25l-72 -514q-2 -14 -2 -26z" />
    <glyph glyph-name="uhungarumlaut" unicode="&#x171;" 
d="M359 573h-22l66 110h30zM293 683l-87 -103h-25l77 103h35zM53 119q0 10 2 22l52 377h22l-52 -377q-2 -10 -2 -19q0 -20 8 -37q11 -24 30.5 -40.5t45.5 -24.5t53 -8q41 0 86.5 8t77.5 21l66 477h22l-69 -496q-94 -32 -186 -32q-33 1 -63 10.5t-52 28.5t-33 47q-8 19 -8 43
z" />
    <glyph glyph-name="Uogonek" unicode="&#x172;" horiz-adv-x="672" 
d="M294 -135q0 -7 1 -14q4 -26 31 -33q5 -1 11 -1q23 0 53 19l4 -15q-19 -14 -40 -21q-14 -4 -26 -4q-6 0 -11 1q-17 3 -29.5 14.5t-15.5 33.5q-1 7 -1 15q0 27 14 55q18 36 76 83q-15 -5 -35.5 -6.5t-34.5 -1.5q-47 0 -89.5 13t-73.5 38.5t-47 63.5q-11 26 -11 59
q0 14 2 30l72 514h25l-72 -514q-2 -14 -2 -26q0 -29 10 -53q14 -34 42 -56.5t66.5 -33.5t80.5 -11t83.5 11t76.5 33.5t59.5 56.5t30.5 79l72 514h25l-72 -515q-5 -36 -21.5 -64.5t-39 -51t-49.5 -40.5t-53 -32q-15 -8 -36 -23.5t-39 -36t-29 -44.5q-8 -18 -8 -36z" />
    <glyph glyph-name="uogonek" unicode="&#x173;" horiz-adv-x="516" 
d="M324 -204q-6 0 -11 1q-17 3 -29.5 14.5t-15.5 33.5v8q0 13 4 27q6 20 18.5 41.5t30.5 44.5t40 46q-38 -11 -76 -16.5t-76 -5.5q-33 0 -63 9.5t-52 28.5t-33 48q-8 19 -8 43q0 10 2 22l53 377h22l-53 -377q-2 -10 -2 -19q0 -20 8 -37q11 -24 30.5 -40.5t45.5 -24.5t53 -8
q41 0 87 8t77 21l67 477h22l-69 -496q-62 -63 -86 -104q-20 -35 -20 -58q0 -5 1 -9q5 -26 31 -33q6 -1 12 -1q22 0 52 19l4 -15q-19 -14 -40 -21q-14 -4 -26 -4z" />
    <glyph glyph-name="Wcircumflex" unicode="&#x174;" horiz-adv-x="925" 
d="M627 755h-28l-58 79l-84 -79h-30l100 94h28zM957 708l-306 -708h-44l-105 578l-269 -578h-45l-107 708h27l104 -681h5l270 575h35l107 -577h6l295 683h27z" />
    <glyph glyph-name="wcircumflex" unicode="&#x175;" horiz-adv-x="711" 
d="M497 575h-28l-58 79l-84 -79h-30l100 94h28zM141 0l-81 518h27l75 -493h3l200 493h39l61 -492h3l216 492h27l-227 -518h-41l-61 490h-2l-197 -490h-42z" />
    <glyph glyph-name="Ycircumflex" unicode="&#x176;" horiz-adv-x="547" 
d="M448 755h-28l-58 79l-84 -79h-30l100 94h28zM242 0h-25l39 281l-182 427h30l169 -399l288 399h31l-311 -427z" />
    <glyph glyph-name="ycircumflex" unicode="&#x177;" horiz-adv-x="515" 
d="M397 575h-28l-58 79l-84 -79h-30l100 94h28zM186 -209q-42 0 -77.5 12.5t-60.5 36.5l16 16q26 -23 55 -33t71 -10q27 0 55 7.5t52 22.5t41 38t22 55l14 94q-48 -22 -86.5 -31t-73.5 -9q-34 0 -65 9.5t-53.5 28.5t-33.5 47q-9 20 -9 43q0 11 2 22l52 378h23l-52 -378
q-2 -11 -2 -21q0 -19 6 -35q10 -23 29 -39t45.5 -24.5t56.5 -9.5q24 0 42.5 2.5t37 7t38.5 12t46 19.5l65 466h22l-82 -581q-5 -38 -24 -65.5t-46 -45.5t-60 -26.5t-66 -8.5z" />
    <glyph glyph-name="Ydieresis" unicode="&#x178;" horiz-adv-x="547" 
d="M270 833q10 0 16 -7t4 -17t-9.5 -17t-17.5 -7t-16.5 7t-4.5 17t10 17t18 7zM450 833q10 0 16 -7t4 -17t-9.5 -17t-17.5 -7t-16.5 7t-4.5 17t10 17t18 7zM242 0h-25l39 281l-182 427h30l169 -399l288 399h31l-311 -427z" />
    <glyph glyph-name="Zacute" unicode="&#x179;" horiz-adv-x="546" 
d="M414 862l-87 -103h-25l77 103h35zM104 708h460l7 -13l-549 -673h441l-3 -22h-465l-9 12l550 674h-435z" />
    <glyph glyph-name="zacute" unicode="&#x17a;" horiz-adv-x="436" 
d="M341 672l-87 -103h-25l77 103h35zM81 518h335l8 -17l-405 -480h334l-2 -21h-345l-12 21l401 477h-317z" />
    <glyph glyph-name="Zdotaccent" unicode="&#x17b;" horiz-adv-x="546" 
d="M350 832q11 0 18 -8t5 -20q-2 -11 -10.5 -19t-19.5 -8t-18.5 8t-5.5 19q2 12 11 20t20 8zM104 708h460l7 -13l-549 -673h441l-3 -22h-465l-9 12l550 674h-435z" />
    <glyph glyph-name="zdotaccent" unicode="&#x17c;" horiz-adv-x="436" 
d="M277 642q11 0 18 -8t5 -20q-2 -11 -10.5 -19t-19.5 -8t-18.5 8t-5.5 19q2 12 11 20t20 8zM81 518h335l8 -17l-405 -480h334l-2 -21h-345l-12 21l401 477h-317z" />
    <glyph glyph-name="Zcaron" unicode="&#x17d;" horiz-adv-x="546" 
d="M257 854h28l58 -79l84 79h30l-100 -94h-28zM104 708h460l7 -13l-549 -673h441l-3 -22h-465l-9 12l550 674h-435z" />
    <glyph glyph-name="zcaron" unicode="&#x17e;" horiz-adv-x="436" 
d="M184 664h28l58 -79l84 79h30l-100 -94h-28zM81 518h335l8 -17l-405 -480h334l-2 -21h-345l-12 21l401 477h-317z" />
    <glyph glyph-name="florin" unicode="&#x192;" horiz-adv-x="347" 
d="M329 696q-23 0 -40 -8t-29 -21.5t-19 -30.5t-10 -35l-35 -199h113l-4 -20h-114l-74 -399q-14 -56 -42 -83t-84 -27l4 24q10 0 24.5 2.5t28.5 11t26.5 25.5t18.5 46l72 400h-111l5 20h111l36 197q5 23 14 44.5t23.5 38t35.5 26.5t50 10q13 0 25 -2.5t24 -7.5l-9 -21
q-8 3 -19.5 6t-20.5 3z" />
    <glyph glyph-name="Scommaaccent" unicode="&#x218;" horiz-adv-x="577" 
d="M180 -247h-22l71 149h33zM114 514q0 -19 7 -36q12 -29 38.5 -49t63.5 -33t79 -22t83.5 -23t72 -38t44.5 -60q9 -20 9 -46q0 -20 -5 -42q-9 -43 -33.5 -75.5t-60 -54.5t-79 -33.5t-90.5 -11.5q-66 0 -125.5 27t-91.5 87l25 10q27 -50 80.5 -75t116.5 -25q37 0 73.5 9
t68 27.5t55 47t34.5 67.5q4 20 4 38q0 23 -7 41q-13 31 -40.5 51.5t-65 33t-77.5 21.5q-39 8 -78.5 21t-69.5 35t-45 56q-10 22 -10 49q0 17 3 35q7 44 31 76.5t58.5 53.5t76.5 31.5t86 10.5q69 0 124 -25.5t81 -83.5l-25 -9q-11 24 -29.5 41.5t-43 29.5t-53 17.5t-58.5 5.5
q-38 0 -74 -8t-66.5 -26t-52.5 -46t-30 -68q-4 -17 -4 -32z" />
    <glyph glyph-name="scommaaccent" unicode="&#x219;" horiz-adv-x="429" 
d="M104 -247h-22l71 149h33zM179 12h8q20 0 44.5 7t46.5 21.5t38 36t20 51.5q1 9 1 17q0 20 -7 35q-9 22 -26 37t-40 24t-45 14q-28 5 -56 14.5t-50 25.5t-33 40q-9 17 -9 39q0 9 2 20q5 34 22.5 59t42 41.5t54.5 25t60 8.5q38 0 72 -13t55 -36l-16 -15q-19 21 -50.5 32.5
t-64.5 11.5q-26 0 -51 -7t-46 -21t-36.5 -35.5t-20.5 -50.5q-1 -8 -1 -15q0 -23 9 -39q13 -21 33.5 -34t45 -19.5t45.5 -10.5q27 -5 52.5 -15.5t45 -28t28.5 -43.5q7 -18 7 -41q0 -10 -1 -20q-5 -33 -21.5 -58t-40.5 -42.5t-53.5 -27t-58.5 -10.5h-9q-48 0 -87 20
q-43 23 -69 66l20 13q26 -40 64 -59q34 -18 76 -18z" />
    <glyph glyph-name="uni021A" unicode="&#x21a;" horiz-adv-x="536" 
d="M147 -247h-22l71 149h33zM568 683h-236l-95 -683h-25l95 683h-236l4 25h497z" />
    <glyph glyph-name="uni021B" unicode="&#x21b;" horiz-adv-x="250" 
d="M53 -247h-22l71 149h33zM75 119q0 -20 7 -36q10 -24 28.5 -39.5t41.5 -23t46 -7.5l-3 -21q-32 0 -59.5 10t-47 29.5t-28.5 46.5q-7 19 -7 40q0 11 2 23l68 492h21l-16 -115h112l-2 -20h-112l-49 -357q-2 -11 -2 -22z" />
    <glyph glyph-name="circumflex" unicode="&#x2c6;" horiz-adv-x="280" 
d="M248 755h-28l-58 79l-84 -79h-30l100 94h28z" />
    <glyph glyph-name="caron" unicode="&#x2c7;" horiz-adv-x="278" 
d="M65 854h28l58 -79l84 79h30l-100 -94h-28z" />
    <glyph glyph-name="uni02C9" unicode="&#x2c9;" horiz-adv-x="267" 
d="M58 807h197l-3 -21h-197z" />
    <glyph glyph-name="breve" unicode="&#x2d8;" horiz-adv-x="255" 
d="M124 777q-33 0 -60 19.5t-30 57.5h23q4 -28 24 -41.5t45 -13.5t48 13.5t37 41.5h23q-15 -38 -46 -57.5t-64 -19.5z" />
    <glyph glyph-name="dotaccent" unicode="&#x2d9;" horiz-adv-x="240" 
d="M159 832q13 0 21 -9q6 -8 6 -18v-5q-2 -13 -12.5 -22.5t-23.5 -9.5t-22 9q-6 8 -6 18q0 16 13 28q11 9 24 9z" />
    <glyph glyph-name="ring" unicode="&#x2da;" horiz-adv-x="239" 
d="M132 908q25 0 40.5 -11.5t21.5 -28.5q5 -13 5 -27q0 -5 -1 -11q-2 -20 -12.5 -37.5t-29 -29t-44.5 -11.5q-25 0 -41 11.5t-23 28.5q-4 14 -4 29v9q2 20 12.5 37.5t29.5 29t46 11.5zM129 888q-29 0 -44.5 -18t-18.5 -40v-8q0 -17 10 -32q11 -18 37 -18q28 0 44.5 18
t19.5 40q1 5 1 9q0 17 -10 31q-11 18 -39 18z" />
    <glyph glyph-name="ogonek" unicode="&#x2db;" horiz-adv-x="229" 
d="M100 -204q-6 0 -12 1q-17 3 -29.5 14.5t-15.5 33.5q-1 7 -1 14q0 28 16 57q21 36 66 84h23q-27 -29 -44 -51.5t-26 -40t-11 -31.5t0 -26q5 -26 31 -33q6 -1 12 -1q22 0 52 19l4 -16q-19 -14 -39 -20q-13 -4 -26 -4z" />
    <glyph glyph-name="tilde" unicode="&#x2dc;" horiz-adv-x="271" 
d="M124 843q15 0 27 -7.5t22.5 -16.5t20.5 -16.5t22 -7.5q16 0 26 8.5t18 23.5l15 -6q-8 -18 -23.5 -33t-38.5 -15q-15 0 -26.5 7.5t-22 17t-21 17t-23.5 7.5q-30 0 -49 -34l-14 6q9 20 26.5 34.5t40.5 14.5z" />
    <glyph glyph-name="hungarumlaut" unicode="&#x2dd;" horiz-adv-x="239" 
d="M205 756h-22l66 110h30zM139 866l-87 -103h-25l77 103h35z" />
    <glyph glyph-name="uni0326" unicode="&#x326;" horiz-adv-x="0" 
d="M128 -247h-22l71 149h33z" />
    <glyph glyph-name="uni03A9" unicode="&#x3a9;" horiz-adv-x="764" 
d="M74 316q0 30 5 62q10 73 44 133.5t83.5 103.5t111.5 66.5t128 23.5q69 0 122.5 -26t88 -70.5t48.5 -102.5q9 -36 9 -74q0 -25 -4 -50q-8 -54 -29 -104.5t-51 -94.5t-67.5 -81t-77.5 -65h190l-3 -22h-241l1 12q45 25 87.5 63t77 84.5t57.5 99.5t31 108q3 20 3 40
q0 33 -8 66q-11 54 -41.5 97t-79.5 70t-117 27q-64 0 -121 -23t-102 -64t-75.5 -96.5t-39.5 -121.5q-4 -28 -4 -54q0 -30 5 -57q9 -51 30.5 -94.5t54 -79.5t70.5 -64l-1 -12h-243l3 21h194l-32 30q-27 25 -49 57t-36.5 71t-19.5 85q-2 18 -2 36z" />
    <glyph glyph-name="uni03BC" unicode="&#x3bc;" horiz-adv-x="523" 
d="M85 152q0 -10 1 -20q2 -30 13.5 -55t35.5 -41.5t65 -16.5q37 0 71 13.5t61 40.5t46 66.5t27 91.5l40 287h24l-69 -518h-22l19 137q-16 -39 -39 -65t-50 -42t-55 -23q-19 -5 -55 -7q-20 0 -40.5 4t-38 15t-30 29.5t-16.5 47.5l-42 -307h-22l102 729h23l-46 -328
q-3 -19 -3 -38z" />
    <glyph glyph-name="pi" unicode="&#x3c0;" horiz-adv-x="538" 
d="M365 51q0 21 5 55l55 387h-242l-69 -486h-21l69 486q-26 0 -42.5 -1t-28 -3t-21 -4.5t-21.5 -5.5l-1 19q18 7 45 11.5t68 4.5h371l-4 -21h-81l-55 -387q-3 -23 -4.5 -39.5t2.5 -27.5t14 -16t31 -5l-2 -19q-26 0 -40.5 4t-21 15.5t-6.5 32.5z" />
    <glyph glyph-name="uni0401" unicode="&#x401;" horiz-adv-x="564" 
d="M295 833q10 0 16 -7t4 -17t-9.5 -17t-17.5 -7t-16.5 7t-4.5 17t10 17t18 7zM475 833q10 0 16 -7t4 -17t-9.5 -17t-17.5 -7t-16.5 7t-4.5 17t10 17t18 7zM126 366h366l-4 -27h-366l-44 -314h396l-3 -25h-421l99 708h421l-4 -25h-396z" />
    <glyph glyph-name="uni0410" unicode="&#x410;" horiz-adv-x="600" 
d="M539 0h-27l-58 253h-327l-125 -253h-27l359 708h45zM450 278l-92 411h-6l-212 -411h310z" />
    <glyph glyph-name="uni0411" unicode="&#x411;" horiz-adv-x="618" 
d="M372 393q106 0 152 -50q34 -37 34 -104q0 -23 -4 -50q-8 -55 -30.5 -91.5t-55 -58t-74 -30.5t-87.5 -9h-258l100 708h429l-3 -23h-404l-41 -292h242zM321 24q37 0 70 8q37 8 65.5 28t47.5 52t25 78q3 21 3 39q0 65 -36 98q-46 42 -136 42h-234l-48 -345h234h9z" />
    <glyph glyph-name="uni0412" unicode="&#x412;" horiz-adv-x="627" 
d="M308 0h-258l99 708h259q39 0 71.5 -11t54 -33t31.5 -54q6 -20 6 -44q0 -14 -2 -30q-8 -56 -34.5 -95t-90.5 -65q42 -12 66 -32t35 -45t12 -53v-12q0 -23 -3 -45q-9 -55 -31 -91.5t-54.5 -58t-73.5 -30.5t-87 -9zM363 387q35 0 65.5 9t54.5 27t40 46t22 66q2 14 2 26
q0 21 -5 39q-9 28 -28 47t-47 28.5t-62 9.5h-234l-42 -298h234zM321 24q37 0 70 8q37 8 65.5 28t47.5 52t25 78q3 20 3 38q0 22 -5 41q-9 33 -31 54t-56.5 30.5t-79.5 9.5h-234l-48 -339h234h9z" />
    <glyph glyph-name="uni0413" unicode="&#x413;" horiz-adv-x="515" 
d="M170 683l-96 -683h-25l100 708h400l-4 -25h-375z" />
    <glyph glyph-name="uni0414" unicode="&#x414;" horiz-adv-x="678" 
d="M600 26l-26 -183h-26l22 157h-576l-22 -157h-26l26 183h25q45 6 77 39t57.5 90t46 137t41.5 180l49 236h361l-96 -682h67zM235 422q-20 -96 -40.5 -166t-43 -118t-46.5 -75.5t-51 -36.5h453l92 656h-311z" />
    <glyph glyph-name="uni0415" unicode="&#x415;" horiz-adv-x="564" 
d="M126 366h366l-4 -27h-366l-44 -314h396l-3 -25h-421l99 708h421l-4 -25h-396z" />
    <glyph glyph-name="uni0416" unicode="&#x416;" horiz-adv-x="859" 
d="M788 0h-34l-226 352l-93 -89l-37 -263h-25l37 263l-67 89l-326 -352h-34l345 372l-256 336l38 -1l306 -408l57 409h25l-57 -409l420 408l38 1l-350 -336z" />
    <glyph glyph-name="uni0417" unicode="&#x417;" horiz-adv-x="531" 
d="M313 718q39 0 71.5 -11.5t54 -34t31.5 -56.5q5 -21 5 -46q0 -16 -2 -34q-4 -28 -12 -51.5t-22.5 -43.5t-38 -36t-59.5 -29q41 -9 66 -28.5t38 -45t15 -54.5q1 -10 1 -20q0 -20 -3 -39q-8 -55 -30.5 -93t-55.5 -61.5t-74.5 -34t-87.5 -10.5q-72 0 -125 24.5t-84 77.5
l23 13q30 -47 76 -69t114 -22h8q80 0 138 41q60 43 73 135q3 20 3 38q0 23 -5 42q-9 33 -31 54t-56.5 31t-79.5 10h-87l3 21h87q35 0 65.5 9t54.5 27.5t40 46.5t22 66q2 17 2 32q0 21 -5 39q-8 30 -27 50t-47 29.5t-62 9.5q-54 0 -102 -17.5t-81 -56.5l-19 10q38 48 90 67.5
t115 19.5z" />
    <glyph glyph-name="uni0418" unicode="&#x418;" horiz-adv-x="686" 
d="M525 0l85 601l13 75h-2l-41 -53l-492 -623h-39l100 708h25l-85 -609l-13 -75h2l537 684h35l-100 -708h-25z" />
    <glyph glyph-name="uni0419" unicode="&#x419;" horiz-adv-x="686" 
d="M413 790q-63 0 -96.5 37t-34.5 94h25q4 -45 29 -75.5t80 -30.5t89 30.5t50 75.5h25q-17 -57 -60.5 -94t-106.5 -37zM525 0l84 592l14 84h-2l-57 -73l-476 -603h-39l100 708h25l-85 -609l-13 -75h2l52 67l485 617h35l-100 -708h-25z" />
    <glyph glyph-name="uni041A" unicode="&#x41a;" horiz-adv-x="589" 
d="M114 278l479 430h32l-375 -341l276 -367h-29l-267 349l-121 -106l-34 -243h-25l99 708h25z" />
    <glyph glyph-name="uni041B" unicode="&#x41b;" horiz-adv-x="660" 
d="M499 0l96 683h-309l-59 -282q-10 -46 -21 -93.5t-26 -92t-34.5 -84t-45.5 -68.5t-60 -46t-77 -17l4 25q53 0 91 33t65 86t45.5 121t33.5 138l65 305h357l-100 -708h-25z" />
    <glyph glyph-name="uni041C" unicode="&#x41c;" horiz-adv-x="796" 
d="M179 683l-9 -1l-95 -682h-25l99 708h53l172 -573l333 573h53l-99 -708h-25l96 690h-9l-337 -578h-32z" />
    <glyph glyph-name="uni041D" unicode="&#x41d;" horiz-adv-x="682" 
d="M75 0h-25l99 708h25l-48 -342h447l48 342h25l-99 -708h-25l47 341h-447z" />
    <glyph glyph-name="uni041E" unicode="&#x41e;" horiz-adv-x="682" 
d="M398 718q49 0 95 -12.5t79.5 -37.5t51.5 -62q12 -27 12 -60q0 -14 -2 -28l-45 -327q-7 -50 -35 -87.5t-68.5 -63t-90 -38t-98.5 -12.5q-50 0 -95 12.5t-78.5 38t-51.5 63.5q-12 26 -12 59q0 14 2 28l45 327q7 50 34 87.5t67 62.5t89.5 37.5t100.5 12.5zM85 167
q0 -29 11 -53q16 -33 46.5 -55t71.5 -33t86 -11t89.5 11t81 33t62 55t31.5 77l45 327q2 13 2 24q0 31 -12 56q-16 33 -47 54.5t-72.5 31.5t-86.5 10t-89 -10.5t-80 -32t-61 -54.5t-31 -79l-45 -327q-2 -12 -2 -24z" />
    <glyph glyph-name="uni041F" unicode="&#x41f;" horiz-adv-x="674" 
d="M74 0h-25l100 708h489l-100 -708h-25l96 683h-439z" />
    <glyph glyph-name="uni0420" unicode="&#x420;" horiz-adv-x="601" 
d="M588 523q0 -15 -2 -30q-6 -39 -24.5 -76.5t-50 -67.5t-74.5 -48.5t-97 -18.5h-226l-39 -282h-25l99 708h250q54 -1 92 -20t61 -49.5t31 -68.5q5 -23 5 -47zM343 307q45 0 83 16.5t66.5 42.5t46 59.5t22.5 68.5q2 13 2 27q0 21 -5 42q-8 34 -29 61t-54.5 44t-78.5 17h-225
l-53 -378h225z" />
    <glyph glyph-name="uni0421" unicode="&#x421;" horiz-adv-x="590" 
d="M386 718q33 0 65 -6.5t59.5 -19t48.5 -32t33 -44.5l-24 -16q-22 46 -74.5 70t-113.5 24q-41 0 -83 -11.5t-76.5 -34.5t-58.5 -56.5t-30 -76.5l-46 -327q-2 -13 -2 -24q0 -29 11 -52q15 -32 43.5 -54t67 -32.5t79.5 -10.5q30 0 60.5 5.5t58.5 16.5t52 27.5t42 39.5l21 -11
q-20 -26 -46.5 -45t-58 -32t-65.5 -19.5t-68 -6.5q-46 0 -88.5 12.5t-74 37.5t-48.5 62q-11 26 -11 58q0 13 2 28l47 332q7 49 33.5 86t65.5 62t85.5 37.5t93.5 12.5z" />
    <glyph glyph-name="uni0422" unicode="&#x422;" horiz-adv-x="536" 
d="M568 683h-236l-95 -683h-25l95 683h-236l4 25h497z" />
    <glyph glyph-name="uni0423" unicode="&#x423;" horiz-adv-x="505" 
d="M99 0l130 216l-173 492h32l114 -330l43 -131h2l273 461h29l-421 -708h-29z" />
    <glyph glyph-name="uni0424" unicode="&#x424;" horiz-adv-x="722" 
d="M686 480q0 -13 -2 -27l-28 -198q-7 -53 -36 -86t-72 -51.5t-96.5 -25t-108.5 -6.5l-13 -86h-25l13 86q-56 0 -107 6.5t-89 25t-58 51.5q-15 24 -15 60q0 12 2 26l28 198q7 53 36.5 86t72.5 51.5t96 25t109 6.5l12 86h25l-12 -86q55 0 106.5 -6.5t89.5 -25t58 -51.5
q14 -24 14 -59zM75 234q0 -32 15 -54q20 -28 56 -43.5t82.5 -20.5t92.5 -5l68 486q-46 0 -94 -5t-88 -20.5t-68 -44t-35 -74.5l-28 -198q-1 -11 -1 -21zM661 475q0 31 -15 53q-21 28 -57 43.5t-82.5 20.5t-92.5 5l-68 -486q46 0 94 5t88.5 20.5t68.5 43.5t34 75l28 198
q2 12 2 22z" />
    <glyph glyph-name="uni0425" unicode="&#x425;" horiz-adv-x="545" 
d="M476 0h-29l-170 336l-264 -336h-31l282 353l-182 355h28l172 -332l265 332h29l-283 -355z" />
    <glyph glyph-name="uni0426" unicode="&#x426;" horiz-adv-x="678" 
d="M600 26l-26 -183h-26l22 157h-523l100 708h25l-96 -682h431l96 682h26l-96 -682h67z" />
    <glyph glyph-name="uni0427" unicode="&#x427;" horiz-adv-x="602" 
d="M267 243q-45 0 -83 12.5t-64 38t-38 64.5q-8 24 -8 52q0 19 3 39l36 259h25l-36 -259q-3 -17 -3 -32q0 -27 8 -48q12 -34 36 -56.5t57.5 -33.5t69.5 -11q73 0 125 29.5t99 76.5l47 334h25l-100 -708h-25l49 342q-45 -43 -99 -71t-124 -28z" />
    <glyph glyph-name="uni0428" unicode="&#x428;" horiz-adv-x="880" 
d="M49 0l100 708h25l-96 -683h310l96 683h25l-96 -683h310l96 683h25l-100 -708h-695z" />
    <glyph glyph-name="uni0429" unicode="&#x429;" horiz-adv-x="892" 
d="M813 26l-26 -183h-25l22 157h-737l100 708h25l-96 -682h310l96 682h25l-96 -682h310l96 682h26l-96 -682h66z" />
    <glyph glyph-name="uni042A" unicode="&#x42a;" horiz-adv-x="670" 
d="M430 406q106 0 152 -52q33 -37 33 -108q0 -26 -5 -57q-8 -55 -30.5 -91.5t-55 -58t-74 -30.5t-87.5 -9h-252l97 684h-136l3 24h161l-42 -302h236zM368 24q42 0 79 8.5t65.5 28t47.5 51.5t25 78q3 24 3 45q0 24 -4 44q-8 37 -30 59.5t-56.5 33t-79.5 10.5h-228l-50 -358
h228z" />
    <glyph glyph-name="uni042B" unicode="&#x42b;" horiz-adv-x="809" 
d="M673 0h-25l99 708h25zM368 406q106 0 152 -52q33 -37 33 -108q0 -26 -5 -57q-8 -55 -30.5 -91.5t-55 -58t-74 -30.5t-87.5 -9h-252l100 708h25l-42 -302h236zM306 24q42 0 79 8.5t65.5 28t47.5 51.5t25 78q3 24 3 45q0 24 -4 44q-8 37 -30 59.5t-56.5 33t-79.5 10.5h-228
l-50 -358h228z" />
    <glyph glyph-name="uni042C" unicode="&#x42c;" horiz-adv-x="608" 
d="M368 406q106 0 152 -52q33 -37 33 -108q0 -26 -5 -57q-8 -55 -30.5 -91.5t-55 -58t-74 -30.5t-87.5 -9h-252l100 708h25l-42 -302h236zM306 24q42 0 79 8.5t65.5 28t47.5 51.5t25 78q3 24 3 45q0 24 -4 44q-8 37 -30 59.5t-56.5 33t-79.5 10.5h-228l-50 -358h228z" />
    <glyph glyph-name="uni042D" unicode="&#x42d;" horiz-adv-x="596" 
d="M324 718q50 0 93.5 -12.5t74.5 -37.5t46 -62q11 -25 11 -57q0 -14 -2 -29l-47 -332q-7 -49 -33.5 -86t-65 -62t-85 -37.5t-92.5 -12.5q-34 0 -66 6.5t-59.5 19.5t-49 32t-33.5 45l23 11q12 -23 31.5 -39.5t44.5 -27.5t54 -16.5t59 -5.5q41 0 82.5 10.5t76 32.5t58.5 54
t30 76l21 153h-338l4 27h338l22 152q2 12 2 24q0 28 -11 52q-15 33 -43.5 54.5t-67 32.5t-79.5 11q-30 0 -61.5 -6t-60 -18t-52.5 -29.5t-41 -40.5l-19 16q19 25 46 44.5t57.5 32t64.5 19t67 6.5z" />
    <glyph glyph-name="uni042E" unicode="&#x42e;" horiz-adv-x="924" 
d="M639 718q49 0 95 -12t80 -36.5t51 -62.5q12 -27 12 -60q0 -14 -2 -29l-46 -326q-7 -51 -35 -89t-68.5 -62.5t-90 -37t-98.5 -12.5q-50 0 -95.5 12.5t-79 37t-50.5 62.5q-12 27 -12 60q0 14 2 29l22 152h-203l-49 -344h-25l100 708h25l-48 -339h203l21 149q7 51 35 88.5
t68.5 62.5t89 37t98.5 12zM635 694q-45 0 -89 -10.5t-80.5 -32t-61.5 -54.5t-31 -79l-46 -326q-2 -12 -2 -23q0 -30 12 -54q16 -33 46 -55t71.5 -33t86.5 -11t89 11t81 33t62 55t31 77l46 326q2 14 2 27q0 29 -11 53q-16 33 -47 54.5t-72.5 31.5t-86.5 10z" />
    <glyph glyph-name="uni042F" unicode="&#x42f;" horiz-adv-x="621" 
d="M81 470q0 13 2 28q6 42 25 80t51 67t78.5 46t108.5 17h239l-100 -708h-25l46 309h-168l-312 -309h-32l302 306q-45 0 -86.5 12.5t-72 36.5t-45.5 60q-11 25 -11 55zM335 684q-54 0 -94.5 -16t-68 -42t-43.5 -59.5t-21 -68.5q-2 -12 -2 -24q0 -29 12 -51q15 -31 43.5 -51
t65 -29.5t71.5 -9.5h211l48 351h-222z" />
    <glyph glyph-name="uni0430" unicode="&#x430;" horiz-adv-x="511" 
d="M46 113q0 12 2 26l33 234q6 43 26.5 73t50 48t65.5 26t73 8q45 0 87 -10t74 -24l-68 -494h-21l7 59q-41 -41 -87.5 -55t-89.5 -14q-32 0 -61 8.5t-51 26.5t-33 47q-7 18 -7 41zM298 508q-34 0 -67 -7t-60 -23t-45.5 -41.5t-23.5 -62.5l-33 -235q-2 -12 -2 -24
q0 -20 6 -35q9 -25 27.5 -40.5t44.5 -22.5t55 -7q23 0 47.5 5t47.5 14t44 22t37 30l3 4l55 393q-29 14 -64.5 22t-71.5 8z" />
    <glyph glyph-name="uni0431" unicode="&#x431;" horiz-adv-x="505" 
d="M442 346q0 -10 -2 -22l-26 -183q-5 -38 -24.5 -66.5t-47.5 -47t-61.5 -28.5t-66.5 -10q-34 0 -65 10t-53.5 28.5t-33.5 46.5q-9 20 -9 45q0 10 2 22l55 392q5 37 24.5 63t47.5 42.5t60.5 25.5t64.5 12q45 5 81.5 13.5t68.5 25.5l5 -22q-35 -20 -73 -28.5t-84 -13.5
q-30 -3 -58.5 -10.5t-51.5 -21t-39 -34.5t-21 -52l-19 -125q30 26 72.5 46.5t93.5 21.5q34 0 64.5 -9.5t53 -28.5t34.5 -48q8 -19 8 -44zM279 453q-48 0 -86.5 -18.5t-81.5 -51.5l-34 -242q-2 -11 -2 -20q0 -22 8 -39q11 -24 31 -40t47 -23.5t56 -7.5q28 0 57 7.5t54 23.5
t42 40.5t22 58.5l26 183q2 11 2 21q0 21 -8 37q-10 25 -30.5 40.5t-47.5 23t-55 7.5z" />
    <glyph glyph-name="uni0432" unicode="&#x432;" horiz-adv-x="494" 
d="M299 528q43 0 71 -8.5t43 -25t19 -40.5q2 -12 2 -26t-2 -29q-4 -24 -14 -44t-24 -35t-31 -25.5t-33 -16.5q49 -10 72 -43q16 -24 16 -62q0 -15 -3 -33q-6 -41 -23 -69.5t-42 -46.5t-56.5 -26t-65.5 -8q-51 0 -98 6t-92 21l68 484q50 15 96 21t97 6zM293 507q-21 0 -40 -1
t-38.5 -3.5t-41.5 -7t-48 -11.5l-29 -200h164q25 0 50 7t46 21.5t35.5 36.5t18.5 51q2 13 2 23q0 43 -25 61q-31 23 -94 23zM214 9h14q28 0 55.5 6.5t50 22t38.5 40.5t21 63q2 16 2 29q0 44 -25 65q-32 28 -107 28h-170l-32 -231q49 -14 87 -19q32 -4 66 -4z" />
    <glyph glyph-name="uni0433" unicode="&#x433;" horiz-adv-x="444" 
d="M258 528q42 0 69.5 -9t43 -25.5t19.5 -38.5q3 -13 3 -28q0 -10 -1 -20q-4 -27 -18.5 -48.5t-38 -38t-55.5 -30t-71 -25.5q-80 -25 -117 -56.5t-44 -81.5q-2 -12 -2 -23q0 -45 26 -68q32 -27 96 -27h5q57 1 104.5 22t76.5 48l14 -13q-16 -15 -38 -29t-48 -24.5t-55 -16.5
t-59 -6q-87 0 -118 37q-25 29 -25 74q0 14 2 28q8 60 51.5 95t118.5 58q73 22 119.5 51t53.5 74q1 8 1 16q0 35 -21 57q-27 27 -96 27q-48 0 -88 -17.5t-69 -42.5l-12 15q82 66 173 66z" />
    <glyph glyph-name="uni0434" unicode="&#x434;" horiz-adv-x="502" 
d="M306 718q80 0 122 -42q34 -33 34 -89q0 -13 -2 -28l-59 -418q-5 -38 -24 -66t-46.5 -47t-61 -28.5t-66.5 -9.5q-34 0 -64.5 9.5t-53 28.5t-33.5 47q-8 19 -8 43q0 11 2 23l28 199q5 38 24.5 66.5t47 47t61 28t67.5 9.5q23 0 45 -6t41 -16t34 -23t24 -28l19 135q2 14 2 26
q0 20 -5 37q-8 27 -27 45t-47 26.5t-62 8.5q-46 0 -75 -9.5t-60 -29.5l-14 20q20 12 38 19.5t36 12.5t38.5 7t44.5 2zM270 469q-28 0 -56.5 -7.5t-53 -23t-42 -40t-22.5 -58.5l-28 -199q-2 -11 -2 -20q0 -22 8 -39q11 -24 31 -40t47 -23.5t54 -7.5t56 7.5t53 23.5t41.5 40.5
t22.5 58.5l35 252q-17 32 -55.5 54t-88.5 22z" />
    <glyph glyph-name="uni0435" unicode="&#x435;" horiz-adv-x="474" 
d="M64 118q0 -21 8 -38q11 -24 31.5 -39t47.5 -22t56 -7q41 0 81.5 14.5t66.5 47.5l16 -10q-30 -36 -75 -55t-92 -19q-34 0 -65 9t-53.5 28t-33.5 47q-8 19 -8 43q0 11 2 23l31 228q6 40 25.5 70.5t47.5 50t61.5 29.5t67.5 10q33 0 63.5 -9t52.5 -28.5t33 -48.5q8 -20 8 -44
q0 -12 -2 -26q-6 -40 -25 -70.5t-46.5 -51t-61 -31t-68.5 -10.5t-74.5 7t-78.5 27l-14 -104q-2 -11 -2 -21zM236 229q31 0 60.5 8.5t54 26t41 44.5t22.5 64q2 11 2 22q0 21 -7 38q-10 26 -29.5 42.5t-46.5 25t-57 8.5t-60 -8.5t-55 -26t-42 -43.5t-22 -61l-14 -105
q40 -19 73 -27t80 -8z" />
    <glyph glyph-name="uni0436" unicode="&#x436;" horiz-adv-x="696" 
d="M622 0h-25l-174 269l-78 -69l-29 -200h-22l29 200l-60 69l-250 -269h-25l262 285l-187 233h27l237 -290l40 290h22l-40 -290l317 290h27l-251 -233z" />
    <glyph glyph-name="uni0437" unicode="&#x437;" horiz-adv-x="442" 
d="M238 528q46 0 75 -10t45 -28.5t20 -43.5q2 -13 2 -27.5t-2 -29.5q-7 -49 -37 -77.5t-63 -39.5q49 -10 72 -40q16 -21 16 -59q0 -15 -3 -33q-5 -37 -22.5 -65t-43 -47t-57 -28.5t-64.5 -9.5t-57 5t-42.5 15t-34 26t-30.5 37l23 12q26 -37 59.5 -56.5t75.5 -19.5
q30 0 58.5 8t52 24.5t39.5 41t21 58.5q2 16 2 29q0 43 -25 62q-32 25 -107 25h-93l3 21h87q25 0 49.5 6.5t45 20t35 35t18.5 50.5q2 14 2 26q0 41 -23 63q-30 28 -94 28q-48 0 -85 -17t-67 -53l-18 10q33 41 76.5 61t90.5 20z" />
    <glyph glyph-name="uni0438" unicode="&#x438;" 
d="M53 119q0 10 2 22l52 377h22l-52 -377q-2 -10 -2 -19q0 -20 8 -37q11 -24 30.5 -40.5t45.5 -24.5t53 -8q41 0 86.5 8t77.5 21l66 477h22l-69 -496q-94 -32 -186 -32q-33 1 -63 10.5t-52 28.5t-33 47q-8 19 -8 43z" />
    <glyph glyph-name="uni0439" unicode="&#x439;" horiz-adv-x="515" 
d="M305 600q-33 0 -60 19.5t-30 57.5h23q4 -28 24 -41.5t45 -13.5t48 13.5t37 41.5h23q-15 -38 -46 -57.5t-64 -19.5zM53 119q0 10 2 22l52 377h22l-52 -377q-2 -10 -2 -19q0 -20 8 -37q11 -24 30.5 -40.5t45.5 -24.5t53 -8q41 0 86.5 8t77.5 21l66 477h22l-69 -496
q-94 -32 -186 -32q-33 1 -63 10.5t-52 28.5t-33 47q-8 19 -8 43z" />
    <glyph glyph-name="uni043A" unicode="&#x43a;" horiz-adv-x="461" 
d="M387 0h-25l-174 269l-102 -90l-26 -179h-22l73 518h22l-43 -311l341 311h27l-251 -233z" />
    <glyph glyph-name="uni043B" unicode="&#x43b;" 
d="M367 0l70 494h-227l-49 -225q-12 -53 -25.5 -101.5t-33.5 -86t-50 -59.5t-73 -22l4 24q36 0 60.5 20.5t42.5 56t31 84t25 104.5l49 229h271l-73 -518h-22z" />
    <glyph glyph-name="uni043C" unicode="&#x43c;" horiz-adv-x="627" 
d="M480 0l58 409l11 80l-253 -396h-24l-101 281l-43 115l-17 -129l-51 -360h-22l73 518h32l143 -405l257 405h32l-73 -518h-22z" />
    <glyph glyph-name="uni043D" unicode="&#x43d;" horiz-adv-x="520" 
d="M373 0l37 260h-313l-37 -260h-22l73 518h22l-33 -234h313l33 234h22l-73 -518h-22z" />
    <glyph glyph-name="uni043E" unicode="&#x43e;" horiz-adv-x="495" 
d="M279 529q33 0 64 -10t53.5 -28.5t33.5 -46.5q9 -20 9 -45q0 -10 -2 -22l-32 -235q-5 -38 -24.5 -66.5t-47.5 -47t-61.5 -28.5t-66.5 -10q-34 0 -65 10t-53.5 28.5t-34.5 47.5q-8 19 -8 44q0 10 2 22l32 235q5 38 24.5 66.5t47.5 47t61.5 28.5t67.5 10zM276 506
q-29 0 -58 -7.5t-54 -23t-42.5 -40t-21.5 -58.5l-32 -235q-2 -11 -2 -20q0 -22 8 -38q11 -25 31 -41t47 -23.5t56 -7.5q28 0 57 7.5t54 23.5t42 40.5t22 58.5l32 235q1 9 1 18q0 23 -8 41q-10 24 -30 39.5t-47 23t-55 7.5z" />
    <glyph glyph-name="uni043F" unicode="&#x43f;" 
d="M448 400q0 -11 -2 -23l-52 -377h-22l52 377q1 9 1 18q0 22 -7 39q-10 24 -29.5 40t-45.5 23.5t-54 7.5q-43 0 -88.5 -7.5t-75.5 -19.5l-66 -478h-22l69 497q92 31 186 31q33 -1 63 -10t52 -27t33 -47q8 -19 8 -44z" />
    <glyph glyph-name="uni0440" unicode="&#x440;" horiz-adv-x="508" 
d="M451 393q0 -11 -2 -22l-31 -231q-5 -37 -24.5 -65t-47.5 -47.5t-62 -29t-68 -9.5q-35 0 -74 9.5t-78 29.5l-31 -220h-22l97 697q46 14 92.5 18.5t93.5 4.5q33 -1 63 -11.5t52 -30.5t33 -49q9 -20 9 -44zM220 11q30 0 59.5 9t54 25.5t41 40t20.5 54.5l32 233q1 9 1 17
q0 20 -7 38q-10 24 -29 41.5t-45.5 27.5t-55.5 10q-16 0 -36 -0.5t-42 -3t-44 -6.5t-41 -10l-60 -434q42 -23 76.5 -32.5t75.5 -9.5z" />
    <glyph glyph-name="uni0441" unicode="&#x441;" horiz-adv-x="453" 
d="M275 506q-30 0 -59 -7.5t-53.5 -23.5t-41.5 -39.5t-21 -56.5l-32 -238q-2 -11 -2 -20q0 -21 8 -37q10 -25 29.5 -41t46.5 -23.5t57 -7.5q45 0 88 18t67 56l20 -10q-29 -42 -77.5 -64t-100.5 -22q-33 0 -64 9.5t-53.5 28t-34.5 46.5q-8 20 -8 45q0 10 2 22l32 236
q5 38 24.5 66.5t47.5 47t61.5 28t66.5 9.5q46 0 84.5 -16t58.5 -51l-18 -11q-17 30 -51.5 43t-76.5 13z" />
    <glyph glyph-name="uni0442" unicode="&#x442;" horiz-adv-x="804" 
d="M263 528q23 0 46 -4t44 -13t37.5 -25t27.5 -40q19 25 39 40.5t40 24.5t40.5 12.5t42.5 4.5h7q32 0 59 -8q31 -10 52.5 -30t31.5 -50q7 -21 7 -45q0 -12 -2 -25l-51 -370h-23l50 368q2 12 2 24q0 21 -7 38q-9 26 -28.5 42.5t-45.5 24.5t-54 8q-27 0 -53 -7.5t-48 -21.5
t-36.5 -35t-18.5 -49l-54 -392h-22l54 392q1 7 1 14q0 20 -8 35q-11 21 -32 35.5t-49.5 22t-58.5 7.5q-34 0 -68 -9t-60 -24l-65 -473h-23l68 489q34 21 75.5 30t82.5 9z" />
    <glyph glyph-name="uni0443" unicode="&#x443;" horiz-adv-x="515" 
d="M186 -209q-42 0 -77.5 12.5t-60.5 36.5l16 16q26 -23 55 -33t71 -10q27 0 55 7.5t52 22.5t41 38t22 55l14 94q-48 -22 -86.5 -31t-73.5 -9q-34 0 -65 9.5t-53.5 28.5t-34 47t-6.5 65l52 378h23l-52 -378q-5 -32 4.5 -55.5t28.5 -39.5t45.5 -24.5t56.5 -9.5q24 0 42.5 2.5
t37 7t38.5 12t46 19.5l65 466h22l-82 -581q-5 -38 -24 -65.5t-46 -45.5t-60 -26.5t-66 -8.5zM48 0z" />
    <glyph glyph-name="uni0444" unicode="&#x444;" horiz-adv-x="688" 
d="M471 528q34 0 64.5 -10t53 -29t33.5 -47q9 -19 9 -43q0 -11 -2 -22l-33 -236q-5 -37 -24.5 -65t-47.5 -47t-61.5 -29t-67.5 -10q-19 0 -43 3.5t-38 9.5l-28 -195h-22l26 195q-15 -6 -40.5 -9.5t-44.5 -3.5q-34 0 -65 10t-53.5 29t-34.5 47q-8 20 -8 43q0 11 2 22l33 236
q5 37 24.5 65t48 47t62 29t67.5 10q19 0 43.5 -3.5t38.5 -9.5l27 193h22l-27 -193q15 6 41 9.5t45 3.5zM277 506q-30 0 -59 -8.5t-53.5 -25t-41.5 -40.5t-21 -55l-33 -236q-1 -9 -1 -17q0 -21 7 -38q10 -24 29.5 -40.5t46 -25t56.5 -8.5q21 0 45.5 3.5t41.5 10.5l66 466
q-15 7 -38.5 10.5t-44.5 3.5zM469 506q-21 0 -45.5 -3.5t-41.5 -10.5l-66 -466q15 -7 38.5 -10.5t44.5 -3.5q30 0 59 8.5t53.5 25t41 40.5t20.5 55l33 236q1 9 1 18q0 20 -7 37q-9 24 -28.5 40.5t-46 25t-56.5 8.5z" />
    <glyph glyph-name="uni0445" unicode="&#x445;" horiz-adv-x="437" 
d="M228 259l131 -259h-26l-122 243l-191 -243h-27l205 259l-133 259h28l122 -243l190 243h27z" />
    <glyph glyph-name="uni0446" unicode="&#x446;" horiz-adv-x="534" 
d="M209 -10q-33 0 -63 9.5t-52 28.5t-33 48q-8 19 -8 43q0 10 2 22l53 377h22l-53 -377q-2 -10 -2 -19q0 -20 8 -37q11 -24 30.5 -40.5t45.5 -24.5t53 -8q18 0 39.5 2t43.5 6t42.5 10.5t36.5 14.5l66 473h23l-65 -468h68q-8 -44 -17.5 -90t-20.5 -89h-18l26 155h-48
q-41 -19 -86 -27.5t-93 -8.5z" />
    <glyph glyph-name="uni0447" unicode="&#x447;" horiz-adv-x="476" 
d="M204 169q-30 0 -59 7.5t-51.5 25t-33.5 46.5q-7 20 -7 45q0 13 2 29l27 196h21l-28 -199q-2 -12 -2 -23q0 -21 7 -38q10 -24 29.5 -39.5t45.5 -22.5t53 -7q40 0 81 15t76 44l38 270h22l-73 -518h-22l32 224q-37 -26 -75.5 -40.5t-82.5 -14.5z" />
    <glyph glyph-name="uni0448" unicode="&#x448;" horiz-adv-x="794" 
d="M521 -10q-23 0 -46 4t-44 13t-38 25t-27 40q-39 -50 -76.5 -66t-80.5 -16q-36 0 -66.5 9.5t-52 29t-32.5 49.5q-6 18 -6 41q0 13 2 27l52 372h23l-52 -370q-2 -12 -2 -24q0 -21 7 -38q9 -26 28.5 -42.5t45.5 -24t54 -7.5q27 0 52.5 7.5t46.5 22t35 35.5t18 49l55 392h22
l-55 -392q-1 -7 -1 -14q0 -20 8 -35q11 -21 32 -35.5t49.5 -22t58.5 -7.5q34 0 65.5 9t57.5 24l66 473h23l-68 -489q-35 -21 -74 -30t-80 -9z" />
    <glyph glyph-name="uni0449" unicode="&#x449;" horiz-adv-x="815" 
d="M519 -10q-23 0 -46 4t-44 13t-38 25t-27 40q-20 -25 -38.5 -41t-37 -25t-38.5 -12.5t-41 -3.5q-36 0 -66.5 9.5t-52 29t-32.5 49.5q-6 18 -6 41q0 13 2 27l52 372h23l-52 -370q-2 -12 -2 -24q0 -21 7 -38q9 -26 28.5 -42.5t45.5 -24t54 -7.5q27 0 52.5 8.5t46 24
t34.5 36.5t17 45l55 392h22l-55 -392q-1 -7 -1 -14q0 -20 8 -35q11 -21 32 -35.5t49.5 -22t58.5 -7.5q34 0 66.5 9t58.5 24l66 473h23l-65 -468h68q-8 -44 -17.5 -90t-20.5 -89h-18l26 155h-48q-33 -20 -70 -28t-79 -8z" />
    <glyph glyph-name="uni044A" unicode="&#x44a;" 
d="M302 313q35 0 65 -12t51 -34t30 -53q7 -20 7 -44q0 -13 -2 -26q-5 -38 -24.5 -67t-47.5 -48.5t-62 -29.5t-67 -10q-34 0 -65 10t-54 28.5t-35 46.5q-8 20 -8 45q0 10 2 22l50 356h-97l3 21h118l-34 -250q36 16 79 30.5t91 14.5zM292 291q-21 0 -43.5 -4.5t-44 -11.5
t-41 -15.5t-35.5 -15.5l-14 -103q-2 -11 -2 -20q0 -22 8 -39q11 -25 31.5 -41t47.5 -23.5t56 -7.5q28 0 57 8t54 24.5t42.5 42t22.5 59.5q2 12 2 22q0 22 -7 40q-10 28 -29.5 46.5t-47 28.5t-57.5 10z" />
    <glyph glyph-name="uni044B" unicode="&#x44b;" horiz-adv-x="663" 
d="M539 0h-24l74 518h24zM265 313q35 0 65 -12t51 -34t31 -53q6 -20 6 -44q0 -13 -2 -26q-5 -38 -24.5 -67t-47.5 -48.5t-62 -29.5t-67 -10q-34 0 -65 10t-54 28.5t-34 46.5q-9 20 -9 45q0 10 2 22l53 377h21l-34 -250q36 16 79 30.5t91 14.5zM255 291q-21 0 -43.5 -4.5
t-44 -11.5t-41 -15.5t-35.5 -15.5l-14 -103q-2 -11 -2 -20q0 -22 8 -39q11 -25 31.5 -41t47.5 -23.5t56 -7.5q28 0 57 8t54 24.5t42.5 42t22.5 59.5q2 12 2 22q0 22 -7 40q-10 28 -29.5 46.5t-47 28.5t-57.5 10z" />
    <glyph glyph-name="uni044C" unicode="&#x44c;" horiz-adv-x="477" 
d="M265 313q35 0 65 -12t51 -34t31 -53q6 -20 6 -44q0 -13 -2 -26q-5 -38 -24.5 -67t-47.5 -48.5t-62 -29.5t-67 -10q-34 0 -65 10t-54 28.5t-34 46.5q-9 20 -9 45q0 10 2 22l53 377h21l-34 -250q36 16 79 30.5t91 14.5zM255 291q-21 0 -43.5 -4.5t-44 -11.5t-41 -15.5
t-35.5 -15.5l-14 -103q-2 -11 -2 -20q0 -22 8 -39q11 -25 31.5 -41t47.5 -23.5t56 -7.5q28 0 57 8t54 24.5t42.5 42t22.5 59.5q2 12 2 22q0 22 -7 40q-10 28 -29.5 46.5t-47 28.5t-57.5 10z" />
    <glyph glyph-name="uni044D" unicode="&#x44d;" horiz-adv-x="455" 
d="M239 528q33 0 64 -9.5t53.5 -28t33.5 -46.5q8 -19 8 -42q0 -12 -2 -25l-33 -236q-5 -38 -24.5 -66.5t-47.5 -47t-61.5 -28t-66.5 -9.5q-52 0 -94.5 22t-59.5 64l23 10q14 -38 51.5 -56t82.5 -18q30 0 59 7.5t53.5 23.5t41 40.5t21.5 57.5l15 108h-241l3 21h241l16 109
q1 9 1 18q0 22 -7 39q-10 23 -29.5 39t-46.5 23.5t-57 7.5q-42 0 -80 -13t-64 -43l-16 11q30 35 73.5 51t89.5 16z" />
    <glyph glyph-name="uni044E" unicode="&#x44e;" horiz-adv-x="698" 
d="M482 529q33 0 64 -10t53.5 -28.5t34.5 -46.5q7 -19 7 -42q0 -12 -2 -25l-33 -236q-5 -38 -24.5 -66.5t-47.5 -47t-61.5 -28.5t-66.5 -10q-34 0 -65 10t-53.5 28.5t-33.5 46.5q-9 20 -9 45q0 10 2 22l17 121h-169l-37 -262h-22l73 518h22l-32 -232h169l12 91
q6 38 25.5 66.5t47.5 47t61.5 28.5t67.5 10zM479 506q-29 0 -58 -7.5t-54 -23t-42.5 -40t-22.5 -58.5l-33 -236q-2 -11 -2 -20q0 -22 8 -39q11 -24 31 -40t47 -23.5t56 -7.5q28 0 57 7.5t54 23.5t42 40.5t22 58.5l33 236q2 11 2 21q0 21 -7 38q-11 24 -31 39.5t-47 23
t-55 7.5z" />
    <glyph glyph-name="uni044F" unicode="&#x44f;" horiz-adv-x="491" 
d="M63 341q0 11 2 23q10 75 53 114.5t124 39.5h197l-73 -518h-22l32 224h-138l-210 -224h-28l207 224q-71 1 -111 38q-33 29 -33 79zM241 494q-64 0 -104 -29t-49 -102q-2 -10 -2 -20q0 -17 6 -31q10 -22 28.5 -36.5t43 -21t51.5 -6.5h164l35 246h-173z" />
    <glyph glyph-name="uni0451" unicode="&#x451;" horiz-adv-x="474" 
d="M206 653q10 0 16 -7t4 -17t-9.5 -17t-17.5 -7t-16.5 7t-4.5 17t10 17t18 7zM386 653q10 0 16 -7t4 -17t-9.5 -17t-17.5 -7t-16.5 7t-4.5 17t10 17t18 7zM64 118q0 -22 8 -38q11 -24 31.5 -39t47.5 -22t56 -7q41 0 81.5 14.5t66.5 47.5l16 -10q-30 -36 -75 -55t-92 -19
q-34 0 -65 9t-53.5 28t-33.5 47q-8 19 -8 43q0 11 2 23l31 228q6 40 25.5 70.5t47.5 50t61.5 29.5t67.5 10q33 0 63.5 -9t52.5 -28.5t33 -48.5q8 -20 8 -44q0 -12 -2 -26q-6 -40 -25 -70.5t-46.5 -51t-61 -31t-68.5 -10.5t-74.5 7t-78.5 27l-14 -104q-2 -11 -2 -21zM236 229
q31 0 60.5 8.5t54 26t41 44.5t22.5 64q2 11 2 22q0 21 -7 38q-10 26 -29.5 42.5t-46.5 25t-57 8.5t-60 -8.5t-55 -26t-42 -43.5t-22 -61l-14 -105q40 -19 73 -27t80 -8z" />
    <glyph glyph-name="Wgrave" unicode="&#x1e80;" horiz-adv-x="925" 
d="M471 862h35l47 -103h-25zM957 708l-306 -708h-44l-105 578l-269 -578h-45l-107 708h27l104 -681h5l270 575h35l107 -577h6l295 683h27z" />
    <glyph glyph-name="wgrave" unicode="&#x1e81;" horiz-adv-x="711" 
d="M341 682h35l47 -103h-25zM141 0l-81 518h27l75 -493h3l200 493h39l61 -492h3l216 492h27l-227 -518h-41l-61 490h-2l-197 -490h-42z" />
    <glyph glyph-name="Wacute" unicode="&#x1e82;" horiz-adv-x="925" 
d="M602 862l-87 -103h-25l77 103h35zM957 708l-306 -708h-44l-105 578l-269 -578h-45l-107 708h27l104 -681h5l270 575h35l107 -577h6l295 683h27z" />
    <glyph glyph-name="wacute" unicode="&#x1e83;" horiz-adv-x="711" 
d="M472 682l-87 -103h-25l77 103h35zM141 0l-81 518h27l75 -493h3l200 493h39l61 -492h3l216 492h27l-227 -518h-41l-61 490h-2l-197 -490h-42z" />
    <glyph glyph-name="Wdieresis" unicode="&#x1e84;" horiz-adv-x="925" 
d="M449 833q10 0 16 -7t4 -17t-9.5 -17t-17.5 -7t-16.5 7t-4.5 17t10 17t18 7zM629 833q10 0 16 -7t4 -17t-9.5 -17t-17.5 -7t-16.5 7t-4.5 17t10 17t18 7zM957 708l-306 -708h-44l-105 578l-269 -578h-45l-107 708h27l104 -681h5l270 575h35l107 -577h6l295 683h27z" />
    <glyph glyph-name="wdieresis" unicode="&#x1e85;" horiz-adv-x="711" 
d="M319 653q10 0 16 -7t4 -17t-9.5 -17t-17.5 -7t-16.5 7t-4.5 17t10 17t18 7zM499 653q10 0 16 -7t4 -17t-9.5 -17t-17.5 -7t-16.5 7t-4.5 17t10 17t18 7zM141 0l-81 518h27l75 -493h3l200 493h39l61 -492h3l216 492h27l-227 -518h-41l-61 490h-2l-197 -490h-42z" />
    <glyph glyph-name="Ygrave" unicode="&#x1ef2;" horiz-adv-x="547" 
d="M292 862h35l47 -103h-25zM242 0h-25l39 281l-182 427h30l169 -399l288 399h31l-311 -427z" />
    <glyph glyph-name="ygrave" unicode="&#x1ef3;" horiz-adv-x="515" 
d="M241 682h35l47 -103h-25zM186 -209q-42 0 -77.5 12.5t-60.5 36.5l16 16q26 -23 55 -33t71 -10q27 0 55 7.5t52 22.5t41 38t22 55l14 94q-48 -22 -86.5 -31t-73.5 -9q-34 0 -65 9.5t-53.5 28.5t-33.5 47q-9 20 -9 43q0 11 2 22l52 378h23l-52 -378q-2 -11 -2 -21
q0 -19 6 -35q10 -23 29 -39t45.5 -24.5t56.5 -9.5q24 0 42.5 2.5t37 7t38.5 12t46 19.5l65 466h22l-82 -581q-5 -38 -24 -65.5t-46 -45.5t-60 -26.5t-66 -8.5z" />
    <glyph glyph-name="endash" unicode="&#x2013;" horiz-adv-x="580" 
d="M502 288h-430l3 23h430z" />
    <glyph glyph-name="emdash" unicode="&#x2014;" horiz-adv-x="1039" 
d="M960 274h-890l7 51h890zM959 318h-876l-5 -37h876zM948 288h-862l3 23h862z" />
    <glyph glyph-name="quoteleft" unicode="&#x2018;" horiz-adv-x="202" 
d="M176 708h25l-70 -176h-35z" />
    <glyph glyph-name="quoteright" unicode="&#x2019;" horiz-adv-x="203" 
d="M119 531h-22l73 177h37z" />
    <glyph glyph-name="quotesinglbase" unicode="&#x201a;" horiz-adv-x="187" 
d="M-6 -121h-22l78 162h35z" />
    <glyph glyph-name="quotedblleft" unicode="&#x201c;" horiz-adv-x="315" 
d="M96 532q22 46 43 89t42 88h23l-72 -177h-36zM207 532q22 46 43 89t42 88h23l-72 -177h-36z" />
    <glyph glyph-name="quotedblright" unicode="&#x201d;" horiz-adv-x="307" 
d="M196 708q-20 -45 -39.5 -91.5t-39.5 -91.5h-21l65 183h35zM308 708q-20 -45 -39.5 -91.5t-39.5 -91.5h-21l65 183h35z" />
    <glyph glyph-name="quotedblbase" unicode="&#x201e;" horiz-adv-x="321" 
d="M122 -121h-22l78 162h35zM-4 -121h-22l78 162h35z" />
    <glyph glyph-name="dagger" unicode="&#x2020;" horiz-adv-x="473" 
d="M61 507h191l28 202h22l-28 -202h194l-3 -21h-194l-85 -600h-22l85 600h-191z" />
    <glyph glyph-name="daggerdbl" unicode="&#x2021;" horiz-adv-x="547" 
d="M44 107h192l54 389h-192l3 22h192l27 191h22l-27 -191h192l-3 -22h-192l-54 -389h192l-3 -20h-192l-28 -196h-22l28 196h-192z" />
    <glyph glyph-name="bullet" unicode="&#x2022;" horiz-adv-x="360" 
d="M199 445q38 0 61 -27q18 -21 18 -51q0 -6 -1 -13q-3 -19 -12.5 -35.5t-23.5 -29t-31.5 -19.5t-36.5 -7q-38 0 -61 27q-18 21 -18 51q0 6 1 13q3 19 12.5 35.5t23.5 29t31.5 19.5t36.5 7z" />
    <glyph glyph-name="ellipsis" unicode="&#x2026;" horiz-adv-x="604" 
d="M267 61q13 0 21 -9q6 -8 6 -18v-5q-2 -13 -12.5 -22.5t-23.5 -9.5t-22 9q-6 8 -6 18q0 16 13 28q11 9 24 9zM466 63q13 0 21 -9q6 -8 6 -18v-5q-2 -13 -12.5 -22.5t-23.5 -9.5t-22 9q-6 8 -6 18q0 16 13 28q11 9 24 9zM73 60q13 0 21 -9q5 -7 5 -17v-5q-2 -13 -12 -22
t-23 -9t-21 9q-6 7 -6 17v5q2 13 12.5 22t23.5 9z" />
    <glyph glyph-name="perthousand" unicode="&#x2030;" horiz-adv-x="1019" 
d="M798 -7q-66 0 -96 47q-20 33 -20 87q0 22 3 48q13 90 58 134.5t105 44.5q65 0 95 -47q21 -34 21 -88q0 -21 -3 -46q-12 -84 -57.5 -132t-105.5 -48zM936 217q0 47 -17 73q-25 37 -77 37q-110 0 -131 -152q-4 -28 -4 -51q0 -44 15 -68q21 -36 78 -36q55 0 88.5 36.5
t44.5 115.5q3 25 3 45zM72 -48q-6 3 -10 6.5t-9 6.5l601 778l18 -12zM190 345q-66 0 -96 47q-20 32 -20 85q0 23 4 50q12 88 57.5 133.5t105.5 45.5q65 0 95 -47q20 -33 20 -87q0 -22 -3 -47q-6 -42 -20.5 -75.5t-36.5 -56.5t-49 -35.5t-57 -12.5zM328 572q0 46 -16 71
q-24 37 -76 37q-56 0 -87 -38t-42 -115q-4 -30 -4 -54q0 -42 13 -65q21 -36 78 -36q55 0 87.5 36.5t43.5 116.5q3 25 3 47zM483 -7q-66 0 -95 47q-21 33 -21 87q0 22 3 48q12 88 57.5 133.5t105.5 45.5q65 0 95 -47q21 -34 21 -88q0 -21 -3 -46q-12 -84 -57.5 -132
t-105.5 -48zM621 217q0 47 -17 73q-25 37 -77 37q-109 0 -130 -152q-4 -29 -4 -52q0 -43 14 -67q21 -36 78 -36q55 0 88.5 36.5t44.5 115.5q3 25 3 45z" />
    <glyph glyph-name="guilsinglleft" unicode="&#x2039;" horiz-adv-x="254" 
d="M192 476q2 -2 9.5 -5.5t9.5 -5.5l-2 -3t-14.5 -19t-41 -50.5t-80.5 -97.5l91 -168l-22 -11l-97 179z" />
    <glyph glyph-name="guilsinglright" unicode="&#x203a;" horiz-adv-x="254" 
d="M59 114q-2 2 -9 5.5t-9 5.5l2 3t14.5 19t41 50.5t80.5 97.5q-30 54 -47 85.5t-26 48t-12.5 23t-5.5 11.5l21 11l97 -179z" />
    <glyph glyph-name="fraction" unicode="&#x2044;" horiz-adv-x="494" 
d="M-7 -11l-18 9l538 720l20 -10z" />
    <glyph glyph-name="Euro" unicode="&#x20ac;" horiz-adv-x="594" 
d="M393 718q61 0 113 -26.5t76 -77.5l-22 -12q-11 23 -29 40.5t-40.5 29t-48.5 17.5t-52 6q-39 0 -77 -11t-70 -33t-54.5 -55.5t-28.5 -78.5l-15 -109h271l-8 -22h-266l-12 -82h274l-8 -21h-269l-12 -93q-2 -14 -2 -27q0 -27 9 -50q13 -33 38 -55.5t59.5 -33.5t72.5 -11
q56 0 109.5 23t91.5 70l17 -12q-38 -51 -98.5 -77.5t-122.5 -26.5q-42 0 -80.5 12.5t-67 37.5t-42.5 62q-10 27 -10 59q0 14 2 29l12 93h-61l7 21h57l12 82h-57l8 22h52l15 109q7 49 32 87t60.5 63t78.5 38t86 13z" />
    <glyph glyph-name="uni2113" unicode="&#x2113;" horiz-adv-x="374" 
d="M197 -5q-73 0 -97 47q-17 32 -17 82q0 23 3 49l8 61l-74 -65l-3 19l81 72l40 282q9 64 25.5 106t37.5 67t44 35.5t45 10.5q48 0 67 -37q13 -25 13 -64q0 -18 -3 -39q-14 -94 -80.5 -187t-168.5 -184l-10 -70q-4 -30 -4 -53q0 -15 2 -28q4 -32 17.5 -50.5t34 -25.5
t45.5 -7t48 11t43 26l11 -16q-25 -20 -52 -31t-56 -11zM348 668q0 19 -6 34q-6 17 -20 26.5t-38 9.5q-17 0 -35.5 -9t-35 -31.5t-30.5 -60t-22 -93.5l-39 -269q91 92 150.5 175t71.5 169q4 28 4 49z" />
    <glyph glyph-name="trademark" unicode="&#x2122;" horiz-adv-x="817" 
d="M168 352l48 341h-130l2 15h278l-2 -15h-130l-48 -341h-18zM463 694q-5 -36 -11 -80t-13 -90.5t-13 -91t-11 -80.5h-17l50 356h32l97 -299q51 86 83 138.5t51 84t29 47.5t18 29h32l-50 -356h-18l49 345h-3l-181 -299h-24l-96 296h-4z" />
    <glyph glyph-name="Omega" unicode="&#x2126;" horiz-adv-x="768" 
d="M75 316q0 30 5 62q10 73 44 133.5t83.5 103.5t111.5 66.5t128 23.5q69 0 122.5 -26t88 -70.5t48.5 -102.5q9 -36 9 -74q0 -25 -4 -50q-8 -54 -29 -104.5t-51 -94.5t-67.5 -81t-77.5 -65h190l-3 -22h-241l1 12q45 25 87.5 63t77 84.5t57.5 99.5t31 108q3 20 3 40
q0 33 -8 66q-11 54 -41.5 97t-79.5 70t-117 27q-64 0 -121 -23t-102 -64t-75.5 -96.5t-39.5 -121.5q-4 -28 -4 -54q0 -30 5 -57q9 -51 30.5 -94.5t54 -79.5t70.5 -64l-1 -12h-243l3 21h194l-32 30q-27 25 -49 57t-36.5 71t-19.5 85q-2 18 -2 36z" />
    <glyph glyph-name="estimated" unicode="&#x212e;" horiz-adv-x="911" 
d="M221 344q-5 0 -5 -5v-199q0 -12 8 -23q48 -50 112 -79t137 -29q79 0 146.5 33t115.5 88h59q-55 -64 -139 -102.5t-183 -38.5q-84 0 -158 28.5t-129 78t-87 116t-32 142.5t32 142.5t87 116t129 78.5t158 29t158.5 -29t129.5 -78.5t87 -116t32 -142.5v-10h-658zM730 570
q0 14 -10 24q-48 48 -111 76t-136 28q-72 0 -136 -29t-112 -78q-9 -11 -9 -25v-196q0 -2 1.5 -4.5t3.5 -2.5h505q2 0 3 2.5t1 4.5v200z" />
    <glyph glyph-name="partialdiff" unicode="&#x2202;" horiz-adv-x="498" 
d="M279 738q50 0 87 -24t59.5 -67.5t29.5 -103.5q3 -25 3 -51q0 -38 -6 -80q-4 -27 -11 -63.5t-16 -67.5q-18 -62 -43.5 -114t-58 -90t-71.5 -59t-85 -21q-40 0 -68.5 17.5t-45 46t-21.5 65.5q-3 18 -3 37q0 20 3 40q7 53 29.5 96t53 74t66.5 47.5t72 16.5q30 0 56.5 -9.5
t47 -25.5t34 -37t18.5 -44q10 28 14.5 53t7.5 46q4 33 4 65q0 23 -2 45q-5 52 -24 93t-53 65.5t-85 24.5q-40 0 -70 -10t-54 -24l-6 20q25 15 59 27t79 12zM173 22q37 0 74 21.5t68 57.5t53 84.5t31 102.5q-3 19 -15.5 41t-32 40.5t-45 30.5t-56.5 12q-33 0 -65 -16
t-58.5 -44t-45.5 -66t-25 -81q-3 -21 -3 -40q0 -55 24 -93q32 -50 95 -50h1z" />
    <glyph glyph-name="Delta" unicode="&#x2206;" horiz-adv-x="570" 
d="M-8 24q84 171 165.5 342t165.5 342h42l137 -683l-3 -25h-510zM473 22l-129 666h-6l-320 -666h455z" />
    <glyph glyph-name="product" unicode="&#x220f;" horiz-adv-x="628" 
d="M419 -53l104 739h-315l-104 -739h-24l104 739h-102l3 22h566l-3 -22h-102l-104 -739h-23z" />
    <glyph glyph-name="summation" unicode="&#x2211;" horiz-adv-x="519" 
d="M309 307q-51 91 -103 189t-103 189l3 23h415l-3 -22h-385q58 -107 108 -198t98 -177l-324 -364h415l-3 -21h-443l3 22z" />
    <glyph glyph-name="minus" unicode="&#x2212;" horiz-adv-x="633" 
d="M553 296h-466l4 22h466z" />
    <glyph glyph-name="uni2215" unicode="&#x2215;" horiz-adv-x="493" 
d="M-9 -20l-18 9l538 720l20 -10z" />
    <glyph glyph-name="uni2219" unicode="&#x2219;" horiz-adv-x="213" 
d="M113 349q13 0 21 -9q5 -7 5 -17v-5q-2 -13 -12 -22t-23 -9t-21 9q-6 7 -6 17v5q2 13 12.5 22t23.5 9z" />
    <glyph glyph-name="radical" unicode="&#x221a;" horiz-adv-x="503" 
d="M101 332l-75 -26q-2 7 -3.5 10.5t-3.5 8.5l101 35l81 -457l5 1l319 916h24l-337 -957h-27z" />
    <glyph glyph-name="infinity" unicode="&#x221e;" horiz-adv-x="741" 
d="M522 155q-39 0 -75 30t-81 88q-23 -22 -47 -43.5t-48 -38t-49 -26.5t-51 -10t-48 10.5t-37 28.5t-22 42q-4 16 -4 33q0 10 1 20q4 29 17 54.5t33 44t46 29t55 10.5q25 0 46.5 -10.5t41 -27t37.5 -37.5t35 -43l23 23v-1q19 18 39 35.5t41 31t44 22t49 8.5q57 -1 86 -38
q24 -30 24 -73q0 -11 -2 -24v-1q-5 -31 -19.5 -56t-36 -43t-47 -28t-51.5 -10zM180 175q19 0 39.5 8.5t40.5 22t38.5 29t34.5 30.5l25 22q-14 19 -30.5 40.5t-35.5 39t-40.5 29t-46.5 11.5t-46.5 -9.5t-37.5 -26t-26.5 -38t-13.5 -45.5q-1 -8 -1 -17q0 -14 4 -27
q5 -21 17.5 -36t32 -24t45.5 -9h1zM559 407q-21 0 -41 -8t-39.5 -21t-36.5 -28t-32 -29l-32 -29q22 -28 41 -50t36 -37t34.5 -22.5t38.5 -7.5q25 0 47 10t38 26t26.5 36.5t13.5 41.5q2 13 2 25q0 39 -21 62q-27 31 -74 31h-1z" />
    <glyph glyph-name="integral" unicode="&#x222b;" horiz-adv-x="308" 
d="M316 831q-39 0 -66 -33t-35 -90l-32 -265q-8 -63 -15.5 -128.5t-15 -126.5t-14 -113t-11.5 -89q-10 -65 -46.5 -95.5t-79.5 -30.5q-11 0 -20.5 1t-19.5 5l6 22q6 -2 14.5 -4t14.5 -2q44 0 71.5 25t35.5 80q4 30 9 71.5t11 89.5t12.5 101t13.5 107q6 53 12 104.5t12 98.5
t11 86.5t9 68.5q4 33 16.5 59t29 43.5t36.5 27t40 9.5q23 0 45 -11l-6 -20q-8 3 -19 6t-19 3z" />
    <glyph glyph-name="approxequal" unicode="&#x2248;" horiz-adv-x="528" 
d="M366 316q-23 0 -45 10t-50 27q-25 15 -47 26t-46 11q-26 0 -44.5 -10.5t-35.5 -30.5l-13 10q23 26 46 39t52 13q23 0 45 -8.5t37 -18.5l15 -9q29 -18 49 -27.5t43 -9.5q20 0 38 7.5t36 25.5l12 -10q-20 -21 -41.5 -33t-50.5 -12zM347 185q-23 0 -44.5 10t-49.5 27
q-25 15 -47 26t-46 11q-26 0 -45 -10.5t-36 -30.5l-12 10q22 26 46 39.5t53 13.5q23 0 44.5 -9t36.5 -19l15 -9q29 -18 49 -27.5t43 -9.5q20 0 38 7.5t35 25.5l12 -10q-20 -21 -41.5 -33t-50.5 -12z" />
    <glyph glyph-name="notequal" unicode="&#x2260;" horiz-adv-x="554" 
d="M488 366h-161l-95 -160h233l-2 -19h-241l-65 -107l-14 7l60 100h-147l2 19h155l95 160h-227l3 19h235l62 106l15 -6l-60 -100h155z" />
    <glyph glyph-name="lessequal" unicode="&#x2264;" horiz-adv-x="483" 
d="M385 94l-3 -20h-345l3 20h345zM387 200l-3 -25q-75 49 -148 93.5t-148 93.5l4 26l349 190l-4 -26l-325 -177z" />
    <glyph glyph-name="greaterequal" unicode="&#x2265;" horiz-adv-x="483" 
d="M386 94l-3 -19h-345l3 19h345zM119 561q75 -50 149 -95t149 -95l-4 -26l-351 -187l3 23l329 177q-67 42 -139 88.5t-140 88.5z" />
    <glyph glyph-name="lozenge" unicode="&#x25ca;" horiz-adv-x="509" 
d="M125 138l-89 217l98 141q40 58 80.5 115t81.5 115h38q38 -94 76.5 -185t76.5 -185l-261 -371h-39zM208 -4l249 359l-146 363l-245 -361z" />
    <glyph glyph-name="i.loclTRK" horiz-adv-x="187" 
d="M140 643q13 0 21 -9q6 -8 6 -18v-5q-2 -13 -12.5 -22.5t-23.5 -9.5t-22 9q-6 8 -6 18q0 16 13 28q11 9 24 9zM62 0h-24l74 518h24z" />
    <glyph glyph-name="uni0414.loclBGR" horiz-adv-x="666" 
d="M610 26l-26 -183h-26l22 157h-580l-22 -157h-26l26 183h67l326 682h37l135 -682h67zM517 26l-131 658l-314 -658h445z" />
    <glyph glyph-name="uni041B.loclBGR" horiz-adv-x="586" 
d="M497 0l-130 620l-16 76h-6l-343 -696h-27l351 708h47l152 -708h-28z" />
    <glyph glyph-name="uni0432.loclBGR" horiz-adv-x="498" 
d="M315 718q49 0 79.5 -10.5t46.5 -30.5t19 -49q2 -11 2 -24q0 -19 -3 -40q-5 -31 -19 -57.5t-33 -47.5t-41 -36.5t-43 -24.5q25 0 47 -8t37 -24t22 -40q4 -14 4 -31q0 -12 -2 -25l-18 -129q-5 -38 -24.5 -66.5t-47.5 -47t-61.5 -28.5t-66.5 -10q-34 0 -65 9.5t-53.5 28
t-34.5 47.5q-8 19 -8 44q0 11 2 23l60 425q5 38 24.5 66.5t47.5 47.5t61.5 28.5t67.5 9.5zM315 696q-29 0 -58.5 -7.5t-54.5 -23.5t-43 -40.5t-23 -58.5l-31 -221q18 6 59.5 18t94.5 29q33 10 63.5 27.5t54.5 40t40 49t20 55.5q2 17 2 31q0 44 -21 69q-27 32 -103 32z
M74 120q0 -22 8 -38q11 -25 31 -41t47 -23t56 -7q28 0 57 7.5t54 23.5t42 40.5t22 58.5l18 129q1 9 1 17q0 20 -6 36q-10 23 -31 36.5t-51 16.5h-13q-25 0 -55 -8q-50 -14 -86.5 -25.5t-65.5 -21.5l-26 -180q-2 -11 -2 -21z" />
    <glyph glyph-name="uni0433.loclBGR" horiz-adv-x="444" 
d="M258 528q42 0 69.5 -9t43 -25.5t19.5 -38.5q3 -13 3 -28q0 -10 -1 -20q-4 -27 -18.5 -48.5t-38 -38t-55.5 -30t-71 -25.5q-80 -25 -117 -56.5t-44 -81.5q-2 -12 -2 -23q0 -45 26 -68q32 -27 96 -27h5q57 1 104.5 22t76.5 48l14 -13q-16 -15 -38 -29t-48 -24.5t-55 -16.5
t-59 -6q-87 0 -118 37q-25 29 -25 74q0 14 2 28q8 60 51.5 95t118.5 58q73 22 119.5 51t53.5 74q1 8 1 16q0 35 -21 57q-27 27 -96 27q-48 0 -88 -17.5t-69 -42.5l-12 15q82 66 173 66z" />
    <glyph glyph-name="uni0434.loclBGR" horiz-adv-x="503" 
d="M180 -188q29 0 57 7t51.5 22t40 38.5t22.5 56.5l14 93q-48 -22 -87 -30.5t-74 -8.5q-34 0 -64.5 9.5t-52.5 28.5t-33.5 47t-6.5 65l31 239q5 37 24 64.5t46 46.5t59.5 28.5t65.5 9.5q48 0 89.5 -10t86.5 -26l-77 -555q-5 -38 -23.5 -65.5t-45 -45.5t-59 -26.5t-65.5 -8.5
q-42 0 -79 12t-62 36l15 15q24 -20 58 -31t69 -11zM270 506q-29 0 -58 -8t-52.5 -24t-39.5 -39.5t-20 -54.5l-31 -240q-4 -32 5.5 -55.5t28.5 -39.5t45.5 -24.5t55.5 -9.5q21 0 39.5 2t38 6.5t40 12t46.5 18.5l57 424q-27 12 -69.5 22t-85.5 10zM38 0z" />
    <glyph glyph-name="uni0436.loclBGR" horiz-adv-x="695" 
d="M665 518h27l-251 -233l180 -285h-25l-174 269l-78 -69l-29 -200h-22l29 200l-60 69l-250 -269h-25l262 285l-187 233h27l237 -290l67 480h22l-67 -480z" />
    <glyph glyph-name="uni0438.loclBGR" 
d="M53 119q0 10 2 22l52 377h22l-52 -377q-2 -10 -2 -19q0 -20 8 -37q11 -24 30.5 -40.5t45.5 -24.5t53 -8q41 0 86.5 8t77.5 21l66 477h22l-69 -496q-94 -32 -186 -32q-33 1 -63 10.5t-52 28.5t-33 47q-8 19 -8 43z" />
    <glyph glyph-name="uni0439.loclBGR" horiz-adv-x="515" 
d="M305 600q-33 0 -60 19.5t-30 57.5h23q4 -28 24 -41.5t45 -13.5t48 13.5t37 41.5h23q-15 -38 -46 -57.5t-64 -19.5zM53 119q0 10 2 22l52 377h22l-52 -377q-2 -10 -2 -19q0 -20 8 -37q11 -24 30.5 -40.5t45.5 -24.5t53 -8q41 0 86.5 8t77.5 21l66 477h22l-69 -496
q-94 -32 -186 -32q-33 1 -63 10.5t-52 28.5t-33 47q-8 19 -8 43z" />
    <glyph glyph-name="uni043A.loclBGR" horiz-adv-x="461" 
d="M90 207l341 311h27l-251 -233l181 -285h-25l-175 269l-102 -90l-25 -179h-22l99 708h22z" />
    <glyph glyph-name="uni043B.loclBGR" horiz-adv-x="431" 
d="M338 0l-82 422l-11 66h-4l-30 -66l-206 -422h-22l247 511h32l98 -511h-22z" />
    <glyph glyph-name="uni043F.loclBGR" 
d="M448 400q0 -11 -2 -23l-52 -377h-22l52 377q1 9 1 18q0 22 -7 39q-10 24 -29.5 40t-45.5 23.5t-54 7.5q-43 0 -88.5 -7.5t-75.5 -19.5l-66 -478h-22l69 497q92 31 186 31q33 -1 63 -10t52 -27t33 -47q8 -19 8 -44z" />
    <glyph glyph-name="uni0442.loclBGR" horiz-adv-x="804" 
d="M264 528q23 0 46 -4t44 -13t37.5 -25t27.5 -40q39 50 79 66t83 16q36 0 66.5 -9.5t52 -29t32.5 -49.5q6 -18 6 -41q0 -13 -2 -27l-53 -372h-23l52 370q2 12 2 24q0 21 -6 38q-10 25 -29 41.5t-45 24.5t-54 8q-27 0 -53.5 -7.5t-48 -22t-36.5 -35.5t-19 -49l-56 -392h-22
l56 392q1 7 1 14q0 20 -8 35q-11 21 -32 35.5t-49.5 22t-58.5 7.5q-34 0 -68 -9t-60 -24l-67 -473h-23l69 489q35 21 76.5 30t82.5 9z" />
    <glyph glyph-name="uni0446.loclBGR" horiz-adv-x="534" 
d="M209 -10q-33 0 -63 9.5t-52 28.5t-33 48q-8 19 -8 43q0 10 2 22l53 377h22l-53 -377q-2 -10 -2 -19q0 -20 8 -37q11 -24 30.5 -40.5t45.5 -24.5t53 -8q18 0 39.5 2t43.5 6t42.5 10.5t36.5 14.5l66 473h23l-65 -468h68q-8 -44 -17.5 -90t-20.5 -89h-18l26 155h-48
q-41 -19 -86 -27.5t-93 -8.5z" />
    <glyph glyph-name="uni0448.loclBGR" horiz-adv-x="794" 
d="M521 -10q-23 0 -46 4t-44 13t-38 25t-27 40q-39 -50 -76.5 -66t-80.5 -16q-36 0 -66.5 9.5t-52 29t-32.5 49.5q-6 18 -6 41q0 13 2 27l52 372h23l-52 -370q-2 -12 -2 -24q0 -21 7 -38q9 -26 28.5 -42.5t45.5 -24t54 -7.5q27 0 52.5 7.5t46.5 22t35 35.5t18 49l55 392h22
l-55 -392q-1 -7 -1 -14q0 -20 8 -35q11 -21 32 -35.5t49.5 -22t58.5 -7.5q34 0 65.5 9t57.5 24l66 473h23l-68 -489q-35 -21 -74 -30t-80 -9z" />
    <glyph glyph-name="uni0449.loclBGR" horiz-adv-x="815" 
d="M519 -10q-23 0 -46 4t-44 13t-38 25t-27 40q-20 -25 -38.5 -41t-37 -25t-38.5 -12.5t-41 -3.5q-36 0 -66.5 9.5t-52 29t-32.5 49.5q-6 18 -6 41q0 13 2 27l52 372h23l-52 -370q-2 -12 -2 -24q0 -21 7 -38q9 -26 28.5 -42.5t45.5 -24t54 -7.5q27 0 52.5 8.5t46 24
t34.5 36.5t17 45l55 392h22l-55 -392q-1 -7 -1 -14q0 -20 8 -35q11 -21 32 -35.5t49.5 -22t58.5 -7.5q34 0 66.5 9t58.5 24l66 473h23l-65 -468h68q-8 -44 -17.5 -90t-20.5 -89h-18l26 155h-48q-33 -20 -70 -28t-79 -8z" />
    <glyph glyph-name="uni044E.loclBGR" horiz-adv-x="699" 
d="M483 529q33 0 64 -10t53.5 -28.5t33.5 -46.5q8 -19 8 -42q0 -12 -2 -25l-33 -236q-5 -38 -24.5 -66.5t-47.5 -47t-61.5 -28.5t-66.5 -10q-34 0 -65 10t-53.5 28.5t-34.5 46.5q-8 20 -8 45q0 10 2 22l17 121h-169l-37 -262h-22l100 708h22l-59 -422h169l12 91
q6 38 25.5 66.5t47.5 47t61.5 28.5t67.5 10zM480 506q-29 0 -58 -7.5t-54 -23t-42.5 -40t-22.5 -58.5l-33 -236q-2 -11 -2 -20q0 -22 8 -39q11 -24 31 -40t47 -23.5t56 -7.5q28 0 57 7.5t54 23.5t42 40.5t22 58.5l33 236q2 11 2 21q0 21 -8 38q-10 24 -30 39.5t-47 23
t-55 7.5z" />
    <glyph glyph-name=".ttfautohint" horiz-adv-x="267" 
d="M0 0z" />
    </font>
</defs>
</svg>
