<?xml version="1.0" standalone="no"?>
<!DOCTYPE svg PUBLIC "-//W3C//DTD SVG 1.1//EN" "http://www.w3.org/Graphics/SVG/1.1/DTD/svg11.dtd" >
<svg xmlns="http://www.w3.org/2000/svg" xmlns:xlink="http://www.w3.org/1999/xlink" version="1.1">
<metadata>
Created by FontForge 20161013 at Sun Mar  1 19:23:46 2015
 By ,,,
Copyright (c) 2014 by (c) 2009 Designed by Svetoslav Simov (c) Fontfabric, Inc. All rights reserved.
</metadata>
<defs>
<font id="UniSansThin" horiz-adv-x="486" >
  <font-face 
    font-family="UniSansThin"
    font-weight="400"
    font-stretch="normal"
    units-per-em="1000"
    panose-1="0 0 5 0 0 0 0 0 0 0"
    ascent="789"
    descent="-211"
    x-height="518"
    cap-height="708"
    bbox="-31 -249 981 921"
    underline-thickness="50"
    underline-position="-150"
    unicode-range="U+0020-FB02"
  />
<missing-glyph horiz-adv-x="563" 
d="M512 0h-466v708h466v-708zM279 363l202 329h-404zM62 688v-667l208 329zM288 350l208 -329v667zM77 16h404l-202 320z" />
    <glyph glyph-name="fi" unicode="fi" horiz-adv-x="453" 
d="M333 656q0 13 9 22t22 9t22 -9t9 -22t-9 -22t-22 -9t-22 9t-9 22zM372 0h-24v518h24v-518zM208 698q-19 0 -35 -6q-22 -8 -37.5 -25.5t-23.5 -42t-8 -54.5v-71h112v-20h-112v-479h-22v570q0 34 10 62.5t28.5 48t44.5 29.5q22 8 47 8h11v-21q-8 1 -15 1z" />
    <glyph glyph-name="fl" unicode="fl" horiz-adv-x="475" 
d="M339 143v575h22v-575q0 -57 23.5 -90t78.5 -35v-22q-57 5 -90.5 38.5t-33.5 108.5zM207 698q-19 0 -35 -6q-22 -8 -37.5 -25.5t-23.5 -42t-8 -54.5v-71h112v-20h-112v-479h-22v570q0 34 10 62.5t28.5 48t44.5 29.5q22 8 47 8h11v-21q-8 1 -15 1z" />
    <glyph glyph-name=".notdef" horiz-adv-x="563" 
d="M512 0h-466v708h466v-708zM279 363l202 329h-404zM62 688v-667l208 329zM288 350l208 -329v667zM77 16h404l-202 320z" />
    <glyph glyph-name=".null" horiz-adv-x="0" 
 />
    <glyph glyph-name="nonmarkingreturn" horiz-adv-x="333" 
 />
    <glyph glyph-name="space" unicode=" " horiz-adv-x="246" 
 />
    <glyph glyph-name="exclam" unicode="!" horiz-adv-x="194" 
d="M84 709h25v-577h-25v577zM66 30q0 13 9 22t22 9t22 -9t9 -22t-9 -22t-22 -9t-22 9t-9 22z" />
    <glyph glyph-name="quotedbl" unicode="&#x22;" horiz-adv-x="266" 
d="M170 532v177h27l-8 -177h-19zM78 532v177h27l-8 -177h-19z" />
    <glyph glyph-name="numbersign" unicode="#" horiz-adv-x="728" 
d="M641 259l-6 -20h-185l-72 -239h-24l73 239h-200l-72 -239h-24l73 239h-160l5 20h162l57 195h-184l6 21h185l69 234h23l-70 -234h201l68 234h25l-71 -234h163l-7 -21h-164l-56 -195h185zM233 259h201l57 195h-201z" />
    <glyph glyph-name="dollar" unicode="$" horiz-adv-x="586" 
d="M531 172q0 -45 -19.5 -79t-51.5 -57t-72 -35t-82 -12v-84h-20v84q-32 0 -64 6.5t-62 20.5t-56 35.5t-45 50.5l23 10q33 -48 88.5 -74t115.5 -26v339q-39 8 -78.5 20.5t-71 34t-51.5 54t-20 82.5q0 46 19 79t50 54t70.5 31.5t81.5 11.5v71h20v-71q65 -2 120 -28t87 -81
l-23 -9q-26 45 -77 68.5t-107 25.5v-322q42 -9 82.5 -22t72 -35.5t51 -57t19.5 -85.5zM90 542q0 -38 15.5 -65.5t42 -47t62 -32t76.5 -21.5v318q-37 -1 -72 -10.5t-62.5 -28.5t-44.5 -47t-17 -66zM503 172q0 43 -16 72t-43 49t-63 32.5t-75 21.5v-335q35 0 70.5 10
t63.5 30.5t45.5 50.5t17.5 69z" />
    <glyph glyph-name="percent" unicode="%" horiz-adv-x="714" 
d="M123 -48q-6 3 -11 6.5t-10 6.5l492 778l20 -12zM324 525q0 -84 -39 -132t-99 -48q-66 0 -102 46.5t-36 135.5q0 88 39 133.5t99 45.5q65 0 101.5 -47t36.5 -134zM296 525q0 81 -29.5 118t-81.5 37q-56 0 -82 -38t-26 -115q0 -83 26 -119t83 -36q55 0 82.5 36.5
t27.5 116.5zM666 173q0 -84 -39 -132t-99 -48q-66 0 -102 46.5t-36 135.5q0 88 39 133.5t99 45.5q65 0 101.5 -47t36.5 -134zM638 172q0 81 -30 118t-82 37q-109 0 -109 -152q0 -83 26.5 -119t83.5 -36q55 0 83 36.5t28 115.5z" />
    <glyph glyph-name="ampersand" unicode="&#x26;" horiz-adv-x="609" 
d="M243 -4q-41 0 -76.5 12.5t-61.5 36.5t-41.5 57.5t-15.5 75.5q0 36 14 68t37 59t52.5 49.5t61.5 41.5q-17 19 -33 40.5t-29 43t-21 44t-8 43.5q0 33 13 59.5t35 45t50.5 28.5t59.5 10q27 0 52.5 -10t45 -27.5t31 -41.5t11.5 -53q0 -33 -12.5 -59.5t-33.5 -47.5t-47.5 -38
t-53.5 -31l-23 -14l203 -223l62 98l17 -9l-63 -103l110 -125h-29l-92 103q-46 -62 -96.5 -97.5t-118.5 -35.5zM277 688q-26 0 -49.5 -9t-41.5 -24.5t-28.5 -37.5t-10.5 -48q0 -21 8.5 -43.5t22 -44.5t28.5 -41.5t29 -34.5q31 16 60.5 33t51.5 37t35.5 44.5t13.5 54.5
q0 51 -33.5 82.5t-85.5 31.5zM73 180q0 -75 47 -119t131 -44q31 0 58.5 11t51.5 29t44.5 40.5t36.5 45.5l-214 239q-27 -16 -54.5 -36.5t-50 -45.5t-36.5 -55t-14 -65z" />
    <glyph glyph-name="quotesingle" unicode="'" horiz-adv-x="178" 
d="M78 531v177h27l-8 -177h-19z" />
    <glyph glyph-name="parenleft" unicode="(" horiz-adv-x="246" 
d="M86 341q0 -109 30.5 -214.5t93.5 -195.5l-19 -11q-66 94 -98.5 202.5t-32.5 220.5q0 111 32 218t95 201l18 -14q-60 -88 -89.5 -192.5t-29.5 -214.5z" />
    <glyph glyph-name="parenright" unicode=")" horiz-adv-x="246" 
d="M159 312q0 112 -31 220.5t-91 205.5l16 10l-1 -1q1 0 2 1t3 2q64 -94 96.5 -206.5t32.5 -229.5q0 -114 -30.5 -222t-94.5 -202l-21 13q61 94 90 198t29 211z" />
    <glyph glyph-name="asterisk" unicode="*" horiz-adv-x="442" 
d="M61 597.5q0 4.5 2 8.5l152 -51q0 36 -1 76.5t-1 77.5h20l-2 -155q36 11 60 19t40 14t26.5 10.5t20.5 7.5l6 -20l-147 -46l95 -130l-16 -11l-94 130q-21 -31 -47 -65.5t-47 -64.5l-16 13l99 128q-36 11 -75.5 23.5t-76.5 23.5q2 7 2 11.5z" />
    <glyph glyph-name="plus" unicode="+" horiz-adv-x="577" 
d="M282 578h22v-226h223v-23h-223v-227h-22v227h-231v23h231v226z" />
    <glyph glyph-name="comma" unicode="," horiz-adv-x="194" 
d="M53 -121h-22l55 162h35z" />
    <glyph glyph-name="hyphen" unicode="-" horiz-adv-x="419" 
d="M344 288h-269v24h269v-24z" />
    <glyph glyph-name="period" unicode="." horiz-adv-x="214" 
d="M76 28q0 13 9 22t22 9t22 -9t9 -22t-9 -22t-22 -9t-22 9t-9 22z" />
    <glyph glyph-name="slash" unicode="/" horiz-adv-x="372" 
d="M341 717q-48 -122 -85 -215t-65 -164t-48.5 -123.5t-36.5 -93.5t-29 -73t-25 -63q-14 4 -16.5 4.5t-4.5 1.5l292 732z" />
    <glyph glyph-name="zero" unicode="0" horiz-adv-x="625" 
d="M313 -10q-42 0 -85 11.5t-77 34.5t-55.5 59t-21.5 84v350q0 49 21.5 84.5t55.5 58.5t77 34.5t85 11.5t84.5 -11.5t76.5 -34.5t55.5 -58.5t21.5 -84.5v-350q0 -48 -21.5 -84t-55.5 -59t-76.5 -34.5t-84.5 -11.5zM99 179q0 -45 19.5 -76.5t50.5 -51t69 -27.5q7 -2 17 -3.5
t19.5 -2.5t18 -1.5t14.5 -1l6 -0.5q36 0 74 8.5t69 28t50.5 51t19.5 76.5v350q0 46 -19.5 77t-50.5 50.5t-69 28t-74 8.5q-37 0 -75 -8.5t-69 -28t-50.5 -50.5t-19.5 -77v-350z" />
    <glyph glyph-name="one" unicode="1" horiz-adv-x="292" 
d="M200 0h-24v683l-139 -147l-16 14l145 158h34v-708z" />
    <glyph glyph-name="two" unicode="2" horiz-adv-x="549" 
d="M262 693q-60 0 -106 -25q-48 -26 -75 -78l-22 10q29 61 80.5 89t132.5 29q47 0 87 -14.5t69 -40t45 -59.5t16 -73q0 -40 -22.5 -84t-62.5 -86l-322 -336h408v-25h-435l-11 23l341 357q36 38 57 77t21 75q0 32 -13.5 60.5t-38.5 50.5t-60.5 35t-79.5 15h-9z" />
    <glyph glyph-name="three" unicode="3" horiz-adv-x="568" 
d="M483 187q0 93 -51 139t-138 46h-4h-68v24h68q70 0 115.5 37.5t45.5 112.5q0 39 -16.5 67t-42.5 46t-59.5 27t-67.5 9q-54 0 -99 -18.5t-72 -58.5l-20 10q31 48 80.5 69t112.5 21q39 0 76.5 -10.5t66.5 -31.5t47 -53.5t18 -76.5q0 -22 -4 -45t-15.5 -44t-30.5 -39t-49 -31
q40 -15 65.5 -36t40.5 -47t20.5 -56t5.5 -62q-1 -48 -21.5 -85t-54.5 -61.5t-76.5 -37t-87.5 -12.5q-72 0 -128.5 24.5t-94.5 80.5l21 13q36 -50 85 -72t117 -22q40 0 79 11t69 32.5t48.5 54t18.5 75.5z" />
    <glyph glyph-name="four" unicode="4" horiz-adv-x="571" 
d="M524 222v-23h-69v-199h-25v199h-384l-16 30l390 479h35v-486h69zM55 222h375l1 462z" />
    <glyph glyph-name="five" unicode="5" horiz-adv-x="574" 
d="M279 15q45 0 84.5 11.5t68.5 38.5t46 72t17 113q0 43 -17 77t-46 57t-67 35.5t-79 12.5q-56 0 -101 -10.5t-94 -35.5l-11 -1v323h404v-23h-379v-267q51 22 95 30q40 8 78 8h9q43 0 84.5 -12.5t74.5 -38t53.5 -64t21.5 -90.5q0 -59 -13 -107t-42 -82.5t-75 -53.5t-112 -19
q-67 0 -125 25t-93 79l24 12q29 -43 82.5 -66.5t111.5 -23.5z" />
    <glyph glyph-name="six" unicode="6" horiz-adv-x="618" 
d="M320 694q-42 0 -82 -10t-71 -31t-49.5 -52t-18.5 -73v-208q19 34 46 55.5t57 33.5t60.5 16.5t57.5 4.5q46 0 89 -12t77 -36t54.5 -59t20.5 -82v-62q0 -47 -20.5 -82.5t-54.5 -59t-77 -35.5t-89 -12t-90.5 11.5t-79 35.5t-55.5 59.5t-21 82.5v350q0 47 21 82.5t55.5 59.5
t79 35.5t90.5 11.5q68 0 125 -23t89 -73l-23 -12q-28 45 -79.5 64.5t-111.5 19.5zM536 240q0 42 -18 73t-48 51.5t-69 31t-81 10.5t-82 -10t-71 -31t-49.5 -52t-18.5 -73v-60q0 -42 18.5 -73t49.5 -52t71 -31t82 -10t81 10.5t69 31t48 51.5t18 73v60z" />
    <glyph glyph-name="seven" unicode="7" horiz-adv-x="493" 
d="M38 708h419l14 -24l-374 -684h-28l373 684h-404v24z" />
    <glyph glyph-name="eight" unicode="8" horiz-adv-x="614" 
d="M297 -10q-45 0 -87.5 13.5t-75.5 39t-53.5 63t-21.5 85.5q0 72 33.5 120t108.5 71q-32 10 -52.5 28.5t-33.5 40.5t-18 46.5t-5 48.5q0 43 17.5 75t46 53.5t65.5 32.5t76 11h19q39 0 75.5 -11t65.5 -32.5t46.5 -53.5t17.5 -75q0 -23 -5 -47t-17.5 -46t-33.5 -40.5
t-52 -29.5q141 -39 142 -192q-1 -48 -21.5 -85.5t-54 -63t-76 -39t-87.5 -13.5h-19zM297 696q-35 0 -67.5 -9t-58 -27.5t-41 -46.5t-15.5 -67q0 -44 16 -73.5t41.5 -47.5t58.5 -25.5t66 -7.5h19q33 0 66 7.5t58.5 25.5t41.5 47.5t16 73.5q0 39 -15.5 67t-41 46.5t-58 27.5
t-67.5 9h-19zM530 192q0 53 -17.5 88t-47.5 55.5t-68.5 28.5t-80.5 8h-19q-42 0 -80.5 -8t-68.5 -28.5t-47.5 -55.5t-17.5 -88q0 -46 19.5 -79.5t50.5 -55.5t69 -33t75 -11h19q37 0 75 11t69 33t50.5 55.5t19.5 79.5z" />
    <glyph glyph-name="nine" unicode="9" horiz-adv-x="618" 
d="M298 14q42 0 82 10.5t71 32t49.5 53t18.5 73.5v197q-24 -35 -51 -55.5t-56 -31t-58 -13t-56 -2.5q-46 0 -89.5 12t-77 36t-54 59t-20.5 82v62q0 47 20.5 82.5t54 59t77 35.5t89.5 12t90 -11t78.5 -34.5t55.5 -59.5t22 -84v-349q0 -47 -21 -83t-55.5 -60t-79 -35.5
t-90.5 -11.5q-69 0 -124.5 24t-88.5 76l24 12q28 -45 78.5 -66.5t110.5 -21.5zM82 468q0 -42 18 -73t48 -51.5t69 -31t81 -10.5t82 10t71 31t50 52t19 73v60q0 42 -19 73t-50 52t-71 31t-82 10t-81 -10.5t-69 -31t-48 -51.5t-18 -73v-60z" />
    <glyph glyph-name="colon" unicode=":" horiz-adv-x="214" 
d="M76 57q0 13 9 22t22 9t22 -9t9 -22t-9 -22t-22 -9t-22 9t-9 22zM76 435q0 13 9 22t22 9t22 -9t9 -22t-9 -22t-22 -9t-22 9t-9 22z" />
    <glyph glyph-name="semicolon" unicode=";" horiz-adv-x="274" 
d="M109 -99h-22l50 149h33zM111 420q0 13 9 22t22 9t22 -9t9 -22t-9 -22t-22 -9t-22 9t-9 22z" />
    <glyph glyph-name="less" unicode="&#x3c;" horiz-adv-x="442" 
d="M370 128v-25q-82 49 -161 93.5t-161 93.5v26l322 190v-26l-300 -177z" />
    <glyph glyph-name="equal" unicode="=" horiz-adv-x="529" 
d="M451 360h-373v22h373v-22zM451 222h-373v22h373v-22z" />
    <glyph glyph-name="greater" unicode="&#x3e;" horiz-adv-x="446" 
d="M72 506q82 -50 162.5 -95t162.5 -95v-26l-325 -187v23l304 177q-73 42 -151.5 88.5t-152.5 88.5v26z" />
    <glyph glyph-name="question" unicode="?" horiz-adv-x="452" 
d="M201 713q39 0 76.5 -12t67 -35.5t47 -59t17.5 -81.5q0 -47 -17.5 -84.5t-46 -64.5t-65.5 -43t-77 -20l-6 -193h-18l-4 210q42 3 80.5 17.5t67.5 40t47 60.5q16 33 16 73q0 44 -17 77q-16 31 -42 51.5t-59.5 30.5t-68.5 10q-38 0 -79.5 -17.5t-70.5 -42.5l-14 14
q32 31 76 50t90 19zM161 24q0 13 9 22t22 9t22 -9t9 -22t-9 -22t-22 -9t-22 9t-9 22z" />
    <glyph glyph-name="at" unicode="@" horiz-adv-x="779" 
d="M527 121q34 0 66.5 20.5t58 55t41 79.5t15.5 95q0 61 -24.5 109t-65.5 82t-95 52t-112 18q-73 0 -133.5 -25.5t-104 -70.5t-67.5 -105.5t-24 -129.5q0 -88 33.5 -154t89.5 -105t129 -48q19 -3 39 -3q54 0 112 19l6 -19q-61 -20 -120 -20q-20 0 -41 3q-77 9 -137 50
t-96 111.5t-36 165.5q0 76 27 140.5t74.5 111.5t111 73.5t135.5 26.5q68 0 126.5 -20.5t102 -57.5t68 -89t24.5 -115q0 -64 -21 -115.5t-53.5 -87t-69.5 -53.5q-34 -16 -64 -16h-7q-12 1 -22.5 5t-17.5 13.5t-9 24.5v8q0 13 4 31q-37 -51 -74 -68t-71 -17q-29 0 -50.5 10.5
t-35.5 28t-21.5 41t-7.5 49.5q0 49 14.5 98t42.5 87t67.5 62t89.5 24q14 0 31.5 -3.5t34 -14.5t29 -32t15.5 -56l5 -1l30 85h21l-88 -262q-5 -15 -9.5 -31t-4 -29.5t9 -22t29.5 -8.5zM230 227q0 -48 27 -79.5t73 -31.5q30 0 57 15.5t49.5 40t39.5 55.5t28 63q10 30 12 64
q1 7 1 14q0 25 -7 47q-8 28 -30 46q-18 15 -49 15h-11h-4q-45 0 -80 -24t-58.5 -61.5t-35.5 -81.5t-12 -82z" />
    <glyph glyph-name="A" unicode="A" horiz-adv-x="600" 
d="M45 0h-27l262 708h40l262 -708h-27l-94 253h-322zM298 684l-150 -406h304l-150 406h-4z" />
    <glyph glyph-name="B" unicode="B" horiz-adv-x="627" 
d="M351 0h-258v708h259q39 0 73 -11t58.5 -33t39 -54t14.5 -74q0 -45 -17 -83t-54 -60l-31 -17l35 -12q29 -12 48.5 -32t31.5 -44t16.5 -49.5t4.5 -49.5q-1 -55 -18.5 -91.5t-46.5 -58t-69 -30.5t-86 -9zM352 387q35 0 64.5 9t51 27t33.5 46t12 66q0 37 -12.5 65t-34.5 47
t-51 28.5t-63 9.5h-234v-298h234zM361 24q37 0 69 8q36 8 61.5 28t40 52t14.5 78q0 93 -52 134q-52 39 -138 39h-4h-234v-339h234h9z" />
    <glyph glyph-name="C" unicode="C" horiz-adv-x="584" 
d="M78 520q0 49 21.5 86t57 62t80.5 37.5t92 12.5q67 0 127.5 -25.5t92.5 -76.5l-22 -16q-28 46 -84 70t-117 24q-41 0 -81 -11t-71.5 -32.5t-51 -54.5t-19.5 -76v-332q0 -44 19.5 -76t51 -54t71.5 -32.5t81 -10.5q30 0 59.5 5.5t56 16.5t48.5 27.5t37 39.5l22 -11
q-32 -51 -93.5 -77t-129.5 -26q-46 0 -90.5 12.5t-79.5 37.5t-56.5 62t-21.5 86v332z" />
    <glyph glyph-name="D" unicode="D" horiz-adv-x="641" 
d="M332 708q46 0 87.5 -11t73 -34t49.5 -59t18 -86v-329q0 -50 -18 -85.5t-49.5 -58.5t-73 -34t-87.5 -11h-239v708h239zM332 25q42 0 79 9t64.5 29t43.5 51t16 75v329q0 44 -16 75.5t-43.5 51.5t-64.5 29t-79 9h-214v-658h214z" />
    <glyph glyph-name="E" unicode="E" horiz-adv-x="565" 
d="M118 366h366v-27h-366v-314h396v-25h-421v708h421v-25h-396v-317z" />
    <glyph glyph-name="F" unicode="F" horiz-adv-x="538" 
d="M118 683v-330h348v-25h-348v-328h-25v708h408v-25h-383z" />
    <glyph glyph-name="G" unicode="G" horiz-adv-x="634" 
d="M78 520q0 49 21.5 86t56 62t79 37.5t91.5 12.5q67 0 127 -26t92 -77l-23 -15q-14 24 -35 42t-47 29t-56 16.5t-60 5.5q-42 0 -81.5 -10.5t-70.5 -32.5t-50 -54.5t-19 -75.5v-329q0 -44 19 -77.5t50.5 -55.5t71.5 -33t82 -11t82 11t71.5 33t51 55.5t19.5 77.5v134h-217v24
h242v-158q0 -50 -21.5 -88t-56.5 -63t-80 -37.5t-91 -12.5q-47 0 -91.5 12.5t-79 37.5t-56 63t-21.5 88v329z" />
    <glyph glyph-name="H" unicode="H" horiz-adv-x="683" 
d="M118 0h-25v708h25v-342h447v342h25v-708h-25v341h-447v-341z" />
    <glyph glyph-name="I" unicode="I" horiz-adv-x="211" 
d="M118 0h-25v708h25v-708z" />
    <glyph glyph-name="J" unicode="J" horiz-adv-x="577" 
d="M228 708h261v-521q0 -49 -20.5 -86t-54 -61.5t-76 -37t-87.5 -12.5q-37 0 -72.5 9t-65.5 27t-52.5 45t-33.5 62l25 8q11 -34 33 -58t49 -39.5t58 -22.5l60 -7q39 0 77 10.5t68 32t48.5 54t18.5 76.5v498h-236v23z" />
    <glyph glyph-name="K" unicode="K" horiz-adv-x="591" 
d="M118 0h-25v708h25v-430l419 430h32l-327 -341l327 -367h-29l-316 349l-106 -106v-243z" />
    <glyph glyph-name="L" unicode="L" horiz-adv-x="493" 
d="M93 0v708h25v-683h354v-25h-379z" />
    <glyph glyph-name="M" unicode="M" horiz-adv-x="797" 
d="M118 0h-25v708h53l253 -573l252 573h53v-708h-25v690h-9l-254 -578h-34l-255 571l-9 -1v-682z" />
    <glyph glyph-name="N" unicode="N" horiz-adv-x="671" 
d="M553 708h25v-708h-43l-415 676l-1 -676h-26v708h39l421 -684v684z" />
    <glyph glyph-name="O" unicode="O" horiz-adv-x="682" 
d="M77 518q0 50 22.5 87.5t59.5 62.5t84 37.5t97 12.5q49 0 96.5 -12.5t85 -37.5t60 -62.5t22.5 -87.5v-327q0 -50 -22.5 -87.5t-60 -63t-85 -38t-96.5 -12.5q-50 0 -97 12.5t-84 38t-59.5 63t-22.5 87.5v327zM102 191q0 -44 20.5 -77t53.5 -55t76 -33t88 -11t87.5 11
t76.5 33t54.5 55t20.5 77v327q0 46 -21 79.5t-54.5 55t-76.5 31.5t-88 10t-87.5 -10.5t-75.5 -32t-53.5 -54.5t-20.5 -79v-327z" />
    <glyph glyph-name="P" unicode="P" horiz-adv-x="602" 
d="M93 0v708h250q54 -1 94.5 -20t68 -49.5t41 -68.5t13.5 -77t-13.5 -76.5t-40.5 -67.5t-67.5 -48.5t-94.5 -18.5h-226v-282h-25zM343 307q49 0 85 16.5t60 42.5t35.5 59.5t11.5 68.5t-12 69t-36 61t-60 44t-84 17h-225v-378h225z" />
    <glyph glyph-name="Q" unicode="Q" horiz-adv-x="682" 
d="M78 191v327q0 50 22.5 87.5t59.5 62.5t84 37.5t97 12.5q49 0 96.5 -12.5t84.5 -37.5t59.5 -62.5t22.5 -87.5v-327q0 -47 -15 -75.5t-42 -56.5l53 -63l-19 -13l-52 61q-42 -29 -91 -41.5t-97 -12.5q-50 0 -97 12.5t-84 38t-59.5 63t-22.5 87.5zM579 191v327q0 44 -20.5 77
t-54 55t-76 33t-87.5 11t-87.5 -10.5t-76 -32t-54 -54.5t-20.5 -79v-327q0 -43 20.5 -76t53.5 -55.5t76 -34t88 -11.5q44 0 89 12t85 38l-62 78l19 14l59 -77q29 23 38.5 53t9.5 59z" />
    <glyph glyph-name="R" unicode="R" horiz-adv-x="611" 
d="M117 316v-316h-24v708h250q46 0 86 -10t69 -32.5t46.5 -59t18.5 -90.5q0 -55 -16 -93t-45 -62t-69.5 -34.5t-88.5 -10.5h-38l239 -316h-29l-238 316h-161zM344 338q97 0 146 41.5t49 135.5q0 48 -14.5 81t-40.5 53t-62 29q-32 7 -69 7h-9h-227v-347h227z" />
    <glyph glyph-name="S" unicode="S" horiz-adv-x="579" 
d="M86 534q0 -32 13 -56q16 -29 45 -49t68 -33t82 -22t86.5 -23t77 -38t52.5 -60q17 -30 17 -71q0 -8 -1 -17q-3 -43 -24.5 -75.5t-54.5 -54.5t-74.5 -33.5t-84.5 -11.5q-33 0 -66 6.5t-63.5 20.5t-57 35.5t-46.5 51.5l23 10q35 -50 92 -75t120 -25q37 0 72 9t64 27.5
t48.5 47t24.5 67.5v14q0 38 -14 65q-17 31 -47 51.5t-69.5 33t-80.5 21.5q-40 8 -81 21t-74.5 35t-53.5 56q-18 31 -18 75v9q1 44 21 76.5t52 53.5t72.5 31.5t82.5 10.5q69 0 128 -25.5t92 -83.5l-23 -9q-14 24 -35.5 41.5t-47.5 29.5t-55 17.5t-59 5.5q-38 0 -73 -8
t-63 -26t-46 -46t-21 -68v-12z" />
    <glyph glyph-name="T" unicode="T" horiz-adv-x="541" 
d="M519 683h-236v-683h-25v683h-236v25h497v-25z" />
    <glyph glyph-name="U" unicode="U" horiz-adv-x="673" 
d="M113 194q0 -45 19 -79t50.5 -56.5t71.5 -33.5t82 -11t82 11t71.5 33.5t51 56.5t19.5 79v514h25v-514q0 -51 -21.5 -89t-56.5 -63.5t-80 -38.5t-91 -13q-47 0 -91.5 13t-79 38.5t-56 63.5t-21.5 89v514h25v-514z" />
    <glyph glyph-name="V" unicode="V" horiz-adv-x="602" 
d="M582 709l-260 -709h-40l-266 708h29l255 -679h5l249 680h28z" />
    <glyph glyph-name="W" unicode="W" horiz-adv-x="927" 
d="M901 708l-207 -708h-41l-189 578l-190 -578h-39l-210 708h27l201 -673h5l189 567h33l190 -569h6l198 675h27z" />
    <glyph glyph-name="X" unicode="X" horiz-adv-x="547" 
d="M520 0h-29l-217 336l-217 -336h-31l233 353l-232 355h28l219 -332l218 332h29l-233 -355z" />
    <glyph glyph-name="Y" unicode="Y" horiz-adv-x="550" 
d="M286 0h-25v281l-242 427h30l225 -399l232 399h31l-251 -427v-281z" />
    <glyph glyph-name="Z" unicode="Z" horiz-adv-x="550" 
d="M49 708h460l9 -13l-455 -673h441v-22h-465l-10 12l455 674h-435v22z" />
    <glyph glyph-name="bracketleft" unicode="[" horiz-adv-x="237" 
d="M103 -98h92v-22h-116v871h116v-21h-92v-828z" />
    <glyph glyph-name="backslash" unicode="\" horiz-adv-x="385" 
d="M29 741l19 7l309 -770l-22 -7z" />
    <glyph glyph-name="bracketright" unicode="]" horiz-adv-x="238" 
d="M133 727h-90v24h116v-877h-116v25h90v828z" />
    <glyph glyph-name="asciicircum" unicode="^" horiz-adv-x="509" 
d="M265 708q45 -66 89.5 -129.5t92.5 -126.5h-27l-169 239l-163 -239h-27l176 256h28z" />
    <glyph glyph-name="underscore" unicode="_" horiz-adv-x="590" 
d="M528 -43h-466v22h466v-22z" />
    <glyph glyph-name="grave" unicode="`" horiz-adv-x="210" 
d="M22 862h35l62 -103h-25z" />
    <glyph glyph-name="a" unicode="a" horiz-adv-x="482" 
d="M384 383q0 33 -12.5 56.5t-34 38.5t-49.5 22t-58 7q-40 0 -71 -9.5t-63 -37.5l-13 14q32 30 69 41.5t79 12.5h7q30 0 58 -8q32 -8 56 -26t38.5 -46t14.5 -65v-365q-48 -15 -95.5 -21.5t-98.5 -6.5q-34 0 -64 10.5t-52 30t-35 48t-13 65.5q0 41 16 71t41.5 50t58.5 30
t69 10q34 0 73.5 -7.5t78.5 -24.5v110zM230 285q-32 0 -60.5 -8t-51 -25.5t-36 -44t-13.5 -63.5q0 -35 11 -60t30.5 -41.5t46 -24.5t57.5 -8h13q33 0 65 4q40 5 77 14l15 5v220q-38 16 -74.5 24t-79.5 8z" />
    <glyph glyph-name="b" unicode="b" horiz-adv-x="509" 
d="M261 528q34 0 66 -9.5t57.5 -29t41 -47.5t15.5 -65v-230q0 -38 -15.5 -66.5t-40 -48.5t-56.5 -30.5t-65 -11.5q-47 0 -93 4.5t-90 18.5v695h22v-219q42 20 82.5 29.5t75.5 9.5zM264 11q29 0 56.5 10t49.5 27.5t35 42t13 54.5v232q0 31 -13.5 54.5t-35 40t-49.5 25.5
t-58 9q-41 0 -77.5 -10.5t-81.5 -32.5v-432q38 -13 83.5 -16.5t77.5 -3.5z" />
    <glyph glyph-name="c" unicode="c" horiz-adv-x="455" 
d="M248 506q-30 0 -58 -7.5t-50 -23.5t-35.5 -39.5t-13.5 -56.5v-237q0 -33 14 -57.5t36.5 -40.5t50.5 -23.5t56 -7.5q45 0 85.5 18t59.5 56l21 -10q-23 -42 -68.5 -64t-97.5 -22q-33 0 -65.5 9.5t-57.5 28t-40.5 47t-15.5 66.5v235q0 38 15.5 66.5t40.5 47t57.5 28
t65.5 9.5q46 0 87 -16t66 -51l-17 -11q-22 30 -58 43t-78 13z" />
    <glyph glyph-name="d" unicode="d" horiz-adv-x="513" 
d="M248 -9q-33 0 -65 8.5t-57 26.5t-40 46.5t-15 69.5v234q0 38 15.5 66.5t41 47.5t57.5 28.5t66 9.5q35 0 75 -6.5t83 -26.5v213h23v-691q-44 -14 -90.5 -20t-93.5 -6zM250 505q-30 0 -58.5 -8t-50 -24t-34.5 -39.5t-13 -56.5v-235q0 -33 13 -57t34.5 -39.5t49 -23
t57.5 -7.5q38 0 77.5 4t83.5 18v432q-83 36 -159 36z" />
    <glyph glyph-name="e" unicode="e" 
d="M92 141q0 -33 13 -57.5t35 -40t50.5 -23t58.5 -7.5q42 0 80.5 15t59.5 48l20 -11q-23 -39 -67 -57t-93 -18q-34 0 -66 9.5t-57.5 28t-41 47t-15.5 66.5v236q0 38 15.5 66.5t41 47t57.5 28t66 9.5q33 0 65.5 -9.5t57.5 -28t40.5 -47t15.5 -66.5v-138h-336v-98zM406 379
q0 33 -13.5 57t-35.5 39.5t-50.5 23.5t-57.5 8q-30 0 -58.5 -8t-50.5 -23.5t-35 -39.5t-13 -57v-119h314v119z" />
    <glyph glyph-name="f" unicode="f" horiz-adv-x="244" 
d="M208 698q-19 0 -35 -6q-22 -8 -37.5 -25.5t-23.5 -42t-8 -54.5v-71h112v-20h-112v-479h-22v570q0 34 10 62.5t28.5 48t44.5 29.5q22 8 47 8h11v-21q-8 1 -15 1z" />
    <glyph glyph-name="g" unicode="g" horiz-adv-x="504" 
d="M249 -168q29 0 56.5 7t49.5 22t35 38.5t13 56.5v74q-45 -22 -83 -30.5t-73 -8.5q-33 0 -65 9.5t-57 28.5t-40.5 47t-15.5 65v238q0 37 15 64.5t39.5 46.5t55.5 28.5t64 9.5q48 0 91 -10t90 -26v-535q0 -38 -15 -65.5t-40 -45.5t-56.5 -26.5t-64.5 -8.5q-42 0 -80.5 12
t-66.5 36l15 15q27 -20 62.5 -31t70.5 -11zM243 507q-29 0 -56.5 -8t-49 -24t-34 -40t-12.5 -55v-239q0 -32 13 -55.5t34.5 -39.5t49 -24.5t57.5 -9.5q41 1 76.5 9.5t81.5 30.5v424q-29 12 -73 21.5t-87 9.5z" />
    <glyph glyph-name="h" unicode="h" horiz-adv-x="519" 
d="M267 528q30 0 59 -8q33 -10 58 -29t40.5 -47.5t15.5 -65.5v-378h-22v378q0 33 -13.5 56.5t-35.5 39.5t-50 24t-57 8q-36 0 -76.5 -8.5t-81.5 -25.5v-472h-22v708h22v-214q42 20 82 27t75 7h6z" />
    <glyph glyph-name="i" unicode="i" horiz-adv-x="186" 
d="M65 630q0 13 9 22t22 9t22 -9t9 -22t-9 -22t-22 -9t-22 9t-9 22zM104 0h-24v518h24v-518z" />
    <glyph glyph-name="j" unicode="j" horiz-adv-x="186" 
d="M82 -22v540h22v-540q0 -71 -37 -109.5t-98 -43.5v22q54 5 83.5 37t29.5 94zM64 630q0 13 9 22t22 9t22 -9t9 -22t-9 -22t-22 -9t-22 9t-9 22z" />
    <glyph glyph-name="k" unicode="k" horiz-adv-x="464" 
d="M104 0h-22v708h22v-501l298 311h27l-219 -233l221 -285h-25l-212 269l-90 -90v-179z" />
    <glyph glyph-name="l" unicode="l" horiz-adv-x="216" 
d="M79 147v561h22v-561q0 -57 23.5 -90t78.5 -35v-22q-57 5 -90.5 38.5t-33.5 108.5z" />
    <glyph glyph-name="m" unicode="m" horiz-adv-x="806" 
d="M233 528q23 0 46.5 -4t46 -13t41.5 -25t33 -40q31 50 69 66t81 16q36 0 68 -10t56 -29.5t38.5 -49t14.5 -68.5v-371h-23v369q0 36 -13 62t-34.5 42.5t-49 24.5t-55.5 8q-27 0 -52 -7.5t-45 -22t-32 -35.5t-12 -49v-392h-22v392q0 28 -14 49t-37 35.5t-52.5 22t-59.5 7.5
q-34 0 -67 -9t-56 -24v-473h-23v489q32 21 72 30t81 9z" />
    <glyph glyph-name="n" unicode="n" horiz-adv-x="517" 
d="M438 377v-377h-22v377q0 33 -13.5 57t-35.5 40t-49 23.5t-55 7.5q-43 0 -87 -7.5t-73 -19.5v-478h-22v497q87 31 182 31q33 -1 64 -10t56 -27t40 -46.5t15 -67.5z" />
    <glyph glyph-name="o" unicode="o" horiz-adv-x="495" 
d="M68 376q0 38 15.5 66.5t41 47t57.5 28.5t66 10q33 0 65.5 -10t57.5 -28.5t40.5 -47t15.5 -66.5v-234q0 -38 -15.5 -66.5t-40.5 -47t-57.5 -28.5t-65.5 -10q-34 0 -66 10t-57.5 28.5t-41 47t-15.5 66.5v234zM248 505q-29 0 -57 -7.5t-50.5 -23t-36.5 -40t-14 -58.5v-234
q0 -34 14 -58.5t36.5 -40.5t50.5 -23.5t57 -7.5q28 0 56 7.5t50.5 23.5t36.5 40.5t14 58.5v234q0 34 -14 58.5t-36.5 40t-50.5 23t-56 7.5z" />
    <glyph glyph-name="p" unicode="p" horiz-adv-x="509" 
d="M441 371v-230q0 -37 -15.5 -65t-41 -47.5t-57.5 -29t-66 -9.5q-35 0 -75.5 9.5t-82.5 29.5v-221h-22v697q44 14 90 18.5t93 4.5q33 -1 65 -11.5t56.5 -30.5t40 -49t15.5 -66zM262 12q30 0 58 9t49.5 25.5t35 40t13.5 54.5v232q0 30 -13 54.5t-35 42t-49.5 27.5t-56.5 10
q-32 0 -77.5 -3.5t-83.5 -16.5v-432l10 -6q35 -16 73 -26.5t76 -10.5z" />
    <glyph glyph-name="q" unicode="q" horiz-adv-x="509" 
d="M248 -9q-34 0 -66 9.5t-57.5 29t-41 47.5t-15.5 65v229q0 37 15.5 66t40 49t56.5 30.5t65 11.5q47 0 93 -4.5t90 -18.5v-697h-22v222q-42 -20 -82.5 -29.5t-75.5 -9.5zM245 507q-29 0 -57 -10t-49.5 -27.5t-34.5 -42t-13 -54.5v-231q0 -31 13.5 -54.5t35 -40t49.5 -25.5
t58 -9q41 0 77.5 10.5t81.5 32.5v431q-38 13 -83.5 16.5t-77.5 3.5z" />
    <glyph glyph-name="r" unicode="r" horiz-adv-x="297" 
d="M239 528q10 0 19 -0.5t19 -1.5v-21q-14 1 -30 1q-2 1 -3 1q-15 0 -34 -4q-21 -4 -41 -14.5t-35 -26.5t-24 -37.5t-9 -47.5v-377h-22v377q0 42 15.5 70.5t39 46.5t51.5 26t54 8z" />
    <glyph glyph-name="s" unicode="s" horiz-adv-x="431" 
d="M220 12h8q20 0 43.5 7t43.5 21.5t33 36t13 51.5t-12.5 52t-32 37t-43 24t-46.5 14q-29 5 -58.5 14.5t-53 25.5t-38.5 40t-15 59q0 34 13.5 59t36 41.5t51.5 25t59 8.5q38 0 74 -13t60 -36l-14 -15q-22 21 -55 32.5t-66 11.5q-26 0 -50 -7t-43.5 -21t-31.5 -35.5
t-13 -50.5q0 -31 15.5 -52t37.5 -34t48 -20.5t47 -11.5q28 -5 55 -15.5t48.5 -28t35 -43.5t13.5 -61q0 -33 -13.5 -58.5t-35 -43t-49.5 -27t-57 -9.5q-53 0 -99 21.5t-78 64.5l18 13q32 -40 73 -59q37 -18 78 -18z" />
    <glyph glyph-name="t" unicode="t" horiz-adv-x="255" 
d="M234 0q-31 0 -58 8q-29 9 -50.5 28t-34 47.5t-12.5 67.5v486h22v-119h112v-20h-112v-347q0 -38 13 -63.5t33 -41t45 -21.5q19 -5 37 -5q6 0 12 1v-21h-7z" />
    <glyph glyph-name="u" unicode="u" horiz-adv-x="516" 
d="M254 -10q-33 0 -64.5 9.5t-56 28.5t-39.5 47.5t-15 65.5v377h22v-377q0 -32 14 -56t36 -40.5t49 -24.5t54 -8q20 0 42 2t43.5 6t40.5 9.5t34 11.5v477h22v-496q-90 -32 -182 -32z" />
    <glyph glyph-name="v" unicode="v" horiz-adv-x="464" 
d="M436 518l-188 -518h-32l-189 518h25l180 -495l180 495h24z" />
    <glyph glyph-name="w" unicode="w" horiz-adv-x="715" 
d="M185 0l-153 518h27l146 -497h3l129 497h39l131 -496h3l146 496h27l-154 -518h-42l-130 495h-2l-128 -495h-42z" />
    <glyph glyph-name="x" unicode="x" horiz-adv-x="440" 
d="M236 259l167 -259h-26l-156 243l-157 -243h-27l169 259l-169 259h28l156 -243l156 243h27z" />
    <glyph glyph-name="y" unicode="y" horiz-adv-x="518" 
d="M436 -43q0 -38 -15 -65.5t-40 -45.5t-56.5 -27t-64.5 -9q-42 0 -79.5 13t-65.5 37l14 16q33 -24 62 -33.5t70 -9.5q27 0 54 7t49 22t36 38t14 56v75q-45 -22 -82.5 -31t-72.5 -9q-34 0 -66 9.5t-57.5 28.5t-41 47t-15.5 65v377h23v-377q0 -32 13 -55.5t35 -39.5
t49.5 -24.5t57.5 -9.5q24 0 43.5 2.5t37.5 7.5t36.5 13t39.5 19v464h22v-561z" />
    <glyph glyph-name="z" unicode="z" horiz-adv-x="440" 
d="M53 518h335l10 -17l-337 -480h334v-21h-345l-14 21l334 477h-317v20z" />
    <glyph glyph-name="braceleft" unicode="{" horiz-adv-x="263" 
d="M198 727q-22 0 -33.5 -6t-17 -17.5t-6.5 -29t-1 -40.5v-146q0 -42 -6 -73t-15.5 -52.5t-21 -34t-21.5 -16.5q9 -4 19.5 -13.5t20.5 -29t16.5 -51.5t6.5 -80v-147q0 -41 11.5 -63t53.5 -22h16v-21h-17q-26 0 -43 7.5t-27 21t-13.5 33t-3.5 43.5v145q0 34 -3 62.5t-11 50
t-21.5 36t-34.5 19.5v18q21 5 34.5 21t21.5 39.5t11.5 51.5t3.5 57v145q0 24 2 45t10 36t24 23.5t44 8.5h23v-21h-22z" />
    <glyph glyph-name="bar" unicode="|" horiz-adv-x="180" 
d="M79 -161v908h22v-908h-22z" />
    <glyph glyph-name="braceright" unicode="}" horiz-adv-x="263" 
d="M66 747q25 0 41 -8t24.5 -22.5t11.5 -35.5t3 -46v-145q0 -29 3.5 -57t11.5 -51.5t21.5 -39.5t34.5 -21v-18q-21 -5 -34.5 -21t-21.5 -39t-11 -51t-3 -57v-144q0 -48 -19.5 -77t-67.5 -29h-17v21h15q42 0 54 24.5t12 60.5v145q0 48 7.5 80.5t18 53t21.5 30.5t17 15
q-11 4 -22 16.5t-20.5 34t-15.5 52.5t-6 72v144q0 22 -1 39t-6.5 29t-17.5 18.5t-34 6.5h-22v20h23z" />
    <glyph glyph-name="asciitilde" unicode="~" horiz-adv-x="530" 
d="M183 326q-32 0 -53.5 -15t-39.5 -41q-3 3 -6 7t-5 6q15 26 41 45.5t64 19.5q24 0 44.5 -11t40 -24t39.5 -24t43 -11q32 0 53.5 17.5t38.5 43.5l10 -12q-15 -29 -41 -50t-61 -21q-30 4 -45 11q-21 11 -42 24t-41.5 24t-39.5 11z" />
    <glyph glyph-name="uni00A0" unicode="&#xa0;" horiz-adv-x="246" 
 />
    <glyph glyph-name="exclamdown" unicode="&#xa1;" horiz-adv-x="189" 
d="M108 -205h-27v572h27v-572zM64 490q0 13 9 22t22 9t22 -9t9 -22t-9 -22t-22 -9t-22 9t-9 22z" />
    <glyph glyph-name="cent" unicode="&#xa2;" horiz-adv-x="465" 
d="M266 507h-8v-495q20 1 41 6.5t40 15.5t33.5 23t21.5 29l19 -9q-20 -39 -61.5 -60.5t-93.5 -26.5v-84h-21v84q-33 4 -63.5 15t-53.5 30t-37 45.5t-14 61.5v235q0 34 14 61.5t37.5 47t54 30t62.5 12.5v85h21v-85q49 -3 83.5 -19t59.5 -48l-16 -12q-19 25 -53 43
q-31 15 -66 15zM91 378v-236q0 -29 12 -51t32 -38t46.5 -26t55.5 -14v493q-28 -1 -54.5 -10t-47 -25t-32.5 -39.5t-12 -53.5z" />
    <glyph glyph-name="sterling" unicode="&#xa3;" horiz-adv-x="494" 
d="M156 362h-104v20h104v148q0 31 8.5 64.5t29.5 61t56.5 45t88.5 17.5q33 0 59.5 -8.5t52.5 -29.5l-15 -17q-20 16 -45 25t-54 9q-42 0 -72 -15t-49 -38.5t-28 -53t-9 -57.5v-151h165v-20h-165v-341h245v-21h-372v21h104v341z" />
    <glyph glyph-name="currency" unicode="&#xa4;" horiz-adv-x="617" 
d="M77 354q0 42 14 82t46 75l-52 52l13 16l52 -55q77 61 159 61q40 0 80 -14t76 -45l51 53l15 -12l-54 -56q32 -35 48 -75t16 -82t-15 -81.5t-47 -74.5l57 -55l-15 -14l-55 54q-36 -29 -76.5 -46t-80.5 -17t-80.5 16t-77.5 45l-52 -53l-14 13l54 54q-32 35 -47 76t-15 83z
M97 353q0 -44 17 -82.5t45.5 -67t66.5 -45t81 -16.5t81.5 16.5t67.5 45t46 67t17 82.5q0 45 -17 84t-46 67.5t-67.5 45t-81.5 16.5t-81 -16.5t-66.5 -45t-45.5 -67.5t-17 -84z" />
    <glyph glyph-name="yen" unicode="&#xa5;" horiz-adv-x="560" 
d="M289 269v-74h167l-4 -22h-163v-173h-23v173h-165l3 22h162v74h-163l4 23h146l-224 416h29l220 -410l226 410h29l-230 -416h153l-5 -23h-162z" />
    <glyph glyph-name="brokenbar" unicode="&#xa6;" horiz-adv-x="192" 
d="M84 373v333h24v-333h-24zM84 -127v346h24v-346h-24z" />
    <glyph glyph-name="section" unicode="&#xa7;" horiz-adv-x="468" 
d="M224 -106q25 0 50.5 5t46 18.5t33 36.5t12.5 59q0 35 -19.5 60t-49 44t-63.5 34t-62 29q-21 11 -40.5 24t-34.5 29t-23.5 35.5t-8.5 44.5q0 22 9.5 41.5t26 36t38 30t46.5 24.5q-45 27 -70.5 56t-25.5 68q0 34 14 60.5t37.5 45t53 28t61.5 9.5q18 0 39 -4t40.5 -12.5
t35.5 -22t26 -33.5l-20 -11q-19 33 -51 46.5t-70 13.5q-26 0 -51 -8t-45.5 -23.5t-33 -38t-12.5 -50.5q0 -26 12 -45.5t32 -35t45.5 -28t52.5 -24.5t54.5 -27t50 -34t37 -43.5t14.5 -55.5q0 -21 -8 -40.5t-22 -36.5t-32.5 -32t-39.5 -27q42 -25 64 -58t22 -62
q0 -42 -14.5 -71t-38.5 -46t-55 -24.5t-63 -7.5q-26 0 -51.5 6.5t-48 18.5t-40.5 30t-29 42l23 10q13 -23 30.5 -39t37 -26t40 -14.5t38.5 -4.5zM386 273q0 21 -9 39.5t-22.5 33.5t-29 26.5t-29.5 19.5l-82 40q-19 -6 -40.5 -16.5t-40 -25.5t-31 -34t-12.5 -43q0 -22 9 -39
t21.5 -30t27.5 -22t27 -16l112 -55q16 8 33.5 21t32 28.5t24 34t9.5 38.5z" />
    <glyph glyph-name="dieresis" unicode="&#xa8;" horiz-adv-x="300" 
d="M208 809q0 13 9 22t22 9t22 -9t9 -22t-9 -22t-22 -9t-22 9t-9 22zM28 809q0 13 9 22t22 9t22 -9t9 -22t-9 -22t-22 -9t-22 9t-9 22z" />
    <glyph glyph-name="copyright" unicode="&#xa9;" horiz-adv-x="830" 
d="M60 354q0 73 28 137.5t76.5 113t113 76.5t137.5 28t137.5 -28t113 -76.5t76.5 -113t28 -137.5t-28 -137.5t-76.5 -113t-113 -76.5t-137.5 -28t-137.5 28t-113 76.5t-76.5 113t-28 137.5zM83 354q0 -69 26 -129.5t71 -105.5t105.5 -71t129.5 -26t129.5 26t105.5 71
t71 105.5t26 129.5t-26 129.5t-71 105.5t-105.5 71t-129.5 26t-129.5 -26t-105.5 -71t-71 -105.5t-26 -129.5zM415 559q-30 0 -58 -7.5t-50 -23.5t-35.5 -39.5t-13.5 -56.5v-153q0 -33 13.5 -57.5t35.5 -40.5t50 -23.5t58 -7.5q45 0 85.5 18t59.5 56q8 -3 11 -5t10 -5
q-23 -42 -68.5 -64t-97.5 -22q-33 0 -65.5 9.5t-57.5 28t-40.5 47t-15.5 66.5v151q0 38 15.5 66.5t40.5 47t57.5 28t65.5 9.5q46 0 87 -16t66 -51l-17 -11q-22 30 -58 43t-78 13z" />
    <glyph glyph-name="ordfeminine" unicode="&#xaa;" horiz-adv-x="372" 
d="M275 613q0 19 -8 33t-21.5 23t-31 13.5t-36.5 4.5q-21 0 -43 -8t-41 -23l-15 13q22 19 48.5 29t52.5 10q22 0 42.5 -5.5t37 -17.5t26.5 -29.5t10 -41.5v-223q-64 -19 -123 -19h-6q-45 1 -76.5 31t-31.5 79q0 29 10.5 48t28 30t39.5 15.5t45 4.5q19 0 43 -3.5t50 -14.5v51
zM180 561q-20 0 -37.5 -3.5t-31.5 -12t-22.5 -24t-8.5 -39.5q0 -42 25.5 -65.5t63.5 -24.5q23 0 49.5 2.5t56.5 8.5v140q-22 8 -47 13t-48 5z" />
    <glyph glyph-name="guillemotleft" unicode="&#xab;" horiz-adv-x="376" 
d="M168 476q2 -2 7.5 -5.5t7.5 -5.5t3 -2l-114 -168q21 -30 37 -54.5t29 -44.5t24 -36.5t22 -32.5l-16 -11l-122 179zM292 476q2 -2 7.5 -5.5t7.5 -5.5t3 -2l-116 -168q26 -39 57 -84t58 -84l-17 -11l-122 179z" />
    <glyph glyph-name="logicalnot" unicode="&#xac;" horiz-adv-x="604" 
d="M78 382h443v-195h-21v174h-422v21z" />
    <glyph glyph-name="uni00AD" unicode="&#xad;" horiz-adv-x="336" 
d="M289 258h-228v23h228v-23z" />
    <glyph glyph-name="registered" unicode="&#xae;" horiz-adv-x="830" 
d="M60 354q0 73 28 137.5t76.5 113t113 76.5t137.5 28t137.5 -28t113 -76.5t76.5 -113t28 -137.5t-28 -137.5t-76.5 -113t-113 -76.5t-137.5 -28t-137.5 28t-113 76.5t-76.5 113t-28 137.5zM84 354q0 -69 26 -129.5t70.5 -105t105 -70.5t129.5 -26t129.5 26t105 70.5
t70.5 105t26 129.5t-26 129.5t-70.5 105t-105 70.5t-129.5 26t-129.5 -26t-105 -70.5t-70.5 -105t-26 -129.5zM295 556h136q64 0 97.5 -32.5t33.5 -78.5q0 -52 -34.5 -81.5t-85.5 -33.5l123 -172h-22l-125 170h-103v-170h-20v398zM401 346q25 0 50 3.5t45 14t32.5 30
t12.5 51.5q0 25 -10 42.5t-26 28.5t-36.5 16t-40.5 5h-113v-191h86z" />
    <glyph glyph-name="macron" unicode="&#xaf;" horiz-adv-x="275" 
d="M44 807h197v-21h-197v21z" />
    <glyph glyph-name="degree" unicode="&#xb0;" horiz-adv-x="324" 
d="M162 509q-21 0 -39.5 8t-32.5 22t-22 33t-8 40t8 39.5t22 32t32.5 21.5t39.5 8t39.5 -8t32.5 -21.5t22 -32t8 -39.5t-8 -40t-22 -33t-32.5 -22t-39.5 -8zM162 528q34 0 57.5 24t23.5 59t-23.5 59t-57.5 24t-57.5 -24t-23.5 -59t23.5 -59t57.5 -24z" />
    <glyph glyph-name="plusminus" unicode="&#xb1;" horiz-adv-x="574" 
d="M273 598h21v-179h195v-21h-195v-182h-21v182h-188v21h188v179zM487 112h-401v20h401v-20z" />
    <glyph glyph-name="twosuperior" unicode="&#xb2;" horiz-adv-x="404" 
d="M329 301h-258l-6 16l196 205q24 25 39 52q8 15 8 31q0 13 -5 27q-16 35 -45.5 51t-62.5 16q-29 0 -57.5 -12.5t-45.5 -37.5l-16 8q21 32 51.5 46.5t67.5 14.5q40 0 75 -18.5t51 -57.5l-1 1q7 -18 7 -34q0 -20 -8 -39q-7 -17 -18.5 -32t-24.5 -28l-181 -190h234v-19z" />
    <glyph glyph-name="threesuperior" unicode="&#xb3;" horiz-adv-x="387" 
d="M327 415q0 -29 -13 -51t-34 -36.5t-47 -21.5q-20 -5 -41 -5h-12q-35 2 -68.5 18.5t-50.5 48.5l19 7q16 -27 44.5 -40t57.5 -15h11q15 0 32 4q22 6 40 18t30 30.5t12 42.5q0 51 -31 73q-27 19 -67 19h-7h-33v17h33q17 0 36.5 4.5t32.5 16.5q11 10 16 26t5 33.5t-5.5 34
t-14.5 27.5q-16 17 -38 25.5t-45 8.5q-28 0 -55.5 -11t-44.5 -34l-14 10q18 24 45.5 37.5t57.5 15.5h10q25 0 48 -8q29 -9 50 -31q12 -12 18 -31q7 -21 7 -43q0 -20 -6 -38q-6 -20 -19 -33q-5 -5 -11.5 -8.5t-14.5 -8.5q37 -12 52 -42t15 -60z" />
    <glyph glyph-name="acute" unicode="&#xb4;" horiz-adv-x="590" 
d="M380 862l-72 -103h-25l62 103h35z" />
    <glyph glyph-name="mu" unicode="&#xb5;" horiz-adv-x="515" 
d="M78 -211v729h23v-328q0 -28 6 -58t21 -55t41.5 -41.5t67.5 -16.5q37 0 69 13.5t55.5 40.5t37 66.5t13.5 91.5v287h24l3 -518h-22v137q-11 -39 -30 -65t-43.5 -42t-51.5 -23q-4 -1 -9 -2t-10 -1.5t-10.5 -1t-10 -1t-8 -1t-5.5 -0.5h-2q-20 0 -41 4t-39.5 15t-34 29.5
t-23.5 47.5l1 -307h-22z" />
    <glyph glyph-name="paragraph" unicode="&#xb6;" horiz-adv-x="557" 
d="M268 296q-57 0 -100 17t-72.5 45.5t-44.5 64.5t-15 74q0 39 14 77t42.5 68t71 48.5t99.5 18.5h212v-822h-21v804h-164v-804h-22v409z" />
    <glyph glyph-name="periodcentered" unicode="&#xb7;" horiz-adv-x="230" 
d="M76 318q0 13 9 22t22 9t22 -9t9 -22t-9 -22t-22 -9t-22 9t-9 22z" />
    <glyph glyph-name="cedilla" unicode="&#xb8;" horiz-adv-x="571" 
d="M338 -129q0 -6 -1 -13q-5 -25 -30 -44q-23 -18 -59 -18h-8q-17 1 -33.5 6t-31.5 13l3 18q14 -8 29.5 -13t32.5 -6h8q32 0 48 14q17 16 21 35q1 5 1 10q0 19 -17 32q-16 12 -44 12q-9 0 -19 -1l52 94h19l-44 -78q42 0 59 -22q14 -17 14 -39z" />
    <glyph glyph-name="onesuperior" unicode="&#xb9;" horiz-adv-x="235" 
d="M155 708v-408h-21v387l-77 -90l-15 13l86 98h27z" />
    <glyph glyph-name="ordmasculine" unicode="&#xba;" horiz-adv-x="406" 
d="M203 365q-25 0 -49.5 6.5t-43.5 20t-31 34t-12 47.5v128q0 27 12 47t31 33.5t43.5 20.5t49.5 7t49.5 -7t43.5 -20.5t31 -33.5t12 -47v-128q0 -27 -12 -47.5t-31 -34t-43.5 -20t-49.5 -6.5zM87 476q0 -26 10.5 -43.5t27 -28t37 -15.5t41.5 -5t41.5 5t37 15.5t27 28
t10.5 43.5v122q0 25 -10.5 43t-27 28.5t-37 15.5t-41.5 5t-41.5 -5t-37 -15.5t-27 -28.5t-10.5 -43v-122z" />
    <glyph glyph-name="guillemotright" unicode="&#xbb;" horiz-adv-x="375" 
d="M84 114q-2 2 -7.5 5.5t-7.5 5.5t-3 2l116 168q-37 54 -58.5 85.5t-33 48t-16 23t-7.5 11.5l17 11l122 -179zM188 127l116 168q-37 54 -58.5 85.5t-33 48t-16 23t-7.5 11.5l17 11l122 -179l-122 -181z" />
    <glyph glyph-name="onequarter" unicode="&#xbc;" horiz-adv-x="647" 
d="M520 708l-440 -719l-15 9l439 720l7 -4zM603 106h-40v-106h-19v106h-223l-12 18l229 289h25v-290h40v-17zM330 122l214 1v267zM155 708v-408h-21v387l-77 -90l-15 13l86 98h27z" />
    <glyph glyph-name="onehalf" unicode="&#xbd;" horiz-adv-x="693" 
d="M530 708l-440 -719l-15 9l439 720l7 -4zM642 0h-258l-1 2l-5 14l196 200q25 25 39 52q8 14 8 31q0 13 -5 27q-16 35 -45.5 51t-62.5 16q-29 0 -56.5 -12.5t-44.5 -37.5l-15 6l-3 2q21 32 51.5 46.5t67.5 14.5q40 0 75 -18.5t51 -57.5l-1 1q7 -18 7 -35q0 -21 -8 -41
q-7 -17 -18.5 -31.5t-24.5 -25.5l-181 -185h234v-19zM152 708v-408h-21v387l-77 -90l-15 13l86 98h27z" />
    <glyph glyph-name="threequarters" unicode="&#xbe;" horiz-adv-x="708" 
d="M314 421q0 -29 -13 -51t-34 -36.5t-47 -21.5q-20 -5 -41 -5h-12q-35 2 -68.5 18.5t-50.5 48.5l19 7q16 -27 44.5 -40t57.5 -15h11q16 0 32 4q22 6 40 18t30 30.5t12 42.5q0 51 -30 73q-28 19 -68 19h-7h-33v17h33q17 0 36.5 4.5t32.5 16.5q11 10 16 23.5t5 28t-5.5 28.5
t-14.5 25q-16 17 -38 25.5t-45 8.5q-28 0 -55.5 -11t-44.5 -34l-8 5q-4 3 -6 5q18 24 45.5 37.5t57.5 15.5h10q25 0 49 -8q28 -9 49 -31q12 -12 18 -29q7 -17 7 -37q0 -16 -6 -33t-19 -30q-5 -5 -11.5 -8.5t-14.5 -8.5q37 -12 52 -42t15 -60zM661 106h-40v-106h-19v106h-223
l-12 18l229 289h25v-290h40v-17zM388 122l214 1v267zM176 -10l-19 9l438 720l21 -10z" />
    <glyph glyph-name="questiondown" unicode="&#xbf;" horiz-adv-x="446" 
d="M250 -186q-39 0 -77 12t-67.5 35.5t-47 58.5t-17.5 82t16.5 83t44 61.5t65 40t80.5 18.5q1 46 2 77t1.5 52t1 35.5t0.5 27.5h18l6 -210q-42 -3 -80.5 -16.5t-67.5 -37t-46 -57.5q-17 -31 -17 -70q0 -44 17 -76q16 -31 42 -51t59.5 -30t68.5 -10q38 0 79 17t70 42l15 -15
q-32 -31 -76 -50t-90 -19zM232 485q0 13 9 22t22 9t22 -9t9 -22t-9 -22t-22 -9t-22 9t-9 22z" />
    <glyph glyph-name="Agrave" unicode="&#xc0;" horiz-adv-x="600" 
d="M222 862h35l62 -103h-25zM45 0h-27l262 708h40l262 -708h-27l-94 253h-322zM298 684l-150 -406h304l-150 406h-4z" />
    <glyph glyph-name="Aacute" unicode="&#xc1;" horiz-adv-x="600" 
d="M373 862l-72 -103h-25l62 103h35zM45 0h-27l262 708h40l262 -708h-27l-94 253h-322zM298 684l-150 -406h304l-150 406h-4z" />
    <glyph glyph-name="Acircumflex" unicode="&#xc2;" horiz-adv-x="600" 
d="M372 755l-72 79l-71 -79h-29l86 94h28l86 -94h-28zM45 0h-27l262 708h40l262 -708h-27l-94 253h-322zM298 684l-150 -406h304l-150 406h-4z" />
    <glyph glyph-name="Atilde" unicode="&#xc3;" horiz-adv-x="600" 
d="M256 843q15 0 28 -7.5t25 -16.5t23 -16.5t23 -7.5q16 0 24.5 8.5t14.5 23.5l16 -6q-6 -18 -19 -33t-36 -15q-15 0 -27.5 7.5t-24 17t-23.5 17t-25 7.5q-14 0 -25.5 -9t-18.5 -25l-15 6q8 20 22.5 34.5t37.5 14.5zM45 0h-27l262 708h40l262 -708h-27l-94 253h-322z
M298 684l-150 -406h304l-150 406h-4z" />
    <glyph glyph-name="Adieresis" unicode="&#xc4;" horiz-adv-x="600" 
d="M363 809q0 13 9 22t22 9t22 -9t9 -22t-9 -22t-22 -9t-22 9t-9 22zM183 809q0 13 9 22t22 9t22 -9t9 -22t-9 -22t-22 -9t-22 9t-9 22zM45 0h-27l262 708h40l262 -708h-27l-94 253h-322zM298 684l-150 -406h304l-150 406h-4z" />
    <glyph glyph-name="Aring" unicode="&#xc5;" horiz-adv-x="600" 
d="M223 767q0 38 23 58t55 20q34 0 54.5 -24t20.5 -55q0 -24 -14 -44.5t-37 -28.5l257 -693h-27l-94 253h-322l-94 -253h-27l257 693q-23 8 -37.5 27t-14.5 47zM246 766q0 -23 15.5 -39.5t38.5 -16.5t39 17t16 40t-16 40t-39 17t-38.5 -15.5t-15.5 -42.5zM302 684h-4
l-150 -406h304z" />
    <glyph glyph-name="AE" unicode="&#xc6;" horiz-adv-x="770" 
d="M720 684h-304v-328h273v-24h-273v-310h304v-22h-327v253h-231l-128 -253h-28l351 708h363v-24zM393 276v411l-20 -1l-200 -410h220z" />
    <glyph glyph-name="Ccedilla" unicode="&#xc7;" horiz-adv-x="583" 
d="M326 15q30 0 59.5 5.5t56 16.5t48.5 27.5t37 39.5l22 -11q-29 -46 -82.5 -71.5t-114.5 -30.5l-34 -60q42 0 60 -22q13 -17 13 -39q0 -6 -1 -13q-5 -25 -30 -45q-23 -17 -59 -17h-8q-17 1 -33.5 6t-31.5 13l3 18q14 -8 29.5 -13t32.5 -6h8q32 0 47 14q18 16 22 35
q1 5 1 10q0 19 -17 32q-16 12 -44 12q-9 0 -19 -1l42 75h-7q-46 0 -90.5 12.5t-79.5 37.5t-56.5 62t-21.5 86v332q0 49 21.5 86t57 62t80.5 37.5t92 12.5q67 0 127.5 -25.5t92.5 -76.5l-22 -16q-28 46 -84 70t-117 24q-41 0 -81 -11t-71.5 -32.5t-51 -54.5t-19.5 -76v-332
q0 -44 19.5 -76t51 -54t71.5 -32.5t81 -10.5z" />
    <glyph glyph-name="Egrave" unicode="&#xc8;" horiz-adv-x="565" 
d="M229 862h35l62 -103h-25zM118 366h366v-27h-366v-314h396v-25h-421v708h421v-25h-396v-317z" />
    <glyph glyph-name="Eacute" unicode="&#xc9;" horiz-adv-x="565" 
d="M380 862l-72 -103h-25l62 103h35zM118 366h366v-27h-366v-314h396v-25h-421v708h421v-25h-396v-317z" />
    <glyph glyph-name="Ecircumflex" unicode="&#xca;" horiz-adv-x="565" 
d="M379 755l-72 79l-71 -79h-29l86 94h28l86 -94h-28zM118 366h366v-27h-366v-314h396v-25h-421v708h421v-25h-396v-317z" />
    <glyph glyph-name="Edieresis" unicode="&#xcb;" horiz-adv-x="565" 
d="M370 809q0 13 9 22t22 9t22 -9t9 -22t-9 -22t-22 -9t-22 9t-9 22zM190 809q0 13 9 22t22 9t22 -9t9 -22t-9 -22t-22 -9t-22 9t-9 22zM118 366h366v-27h-366v-314h396v-25h-421v708h421v-25h-396v-317z" />
    <glyph glyph-name="Igrave" unicode="&#xcc;" horiz-adv-x="211" 
d="M28 862h35l62 -103h-25zM118 0h-25v708h25v-708z" />
    <glyph glyph-name="Iacute" unicode="&#xcd;" horiz-adv-x="211" 
d="M179 862l-72 -103h-25l62 103h35zM118 0h-25v708h25v-708z" />
    <glyph glyph-name="Icircumflex" unicode="&#xce;" horiz-adv-x="211" 
d="M178 755l-72 79l-71 -79h-29l86 94h28l86 -94h-28zM118 0h-25v708h25v-708z" />
    <glyph glyph-name="Idieresis" unicode="&#xcf;" horiz-adv-x="211" 
d="M145 809q0 13 9 22t22 9t22 -9t9 -22t-9 -22t-22 -9t-22 9t-9 22zM15 809q0 13 9 22t22 9t22 -9t9 -22t-9 -22t-22 -9t-22 9t-9 22zM118 0h-25v708h25v-708z" />
    <glyph glyph-name="Eth" unicode="&#xd0;" horiz-adv-x="636" 
d="M94 708h219q46 0 91 -12.5t79.5 -37.5t56 -62.5t21.5 -87.5v-309q0 -50 -21.5 -87.5t-56 -62t-79.5 -37t-91 -12.5h-219v342h-63v20h63v346zM313 25q42 0 82 10.5t71.5 32.5t50.5 54.5t19 76.5v309q0 44 -19 77t-50.5 54.5t-71.5 32.5t-82 11h-194v-321h145v-20h-145
v-317h194z" />
    <glyph glyph-name="Ntilde" unicode="&#xd1;" horiz-adv-x="671" 
d="M298 843q15 0 28 -7.5t25 -16.5t23 -16.5t23 -7.5q16 0 24.5 8.5t14.5 23.5l16 -6q-6 -18 -19 -33t-36 -15q-15 0 -27.5 7.5t-24 17t-23.5 17t-25 7.5q-14 0 -25.5 -9t-18.5 -25l-15 6q8 20 22.5 34.5t37.5 14.5zM553 708h25v-708h-43l-415 676l-1 -676h-26v708h39
l421 -684v684z" />
    <glyph glyph-name="Ograve" unicode="&#xd2;" horiz-adv-x="682" 
d="M261 861h35l62 -103h-25zM77 518q0 50 22.5 87.5t59.5 62.5t84 37.5t97 12.5q49 0 96.5 -12.5t85 -37.5t60 -62.5t22.5 -87.5v-327q0 -50 -22.5 -87.5t-60 -63t-85 -38t-96.5 -12.5q-50 0 -97 12.5t-84 38t-59.5 63t-22.5 87.5v327zM102 191q0 -44 20.5 -77t53.5 -55
t76 -33t88 -11t87.5 11t76.5 33t54.5 55t20.5 77v327q0 46 -21 79.5t-54.5 55t-76.5 31.5t-88 10t-87.5 -10.5t-75.5 -32t-53.5 -54.5t-20.5 -79v-327z" />
    <glyph glyph-name="Oacute" unicode="&#xd3;" horiz-adv-x="682" 
d="M412 861l-72 -103h-25l62 103h35zM77 518q0 50 22.5 87.5t59.5 62.5t84 37.5t97 12.5q49 0 96.5 -12.5t85 -37.5t60 -62.5t22.5 -87.5v-327q0 -50 -22.5 -87.5t-60 -63t-85 -38t-96.5 -12.5q-50 0 -97 12.5t-84 38t-59.5 63t-22.5 87.5v327zM102 191q0 -44 20.5 -77
t53.5 -55t76 -33t88 -11t87.5 11t76.5 33t54.5 55t20.5 77v327q0 46 -21 79.5t-54.5 55t-76.5 31.5t-88 10t-87.5 -10.5t-75.5 -32t-53.5 -54.5t-20.5 -79v-327z" />
    <glyph glyph-name="Ocircumflex" unicode="&#xd4;" horiz-adv-x="682" 
d="M411 754l-72 79l-71 -79h-29l86 94h28l86 -94h-28zM77 518q0 50 22.5 87.5t59.5 62.5t84 37.5t97 12.5q49 0 96.5 -12.5t85 -37.5t60 -62.5t22.5 -87.5v-327q0 -50 -22.5 -87.5t-60 -63t-85 -38t-96.5 -12.5q-50 0 -97 12.5t-84 38t-59.5 63t-22.5 87.5v327zM102 191
q0 -44 20.5 -77t53.5 -55t76 -33t88 -11t87.5 11t76.5 33t54.5 55t20.5 77v327q0 46 -21 79.5t-54.5 55t-76.5 31.5t-88 10t-87.5 -10.5t-75.5 -32t-53.5 -54.5t-20.5 -79v-327z" />
    <glyph glyph-name="Otilde" unicode="&#xd5;" horiz-adv-x="682" 
d="M295 842q15 0 28 -7.5t25 -16.5t23 -16.5t23 -7.5q16 0 24.5 8.5t14.5 23.5l16 -6q-6 -18 -19 -33t-36 -15q-15 0 -27.5 7.5t-24 17t-23.5 17t-25 7.5q-14 0 -25.5 -9t-18.5 -25l-15 6q8 20 22.5 34.5t37.5 14.5zM77 518q0 50 22.5 87.5t59.5 62.5t84 37.5t97 12.5
q49 0 96.5 -12.5t85 -37.5t60 -62.5t22.5 -87.5v-327q0 -50 -22.5 -87.5t-60 -63t-85 -38t-96.5 -12.5q-50 0 -97 12.5t-84 38t-59.5 63t-22.5 87.5v327zM102 191q0 -44 20.5 -77t53.5 -55t76 -33t88 -11t87.5 11t76.5 33t54.5 55t20.5 77v327q0 46 -21 79.5t-54.5 55
t-76.5 31.5t-88 10t-87.5 -10.5t-75.5 -32t-53.5 -54.5t-20.5 -79v-327z" />
    <glyph glyph-name="Odieresis" unicode="&#xd6;" horiz-adv-x="682" 
d="M402 808q0 13 9 22t22 9t22 -9t9 -22t-9 -22t-22 -9t-22 9t-9 22zM222 808q0 13 9 22t22 9t22 -9t9 -22t-9 -22t-22 -9t-22 9t-9 22zM77 518q0 50 22.5 87.5t59.5 62.5t84 37.5t97 12.5q49 0 96.5 -12.5t85 -37.5t60 -62.5t22.5 -87.5v-327q0 -50 -22.5 -87.5t-60 -63
t-85 -38t-96.5 -12.5q-50 0 -97 12.5t-84 38t-59.5 63t-22.5 87.5v327zM102 191q0 -44 20.5 -77t53.5 -55t76 -33t88 -11t87.5 11t76.5 33t54.5 55t20.5 77v327q0 46 -21 79.5t-54.5 55t-76.5 31.5t-88 10t-87.5 -10.5t-75.5 -32t-53.5 -54.5t-20.5 -79v-327z" />
    <glyph glyph-name="multiply" unicode="&#xd7;" horiz-adv-x="494" 
d="M407 513l17 -16l-160 -159l157 -157l-16 -17l-157 157l-161 -161l-16 17l160 160l-163 164l17 16l163 -163z" />
    <glyph glyph-name="Oslash" unicode="&#xd8;" horiz-adv-x="681" 
d="M77 510q0 50 22.5 87.5t59.5 62.5t84 37.5t97 12.5q26 0 56.5 -3.5t66.5 -17.5l29 71l19 -7l-29 -71q53 -27 87.5 -70t34.5 -102v-311q0 -50 -22.5 -87.5t-60 -63t-85 -38t-96.5 -12.5q-25 0 -55.5 5.5t-64.5 15.5l-30 -74l-19 5l29 76q-54 27 -88.5 70t-34.5 103v311z
M101 199q0 -49 30.5 -87t78.5 -65l244 622q-35 14 -62 15.5t-53 1.5q-45 0 -87.5 -10.5t-76 -32t-54 -54.5t-20.5 -79v-311zM581 510q0 51 -30.5 88t-77.5 63l-244 -620q30 -8 57.5 -13.5t53.5 -5.5q44 0 87 11t77 33t55.5 55.5t21.5 77.5v311z" />
    <glyph glyph-name="Ugrave" unicode="&#xd9;" horiz-adv-x="673" 
d="M259 862h35l62 -103h-25zM113 194q0 -45 19 -79t50.5 -56.5t71.5 -33.5t82 -11t82 11t71.5 33.5t51 56.5t19.5 79v514h25v-514q0 -51 -21.5 -89t-56.5 -63.5t-80 -38.5t-91 -13q-47 0 -91.5 13t-79 38.5t-56 63.5t-21.5 89v514h25v-514z" />
    <glyph glyph-name="Uacute" unicode="&#xda;" horiz-adv-x="673" 
d="M410 862l-72 -103h-25l62 103h35zM113 194q0 -45 19 -79t50.5 -56.5t71.5 -33.5t82 -11t82 11t71.5 33.5t51 56.5t19.5 79v514h25v-514q0 -51 -21.5 -89t-56.5 -63.5t-80 -38.5t-91 -13q-47 0 -91.5 13t-79 38.5t-56 63.5t-21.5 89v514h25v-514z" />
    <glyph glyph-name="Ucircumflex" unicode="&#xdb;" horiz-adv-x="673" 
d="M409 755l-72 79l-71 -79h-29l86 94h28l86 -94h-28zM113 194q0 -45 19 -79t50.5 -56.5t71.5 -33.5t82 -11t82 11t71.5 33.5t51 56.5t19.5 79v514h25v-514q0 -51 -21.5 -89t-56.5 -63.5t-80 -38.5t-91 -13q-47 0 -91.5 13t-79 38.5t-56 63.5t-21.5 89v514h25v-514z" />
    <glyph glyph-name="Udieresis" unicode="&#xdc;" horiz-adv-x="673" 
d="M400 809q0 13 9 22t22 9t22 -9t9 -22t-9 -22t-22 -9t-22 9t-9 22zM220 809q0 13 9 22t22 9t22 -9t9 -22t-9 -22t-22 -9t-22 9t-9 22zM113 194q0 -45 19 -79t50.5 -56.5t71.5 -33.5t82 -11t82 11t71.5 33.5t51 56.5t19.5 79v514h25v-514q0 -51 -21.5 -89t-56.5 -63.5
t-80 -38.5t-91 -13q-47 0 -91.5 13t-79 38.5t-56 63.5t-21.5 89v514h25v-514z" />
    <glyph glyph-name="Yacute" unicode="&#xdd;" horiz-adv-x="550" 
d="M347 862l-72 -103h-25l62 103h35zM286 0h-25v281l-242 427h30l225 -399l232 399h31l-251 -427v-281z" />
    <glyph glyph-name="Thorn" unicode="&#xde;" horiz-adv-x="604" 
d="M93 0v708h25v-120h225q54 0 94.5 -19t68 -49.5t41 -69t13.5 -77.5t-13.5 -76.5t-40.5 -67.5t-67.5 -48.5t-94.5 -18.5h-226v-162h-25zM343 187q49 0 85 16.5t60 42.5t35.5 59.5t11.5 68.5t-12 69t-36 61t-60 44t-84 17h-225v-378h225z" />
    <glyph glyph-name="germandbls" unicode="&#xdf;" horiz-adv-x="581" 
d="M287 26q38 0 75 11q40 12 71 35.5t50 57.5t19 78q0 43 -15 75t-41.5 52.5t-62 30t-76.5 9.5h-116v22h116q33 0 62.5 9.5t52 28.5t35.5 47.5t13 66.5q0 40 -16 67.5t-42 45t-58.5 25.5t-65.5 8t-65.5 -10t-58.5 -29.5t-42 -48t-16 -64.5v-543h-24v543q0 42 17.5 74.5
t46.5 55t66 34t76 11.5t76 -10.5t66 -32t47 -53t18 -73.5q0 -22 -4.5 -45.5t-16 -45t-31.5 -39.5t-51 -30q41 -12 67.5 -32t41.5 -44t21 -51t6 -55q0 -50 -21.5 -89t-56 -65.5t-78.5 -40.5q-42 -12 -84 -12h-6q-23 1 -52 8t-51 16l1 26q22 -8 50.5 -15.5t50.5 -8.5h6z" />
    <glyph glyph-name="agrave" unicode="&#xe0;" horiz-adv-x="482" 
d="M167 691h35l62 -103h-25zM384 383q0 33 -12.5 56.5t-34 38.5t-49.5 22t-58 7q-40 0 -71 -9.5t-63 -37.5l-13 14q32 30 69 41.5t79 12.5h7q30 0 58 -8q32 -8 56 -26t38.5 -46t14.5 -65v-365q-48 -15 -95.5 -21.5t-98.5 -6.5q-34 0 -64 10.5t-52 30t-35 48t-13 65.5
q0 41 16 71t41.5 50t58.5 30t69 10q34 0 73.5 -7.5t78.5 -24.5v110zM230 285q-32 0 -60.5 -8t-51 -25.5t-36 -44t-13.5 -63.5q0 -35 11 -60t30.5 -41.5t46 -24.5t57.5 -8h13q33 0 65 4q40 5 77 14l15 5v220q-38 16 -74.5 24t-79.5 8z" />
    <glyph glyph-name="aacute" unicode="&#xe1;" horiz-adv-x="482" 
d="M306 691l-72 -103h-25l62 103h35zM384 383q0 33 -12.5 56.5t-34 38.5t-49.5 22t-58 7q-40 0 -71 -9.5t-63 -37.5l-13 14q32 30 69 41.5t79 12.5h7q30 0 58 -8q32 -8 56 -26t38.5 -46t14.5 -65v-365q-48 -15 -95.5 -21.5t-98.5 -6.5q-34 0 -64 10.5t-52 30t-35 48
t-13 65.5q0 41 16 71t41.5 50t58.5 30t69 10q34 0 73.5 -7.5t78.5 -24.5v110zM230 285q-32 0 -60.5 -8t-51 -25.5t-36 -44t-13.5 -63.5q0 -35 11 -60t30.5 -41.5t46 -24.5t57.5 -8h13q33 0 65 4q40 5 77 14l15 5v220q-38 16 -74.5 24t-79.5 8z" />
    <glyph glyph-name="acircumflex" unicode="&#xe2;" horiz-adv-x="482" 
d="M313 581l-72 79l-71 -79h-29l86 94h28l86 -94h-28zM384 383q0 33 -12.5 56.5t-34 38.5t-49.5 22t-58 7q-40 0 -71 -9.5t-63 -37.5l-13 14q32 30 69 41.5t79 12.5h7q30 0 58 -8q32 -8 56 -26t38.5 -46t14.5 -65v-365q-48 -15 -95.5 -21.5t-98.5 -6.5q-34 0 -64 10.5
t-52 30t-35 48t-13 65.5q0 41 16 71t41.5 50t58.5 30t69 10q34 0 73.5 -7.5t78.5 -24.5v110zM230 285q-32 0 -60.5 -8t-51 -25.5t-36 -44t-13.5 -63.5q0 -35 11 -60t30.5 -41.5t46 -24.5t57.5 -8h13q33 0 65 4q40 5 77 14l15 5v220q-38 16 -74.5 24t-79.5 8z" />
    <glyph glyph-name="atilde" unicode="&#xe3;" horiz-adv-x="482" 
d="M193 671q15 0 28 -7.5t25 -16.5t23 -16.5t23 -7.5q16 0 24.5 8.5t14.5 23.5l16 -6q-6 -18 -19 -33t-36 -15q-15 0 -27.5 7.5t-24 17t-23.5 17t-25 7.5q-14 0 -25.5 -9t-18.5 -25l-15 6q8 20 22.5 34.5t37.5 14.5zM384 383q0 33 -12.5 56.5t-34 38.5t-49.5 22t-58 7
q-40 0 -71 -9.5t-63 -37.5l-13 14q32 30 69 41.5t79 12.5h7q30 0 58 -8q32 -8 56 -26t38.5 -46t14.5 -65v-365q-48 -15 -95.5 -21.5t-98.5 -6.5q-34 0 -64 10.5t-52 30t-35 48t-13 65.5q0 41 16 71t41.5 50t58.5 30t69 10q34 0 73.5 -7.5t78.5 -24.5v110zM230 285
q-32 0 -60.5 -8t-51 -25.5t-36 -44t-13.5 -63.5q0 -35 11 -60t30.5 -41.5t46 -24.5t57.5 -8h13q33 0 65 4q40 5 77 14l15 5v220q-38 16 -74.5 24t-79.5 8z" />
    <glyph glyph-name="adieresis" unicode="&#xe4;" horiz-adv-x="482" 
d="M298 638q0 13 9 22t22 9t22 -9t9 -22t-9 -22t-22 -9t-22 9t-9 22zM144 638q0 13 9 22t22 9t22 -9t9 -22t-9 -22t-22 -9t-22 9t-9 22zM384 383q0 33 -12.5 56.5t-34 38.5t-49.5 22t-58 7q-40 0 -71 -9.5t-63 -37.5l-13 14q32 30 69 41.5t79 12.5h7q30 0 58 -8
q32 -8 56 -26t38.5 -46t14.5 -65v-365q-48 -15 -95.5 -21.5t-98.5 -6.5q-34 0 -64 10.5t-52 30t-35 48t-13 65.5q0 41 16 71t41.5 50t58.5 30t69 10q34 0 73.5 -7.5t78.5 -24.5v110zM230 285q-32 0 -60.5 -8t-51 -25.5t-36 -44t-13.5 -63.5q0 -35 11 -60t30.5 -41.5
t46 -24.5t57.5 -8h13q33 0 65 4q40 5 77 14l15 5v220q-38 16 -74.5 24t-79.5 8z" />
    <glyph glyph-name="aring" unicode="&#xe5;" horiz-adv-x="482" 
d="M163 649q0 37 22.5 56t52.5 19q32 0 52 -23.5t20 -52.5q0 -14 -6 -27.5t-15.5 -24t-22.5 -16.5t-28 -6q-30 0 -52.5 20t-22.5 55zM292 649q0 23 -16 40t-39 17t-38.5 -15.5t-15.5 -42.5q0 -23 15.5 -39.5t38.5 -16.5t39 17t16 40zM384 383q0 33 -12.5 56.5t-34 38.5
t-49.5 22t-58 7q-40 0 -71 -9.5t-63 -37.5l-13 14q32 30 69 41.5t79 12.5h7q30 0 58 -8q32 -8 56 -26t38.5 -46t14.5 -65v-365q-48 -15 -95.5 -21.5t-98.5 -6.5q-34 0 -64 10.5t-52 30t-35 48t-13 65.5q0 41 16 71t41.5 50t58.5 30t69 10q34 0 73.5 -7.5t78.5 -24.5v110z
M230 285q-32 0 -60.5 -8t-51 -25.5t-36 -44t-13.5 -63.5q0 -35 11 -60t30.5 -41.5t46 -24.5t57.5 -8h13q33 0 65 4q40 5 77 14l15 5v220q-38 16 -74.5 24t-79.5 8z" />
    <glyph glyph-name="ae" unicode="&#xe6;" horiz-adv-x="802" 
d="M409 146q0 -33 13 -58t34.5 -41.5t50 -25t58.5 -8.5q42 0 80 15t59 48l21 -11q-23 -39 -67 -57t-93 -18q-46 0 -88.5 20.5t-69.5 58.5q-39 -39 -91 -59q-51 -20 -98 -20h-5q-34 0 -64 11t-52.5 32t-35.5 51.5t-13 69.5q0 43 16 74t42 50.5t59 28.5t69 9q34 0 73.5 -7.5
t78.5 -24.5v100q0 32 -14 55t-36.5 38t-50.5 22t-57 7q-38 0 -69 -11.5t-60 -37.5l-15 16q31 31 67.5 43t78.5 12q25 0 50 -5.5t47.5 -17t40.5 -28.5t30 -41q12 24 30.5 41.5t41 29t47 16.5t48.5 5q33 0 65.5 -9t57.5 -28t40.5 -47.5t15.5 -67.5v-135h-335v-95zM722 378
q0 33 -13.5 57t-35.5 39.5t-50.5 23.5t-57.5 8q-30 0 -58.5 -8.5t-50.5 -25t-34.5 -41t-12.5 -57.5v-112h313v116zM232 294q-32 0 -60.5 -7.5t-50.5 -24t-35.5 -43.5t-13.5 -65q0 -70 40.5 -106t103.5 -37q20 0 44.5 5t49 15t47 24t39.5 32q-10 27 -10 59v115
q-33 14 -74.5 23.5t-79.5 9.5z" />
    <glyph glyph-name="ccedilla" unicode="&#xe7;" horiz-adv-x="454" 
d="M313 -129q0 -6 -1 -13q-5 -25 -30 -44q-23 -18 -59 -18h-8q-17 1 -33.5 6t-31.5 13l3 18q14 -8 29.5 -13t32.5 -6h8q32 0 47 14q18 16 22 35q1 5 1 10q0 19 -17 32q-16 12 -44 12q-9 0 -19 -1l42 75h-8q-33 0 -65.5 9.5t-57.5 28t-40.5 47t-15.5 66.5v235q0 38 15.5 66.5
t40.5 47t57.5 28t65.5 9.5q46 0 87 -16t66 -51l-17 -11q-22 30 -58 43t-78 13q-30 0 -58 -7.5t-50 -23.5t-35.5 -39.5t-13.5 -56.5v-237q0 -33 14 -57.5t36.5 -40.5t50.5 -23.5t56 -7.5q45 0 85.5 18t59.5 56l21 -10q-20 -37 -57 -58t-82 -26l-34 -61q42 0 60 -22
q13 -17 13 -39z" />
    <glyph glyph-name="egrave" unicode="&#xe8;" 
d="M171 682h35l62 -103h-25zM92 141q0 -33 13 -57.5t35 -40t50.5 -23t58.5 -7.5q42 0 80.5 15t59.5 48l20 -11q-23 -39 -67 -57t-93 -18q-34 0 -66 9.5t-57.5 28t-41 47t-15.5 66.5v236q0 38 15.5 66.5t41 47t57.5 28t66 9.5q33 0 65.5 -9.5t57.5 -28t40.5 -47t15.5 -66.5
v-138h-336v-98zM406 379q0 33 -13.5 57t-35.5 39.5t-50.5 23.5t-57.5 8q-30 0 -58.5 -8t-50.5 -23.5t-35 -39.5t-13 -57v-119h314v119z" />
    <glyph glyph-name="eacute" unicode="&#xe9;" 
d="M322 682l-72 -103h-25l62 103h35zM92 141q0 -33 13 -57.5t35 -40t50.5 -23t58.5 -7.5q42 0 80.5 15t59.5 48l20 -11q-23 -39 -67 -57t-93 -18q-34 0 -66 9.5t-57.5 28t-41 47t-15.5 66.5v236q0 38 15.5 66.5t41 47t57.5 28t66 9.5q33 0 65.5 -9.5t57.5 -28t40.5 -47
t15.5 -66.5v-138h-336v-98zM406 379q0 33 -13.5 57t-35.5 39.5t-50.5 23.5t-57.5 8q-30 0 -58.5 -8t-50.5 -23.5t-35 -39.5t-13 -57v-119h314v119z" />
    <glyph glyph-name="ecircumflex" unicode="&#xea;" 
d="M321 575l-72 79l-71 -79h-29l86 94h28l86 -94h-28zM92 141q0 -33 13 -57.5t35 -40t50.5 -23t58.5 -7.5q42 0 80.5 15t59.5 48l20 -11q-23 -39 -67 -57t-93 -18q-34 0 -66 9.5t-57.5 28t-41 47t-15.5 66.5v236q0 38 15.5 66.5t41 47t57.5 28t66 9.5q33 0 65.5 -9.5
t57.5 -28t40.5 -47t15.5 -66.5v-138h-336v-98zM406 379q0 33 -13.5 57t-35.5 39.5t-50.5 23.5t-57.5 8q-30 0 -58.5 -8t-50.5 -23.5t-35 -39.5t-13 -57v-119h314v119z" />
    <glyph glyph-name="edieresis" unicode="&#xeb;" 
d="M312 629q0 13 9 22t22 9t22 -9t9 -22t-9 -22t-22 -9t-22 9t-9 22zM132 629q0 13 9 22t22 9t22 -9t9 -22t-9 -22t-22 -9t-22 9t-9 22zM92 141q0 -33 13 -57.5t35 -40t50.5 -23t58.5 -7.5q42 0 80.5 15t59.5 48l20 -11q-23 -39 -67 -57t-93 -18q-34 0 -66 9.5t-57.5 28
t-41 47t-15.5 66.5v236q0 38 15.5 66.5t41 47t57.5 28t66 9.5q33 0 65.5 -9.5t57.5 -28t40.5 -47t15.5 -66.5v-138h-336v-98zM406 379q0 33 -13.5 57t-35.5 39.5t-50.5 23.5t-57.5 8q-30 0 -58.5 -8t-50.5 -23.5t-35 -39.5t-13 -57v-119h314v119z" />
    <glyph glyph-name="igrave" unicode="&#xec;" horiz-adv-x="188" 
d="M16 672h35l62 -103h-25zM106 0h-24v518h24v-518z" />
    <glyph glyph-name="iacute" unicode="&#xed;" horiz-adv-x="188" 
d="M167 672l-72 -103h-25l62 103h35zM106 0h-24v518h24v-518z" />
    <glyph glyph-name="icircumflex" unicode="&#xee;" horiz-adv-x="188" 
d="M166 565l-72 79l-71 -79h-29l86 94h28l86 -94h-28zM106 0h-24v518h24v-518z" />
    <glyph glyph-name="idieresis" unicode="&#xef;" horiz-adv-x="188" 
d="M137 629q0 13 9 22t22 9t22 -9t9 -22t-9 -22t-22 -9t-22 9t-9 22zM-3 629q0 13 9 22t22 9t22 -9t9 -22t-9 -22t-22 -9t-22 9t-9 22zM106 0h-24v518h24v-518z" />
    <glyph glyph-name="eth" unicode="&#xf0;" horiz-adv-x="503" 
d="M242 707q20 0 40 -3l21 61l17 -5l-22 -59q53 -16 89 -52.5t36 -92.5v-539q-66 -20 -107 -25.5t-74 -5.5t-64 10.5t-55.5 30t-39.5 47.5t-15 65v173q0 37 15.5 65.5t40.5 48t57 29.5t65 10q35 0 73 -8t83 -30v129q0 48 -32 78.5t-79 45.5l-25 -81q-10 3 -12.5 3.5
t-3.5 1.5l25 79q-20 3 -38 3q-26 0 -49 -6q-42 -9 -72 -41l-16 15q33 35 83 46q29 7 59 7zM244 440q-29 0 -56 -8t-49 -23.5t-35 -39.5t-13 -56v-174q0 -33 13 -57t34 -40t48.5 -24t56.5 -8q42 0 86 7.5t73 20.5v365q-85 37 -158 37z" />
    <glyph glyph-name="ntilde" unicode="&#xf1;" horiz-adv-x="517" 
d="M219 666q15 0 28 -7.5t25 -16.5t23 -16.5t23 -7.5q16 0 24.5 8.5t14.5 23.5l16 -6q-6 -18 -19 -33t-36 -15q-15 0 -27.5 7.5t-24 17t-23.5 17t-25 7.5q-14 0 -25.5 -9t-18.5 -25l-15 6q8 20 22.5 34.5t37.5 14.5zM438 377v-377h-22v377q0 33 -13.5 57t-35.5 40t-49 23.5
t-55 7.5q-43 0 -87 -7.5t-73 -19.5v-478h-22v497q87 31 182 31q33 -1 64 -10t56 -27t40 -46.5t15 -67.5z" />
    <glyph glyph-name="ograve" unicode="&#xf2;" horiz-adv-x="495" 
d="M169 684h35l62 -103h-25zM68 376q0 38 15.5 66.5t41 47t57.5 28.5t66 10q33 0 65.5 -10t57.5 -28.5t40.5 -47t15.5 -66.5v-234q0 -38 -15.5 -66.5t-40.5 -47t-57.5 -28.5t-65.5 -10q-34 0 -66 10t-57.5 28.5t-41 47t-15.5 66.5v234zM248 505q-29 0 -57 -7.5t-50.5 -23
t-36.5 -40t-14 -58.5v-234q0 -34 14 -58.5t36.5 -40.5t50.5 -23.5t57 -7.5q28 0 56 7.5t50.5 23.5t36.5 40.5t14 58.5v234q0 34 -14 58.5t-36.5 40t-50.5 23t-56 7.5z" />
    <glyph glyph-name="oacute" unicode="&#xf3;" horiz-adv-x="495" 
d="M320 684l-72 -103h-25l62 103h35zM68 376q0 38 15.5 66.5t41 47t57.5 28.5t66 10q33 0 65.5 -10t57.5 -28.5t40.5 -47t15.5 -66.5v-234q0 -38 -15.5 -66.5t-40.5 -47t-57.5 -28.5t-65.5 -10q-34 0 -66 10t-57.5 28.5t-41 47t-15.5 66.5v234zM248 505q-29 0 -57 -7.5
t-50.5 -23t-36.5 -40t-14 -58.5v-234q0 -34 14 -58.5t36.5 -40.5t50.5 -23.5t57 -7.5q28 0 56 7.5t50.5 23.5t36.5 40.5t14 58.5v234q0 34 -14 58.5t-36.5 40t-50.5 23t-56 7.5z" />
    <glyph glyph-name="ocircumflex" unicode="&#xf4;" horiz-adv-x="495" 
d="M319 577l-72 79l-71 -79h-29l86 94h28l86 -94h-28zM68 376q0 38 15.5 66.5t41 47t57.5 28.5t66 10q33 0 65.5 -10t57.5 -28.5t40.5 -47t15.5 -66.5v-234q0 -38 -15.5 -66.5t-40.5 -47t-57.5 -28.5t-65.5 -10q-34 0 -66 10t-57.5 28.5t-41 47t-15.5 66.5v234zM248 505
q-29 0 -57 -7.5t-50.5 -23t-36.5 -40t-14 -58.5v-234q0 -34 14 -58.5t36.5 -40.5t50.5 -23.5t57 -7.5q28 0 56 7.5t50.5 23.5t36.5 40.5t14 58.5v234q0 34 -14 58.5t-36.5 40t-50.5 23t-56 7.5z" />
    <glyph glyph-name="otilde" unicode="&#xf5;" horiz-adv-x="495" 
d="M203 665q15 0 28 -7.5t25 -16.5t23 -16.5t23 -7.5q16 0 24.5 8.5t14.5 23.5l16 -6q-6 -18 -19 -33t-36 -15q-15 0 -27.5 7.5t-24 17t-23.5 17t-25 7.5q-14 0 -25.5 -9t-18.5 -25l-15 6q8 20 22.5 34.5t37.5 14.5zM68 376q0 38 15.5 66.5t41 47t57.5 28.5t66 10
q33 0 65.5 -10t57.5 -28.5t40.5 -47t15.5 -66.5v-234q0 -38 -15.5 -66.5t-40.5 -47t-57.5 -28.5t-65.5 -10q-34 0 -66 10t-57.5 28.5t-41 47t-15.5 66.5v234zM248 505q-29 0 -57 -7.5t-50.5 -23t-36.5 -40t-14 -58.5v-234q0 -34 14 -58.5t36.5 -40.5t50.5 -23.5t57 -7.5
q28 0 56 7.5t50.5 23.5t36.5 40.5t14 58.5v234q0 34 -14 58.5t-36.5 40t-50.5 23t-56 7.5z" />
    <glyph glyph-name="odieresis" unicode="&#xf6;" horiz-adv-x="495" 
d="M310 631q0 13 9 22t22 9t22 -9t9 -22t-9 -22t-22 -9t-22 9t-9 22zM130 631q0 13 9 22t22 9t22 -9t9 -22t-9 -22t-22 -9t-22 9t-9 22zM68 376q0 38 15.5 66.5t41 47t57.5 28.5t66 10q33 0 65.5 -10t57.5 -28.5t40.5 -47t15.5 -66.5v-234q0 -38 -15.5 -66.5t-40.5 -47
t-57.5 -28.5t-65.5 -10q-34 0 -66 10t-57.5 28.5t-41 47t-15.5 66.5v234zM248 505q-29 0 -57 -7.5t-50.5 -23t-36.5 -40t-14 -58.5v-234q0 -34 14 -58.5t36.5 -40.5t50.5 -23.5t57 -7.5q28 0 56 7.5t50.5 23.5t36.5 40.5t14 58.5v234q0 34 -14 58.5t-36.5 40t-50.5 23
t-56 7.5z" />
    <glyph glyph-name="divide" unicode="&#xf7;" horiz-adv-x="575" 
d="M497 320h-430v23h430v-23zM261 174q0 13 9 22t22 9t22 -9t9 -22t-9 -22t-22 -9t-22 9t-9 22zM261 479q0 13 9 22t22 9t22 -9t9 -22t-9 -22t-22 -9t-22 9t-9 22z" />
    <glyph glyph-name="oslash" unicode="&#xf8;" horiz-adv-x="495" 
d="M68 377q0 38 15.5 66.5t41 47.5t57.5 28.5t66 9.5q26 0 43 -4.5t41 -12.5l29 71l21 -5l-31 -72q35 -22 55.5 -54.5t20.5 -74.5v-235q0 -38 -15.5 -66.5t-40.5 -47t-57.5 -28.5t-65.5 -10q-19 1 -40 4t-47 12l-29 -67l-18 6l30 69q-35 23 -55.5 54.5t-20.5 73.5v235z
M248 506q-29 0 -57 -7.5t-50.5 -23t-36.5 -40t-14 -58.5v-235q0 -31 16 -58t45 -51l172 460q-22 6 -38.5 9.5t-36.5 3.5zM248 12q28 0 56 7.5t50.5 23.5t36.5 40.5t14 58.5v235q0 32 -17 59t-46 50l-172 -460q23 -7 41 -10.5t37 -3.5z" />
    <glyph glyph-name="ugrave" unicode="&#xf9;" horiz-adv-x="516" 
d="M185 682h35l62 -103h-25zM254 -10q-33 0 -64.5 9.5t-56 28.5t-39.5 47.5t-15 65.5v377h22v-377q0 -32 14 -56t36 -40.5t49 -24.5t54 -8q20 0 42 2t43.5 6t40.5 9.5t34 11.5v477h22v-496q-90 -32 -182 -32z" />
    <glyph glyph-name="uacute" unicode="&#xfa;" horiz-adv-x="516" 
d="M336 682l-72 -103h-25l62 103h35zM254 -10q-33 0 -64.5 9.5t-56 28.5t-39.5 47.5t-15 65.5v377h22v-377q0 -32 14 -56t36 -40.5t49 -24.5t54 -8q20 0 42 2t43.5 6t40.5 9.5t34 11.5v477h22v-496q-90 -32 -182 -32z" />
    <glyph glyph-name="ucircumflex" unicode="&#xfb;" horiz-adv-x="516" 
d="M335 575l-72 79l-71 -79h-29l86 94h28l86 -94h-28zM254 -10q-33 0 -64.5 9.5t-56 28.5t-39.5 47.5t-15 65.5v377h22v-377q0 -32 14 -56t36 -40.5t49 -24.5t54 -8q20 0 42 2t43.5 6t40.5 9.5t34 11.5v477h22v-496q-90 -32 -182 -32z" />
    <glyph glyph-name="udieresis" unicode="&#xfc;" horiz-adv-x="516" 
d="M326 629q0 13 9 22t22 9t22 -9t9 -22t-9 -22t-22 -9t-22 9t-9 22zM146 629q0 13 9 22t22 9t22 -9t9 -22t-9 -22t-22 -9t-22 9t-9 22zM254 -10q-33 0 -64.5 9.5t-56 28.5t-39.5 47.5t-15 65.5v377h22v-377q0 -32 14 -56t36 -40.5t49 -24.5t54 -8q20 0 42 2t43.5 6
t40.5 9.5t34 11.5v477h22v-496q-90 -32 -182 -32z" />
    <glyph glyph-name="yacute" unicode="&#xfd;" horiz-adv-x="518" 
d="M333 682l-72 -103h-25l62 103h35zM436 -43q0 -38 -15 -65.5t-40 -45.5t-56.5 -27t-64.5 -9q-42 0 -79.5 13t-65.5 37l14 16q33 -24 62 -33.5t70 -9.5q27 0 54 7t49 22t36 38t14 56v75q-45 -22 -82.5 -31t-72.5 -9q-34 0 -66 9.5t-57.5 28.5t-41 47t-15.5 65v377h23v-377
q0 -32 13 -55.5t35 -39.5t49.5 -24.5t57.5 -9.5q24 0 43.5 2.5t37.5 7.5t36.5 13t39.5 19v464h22v-561z" />
    <glyph glyph-name="thorn" unicode="&#xfe;" horiz-adv-x="511" 
d="M105 707v-202q88 22 161 22q33 0 65 -10t56.5 -29.5t40 -48.5t15.5 -66v-229q0 -37 -15.5 -66t-41 -48.5t-57.5 -29.5t-66 -10q-35 1 -74.5 7.5t-83.5 26.5v-203h-23v886h23zM265 13q29 0 57 8.5t50 24.5t35 40t13 56v231q0 33 -12.5 57.5t-34 40.5t-49.5 24t-58 8
q-38 0 -77 -3.5t-84 -19.5v-432q46 -20 82.5 -27.5t77.5 -7.5z" />
    <glyph glyph-name="ydieresis" unicode="&#xff;" horiz-adv-x="518" 
d="M328 635q0 13 9 22t22 9t22 -9t9 -22t-9 -22t-22 -9t-22 9t-9 22zM148 635q0 13 9 22t22 9t22 -9t9 -22t-9 -22t-22 -9t-22 9t-9 22zM436 -43q0 -38 -15 -65.5t-40 -45.5t-56.5 -27t-64.5 -9q-42 0 -79.5 13t-65.5 37l14 16q33 -24 62 -33.5t70 -9.5q27 0 54 7t49 22
t36 38t14 56v75q-45 -22 -82.5 -31t-72.5 -9q-34 0 -66 9.5t-57.5 28.5t-41 47t-15.5 65v377h23v-377q0 -32 13 -55.5t35 -39.5t49.5 -24.5t57.5 -9.5q24 0 43.5 2.5t37.5 7.5t36.5 13t39.5 19v464h22v-561z" />
    <glyph glyph-name="Amacron" unicode="&#x100;" horiz-adv-x="600" 
d="M201 807h197v-21h-197v21zM45 0h-27l262 708h40l262 -708h-27l-94 253h-322zM298 684l-150 -406h304l-150 406h-4z" />
    <glyph glyph-name="amacron" unicode="&#x101;" horiz-adv-x="482" 
d="M136 626h197v-21h-197v21zM384 383q0 33 -12.5 56.5t-34 38.5t-49.5 22t-58 7q-40 0 -71 -9.5t-63 -37.5l-13 14q32 30 69 41.5t79 12.5h7q30 0 58 -8q32 -8 56 -26t38.5 -46t14.5 -65v-365q-48 -15 -95.5 -21.5t-98.5 -6.5q-34 0 -64 10.5t-52 30t-35 48t-13 65.5
q0 41 16 71t41.5 50t58.5 30t69 10q34 0 73.5 -7.5t78.5 -24.5v110zM230 285q-32 0 -60.5 -8t-51 -25.5t-36 -44t-13.5 -63.5q0 -35 11 -60t30.5 -41.5t46 -24.5t57.5 -8h13q33 0 65 4q40 5 77 14l15 5v220q-38 16 -74.5 24t-79.5 8z" />
    <glyph glyph-name="Abreve" unicode="&#x102;" horiz-adv-x="600" 
d="M139 253h322l94 -253h27l-262 708h-40l-262 -708h27zM302 684l150 -406h-304l150 406h4zM300 777q-33 0 -62 19.5t-38 57.5h23q8 -28 30 -41.5t47 -13.5t47 13.5t30 41.5h23q-9 -38 -38 -57.5t-62 -19.5z" />
    <glyph glyph-name="abreve" unicode="&#x103;" horiz-adv-x="482" 
d="M232 305q-36 0 -69 -10t-58.5 -30t-41.5 -50t-16 -71q0 -37 13 -65.5t35 -48t52 -30t64 -10.5q51 0 98.5 6.5t95.5 21.5v365q0 37 -14.5 65t-38.5 46t-56 26q-28 8 -58 8h-7q-42 -1 -79 -12.5t-69 -41.5l13 -14q32 28 63 37.5t71 9.5q30 0 58 -7t49.5 -22t34 -38.5
t12.5 -56.5v-110q-39 17 -78.5 24.5t-73.5 7.5zM227 10h-13q-31 0 -57.5 8t-46 24.5t-30.5 41.5t-11 60q0 37 13.5 63.5t36 44t51 25.5t60.5 8q43 0 79.5 -8t74.5 -24v-220l-15 -5q-37 -9 -77 -14q-32 -4 -65 -4zM235 596q-33 0 -62 19.5t-38 57.5h23q8 -28 30 -41.5
t47 -13.5t47 13.5t30 41.5h23q-9 -38 -38 -57.5t-62 -19.5z" />
    <glyph glyph-name="Aogonek" unicode="&#x104;" horiz-adv-x="600" 
d="M561 -204q-6 0 -12 1q-18 3 -32 14.5t-20 33.5q-4 14 -4 28q0 21 9 43q16 36 55 84h-2l-94 253h-322l-94 -253h-27l262 708h40l262 -708h-2q-24 -29 -37.5 -51.5t-20 -40t-7 -31.5t3.5 -26q8 -26 35 -33q6 -1 13 -1q22 0 50 19l6 -15q-17 -14 -37 -21q-13 -4 -25 -4z
M302 684h-4l-150 -406h304z" />
    <glyph glyph-name="aogonek" unicode="&#x105;" horiz-adv-x="483" 
d="M384 383q0 33 -12.5 56.5t-34 38.5t-49.5 22t-58 7q-40 0 -71 -9.5t-63 -37.5l-13 14q32 30 69 41.5t79 12.5h7q30 0 58 -8q32 -8 56 -26t38.5 -46t14.5 -65v-365q-50 -60 -65 -100q-9 -27 -9 -47q0 -11 3 -20q8 -26 36 -33q5 -1 12 -1q22 0 50 19l6 -15q-17 -14 -36 -21
q-14 -4 -26 -4q-6 0 -12 1q-18 3 -32 14.5t-20 33.5q-3 11 -3 24q0 24 11 52q18 43 53 88q-77 -19 -162 -19q-34 0 -64 10.5t-52 30t-35 48t-13 65.5q0 41 16 71t41.5 50t58.5 30t69 10q34 0 73.5 -7.5t78.5 -24.5v110zM230 285q-32 0 -60.5 -8t-51 -25.5t-36 -44
t-13.5 -63.5q0 -35 11 -60t30.5 -41.5t46 -24.5t57.5 -8h13q33 0 65 4q40 5 77 14l15 5v220q-38 16 -74.5 24t-79.5 8z" />
    <glyph glyph-name="Cacute" unicode="&#x106;" horiz-adv-x="584" 
d="M402 862l-72 -103h-25l62 103h35zM78 520q0 49 21.5 86t57 62t80.5 37.5t92 12.5q67 0 127.5 -25.5t92.5 -76.5l-22 -16q-28 46 -84 70t-117 24q-41 0 -81 -11t-71.5 -32.5t-51 -54.5t-19.5 -76v-332q0 -44 19.5 -76t51 -54t71.5 -32.5t81 -10.5q30 0 59.5 5.5t56 16.5
t48.5 27.5t37 39.5l22 -11q-32 -51 -93.5 -77t-129.5 -26q-46 0 -90.5 12.5t-79.5 37.5t-56.5 62t-21.5 86v332z" />
    <glyph glyph-name="cacute" unicode="&#x107;" horiz-adv-x="455" 
d="M321 682l-72 -103h-25l62 103h35zM248 506q-30 0 -58 -7.5t-50 -23.5t-35.5 -39.5t-13.5 -56.5v-237q0 -33 14 -57.5t36.5 -40.5t50.5 -23.5t56 -7.5q45 0 85.5 18t59.5 56l21 -10q-23 -42 -68.5 -64t-97.5 -22q-33 0 -65.5 9.5t-57.5 28t-40.5 47t-15.5 66.5v235
q0 38 15.5 66.5t40.5 47t57.5 28t65.5 9.5q46 0 87 -16t66 -51l-17 -11q-22 30 -58 43t-78 13z" />
    <glyph glyph-name="Cdotaccent" unicode="&#x10a;" horiz-adv-x="584" 
d="M302 804q0 13 9 22t22 9t22 -9t9 -22t-9 -22t-22 -9t-22 9t-9 22zM78 520q0 49 21.5 86t57 62t80.5 37.5t92 12.5q67 0 127.5 -25.5t92.5 -76.5l-22 -16q-28 46 -84 70t-117 24q-41 0 -81 -11t-71.5 -32.5t-51 -54.5t-19.5 -76v-332q0 -44 19.5 -76t51 -54t71.5 -32.5
t81 -10.5q30 0 59.5 5.5t56 16.5t48.5 27.5t37 39.5l22 -11q-32 -51 -93.5 -77t-129.5 -26q-46 0 -90.5 12.5t-79.5 37.5t-56.5 62t-21.5 86v332z" />
    <glyph glyph-name="cdotaccent" unicode="&#x10b;" horiz-adv-x="455" 
d="M221 624q0 13 9 22t22 9t22 -9t9 -22t-9 -22t-22 -9t-22 9t-9 22zM248 506q-30 0 -58 -7.5t-50 -23.5t-35.5 -39.5t-13.5 -56.5v-237q0 -33 14 -57.5t36.5 -40.5t50.5 -23.5t56 -7.5q45 0 85.5 18t59.5 56l21 -10q-23 -42 -68.5 -64t-97.5 -22q-33 0 -65.5 9.5t-57.5 28
t-40.5 47t-15.5 66.5v235q0 38 15.5 66.5t40.5 47t57.5 28t65.5 9.5q46 0 87 -16t66 -51l-17 -11q-22 30 -58 43t-78 13z" />
    <glyph glyph-name="Ccaron" unicode="&#x10c;" horiz-adv-x="584" 
d="M229 854h29l71 -79l72 79h28l-86 -94h-28zM78 520q0 49 21.5 86t57 62t80.5 37.5t92 12.5q67 0 127.5 -25.5t92.5 -76.5l-22 -16q-28 46 -84 70t-117 24q-41 0 -81 -11t-71.5 -32.5t-51 -54.5t-19.5 -76v-332q0 -44 19.5 -76t51 -54t71.5 -32.5t81 -10.5q30 0 59.5 5.5
t56 16.5t48.5 27.5t37 39.5l22 -11q-32 -51 -93.5 -77t-129.5 -26q-46 0 -90.5 12.5t-79.5 37.5t-56.5 62t-21.5 86v332z" />
    <glyph glyph-name="ccaron" unicode="&#x10d;" horiz-adv-x="455" 
d="M148 674h29l71 -79l72 79h28l-86 -94h-28zM248 506q-30 0 -58 -7.5t-50 -23.5t-35.5 -39.5t-13.5 -56.5v-237q0 -33 14 -57.5t36.5 -40.5t50.5 -23.5t56 -7.5q45 0 85.5 18t59.5 56l21 -10q-23 -42 -68.5 -64t-97.5 -22q-33 0 -65.5 9.5t-57.5 28t-40.5 47t-15.5 66.5
v235q0 38 15.5 66.5t40.5 47t57.5 28t65.5 9.5q46 0 87 -16t66 -51l-17 -11q-22 30 -58 43t-78 13z" />
    <glyph glyph-name="Dcaron" unicode="&#x10e;" horiz-adv-x="641" 
d="M203 854h29l71 -79l72 79h28l-86 -94h-28zM332 708q46 0 87.5 -11t73 -34t49.5 -59t18 -86v-329q0 -50 -18 -85.5t-49.5 -58.5t-73 -34t-87.5 -11h-239v708h239zM332 25q42 0 79 9t64.5 29t43.5 51t16 75v329q0 44 -16 75.5t-43.5 51.5t-64.5 29t-79 9h-214v-658h214z
" />
    <glyph glyph-name="dcaron" unicode="&#x10f;" horiz-adv-x="537" 
d="M520 558h-22l50 149h33zM248 -9q-33 0 -65 8.5t-57 26.5t-40 46.5t-15 69.5v234q0 38 15.5 66.5t41 47.5t57.5 28.5t66 9.5q35 0 75 -6.5t83 -26.5v213h23v-691q-44 -14 -90.5 -20t-93.5 -6zM250 505q-30 0 -58.5 -8t-50 -24t-34.5 -39.5t-13 -56.5v-235q0 -33 13 -57
t34.5 -39.5t49 -23t57.5 -7.5q38 0 77.5 4t83.5 18v432q-83 36 -159 36z" />
    <glyph glyph-name="Dcroat" unicode="&#x110;" horiz-adv-x="636" 
d="M94 708h219q46 0 91 -12.5t79.5 -37.5t56 -62.5t21.5 -87.5v-309q0 -50 -21.5 -87.5t-56 -62t-79.5 -37t-91 -12.5h-219v342h-63v20h63v346zM313 25q42 0 82 10.5t71.5 32.5t50.5 54.5t19 76.5v309q0 44 -19 77t-50.5 54.5t-71.5 32.5t-82 11h-194v-321h145v-20h-145
v-317h194z" />
    <glyph glyph-name="dcroat" unicode="&#x111;" horiz-adv-x="513" 
d="M432 605v-588q-44 -14 -90.5 -20t-93.5 -6q-33 0 -65 8.5t-57 26.5t-40 46.5t-15 69.5v234q0 38 15.5 66.5t41 47.5t57.5 28.5t66 9.5q35 0 75 -6.5t83 -26.5v110h-102v17h102v86h23v-86h52v-17h-52zM250 505q-30 0 -58.5 -8t-50 -24t-34.5 -39.5t-13 -56.5v-235
q0 -33 13 -57t34.5 -39.5t49 -23t57.5 -7.5q38 0 77.5 4t83.5 18v432q-83 36 -159 36z" />
    <glyph glyph-name="Emacron" unicode="&#x112;" horiz-adv-x="565" 
d="M208 807h197v-21h-197v21zM118 366h366v-27h-366v-314h396v-25h-421v708h421v-25h-396v-317z" />
    <glyph glyph-name="emacron" unicode="&#x113;" 
d="M150 627h197v-21h-197v21zM92 141q0 -33 13 -57.5t35 -40t50.5 -23t58.5 -7.5q42 0 80.5 15t59.5 48l20 -11q-23 -39 -67 -57t-93 -18q-34 0 -66 9.5t-57.5 28t-41 47t-15.5 66.5v236q0 38 15.5 66.5t41 47t57.5 28t66 9.5q33 0 65.5 -9.5t57.5 -28t40.5 -47t15.5 -66.5
v-138h-336v-98zM406 379q0 33 -13.5 57t-35.5 39.5t-50.5 23.5t-57.5 8q-30 0 -58.5 -8t-50.5 -23.5t-35 -39.5t-13 -57v-119h314v119z" />
    <glyph glyph-name="Edotaccent" unicode="&#x116;" horiz-adv-x="565" 
d="M280 804q0 13 9 22t22 9t22 -9t9 -22t-9 -22t-22 -9t-22 9t-9 22zM118 366h366v-27h-366v-314h396v-25h-421v708h421v-25h-396v-317z" />
    <glyph glyph-name="edotaccent" unicode="&#x117;" 
d="M222 624q0 13 9 22t22 9t22 -9t9 -22t-9 -22t-22 -9t-22 9t-9 22zM92 141q0 -33 13 -57.5t35 -40t50.5 -23t58.5 -7.5q42 0 80.5 15t59.5 48l20 -11q-23 -39 -67 -57t-93 -18q-34 0 -66 9.5t-57.5 28t-41 47t-15.5 66.5v236q0 38 15.5 66.5t41 47t57.5 28t66 9.5
q33 0 65.5 -9.5t57.5 -28t40.5 -47t15.5 -66.5v-138h-336v-98zM406 379q0 33 -13.5 57t-35.5 39.5t-50.5 23.5t-57.5 8q-30 0 -58.5 -8t-50.5 -23.5t-35 -39.5t-13 -57v-119h314v119z" />
    <glyph glyph-name="Eogonek" unicode="&#x118;" horiz-adv-x="564" 
d="M493 -204q-6 0 -12 1q-18 3 -32 14.5t-20 33.5q-4 14 -4 28q0 21 9 43q16 36 55 84h-397v708h421v-25h-396v-317h366v-27h-366v-314h396v-25h-1q-24 -29 -37.5 -51.5t-20 -40t-7 -31.5t3.5 -26q8 -26 35 -33q6 -1 13 -1q22 0 50 19l6 -15q-17 -14 -37 -21q-13 -4 -25 -4z
" />
    <glyph glyph-name="eogonek" unicode="&#x119;" 
d="M92 141q0 -33 13 -57.5t35 -40t50.5 -23t58.5 -7.5q42 0 80.5 15t59.5 48l20 -11q-13 -21 -33.5 -36.5t-43.5 -35.5q-20 -18 -33 -37.5t-20 -39t-8.5 -36.5t2.5 -29q8 -26 35 -33q6 -1 13 -1q22 0 50 19l6 -15q-17 -14 -37 -21q-13 -4 -25 -4q-6 0 -12 1q-18 3 -32 14.5
t-20 33.5q-3 12 -3 25q0 22 10 47q15 40 51 80q-14 -4 -29.5 -5.5t-30.5 -1.5q-34 0 -66 9.5t-57.5 28t-41 47t-15.5 66.5v236q0 38 15.5 66.5t41 47t57.5 28t66 9.5q33 0 65.5 -9.5t57.5 -28t40.5 -47t15.5 -66.5v-138h-336v-98zM249 507q-30 0 -58.5 -8t-50.5 -23.5
t-35 -39.5t-13 -57v-119h314v119q0 33 -13.5 57t-35.5 39.5t-50.5 23.5t-57.5 8z" />
    <glyph glyph-name="Ecaron" unicode="&#x11a;" horiz-adv-x="565" 
d="M207 854h29l71 -79l72 79h28l-86 -94h-28zM118 366h366v-27h-366v-314h396v-25h-421v708h421v-25h-396v-317z" />
    <glyph glyph-name="ecaron" unicode="&#x11b;" 
d="M149 674h29l71 -79l72 79h28l-86 -94h-28zM92 141q0 -33 13 -57.5t35 -40t50.5 -23t58.5 -7.5q42 0 80.5 15t59.5 48l20 -11q-23 -39 -67 -57t-93 -18q-34 0 -66 9.5t-57.5 28t-41 47t-15.5 66.5v236q0 38 15.5 66.5t41 47t57.5 28t66 9.5q33 0 65.5 -9.5t57.5 -28
t40.5 -47t15.5 -66.5v-138h-336v-98zM406 379q0 33 -13.5 57t-35.5 39.5t-50.5 23.5t-57.5 8q-30 0 -58.5 -8t-50.5 -23.5t-35 -39.5t-13 -57v-119h314v119z" />
    <glyph glyph-name="Gbreve" unicode="&#x11e;" horiz-adv-x="634" 
d="M326 777q-33 0 -62 19.5t-38 57.5h23q8 -28 30 -41.5t47 -13.5t47 13.5t30 41.5h23q-9 -38 -38 -57.5t-62 -19.5zM78 191q0 -50 21.5 -88t56 -63t79 -37.5t91.5 -12.5q46 0 91 12.5t80 37.5t56.5 63t21.5 88v158h-242v-24h217v-134q0 -44 -19.5 -77.5t-51 -55.5
t-71.5 -33t-82 -11t-82 11t-71.5 33t-50.5 55.5t-19 77.5v329q0 43 19 75.5t50 54.5t70.5 32.5t81.5 10.5q30 0 60 -5.5t56 -16.5t47 -29t35 -42l23 15q-32 51 -92 77t-127 26q-47 0 -91.5 -12.5t-79 -37.5t-56 -62t-21.5 -86v-329z" />
    <glyph glyph-name="gbreve" unicode="&#x11f;" horiz-adv-x="504" 
d="M248 -189q33 0 64.5 8.5t56.5 26.5t40 45.5t15 65.5v535q-47 16 -90 26t-91 10q-33 0 -64 -9.5t-55.5 -28.5t-39.5 -46.5t-15 -64.5v-238q0 -37 15.5 -65t40.5 -47t57 -28.5t65 -9.5q35 0 73 8.5t83 30.5v-74q0 -33 -13 -56.5t-35 -38.5t-49.5 -22t-56.5 -7
q-35 0 -70.5 11t-62.5 31l-15 -15q28 -24 66.5 -36t80.5 -12zM91 141v239q0 31 12.5 55t34 40t49 24t56.5 8q43 0 87 -9.5t73 -21.5v-424q-46 -22 -81.5 -30.5t-76.5 -9.5q-30 1 -57.5 9.5t-49 24.5t-34.5 39.5t-13 55.5zM256 598q-33 0 -62 19.5t-38 57.5h23
q8 -28 30 -41.5t47 -13.5t47 13.5t30 41.5h23q-9 -38 -38 -57.5t-62 -19.5z" />
    <glyph glyph-name="Gdotaccent" unicode="&#x120;" horiz-adv-x="634" 
d="M299 804q0 13 9 22t22 9t22 -9t9 -22t-9 -22t-22 -9t-22 9t-9 22zM78 520q0 49 21.5 86t56 62t79 37.5t91.5 12.5q67 0 127 -26t92 -77l-23 -15q-14 24 -35 42t-47 29t-56 16.5t-60 5.5q-42 0 -81.5 -10.5t-70.5 -32.5t-50 -54.5t-19 -75.5v-329q0 -44 19 -77.5
t50.5 -55.5t71.5 -33t82 -11t82 11t71.5 33t51 55.5t19.5 77.5v134h-217v24h242v-158q0 -50 -21.5 -88t-56.5 -63t-80 -37.5t-91 -12.5q-47 0 -91.5 12.5t-79 37.5t-56 63t-21.5 88v329z" />
    <glyph glyph-name="gdotaccent" unicode="&#x121;" horiz-adv-x="504" 
d="M229 625q0 13 9 22t22 9t22 -9t9 -22t-9 -22t-22 -9t-22 9t-9 22zM249 -168q29 0 56.5 7t49.5 22t35 38.5t13 56.5v74q-45 -22 -83 -30.5t-73 -8.5q-33 0 -65 9.5t-57 28.5t-40.5 47t-15.5 65v238q0 37 15 64.5t39.5 46.5t55.5 28.5t64 9.5q48 0 91 -10t90 -26v-535
q0 -38 -15 -65.5t-40 -45.5t-56.5 -26.5t-64.5 -8.5q-42 0 -80.5 12t-66.5 36l15 15q27 -20 62.5 -31t70.5 -11zM243 507q-29 0 -56.5 -8t-49 -24t-34 -40t-12.5 -55v-239q0 -32 13 -55.5t34.5 -39.5t49 -24.5t57.5 -9.5q41 1 76.5 9.5t81.5 30.5v424q-29 12 -73 21.5
t-87 9.5z" />
    <glyph glyph-name="Gcommaaccent" unicode="&#x122;" horiz-adv-x="634" 
d="M279 -247h-22l50 149h33zM78 520q0 49 21.5 86t56 62t79 37.5t91.5 12.5q67 0 127 -26t92 -77l-23 -15q-14 24 -35 42t-47 29t-56 16.5t-60 5.5q-42 0 -81.5 -10.5t-70.5 -32.5t-50 -54.5t-19 -75.5v-329q0 -44 19 -77.5t50.5 -55.5t71.5 -33t82 -11t82 11t71.5 33
t51 55.5t19.5 77.5v134h-217v24h242v-158q0 -50 -21.5 -88t-56.5 -63t-80 -37.5t-91 -12.5q-47 0 -91.5 12.5t-79 37.5t-56 63t-21.5 88v329z" />
    <glyph glyph-name="gcommaaccent" unicode="&#x123;" horiz-adv-x="504" 
d="M279 708h26l-35 -102h-31zM249 -168q29 0 56.5 7t49.5 22t35 38.5t13 56.5v74q-45 -22 -83 -30.5t-73 -8.5q-33 0 -65 9.5t-57 28.5t-40.5 47t-15.5 65v238q0 37 15 64.5t39.5 46.5t55.5 28.5t64 9.5q48 0 91 -10t90 -26v-535q0 -38 -15 -65.5t-40 -45.5t-56.5 -26.5
t-64.5 -8.5q-42 0 -80.5 12t-66.5 36l15 15q27 -20 62.5 -31t70.5 -11zM243 507q-29 0 -56.5 -8t-49 -24t-34 -40t-12.5 -55v-239q0 -32 13 -55.5t34.5 -39.5t49 -24.5t57.5 -9.5q41 1 76.5 9.5t81.5 30.5v424q-29 12 -73 21.5t-87 9.5z" />
    <glyph glyph-name="Hbar" unicode="&#x126;" horiz-adv-x="688" 
d="M593 0h-25v341h-447v-341h-25v538h-75v23h75v147h25v-147h447v147h25v-147h72v-23h-72v-538zM121 366h447v172h-447v-172z" />
    <glyph glyph-name="hbar" unicode="&#x127;" horiz-adv-x="519" 
d="M267 528q30 0 59 -8q33 -10 58 -29t40.5 -47.5t15.5 -65.5v-378h-22v378q0 33 -13.5 56.5t-35.5 39.5t-50 24t-57 8q-36 0 -76.5 -8.5t-81.5 -25.5v-472h-22v609h-59v20h59v79h22v-79h125v-20h-125v-115q42 20 82 27t75 7h6z" />
    <glyph glyph-name="Imacron" unicode="&#x12a;" horiz-adv-x="211" 
d="M7 807h197v-21h-197v21zM118 0h-25v708h25v-708z" />
    <glyph glyph-name="imacron" unicode="&#x12b;" horiz-adv-x="188" 
d="M-5 617h197v-21h-197v21zM106 0h-24v518h24v-518z" />
    <glyph glyph-name="Iogonek" unicode="&#x12e;" horiz-adv-x="211" 
d="M99 -204q-6 0 -12 1q-18 3 -32 14.5t-20 33.5q-4 14 -4 28q0 21 9 43q16 36 55 84h-2v708h25v-708q-24 -29 -37.5 -51.5t-20 -40t-7 -31.5t3.5 -26q8 -26 35 -33q6 -1 13 -1q22 0 50 19l6 -15q-17 -14 -37 -21q-13 -4 -25 -4z" />
    <glyph glyph-name="iogonek" unicode="&#x12f;" horiz-adv-x="188" 
d="M87 -204q-6 0 -12 1q-18 3 -32 14.5t-20 33.5q-4 14 -4 28q0 21 9 43q16 36 55 84h-1v508h24v-508q-24 -29 -37.5 -51.5t-20 -40t-7 -31.5t3.5 -26q8 -26 35 -33q6 -1 13 -1q22 0 50 19l6 -15q-17 -14 -37 -21q-13 -4 -25 -4zM67 614q0 13 9 22t22 9t22 -9t9 -22t-9 -22
t-22 -9t-22 9t-9 22z" />
    <glyph glyph-name="Idotaccent" unicode="&#x130;" horiz-adv-x="211" 
d="M79 804q0 13 9 22t22 9t22 -9t9 -22t-9 -22t-22 -9t-22 9t-9 22zM118 0h-25v708h25v-708z" />
    <glyph glyph-name="dotlessi" unicode="&#x131;" horiz-adv-x="188" 
d="M106 0h-24v518h24v-518z" />
    <glyph glyph-name="IJ" unicode="&#x132;" horiz-adv-x="788" 
d="M439 708h261v-521q0 -49 -20.5 -86t-54 -61.5t-76 -37t-87.5 -12.5q-37 0 -72.5 9t-65.5 27t-52.5 45t-33.5 62l25 8q11 -34 33 -58t49 -39.5t58 -22.5l60 -7q39 0 77 10.5t68 32t48.5 54t18.5 76.5v498h-236v23zM118 0h-25v708h25v-708z" />
    <glyph glyph-name="ij" unicode="&#x133;" horiz-adv-x="372" 
d="M268 -22v540h22v-540q0 -71 -37 -109.5t-98 -43.5v22q54 5 83.5 37t29.5 94zM250 630q0 13 9 22t22 9t22 -9t9 -22t-9 -22t-22 -9t-22 9t-9 22zM65 630q0 13 9 22t22 9t22 -9t9 -22t-9 -22t-22 -9t-22 9t-9 22zM104 0h-24v518h24v-518z" />
    <glyph glyph-name="Kcommaaccent" unicode="&#x136;" horiz-adv-x="591" 
d="M281 -247h-22l50 149h33zM118 0h-25v708h25v-430l419 430h32l-327 -341l327 -367h-29l-316 349l-106 -106v-243z" />
    <glyph glyph-name="kcommaaccent" unicode="&#x137;" horiz-adv-x="464" 
d="M194 -247h-22l50 149h33zM104 0h-22v708h22v-501l298 311h27l-219 -233l221 -285h-25l-212 269l-90 -90v-179z" />
    <glyph glyph-name="Lacute" unicode="&#x139;" horiz-adv-x="493" 
d="M180 862l-72 -103h-25l62 103h35zM93 0v708h25v-683h354v-25h-379z" />
    <glyph glyph-name="lacute" unicode="&#x13a;" horiz-adv-x="216" 
d="M167 862l-72 -103h-25l62 103h35zM79 147v561h22v-561q0 -57 23.5 -90t78.5 -35v-22q-57 5 -90.5 38.5t-33.5 108.5z" />
    <glyph glyph-name="Lcommaaccent" unicode="&#x13b;" horiz-adv-x="493" 
d="M246 -247h-22l50 149h33zM93 0v708h25v-683h354v-25h-379z" />
    <glyph glyph-name="lcommaaccent" unicode="&#x13c;" horiz-adv-x="216" 
d="M112 -247h-22l50 149h33zM79 147v561h22v-561q0 -57 23.5 -90t78.5 -35v-22q-57 5 -90.5 38.5t-33.5 108.5z" />
    <glyph glyph-name="Lcaron" unicode="&#x13d;" horiz-adv-x="494" 
d="M367 558h-22l50 149h33zM93 0v708h25v-683h354v-25h-379z" />
    <glyph glyph-name="lcaron" unicode="&#x13e;" horiz-adv-x="227" 
d="M196 559h-19l37 140h28zM79 147v561h22v-561q0 -57 23.5 -90t78.5 -35v-22q-57 5 -90.5 38.5t-33.5 108.5z" />
    <glyph glyph-name="Ldot" unicode="&#x13f;" horiz-adv-x="495" 
d="M283 311q0 13 9 22t22 9t22 -9t9 -22t-9 -22t-22 -9t-22 9t-9 22zM93 0v708h25v-683h354v-25h-379z" />
    <glyph glyph-name="ldot" unicode="&#x140;" horiz-adv-x="248" 
d="M183 319q0 13 9 22t22 9t22 -9t9 -22t-9 -22t-22 -9t-22 9t-9 22zM79 147v561h22v-561q0 -57 23.5 -90t78.5 -35v-22q-57 5 -90.5 38.5t-33.5 108.5z" />
    <glyph glyph-name="Lslash" unicode="&#x141;" horiz-adv-x="492" 
d="M96 0v294l-67 -30l-8 17l75 34v394h22v-385l148 67l8 -18l-156 -70v-280h340v-23h-362z" />
    <glyph glyph-name="lslash" unicode="&#x142;" horiz-adv-x="223" 
d="M105 142q0 -55 25 -88q23 -32 71 -32h6v-22q-56 0 -90 35t-34 107v207l-53 -24l-7 18l60 27v338h22v-328l70 33l7 -18l-77 -36v-217z" />
    <glyph glyph-name="Nacute" unicode="&#x143;" horiz-adv-x="671" 
d="M415 862l-72 -103h-25l62 103h35zM553 708h25v-708h-43l-415 676l-1 -676h-26v708h39l421 -684v684z" />
    <glyph glyph-name="nacute" unicode="&#x144;" horiz-adv-x="517" 
d="M336 685l-72 -103h-25l62 103h35zM438 377v-377h-22v377q0 33 -13.5 57t-35.5 40t-49 23.5t-55 7.5q-43 0 -87 -7.5t-73 -19.5v-478h-22v497q87 31 182 31q33 -1 64 -10t56 -27t40 -46.5t15 -67.5z" />
    <glyph glyph-name="Ncommaaccent" unicode="&#x145;" horiz-adv-x="671" 
d="M301 -247h-22l50 149h33zM553 708h25v-708h-43l-415 676l-1 -676h-26v708h39l421 -684v684z" />
    <glyph glyph-name="ncommaaccent" unicode="&#x146;" horiz-adv-x="517" 
d="M220 -247h-22l50 149h33zM438 377v-377h-22v377q0 33 -13.5 57t-35.5 40t-49 23.5t-55 7.5q-43 0 -87 -7.5t-73 -19.5v-478h-22v497q87 31 182 31q33 -1 64 -10t56 -27t40 -46.5t15 -67.5z" />
    <glyph glyph-name="Ncaron" unicode="&#x147;" horiz-adv-x="671" 
d="M242 854h29l71 -79l72 79h28l-86 -94h-28zM553 708h25v-708h-43l-415 676l-1 -676h-26v708h39l421 -684v684z" />
    <glyph glyph-name="ncaron" unicode="&#x148;" horiz-adv-x="517" 
d="M163 677h29l71 -79l72 79h28l-86 -94h-28zM438 377v-377h-22v377q0 33 -13.5 57t-35.5 40t-49 23.5t-55 7.5q-43 0 -87 -7.5t-73 -19.5v-478h-22v497q87 31 182 31q33 -1 64 -10t56 -27t40 -46.5t15 -67.5z" />
    <glyph glyph-name="Eng" unicode="&#x14a;" horiz-adv-x="670" 
d="M577 -22q0 -71 -36.5 -110t-101.5 -43v22q54 5 83.5 37t29.5 94v9l-433 689l-1 -676h-26v708h39l421 -671v671h25v-730z" />
    <glyph glyph-name="eng" unicode="&#x14b;" horiz-adv-x="515" 
d="M436 -22q0 -71 -37 -109.5t-98 -43.5v22q54 5 83.5 37t29.5 94v401q0 33 -13.5 57t-35.5 39t-49 22.5t-55 7.5q-43 0 -87 -7.5t-73 -19.5v-478h-22v497q87 31 182 31q33 -1 64 -9.5t56 -26.5t40 -46t15 -67v-401z" />
    <glyph glyph-name="Omacron" unicode="&#x14c;" horiz-adv-x="682" 
d="M240 806h197v-21h-197v21zM77 518q0 50 22.5 87.5t59.5 62.5t84 37.5t97 12.5q49 0 96.5 -12.5t85 -37.5t60 -62.5t22.5 -87.5v-327q0 -50 -22.5 -87.5t-60 -63t-85 -38t-96.5 -12.5q-50 0 -97 12.5t-84 38t-59.5 63t-22.5 87.5v327zM102 191q0 -44 20.5 -77t53.5 -55
t76 -33t88 -11t87.5 11t76.5 33t54.5 55t20.5 77v327q0 46 -21 79.5t-54.5 55t-76.5 31.5t-88 10t-87.5 -10.5t-75.5 -32t-53.5 -54.5t-20.5 -79v-327z" />
    <glyph glyph-name="omacron" unicode="&#x14d;" horiz-adv-x="495" 
d="M148 629h197v-21h-197v21zM68 376q0 38 15.5 66.5t41 47t57.5 28.5t66 10q33 0 65.5 -10t57.5 -28.5t40.5 -47t15.5 -66.5v-234q0 -38 -15.5 -66.5t-40.5 -47t-57.5 -28.5t-65.5 -10q-34 0 -66 10t-57.5 28.5t-41 47t-15.5 66.5v234zM248 505q-29 0 -57 -7.5t-50.5 -23
t-36.5 -40t-14 -58.5v-234q0 -34 14 -58.5t36.5 -40.5t50.5 -23.5t57 -7.5q28 0 56 7.5t50.5 23.5t36.5 40.5t14 58.5v234q0 34 -14 58.5t-36.5 40t-50.5 23t-56 7.5z" />
    <glyph glyph-name="Ohungarumlaut" unicode="&#x150;" horiz-adv-x="682" 
d="M417 755h-22l51 110h30zM336 865l-72 -103h-25l62 103h35zM77 518q0 50 22.5 87.5t59.5 62.5t84 37.5t97 12.5q49 0 96.5 -12.5t85 -37.5t60 -62.5t22.5 -87.5v-327q0 -50 -22.5 -87.5t-60 -63t-85 -38t-96.5 -12.5q-50 0 -97 12.5t-84 38t-59.5 63t-22.5 87.5v327z
M102 191q0 -44 20.5 -77t53.5 -55t76 -33t88 -11t87.5 11t76.5 33t54.5 55t20.5 77v327q0 46 -21 79.5t-54.5 55t-76.5 31.5t-88 10t-87.5 -10.5t-75.5 -32t-53.5 -54.5t-20.5 -79v-327z" />
    <glyph glyph-name="ohungarumlaut" unicode="&#x151;" horiz-adv-x="495" 
d="M325 578h-22l51 110h30zM244 688l-72 -103h-25l62 103h35zM68 376q0 38 15.5 66.5t41 47t57.5 28.5t66 10q33 0 65.5 -10t57.5 -28.5t40.5 -47t15.5 -66.5v-234q0 -38 -15.5 -66.5t-40.5 -47t-57.5 -28.5t-65.5 -10q-34 0 -66 10t-57.5 28.5t-41 47t-15.5 66.5v234z
M248 505q-29 0 -57 -7.5t-50.5 -23t-36.5 -40t-14 -58.5v-234q0 -34 14 -58.5t36.5 -40.5t50.5 -23.5t57 -7.5q28 0 56 7.5t50.5 23.5t36.5 40.5t14 58.5v234q0 34 -14 58.5t-36.5 40t-50.5 23t-56 7.5z" />
    <glyph glyph-name="OE" unicode="&#x152;" horiz-adv-x="930" 
d="M513 685v-320h334v-24h-334v-317h365v-24h-389v44q-45 -23 -85 -37q-38 -13 -71 -13h-5q-48 1 -94 15.5t-82 42t-58 66t-22 87.5v302q0 49 22.5 87t59 63.5t83.5 38.5t96 13q15 0 34.5 -3t40 -9.5t41.5 -16t40 -22.5v50h389v-23h-365zM340 684h-6q-45 0 -87.5 -10.5
t-75.5 -32.5t-53.5 -55t-20.5 -79v-302q0 -44 20.5 -78.5t53.5 -58.5t75.5 -36.5t87.5 -12.5q38 0 78 14.5t77 34.5v573q-36 19 -77 31q-37 12 -72 12z" />
    <glyph glyph-name="oe" unicode="&#x153;" horiz-adv-x="821" 
d="M584 19q42 0 80.5 15t59.5 48q8 -3 10.5 -5.5t9.5 -5.5q-23 -39 -67 -57t-93 -18q-27 0 -52.5 5.5t-48 17t-40 29t-27.5 40.5q-10 -24 -27.5 -41.5t-40 -29.5t-48.5 -18t-52 -6q-34 0 -66 10t-57.5 28.5t-41 47t-15.5 66.5v229q0 38 15.5 66.5t41 47t57.5 28.5t66 10
q26 0 52 -6t48.5 -18t40 -29.5t27.5 -41.5q10 23 27.5 40t40 28.5t48 17.5t52.5 6q33 0 65.5 -9.5t57.5 -28t40.5 -47t15.5 -66.5v-133h-336v-99q1 -32 14.5 -54.5t35.5 -37.5t49.5 -22t57.5 -7zM248 503q-29 0 -57 -7.5t-50.5 -23t-36.5 -40t-14 -58.5v-229q0 -34 14 -58.5
t36.5 -40.5t50.5 -23.5t57 -7.5q27 0 53.5 6.5t48.5 21t36.5 36.5t17.5 53v255q-3 31 -17.5 53t-36.5 36t-48.5 20.5t-53.5 6.5zM741 374q0 33 -13.5 57t-35.5 39.5t-50.5 23.5t-57.5 8q-30 0 -57.5 -7.5t-49.5 -22.5t-35.5 -38t-14.5 -54v-120h314v114z" />
    <glyph glyph-name="Racute" unicode="&#x154;" horiz-adv-x="611" 
d="M377 862l-72 -103h-25l62 103h35zM117 316v-316h-24v708h250q46 0 86 -10t69 -32.5t46.5 -59t18.5 -90.5q0 -55 -16 -93t-45 -62t-69.5 -34.5t-88.5 -10.5h-38l239 -316h-29l-238 316h-161zM344 338q97 0 146 41.5t49 135.5q0 48 -14.5 81t-40.5 53t-62 29q-32 7 -69 7
h-9h-227v-347h227z" />
    <glyph glyph-name="racute" unicode="&#x155;" horiz-adv-x="297" 
d="M258 682l-72 -103h-25l62 103h35zM239 528q10 0 19 -0.5t19 -1.5v-21q-14 1 -30 1q-2 1 -3 1q-15 0 -34 -4q-21 -4 -41 -14.5t-35 -26.5t-24 -37.5t-9 -47.5v-377h-22v377q0 42 15.5 70.5t39 46.5t51.5 26t54 8z" />
    <glyph glyph-name="Rcommaaccent" unicode="&#x156;" horiz-adv-x="611" 
d="M268 -247h-22l50 149h33zM117 316v-316h-24v708h250q46 0 86 -10t69 -32.5t46.5 -59t18.5 -90.5q0 -55 -16 -93t-45 -62t-69.5 -34.5t-88.5 -10.5h-38l239 -316h-29l-238 316h-161zM344 338q97 0 146 41.5t49 135.5q0 48 -14.5 81t-40.5 53t-62 29q-32 7 -69 7h-9h-227
v-347h227z" />
    <glyph glyph-name="rcommaaccent" unicode="&#x157;" horiz-adv-x="297" 
d="M66 -203h-20l42 132h29zM239 528q10 0 19 -0.5t19 -1.5v-21q-14 1 -30 1q-2 1 -3 1q-15 0 -34 -4q-21 -4 -41 -14.5t-35 -26.5t-24 -37.5t-9 -47.5v-377h-22v377q0 42 15.5 70.5t39 46.5t51.5 26t54 8z" />
    <glyph glyph-name="Rcaron" unicode="&#x158;" horiz-adv-x="611" 
d="M204 854h29l71 -79l72 79h28l-86 -94h-28zM117 316v-316h-24v708h250q46 0 86 -10t69 -32.5t46.5 -59t18.5 -90.5q0 -55 -16 -93t-45 -62t-69.5 -34.5t-88.5 -10.5h-38l239 -316h-29l-238 316h-161zM344 338q97 0 146 41.5t49 135.5q0 48 -14.5 81t-40.5 53t-62 29
q-32 7 -69 7h-9h-227v-347h227z" />
    <glyph glyph-name="rcaron" unicode="&#x159;" horiz-adv-x="297" 
d="M85 674h29l71 -79l72 79h28l-86 -94h-28zM239 528q10 0 19 -0.5t19 -1.5v-21q-14 1 -30 1q-2 1 -3 1q-15 0 -34 -4q-21 -4 -41 -14.5t-35 -26.5t-24 -37.5t-9 -47.5v-377h-22v377q0 42 15.5 70.5t39 46.5t51.5 26t54 8z" />
    <glyph glyph-name="Sacute" unicode="&#x15a;" horiz-adv-x="579" 
d="M362 862l-72 -103h-25l62 103h35zM86 534q0 -32 13 -56q16 -29 45 -49t68 -33t82 -22t86.5 -23t77 -38t52.5 -60q17 -30 17 -71q0 -8 -1 -17q-3 -43 -24.5 -75.5t-54.5 -54.5t-74.5 -33.5t-84.5 -11.5q-33 0 -66 6.5t-63.5 20.5t-57 35.5t-46.5 51.5l23 10q35 -50 92 -75
t120 -25q37 0 72 9t64 27.5t48.5 47t24.5 67.5v14q0 38 -14 65q-17 31 -47 51.5t-69.5 33t-80.5 21.5q-40 8 -81 21t-74.5 35t-53.5 56q-18 31 -18 75v9q1 44 21 76.5t52 53.5t72.5 31.5t82.5 10.5q69 0 128 -25.5t92 -83.5l-23 -9q-14 24 -35.5 41.5t-47.5 29.5t-55 17.5
t-59 5.5q-38 0 -73 -8t-63 -26t-46 -46t-21 -68v-12z" />
    <glyph glyph-name="sacute" unicode="&#x15b;" horiz-adv-x="431" 
d="M295 682l-72 -103h-25l62 103h35zM220 12h8q20 0 43.5 7t43.5 21.5t33 36t13 51.5t-12.5 52t-32 37t-43 24t-46.5 14q-29 5 -58.5 14.5t-53 25.5t-38.5 40t-15 59q0 34 13.5 59t36 41.5t51.5 25t59 8.5q38 0 74 -13t60 -36l-14 -15q-22 21 -55 32.5t-66 11.5
q-26 0 -50 -7t-43.5 -21t-31.5 -35.5t-13 -50.5q0 -31 15.5 -52t37.5 -34t48 -20.5t47 -11.5q28 -5 55 -15.5t48.5 -28t35 -43.5t13.5 -61q0 -33 -13.5 -58.5t-35 -43t-49.5 -27t-57 -9.5q-53 0 -99 21.5t-78 64.5l18 13q32 -40 73 -59q37 -18 78 -18z" />
    <glyph glyph-name="Scedilla" unicode="&#x15e;" horiz-adv-x="579" 
d="M527 182q0 -8 -1 -17q-3 -39 -21 -70t-47.5 -53t-66.5 -35t-77 -16l-34 -61q42 0 60 -22q13 -17 13 -39q0 -6 -1 -13q-5 -25 -30 -44q-23 -18 -59 -18h-8q-17 1 -33.5 6t-31.5 13l3 18q14 -8 29.5 -13t32.5 -6h8q32 0 47 14q18 16 22 35q1 5 1 10q0 19 -17 32
q-16 12 -44 12q-9 0 -19 -1l42 76h-7q-33 0 -66 6.5t-63.5 20.5t-57 35.5t-46.5 51.5l23 10q35 -50 92 -75t120 -25q37 0 72 9t64 27.5t48.5 47t24.5 67.5v14q0 38 -14 65q-17 31 -47 51.5t-69.5 33t-80.5 21.5q-40 8 -81 21t-74.5 35t-53.5 56q-18 31 -18 75v9
q1 44 21 76.5t52 53.5t72.5 31.5t82.5 10.5q69 0 128 -25.5t92 -83.5l-23 -9q-14 24 -35.5 41.5t-47.5 29.5t-55 17.5t-59 5.5q-38 0 -73 -8t-63 -26t-46 -46t-21 -68v-12q0 -32 13 -56q16 -29 45 -49t68 -33t82 -22t86.5 -23t77 -38t52.5 -60q17 -30 17 -71z" />
    <glyph glyph-name="scedilla" unicode="&#x15f;" horiz-adv-x="431" 
d="M383 128q0 -29 -10.5 -52.5t-28.5 -40.5t-41.5 -28t-48.5 -15l-34 -61q42 0 60 -22q13 -17 13 -39q0 -6 -1 -13q-5 -25 -30 -45q-23 -17 -59 -17h-8q-17 1 -33.5 6t-31.5 13l3 18q14 -8 29.5 -13t32.5 -6h8q32 0 47 14q18 16 22 35q1 5 1 10q0 19 -17 32q-16 12 -44 12
q-9 0 -19 -1l42 75h-7q-53 0 -99 21.5t-78 64.5l18 13q32 -40 73 -59q37 -18 78 -18h8q20 0 43.5 7t43.5 21.5t33 36t13 51.5t-12.5 52t-32 37t-43 24t-46.5 14q-29 5 -58.5 14.5t-53 25.5t-38.5 40t-15 59q0 34 13.5 59t36 41.5t51.5 25t59 8.5q38 0 74 -13t60 -36l-14 -15
q-22 21 -55 32.5t-66 11.5q-26 0 -50 -7t-43.5 -21t-31.5 -35.5t-13 -50.5q0 -31 15.5 -52t37.5 -34t48 -20.5t47 -11.5q28 -5 55 -15.5t48.5 -28t35 -43.5t13.5 -61z" />
    <glyph glyph-name="Scaron" unicode="&#x160;" horiz-adv-x="579" 
d="M189 854h29l71 -79l72 79h28l-86 -94h-28zM86 534q0 -32 13 -56q16 -29 45 -49t68 -33t82 -22t86.5 -23t77 -38t52.5 -60q17 -30 17 -71q0 -8 -1 -17q-3 -43 -24.5 -75.5t-54.5 -54.5t-74.5 -33.5t-84.5 -11.5q-33 0 -66 6.5t-63.5 20.5t-57 35.5t-46.5 51.5l23 10
q35 -50 92 -75t120 -25q37 0 72 9t64 27.5t48.5 47t24.5 67.5v14q0 38 -14 65q-17 31 -47 51.5t-69.5 33t-80.5 21.5q-40 8 -81 21t-74.5 35t-53.5 56q-18 31 -18 75v9q1 44 21 76.5t52 53.5t72.5 31.5t82.5 10.5q69 0 128 -25.5t92 -83.5l-23 -9q-14 24 -35.5 41.5
t-47.5 29.5t-55 17.5t-59 5.5q-38 0 -73 -8t-63 -26t-46 -46t-21 -68v-12z" />
    <glyph glyph-name="scaron" unicode="&#x161;" horiz-adv-x="431" 
d="M122 674h29l71 -79l72 79h28l-86 -94h-28zM220 12h8q20 0 43.5 7t43.5 21.5t33 36t13 51.5t-12.5 52t-32 37t-43 24t-46.5 14q-29 5 -58.5 14.5t-53 25.5t-38.5 40t-15 59q0 34 13.5 59t36 41.5t51.5 25t59 8.5q38 0 74 -13t60 -36l-14 -15q-22 21 -55 32.5t-66 11.5
q-26 0 -50 -7t-43.5 -21t-31.5 -35.5t-13 -50.5q0 -31 15.5 -52t37.5 -34t48 -20.5t47 -11.5q28 -5 55 -15.5t48.5 -28t35 -43.5t13.5 -61q0 -33 -13.5 -58.5t-35 -43t-49.5 -27t-57 -9.5q-53 0 -99 21.5t-78 64.5l18 13q32 -40 73 -59q37 -18 78 -18z" />
    <glyph glyph-name="Tcommaaccent" unicode="&#x162;" horiz-adv-x="541" 
d="M229 -247h-22l50 149h33zM22 0zM519 683h-236v-683h-25v683h-236v25h497v-25z" />
    <glyph glyph-name="tcommaaccent" unicode="&#x163;" horiz-adv-x="255" 
d="M79 151v486h22v-119h112v-20h-112v-347q0 -38 13 -63.5t33 -41t45 -21.5t49 -4v-21q-35 -1 -64.5 8t-51 28t-34 47.5t-12.5 67.5zM79 0zM126 -247h-22l50 149h33z" />
    <glyph glyph-name="Tcaron" unicode="&#x164;" horiz-adv-x="541" 
d="M171 854h29l71 -79l72 79h28l-86 -94h-28zM519 683h-236v-683h-25v683h-236v25h497v-25z" />
    <glyph glyph-name="tcaron" unicode="&#x165;" horiz-adv-x="255" 
d="M207 599h-22l36 109h28zM234 0q-31 0 -58 8q-29 9 -50.5 28t-34 47.5t-12.5 67.5v486h22v-119h112v-20h-112v-347q0 -38 13 -63.5t33 -41t45 -21.5q19 -5 37 -5q6 0 12 1v-21h-7z" />
    <glyph glyph-name="Tbar" unicode="&#x166;" horiz-adv-x="544" 
d="M380 360v-19h-96v-341h-25v341h-96v19h96v323h-236v25h497v-25h-236v-323h96z" />
    <glyph glyph-name="tbar" unicode="&#x167;" horiz-adv-x="258" 
d="M237 0q-31 0 -57 8q-30 9 -51.5 28t-34 47.5t-12.5 67.5v157h-56v18h56v311h22v-119h112v-20h-112v-172h79v-18h-79v-157q0 -38 13 -63.5t33 -41t45 -21.5q19 -5 37 -5q6 0 12 1v-21h-7z" />
    <glyph glyph-name="Umacron" unicode="&#x16a;" horiz-adv-x="673" 
d="M238 807h197v-21h-197v21zM113 194q0 -45 19 -79t50.5 -56.5t71.5 -33.5t82 -11t82 11t71.5 33.5t51 56.5t19.5 79v514h25v-514q0 -51 -21.5 -89t-56.5 -63.5t-80 -38.5t-91 -13q-47 0 -91.5 13t-79 38.5t-56 63.5t-21.5 89v514h25v-514z" />
    <glyph glyph-name="umacron" unicode="&#x16b;" horiz-adv-x="516" 
d="M164 627h197v-21h-197v21zM254 -10q-33 0 -64.5 9.5t-56 28.5t-39.5 47.5t-15 65.5v377h22v-377q0 -32 14 -56t36 -40.5t49 -24.5t54 -8q20 0 42 2t43.5 6t40.5 9.5t34 11.5v477h22v-496q-90 -32 -182 -32z" />
    <glyph glyph-name="Uring" unicode="&#x16e;" horiz-adv-x="673" 
d="M262 830q0 38 23 58t55 20q34 0 54.5 -24t20.5 -55q0 -30 -22 -53.5t-53 -23.5q-32 0 -55 21t-23 57zM394 830q0 23 -16 40t-39 17t-38.5 -15.5t-15.5 -42.5q0 -23 15.5 -39.5t38.5 -16.5t39 17t16 40zM113 194q0 -45 19 -79t50.5 -56.5t71.5 -33.5t82 -11t82 11
t71.5 33.5t51 56.5t19.5 79v514h25v-514q0 -51 -21.5 -89t-56.5 -63.5t-80 -38.5t-91 -13q-47 0 -91.5 13t-79 38.5t-56 63.5t-21.5 89v514h25v-514z" />
    <glyph glyph-name="uring" unicode="&#x16f;" horiz-adv-x="516" 
d="M188 650q0 38 23 58t55 20q34 0 54.5 -24t20.5 -55q0 -30 -22 -53.5t-53 -23.5q-32 0 -55 21t-23 57zM320 650q0 23 -16 40t-39 17t-38.5 -15.5t-15.5 -42.5q0 -23 15.5 -39.5t38.5 -16.5t39 17t16 40zM254 -10q-33 0 -64.5 9.5t-56 28.5t-39.5 47.5t-15 65.5v377h22
v-377q0 -32 14 -56t36 -40.5t49 -24.5t54 -8q20 0 42 2t43.5 6t40.5 9.5t34 11.5v477h22v-496q-90 -32 -182 -32z" />
    <glyph glyph-name="Uhungarumlaut" unicode="&#x170;" horiz-adv-x="673" 
d="M415 756h-22l51 110h30zM334 866l-72 -103h-25l62 103h35zM113 194q0 -45 19 -79t50.5 -56.5t71.5 -33.5t82 -11t82 11t71.5 33.5t51 56.5t19.5 79v514h25v-514q0 -51 -21.5 -89t-56.5 -63.5t-80 -38.5t-91 -13q-47 0 -91.5 13t-79 38.5t-56 63.5t-21.5 89v514h25v-514z
" />
    <glyph glyph-name="uhungarumlaut" unicode="&#x171;" horiz-adv-x="516" 
d="M341 576h-22l51 110h30zM260 686l-72 -103h-25l62 103h35zM254 -10q-33 0 -64.5 9.5t-56 28.5t-39.5 47.5t-15 65.5v377h22v-377q0 -32 14 -56t36 -40.5t49 -24.5t54 -8q20 0 42 2t43.5 6t40.5 9.5t34 11.5v477h22v-496q-90 -32 -182 -32z" />
    <glyph glyph-name="Uogonek" unicode="&#x172;" horiz-adv-x="673" 
d="M585 193q0 -36 -12.5 -64.5t-32 -51t-43.5 -40.5t-48 -32q-14 -8 -32.5 -23.5t-33.5 -36t-23 -44.5q-4 -13 -4 -26q0 -12 3 -24q8 -26 35 -33q6 -1 13 -1q22 0 50 19l6 -15q-17 -14 -37 -21q-13 -4 -25 -4q-6 0 -12 1q-18 3 -32 14.5t-20 33.5q-5 15 -5 31q0 19 8 39
q8 19 23.5 39.5t41.5 43.5q-14 -5 -34.5 -6.5t-34.5 -1.5q-47 0 -91.5 13t-79 38.5t-56 63.5t-21.5 89v514h25v-514q0 -45 19 -79t50.5 -56.5t71.5 -33.5t82 -11t82 11t71.5 33.5t51 56.5t19.5 79v514h25v-515z" />
    <glyph glyph-name="uogonek" unicode="&#x173;" horiz-adv-x="518" 
d="M397 -204q-6 0 -12 1q-18 3 -32 14.5t-20 33.5q-3 10 -3 21q0 25 14 56q21 44 59 90q-36 -11 -73.5 -16.5t-75.5 -5.5q-33 0 -64.5 9.5t-56 28.5t-39.5 47.5t-15 65.5v377h22v-377q0 -32 14 -56t36 -40.5t49 -24.5t54 -8q20 0 42 2t43.5 6t40.5 9.5t34 11.5v477h22v-496
q-53 -63 -71 -104q-12 -29 -12 -50q0 -9 2 -17q8 -26 35 -33q6 -1 13 -1q22 0 50 19l6 -15q-17 -14 -37 -21q-13 -4 -25 -4z" />
    <glyph glyph-name="Wcircumflex" unicode="&#x174;" horiz-adv-x="927" 
d="M535 755l-72 79l-71 -79h-29l86 94h28l86 -94h-28zM901 708l-207 -708h-41l-189 578l-190 -578h-39l-210 708h27l201 -673h5l189 567h33l190 -569h6l198 675h27z" />
    <glyph glyph-name="wcircumflex" unicode="&#x175;" horiz-adv-x="715" 
d="M429 575l-72 79l-71 -79h-29l86 94h28l86 -94h-28zM185 0l-153 518h27l146 -497h3l129 497h39l131 -496h3l146 496h27l-154 -518h-42l-130 495h-2l-128 -495h-42z" />
    <glyph glyph-name="Ycircumflex" unicode="&#x176;" horiz-adv-x="550" 
d="M346 755l-72 79l-71 -79h-29l86 94h28l86 -94h-28zM286 0h-25v281l-242 427h30l225 -399l232 399h31l-251 -427v-281z" />
    <glyph glyph-name="ycircumflex" unicode="&#x177;" horiz-adv-x="518" 
d="M332 575l-72 79l-71 -79h-29l86 94h28l86 -94h-28zM436 -43q0 -38 -15 -65.5t-40 -45.5t-56.5 -27t-64.5 -9q-42 0 -79.5 13t-65.5 37l14 16q33 -24 62 -33.5t70 -9.5q27 0 54 7t49 22t36 38t14 56v75q-45 -22 -82.5 -31t-72.5 -9q-34 0 -66 9.5t-57.5 28.5t-41 47
t-15.5 65v377h23v-377q0 -32 13 -55.5t35 -39.5t49.5 -24.5t57.5 -9.5q24 0 43.5 2.5t37.5 7.5t36.5 13t39.5 19v464h22v-561z" />
    <glyph glyph-name="Ydieresis" unicode="&#x178;" horiz-adv-x="550" 
d="M337 809q0 13 9 22t22 9t22 -9t9 -22t-9 -22t-22 -9t-22 9t-9 22zM157 809q0 13 9 22t22 9t22 -9t9 -22t-9 -22t-22 -9t-22 9t-9 22zM286 0h-25v281l-242 427h30l225 -399l232 399h31l-251 -427v-281z" />
    <glyph glyph-name="Zacute" unicode="&#x179;" horiz-adv-x="550" 
d="M359 862l-72 -103h-25l62 103h35zM49 708h460l9 -13l-455 -673h441v-22h-465l-10 12l455 674h-435v22z" />
    <glyph glyph-name="zacute" unicode="&#x17a;" horiz-adv-x="440" 
d="M298 683l-72 -103h-25l62 103h35zM53 518h335l10 -17l-337 -480h334v-21h-345l-14 21l334 477h-317v20z" />
    <glyph glyph-name="Zdotaccent" unicode="&#x17b;" horiz-adv-x="550" 
d="M259 804q0 13 9 22t22 9t22 -9t9 -22t-9 -22t-22 -9t-22 9t-9 22zM49 708h460l9 -13l-455 -673h441v-22h-465l-10 12l455 674h-435v22z" />
    <glyph glyph-name="zdotaccent" unicode="&#x17c;" horiz-adv-x="440" 
d="M198 625q0 13 9 22t22 9t22 -9t9 -22t-9 -22t-22 -9t-22 9t-9 22zM53 518h335l10 -17l-337 -480h334v-21h-345l-14 21l334 477h-317v20z" />
    <glyph glyph-name="Zcaron" unicode="&#x17d;" horiz-adv-x="550" 
d="M186 854h29l71 -79l72 79h28l-86 -94h-28zM49 708h460l9 -13l-455 -673h441v-22h-465l-10 12l455 674h-435v22z" />
    <glyph glyph-name="zcaron" unicode="&#x17e;" horiz-adv-x="440" 
d="M125 675h29l71 -79l72 79h28l-86 -94h-28zM53 518h335l10 -17l-337 -480h334v-21h-345l-14 21l334 477h-317v20z" />
    <glyph glyph-name="florin" unicode="&#x192;" horiz-adv-x="410" 
d="M344 696q-23 0 -40 -8t-29 -21.5t-19 -30.5t-10 -35l-36 -199h113l-4 -20h-114l-74 -399q-14 -56 -42 -83t-84 -27l4 24q10 0 24.5 2.5t28.5 11t26.5 25.5t18.5 46l72 400h-111l5 20h111l37 197q5 23 14 44.5t23.5 38t35.5 26.5t50 10q13 0 25 -2.5t24 -7.5l-9 -21
q-8 3 -19.5 6t-20.5 3z" />
    <glyph glyph-name="Scommaaccent" unicode="&#x218;" horiz-adv-x="579" 
d="M246 -249h-22l50 149h33zM86 534q0 -32 13 -56q16 -29 45 -49t68 -33t82 -22t86.5 -23t77 -38t52.5 -60q17 -30 17 -71q0 -8 -1 -17q-3 -43 -24.5 -75.5t-54.5 -54.5t-74.5 -33.5t-84.5 -11.5q-33 0 -66 6.5t-63.5 20.5t-57 35.5t-46.5 51.5l23 10q35 -50 92 -75t120 -25
q37 0 72 9t64 27.5t48.5 47t24.5 67.5v14q0 38 -14 65q-17 31 -47 51.5t-69.5 33t-80.5 21.5q-40 8 -81 21t-74.5 35t-53.5 56q-18 31 -18 75v9q1 44 21 76.5t52 53.5t72.5 31.5t82.5 10.5q69 0 128 -25.5t92 -83.5l-23 -9q-14 24 -35.5 41.5t-47.5 29.5t-55 17.5t-59 5.5
q-38 0 -73 -8t-63 -26t-46 -46t-21 -68v-12z" />
    <glyph glyph-name="scommaaccent" unicode="&#x219;" horiz-adv-x="431" 
d="M186 -248h-22l50 149h33zM220 12h8q20 0 43.5 7t43.5 21.5t33 36t13 51.5t-12.5 52t-32 37t-43 24t-46.5 14q-29 5 -58.5 14.5t-53 25.5t-38.5 40t-15 59q0 34 13.5 59t36 41.5t51.5 25t59 8.5q38 0 74 -13t60 -36l-14 -15q-22 21 -55 32.5t-66 11.5q-26 0 -50 -7
t-43.5 -21t-31.5 -35.5t-13 -50.5q0 -31 15.5 -52t37.5 -34t48 -20.5t47 -11.5q28 -5 55 -15.5t48.5 -28t35 -43.5t13.5 -61q0 -33 -13.5 -58.5t-35 -43t-49.5 -27t-57 -9.5q-53 0 -99 21.5t-78 64.5l18 13q32 -40 73 -59q37 -18 78 -18z" />
    <glyph glyph-name="uni021A" unicode="&#x21a;" horiz-adv-x="541" 
d="M229 -247h-22l50 149h33zM519 683h-236v-683h-25v683h-236v25h497v-25z" />
    <glyph glyph-name="uni021B" unicode="&#x21b;" horiz-adv-x="255" 
d="M126 -247h-22l50 149h33zM234 0q-31 0 -58 8q-29 9 -50.5 28t-34 47.5t-12.5 67.5v486h22v-119h112v-20h-112v-347q0 -38 13 -63.5t33 -41t45 -21.5q19 -5 37 -5q6 0 12 1v-21h-7z" />
    <glyph glyph-name="circumflex" unicode="&#x2c6;" horiz-adv-x="280" 
d="M213 755l-72 79l-71 -79h-29l86 94h28l86 -94h-28z" />
    <glyph glyph-name="caron" unicode="&#x2c7;" horiz-adv-x="278" 
d="M44 854h29l71 -79l72 79h28l-86 -94h-28z" />
    <glyph glyph-name="uni02C9" unicode="&#x2c9;" horiz-adv-x="267" 
d="M261 783h-228v23h228v-23z" />
    <glyph glyph-name="breve" unicode="&#x2d8;" horiz-adv-x="608" 
d="M304 777q-33 0 -62 19.5t-38 57.5h23q8 -28 30 -41.5t47 -13.5t47 13.5t30 41.5h23q-9 -38 -38 -57.5t-62 -19.5z" />
    <glyph glyph-name="dotaccent" unicode="&#x2d9;" horiz-adv-x="240" 
d="M115 804q0 13 9 22t22 9t22 -9t9 -22t-9 -22t-22 -9t-22 9t-9 22z" />
    <glyph glyph-name="ring" unicode="&#x2da;" horiz-adv-x="239" 
d="M27 830q0 38 23 58t55 20q34 0 54.5 -24t20.5 -55q0 -30 -22 -53.5t-53 -23.5q-32 0 -55 21t-23 57zM159 830q0 23 -16 40t-39 17t-38.5 -15.5t-15.5 -42.5q0 -23 15.5 -39.5t38.5 -16.5t39 17t16 40z" />
    <glyph glyph-name="ogonek" unicode="&#x2db;" horiz-adv-x="229" 
d="M134 -204q-6 0 -12 1q-18 3 -32 14.5t-20 33.5q-4 14 -4 28q0 21 10 43q15 36 54 84h23q-24 -29 -37.5 -51.5t-20 -40t-7 -31.5t3.5 -26q8 -26 36 -33q5 -1 12 -1q22 0 50 19l6 -15q-17 -14 -36 -21q-14 -4 -26 -4z" />
    <glyph glyph-name="tilde" unicode="&#x2dc;" horiz-adv-x="271" 
d="M105 843q15 0 28 -7.5t25 -16.5t23 -16.5t23 -7.5q16 0 24.5 8.5t14.5 23.5l16 -6q-6 -18 -19 -33t-36 -15q-15 0 -27.5 7.5t-24 17t-23.5 17t-25 7.5q-14 0 -25.5 -9t-18.5 -25l-15 6q8 20 22.5 34.5t37.5 14.5z" />
    <glyph glyph-name="hungarumlaut" unicode="&#x2dd;" horiz-adv-x="239" 
d="M198 756h-22l51 110h30zM117 866l-72 -103h-25l62 103h35z" />
    <glyph glyph-name="uni0326" unicode="&#x326;" horiz-adv-x="0" 
d="M262 -247h-22l50 149h33z" />
    <glyph glyph-name="uni03A9" unicode="&#x3a9;" horiz-adv-x="765" 
d="M67 378q0 73 25.5 133.5t69 103.5t102 66.5t124.5 23.5q69 0 126.5 -26t98 -70.5t63 -103t22.5 -123.5q0 -54 -14 -104.5t-38 -94.5t-56.5 -81t-68.5 -65h190v-22h-241v12q42 25 78.5 63t64.5 84.5t44 99.5t16 108q0 53 -19 106.5t-55.5 96.5t-89.5 70t-121 27
q-64 0 -118 -23t-93.5 -64t-61.5 -96.5t-22 -121.5q0 -60 16 -111t44 -94.5t65.5 -79.5t79.5 -64v-12h-243v21h194l-36 30q-30 25 -57 57t-46.5 71t-31 85t-11.5 98z" />
    <glyph glyph-name="uni03BC" unicode="&#x3bc;" horiz-adv-x="523" 
d="M82 -211v729h23v-328q0 -28 6 -58t21 -55t41.5 -41.5t67.5 -16.5q37 0 69 13.5t55.5 40.5t37 66.5t13.5 91.5v287h24l3 -518h-22v137q-11 -39 -30 -65t-43.5 -42t-51.5 -23q-4 -1 -9 -2t-10 -1.5t-10.5 -1t-10 -1t-8 -1t-5.5 -0.5h-2q-20 0 -41 4t-39.5 15t-34 29.5
t-23.5 47.5l1 -307h-22z" />
    <glyph glyph-name="pi" unicode="&#x3c0;" horiz-adv-x="543" 
d="M403 106v387h-242v-486h-21v486q-26 0 -42.5 -1t-27.5 -3t-20 -4.5t-21 -5.5l-3 19q17 7 43 11.5t67 4.5h371l-1 -21h-81v-387q0 -23 1 -39.5t6 -27.5t16 -16t32 -5l1 -19q-26 0 -41 4t-23.5 15.5t-11 32.5t-2.5 55z" />
    <glyph glyph-name="uni0401" unicode="&#x401;" horiz-adv-x="565" 
d="M370 809q0 13 9 22t22 9t22 -9t9 -22t-9 -22t-22 -9t-22 9t-9 22zM190 809q0 13 9 22t22 9t22 -9t9 -22t-9 -22t-22 -9t-22 9t-9 22zM118 366h366v-27h-366v-314h396v-25h-421v708h421v-25h-396v-317z" />
    <glyph glyph-name="uni0410" unicode="&#x410;" horiz-adv-x="600" 
d="M45 0h-27l262 708h40l262 -708h-27l-94 253h-322zM298 684l-150 -406h304l-150 406h-4z" />
    <glyph glyph-name="uni0411" unicode="&#x411;" horiz-adv-x="619" 
d="M118 685v-292h242q106 0 160 -50q51 -48 51 -147v-7q-1 -55 -18 -91.5t-46.5 -58t-69.5 -30.5t-86 -9h-258v708h429v-23h-404zM118 24h234h9q37 0 69 8q36 8 61.5 28t40 52t14.5 78q0 95 -52 137t-142 42h-234v-345z" />
    <glyph glyph-name="uni0412" unicode="&#x412;" horiz-adv-x="627" 
d="M351 0h-258v708h259q39 0 73 -11t58.5 -33t39 -54t14.5 -74q0 -45 -17 -83t-54 -60l-31 -17l35 -12q29 -12 48.5 -32t31.5 -44t16.5 -49.5t4.5 -49.5q-1 -55 -18.5 -91.5t-46.5 -58t-69 -30.5t-86 -9zM352 387q35 0 64.5 9t51 27t33.5 46t12 66q0 37 -12.5 65t-34.5 47
t-51 28.5t-63 9.5h-234v-298h234zM361 24q37 0 69 8q36 8 61.5 28t40 52t14.5 78q0 93 -52 134q-52 39 -138 39h-4h-234v-339h234h9z" />
    <glyph glyph-name="uni0413" unicode="&#x413;" horiz-adv-x="515" 
d="M118 683v-683h-25v708h400v-25h-375z" />
    <glyph glyph-name="uni0414" unicode="&#x414;" horiz-adv-x="677" 
d="M639 26v-183h-26v157h-576v-157h-26v183h25q44 6 71.5 39t45 90t26.5 137t16 180l16 236h361v-682h67zM546 26v656h-311l-17 -260q-6 -96 -17 -166t-26.5 -118t-36 -75.5t-45.5 -36.5h453z" />
    <glyph glyph-name="uni0415" unicode="&#x415;" horiz-adv-x="565" 
d="M118 366h366v-27h-366v-314h396v-25h-421v708h421v-25h-396v-317z" />
    <glyph glyph-name="uni0416" unicode="&#x416;" horiz-adv-x="863" 
d="M444 0h-25v263l-80 89l-276 -352h-34l292 372l-303 336l38 -1l363 -408v409h25v-409l363 408l38 1l-303 -336l292 -372h-34l-276 352l-80 -89v-263z" />
    <glyph glyph-name="uni0417" unicode="&#x417;" horiz-adv-x="532" 
d="M256 718q39 0 73 -11.5t58.5 -34t39 -56.5t14.5 -80q0 -27 -4.5 -49t-16.5 -41.5t-33.5 -36.5t-54.5 -33q49 -16 77.5 -36.5t43.5 -44.5t18.5 -51t3.5 -55q-1 -55 -18.5 -93t-46.5 -61.5t-69 -34t-86 -10.5q-72 0 -128.5 24.5t-94.5 77.5l21 13q36 -47 85.5 -69
t117.5 -22h8q37 0 70 9q36 10 61.5 32t40 55.5t14.5 79.5q0 93 -52.5 134t-141.5 41h-87v21h87q35 0 64.5 9t51 27.5t33.5 46.5t12 66q0 41 -12.5 71t-34.5 50t-51 29.5t-63 9.5q-54 0 -99.5 -17.5t-73.5 -56.5l-20 10q32 48 81 67.5t112 19.5z" />
    <glyph glyph-name="uni0418" unicode="&#x418;" horiz-adv-x="687" 
d="M569 0v623l1 53h-1l-36 -54l-401 -622h-39v708h25v-615l-1 -69h1l43 66l399 618h34v-708h-25z" />
    <glyph glyph-name="uni0419" unicode="&#x419;" horiz-adv-x="687" 
d="M345 790q-63 0 -101.5 37t-47.5 94h25q10 -45 39.5 -75.5t84.5 -30.5t84.5 30.5t39.5 75.5h25q-9 -57 -47.5 -94t-101.5 -37zM569 0v624l1 52h-1l-34 -52l-403 -624h-39v708h25v-597l-1 -87h1l52 80l389 604h35v-708h-25z" />
    <glyph glyph-name="uni041A" unicode="&#x41a;" horiz-adv-x="591" 
d="M118 0h-25v708h25v-430l419 430h32l-327 -341l327 -367h-29l-316 349l-106 -106v-243z" />
    <glyph glyph-name="uni041B" unicode="&#x41b;" horiz-adv-x="660" 
d="M542 0v683h-309l-20 -282q-5 -69 -13.5 -140.5t-29.5 -129t-60 -94.5t-104 -37v25q53 0 86 33t53 86t29 121t14 138l22 305h357v-708h-25z" />
    <glyph glyph-name="uni041C" unicode="&#x41c;" horiz-adv-x="797" 
d="M118 0h-25v708h53l253 -573l252 573h53v-708h-25v690h-9l-254 -578h-34l-255 571l-9 -1v-682z" />
    <glyph glyph-name="uni041D" unicode="&#x41d;" horiz-adv-x="683" 
d="M118 0h-25v708h25v-342h447v342h25v-708h-25v341h-447v-341z" />
    <glyph glyph-name="uni041E" unicode="&#x41e;" horiz-adv-x="682" 
d="M77 518q0 50 22.5 87.5t59.5 62.5t84 37.5t97 12.5q49 0 96.5 -12.5t85 -37.5t60 -62.5t22.5 -87.5v-327q0 -50 -22.5 -87.5t-60 -63t-85 -38t-96.5 -12.5q-50 0 -97 12.5t-84 38t-59.5 63t-22.5 87.5v327zM102 191q0 -44 20.5 -77t53.5 -55t76 -33t88 -11t87.5 11
t76.5 33t54.5 55t20.5 77v327q0 46 -21 79.5t-54.5 55t-76.5 31.5t-88 10t-87.5 -10.5t-75.5 -32t-53.5 -54.5t-20.5 -79v-327z" />
    <glyph glyph-name="uni041F" unicode="&#x41f;" horiz-adv-x="675" 
d="M118 0h-25v708h489v-708h-25v683h-439v-683z" />
    <glyph glyph-name="uni0420" unicode="&#x420;" horiz-adv-x="602" 
d="M93 0v708h250q54 -1 94.5 -20t68 -49.5t41 -68.5t13.5 -77t-13.5 -76.5t-40.5 -67.5t-67.5 -48.5t-94.5 -18.5h-226v-282h-25zM343 307q49 0 85 16.5t60 42.5t35.5 59.5t11.5 68.5t-12 69t-36 61t-60 44t-84 17h-225v-378h225z" />
    <glyph glyph-name="uni0421" unicode="&#x421;" horiz-adv-x="584" 
d="M78 520q0 49 21.5 86t57 62t80.5 37.5t92 12.5q67 0 127.5 -25.5t92.5 -76.5l-22 -16q-28 46 -84 70t-117 24q-41 0 -81 -11t-71.5 -32.5t-51 -54.5t-19.5 -76v-332q0 -44 19.5 -76t51 -54t71.5 -32.5t81 -10.5q30 0 59.5 5.5t56 16.5t48.5 27.5t37 39.5l22 -11
q-32 -51 -93.5 -77t-129.5 -26q-46 0 -90.5 12.5t-79.5 37.5t-56.5 62t-21.5 86v332z" />
    <glyph glyph-name="uni0422" unicode="&#x422;" horiz-adv-x="541" 
d="M519 683h-236v-683h-25v683h-236v25h497v-25z" />
    <glyph glyph-name="uni0423" unicode="&#x423;" horiz-adv-x="506" 
d="M145 0l99 216l-242 492h32l173 -357l51 -104h1l43 97l164 364h29l-321 -708h-29z" />
    <glyph glyph-name="uni0424" unicode="&#x424;" horiz-adv-x="725" 
d="M375 622q55 0 107.5 -6.5t93 -25t65 -51.5t24.5 -86v-198q0 -53 -24.5 -86t-65 -51.5t-93 -25t-107.5 -6.5v-86h-25v86q-56 0 -108 6.5t-92.5 25t-65 51.5t-24.5 86v198q0 53 24.5 86t65 51.5t92.5 25t108 6.5v86h25v-86zM350 597q-46 0 -93 -5t-85.5 -20.5t-62.5 -44
t-24 -74.5v-198q0 -47 24 -75t62.5 -43.5t85.5 -20.5t93 -5v486zM375 111q46 0 93 5t85.5 20.5t62.5 43.5t24 75v198q0 46 -24 74.5t-62.5 44t-85.5 20.5t-93 5v-486z" />
    <glyph glyph-name="uni0425" unicode="&#x425;" horiz-adv-x="547" 
d="M520 0h-29l-217 336l-217 -336h-31l233 353l-232 355h28l219 -332l218 332h29l-233 -355z" />
    <glyph glyph-name="uni0426" unicode="&#x426;" horiz-adv-x="679" 
d="M641 26v-183h-26v157h-523v708h25v-682h431v682h26v-682h67z" />
    <glyph glyph-name="uni0427" unicode="&#x427;" horiz-adv-x="605" 
d="M487 0v342q-39 -43 -89 -71t-120 -28q-45 0 -84.5 12.5t-69.5 38t-47.5 64.5t-17.5 91v259h25v-259q0 -46 16.5 -80t44 -56.5t62.5 -33.5t71 -11t66 8t55 22t46.5 33.5t41.5 42.5v334h25v-708h-25z" />
    <glyph glyph-name="uni0428" unicode="&#x428;" horiz-adv-x="881" 
d="M93 0v708h25v-683h310v683h25v-683h310v683h25v-708h-695z" />
    <glyph glyph-name="uni0429" unicode="&#x429;" horiz-adv-x="892" 
d="M853 26v-183h-25v157h-737v708h25v-682h310v682h25v-682h310v682h26v-682h66z" />
    <glyph glyph-name="uni042A" unicode="&#x42a;" horiz-adv-x="677" 
d="M421 406q105 0 159 -52q52 -51 52 -161q0 -57 -18 -95q-17 -37 -46.5 -58.5t-69.5 -30.5t-86 -9h-252v684h-136v24h161v-302h236zM185 24h228q42 0 78 8.5t61.5 28t40 51.5t14.5 78q0 52 -13.5 89t-38.5 59.5t-61 33t-81 10.5h-228v-358z" />
    <glyph glyph-name="uni042B" unicode="&#x42b;" horiz-adv-x="810" 
d="M354 406q105 0 158 -52q53 -51 53 -161q0 -57 -18 -95q-17 -37 -46.5 -58.5t-69.5 -30.5t-86 -9h-252v708h25v-302h236zM118 24h228q42 0 78 8.5t61.5 28t40 51.5t14.5 78q0 52 -13.5 89t-38.5 59.5t-61 33t-81 10.5h-228v-358zM717 0h-25v708h25v-708z" />
    <glyph glyph-name="uni042C" unicode="&#x42c;" horiz-adv-x="610" 
d="M354 406q105 0 158 -52q53 -51 53 -161q0 -57 -18 -95q-17 -37 -46.5 -58.5t-69.5 -30.5t-86 -9h-252v708h25v-302h236zM118 24h228q42 0 78 8.5t61.5 28t40 51.5t14.5 78q0 52 -13.5 89t-38.5 59.5t-61 33t-81 10.5h-228v-358z" />
    <glyph glyph-name="uni042D" unicode="&#x42d;" horiz-adv-x="596" 
d="M268 718q50 0 95 -12.5t79.5 -37.5t55 -62t20.5 -86v-332q0 -49 -21.5 -86t-56.5 -62t-79.5 -37.5t-90.5 -12.5q-68 0 -129.5 26t-93.5 77l22 11q15 -23 37 -39.5t48.5 -27.5t55.5 -17q1 0 60 -5q41 0 81 10.5t71.5 32.5t51 54t19.5 76v153h-338v27h338v152
q0 43 -19.5 76t-51 54.5t-71.5 32.5t-81 11q-30 0 -60.5 -6t-57 -18t-48.5 -29.5t-36 -40.5l-21 16q16 25 40 44.5t53 32t62 19t66 6.5z" />
    <glyph glyph-name="uni042E" unicode="&#x42e;" horiz-adv-x="919" 
d="M582 718q49 0 96.5 -12t85 -36.5t60 -62.5t22.5 -89v-326q0 -51 -22.5 -89t-60 -62.5t-85 -37t-96.5 -12.5q-50 0 -97 12.5t-84 37t-59.5 62.5t-22.5 89v152h-203v-344h-25v708h25v-339h203v149q0 51 22.5 88.5t59.5 62.5t84 37t97 12zM581 694q-45 0 -87.5 -10.5
t-75.5 -32t-53.5 -54.5t-20.5 -79v-326q0 -44 20.5 -77t53.5 -55t76 -33t88 -11t87.5 11t76.5 33t54.5 55t20.5 77v326q0 46 -21 79.5t-54.5 55t-76.5 31.5t-88 10z" />
    <glyph glyph-name="uni042F" unicode="&#x42f;" horiz-adv-x="621" 
d="M56 498q0 42 13 80t41.5 67t72.5 46t106 17h239v-708h-25l2 309h-168l-268 -309h-32l268 309q-49 0 -94 10t-79.5 32t-55 58t-20.5 89zM281 684q-54 0 -92 -16t-62 -42t-35 -59.5t-11 -68.5q0 -44 20 -75t51 -51t69 -29.5t73 -9.5h211l-2 351h-222z" />
    <glyph glyph-name="uni0430" unicode="&#x430;" horiz-adv-x="482" 
d="M384 383q0 33 -12.5 56.5t-34 38.5t-49.5 22t-58 7q-40 0 -71 -9.5t-63 -37.5l-13 14q32 30 69 41.5t79 12.5q34 1 65.5 -7.5t55.5 -26.5t38.5 -46t14.5 -65v-365q-48 -15 -95.5 -21.5t-98.5 -6.5q-34 0 -64 10.5t-52 30t-35 48t-13 65.5q0 41 16 71t41.5 50t58.5 30
t69 10q34 0 73.5 -7.5t78.5 -24.5v110zM230 285q-32 0 -60.5 -8t-51 -25.5t-36 -44t-13.5 -63.5q0 -35 11 -60t30.5 -41.5t46 -24.5t57.5 -8q39 -1 78.5 4t76.5 14l15 5v220q-38 16 -74.5 24t-79.5 8zM47 0z" />
    <glyph glyph-name="uni0431" unicode="&#x431;" horiz-adv-x="506" 
d="M438 324v-183q0 -38 -15.5 -66.5t-40.5 -47t-57.5 -28.5t-65.5 -10q-34 0 -66 10t-57.5 28.5t-41 47t-15.5 66.5v392q0 37 16 63t41.5 42.5t56.5 25.5t62 12q45 5 80.5 13.5t64.5 25.5l8 -22q-32 -20 -69 -28.5t-82 -13.5q-29 -3 -56.5 -10.5t-49 -21t-34.5 -34.5
t-13 -52l-2 -125q26 26 66 46.5t91 21.5q33 0 65.5 -9.5t57.5 -28.5t40.5 -47.5t15.5 -66.5zM259 453q-48 0 -84 -18.5t-74 -51.5v-242q0 -34 14 -58.5t36.5 -40.5t50.5 -23.5t57 -7.5q28 0 56 7.5t50.5 23.5t36.5 40.5t14 58.5v183q0 34 -14 58.5t-36.5 40t-50.5 23
t-56 7.5z" />
    <glyph glyph-name="uni0432" unicode="&#x432;" horiz-adv-x="501" 
d="M264 518q46 0 76.5 -8.5t49 -25t26.5 -40.5t8 -55q0 -24 -7 -43.5t-19 -34t-27 -24t-31 -15.5q51 -10 77.5 -40t26.5 -92q0 -37 -13 -63.5t-35.5 -43.5t-53 -25t-64.5 -8h-196v518h182zM105 278h164q25 0 48.5 6.5t42.5 20t30.5 35t11.5 50.5q0 61 -34.5 84t-97.5 23
h-165v-219zM105 21h163q30 0 58 6t49.5 20t34 37t12.5 57q0 66 -36 91t-111 25h-170v-236z" />
    <glyph glyph-name="uni0433" unicode="&#x433;" horiz-adv-x="398" 
d="M104 497v-497h-22v518h294v-21h-272z" />
    <glyph glyph-name="uni0434" unicode="&#x434;" horiz-adv-x="538" 
d="M506 24v-153h-22v129h-444v-128h-22v152h23q24 3 41 19t29 50t19.5 87.5t13.5 130.5l15 207h280v-494h67zM417 24v470h-236l-17 -229q-7 -94 -23.5 -159t-45.5 -82h322z" />
    <glyph glyph-name="uni0435" unicode="&#x435;" 
d="M92 141q0 -33 13 -57.5t35 -40t50.5 -23t58.5 -7.5q42 0 80.5 15t59.5 48l20 -11q-23 -39 -67 -57t-93 -18q-34 0 -66 9.5t-57.5 28t-41 47t-15.5 66.5v236q0 38 15.5 66.5t41 47t57.5 28t66 9.5q33 0 65.5 -9.5t57.5 -28t40.5 -47t15.5 -66.5v-138h-336v-98zM406 379
q0 33 -13.5 57t-35.5 39.5t-50.5 23.5t-57.5 8q-30 0 -58.5 -8t-50.5 -23.5t-35 -39.5t-13 -57v-119h314v119z" />
    <glyph glyph-name="uni0436" unicode="&#x436;" horiz-adv-x="700" 
d="M361 0h-22v200l-69 69l-212 -269h-25l221 285l-219 233h27l277 -290v290h22v-290l277 290h27l-219 -233l221 -285h-25l-212 269l-69 -69v-200z" />
    <glyph glyph-name="uni0437" unicode="&#x437;" horiz-adv-x="447" 
d="M210 528q46 0 76.5 -10t49 -28.5t26.5 -44t8 -56.5q0 -24 -7 -43.5t-19 -34t-27 -24t-31 -15.5q51 -10 77.5 -40t26.5 -92q0 -37 -13.5 -65t-36 -47t-53 -28.5t-63.5 -9.5t-57.5 5t-45 15t-38 26t-35.5 37l22 12q30 -37 66.5 -56.5t78.5 -19.5q30 0 57.5 8t48.5 24.5
t34 41t13 58.5q0 66 -36 91t-111 25h-93v21h87q25 0 48.5 6.5t42.5 20t30.5 35t11.5 50.5q0 61 -34 89t-98 28q-94 0 -142 -70l-19 10q27 41 67.5 61t87.5 20z" />
    <glyph glyph-name="uni0438" unicode="&#x438;" horiz-adv-x="527" 
d="M423 0v400l2 91h-2l-44 -71l-266 -420h-31v518h22v-414l-1 -76h2l44 71l264 419h32v-518h-22z" />
    <glyph glyph-name="uni0439" unicode="&#x439;" horiz-adv-x="527" 
d="M272 600q-33 0 -62 19.5t-38 57.5h23q8 -28 30 -41.5t47 -13.5t47 13.5t30 41.5h23q-9 -38 -38 -57.5t-62 -19.5zM423 0v400l2 91h-2l-44 -71l-266 -420h-31v518h22v-414l-1 -76h2l44 71l264 419h32v-518h-22z" />
    <glyph glyph-name="uni043A" unicode="&#x43a;" horiz-adv-x="464" 
d="M104 0h-22v518h22v-311l298 311h27l-219 -233l221 -285h-25l-212 269l-90 -90v-179z" />
    <glyph glyph-name="uni043B" unicode="&#x43b;" horiz-adv-x="508" 
d="M404 0v494h-227l-17 -225q-4 -53 -11 -101.5t-22 -86t-41.5 -59.5t-69.5 -22v24q36 0 58 20.5t34.5 56t19 84t10.5 104.5l17 229h271v-518h-22z" />
    <glyph glyph-name="uni043C" unicode="&#x43c;" horiz-adv-x="628" 
d="M524 0v417l1 72h-1l-198 -396h-24l-198 396h-1l1 -65v-424h-22v518h32l200 -405l200 405h32v-518h-22z" />
    <glyph glyph-name="uni043D" unicode="&#x43d;" horiz-adv-x="521" 
d="M417 0v260h-313v-260h-22v518h22v-234h313v234h22v-518h-22z" />
    <glyph glyph-name="uni043E" unicode="&#x43e;" horiz-adv-x="495" 
d="M68 376q0 38 15.5 66.5t41 47t57.5 28.5t66 10q33 0 65.5 -10t57.5 -28.5t40.5 -47t15.5 -66.5v-234q0 -38 -15.5 -66.5t-40.5 -47t-57.5 -28.5t-65.5 -10q-34 0 -66 10t-57.5 28.5t-41 47t-15.5 66.5v234zM248 505q-29 0 -57 -7.5t-50.5 -23t-36.5 -40t-14 -58.5v-234
q0 -34 14 -58.5t36.5 -40.5t50.5 -23.5t57 -7.5q28 0 56 7.5t50.5 23.5t36.5 40.5t14 58.5v234q0 34 -14 58.5t-36.5 40t-50.5 23t-56 7.5z" />
    <glyph glyph-name="uni043F" unicode="&#x43f;" horiz-adv-x="518" 
d="M414 0v494h-310v-494h-22v518h354v-518h-22z" />
    <glyph glyph-name="uni0440" unicode="&#x440;" horiz-adv-x="525" 
d="M449 371v-230q0 -37 -15.5 -65t-41 -47.5t-57.5 -29t-66 -9.5q-35 0 -75.5 9.5t-82.5 29.5v-221h-22v697q44 14 90 18.5t93 4.5q33 -1 65 -11.5t56.5 -30.5t40 -49t15.5 -66zM270 12q30 0 58 9t49.5 25.5t35 40t13.5 54.5v232q0 30 -13 54.5t-35 42t-49.5 27.5t-56.5 10
q-32 0 -77.5 -3.5t-83.5 -16.5v-432l10 -6q35 -16 73 -26.5t76 -10.5z" />
    <glyph glyph-name="uni0441" unicode="&#x441;" horiz-adv-x="455" 
d="M248 506q-30 0 -58 -7.5t-50 -23.5t-35.5 -39.5t-13.5 -56.5v-237q0 -33 14 -57.5t36.5 -40.5t50.5 -23.5t56 -7.5q45 0 85.5 18t59.5 56l21 -10q-23 -42 -68.5 -64t-97.5 -22q-33 0 -65.5 9.5t-57.5 28t-40.5 47t-15.5 66.5v235q0 38 15.5 66.5t40.5 47t57.5 28
t65.5 9.5q46 0 87 -16t66 -51l-17 -11q-22 30 -58 43t-78 13z" />
    <glyph glyph-name="uni0442" unicode="&#x442;" horiz-adv-x="424" 
d="M223 494v-494h-22v494h-179v24h380v-24h-179z" />
    <glyph glyph-name="uni0443" unicode="&#x443;" horiz-adv-x="518" 
d="M436 -43q0 -38 -15 -65.5t-40 -45.5t-56.5 -27t-64.5 -9q-42 0 -79.5 13t-65.5 37l14 16q33 -24 62 -33.5t70 -9.5q27 0 54 7t49 22t36 38t14 56v75q-45 -22 -82.5 -31t-72.5 -9q-34 0 -66 9.5t-57.5 28.5t-41 47t-15.5 65v377h23v-377q0 -32 13 -55.5t35 -39.5
t49.5 -24.5t57.5 -9.5q24 0 43.5 2.5t37.5 7.5t36.5 13t39.5 19v464h22v-561zM79 0z" />
    <glyph glyph-name="uni0444" unicode="&#x444;" horiz-adv-x="686" 
d="M438 528q34 0 66 -10t57.5 -29t41 -47t15.5 -65v-236q0 -37 -15.5 -65t-41 -47t-57.5 -29t-66 -10q-19 0 -44 3.5t-39 9.5l-1 -195h-22l-1 195q-14 -6 -39 -9.5t-44 -3.5q-34 0 -66 10t-57.5 29t-41 47t-15.5 65v236q0 37 15.5 65t41 47t57.5 29t66 10q19 0 44.5 -3.5
t39.5 -9.5v193h22v-193q14 6 39.5 9.5t44.5 3.5zM247 506q-30 0 -58 -8.5t-49.5 -25t-35 -40.5t-13.5 -55v-236q0 -31 13.5 -55t35 -40.5t49.5 -25t58 -8.5q21 0 45 3.5t40 10.5v466q-16 7 -40 10.5t-45 3.5zM439 506q-21 0 -45 -3.5t-40 -10.5v-466q16 -7 40 -10.5t45 -3.5
q30 0 58 8.5t49.5 25t35 40.5t13.5 55v236q0 31 -13.5 55t-35 40.5t-49.5 25t-58 8.5z" />
    <glyph glyph-name="uni0445" unicode="&#x445;" horiz-adv-x="440" 
d="M236 259l167 -259h-26l-156 243l-157 -243h-27l169 259l-169 259h28l156 -243l156 243h27z" />
    <glyph glyph-name="uni0446" unicode="&#x446;" horiz-adv-x="531" 
d="M499 23v-152h-22v129h-396v518h22v-495h307v495h22v-495h67z" />
    <glyph glyph-name="uni0447" unicode="&#x447;" horiz-adv-x="480" 
d="M376 0v224q-33 -26 -69.5 -40.5t-80.5 -14.5q-30 0 -60 7.5t-55 25t-40.5 47t-15.5 73.5v196h21v-199q0 -36 13.5 -60.5t35.5 -40t48.5 -22.5t53.5 -7q40 0 79 15t70 44v270h22v-518h-22z" />
    <glyph glyph-name="uni0448" unicode="&#x448;" horiz-adv-x="730" 
d="M104 518v-494h250v494h22v-494h250v494h22v-518h-566v518h22z" />
    <glyph glyph-name="uni0449" unicode="&#x449;" horiz-adv-x="746" 
d="M714 23v-152h-22v129h-611v518h22v-495h250v495h22v-495h250v495h22v-495h67z" />
    <glyph glyph-name="uni044A" unicode="&#x44a;" horiz-adv-x="538" 
d="M331 291q34 0 64.5 -8.5t53 -26.5t35.5 -45.5t13 -66.5q0 -37 -13 -64t-35.5 -45t-53 -26.5t-64.5 -8.5h-197v497h-110v21h131v-227h176zM155 21h166q30 0 58 6.5t49.5 21t34 38t12.5 57.5q0 35 -12.5 59t-34 39t-49.5 21.5t-58 6.5h-166v-249z" />
    <glyph glyph-name="uni044B" unicode="&#x44b;" horiz-adv-x="667" 
d="M585 0h-24v518h24v-518zM279 291q34 0 64.5 -8.5t53 -26.5t35.5 -45.5t13 -66.5q0 -37 -13 -64t-35.5 -45t-53 -26.5t-64.5 -8.5h-197v518h21v-227h176zM103 21h166q30 0 58 6.5t49.5 21t34 38t12.5 57.5q0 35 -12.5 59t-34 39t-49.5 21.5t-58 6.5h-166v-249z" />
    <glyph glyph-name="uni044C" unicode="&#x44c;" 
d="M279 291q34 0 64.5 -8.5t53 -26.5t35.5 -45.5t13 -66.5q0 -37 -13 -64t-35.5 -45t-53 -26.5t-64.5 -8.5h-197v518h21v-227h176zM103 21h166q30 0 58 6.5t49.5 21t34 38t12.5 57.5q0 35 -12.5 59t-34 39t-49.5 21.5t-58 6.5h-166v-249z" />
    <glyph glyph-name="uni044D" unicode="&#x44d;" horiz-adv-x="457" 
d="M209 528q33 0 65.5 -9.5t57.5 -28t40.5 -47t15.5 -66.5v-236q0 -38 -15.5 -66.5t-40.5 -47t-57.5 -28t-65.5 -9.5q-52 0 -97.5 22t-68.5 64l21 10q19 -38 59.5 -56t85.5 -18q30 0 58 7.5t50 23.5t35.5 40.5t13.5 57.5v108h-241v21h241v109q0 33 -13.5 56.5t-35.5 39.5
t-50 23.5t-58 7.5q-42 0 -78 -13t-58 -43l-17 11q25 35 66 51t87 16z" />
    <glyph glyph-name="uni044E" unicode="&#x44e;" horiz-adv-x="699" 
d="M451 529q33 0 65.5 -10t57.5 -28.5t40.5 -47t15.5 -66.5v-236q0 -38 -15.5 -66.5t-40.5 -47t-57.5 -28.5t-65.5 -10q-34 0 -66 10t-57.5 28.5t-41 47t-15.5 66.5v121h-169v-262h-22v518h22v-232h169v91q0 38 15.5 66.5t41 47t57.5 28.5t66 10zM451 506q-29 0 -57 -7.5
t-50.5 -23t-36.5 -40t-14 -58.5v-236q0 -34 14 -58.5t36.5 -40.5t50.5 -23.5t57 -7.5q28 0 56 7.5t50.5 23.5t36.5 40.5t14 58.5v236q0 34 -14 58.5t-36.5 40t-50.5 23t-56 7.5z" />
    <glyph glyph-name="uni044F" unicode="&#x44f;" horiz-adv-x="494" 
d="M390 0v224h-141l-179 -224h-25l176 224q-35 0 -65 10t-51.5 28t-33.5 43.5t-12 58.5q0 75 37.5 114.5t118.5 39.5h197v-518h-22zM217 494q-64 0 -99.5 -29t-35.5 -102q0 -30 12.5 -51.5t33 -36t46 -21t52.5 -6.5h164v246h-173z" />
    <glyph glyph-name="uni0451" unicode="&#x451;" 
d="M312 629q0 13 9 22t22 9t22 -9t9 -22t-9 -22t-22 -9t-22 9t-9 22zM132 629q0 13 9 22t22 9t22 -9t9 -22t-9 -22t-22 -9t-22 9t-9 22zM92 141q0 -33 13 -57.5t35 -40t50.5 -23t58.5 -7.5q42 0 80.5 15t59.5 48l20 -11q-23 -39 -67 -57t-93 -18q-34 0 -66 9.5t-57.5 28
t-41 47t-15.5 66.5v236q0 38 15.5 66.5t41 47t57.5 28t66 9.5q33 0 65.5 -9.5t57.5 -28t40.5 -47t15.5 -66.5v-138h-336v-98zM406 379q0 33 -13.5 57t-35.5 39.5t-50.5 23.5t-57.5 8q-30 0 -58.5 -8t-50.5 -23.5t-35 -39.5t-13 -57v-119h314v119z" />
    <glyph glyph-name="Wgrave" unicode="&#x1e80;" horiz-adv-x="927" 
d="M385 862h35l62 -103h-25zM901 708l-207 -708h-41l-189 578l-190 -578h-39l-210 708h27l201 -673h5l189 567h33l190 -569h6l198 675h27z" />
    <glyph glyph-name="wgrave" unicode="&#x1e81;" horiz-adv-x="715" 
d="M279 682h35l62 -103h-25zM185 0l-153 518h27l146 -497h3l129 497h39l131 -496h3l146 496h27l-154 -518h-42l-130 495h-2l-128 -495h-42z" />
    <glyph glyph-name="Wacute" unicode="&#x1e82;" horiz-adv-x="927" 
d="M536 862l-72 -103h-25l62 103h35zM901 708l-207 -708h-41l-189 578l-190 -578h-39l-210 708h27l201 -673h5l189 567h33l190 -569h6l198 675h27z" />
    <glyph glyph-name="wacute" unicode="&#x1e83;" horiz-adv-x="715" 
d="M430 682l-72 -103h-25l62 103h35zM185 0l-153 518h27l146 -497h3l129 497h39l131 -496h3l146 496h27l-154 -518h-42l-130 495h-2l-128 -495h-42z" />
    <glyph glyph-name="Wdieresis" unicode="&#x1e84;" horiz-adv-x="927" 
d="M526 809q0 13 9 22t22 9t22 -9t9 -22t-9 -22t-22 -9t-22 9t-9 22zM346 809q0 13 9 22t22 9t22 -9t9 -22t-9 -22t-22 -9t-22 9t-9 22zM901 708l-207 -708h-41l-189 578l-190 -578h-39l-210 708h27l201 -673h5l189 567h33l190 -569h6l198 675h27z" />
    <glyph glyph-name="wdieresis" unicode="&#x1e85;" horiz-adv-x="715" 
d="M420 629q0 13 9 22t22 9t22 -9t9 -22t-9 -22t-22 -9t-22 9t-9 22zM240 629q0 13 9 22t22 9t22 -9t9 -22t-9 -22t-22 -9t-22 9t-9 22zM185 0l-153 518h27l146 -497h3l129 497h39l131 -496h3l146 496h27l-154 -518h-42l-130 495h-2l-128 -495h-42z" />
    <glyph glyph-name="Ygrave" unicode="&#x1ef2;" horiz-adv-x="550" 
d="M196 862h35l62 -103h-25zM286 0h-25v281l-242 427h30l225 -399l232 399h31l-251 -427v-281z" />
    <glyph glyph-name="ygrave" unicode="&#x1ef3;" horiz-adv-x="518" 
d="M182 682h35l62 -103h-25zM436 -43q0 -38 -15 -65.5t-40 -45.5t-56.5 -27t-64.5 -9q-42 0 -79.5 13t-65.5 37l14 16q33 -24 62 -33.5t70 -9.5q27 0 54 7t49 22t36 38t14 56v75q-45 -22 -82.5 -31t-72.5 -9q-34 0 -66 9.5t-57.5 28.5t-41 47t-15.5 65v377h23v-377
q0 -32 13 -55.5t35 -39.5t49.5 -24.5t57.5 -9.5q24 0 43.5 2.5t37.5 7.5t36.5 13t39.5 19v464h22v-561z" />
    <glyph glyph-name="endash" unicode="&#x2013;" horiz-adv-x="580" 
d="M505 288h-430v23h430v-23z" />
    <glyph glyph-name="emdash" unicode="&#x2014;" horiz-adv-x="1012" 
d="M937 288h-862v23h862v-23z" />
    <glyph glyph-name="quoteleft" unicode="&#x2018;" horiz-adv-x="201" 
d="M120 708h25l-45 -176h-35z" />
    <glyph glyph-name="quoteright" unicode="&#x2019;" horiz-adv-x="201" 
d="M88 531h-22l48 177h37z" />
    <glyph glyph-name="quotesinglbase" unicode="&#x201a;" horiz-adv-x="187" 
d="M49 -121h-22l55 162h35z" />
    <glyph glyph-name="quotedblleft" unicode="&#x201c;" horiz-adv-x="314" 
d="M65 532q15 46 30 89t30 88h23l-47 -177h-36zM176 532q15 46 30 89t30 88h23l-47 -177h-36z" />
    <glyph glyph-name="quotedblright" unicode="&#x201d;" horiz-adv-x="306" 
d="M140 708q-14 -45 -26.5 -91.5t-26.5 -91.5h-21l39 183h35zM252 708q-14 -45 -26.5 -91.5t-26.5 -91.5h-21l39 183h35z" />
    <glyph glyph-name="quotedblbase" unicode="&#x201e;" horiz-adv-x="324" 
d="M180 -121h-22l55 162h35zM54 -121h-22l55 162h35z" />
    <glyph glyph-name="dagger" unicode="&#x2020;" horiz-adv-x="481" 
d="M37 507h191v202h22v-202h194v-21h-194v-600h-22v600h-191v21z" />
    <glyph glyph-name="daggerdbl" unicode="&#x2021;" horiz-adv-x="552" 
d="M73 107h192v389h-192v22h192v191h22v-191h192v-22h-192v-389h192v-20h-192v-196h-22v196h-192v20z" />
    <glyph glyph-name="bullet" unicode="&#x2022;" horiz-adv-x="362" 
d="M90 354q0 38 26.5 64.5t64.5 26.5t64.5 -26.5t26.5 -64.5t-26.5 -64.5t-64.5 -26.5t-64.5 26.5t-26.5 64.5z" />
    <glyph glyph-name="ellipsis" unicode="&#x2026;" horiz-adv-x="609" 
d="M77 29q0 13 9 22t22 9t22 -9t9 -22t-9 -22t-22 -9t-22 9t-9 22zM271 30q0 13 9 22t22 9t22 -9t9 -22t-9 -22t-22 -9t-22 9t-9 22zM470 32q0 13 9 22t22 9t22 -9t9 -22t-9 -22t-22 -9t-22 9t-9 22z" />
    <glyph glyph-name="perthousand" unicode="&#x2030;" horiz-adv-x="1023" 
d="M981 173q0 -84 -39 -132t-99 -48q-66 0 -102 46.5t-36 135.5q0 90 39 134.5t99 44.5q65 0 101.5 -47t36.5 -134zM953 172q0 81 -30 118t-82 37q-110 0 -110 -152q0 -83 27 -119t84 -36q55 0 83 36.5t28 115.5zM123 -48q-6 3 -11 6.5t-10 6.5l492 778l20 -12zM324 525
q0 -84 -39 -132t-99 -48q-66 0 -102 46.5t-36 135.5q0 88 39 133.5t99 45.5q65 0 101.5 -47t36.5 -134zM296 525q0 81 -29.5 118t-81.5 37q-56 0 -82 -38t-26 -115q0 -83 26 -119t83 -36q55 0 82.5 36.5t27.5 116.5zM666 173q0 -84 -39 -132t-99 -48q-66 0 -102 46.5
t-36 135.5q0 88 39 133.5t99 45.5q65 0 101.5 -47t36.5 -134zM638 172q0 81 -30 118t-82 37q-109 0 -109 -152q0 -83 26.5 -119t83.5 -36q55 0 83 36.5t28 115.5z" />
    <glyph glyph-name="guilsinglleft" unicode="&#x2039;" horiz-adv-x="254" 
d="M168 476q2 -2 10 -5.5t10 -5.5l-2 -3q-1 -3 -11.5 -19t-34 -50.5t-66.5 -97.5q26 -39 57 -84t58 -84l-21 -11l-122 179z" />
    <glyph glyph-name="guilsinglright" unicode="&#x203a;" horiz-adv-x="255" 
d="M86 114q-2 2 -9.5 5.5t-9.5 5.5l1 3q2 3 12.5 19t34 50.5t66.5 97.5q-37 54 -58.5 85.5t-33 48t-16 23t-7.5 11.5l20 11l122 -179z" />
    <glyph glyph-name="fraction" unicode="&#x2044;" horiz-adv-x="492" 
d="M35 -11l-19 9l438 720l21 -10z" />
    <glyph glyph-name="Euro" unicode="&#x20ac;" horiz-adv-x="596" 
d="M107 517q0 49 19.5 87t52 63t73.5 38t84 13q61 0 116.5 -26.5t87.5 -77.5l-21 -12q-14 23 -34.5 40.5t-45 29t-51 17.5t-52.5 6q-39 0 -75.5 -11t-65.5 -33t-46.5 -55.5t-17.5 -78.5v-106h271l-5 -22h-266v-82h274l-5 -21h-269v-96q0 -44 17.5 -77t46 -55.5t64.5 -33.5
t74 -11q56 0 106 23t82 70l19 -12q-32 -51 -88 -77.5t-119 -26.5q-42 0 -82.5 12.5t-72.5 37.5t-51.5 62.5t-19.5 87.5v96h-61l4 21h57v82h-57l5 22h52v106z" />
    <glyph glyph-name="uni2113" unicode="&#x2113;" horiz-adv-x="378" 
d="M242 -5q-73 0 -103.5 46.5t-32.5 131.5v61l-65 -65l-6 19l71 72v282q0 64 11 106t28.5 67t39 35.5t43.5 10.5q48 0 72 -37t24 -103q0 -47 -14 -93.5t-40 -93t-62.5 -93t-80.5 -91.5v-70q0 -49 9 -81t25 -50.5t37.5 -25.5t46.5 -7t46.5 11t39.5 26l13 -16
q-22 -20 -47.5 -31t-54.5 -11zM302 619q0 24 -3 45.5t-11 38t-23.5 26t-39.5 9.5q-17 0 -34 -9t-31 -31.5t-22.5 -60t-8.5 -93.5l-1 -269q39 46 71 89.5t55 85.5t35.5 84t12.5 85z" />
    <glyph glyph-name="trademark" unicode="&#x2122;" horiz-adv-x="823" 
d="M168 352v341h-130v15h278v-15h-130v-341h-18zM415 352h-17v356h32l139 -299q39 86 63.5 138.5t39.5 84t22.5 47.5t13.5 29h32v-356h-18l1 345h-3l-139 -299h-24l-138 296h-4v-342z" />
    <glyph glyph-name="Omega" unicode="&#x2126;" horiz-adv-x="768" 
d="M68 378q0 73 25.5 133.5t69 103.5t102 66.5t124.5 23.5q69 0 126.5 -26t98 -70.5t63 -103t22.5 -123.5q0 -54 -14 -104.5t-38 -94.5t-56.5 -81t-68.5 -65h190v-22h-241v12q42 25 78.5 63t64.5 84.5t44 99.5t16 108q0 53 -19 106.5t-55.5 96.5t-89.5 70t-121 27
q-64 0 -118 -23t-93.5 -64t-61.5 -96.5t-22 -121.5q0 -60 16 -111t44 -94.5t65.5 -79.5t79.5 -64v-12h-243v21h194l-36 30q-30 25 -57 57t-46.5 71t-31 85t-11.5 98z" />
    <glyph glyph-name="estimated" unicode="&#x212e;" horiz-adv-x="913" 
d="M213 344q-5 0 -5 -5v-199q0 -12 8 -23q48 -50 112 -79t137 -29q79 0 146.5 33t115.5 88h59q-55 -64 -139 -102.5t-183 -38.5q-84 0 -158 28.5t-129 78t-87 116t-32 142.5t32 142.5t87 116t129 78.5t158 29t158.5 -29t129.5 -78.5t87 -116t32 -142.5v-10h-658zM722 570
q0 14 -10 24q-48 48 -111 76t-136 28q-72 0 -136 -29t-112 -78q-9 -11 -9 -25v-196q0 -2 1.5 -4.5t3.5 -2.5h505q2 0 3 2.5t1 4.5v200z" />
    <glyph glyph-name="partialdiff" unicode="&#x2202;" horiz-adv-x="499" 
d="M220 738q50 0 90.5 -24t69 -67.5t44 -103.5t15.5 -131q0 -27 -2 -63.5t-7 -67.5q-10 -62 -28 -114t-45 -90t-63 -59t-82 -21q-40 0 -70.5 17.5t-51.5 46t-31.5 66t-10.5 76.5q0 53 16 96t42.5 74t60 47.5t69.5 16.5q30 0 57.5 -9.5t50.5 -25.5t39.5 -37t24.5 -44
q6 28 7 53t1 46q0 57 -12.5 109.5t-37.5 93.5t-62.5 65.5t-88.5 24.5q-40 0 -68.5 -10t-50.5 -24l-9 20q23 15 55.5 27t77.5 12zM214 22q37 0 71 21.5t60 57.5t41.5 84.5t16.5 102.5q-6 19 -21 41t-37 40.5t-49.5 30.5t-58.5 12q-33 0 -63 -16t-52.5 -44t-36 -66t-13.5 -81
q0 -41 10.5 -74.5t29 -57.5t44.5 -37.5t57 -13.5h1z" />
    <glyph glyph-name="Delta" unicode="&#x2206;" horiz-adv-x="568" 
d="M539 0h-510v24q60 171 117.5 342t117.5 342h42l233 -683v-25zM510 22l-222 666h-6l-227 -666h455z" />
    <glyph glyph-name="product" unicode="&#x220f;" horiz-adv-x="625" 
d="M470 -53v739h-315v-739h-24v739h-102v22h566v-22h-102v-739h-23z" />
    <glyph glyph-name="summation" unicode="&#x2211;" horiz-adv-x="523" 
d="M50 708h415v-22h-385q73 -107 136 -198t123 -177l-273 -364h415v-21h-443v22l271 359q-64 91 -129.5 189t-129.5 189v23z" />
    <glyph glyph-name="minus" unicode="&#x2212;" horiz-adv-x="632" 
d="M554 296h-466v22h466v-22z" />
    <glyph glyph-name="uni2215" unicode="&#x2215;" horiz-adv-x="493" 
d="M36 -20l-19 9l438 720l21 -10z" />
    <glyph glyph-name="uni2219" unicode="&#x2219;" horiz-adv-x="214" 
d="M76 318q0 13 9 22t22 9t22 -9t9 -22t-9 -22t-22 -9t-22 9t-9 22z" />
    <glyph glyph-name="radical" unicode="&#x221a;" horiz-adv-x="507" 
d="M102 332l-72 -26q-2 7 -4.5 10.5t-4.5 8.5l96 35l145 -457l5 1l190 916h24l-202 -957h-27z" />
    <glyph glyph-name="infinity" unicode="&#x221e;" horiz-adv-x="744" 
d="M679 292q0 -31 -11 -56t-30 -43t-43 -28t-50 -10q-39 0 -79 30t-94 88q-20 -22 -41 -43.5t-42.5 -38t-45 -26.5t-49.5 -10t-49.5 10.5t-41 28.5t-28 42.5t-10.5 52.5q0 29 9.5 54.5t26.5 44t41.5 29t53.5 10.5q25 0 48 -10.5t45 -27t43 -37.5t41 -43l20 23v-1
q16 18 33.5 35.5t37 31t41 22t47.5 8.5q57 -1 92 -38.5t35 -96.5v-1zM200 175q19 0 38.5 8.5t37.5 22t34 29t30 30.5l22 22q-17 19 -36 40.5t-40.5 39t-45 29t-48.5 11.5t-45 -9.5t-33.5 -26t-21 -38t-7.5 -45.5t8.5 -44.5t23.5 -35.5t35.5 -24t46.5 -9h1zM546 407
q-21 0 -40 -8t-36.5 -21t-32.5 -28t-28 -29l-28 -29q53 -56 89.5 -86.5t77.5 -30.5q25 0 45.5 10t34.5 26t21.5 36.5t7.5 41.5q0 57 -31.5 87.5t-78.5 30.5h-1z" />
    <glyph glyph-name="integral" unicode="&#x222b;" horiz-adv-x="306" 
d="M242 831q-39 0 -62 -33t-22 -90l5 -265q1 -63 2.5 -128.5t3 -126.5t2 -113t0.5 -89q0 -32 -9 -56t-24 -39.5t-34.5 -23t-40.5 -7.5q-11 0 -21 1t-21 5l3 22q8 -2 16.5 -4t14.5 -2q44 0 68 25t24 80q0 30 -0.5 71.5t-1.5 89.5t-2 101t-2 107q-1 53 -2 104.5t-2 98.5
t-1.5 86.5t-0.5 68.5q0 33 8.5 59t23 43.5t33 27t38.5 9.5q22 0 46 -11l-3 -20q-9 3 -20 6t-19 3z" />
    <glyph glyph-name="approxequal" unicode="&#x2248;" horiz-adv-x="529" 
d="M365 316q-23 0 -46.5 10t-53.5 27q-27 15 -50.5 26t-47.5 11q-26 0 -43.5 -10.5t-31.5 -30.5l-14 10q19 26 40.5 39t50.5 13q23 0 46 -8.5t40 -18.5l16 -9q32 -18 53 -27.5t44 -9.5q20 0 37 7.5t32 25.5l14 -10q-17 -21 -37 -33t-49 -12zM364 185q-23 0 -46 10t-53 27
q-27 15 -50.5 26t-47.5 11q-26 0 -43.5 -10.5t-31.5 -30.5l-14 10q19 26 41 39.5t51 13.5q23 0 45.5 -9t39.5 -19l16 -9q32 -18 53 -27.5t44 -9.5q20 0 37 7.5t32 25.5l13 -10q-17 -21 -37 -33t-49 -12z" />
    <glyph glyph-name="notequal" unicode="&#x2260;" horiz-adv-x="557" 
d="M482 366h-161l-72 -160h233v-19h-241l-50 -107l-15 7l46 100h-147v19h155l72 160h-227v19h235l47 106l16 -6l-46 -100h155v-19z" />
    <glyph glyph-name="lessequal" unicode="&#x2264;" 
d="M415 94v-20h-345v20h345zM402 200v-25q-82 49 -161 93.5t-161 93.5v26l322 190v-26l-300 -177z" />
    <glyph glyph-name="greaterequal" unicode="&#x2265;" horiz-adv-x="487" 
d="M416 94v-19h-345v19h345zM84 561q82 -50 162.5 -95t162.5 -95v-26l-325 -187v23l304 177q-73 42 -151.5 88.5t-152.5 88.5v26z" />
    <glyph glyph-name="lozenge" unicode="&#x25ca;" horiz-adv-x="510" 
d="M30 355l78 141q32 58 64.5 115t64.5 115h38q51 -94 102.5 -185t102.5 -185l-208 -371h-39zM252 -4l199 359l-197 363l-195 -361z" />
    <glyph glyph-name="i.loclTRK" horiz-adv-x="188" 
d="M67 614q0 13 9 22t22 9t22 -9t9 -22t-9 -22t-22 -9t-22 9t-9 22zM106 0h-24v518h24v-518z" />
    <glyph glyph-name="uni0414.loclBGR" horiz-adv-x="670" 
d="M651 26v-183h-26v157h-580v-157h-26v183h67l230 682h37l231 -682h67zM558 26l-224 658l-221 -658h445z" />
    <glyph glyph-name="uni041B.loclBGR" horiz-adv-x="588" 
d="M541 0l-194 553l-52 142h-5l-51 -146l-193 -549h-27l251 708h47l252 -708h-28z" />
    <glyph glyph-name="uni0432.loclBGR" horiz-adv-x="503" 
d="M261 718q49 0 80.5 -10.5t50.5 -30.5t26.5 -48.5t7.5 -64.5q0 -31 -10.5 -57.5t-26.5 -47.5t-36 -36.5t-39 -24.5q25 0 48 -8t40 -24t27.5 -40t10.5 -56v-125q0 -38 -15 -66.5t-40 -48t-56.5 -29.5t-64.5 -11q-47 0 -93 4.5t-90 18.5v553q0 38 15.5 66.5t41 47.5
t57.5 28.5t66 9.5zM264 696q-29 0 -57.5 -7.5t-51.5 -23.5t-37.5 -40.5t-14.5 -58.5v-219q17 5 57 17.5t90 28.5q31 10 59 27.5t49 40t33.5 48.5t12.5 55q0 67 -32 99.5t-108 32.5zM264 11q29 0 56.5 10t49.5 27.5t35 42t13 54.5v125q0 30 -13 53t-36 36.5t-53 16.5h-13
q-25 0 -54 -8q-48 -14 -82.5 -25t-63.5 -20v-292q38 -13 83.5 -16.5t77.5 -3.5z" />
    <glyph glyph-name="uni0433.loclBGR" horiz-adv-x="449" 
d="M229 528q42 0 71 -9t47 -25.5t25.5 -38.5t7.5 -48q0 -55 -44 -86.5t-119 -55.5q-77 -25 -109 -56t-32 -82q0 -62 36 -91q36 -27 100 -27h5q57 1 101 22t70 48l16 -13q-27 -31 -78 -53.5t-111 -22.5q-87 0 -124 37t-37 102q0 60 38.5 95t110.5 58q70 22 112.5 51t42.5 74
q0 46 -30.5 73t-99.5 27q-48 0 -85.5 -17.5t-62.5 -42.5l-14 15q72 66 163 66z" />
    <glyph glyph-name="uni0434.loclBGR" horiz-adv-x="503" 
d="M248 -168q29 0 56.5 7t49.5 22t35 38.5t13 56.5v74q-45 -22 -83 -30.5t-73 -8.5q-33 0 -65 9.5t-57 28.5t-40.5 47t-15.5 65v238q0 37 15 64.5t39.5 46.5t55.5 28.5t64 9.5q48 0 91 -10t90 -26v-535q0 -38 -15 -65.5t-40 -45.5t-56.5 -26.5t-64.5 -8.5q-42 0 -80.5 12
t-66.5 36l15 15q27 -20 62.5 -31t70.5 -11zM242 507q-29 0 -56.5 -8t-49 -24t-34 -40t-12.5 -55v-239q0 -32 13 -55.5t34.5 -39.5t49 -24.5t57.5 -9.5q41 1 76.5 9.5t81.5 30.5v424q-29 12 -73 21.5t-87 9.5zM68 0z" />
    <glyph glyph-name="uni0436.loclBGR" horiz-adv-x="698" 
d="M360 0h-22v200l-69 69l-212 -269h-25l221 285l-219 233h27l277 -290v480h22v-480l277 290h27l-219 -233l221 -285h-25l-212 269l-69 -69v-200z" />
    <glyph glyph-name="uni0438.loclBGR" horiz-adv-x="517" 
d="M254 -10q-33 0 -64.5 9.5t-56 28.5t-39.5 47.5t-15 65.5v377h22v-377q0 -32 14 -56t36 -40.5t49 -24.5t54 -8q20 0 42 2t43.5 6t40.5 9.5t34 11.5v477h22v-496q-90 -32 -182 -32z" />
    <glyph glyph-name="uni0439.loclBGR" horiz-adv-x="517" 
d="M264 600q-33 0 -62 19.5t-38 57.5h23q8 -28 30 -41.5t47 -13.5t47 13.5t30 41.5h23q-9 -38 -38 -57.5t-62 -19.5zM254 -10q-33 0 -64.5 9.5t-56 28.5t-39.5 47.5t-15 65.5v377h22v-377q0 -32 14 -56t36 -40.5t49 -24.5t54 -8q20 0 42 2t43.5 6t40.5 9.5t34 11.5v477h22
v-496q-90 -32 -182 -32z" />
    <glyph glyph-name="uni043A.loclBGR" horiz-adv-x="464" 
d="M104 0h-22v708h22v-501l298 311h27l-219 -233l221 -285h-25l-212 269l-90 -90v-179z" />
    <glyph glyph-name="uni043B.loclBGR" horiz-adv-x="434" 
d="M383 0l-142 422l-20 66h-4l-21 -66l-146 -422h-22l175 511h32l170 -511h-22z" />
    <glyph glyph-name="uni043F.loclBGR" horiz-adv-x="517" 
d="M438 377v-377h-22v377q0 33 -13.5 57t-35.5 40t-49 23.5t-55 7.5q-43 0 -87 -7.5t-73 -19.5v-478h-22v497q87 31 182 31q33 -1 64 -10t56 -27t40 -46.5t15 -67.5z" />
    <glyph glyph-name="uni0442.loclBGR" horiz-adv-x="806" 
d="M233 528q23 0 46.5 -4t46 -13t41.5 -25t33 -40q31 50 69 66t81 16q36 0 68 -10t56 -29.5t38.5 -49t14.5 -68.5v-371h-23v369q0 36 -13 62t-34.5 42.5t-49 24.5t-55.5 8q-27 0 -52 -7.5t-45 -22t-32 -35.5t-12 -49v-392h-22v392q0 28 -14 49t-37 35.5t-52.5 22t-59.5 7.5
q-34 0 -67 -9t-56 -24v-473h-23v489q32 21 72 30t81 9z" />
    <glyph glyph-name="uni0446.loclBGR" horiz-adv-x="538" 
d="M254 -10q-33 0 -64.5 9.5t-56 28.5t-39.5 47.5t-15 65.5v377h22v-377q0 -32 14 -56t36 -40.5t49 -24.5t54 -8q18 0 39.5 2t42.5 6t40.5 10.5t34.5 14.5v473h23v-468h68q-1 -44 -4 -90t-8 -89h-18l4 155h-48q-38 -19 -82 -27.5t-92 -8.5z" />
    <glyph glyph-name="uni0448.loclBGR" horiz-adv-x="796" 
d="M568 -10q-23 0 -46.5 4t-46 13t-41.5 25t-33 40q-32 -50 -67 -66t-78 -16q-36 0 -68 9.5t-56 29t-38.5 49t-14.5 68.5v372h23v-370q0 -36 13 -62t34.5 -42.5t49 -24t55.5 -7.5q27 0 51.5 7.5t43 22t30 35.5t11.5 49v392h22v-392q0 -28 14 -49t37 -35.5t52.5 -22
t59.5 -7.5q34 0 64.5 9t53.5 24v473h23v-489q-32 -21 -69.5 -30t-78.5 -9z" />
    <glyph glyph-name="uni0449.loclBGR" horiz-adv-x="820" 
d="M566 -10q-23 0 -46.5 4t-46 13t-41.5 25t-33 40q-32 -50 -66 -66t-77 -16q-36 0 -68 9.5t-56 29t-38.5 49t-14.5 68.5v372h23v-370q0 -36 13 -62t34.5 -42.5t49 -24t55.5 -7.5q27 0 51 8.5t42.5 24t29.5 36.5t11 45v392h22v-392q0 -28 14 -49t37 -35.5t52.5 -22
t59.5 -7.5q34 0 65.5 9t54.5 24v473h23v-468h68q-1 -44 -4 -90t-8 -89h-18l4 155h-48q-30 -20 -66 -28t-78 -8z" />
    <glyph glyph-name="uni044E.loclBGR" horiz-adv-x="701" 
d="M273 286v91q0 38 15.5 66.5t41 47t57.5 28.5t66 10q33 0 65.5 -10t57.5 -28.5t40.5 -47t15.5 -66.5v-236q0 -38 -15.5 -66.5t-40.5 -47t-57.5 -28.5t-65.5 -10q-34 0 -66 10t-57.5 28.5t-41 47t-15.5 66.5v121h-169v-262h-22v708h22v-422h169zM453 506q-29 0 -57 -7.5
t-50.5 -23t-36.5 -40t-14 -58.5v-236q0 -34 14 -58.5t36.5 -40.5t50.5 -23.5t57 -7.5q28 0 56 7.5t50.5 23.5t36.5 40.5t14 58.5v236q0 34 -14 58.5t-36.5 40t-50.5 23t-56 7.5z" />
    <glyph glyph-name=".ttfautohint" horiz-adv-x="267" 
d="M0 0z" />
    </font>
</defs>
</svg>
