<?xml version="1.0" encoding="utf-8"?>
<!-- Generator: Adobe Illustrator 18.1.0, SVG Export Plug-In . SVG Version: 6.00 Build 0)  -->
<svg version="1.1" id="ed" xmlns="http://www.w3.org/2000/svg" xmlns:xlink="http://www.w3.org/1999/xlink" x="0px" y="0px"
	 viewBox="97 0 779.1 595.3" enable-background="new 97 0 779.1 595.3" xml:space="preserve">
<path fill="#8B8B8B" d="M874.7,231.7c-5.6-20.7-27.9-33.1-49.9-27.7l-30.1,7.3c-26.8-68.6-60.5-142.6-60.5-142.6
	C718.7,31.6,667.7,1.2,625.5,1.2H488.2h-0.7H350.1c-42.2,0-93.2,30.4-108.6,67.5c0,0-33.7,74-60.6,142.6l-30.8-7.6
	c-21.9-5.4-44.3,7-49.9,27.7c-5.7,20.6,7.4,41.7,29.3,47.1l25.5,6.3c-2.1,7.1-3.9,13.8-5,19.4c-6.7,33.6-8.1,109.1-8.1,164.2
	c0,0,0,0,0,0.1v89.7c0,19.9,17.3,36.2,38.4,36.2h51.2c21.1,0,38.4-16.3,38.4-36.2v-25.6h217.5h0.7h217.5v25.6
	c0,19.9,17.3,36.2,38.4,36.2h51.2c21.2,0,38.4-16.3,38.4-36.2v-89.7c0,0-0.1-0.1-0.1-0.1c0-55.1-1.4-130.6-8.1-164.2
	c-1.1-5.6-2.9-12.3-5-19.4l24.8-6C867.3,273.4,880.4,252.3,874.7,231.7 M318.1,109.4c7.2-18.3,30.1-33.3,50.8-33.3h118.6h0.7h118.6
	c20.7,0,43.5,14.9,50.7,33.3l32.6,82.7h-202h-0.7h-202L318.1,109.4z M487.8,331.9c-0.1,0-0.2,0-0.4,0v0.1c0,0-0.1,0-0.1,0
	c-22-1.5-39.4-18.6-39.4-39.7c0-21.2,17.4-38.3,39.4-39.8c0,0,0.1,0,0.1,0v0.1c0.1,0,0.2,0,0.4-0.1c0.1,0,0.2,0,0.3,0.1v-0.1
	c0,0,0.1,0,0.1,0c22,1.5,39.4,18.6,39.4,39.8c0,21.1-17.4,38.2-39.4,39.7c0,0-0.1,0-0.1,0v-0.1C488,331.8,487.9,331.8,487.8,331.9
	 M274.7,438.8c-4.6,2.5-9.6,4.3-15.2,4.3c-9.6,0-17.8-4.4-23.5-11c-4.2-4.9-7.2-11-7.2-17.9c0-16,13.7-28.9,30.6-28.9
	s30.6,12.9,30.6,28.9C290.1,424.8,283.7,433.7,274.7,438.8 M236.7,332.5c-14,0-25.6-10.9-25.6-24.2v-1.1c0-3.1,0.4-6.4,1-9.9
	c1.9-11.4,6.6-23.9,12.2-30.8c7.3-9.1,24.1-13.1,37.4-8.8l16.7,5.3l59.8,19.1c13.3,4.3,24.3,17.3,24.3,29.1
	c0,11.7-11.5,21.3-25.6,21.3L236.7,332.5L236.7,332.5z M582.6,450.1h-94.5h-0.7H393c-21,0-37.9-16.1-37.9-35.8
	c0-19.8,17-35.8,37.9-35.8h94.5h0.7h94.5c20.9,0,37.9,16,37.9,35.8C620.6,434,603.6,450.1,582.6,450.1 M739.6,432.1
	c-5.6,6.5-13.9,11-23.5,11c-5.6,0-10.7-1.8-15.2-4.3c-9-5.1-15.4-14-15.4-24.5c0-16,13.7-28.9,30.6-28.9c16.9,0,30.6,12.9,30.6,28.9
	C746.7,421.2,743.8,427.2,739.6,432.1 M764.5,308.4c0,13.3-11.5,24.2-25.6,24.2H638.7c-14.1,0-25.6-9.6-25.6-21.3
	c0-11.7,10.9-24.8,24.3-29.1l59.8-19.1l16.7-5.3c13.3-4.3,30.1-0.3,37.4,8.8c5.6,7,10.3,19.4,12.2,30.8c0.6,3.4,1,6.8,1,9.9
	L764.5,308.4L764.5,308.4z"/>
</svg>
