<?xml version="1.0" encoding="utf-8"?>
<!-- Generator: Adobe Illustrator 18.1.0, SVG Export Plug-In . SVG Version: 6.00 Build 0)  -->
<svg version="1.1" id="_x31_" xmlns="http://www.w3.org/2000/svg" xmlns:xlink="http://www.w3.org/1999/xlink" x="0px" y="0px"
	 viewBox="0 0 19.7 19.7" enable-background="new 0 0 19.7 19.7" xml:space="preserve">
<path fill="#F9F9F9" d="M18.7,4.4l-0.9-1.1c-0.4-0.5-0.9-1-1.4-1.5L15.3,1L9.8,6.5L4.4,1L3.3,1.8c-0.5,0.4-1,0.9-1.5,1.5L1,4.4
	l5.5,5.5L1,15.3l0.9,1.1c0.4,0.5,0.9,1,1.5,1.4l1,0.9l5.5-5.5l5.5,5.4l1-0.9c0.5-0.4,1-0.9,1.4-1.4l0.9-1l-5.4-5.5L18.7,4.4z"/>
<path fill="#FF6600" d="M16.6,15.4l-5.5-5.6l5.6-5.6c-0.4-0.5-0.8-0.9-1.2-1.2L9.8,8.6L4.3,3C3.8,3.4,3.4,3.8,3,4.3l5.6,5.6L3,15.4
	c0.4,0.5,0.8,0.9,1.2,1.2l5.6-5.6l5.6,5.5C15.9,16.3,16.3,15.9,16.6,15.4z"/>
</svg>
