<?xml version="1.0" encoding="utf-8"?>
<!-- Generator: Adobe Illustrator 18.1.0, SVG Export Plug-In . SVG Version: 6.00 Build 0)  -->
<svg version="1.1" id="_x31_" xmlns="http://www.w3.org/2000/svg" xmlns:xlink="http://www.w3.org/1999/xlink" x="0px" y="0px"
	 viewBox="0 0 30 30" enable-background="new 0 0 30 30" xml:space="preserve">
<path fill="#8B8B8B" d="M15,0c-4.7,0-8.5,3.8-8.5,8.5c0,1.9,1.2,5,3.7,9.4c1.8,3.1,3.5,5.8,3.6,5.9l1.3,1.9l1.3-1.9
	c0.1-0.1,1.8-2.7,3.6-5.9c2.5-4.5,3.7-7.5,3.7-9.4C23.5,3.8,19.7,0,15,0z M15,12.9c-2.4,0-4.4-2-4.4-4.4S12.5,4,15,4s4.4,2,4.4,4.4
	S17.4,12.9,15,12.9z"/>
<g>
	<path fill="#8B8B8B" d="M25.3,19.8l4.6,9.5c0.2,0.4,0,0.7-0.4,0.7H0.6c-0.4,0-0.6-0.3-0.4-0.7l4.6-9.5c0.1-0.2,0.3-0.3,0.4-0.3h4
		c0.1,0,0.3,0.1,0.4,0.2c0.3,0.3,0.5,0.6,0.8,0.9c0.3,0.3,0.5,0.6,0.8,0.9H6.4c-0.2,0-0.4,0.1-0.4,0.3L2.9,28h24.2l-3.1-6.3
		c-0.1-0.2-0.3-0.3-0.4-0.3H19c0.3-0.3,0.5-0.6,0.8-0.9c0.3-0.3,0.5-0.6,0.8-0.9c0.1-0.1,0.2-0.2,0.4-0.2h4
		C25.1,19.5,25.2,19.7,25.3,19.8z"/>
</g>
</svg>
