<?xml version="1.0" encoding="utf-8"?>
<!-- Generator: Adobe Illustrator 18.1.0, SVG Export Plug-In . SVG Version: 6.00 Build 0)  -->
<svg version="1.1" id="_x31_" xmlns="http://www.w3.org/2000/svg" xmlns:xlink="http://www.w3.org/1999/xlink" x="0px" y="0px"
	 viewBox="20 -15.8 47.8 47.8" enable-background="new 20 -15.8 47.8 47.8" xml:space="preserve">
<circle fill="#8B8B8B" cx="43.9" cy="-1.9" r="3.6"/>
<path fill="#8B8B8B" d="M58.7-1c0-8.2-6.6-14.8-14.8-14.8S29.1-9.2,29.1-1c0,11.7,14.8,29.1,14.8,29.1S58.7,10.7,58.7-1z M36.6-1.9
	c0-4,3.3-7.3,7.3-7.3s7.3,3.3,7.3,7.3S48,5.4,43.9,5.4S36.6,2.2,36.6-1.9z"/>
<path fill="#8B8B8B" d="M55.1,23.1c-0.8,0.8-1.6,1.5-2.3,2.3c5.4,0.4,9,1.2,10.5,1.9c-2.3,0.9-9,2.2-19.3,2.2
	c-10.4,0-17.1-1.3-19.3-2.2c1.5-0.6,5.1-1.4,10.5-1.9c-0.8-0.7-1.6-1.5-2.3-2.3C25.2,23.9,20,25.4,20,27.2c0,2.6,10.7,4.7,23.9,4.7
	c13.2,0,23.9-2.1,23.9-4.7C67.8,25.4,62.7,23.9,55.1,23.1z"/>
</svg>
