<?xml version="1.0" encoding="utf-8"?>
<!-- Generator: Adobe Illustrator 18.1.0, SVG Export Plug-In . SVG Version: 6.00 Build 0)  -->
<svg version="1.1" id="Capa_1" xmlns="http://www.w3.org/2000/svg" xmlns:xlink="http://www.w3.org/1999/xlink" x="0px" y="0px"
	 viewBox="5 -9.7 49.7 49.7" enable-background="new 5 -9.7 49.7 49.7" xml:space="preserve">
<g>
	<g>
		<path fill="#A8A8A8" d="M29.8-7.3C17.4-7.3,7.3,2.8,7.3,15.2s10.1,22.5,22.5,22.5c12.4,0,22.5-10.1,22.5-22.5S42.2-7.3,29.8-7.3z
			 M44.1,28.9c0-0.6,0-1,0-1c0-3.4-3.9-4.6-6-5.5c-0.8-0.3-2.2-1-3.7-1.7c-0.5-0.2-0.9-0.9-1-1.4l-0.2-1.6c1.1-1,2.1-2.5,2.3-4.1
			h0.3c0.4,0,0.8-0.3,0.8-0.7l0.4-2.5c0.1-0.5-0.4-0.8-0.8-0.8c0-0.1,0-0.1,0-0.1c0.1-0.3,0.1-0.6,0.1-0.9c0-0.2,0-0.5,0.1-0.7
			c0-1.2-0.2-2.2-0.5-2.7c-0.3-0.8-0.8-1.6-1.5-2.2c-1.9-1.8-4.2-2.6-6.1-1.1c-1.3-0.2-2.9,0.4-4,1.7c-0.6,0.7-1,1.5-1.2,2.3
			c-0.1,0.5-0.2,1.1-0.3,1.8c0,0.7,0,1.4,0.2,1.9c-0.4,0-0.8,0.3-0.8,0.8l0.4,2.5c0.1,0.4,0.4,0.7,0.8,0.7h0.2
			c0.4,1.8,1.3,3.2,2.3,4.2L26,19.2c-0.1,0.5-0.5,1.2-1,1.4c-1.4,0.7-2.8,1.4-3.7,1.7c-2,0.8-6,2.1-6,5.5v0.8
			C12,25.1,10,20.4,10,15.2C10,4.2,18.9-4.6,29.8-4.6c10.9,0,19.8,8.9,19.8,19.8C49.7,20.5,47.5,25.3,44.1,28.9z"/>
	</g>
</g>
</svg>
