<?xml version="1.0" encoding="utf-8"?>
<svg version="1.1" id="ed" xmlns="http://www.w3.org/2000/svg" xmlns:xlink="http://www.w3.org/1999/xlink" x="0px" y="0px"
	 viewBox="97 0 647 595.3" enable-background="new 97 0 647 595.3" xml:space="preserve">
<path fill="#8B8B8B" d="M302.6,274C324,336.3,364,383.7,421.2,383.7c55.1,0,95.7-46.6,117.7-108.9c44.4-44.8,33.9-78.3,23.6-94.3
	C586.5,65.1,512.8,0,417,0C244.9,0,274.9,188.4,274.9,188.4c0.2,0,0.4,0,0.6,0C267.7,206.2,265.2,236,302.6,274z M374.5,134.1
	L362,181c61.4-18.7,69.6-29,79.3-35.9c10.1-7.4,18.5-14.8,25.5-21.4c3.1,5.8,7.2,10.9,11.7,15.6c4.5,4.7,11.3-43.3,11.3-43.3
	s17,29.2,19.3,38.6c1.6,6.8,12.3,33.9,18.1,36.4c-2.3,89.4-42.3,183-106,183c-59.4,0-98.2-81.1-105-164.5
	C332.4,188.2,374.5,134.1,374.5,134.1z"/>
<path fill="#8B8B8B" d="M740.6,565.3c-2.7-12.7-6-24.6-10.1-35.7c-35.1-95.9-118.1-135.4-119.1-136l-70.7-25.9l-14-19.7l-10.9,23.8
	c-0.2,0.4-88.3,75.2-95.5,146.9c-1.8-46.2-93.7-146.3-93.9-146.9L315.6,348l-14,19.5L232,393.2l-1,0.4c-1,0.4-84,40.1-119.1,136
	c-4.1,11.3-7.6,23.4-10.3,36.4c-1.8,9.2-3.5,29.2,18.7,29.2c110.3,0,585.8,0,601.9,0C740.4,595.1,742.4,574.7,740.6,565.3z"/>
</svg>
