<?xml version="1.0" encoding="utf-8"?>
<!-- Generator: Adobe Illustrator 19.0.1, SVG Export Plug-In . SVG Version: 6.00 Build 0)  -->
<svg version="1.0" id="Слой_1" xmlns="http://www.w3.org/2000/svg" xmlns:xlink="http://www.w3.org/1999/xlink" x="0px" y="0px"
	 viewBox="0 0 102 132" style="enable-background:new 0 0 102 132;" xml:space="preserve">
<style type="text/css">
	.st0{fill:#F7EA02;}
</style>
<g>
	<path class="st0" d="M1.3,101.9V29.2c0-16.6,12.4-28.6,27.9-28.6c15.5,0,27.9,12.1,27.9,28.6v72.7c0,16.6-12.4,28.6-27.9,28.6
		C13.7,130.5,1.3,118.4,1.3,101.9z M53.5,101.9V29.2C53.5,14.4,42.7,4,29.2,4S4.9,14.4,4.9,29.2v72.7c0,14.8,10.8,25.2,24.3,25.2
		S53.5,116.6,53.5,101.9z"/>
	<path class="st0" d="M100.4,2.5v126h-3.6V7.9L75.4,25v-4L98.3,2.5H100.4z"/>
</g>
</svg>
