<?xml version="1.0" encoding="utf-8"?>
<!-- Generator: Adobe Illustrator 19.0.1, SVG Export Plug-In . SVG Version: 6.00 Build 0)  -->
<svg version="1.0" id="Слой_1" xmlns="http://www.w3.org/2000/svg" xmlns:xlink="http://www.w3.org/1999/xlink" x="0px" y="0px"
	 viewBox="0 0 132 132" style="enable-background:new 0 0 132 132;" xml:space="preserve">
<style type="text/css">
	.st0{fill:#F7EA02;}
</style>
<g>
	<path class="st0" d="M1.6,101.9V29.2c0-16.6,12.4-28.6,27.9-28.6c15.5,0,27.9,12.1,27.9,28.6v72.7c0,16.6-12.4,28.6-27.9,28.6
		C14.1,130.5,1.6,118.4,1.6,101.9z M53.8,101.9V29.2C53.8,14.4,43,4,29.5,4C16,4,5.2,14.4,5.2,29.2v72.7c0,14.8,10.8,25.2,24.3,25.2
		C43,127.1,53.8,116.6,53.8,101.9z"/>
	<path class="st0" d="M76.2,124.9c0-36.2,50.8-61.6,50.8-95.9c0-14.8-10.3-24.7-23.9-24.3c-13,0-22.1,10.3-22.9,25.7h-3.6
		C77.6,13.3,88.2,1.3,103,1.3c15.8-0.4,27.5,11.3,27.5,27.7c0,36.5-50.8,61-50.8,95.9h51.1v3.6H76.2V124.9z"/>
</g>
</svg>
