<?xml version="1.0" encoding="utf-8"?>
<!-- Generator: Adobe Illustrator 19.0.1, SVG Export Plug-In . SVG Version: 6.00 Build 0)  -->
<svg version="1.0" id="Слой_1" xmlns="http://www.w3.org/2000/svg" xmlns:xlink="http://www.w3.org/1999/xlink" x="0px" y="0px"
	 viewBox="0 0 130 132" style="enable-background:new 0 0 130 132;" xml:space="preserve">
<style type="text/css">
	.st0{fill:#F7EA02;}
</style>
<g>
	<path class="st0" d="M1.6,101.9V29.2C1.6,12.6,14,0.5,29.5,0.5c15.5,0,27.9,12.1,27.9,28.6v72.7c0,16.6-12.4,28.6-27.9,28.6
		C14,130.5,1.6,118.4,1.6,101.9z M53.8,101.9V29.2C53.8,14.4,43,4,29.5,4S5.2,14.4,5.2,29.2v72.7c0,14.8,10.8,25.2,24.3,25.2
		S53.8,116.6,53.8,101.9z"/>
	<path class="st0" d="M128.3,83.2v14.2c0,20.5-11.2,32.4-27.7,32.4c-15.1,0-26.8-11.7-26.8-29.3h3.6c0.4,15.8,10.1,25.9,23.2,25.9
		c14.6,0,24.1-10.3,24.1-29V83.2c0-16-10.6-25.7-24.5-25.7h-7.9v-2.5l30.6-49H76.1V2.5h51.5v2.2L97.1,54h3.1
		C116,54,128.3,65.3,128.3,83.2z"/>
</g>
</svg>
