<?xml version="1.0" encoding="utf-8"?>
<!-- Generator: Adobe Illustrator 19.0.1, SVG Export Plug-In . SVG Version: 6.00 Build 0)  -->
<svg version="1.0" id="Слой_1" xmlns="http://www.w3.org/2000/svg" xmlns:xlink="http://www.w3.org/1999/xlink" x="0px" y="0px"
	 viewBox="0 0 137.5 132" style="enable-background:new 0 0 137.5 132;" xml:space="preserve">
<style type="text/css">
	.st0{fill:#F7EA02;}
</style>
<g>
	<path class="st0" d="M1.8,101.9V29.2c0-16.6,12.4-28.6,27.9-28.6c15.5,0,27.9,12.1,27.9,28.6v72.7c0,16.6-12.4,28.6-27.9,28.6
		C14.2,130.5,1.8,118.4,1.8,101.9z M54,101.9V29.2C54,14.4,43.2,4,29.7,4S5.4,14.4,5.4,29.2v72.7c0,14.8,10.8,25.2,24.3,25.2
		S54,116.6,54,101.9z"/>
	<path class="st0" d="M135.5,90.5h-14.9v38H117v-38H72.9v-3.1l30.6-85h3.4L76.6,87.1H117V40.7h3.6v46.4h14.9V90.5z"/>
</g>
</svg>
