<?xml version="1.0" encoding="utf-8"?>
<!-- Generator: Adobe Illustrator 19.0.1, SVG Export Plug-In . SVG Version: 6.00 Build 0)  -->
<svg version="1.0" id="Слой_1" xmlns="http://www.w3.org/2000/svg" xmlns:xlink="http://www.w3.org/1999/xlink" x="0px" y="0px"
	 viewBox="0 0 136 132" style="enable-background:new 0 0 136 132;" xml:space="preserve">
<style type="text/css">
	.st0{fill:#F7EA02;}
</style>
<g>
	<path class="st0" d="M1.2,101.9V29.2c0-16.6,12.4-28.6,27.9-28.6C44.6,0.5,57,12.6,57,29.2v72.7c0,16.6-12.4,28.6-27.9,28.6
		C13.7,130.5,1.2,118.4,1.2,101.9z M53.4,101.9V29.2C53.4,14.4,42.6,4,29.1,4C15.6,4,4.8,14.4,4.8,29.2v72.7
		c0,14.8,10.8,25.2,24.3,25.2C42.6,127.1,53.4,116.6,53.4,101.9z"/>
	<path class="st0" d="M134.3,74.5v25.2c0,18.5-12.1,30.6-27.2,30.6c-15.1,0-27.4-12.1-27.4-30.1h3.6c0,16.2,10.6,26.6,23.8,26.6
		c13.1,0,23.6-10.4,23.6-27.2V74.5c0-16.7-10.3-27.2-23-27.2C95.2,47.3,88,54.2,84,65.7h-3.8V2.5h52.2v3.6H83.9V58
		c4.3-8.5,13-14,23.6-14C122.4,43.9,134.3,56,134.3,74.5z"/>
</g>
</svg>
