<?xml version="1.0" encoding="utf-8"?>
<!-- Generator: Adobe Illustrator 19.0.1, SVG Export Plug-In . SVG Version: 6.00 Build 0)  -->
<svg version="1.0" id="Слой_1" xmlns="http://www.w3.org/2000/svg" xmlns:xlink="http://www.w3.org/1999/xlink" x="0px" y="0px"
	 viewBox="0 0 139 132" style="enable-background:new 0 0 139 132;" xml:space="preserve">
<style type="text/css">
	.st0{fill:#F7EA02;}
</style>
<g>
	<path class="st0" d="M2,101.9V29.2C2,12.6,14.4,0.5,29.9,0.5c15.5,0,27.9,12.1,27.9,28.6v72.7c0,16.6-12.4,28.6-27.9,28.6
		C14.4,130.5,2,118.4,2,101.9z M54.2,101.9V29.2C54.2,14.4,43.4,4,29.9,4S5.6,14.4,5.6,29.2v72.7c0,14.8,10.8,25.2,24.3,25.2
		S54.2,116.6,54.2,101.9z"/>
	<path class="st0" d="M137.3,75.1v24.1c0,18.5-12.2,30.6-27.5,30.6c-15.3,0-27.5-12.1-27.5-27V31c0-18.4,11.7-30.4,27.4-30.4
		c14.6,0,26.5,11.5,26.8,28.8h-3.6C132.1,13.9,122.4,4,109.6,4C95.9,4,85.9,14.4,85.9,31v28.4c4-8.8,13-14.8,23.9-14.8
		C125.1,44.6,137.3,56.7,137.3,75.1z M133.7,75.1c0-16.6-10.6-27-23.9-27c-13.3,0-23.9,10.4-23.9,23.4v31.3
		c0,13.1,10.6,23.6,23.9,23.6c13.3,0,23.9-10.4,23.9-27.2V75.1z"/>
</g>
</svg>
