<?xml version="1.0" encoding="utf-8"?>
<!-- Generator: Adobe Illustrator 15.0.0, SVG Export Plug-In . SVG Version: 6.00 Build 0)  -->
<!DOCTYPE svg PUBLIC "-//W3C//DTD SVG 1.1//EN" "http://www.w3.org/Graphics/SVG/1.1/DTD/svg11.dtd">
<svg version="1.1" id="Layer_1" xmlns="http://www.w3.org/2000/svg" xmlns:xlink="http://www.w3.org/1999/xlink" x="0px" y="0px"
	 width="50.886px" height="50.877px" viewBox="0 0 50.886 50.877" enable-background="new 0 0 50.886 50.877" xml:space="preserve">
<g>
	<path fill="none" stroke="#FFFFFF" stroke-width="0.52" stroke-miterlimit="22.926" d="M4.875,4.735h6.753
		c-0.382,0.447-0.613,1.027-0.613,1.661c0,1.41,1.144,2.554,2.554,2.554c1.411,0,2.555-1.144,2.555-2.554
		c0-0.634-0.231-1.214-0.613-1.661h6.768v6.831c0.44-0.358,1.001-0.573,1.612-0.573c1.411,0,2.555,1.144,2.555,2.555
		c0,1.411-1.144,2.554-2.555,2.554c-0.611,0-1.172-0.215-1.612-0.573v6.832h-6.751c0.373-0.444,0.596-1.015,0.596-1.64
		c0-1.41-1.144-2.554-2.555-2.554c-1.41,0-2.554,1.144-2.554,2.554c0,0.625,0.224,1.196,0.596,1.64H4.875v-6.883
		c-0.449,0.389-1.033,0.624-1.673,0.624c-1.411,0-2.555-1.143-2.555-2.554c0-1.411,1.144-2.555,2.555-2.555
		c0.64,0,1.224,0.235,1.673,0.624V4.735z"/>
	<path fill="none" stroke="#FFFFFF" stroke-width="0.52" stroke-miterlimit="22.926" d="M46.269,22.218v-6.753
		c-0.446,0.382-1.025,0.613-1.66,0.613c-1.41,0-2.555-1.144-2.555-2.554c0-1.411,1.145-2.555,2.555-2.555
		c0.635,0,1.214,0.231,1.66,0.613V4.814h-6.831c0.358-0.439,0.573-1,0.573-1.612c0-1.41-1.144-2.554-2.555-2.554
		c-1.41,0-2.555,1.144-2.555,2.554c0,0.612,0.216,1.173,0.573,1.612h-6.832v6.751c0.444-0.372,1.017-0.596,1.641-0.596
		c1.409,0,2.554,1.144,2.554,2.555c0,1.41-1.145,2.554-2.554,2.554c-0.624,0-1.196-0.223-1.641-0.596v6.736h6.883
		c-0.389,0.449-0.624,1.033-0.624,1.673c0,1.411,1.145,2.555,2.555,2.555c1.411,0,2.555-1.144,2.555-2.555
		c0-0.64-0.235-1.224-0.624-1.673H46.269z"/>
	<path fill="none" stroke="#FFFFFF" stroke-width="0.52" stroke-miterlimit="22.926" d="M46.011,28.519h-6.753
		c0.382,0.447,0.612,1.025,0.612,1.661c0,1.409-1.144,2.554-2.555,2.554c-1.41,0-2.554-1.145-2.554-2.554
		c0-0.636,0.23-1.214,0.613-1.661h-6.769v6.831c-0.439-0.358-1-0.573-1.612-0.573c-1.409,0-2.555,1.144-2.555,2.555
		c0,1.41,1.146,2.555,2.555,2.555c0.612,0,1.173-0.216,1.612-0.573v6.832h6.75c-0.371-0.444-0.595-1.017-0.595-1.641
		c0-1.409,1.144-2.554,2.554-2.554c1.411,0,2.555,1.145,2.555,2.554c0,0.624-0.223,1.196-0.596,1.641h6.736v-6.883
		c0.449,0.389,1.033,0.624,1.673,0.624c1.411,0,2.555-1.145,2.555-2.555c0-1.411-1.144-2.555-2.555-2.555
		c-0.64,0-1.224,0.235-1.673,0.624V28.519z"/>
	<path fill="none" stroke="#FFFFFF" stroke-width="0.52" stroke-miterlimit="22.926" d="M4.617,46.001v-6.753
		c0.447,0.382,1.026,0.613,1.661,0.613c1.41,0,2.554-1.144,2.554-2.554c0-1.411-1.144-2.556-2.554-2.556
		c-0.635,0-1.214,0.231-1.661,0.613v-6.768h6.831c-0.358-0.44-0.573-1.001-0.573-1.612c0-1.411,1.144-2.555,2.555-2.555
		c1.41,0,2.554,1.144,2.554,2.555c0,0.611-0.215,1.172-0.573,1.612h6.832v6.751c-0.444-0.372-1.016-0.597-1.64-0.597
		c-1.411,0-2.554,1.145-2.554,2.556c0,1.41,1.143,2.554,2.554,2.554c0.624,0,1.196-0.224,1.64-0.596v6.735H15.36
		c0.389,0.449,0.624,1.033,0.624,1.674c0,1.41-1.144,2.555-2.554,2.555c-1.411,0-2.555-1.145-2.555-2.555
		c0-0.641,0.235-1.225,0.624-1.674H4.617z"/>
</g>
</svg>
