<?xml version="1.0" encoding="utf-8"?>
<!-- Generator: Adobe Illustrator 15.0.0, SVG Export Plug-In . SVG Version: 6.00 Build 0)  -->
<!DOCTYPE svg PUBLIC "-//W3C//DTD SVG 1.1//EN" "http://www.w3.org/Graphics/SVG/1.1/DTD/svg11.dtd">
<svg version="1.1" id="Layer_1" xmlns="http://www.w3.org/2000/svg" xmlns:xlink="http://www.w3.org/1999/xlink" x="0px" y="0px"
	 width="90.203px" height="89.724px" viewBox="0 0 90.203 89.724" enable-background="new 0 0 90.203 89.724" xml:space="preserve">
<g>
	<g>
		<rect x="18.931" y="0.515" fill="none" stroke="#FFFFFF" stroke-miterlimit="22.926" width="52.262" height="11.076"/>
	</g>
	<rect x="29.547" y="20.417" fill="none" stroke="#FFFFFF" stroke-miterlimit="22.926" width="31.029" height="6.576"/>
	<rect x="29.547" y="31.799" fill="none" stroke="#FFFFFF" stroke-miterlimit="22.926" width="31.029" height="6.576"/>
	<rect x="29.547" y="43.176" fill="none" stroke="#FFFFFF" stroke-miterlimit="22.926" width="31.029" height="6.576"/>
	<rect x="29.547" y="54.554" fill="none" stroke="#FFFFFF" stroke-miterlimit="22.926" width="31.029" height="6.576"/>
	<rect x="29.547" y="65.931" fill="none" stroke="#FFFFFF" stroke-miterlimit="22.926" width="31.029" height="6.576"/>
	<line fill="none" stroke="#FFFFFF" stroke-miterlimit="22.926" x1="45.062" y1="20.417" x2="45.062" y2="11.591"/>
	<path fill="none" stroke="#FFFFFF" stroke-linecap="round" stroke-linejoin="round" stroke-miterlimit="22.926" d="M65.586,34.826
		c2.986,0,5.406-2.42,5.406-5.406c0-2.985-2.42-5.405-5.406-5.405"/>
	<path fill="none" stroke="#FFFFFF" stroke-linecap="round" stroke-linejoin="round" stroke-miterlimit="22.926" d="M65.586,57.828
		c2.986,0,5.406-2.42,5.406-5.406c0-2.984-2.42-5.405-5.406-5.405"/>
	<path fill="none" stroke="#FFFFFF" stroke-linecap="round" stroke-linejoin="round" stroke-miterlimit="22.926" d="M24.046,46.179
		c-2.986,0-5.406-2.42-5.406-5.406c0-2.985,2.42-5.405,5.406-5.405"/>
	<path fill="none" stroke="#FFFFFF" stroke-linecap="round" stroke-linejoin="round" stroke-miterlimit="22.926" d="M24.046,69.181
		c-2.986,0-5.406-2.42-5.406-5.406c0-2.985,2.42-5.405,5.406-5.405"/>
	<rect x="29.547" y="80.374" fill="none" stroke="#FFFFFF" stroke-miterlimit="22.926" width="31.029" height="8.845"/>
	<rect x="0.547" y="80.374" fill="none" stroke="#FFFFFF" stroke-miterlimit="22.926" width="20.732" height="8.845"/>
	<rect x="68.967" y="80.374" fill="none" stroke="#FFFFFF" stroke-miterlimit="22.926" width="20.732" height="8.845"/>
	<line fill="none" stroke="#FFFFFF" stroke-miterlimit="22.926" x1="45.062" y1="80.866" x2="45.062" y2="72.04"/>
	<line fill="none" stroke="#FFFFFF" stroke-miterlimit="22.926" x1="29.576" y1="84.933" x2="21.063" y2="84.933"/>
	<line fill="none" stroke="#FFFFFF" stroke-miterlimit="22.926" x1="68.956" y1="84.933" x2="60.13" y2="84.933"/>
	<path fill-rule="evenodd" clip-rule="evenodd" fill="#FFFFFF" d="M39.436,7.206c0.635,0,1.153-0.518,1.153-1.153
		c0-0.636-0.518-1.154-1.153-1.154c-0.635,0-1.153,0.518-1.153,1.154C38.283,6.688,38.801,7.206,39.436,7.206"/>
	<path fill-rule="evenodd" clip-rule="evenodd" fill="#FFFFFF" d="M45.06,7.206c0.635,0,1.153-0.518,1.153-1.153
		c0-0.636-0.518-1.154-1.153-1.154c-0.635,0-1.153,0.518-1.153,1.154C43.907,6.688,44.425,7.206,45.06,7.206"/>
	<path fill-rule="evenodd" clip-rule="evenodd" fill="#FFFFFF" d="M50.687,7.206c0.635,0,1.152-0.518,1.152-1.153
		c0-0.636-0.518-1.154-1.152-1.154c-0.636,0-1.154,0.518-1.154,1.154C49.532,6.688,50.051,7.206,50.687,7.206"/>
</g>
</svg>
