<?xml version="1.0" encoding="utf-8"?>
<!-- Generator: Adobe Illustrator 15.0.0, SVG Export Plug-In . SVG Version: 6.00 Build 0)  -->
<!DOCTYPE svg PUBLIC "-//W3C//DTD SVG 1.1//EN" "http://www.w3.org/Graphics/SVG/1.1/DTD/svg11.dtd">
<svg version="1.1" id="Layer_1" xmlns="http://www.w3.org/2000/svg" xmlns:xlink="http://www.w3.org/1999/xlink" x="0px" y="0px"
	 width="41.531px" height="50.422px" viewBox="0 0 41.531 50.422" enable-background="new 0 0 41.531 50.422" xml:space="preserve">
<path fill="none" stroke="#FFFFFF" stroke-width="0.38" stroke-miterlimit="22.926" d="M15.98,25.998L15.125,9.45l5.492-9.061
	l5.491,9.061l-0.854,16.548 M25.24,25.897L25.24,25.897c0,2.557-2.068,4.624-4.623,4.624c-2.553,0-4.623-2.067-4.623-4.623"/>
<polyline fill="none" stroke="#FFFFFF" stroke-width="0.38" stroke-miterlimit="22.926" points="15.628,19.163 8.556,25.089 
	11.053,29.085 "/>
<line fill="none" stroke="#FFFFFF" stroke-width="0.38" stroke-miterlimit="22.926" x1="13.802" y1="27.769" x2="15.93" y2="26.039"/>
<polyline fill="none" stroke="#FFFFFF" stroke-width="0.38" stroke-miterlimit="22.926" points="25.594,19.163 32.665,25.089 
	30.168,29.085 "/>
<line fill="none" stroke="#FFFFFF" stroke-width="0.38" stroke-miterlimit="22.926" x1="27.419" y1="27.769" x2="25.291" y2="26.039"/>
<path fill="none" stroke="#FFFFFF" stroke-width="0.38" stroke-miterlimit="22.926" d="M23.999,37.473
	c0.451-3.08,3.096-5.363,6.209-5.363c3.467,0,6.276,2.81,6.276,6.275c0,0.997-0.237,1.98-0.693,2.867"/>
<path fill="none" stroke="#FFFFFF" stroke-width="0.38" stroke-miterlimit="22.926" d="M32.944,42.833
	c0.892-1.134,2.254-1.796,3.696-1.796c2.597,0,4.7,2.104,4.7,4.701c0,2.092-1.382,3.933-3.391,4.515"/>
<path fill="none" stroke="#FFFFFF" stroke-width="0.38" stroke-miterlimit="22.926" d="M25.903,30.396
	c0.645,0.635,1.144,1.403,1.466,2.25"/>
<path fill="none" stroke="#FFFFFF" stroke-width="0.38" stroke-miterlimit="22.926" d="M18.54,38.473
	c-0.452-3.081-3.096-5.364-6.209-5.364c-3.467,0-6.277,2.81-6.277,6.276c0,0.664,0.106,1.324,0.313,1.957"/>
<path fill="none" stroke="#FFFFFF" stroke-width="0.38" stroke-miterlimit="22.926" d="M10.241,42.77
	c-0.733-0.934-1.853-1.478-3.04-1.478c-2.135,0-3.866,1.731-3.866,3.866c0,1.72,1.137,3.234,2.789,3.713"/>
<path fill="none" stroke="#FFFFFF" stroke-width="0.38" stroke-miterlimit="22.926" d="M15.083,30.952
	c-0.646,0.635-1.144,1.402-1.466,2.25"/>
<path fill="none" stroke="#FFFFFF" stroke-width="0.38" stroke-miterlimit="22.926" d="M18.693,47.58
	c0.452-3.081,3.097-5.364,6.209-5.364c0.335,0,0.67,0.027,1.001,0.08"/>
<path fill="none" stroke="#FFFFFF" stroke-width="0.38" stroke-miterlimit="22.926" d="M21.035,43.343
	c-1.028-0.984-2.36-1.59-3.778-1.717"/>
<path fill-rule="evenodd" clip-rule="evenodd" fill="#FFFFFF" d="M20.617,13.033c0.496,0,0.901-0.405,0.901-0.902
	c0-0.497-0.405-0.902-0.901-0.902c-0.498,0-0.902,0.405-0.902,0.902C19.715,12.628,20.119,13.033,20.617,13.033"/>
</svg>
