<?xml version="1.0" encoding="utf-8"?>
<!-- Generator: Adobe Illustrator 15.0.0, SVG Export Plug-In . SVG Version: 6.00 Build 0)  -->
<!DOCTYPE svg PUBLIC "-//W3C//DTD SVG 1.1//EN" "http://www.w3.org/Graphics/SVG/1.1/DTD/svg11.dtd">
<svg version="1.1" id="Layer_1" xmlns="http://www.w3.org/2000/svg" xmlns:xlink="http://www.w3.org/1999/xlink" x="0px" y="0px"
	 width="49.297px" height="47.552px" viewBox="0 0 49.297 47.552" enable-background="new 0 0 49.297 47.552" xml:space="preserve">
<g>
	<polyline fill="none" stroke="#FFFFFF" stroke-width="0.5" stroke-miterlimit="22.926" points="29.952,47.348 0.257,47.348 
		0.257,0.264 49.055,0.264 49.055,47.348 28.594,47.348 	"/>
	<line fill="none" stroke="#FFFFFF" stroke-width="0.5" stroke-miterlimit="22.926" x1="0.257" y1="7.682" x2="49.054" y2="7.682"/>
	
		<line fill="none" stroke="#FFFFFF" stroke-width="0.5" stroke-miterlimit="22.926" x1="13.883" y1="0.264" x2="13.883" y2="7.683"/>
</g>
<line fill="none" stroke="#FFFFFF" stroke-width="0.5" stroke-miterlimit="22.926" x1="17.379" y1="3.901" x2="46.346" y2="3.901"/>
<path fill-rule="evenodd" clip-rule="evenodd" fill="#FFFFFF" d="M5.042,4.732c0.498,0,0.902-0.405,0.902-0.902
	S5.54,2.929,5.042,2.929c-0.496,0-0.901,0.405-0.901,0.902S4.545,4.732,5.042,4.732"/>
<path fill-rule="evenodd" clip-rule="evenodd" fill="#FFFFFF" d="M8.679,4.732c0.498,0,0.902-0.405,0.902-0.902
	S9.177,2.929,8.679,2.929c-0.496,0-0.901,0.405-0.901,0.902S8.184,4.732,8.679,4.732"/>
<g>
	<g>
		<polygon fill="none" stroke="#FFFFFF" stroke-width="0.5" stroke-miterlimit="22.926" points="12.13,20.282 16.616,32.961 
			32.083,32.961 34.249,20.282 		"/>
		<polyline fill="none" stroke="#FFFFFF" stroke-width="0.5" stroke-miterlimit="22.926" points="34.249,20.282 35.286,15.759 
			41.308,15.759 		"/>
		<circle fill="none" stroke="#FFFFFF" stroke-width="0.5" stroke-miterlimit="22.926" cx="17.776" cy="37.292" r="2.242"/>
		<circle fill="none" stroke="#FFFFFF" stroke-width="0.5" stroke-miterlimit="22.926" cx="30.615" cy="37.292" r="2.242"/>
	</g>
	
		<line fill="none" stroke="#FFFFFF" stroke-width="0.5" stroke-miterlimit="22.926" x1="17.034" y1="24.329" x2="30.214" y2="24.329"/>
	
		<line fill="none" stroke="#FFFFFF" stroke-width="0.5" stroke-miterlimit="22.926" x1="18.075" y1="28.326" x2="29.976" y2="28.326"/>
</g>
</svg>
