<?xml version="1.0" encoding="utf-8"?>
<!-- Generator: Adobe Illustrator 15.0.0, SVG Export Plug-In . SVG Version: 6.00 Build 0)  -->
<!DOCTYPE svg PUBLIC "-//W3C//DTD SVG 1.1//EN" "http://www.w3.org/Graphics/SVG/1.1/DTD/svg11.dtd">
<svg version="1.1" id="Layer_1" xmlns="http://www.w3.org/2000/svg" xmlns:xlink="http://www.w3.org/1999/xlink" x="0px" y="0px"
	 width="48.607px" height="41.604px" viewBox="0 0 48.607 41.604" enable-background="new 0 0 48.607 41.604" xml:space="preserve">
<path fill="none" stroke="#FFFFFF" stroke-width="0.4" stroke-miterlimit="10" d="M33.779,32.219v6.785
	c0,1.338-1.086,2.426-2.427,2.426h-14.05c-1.34,0-2.426-1.088-2.426-2.426V2.638c0-1.339,1.086-2.426,2.426-2.426h14.05
	c1.341,0,2.427,1.087,2.427,2.426v11.47"/>
<line fill="none" stroke="#FFFFFF" stroke-width="0.4" stroke-miterlimit="10" x1="14.911" y1="5.895" x2="33.861" y2="5.895"/>
<line fill="none" stroke="#FFFFFF" stroke-width="0.4" stroke-miterlimit="10" x1="14.911" y1="35.328" x2="33.861" y2="35.328"/>
<rect x="23.179" y="37.443" fill="none" stroke="#FFFFFF" stroke-width="0.4" stroke-miterlimit="10" width="2.294" height="1.801"/>
<g>
	<circle fill="none" stroke="#FFFFFF" stroke-width="0.4" stroke-miterlimit="10" cx="36.886" cy="23.15" r="3.032"/>
	<circle fill="none" stroke="#FFFFFF" stroke-width="0.4" stroke-miterlimit="10" cx="36.886" cy="23.15" r="6.465"/>
	<path fill="none" stroke="#FFFFFF" stroke-width="0.4" stroke-miterlimit="10" d="M48.432,24.419v-2.536h-2.044
		c-0.11-0.834-0.321-1.636-0.632-2.388l1.763-1.018l-1.269-2.196l-1.77,1.022c-0.504-0.655-1.091-1.242-1.745-1.747l1.021-1.77
		l-2.197-1.268l-1.017,1.762c-0.752-0.311-1.555-0.522-2.389-0.632v-2.045H35.62v2.044c-0.835,0.11-1.638,0.322-2.391,0.632
		l-1.019-1.763l-2.196,1.268l1.023,1.772c-0.655,0.504-1.241,1.091-1.747,1.745l-1.769-1.022l-1.269,2.196l1.763,1.018
		c-0.31,0.752-0.522,1.556-0.632,2.39h-2.044v2.536h2.044c0.112,0.835,0.322,1.638,0.635,2.39l-1.763,1.019l1.267,2.195L29.292,29
		c0.505,0.655,1.092,1.24,1.746,1.746l-1.021,1.771l2.197,1.268l1.018-1.766c0.752,0.313,1.554,0.521,2.388,0.633v2.043h2.535V32.65
		c0.834-0.109,1.635-0.32,2.388-0.631l1.018,1.764l2.197-1.268l-1.023-1.771c0.655-0.504,1.242-1.09,1.746-1.744l1.771,1.021
		l1.269-2.195l-1.764-1.019c0.311-0.753,0.521-1.556,0.633-2.389H48.432z"/>
</g>
<g>
	<g>
		<path fill="#231F20" stroke="#FFFFFF" stroke-miterlimit="10" d="M15.083,6.104v0.031c0.033-0.009,0.063-0.023,0.096-0.031H15.083
			z"/>
		<path fill="#231F20" stroke="#FFFFFF" stroke-miterlimit="10" d="M17.494,6.104h-1.03c1.251,0.292,2.189,1.412,2.189,2.752
			c0,1.562-1.27,2.832-2.831,2.832c-0.257,0-0.501-0.045-0.738-0.11v0.417c0.238,0.056,0.483,0.093,0.738,0.093
			c1.782,0,3.231-1.45,3.231-3.232C19.053,7.688,18.425,6.673,17.494,6.104z"/>
	</g>
	<path fill="#231F20" stroke="#FFFFFF" stroke-miterlimit="10" d="M21.885,6.104h-0.444c0.409,0.832,0.646,1.764,0.646,2.752
		c0,3.455-2.81,6.265-6.265,6.265c-0.25,0-0.496-0.019-0.738-0.047v0.404c0.243,0.027,0.488,0.043,0.738,0.043
		c3.675,0,6.665-2.99,6.665-6.666C22.487,7.875,22.268,6.945,21.885,6.104z"/>
</g>
<g>
	<circle fill="none" stroke="#FFFFFF" stroke-width="0.4" stroke-miterlimit="10" cx="8.366" cy="23.066" r="3.363"/>
	<circle fill="none" stroke="#FFFFFF" stroke-width="0.4" stroke-miterlimit="10" cx="8.366" cy="23.066" r="4.716"/>
	<g>
		<path fill="none" stroke="#FFFFFF" stroke-width="0.4" stroke-miterlimit="10" d="M5.979,19c0,0,0.229-3.17,0.535-3.818
			c0.069-0.147,0.219-0.239,0.68-0.278C7.691,14.86,8.5,14.875,8.5,14.875"/>
		<path fill="none" stroke="#FFFFFF" stroke-width="0.4" stroke-miterlimit="10" d="M10.846,19c0,0-0.23-3.17-0.535-3.818
			c-0.069-0.147-0.219-0.239-0.68-0.278c-0.497-0.043-1.306-0.027-1.306-0.027"/>
	</g>
	<g>
		<path fill="none" stroke="#FFFFFF" stroke-width="0.4" stroke-miterlimit="10" d="M5.979,27.117c0,0,0.229,3.17,0.535,3.818
			c0.069,0.146,0.219,0.238,0.68,0.279C7.691,31.256,8.5,31.24,8.5,31.24"/>
		<path fill="none" stroke="#FFFFFF" stroke-width="0.4" stroke-miterlimit="10" d="M10.846,27.117c0,0-0.23,3.17-0.535,3.818
			c-0.069,0.146-0.219,0.238-0.68,0.279c-0.497,0.041-1.306,0.025-1.306,0.025"/>
	</g>
</g>
<path fill="none" stroke="#FFFFFF" stroke-miterlimit="1" d="M25.208,6.104h-0.423c0.148,0.488,0.271,0.989,0.341,1.512
	l0.023,0.174h2.018v2.135h-2.018l-0.023,0.174c-0.11,0.822-0.318,1.609-0.62,2.339L24.439,12.6l1.742,1.006l-1.069,1.85l-1.748-1.01
	l-0.106,0.139c-0.491,0.638-1.066,1.212-1.71,1.708l-0.139,0.107l1.011,1.751l-1.851,1.068l-1.005-1.742l-0.162,0.066
	c-0.729,0.301-1.516,0.509-2.338,0.618l-0.174,0.023v2.02h-1.807v0.4h2.207v-2.071c0.733-0.11,1.438-0.296,2.101-0.555l1.031,1.787
	l2.544-1.467L21.929,16.5c0.569-0.455,1.085-0.97,1.537-1.535l1.792,1.035l1.47-2.542l-1.787-1.031
	c0.259-0.663,0.446-1.369,0.556-2.102h2.07V7.39h-2.069C25.432,6.949,25.329,6.522,25.208,6.104z"/>
</svg>
