<svg version="1.1" id="brand_logo" xmlns="http://www.w3.org/2000/svg" x="0px" y="0px"
	 width="608.489px" height="75.5px" viewBox="0 0 608.489 75.5" enable-background="new 0 0 608.489 75.5" xml:space="preserve">
<g>
	<path fill="#ffffff" d="M139.902,52.322c0-1.639-0.61-2.979-1.831-4.025c-1.222-1.045-3.378-1.98-6.472-2.809
		c-4.413-1.158-7.809-2.691-10.188-4.6c-2.378-1.908-3.568-4.409-3.568-7.502c0-3.183,1.316-5.806,3.948-7.868
		c2.632-2.062,6.028-3.093,10.188-3.093c4.342,0,7.828,1.171,10.46,3.513c2.632,2.343,3.902,5.152,3.813,8.425l-0.055,0.163h-6.322
		c0-2.026-0.688-3.667-2.062-4.925c-1.375-1.257-3.338-1.885-5.888-1.885c-2.406,0-4.255,0.523-5.548,1.57
		c-1.294,1.047-1.941,2.4-1.941,4.06c0,1.498,0.701,2.744,2.104,3.737c1.401,0.992,3.72,1.931,6.959,2.815
		c4.251,1.14,7.479,2.714,9.686,4.721c2.207,2.008,3.311,4.568,3.311,7.679c0,3.292-1.317,5.911-3.948,7.855
		c-2.632,1.944-6.091,2.917-10.378,2.917c-4.124,0-7.743-1.1-10.854-3.297c-3.111-2.198-4.622-5.196-4.531-8.994l0.055-0.164h6.348
		c0,2.407,0.832,4.202,2.496,5.386c1.664,1.186,3.826,1.778,6.486,1.778c2.441,0,4.34-0.491,5.697-1.472
		C139.225,55.325,139.902,53.997,139.902,52.322"/>
	<polygon fill="#ffffff" points="180.439,28.286 168.501,28.286 168.501,62.5 161.908,62.5 161.908,28.286
		149.969,28.286 149.969,22.995 180.439,22.995 	"/>
	<polygon fill="#ffffff" points="207.472,44.728 190.188,44.728 190.188,57.209 210.239,57.209 210.239,62.5
		183.595,62.5 183.595,22.995 210.049,22.995 210.049,28.286 190.188,28.286 190.188,39.437 207.472,39.437 	"/>
	<path fill="#ffffff" d="M239.208,53.275h-15.465l-3.148,9.225h-6.674l14.516-39.505h6.24L249.031,62.5h-6.702
		L239.208,53.275z M225.642,47.768h11.694l-5.724-16.877h-0.163L225.642,47.768z"/>
	<path fill="#ffffff" d="M258.209,46.111V62.5h-6.593V22.995h14.597c4.414,0,7.823,0.995,10.229,2.985
		c2.406,1.989,3.609,4.829,3.609,8.519c0,2.045-0.53,3.803-1.587,5.277c-1.059,1.475-2.601,2.654-4.626,3.541
		c2.225,0.705,3.825,1.858,4.802,3.459c0.977,1.602,1.465,3.568,1.465,5.901v3.283c0,1.158,0.145,2.289,0.434,3.392
		c0.289,1.104,0.778,1.945,1.466,2.523V62.5h-6.783c-0.724-0.597-1.19-1.537-1.398-2.822c-0.208-1.284-0.312-2.541-0.312-3.771
		v-3.175c0-2.025-0.579-3.637-1.737-4.83c-1.157-1.193-2.75-1.791-4.775-1.791H258.209z M258.209,40.82h7.651
		c2.641,0,4.568-0.506,5.78-1.52c1.212-1.012,1.818-2.559,1.818-4.639c0-1.989-0.598-3.549-1.791-4.68
		c-1.194-1.131-3.012-1.696-5.454-1.696h-8.004V40.82z"/>
	<polygon fill="#ffffff" points="292.001,57.209 310.153,57.209 310.153,62.5 285.408,62.5 285.408,22.995
		292.001,22.995 	"/>
	<rect fill="#ffffff" x="314.851" y="22.995" width="6.594" height="39.505"/>
	<polygon fill="#ffffff" points="357.302,62.5 350.736,62.5 333.208,33.658 333.045,33.712 333.045,62.5 326.452,62.5
		326.452,22.995 333.045,22.995 350.573,51.81 350.736,51.755 350.736,22.995 357.302,22.995 	"/>
	<path fill="#ffffff" d="M392.396,57.155c-1.049,1.501-2.771,2.862-5.169,4.083c-2.396,1.222-5.477,1.831-9.238,1.831
		c-4.758,0-8.674-1.506-11.748-4.518c-3.075-3.011-4.613-6.905-4.613-11.68v-8.249c0-4.775,1.453-8.669,4.355-11.68
		c2.902-3.012,6.651-4.518,11.246-4.518c4.648,0,8.262,1.145,10.84,3.433c2.577,2.288,3.894,5.268,3.947,8.94l-0.054,0.163h-6.241
		c-0.145-2.171-0.918-3.921-2.319-5.251c-1.401-1.329-3.433-1.994-6.092-1.994c-2.73,0-4.934,1.022-6.605,3.064
		c-1.675,2.042-2.511,4.635-2.511,7.779v8.295c0,3.182,0.909,5.798,2.727,7.849c1.818,2.052,4.174,3.076,7.068,3.076
		c2.063,0,3.735-0.238,5.02-0.717c1.284-0.478,2.216-1.042,2.795-1.69v-8.012h-7.842v-4.938h14.435V57.155z"/>
	<path fill="#ffffff" d="M435.728,53.275h-15.465l-3.148,9.225h-6.674l14.516-39.505h6.24L445.55,62.5h-6.701
		L435.728,53.275z M422.161,47.768h11.694l-5.725-16.877h-0.162L422.161,47.768z"/>
	<path fill="#ffffff" d="M475.573,57.155c-1.049,1.501-2.771,2.862-5.169,4.083c-2.396,1.222-5.477,1.831-9.238,1.831
		c-4.758,0-8.674-1.506-11.748-4.518c-3.075-3.011-4.613-6.905-4.613-11.68v-8.249c0-4.775,1.453-8.669,4.355-11.68
		c2.902-3.012,6.651-4.518,11.246-4.518c4.648,0,8.262,1.145,10.84,3.433c2.577,2.288,3.894,5.268,3.947,8.94l-0.054,0.163h-6.241
		c-0.145-2.171-0.918-3.921-2.319-5.251c-1.401-1.329-3.433-1.994-6.092-1.994c-2.73,0-4.934,1.022-6.605,3.064
		c-1.675,2.042-2.511,4.635-2.511,7.779v8.295c0,3.182,0.909,5.798,2.727,7.849c1.818,2.052,4.174,3.076,7.068,3.076
		c2.063,0,3.735-0.238,5.02-0.717c1.284-0.478,2.216-1.042,2.795-1.69v-8.012h-7.842v-4.938h14.435V57.155z"/>
	<polygon fill="#ffffff" points="503.537,44.728 486.253,44.728 486.253,57.209 506.305,57.209 506.305,62.5
		479.66,62.5 479.66,22.995 506.114,22.995 506.114,28.286 486.253,28.286 486.253,39.437 503.537,39.437 	"/>
	<polygon fill="#ffffff" points="540.716,62.5 534.149,62.5 516.622,33.658 516.459,33.712 516.459,62.5 509.866,62.5
		509.866,22.995 516.459,22.995 533.987,51.81 534.149,51.755 534.149,22.995 540.716,22.995 	"/>
	<path fill="#ffffff" d="M575.187,49.395l0.055,0.163c0.072,3.998-1.226,7.249-3.894,9.754
		c-2.669,2.506-6.281,3.759-10.84,3.759c-4.612,0-8.361-1.552-11.246-4.654c-2.886-3.102-4.328-7.067-4.328-11.897v-7.516
		c0-4.812,1.425-8.777,4.274-11.898c2.848-3.12,6.552-4.68,11.11-4.68c4.666,0,8.343,1.225,11.029,3.677
		c2.686,2.451,3.992,5.747,3.921,9.889l-0.055,0.163h-6.376c0-2.659-0.72-4.73-2.157-6.213c-1.438-1.483-3.56-2.225-6.362-2.225
		c-2.695,0-4.835,1.066-6.417,3.199c-1.583,2.132-2.374,4.807-2.374,8.023v7.563c0,3.253,0.809,5.946,2.428,8.078
		c1.619,2.133,3.803,3.199,6.553,3.199c2.731,0,4.803-0.73,6.214-2.191c1.41-1.46,2.116-3.524,2.116-6.193H575.187z"/>
	<polygon fill="#ffffff" points="591.586,42.205 601.137,22.995 608.489,22.995 594.788,48.636 594.788,62.5
		588.222,62.5 588.222,48.282 574.736,22.995 582.09,22.995 	"/>
	<rect fill="#ffffff" width="64.714" height="10.786"/>
	<rect fill="#ffffff" x="13.482" y="64.714" width="64.714" height="10.786"/>
	<rect fill="#ffffff" x="67.411" y="21.571" width="10.786" height="43.143"/>
	<rect fill="#ffffff" y="5.393" width="10.786" height="43.144"/>
	<rect fill="#ffffff" x="21.733" y="21.571" width="56.463" height="10.786"/>
	<rect fill="#ffffff" y="43.143" width="55.99" height="10.786"/>
</g>
</svg>