
<svg version="1.1" id="Layer_1" xmlns="http://www.w3.org/2000/svg" x="0px" y="0px"
	 width="23.667px" height="21px" viewBox="0 0 23.667 21" enable-background="new 0 0 23.667 21" xml:space="preserve">
<path fill="#fff200" d="M22.908,1.152c0.391-0.391,0.572-0.839,0.409-1c-0.165-0.161-0.613,0.025-1.004,0.417l-10.239,10.25
	c-0.001,0.001,0.596,0.582,0.596,0.582L22.908,1.152z"/>
<path fill="#fff200" d="M11.373,12.681c0.012-0.012-0.583-0.593-0.595-0.583l-2.003,2.008c-0.389,0.391,0.404,0.773,0.596,0.581
	L11.373,12.681z"/>
<path fill-rule="evenodd" clip-rule="evenodd" fill="none" stroke="#fff200" stroke-width="0.9475" stroke-linecap="round" stroke-miterlimit="10" d="
	M8.146,13.897c-0.769-0.254-2.557-0.567-4.017,1.269c-1.707,2.148-0.712,3.784-3.008,4.161c0,0,1.979,1.824,5.321,0.805
	c3.343-1.021,4.203-3.62,2.42-5.77C8.668,14.127,8.386,13.977,8.146,13.897z"/>
</svg>
