<?xml version="1.0" encoding="utf-8"?>
<!-- Generator: Adobe Illustrator 19.0.1, SVG Export Plug-In . SVG Version: 6.00 Build 0)  -->
<svg version="1.0" id="Capa_1" xmlns="http://www.w3.org/2000/svg" xmlns:xlink="http://www.w3.org/1999/xlink" x="0px" y="0px"
	 viewBox="-48.1 256.1 50 50" style="enable-background:new -48.1 256.1 50 50;" xml:space="preserve">
<style type="text/css">
	.st0{fill:#0071B9;}
	.st1{fill:#FFFFFF;}
</style>
<g>
	<rect x="-48.1" y="256.1" class="st0" width="50" height="50"/>
	<g>
		<g id="XMLID_5_">
			<g>
				<rect x="-17.3" y="270.5" class="st1" width="9.7" height="2.4"/>
				<path class="st1" d="M-3.7,284.1c0,0.4,0,0.9-0.1,1.3h-12.5h0c-0.1,2.8,1.9,4.4,4.2,4.4c1.6,0,3.1-0.9,3.9-2.3h4.1
					c-1.1,4.1-4.4,5.8-8.3,5.8c-5.1,0-8.8-4.1-8.8-9.2c0-5.1,3.9-9.2,8.8-9.2S-3.7,279.1-3.7,284.1z M-16.3,282.3h7.7
					c-0.3-2.3-1.9-3.7-3.9-3.7C-14.4,278.6-16,280.1-16.3,282.3z"/>
				<path class="st1" d="M-22.7,284.5c0.3,3.5-0.3,5.7-3.9,7.5c-1.3,0.7-3,0.9-4.6,0.9h-11.4V269c0,0,11,0,12.5,0
					c1.6,0,6.3,0.9,6.4,5.5c0,3.2-1.8,4.6-3.3,5.3C-27,279.8-23,281-22.7,284.5z M-27.8,285.5c0-3.4-3.8-3.3-3.8-3.3h-5.7v6.5h5.7
					C-31.6,288.8-27.8,288.9-27.8,285.5z M-28.8,275.8c0-2.8-3.2-2.7-3.2-2.7h-5.4v5.5h5.4C-31.9,278.6-28.8,278.6-28.8,275.8z"/>
			</g>
		</g>
	</g>
</g>
</svg>
