<?xml version="1.0" encoding="utf-8"?>
<!-- Generator: Adobe Illustrator 19.0.1, SVG Export Plug-In . SVG Version: 6.00 Build 0)  -->
<svg version="1.0" id="Capa_1" xmlns="http://www.w3.org/2000/svg" xmlns:xlink="http://www.w3.org/1999/xlink" x="0px" y="0px"
	 viewBox="-48.1 256.1 50 50" style="enable-background:new -48.1 256.1 50 50;" xml:space="preserve">
<style type="text/css">
	.st0{fill:#ED4989;}
	.st1{fill:#FFFFFF;}
</style>
<g>
	<rect x="-48.1" y="256.1" class="st0" width="50" height="50"/>
	<path class="st1" d="M-23.1,262.2c-10.5,0-18.9,8.5-18.9,18.9s8.5,18.9,18.9,18.9c10.5,0,18.9-8.5,18.9-18.9
		S-12.7,262.2-23.1,262.2z M-7.2,280.9c-2.2-0.6-4.5-1-6.8-1c-1.4,0-2.8,0.1-4.2,0.4c-0.4-1.1-0.9-2.1-1.4-3
		c6.5-2.8,8.8-6.2,8.8-6.2l0,0C-8.5,273.8-7.2,277.2-7.2,280.9z M-23.1,265.2c4.1,0,7.8,1.5,10.6,4l0,0c-2.2,2.5-5.1,4.3-8.3,5.5
		c-3.1-5.7-6-9.1-6-9.1C-25.7,265.3-24.4,265.2-23.1,265.2z M-30,266.7c0,0,2.8,3.6,5.8,9.1c-7.3,2.1-14.5,2-14.5,2h0
		C-37.7,272.9-34.4,268.9-30,266.7z M-39.1,281.1c0-0.1,0-0.3,0-0.4h0c6.8,0,12.2-0.9,16.3-2.2c0.4,0.8,0.8,1.7,1.3,2.6
		c-5.7,1.8-10.4,5.7-13.4,10.7C-37.5,289-39.1,285.2-39.1,281.1z M-23.1,297.1c-3.6,0-7-1.2-9.7-3.3c2.7-4.7,7.1-8.4,12.4-10
		c1.5,3.7,2.8,7.9,3.4,12.1C-18.9,296.7-21,297.1-23.1,297.1z M-14.3,294.4c-0.6-4.1-1.6-7.9-2.8-11.3c1-0.1,2.1-0.2,3.1-0.2
		c2.3,0,4.5,0.4,6.6,1C-8.2,288.3-10.7,292-14.3,294.4z"/>
</g>
</svg>
