<?xml version="1.0" encoding="utf-8"?>
<!-- Generator: Adobe Illustrator 19.0.1, SVG Export Plug-In . SVG Version: 6.00 Build 0)  -->
<svg version="1.0" id="Capa_1" xmlns="http://www.w3.org/2000/svg" xmlns:xlink="http://www.w3.org/1999/xlink" x="0px" y="0px"
	 viewBox="-48.1 256.1 50 50" style="enable-background:new -48.1 256.1 50 50;" xml:space="preserve">
<style type="text/css">
	.st0{fill:#0084B1;}
	.st1{fill:#FFFFFF;}
</style>
<g>
	<rect x="-48.1" y="256.1" class="st0" width="50" height="50"/>
	<g>
		<path class="st1" d="M-36.4,263.7c2.3,0,4.2,1.9,4.2,4.2c0,2.4-2,4.2-4.2,4.2c-2.2,0-4.2-1.8-4.2-4.2
			C-40.6,265.6-38.7,263.7-36.4,263.7z"/>
		<path class="st1" d="M-33.9,298.5h-4.9c-0.6,0-1.2-0.5-1.2-1.2v-20.9c0-0.6,0.5-1.2,1.2-1.2h4.9c0.6,0,1.2,0.5,1.2,1.2v20.9
			C-32.8,298-33.3,298.5-33.9,298.5z"/>
		<path class="st1" d="M-5.7,282.7c0-4.4-3.6-7.9-7.9-7.9h-1.3c-2.4,0-4.5,1.2-5.8,3c-0.1,0.2-0.3,0.4-0.4,0.6c0,0-0.1,0-0.1,0v-2.6
			c0-0.3-0.2-0.5-0.5-0.5h-6.1c-0.3,0-0.5,0.2-0.5,0.5v22.3c0,0.3,0.2,0.5,0.5,0.5l6.3,0c0.3,0,0.5-0.2,0.5-0.5v-12.9
			c0-2.2,1.8-4.1,4-4.1c1.1,0,2.2,0.4,2.9,1.2c0.7,0.7,1.2,1.7,1.2,2.9v12.9c0,0.3,0.2,0.5,0.5,0.5l6.3,0c0.3,0,0.5-0.2,0.5-0.5
			L-5.7,282.7L-5.7,282.7z"/>
	</g>
</g>
</svg>
